<?xml version="1.0" encoding="utf-8" standalone="no"?>
<!DOCTYPE svg PUBLIC "-//W3C//DTD SVG 1.1//EN"
  "http://www.w3.org/Graphics/SVG/1.1/DTD/svg11.dtd">
<svg xmlns:xlink="http://www.w3.org/1999/xlink" width="1080pt" height="576pt" viewBox="0 0 1080 576" xmlns="http://www.w3.org/2000/svg" version="1.1">
 <metadata>
  <rdf:RDF xmlns:dc="http://purl.org/dc/elements/1.1/" xmlns:cc="http://creativecommons.org/ns#" xmlns:rdf="http://www.w3.org/1999/02/22-rdf-syntax-ns#">
   <cc:Work>
    <dc:type rdf:resource="http://purl.org/dc/dcmitype/StillImage"/>
    <dc:date>2023-05-23T01:48:36.058012</dc:date>
    <dc:format>image/svg+xml</dc:format>
    <dc:creator>
     <cc:Agent>
      <dc:title>Matplotlib v3.7.1, https://matplotlib.org/</dc:title>
     </cc:Agent>
    </dc:creator>
   </cc:Work>
  </rdf:RDF>
 </metadata>
 <defs>
  <style type="text/css">*{stroke-linejoin: round; stroke-linecap: butt}</style>
 </defs>
 <g id="figure_1">
  <g id="patch_1">
   <path d="M 0 576 
L 1080 576 
L 1080 0 
L 0 0 
z
" style="fill: #ffffff"/>
  </g>
  <g id="axes_1">
   <g id="patch_2">
    <path d="M 135 512.64 
L 972 512.64 
L 972 69.12 
L 135 69.12 
z
" style="fill: #ffffff"/>
   </g>
   <g id="matplotlib.axis_1">
    <g id="xtick_1">
     <g id="line2d_1">
      <path d="M 159.457792 512.64 
L 159.457792 69.12 
" clip-path="url(#p993a2855e7)" style="fill: none; stroke: #cccccc; stroke-width: 0.8; stroke-linecap: round"/>
     </g>
     <g id="line2d_2"/>
     <g id="text_1">
      <!-- 2023-01-01 -->
      <g style="fill: #262626" transform="translate(133.884355 523.297812) scale(0.1 -0.1)">
       <defs>
        <path id="ArialMT-32" d="M 3222 541 
L 3222 0 
L 194 0 
Q 188 203 259 391 
Q 375 700 629 1000 
Q 884 1300 1366 1694 
Q 2113 2306 2375 2664 
Q 2638 3022 2638 3341 
Q 2638 3675 2398 3904 
Q 2159 4134 1775 4134 
Q 1369 4134 1125 3890 
Q 881 3647 878 3216 
L 300 3275 
Q 359 3922 746 4261 
Q 1134 4600 1788 4600 
Q 2447 4600 2831 4234 
Q 3216 3869 3216 3328 
Q 3216 3053 3103 2787 
Q 2991 2522 2730 2228 
Q 2469 1934 1863 1422 
Q 1356 997 1212 845 
Q 1069 694 975 541 
L 3222 541 
z
" transform="scale(0.015625)"/>
        <path id="ArialMT-30" d="M 266 2259 
Q 266 3072 433 3567 
Q 600 4063 929 4331 
Q 1259 4600 1759 4600 
Q 2128 4600 2406 4451 
Q 2684 4303 2865 4023 
Q 3047 3744 3150 3342 
Q 3253 2941 3253 2259 
Q 3253 1453 3087 958 
Q 2922 463 2592 192 
Q 2263 -78 1759 -78 
Q 1097 -78 719 397 
Q 266 969 266 2259 
z
M 844 2259 
Q 844 1131 1108 757 
Q 1372 384 1759 384 
Q 2147 384 2411 759 
Q 2675 1134 2675 2259 
Q 2675 3391 2411 3762 
Q 2147 4134 1753 4134 
Q 1366 4134 1134 3806 
Q 844 3388 844 2259 
z
" transform="scale(0.015625)"/>
        <path id="ArialMT-33" d="M 269 1209 
L 831 1284 
Q 928 806 1161 595 
Q 1394 384 1728 384 
Q 2125 384 2398 659 
Q 2672 934 2672 1341 
Q 2672 1728 2419 1979 
Q 2166 2231 1775 2231 
Q 1616 2231 1378 2169 
L 1441 2663 
Q 1497 2656 1531 2656 
Q 1891 2656 2178 2843 
Q 2466 3031 2466 3422 
Q 2466 3731 2256 3934 
Q 2047 4138 1716 4138 
Q 1388 4138 1169 3931 
Q 950 3725 888 3313 
L 325 3413 
Q 428 3978 793 4289 
Q 1159 4600 1703 4600 
Q 2078 4600 2393 4439 
Q 2709 4278 2876 4000 
Q 3044 3722 3044 3409 
Q 3044 3113 2884 2869 
Q 2725 2625 2413 2481 
Q 2819 2388 3044 2092 
Q 3269 1797 3269 1353 
Q 3269 753 2831 336 
Q 2394 -81 1725 -81 
Q 1122 -81 723 278 
Q 325 638 269 1209 
z
" transform="scale(0.015625)"/>
        <path id="ArialMT-2d" d="M 203 1375 
L 203 1941 
L 1931 1941 
L 1931 1375 
L 203 1375 
z
" transform="scale(0.015625)"/>
        <path id="ArialMT-31" d="M 2384 0 
L 1822 0 
L 1822 3584 
Q 1619 3391 1289 3197 
Q 959 3003 697 2906 
L 697 3450 
Q 1169 3672 1522 3987 
Q 1875 4303 2022 4600 
L 2384 4600 
L 2384 0 
z
" transform="scale(0.015625)"/>
       </defs>
       <use xlink:href="#ArialMT-32"/>
       <use xlink:href="#ArialMT-30" x="55.615234"/>
       <use xlink:href="#ArialMT-32" x="111.230469"/>
       <use xlink:href="#ArialMT-33" x="166.845703"/>
       <use xlink:href="#ArialMT-2d" x="222.460938"/>
       <use xlink:href="#ArialMT-30" x="255.761719"/>
       <use xlink:href="#ArialMT-31" x="311.376953"/>
       <use xlink:href="#ArialMT-2d" x="366.992188"/>
       <use xlink:href="#ArialMT-30" x="400.292969"/>
       <use xlink:href="#ArialMT-31" x="455.908203"/>
      </g>
     </g>
    </g>
    <g id="xtick_2">
     <g id="line2d_3">
      <path d="M 254.571429 512.64 
L 254.571429 69.12 
" clip-path="url(#p993a2855e7)" style="fill: none; stroke: #cccccc; stroke-width: 0.8; stroke-linecap: round"/>
     </g>
     <g id="line2d_4"/>
     <g id="text_2">
      <!-- 2023-01-15 -->
      <g style="fill: #262626" transform="translate(228.997991 523.297812) scale(0.1 -0.1)">
       <defs>
        <path id="ArialMT-35" d="M 266 1200 
L 856 1250 
Q 922 819 1161 601 
Q 1400 384 1738 384 
Q 2144 384 2425 690 
Q 2706 997 2706 1503 
Q 2706 1984 2436 2262 
Q 2166 2541 1728 2541 
Q 1456 2541 1237 2417 
Q 1019 2294 894 2097 
L 366 2166 
L 809 4519 
L 3088 4519 
L 3088 3981 
L 1259 3981 
L 1013 2750 
Q 1425 3038 1878 3038 
Q 2478 3038 2890 2622 
Q 3303 2206 3303 1553 
Q 3303 931 2941 478 
Q 2500 -78 1738 -78 
Q 1113 -78 717 272 
Q 322 622 266 1200 
z
" transform="scale(0.015625)"/>
       </defs>
       <use xlink:href="#ArialMT-32"/>
       <use xlink:href="#ArialMT-30" x="55.615234"/>
       <use xlink:href="#ArialMT-32" x="111.230469"/>
       <use xlink:href="#ArialMT-33" x="166.845703"/>
       <use xlink:href="#ArialMT-2d" x="222.460938"/>
       <use xlink:href="#ArialMT-30" x="255.761719"/>
       <use xlink:href="#ArialMT-31" x="311.376953"/>
       <use xlink:href="#ArialMT-2d" x="366.992188"/>
       <use xlink:href="#ArialMT-31" x="400.292969"/>
       <use xlink:href="#ArialMT-35" x="455.908203"/>
      </g>
     </g>
    </g>
    <g id="xtick_3">
     <g id="line2d_5">
      <path d="M 370.066558 512.64 
L 370.066558 69.12 
" clip-path="url(#p993a2855e7)" style="fill: none; stroke: #cccccc; stroke-width: 0.8; stroke-linecap: round"/>
     </g>
     <g id="line2d_6"/>
     <g id="text_3">
      <!-- 2023-02-01 -->
      <g style="fill: #262626" transform="translate(344.493121 523.297812) scale(0.1 -0.1)">
       <use xlink:href="#ArialMT-32"/>
       <use xlink:href="#ArialMT-30" x="55.615234"/>
       <use xlink:href="#ArialMT-32" x="111.230469"/>
       <use xlink:href="#ArialMT-33" x="166.845703"/>
       <use xlink:href="#ArialMT-2d" x="222.460938"/>
       <use xlink:href="#ArialMT-30" x="255.761719"/>
       <use xlink:href="#ArialMT-32" x="311.376953"/>
       <use xlink:href="#ArialMT-2d" x="366.992188"/>
       <use xlink:href="#ArialMT-30" x="400.292969"/>
       <use xlink:href="#ArialMT-31" x="455.908203"/>
      </g>
     </g>
    </g>
    <g id="xtick_4">
     <g id="line2d_7">
      <path d="M 465.180195 512.64 
L 465.180195 69.12 
" clip-path="url(#p993a2855e7)" style="fill: none; stroke: #cccccc; stroke-width: 0.8; stroke-linecap: round"/>
     </g>
     <g id="line2d_8"/>
     <g id="text_4">
      <!-- 2023-02-15 -->
      <g style="fill: #262626" transform="translate(439.606757 523.297812) scale(0.1 -0.1)">
       <use xlink:href="#ArialMT-32"/>
       <use xlink:href="#ArialMT-30" x="55.615234"/>
       <use xlink:href="#ArialMT-32" x="111.230469"/>
       <use xlink:href="#ArialMT-33" x="166.845703"/>
       <use xlink:href="#ArialMT-2d" x="222.460938"/>
       <use xlink:href="#ArialMT-30" x="255.761719"/>
       <use xlink:href="#ArialMT-32" x="311.376953"/>
       <use xlink:href="#ArialMT-2d" x="366.992188"/>
       <use xlink:href="#ArialMT-31" x="400.292969"/>
       <use xlink:href="#ArialMT-35" x="455.908203"/>
      </g>
     </g>
    </g>
    <g id="xtick_5">
     <g id="line2d_9">
      <path d="M 560.293831 512.64 
L 560.293831 69.12 
" clip-path="url(#p993a2855e7)" style="fill: none; stroke: #cccccc; stroke-width: 0.8; stroke-linecap: round"/>
     </g>
     <g id="line2d_10"/>
     <g id="text_5">
      <!-- 2023-03-01 -->
      <g style="fill: #262626" transform="translate(534.720394 523.297812) scale(0.1 -0.1)">
       <use xlink:href="#ArialMT-32"/>
       <use xlink:href="#ArialMT-30" x="55.615234"/>
       <use xlink:href="#ArialMT-32" x="111.230469"/>
       <use xlink:href="#ArialMT-33" x="166.845703"/>
       <use xlink:href="#ArialMT-2d" x="222.460938"/>
       <use xlink:href="#ArialMT-30" x="255.761719"/>
       <use xlink:href="#ArialMT-33" x="311.376953"/>
       <use xlink:href="#ArialMT-2d" x="366.992188"/>
       <use xlink:href="#ArialMT-30" x="400.292969"/>
       <use xlink:href="#ArialMT-31" x="455.908203"/>
      </g>
     </g>
    </g>
    <g id="xtick_6">
     <g id="line2d_11">
      <path d="M 655.407468 512.64 
L 655.407468 69.12 
" clip-path="url(#p993a2855e7)" style="fill: none; stroke: #cccccc; stroke-width: 0.8; stroke-linecap: round"/>
     </g>
     <g id="line2d_12"/>
     <g id="text_6">
      <!-- 2023-03-15 -->
      <g style="fill: #262626" transform="translate(629.83403 523.297812) scale(0.1 -0.1)">
       <use xlink:href="#ArialMT-32"/>
       <use xlink:href="#ArialMT-30" x="55.615234"/>
       <use xlink:href="#ArialMT-32" x="111.230469"/>
       <use xlink:href="#ArialMT-33" x="166.845703"/>
       <use xlink:href="#ArialMT-2d" x="222.460938"/>
       <use xlink:href="#ArialMT-30" x="255.761719"/>
       <use xlink:href="#ArialMT-33" x="311.376953"/>
       <use xlink:href="#ArialMT-2d" x="366.992188"/>
       <use xlink:href="#ArialMT-31" x="400.292969"/>
       <use xlink:href="#ArialMT-35" x="455.908203"/>
      </g>
     </g>
    </g>
    <g id="xtick_7">
     <g id="line2d_13">
      <path d="M 770.902597 512.64 
L 770.902597 69.12 
" clip-path="url(#p993a2855e7)" style="fill: none; stroke: #cccccc; stroke-width: 0.8; stroke-linecap: round"/>
     </g>
     <g id="line2d_14"/>
     <g id="text_7">
      <!-- 2023-04-01 -->
      <g style="fill: #262626" transform="translate(745.32916 523.297812) scale(0.1 -0.1)">
       <defs>
        <path id="ArialMT-34" d="M 2069 0 
L 2069 1097 
L 81 1097 
L 81 1613 
L 2172 4581 
L 2631 4581 
L 2631 1613 
L 3250 1613 
L 3250 1097 
L 2631 1097 
L 2631 0 
L 2069 0 
z
M 2069 1613 
L 2069 3678 
L 634 1613 
L 2069 1613 
z
" transform="scale(0.015625)"/>
       </defs>
       <use xlink:href="#ArialMT-32"/>
       <use xlink:href="#ArialMT-30" x="55.615234"/>
       <use xlink:href="#ArialMT-32" x="111.230469"/>
       <use xlink:href="#ArialMT-33" x="166.845703"/>
       <use xlink:href="#ArialMT-2d" x="222.460938"/>
       <use xlink:href="#ArialMT-30" x="255.761719"/>
       <use xlink:href="#ArialMT-34" x="311.376953"/>
       <use xlink:href="#ArialMT-2d" x="366.992188"/>
       <use xlink:href="#ArialMT-30" x="400.292969"/>
       <use xlink:href="#ArialMT-31" x="455.908203"/>
      </g>
     </g>
    </g>
    <g id="xtick_8">
     <g id="line2d_15">
      <path d="M 866.016234 512.64 
L 866.016234 69.12 
" clip-path="url(#p993a2855e7)" style="fill: none; stroke: #cccccc; stroke-width: 0.8; stroke-linecap: round"/>
     </g>
     <g id="line2d_16"/>
     <g id="text_8">
      <!-- 2023-04-15 -->
      <g style="fill: #262626" transform="translate(840.442796 523.297812) scale(0.1 -0.1)">
       <use xlink:href="#ArialMT-32"/>
       <use xlink:href="#ArialMT-30" x="55.615234"/>
       <use xlink:href="#ArialMT-32" x="111.230469"/>
       <use xlink:href="#ArialMT-33" x="166.845703"/>
       <use xlink:href="#ArialMT-2d" x="222.460938"/>
       <use xlink:href="#ArialMT-30" x="255.761719"/>
       <use xlink:href="#ArialMT-34" x="311.376953"/>
       <use xlink:href="#ArialMT-2d" x="366.992188"/>
       <use xlink:href="#ArialMT-31" x="400.292969"/>
       <use xlink:href="#ArialMT-35" x="455.908203"/>
      </g>
     </g>
    </g>
    <g id="text_9">
     <!-- Date -->
     <g style="fill: #262626" transform="translate(542.939062 536.443125) scale(0.1 -0.1)">
      <defs>
       <path id="ArialMT-44" d="M 494 0 
L 494 4581 
L 2072 4581 
Q 2606 4581 2888 4516 
Q 3281 4425 3559 4188 
Q 3922 3881 4101 3404 
Q 4281 2928 4281 2316 
Q 4281 1794 4159 1391 
Q 4038 988 3847 723 
Q 3656 459 3429 307 
Q 3203 156 2883 78 
Q 2563 0 2147 0 
L 494 0 
z
M 1100 541 
L 2078 541 
Q 2531 541 2789 625 
Q 3047 709 3200 863 
Q 3416 1078 3536 1442 
Q 3656 1806 3656 2325 
Q 3656 3044 3420 3430 
Q 3184 3816 2847 3947 
Q 2603 4041 2063 4041 
L 1100 4041 
L 1100 541 
z
" transform="scale(0.015625)"/>
       <path id="ArialMT-61" d="M 2588 409 
Q 2275 144 1986 34 
Q 1697 -75 1366 -75 
Q 819 -75 525 192 
Q 231 459 231 875 
Q 231 1119 342 1320 
Q 453 1522 633 1644 
Q 813 1766 1038 1828 
Q 1203 1872 1538 1913 
Q 2219 1994 2541 2106 
Q 2544 2222 2544 2253 
Q 2544 2597 2384 2738 
Q 2169 2928 1744 2928 
Q 1347 2928 1158 2789 
Q 969 2650 878 2297 
L 328 2372 
Q 403 2725 575 2942 
Q 747 3159 1072 3276 
Q 1397 3394 1825 3394 
Q 2250 3394 2515 3294 
Q 2781 3194 2906 3042 
Q 3031 2891 3081 2659 
Q 3109 2516 3109 2141 
L 3109 1391 
Q 3109 606 3145 398 
Q 3181 191 3288 0 
L 2700 0 
Q 2613 175 2588 409 
z
M 2541 1666 
Q 2234 1541 1622 1453 
Q 1275 1403 1131 1340 
Q 988 1278 909 1158 
Q 831 1038 831 891 
Q 831 666 1001 516 
Q 1172 366 1500 366 
Q 1825 366 2078 508 
Q 2331 650 2450 897 
Q 2541 1088 2541 1459 
L 2541 1666 
z
" transform="scale(0.015625)"/>
       <path id="ArialMT-74" d="M 1650 503 
L 1731 6 
Q 1494 -44 1306 -44 
Q 1000 -44 831 53 
Q 663 150 594 308 
Q 525 466 525 972 
L 525 2881 
L 113 2881 
L 113 3319 
L 525 3319 
L 525 4141 
L 1084 4478 
L 1084 3319 
L 1650 3319 
L 1650 2881 
L 1084 2881 
L 1084 941 
Q 1084 700 1114 631 
Q 1144 563 1211 522 
Q 1278 481 1403 481 
Q 1497 481 1650 503 
z
" transform="scale(0.015625)"/>
       <path id="ArialMT-65" d="M 2694 1069 
L 3275 997 
Q 3138 488 2766 206 
Q 2394 -75 1816 -75 
Q 1088 -75 661 373 
Q 234 822 234 1631 
Q 234 2469 665 2931 
Q 1097 3394 1784 3394 
Q 2450 3394 2872 2941 
Q 3294 2488 3294 1666 
Q 3294 1616 3291 1516 
L 816 1516 
Q 847 969 1125 678 
Q 1403 388 1819 388 
Q 2128 388 2347 550 
Q 2566 713 2694 1069 
z
M 847 1978 
L 2700 1978 
Q 2663 2397 2488 2606 
Q 2219 2931 1791 2931 
Q 1403 2931 1139 2672 
Q 875 2413 847 1978 
z
" transform="scale(0.015625)"/>
      </defs>
      <use xlink:href="#ArialMT-44"/>
      <use xlink:href="#ArialMT-61" x="72.216797"/>
      <use xlink:href="#ArialMT-74" x="127.832031"/>
      <use xlink:href="#ArialMT-65" x="155.615234"/>
     </g>
    </g>
   </g>
   <g id="matplotlib.axis_2">
    <g id="ytick_1">
     <g id="line2d_17">
      <path d="M 135 505.648449 
L 972 505.648449 
" clip-path="url(#p993a2855e7)" style="fill: none; stroke: #cccccc; stroke-width: 0.8; stroke-linecap: round"/>
     </g>
     <g id="line2d_18"/>
     <g id="text_10">
      <!-- 11 -->
      <g style="fill: #262626" transform="translate(121.115625 509.227355) scale(0.1 -0.1)">
       <use xlink:href="#ArialMT-31"/>
       <use xlink:href="#ArialMT-31" x="48.240234"/>
      </g>
     </g>
    </g>
    <g id="ytick_2">
     <g id="line2d_19">
      <path d="M 135 446.008327 
L 972 446.008327 
" clip-path="url(#p993a2855e7)" style="fill: none; stroke: #cccccc; stroke-width: 0.8; stroke-linecap: round"/>
     </g>
     <g id="line2d_20"/>
     <g id="text_11">
      <!-- 12 -->
      <g style="fill: #262626" transform="translate(120.378125 449.587233) scale(0.1 -0.1)">
       <use xlink:href="#ArialMT-31"/>
       <use xlink:href="#ArialMT-32" x="55.615234"/>
      </g>
     </g>
    </g>
    <g id="ytick_3">
     <g id="line2d_21">
      <path d="M 135 386.368205 
L 972 386.368205 
" clip-path="url(#p993a2855e7)" style="fill: none; stroke: #cccccc; stroke-width: 0.8; stroke-linecap: round"/>
     </g>
     <g id="line2d_22"/>
     <g id="text_12">
      <!-- 13 -->
      <g style="fill: #262626" transform="translate(120.378125 389.947111) scale(0.1 -0.1)">
       <use xlink:href="#ArialMT-31"/>
       <use xlink:href="#ArialMT-33" x="55.615234"/>
      </g>
     </g>
    </g>
    <g id="ytick_4">
     <g id="line2d_23">
      <path d="M 135 326.728083 
L 972 326.728083 
" clip-path="url(#p993a2855e7)" style="fill: none; stroke: #cccccc; stroke-width: 0.8; stroke-linecap: round"/>
     </g>
     <g id="line2d_24"/>
     <g id="text_13">
      <!-- 14 -->
      <g style="fill: #262626" transform="translate(120.378125 330.306989) scale(0.1 -0.1)">
       <use xlink:href="#ArialMT-31"/>
       <use xlink:href="#ArialMT-34" x="55.615234"/>
      </g>
     </g>
    </g>
    <g id="ytick_5">
     <g id="line2d_25">
      <path d="M 135 267.087961 
L 972 267.087961 
" clip-path="url(#p993a2855e7)" style="fill: none; stroke: #cccccc; stroke-width: 0.8; stroke-linecap: round"/>
     </g>
     <g id="line2d_26"/>
     <g id="text_14">
      <!-- 15 -->
      <g style="fill: #262626" transform="translate(120.378125 270.666867) scale(0.1 -0.1)">
       <use xlink:href="#ArialMT-31"/>
       <use xlink:href="#ArialMT-35" x="55.615234"/>
      </g>
     </g>
    </g>
    <g id="ytick_6">
     <g id="line2d_27">
      <path d="M 135 207.447839 
L 972 207.447839 
" clip-path="url(#p993a2855e7)" style="fill: none; stroke: #cccccc; stroke-width: 0.8; stroke-linecap: round"/>
     </g>
     <g id="line2d_28"/>
     <g id="text_15">
      <!-- 16 -->
      <g style="fill: #262626" transform="translate(120.378125 211.026745) scale(0.1 -0.1)">
       <defs>
        <path id="ArialMT-36" d="M 3184 3459 
L 2625 3416 
Q 2550 3747 2413 3897 
Q 2184 4138 1850 4138 
Q 1581 4138 1378 3988 
Q 1113 3794 959 3422 
Q 806 3050 800 2363 
Q 1003 2672 1297 2822 
Q 1591 2972 1913 2972 
Q 2475 2972 2870 2558 
Q 3266 2144 3266 1488 
Q 3266 1056 3080 686 
Q 2894 316 2569 119 
Q 2244 -78 1831 -78 
Q 1128 -78 684 439 
Q 241 956 241 2144 
Q 241 3472 731 4075 
Q 1159 4600 1884 4600 
Q 2425 4600 2770 4297 
Q 3116 3994 3184 3459 
z
M 888 1484 
Q 888 1194 1011 928 
Q 1134 663 1356 523 
Q 1578 384 1822 384 
Q 2178 384 2434 671 
Q 2691 959 2691 1453 
Q 2691 1928 2437 2201 
Q 2184 2475 1800 2475 
Q 1419 2475 1153 2201 
Q 888 1928 888 1484 
z
" transform="scale(0.015625)"/>
       </defs>
       <use xlink:href="#ArialMT-31"/>
       <use xlink:href="#ArialMT-36" x="55.615234"/>
      </g>
     </g>
    </g>
    <g id="ytick_7">
     <g id="line2d_29">
      <path d="M 135 147.807717 
L 972 147.807717 
" clip-path="url(#p993a2855e7)" style="fill: none; stroke: #cccccc; stroke-width: 0.8; stroke-linecap: round"/>
     </g>
     <g id="line2d_30"/>
     <g id="text_16">
      <!-- 17 -->
      <g style="fill: #262626" transform="translate(120.378125 151.386623) scale(0.1 -0.1)">
       <defs>
        <path id="ArialMT-37" d="M 303 3981 
L 303 4522 
L 3269 4522 
L 3269 4084 
Q 2831 3619 2401 2847 
Q 1972 2075 1738 1259 
Q 1569 684 1522 0 
L 944 0 
Q 953 541 1156 1306 
Q 1359 2072 1739 2783 
Q 2119 3494 2547 3981 
L 303 3981 
z
" transform="scale(0.015625)"/>
       </defs>
       <use xlink:href="#ArialMT-31"/>
       <use xlink:href="#ArialMT-37" x="55.615234"/>
      </g>
     </g>
    </g>
    <g id="ytick_8">
     <g id="line2d_31">
      <path d="M 135 88.167595 
L 972 88.167595 
" clip-path="url(#p993a2855e7)" style="fill: none; stroke: #cccccc; stroke-width: 0.8; stroke-linecap: round"/>
     </g>
     <g id="line2d_32"/>
     <g id="text_17">
      <!-- 18 -->
      <g style="fill: #262626" transform="translate(120.378125 91.746501) scale(0.1 -0.1)">
       <defs>
        <path id="ArialMT-38" d="M 1131 2484 
Q 781 2613 612 2850 
Q 444 3088 444 3419 
Q 444 3919 803 4259 
Q 1163 4600 1759 4600 
Q 2359 4600 2725 4251 
Q 3091 3903 3091 3403 
Q 3091 3084 2923 2848 
Q 2756 2613 2416 2484 
Q 2838 2347 3058 2040 
Q 3278 1734 3278 1309 
Q 3278 722 2862 322 
Q 2447 -78 1769 -78 
Q 1091 -78 675 323 
Q 259 725 259 1325 
Q 259 1772 486 2073 
Q 713 2375 1131 2484 
z
M 1019 3438 
Q 1019 3113 1228 2906 
Q 1438 2700 1772 2700 
Q 2097 2700 2305 2904 
Q 2513 3109 2513 3406 
Q 2513 3716 2298 3927 
Q 2084 4138 1766 4138 
Q 1444 4138 1231 3931 
Q 1019 3725 1019 3438 
z
M 838 1322 
Q 838 1081 952 856 
Q 1066 631 1291 507 
Q 1516 384 1775 384 
Q 2178 384 2440 643 
Q 2703 903 2703 1303 
Q 2703 1709 2433 1975 
Q 2163 2241 1756 2241 
Q 1359 2241 1098 1978 
Q 838 1716 838 1322 
z
" transform="scale(0.015625)"/>
       </defs>
       <use xlink:href="#ArialMT-31"/>
       <use xlink:href="#ArialMT-38" x="55.615234"/>
      </g>
     </g>
    </g>
    <g id="text_18">
     <!-- Adj Close -->
     <g style="fill: #262626" transform="translate(114.273438 312.278437) rotate(-90) scale(0.1 -0.1)">
      <defs>
       <path id="ArialMT-41" d="M -9 0 
L 1750 4581 
L 2403 4581 
L 4278 0 
L 3588 0 
L 3053 1388 
L 1138 1388 
L 634 0 
L -9 0 
z
M 1313 1881 
L 2866 1881 
L 2388 3150 
Q 2169 3728 2063 4100 
Q 1975 3659 1816 3225 
L 1313 1881 
z
" transform="scale(0.015625)"/>
       <path id="ArialMT-64" d="M 2575 0 
L 2575 419 
Q 2259 -75 1647 -75 
Q 1250 -75 917 144 
Q 584 363 401 755 
Q 219 1147 219 1656 
Q 219 2153 384 2558 
Q 550 2963 881 3178 
Q 1213 3394 1622 3394 
Q 1922 3394 2156 3267 
Q 2391 3141 2538 2938 
L 2538 4581 
L 3097 4581 
L 3097 0 
L 2575 0 
z
M 797 1656 
Q 797 1019 1065 703 
Q 1334 388 1700 388 
Q 2069 388 2326 689 
Q 2584 991 2584 1609 
Q 2584 2291 2321 2609 
Q 2059 2928 1675 2928 
Q 1300 2928 1048 2622 
Q 797 2316 797 1656 
z
" transform="scale(0.015625)"/>
       <path id="ArialMT-6a" d="M 419 3928 
L 419 4581 
L 981 4581 
L 981 3928 
L 419 3928 
z
M -294 -1288 
L -188 -809 
Q -19 -853 78 -853 
Q 250 -853 334 -739 
Q 419 -625 419 -169 
L 419 3319 
L 981 3319 
L 981 -181 
Q 981 -794 822 -1034 
Q 619 -1347 147 -1347 
Q -81 -1347 -294 -1288 
z
" transform="scale(0.015625)"/>
       <path id="ArialMT-20" transform="scale(0.015625)"/>
       <path id="ArialMT-43" d="M 3763 1606 
L 4369 1453 
Q 4178 706 3683 314 
Q 3188 -78 2472 -78 
Q 1731 -78 1267 223 
Q 803 525 561 1097 
Q 319 1669 319 2325 
Q 319 3041 592 3573 
Q 866 4106 1370 4382 
Q 1875 4659 2481 4659 
Q 3169 4659 3637 4309 
Q 4106 3959 4291 3325 
L 3694 3184 
Q 3534 3684 3231 3912 
Q 2928 4141 2469 4141 
Q 1941 4141 1586 3887 
Q 1231 3634 1087 3207 
Q 944 2781 944 2328 
Q 944 1744 1114 1308 
Q 1284 872 1643 656 
Q 2003 441 2422 441 
Q 2931 441 3284 734 
Q 3638 1028 3763 1606 
z
" transform="scale(0.015625)"/>
       <path id="ArialMT-6c" d="M 409 0 
L 409 4581 
L 972 4581 
L 972 0 
L 409 0 
z
" transform="scale(0.015625)"/>
       <path id="ArialMT-6f" d="M 213 1659 
Q 213 2581 725 3025 
Q 1153 3394 1769 3394 
Q 2453 3394 2887 2945 
Q 3322 2497 3322 1706 
Q 3322 1066 3130 698 
Q 2938 331 2570 128 
Q 2203 -75 1769 -75 
Q 1072 -75 642 372 
Q 213 819 213 1659 
z
M 791 1659 
Q 791 1022 1069 705 
Q 1347 388 1769 388 
Q 2188 388 2466 706 
Q 2744 1025 2744 1678 
Q 2744 2294 2464 2611 
Q 2184 2928 1769 2928 
Q 1347 2928 1069 2612 
Q 791 2297 791 1659 
z
" transform="scale(0.015625)"/>
       <path id="ArialMT-73" d="M 197 991 
L 753 1078 
Q 800 744 1014 566 
Q 1228 388 1613 388 
Q 2000 388 2187 545 
Q 2375 703 2375 916 
Q 2375 1106 2209 1216 
Q 2094 1291 1634 1406 
Q 1016 1563 777 1677 
Q 538 1791 414 1992 
Q 291 2194 291 2438 
Q 291 2659 392 2848 
Q 494 3038 669 3163 
Q 800 3259 1026 3326 
Q 1253 3394 1513 3394 
Q 1903 3394 2198 3281 
Q 2494 3169 2634 2976 
Q 2775 2784 2828 2463 
L 2278 2388 
Q 2241 2644 2061 2787 
Q 1881 2931 1553 2931 
Q 1166 2931 1000 2803 
Q 834 2675 834 2503 
Q 834 2394 903 2306 
Q 972 2216 1119 2156 
Q 1203 2125 1616 2013 
Q 2213 1853 2448 1751 
Q 2684 1650 2818 1456 
Q 2953 1263 2953 975 
Q 2953 694 2789 445 
Q 2625 197 2315 61 
Q 2006 -75 1616 -75 
Q 969 -75 630 194 
Q 291 463 197 991 
z
" transform="scale(0.015625)"/>
      </defs>
      <use xlink:href="#ArialMT-41"/>
      <use xlink:href="#ArialMT-64" x="66.699219"/>
      <use xlink:href="#ArialMT-6a" x="122.314453"/>
      <use xlink:href="#ArialMT-20" x="144.53125"/>
      <use xlink:href="#ArialMT-43" x="172.314453"/>
      <use xlink:href="#ArialMT-6c" x="244.53125"/>
      <use xlink:href="#ArialMT-6f" x="266.748047"/>
      <use xlink:href="#ArialMT-73" x="322.363281"/>
      <use xlink:href="#ArialMT-65" x="372.363281"/>
     </g>
    </g>
   </g>
   <g id="line2d_33">
    <path d="M 173.045455 409.848532 
L 179.839286 412.615834 
L 186.633117 334.105564 
L 193.426948 330.073892 
L 213.808442 325.499495 
L 220.602273 304.213941 
L 227.396104 268.107808 
L 234.189935 273.642413 
L 240.983766 192.215763 
L 268.159091 165.288241 
L 274.952922 105.272394 
L 281.746753 152.256881 
L 288.540584 169.337811 
L 308.922078 207.811644 
L 315.715909 205.449901 
L 322.50974 209.046194 
L 329.303571 171.425228 
L 336.097403 203.3625 
L 356.478896 172.767114 
L 363.272727 214.30646 
L 370.066558 200.505737 
L 376.86039 196.885585 
L 383.654221 119.186438 
L 404.035714 157.212977 
L 410.829545 164.017917 
L 417.623377 156.419758 
L 424.417208 151.260899 
L 431.211039 159.849072 
L 451.592532 207.382239 
L 458.386364 196.527739 
L 465.180195 195.949229 
L 471.974026 180.341407 
L 478.767857 175.43303 
L 505.943182 202.008664 
L 512.737013 211.097827 
L 519.530844 226.383586 
L 526.324675 209.732071 
L 546.706169 223.037773 
L 553.5 222.811143 
L 560.293831 213.525174 
L 567.087662 206.004559 
L 573.881494 201.388414 
L 594.262987 205.014525 
L 601.056818 205.974732 
L 607.850649 198.549534 
L 614.644481 194.517866 
L 621.438312 231.536489 
L 641.819805 247.97331 
L 648.613636 283.906475 
L 655.407468 296.514397 
L 662.201299 339.383712 
L 668.99513 320.501655 
L 689.376623 325.958718 
L 696.170455 333.109574 
L 702.964286 324.014456 
L 709.758117 324.378258 
L 716.551948 336.228754 
L 736.933442 339.950296 
L 743.727273 319.314808 
L 750.521104 304.136398 
L 757.314935 315.056506 
L 764.108766 318.581241 
L 784.49026 293.550282 
L 791.284091 324.86731 
L 798.077922 327.068028 
L 804.871753 320.024529 
L 832.047078 303.092694 
L 838.840909 313.070489 
L 845.63474 331.833275 
L 852.428571 386.165422 
L 859.222403 392.690049 
L 879.603896 407.868483 
L 886.397727 382.640696 
L 893.191558 384.233086 
L 899.98539 340.105355 
L 906.779221 386.344348 
L 927.160714 333.735792 
L 933.954545 369.245525 
" clip-path="url(#p993a2855e7)" style="fill: none; stroke: #1f77b4; stroke-width: 1.5; stroke-linecap: round"/>
   </g>
   <g id="line2d_34">
    <path d="M 173.045455 404.280139 
L 179.839286 396.842772 
L 186.633117 347.833499 
L 193.426948 321.789958 
L 213.808442 319.771371 
L 220.602273 316.256568 
L 227.396104 270.313582 
L 234.189935 263.473539 
L 240.983766 181.11517 
L 268.159091 164.291048 
L 274.952922 129.269953 
L 281.746753 160.801872 
L 288.540584 186.524636 
L 308.922078 185.363969 
L 315.715909 186.524636 
L 322.50974 223.606474 
L 329.303571 182.766694 
L 336.097403 193.578072 
L 356.478896 158.779007 
L 363.272727 219.848532 
L 370.066558 185.363969 
L 376.86039 186.524636 
L 383.654221 134.11284 
L 404.035714 129.491983 
L 410.829545 158.01176 
L 417.623377 156.851094 
L 424.417208 142.339755 
L 431.211039 158.01176 
L 451.592532 186.524636 
L 458.386364 186.524636 
L 465.180195 158.779007 
L 471.974026 158.779007 
L 478.767857 159.939674 
L 505.943182 186.524636 
L 512.737013 222.445808 
L 519.530844 223.606474 
L 526.324675 222.445808 
L 546.706169 223.606474 
L 553.5 223.606474 
L 560.293831 223.606474 
L 567.087662 186.524636 
L 573.881494 186.524636 
L 594.262987 186.524636 
L 601.056818 186.524636 
L 607.850649 186.524636 
L 614.644481 186.524636 
L 621.438312 223.606474 
L 641.819805 263.473539 
L 648.613636 287.308661 
L 655.407468 304.725142 
L 662.201299 332.85083 
L 668.99513 324.392228 
L 689.376623 320.932037 
L 696.170455 328.900051 
L 702.964286 320.932037 
L 709.758117 328.900051 
L 716.551948 336.626076 
L 736.933442 337.035381 
L 743.727273 330.060718 
L 750.521104 319.771371 
L 757.314935 320.932037 
L 764.108766 320.932037 
L 784.49026 305.591094 
L 791.284091 320.932037 
L 798.077922 319.771371 
L 804.871753 328.900051 
L 832.047078 319.771371 
L 838.840909 319.771371 
L 845.63474 318.334762 
L 852.428571 372.122525 
L 859.222403 385.72533 
L 879.603896 404.060905 
L 886.397727 382.132084 
L 893.191558 374.728785 
L 899.98539 347.342911 
L 906.779221 374.728785 
L 927.160714 343.88272 
L 933.954545 373.568119 
" clip-path="url(#p993a2855e7)" style="fill: none; stroke: #ff7f0e; stroke-width: 1.5; stroke-linecap: round"/>
   </g>
   <g id="line2d_35">
    <path d="M 173.045455 397.764141 
L 179.839286 389.860929 
L 186.633117 343.289004 
L 193.426948 322.610392 
L 213.808442 314.353541 
L 220.602273 286.022005 
L 227.396104 250.555136 
L 234.189935 251.374777 
L 240.983766 162.881356 
L 268.159091 158.261933 
L 274.952922 148.964067 
L 281.746753 177.314786 
L 288.540584 198.850552 
L 308.922078 192.016996 
L 315.715909 202.71862 
L 322.50974 212.636577 
L 329.303571 190.195664 
L 336.097403 176.924184 
L 356.478896 190.52356 
L 363.272727 206.236529 
L 370.066558 203.386058 
L 376.86039 168.856552 
L 383.654221 161.05464 
L 404.035714 156.841675 
L 410.829545 160.697804 
L 417.623377 160.055311 
L 424.417208 162.324069 
L 431.211039 180.380944 
L 451.592532 199.440175 
L 458.386364 188.940137 
L 465.180195 165.377256 
L 471.974026 170.726997 
L 478.767857 191.505278 
L 505.943182 197.167185 
L 512.737013 232.951279 
L 519.530844 238.404183 
L 526.324675 220.78962 
L 546.706169 241.147549 
L 553.5 239.269925 
L 560.293831 212.866893 
L 567.087662 212.787308 
L 573.881494 206.622417 
L 594.262987 195.708035 
L 601.056818 210.140528 
L 607.850649 196.563989 
L 614.644481 180.976194 
L 621.438312 218.259323 
L 641.819805 241.753901 
L 648.613636 282.037657 
L 655.407468 296.123864 
L 662.201299 328.6842 
L 668.99513 325.338986 
L 689.376623 324.582022 
L 696.170455 326.842392 
L 702.964286 309.343643 
L 709.758117 335.753505 
L 716.551948 349.366802 
L 736.933442 341.17508 
L 743.727273 327.224457 
L 750.521104 327.989238 
L 757.314935 308.786958 
L 764.108766 304.676255 
L 784.49026 286.367431 
L 791.284091 304.851041 
L 798.077922 311.939909 
L 804.871753 329.036915 
L 832.047078 327.493897 
L 838.840909 315.386773 
L 845.63474 301.492341 
L 852.428571 382.901126 
L 859.222403 391.140876 
L 879.603896 403.410619 
L 886.397727 382.98381 
L 893.191558 369.353191 
L 899.98539 352.073694 
L 906.779221 370.080235 
L 927.160714 363.879507 
L 933.954545 362.987993 
" clip-path="url(#p993a2855e7)" style="fill: none; stroke: #2ca02c; stroke-width: 1.5; stroke-linecap: round"/>
   </g>
   <g id="line2d_36">
    <path d="M 173.045455 414.399078 
L 179.839286 414.399078 
L 186.633117 328.517271 
L 193.426948 358.933747 
L 213.808442 328.517271 
L 220.602273 345.812904 
L 227.396104 276.630371 
L 234.189935 267.684376 
L 240.983766 202.080219 
L 268.159091 202.080219 
L 274.952922 129.915726 
L 281.746753 129.915726 
L 288.540584 133.494101 
L 308.922078 237.2679 
L 315.715909 237.2679 
L 322.50974 239.057088 
L 329.303571 166.296123 
L 336.097403 202.080219 
L 356.478896 191.941393 
L 363.272727 239.057088 
L 370.066558 239.057088 
L 376.86039 239.057088 
L 383.654221 129.915726 
L 404.035714 191.941393 
L 410.829545 140.054551 
L 417.623377 191.941393 
L 424.417208 140.054551 
L 431.211039 149.596961 
L 451.592532 237.2679 
L 458.386364 237.2679 
L 465.180195 194.327053 
L 471.974026 191.941393 
L 478.767857 98.902835 
L 505.943182 237.2679 
L 512.737013 239.057088 
L 519.530844 269.473563 
L 526.324675 269.473563 
L 546.706169 269.473563 
L 553.5 269.473563 
L 560.293831 269.473563 
L 567.087662 239.057088 
L 573.881494 239.057088 
L 594.262987 237.2679 
L 601.056818 239.057088 
L 607.850649 237.2679 
L 614.644481 237.2679 
L 621.438312 239.057088 
L 641.819805 284.383594 
L 648.613636 276.630371 
L 655.407468 276.630371 
L 662.201299 326.728083 
L 668.99513 328.517271 
L 689.376623 315.992843 
L 696.170455 327.920913 
L 702.964286 311.818052 
L 709.758117 326.728083 
L 716.551948 356.548144 
L 736.933442 366.686969 
L 743.727273 356.548144 
L 750.521104 301.082812 
L 757.314935 351.776939 
L 764.108766 345.812904 
L 784.49026 316.589258 
L 791.284091 345.812904 
L 798.077922 294.522419 
L 804.871753 356.548144 
L 832.047078 307.046847 
L 838.840909 301.082812 
L 845.63474 353.566126 
L 852.428571 389.350222 
L 859.222403 397.699803 
L 879.603896 417.381096 
L 886.397727 386.96462 
L 893.191558 380.40417 
L 899.98539 328.517271 
L 906.779221 374.440192 
L 927.160714 314.80007 
L 933.954545 333.288476 
" clip-path="url(#p993a2855e7)" style="fill: none; stroke: #d62728; stroke-width: 1.5; stroke-linecap: round"/>
   </g>
   <g id="line2d_37">
    <path d="M 173.045455 389.366852 
L 179.839286 387.927003 
L 186.633117 347.013207 
L 193.426948 326.143781 
L 213.808442 315.718278 
L 220.602273 292.737646 
L 227.396104 261.564165 
L 234.189935 253.13227 
L 240.983766 172.126439 
L 268.159091 162.532912 
L 274.952922 158.256387 
L 281.746753 180.526574 
L 288.540584 201.374832 
L 308.922078 197.947628 
L 315.715909 206.944736 
L 322.50974 215.365045 
L 329.303571 202.270379 
L 336.097403 183.860826 
L 356.478896 192.815384 
L 363.272727 217.739924 
L 370.066558 209.055729 
L 376.86039 179.812609 
L 383.654221 159.694029 
L 404.035714 161.368521 
L 410.829545 166.676415 
L 417.623377 164.870014 
L 424.417208 163.858842 
L 431.211039 180.378438 
L 451.592532 201.416185 
L 458.386364 189.379309 
L 465.180195 174.049428 
L 471.974026 173.49197 
L 478.767857 195.145167 
L 505.943182 197.190667 
L 512.737013 233.286998 
L 519.530844 240.718354 
L 526.324675 223.939538 
L 546.706169 241.085875 
L 553.5 237.047312 
L 560.293831 218.342295 
L 567.087662 215.424336 
L 573.881494 210.611793 
L 594.262987 197.211225 
L 601.056818 209.815665 
L 607.850649 197.210792 
L 614.644481 184.990097 
L 621.438312 222.26507 
L 641.819805 245.888023 
L 648.613636 279.480025 
L 655.407468 289.617502 
L 662.201299 331.863999 
L 668.99513 319.559472 
L 689.376623 326.153858 
L 696.170455 326.922853 
L 702.964286 305.723571 
L 709.758117 333.785181 
L 716.551948 343.815727 
L 736.933442 340.014025 
L 743.727273 328.289627 
L 750.521104 326.225088 
L 757.314935 307.02564 
L 764.108766 300.175488 
L 784.49026 285.368745 
L 791.284091 302.909444 
L 798.077922 316.146815 
L 804.871753 330.594762 
L 832.047078 324.62561 
L 838.840909 317.34644 
L 845.63474 308.073692 
L 852.428571 374.00612 
L 859.222403 378.150702 
L 879.603896 385.947863 
L 886.397727 371.386153 
L 893.191558 361.895463 
L 899.98539 344.980537 
L 906.779221 359.860288 
L 927.160714 356.260066 
L 933.954545 359.924798 
" clip-path="url(#p993a2855e7)" style="fill: none; stroke: #9467bd; stroke-width: 1.5; stroke-linecap: round"/>
   </g>
   <g id="line2d_38">
    <path d="M 173.045455 420.243796 
L 179.839286 413.921946 
L 186.633117 339.610348 
L 193.426948 320.167667 
L 213.808442 335.196981 
L 220.602273 294.522431 
L 227.396104 268.757888 
L 234.189935 266.13372 
L 240.983766 172.856595 
L 268.159091 162.479204 
L 274.952922 108.922377 
L 281.746753 160.570699 
L 288.540584 172.260169 
L 308.922078 166.296157 
L 315.715909 173.21441 
L 322.50974 190.152206 
L 329.303571 188.959399 
L 336.097403 188.720855 
L 356.478896 168.085379 
L 363.272727 185.858132 
L 370.066558 173.21441 
L 376.86039 181.444765 
L 383.654221 160.451439 
L 404.035714 149.119807 
L 410.829545 172.379463 
L 417.623377 173.810814 
L 424.417208 160.451439 
L 431.211039 173.095139 
L 451.592532 166.296157 
L 458.386364 173.810814 
L 465.180195 186.096687 
L 471.974026 177.866344 
L 478.767857 165.699765 
L 505.943182 168.323922 
L 512.737013 243.589761 
L 519.530844 232.735261 
L 526.324675 242.396954 
L 546.706169 232.735261 
L 553.5 232.735261 
L 560.293831 188.243724 
L 567.087662 188.243724 
L 573.881494 173.21441 
L 594.262987 168.323922 
L 601.056818 187.885875 
L 607.850649 168.323922 
L 614.644481 170.470981 
L 621.438312 215.201061 
L 641.819805 232.735261 
L 648.613636 288.200558 
L 655.407468 296.908033 
L 662.201299 338.298258 
L 668.99513 314.442221 
L 689.376623 324.342469 
L 696.170455 320.167667 
L 702.964286 326.489528 
L 709.758117 332.334258 
L 716.551948 348.317812 
L 736.933442 333.646336 
L 743.727273 303.706992 
L 750.521104 307.881794 
L 757.314935 326.489528 
L 764.108766 314.084383 
L 784.49026 282.236557 
L 791.284091 326.489528 
L 798.077922 327.443758 
L 804.871753 321.718312 
L 832.047078 316.827812 
L 838.840909 328.87512 
L 845.63474 332.334258 
L 852.428571 363.58568 
L 859.222403 390.065875 
L 879.603896 409.508579 
L 886.397727 382.551229 
L 893.191558 344.023705 
L 899.98539 338.059704 
L 906.779221 344.023705 
L 927.160714 337.224734 
L 933.954545 344.023705 
" clip-path="url(#p993a2855e7)" style="fill: none; stroke: #8c564b; stroke-width: 1.5; stroke-linecap: round"/>
   </g>
   <g id="line2d_39">
    <path d="M 173.045455 387.636568 
L 179.839286 381.651488 
L 186.633117 358.351039 
L 193.426948 333.449211 
L 213.808442 331.467096 
L 220.602273 315.004999 
L 227.396104 308.032075 
L 234.189935 272.683488 
L 240.983766 201.727125 
L 268.159091 193.677173 
L 274.952922 166.817801 
L 281.746753 162.735038 
L 288.540584 201.727125 
L 308.922078 201.727125 
L 315.715909 201.727125 
L 322.50974 217.496684 
L 329.303571 201.727125 
L 336.097403 202.737037 
L 356.478896 175.877323 
L 363.272727 217.496684 
L 370.066558 201.727125 
L 376.86039 201.727125 
L 383.654221 159.699726 
L 404.035714 158.689814 
L 410.829545 172.896159 
L 417.623377 166.817801 
L 424.417208 156.65668 
L 431.211039 162.735038 
L 451.592532 215.332334 
L 458.386364 215.332334 
L 465.180195 175.877323 
L 471.974026 189.482362 
L 478.767857 189.482362 
L 505.943182 201.727125 
L 512.737013 218.5182 
L 519.530844 225.799057 
L 526.324675 218.5182 
L 546.706169 225.799057 
L 553.5 239.404266 
L 560.293831 232.123409 
L 567.087662 215.332334 
L 573.881494 215.332334 
L 594.262987 215.332334 
L 601.056818 215.332334 
L 607.850649 201.727125 
L 614.644481 215.332334 
L 621.438312 217.496684 
L 641.819805 228.270146 
L 648.613636 307.810311 
L 655.407468 313.359369 
L 662.201299 336.620914 
L 668.99513 333.04214 
L 689.376623 331.65644 
L 696.170455 336.43157 
L 702.964286 331.467096 
L 709.758117 336.43157 
L 716.551948 336.620914 
L 736.933442 351.222897 
L 743.727273 350.226124 
L 750.521104 345.072305 
L 757.314935 345.072305 
L 764.108766 344.452798 
L 784.49026 339.290675 
L 791.284091 344.762324 
L 798.077922 344.762324 
L 804.871753 336.620914 
L 832.047078 345.072305 
L 838.840909 331.467096 
L 845.63474 331.467096 
L 852.428571 369.869195 
L 859.222403 372.783471 
L 879.603896 382.661344 
L 886.397727 372.797747 
L 893.191558 371.773616 
L 899.98539 359.346618 
L 906.779221 364.659807 
L 927.160714 371.941972 
L 933.954545 370.65211 
" clip-path="url(#p993a2855e7)" style="fill: none; stroke: #e377c2; stroke-width: 1.5; stroke-linecap: round"/>
   </g>
   <g id="line2d_40">
    <path d="M 173.045455 397.867429 
L 179.839286 395.507961 
L 186.633117 348.679753 
L 193.426948 326.085443 
L 213.808442 315.045656 
L 220.602273 290.166025 
L 227.396104 257.480195 
L 234.189935 249.771925 
L 240.983766 165.253308 
L 268.159091 156.172386 
L 274.952922 150.656021 
L 281.746753 174.765094 
L 288.540584 196.509459 
L 308.922078 192.499157 
L 315.715909 201.871287 
L 322.50974 210.645981 
L 329.303571 196.15038 
L 336.097403 178.359573 
L 356.478896 187.533435 
L 363.272727 212.1544 
L 370.066558 203.997186 
L 376.86039 173.333214 
L 383.654221 153.465557 
L 404.035714 154.442633 
L 410.829545 159.8101 
L 417.623377 158.439017 
L 424.417208 157.565119 
L 431.211039 175.031082 
L 451.592532 196.588505 
L 458.386364 184.325715 
L 465.180195 167.480641 
L 471.974026 167.48552 
L 478.767857 189.75581 
L 505.943182 192.453423 
L 512.737013 229.707133 
L 519.530844 236.921568 
L 526.324675 219.720012 
L 546.706169 237.63257 
L 553.5 233.748499 
L 560.293831 213.66746 
L 567.087662 211.024656 
L 573.881494 205.956951 
L 594.262987 192.321773 
L 601.056818 205.492428 
L 607.850649 192.346821 
L 614.644481 179.370253 
L 621.438312 217.799034 
L 641.819805 242.36339 
L 648.613636 277.539188 
L 655.407468 288.668765 
L 662.201299 332.253864 
L 668.99513 320.207585 
L 689.376623 326.20424 
L 696.170455 327.064413 
L 702.964286 305.030947 
L 709.758117 334.856013 
L 716.551948 346.342825 
L 736.933442 341.593143 
L 743.727273 328.584968 
L 750.521104 326.682233 
L 757.314935 306.33726 
L 764.108766 299.303453 
L 784.49026 283.547855 
L 791.284091 301.974495 
L 798.077922 315.274437 
L 804.871753 331.035951 
L 832.047078 325.118431 
L 838.840909 316.751187 
L 845.63474 306.315092 
L 852.428571 380.526366 
L 859.222403 385.47012 
L 879.603896 395.018718 
L 886.397727 377.61732 
L 893.191558 366.478649 
L 899.98539 347.776527 
L 906.779221 364.296765 
L 927.160714 360.273436 
L 933.954545 363.725327 
" clip-path="url(#p993a2855e7)" style="fill: none; stroke: #7f7f7f; stroke-width: 1.5; stroke-linecap: round"/>
   </g>
   <g id="line2d_41">
    <path d="M 173.045455 370.870319 
L 179.839286 369.990294 
L 186.633117 332.588282 
L 193.426948 314.98736 
L 213.808442 306.626891 
L 220.602273 287.70591 
L 227.396104 262.184553 
L 234.189935 255.584176 
L 240.983766 190.020689 
L 268.159091 181.66022 
L 274.952922 179.020103 
L 281.746753 198.381159 
L 288.540584 214.221946 
L 308.922078 211.581829 
L 315.715909 219.062231 
L 322.50974 225.662566 
L 329.303571 215.102013 
L 336.097403 199.701175 
L 356.478896 207.621611 
L 363.272727 228.302726 
L 370.066558 220.382332 
L 376.86039 196.180991 
L 383.654221 179.90017 
L 404.035714 181.66022 
L 410.829545 186.060471 
L 417.623377 184.300421 
L 424.417208 183.860388 
L 431.211039 197.501091 
L 451.592532 214.221946 
L 458.386364 204.101427 
L 465.180195 191.780739 
L 471.974026 191.34079 
L 478.767857 209.381745 
L 505.943182 210.701762 
L 512.737013 240.183379 
L 519.530844 245.903648 
L 526.324675 232.262944 
L 546.706169 245.903648 
L 553.5 242.823497 
L 560.293831 227.422701 
L 567.087662 225.222533 
L 573.881494 221.262315 
L 594.262987 210.701762 
L 601.056818 221.262315 
L 607.850649 210.701762 
L 614.644481 200.581242 
L 621.438312 231.82291 
L 641.819805 250.303899 
L 648.613636 277.145315 
L 655.407468 285.505785 
L 662.201299 320.70767 
L 668.99513 309.26705 
L 689.376623 315.427394 
L 696.170455 316.307419 
L 702.964286 298.266464 
L 709.758117 322.467763 
L 716.551948 330.82819 
L 736.933442 326.867972 
L 743.727273 317.187486 
L 750.521104 315.427394 
L 757.314935 299.146489 
L 764.108766 293.866212 
L 784.49026 281.545567 
L 791.284091 296.066338 
L 798.077922 307.506958 
L 804.871753 319.38757 
L 832.047078 314.107293 
L 838.840909 307.946992 
L 845.63474 300.466589 
L 852.428571 358.549673 
L 859.222403 360.749799 
L 879.603896 367.790168 
L 886.397727 354.149422 
L 893.191558 345.788995 
L 899.98539 330.82819 
L 906.779221 344.468936 
L 927.160714 340.948752 
L 933.954545 344.468936 
" clip-path="url(#p993a2855e7)" style="fill: none; stroke: #bcbd22; stroke-width: 1.5; stroke-linecap: round"/>
   </g>
   <g id="line2d_42">
    <path d="M 179.839286 492.48 
L 186.633117 423.620985 
L 193.426948 385.46198 
L 213.808442 361.541682 
L 220.602273 336.704182 
L 227.396104 287.361971 
L 234.189935 269.331768 
L 240.983766 89.28 
L 268.159091 108.949974 
L 274.952922 123.80199 
L 281.746753 138.613509 
L 288.540584 192.499701 
L 308.922078 186.214992 
L 315.715909 199.064701 
L 322.50974 223.784863 
L 329.303571 191.829914 
L 336.097403 138.704512 
L 356.478896 163.34863 
L 363.272727 196.175905 
L 370.066558 202.899251 
L 376.86039 165.207151 
L 383.654221 111.802141 
L 404.035714 115.123545 
L 410.829545 146.481453 
L 417.623377 118.202538 
L 424.417208 130.37245 
L 431.211039 157.668071 
L 451.592532 199.997829 
L 458.386364 181.763778 
L 465.180195 152.674021 
L 471.974026 148.747556 
L 478.767857 197.4404 
L 505.943182 189.276694 
L 512.737013 223.477498 
L 519.530844 256.307958 
L 526.324675 215.506151 
L 546.706169 260.356254 
L 553.5 244.757667 
L 560.293831 234.426426 
L 567.087662 225.473491 
L 573.881494 217.070731 
L 594.262987 195.383718 
L 601.056818 207.926461 
L 607.850649 193.565808 
L 614.644481 184.145683 
L 621.438312 227.206314 
L 641.819805 253.4877 
L 648.613636 298.626454 
L 655.407468 304.639631 
L 662.201299 384.495635 
L 668.99513 368.599524 
L 689.376623 383.698444 
L 696.170455 378.819627 
L 702.964286 358.902464 
L 709.758117 386.482187 
L 716.551948 384.986315 
L 736.933442 407.829642 
L 743.727273 398.079971 
L 750.521104 386.067211 
L 757.314935 362.480669 
L 764.108766 345.917899 
L 784.49026 318.64264 
L 791.284091 354.253772 
L 798.077922 373.590958 
L 804.871753 389.510446 
L 832.047078 376.517122 
L 838.840909 372.092583 
L 845.63474 372.204233 
L 852.428571 388.09642 
L 859.222403 444.606018 
L 879.603896 462.725632 
L 886.397727 448.470373 
L 893.191558 439.527562 
L 899.98539 395.614797 
L 906.779221 431.623274 
L 927.160714 421.735903 
L 933.954545 434.136964 
" clip-path="url(#p993a2855e7)" style="fill: none; stroke: #17becf; stroke-width: 1.5; stroke-linecap: round"/>
   </g>
   <g id="line2d_43">
    <path d="M 179.839286 422.37162 
L 186.633117 372.400062 
L 193.426948 346.286521 
L 213.808442 331.881333 
L 220.602273 309.580672 
L 227.396104 274.633525 
L 234.189935 263.65303 
L 240.983766 159.300562 
L 268.159091 158.398261 
L 274.952922 159.360169 
L 281.746753 178.719025 
L 288.540584 207.796269 
L 308.922078 203.422863 
L 315.715909 212.952362 
L 322.50974 225.913949 
L 329.303571 208.205216 
L 336.097403 180.926545 
L 356.478896 193.306561 
L 363.272727 218.999723 
L 370.066558 215.39524 
L 376.86039 185.906376 
L 383.654221 156.756101 
L 404.035714 158.444446 
L 410.829545 171.337722 
L 417.623377 161.607958 
L 424.417208 164.8693 
L 431.211039 183.616042 
L 451.592532 209.58375 
L 458.386364 196.536734 
L 465.180195 178.010562 
L 471.974026 176.185826 
L 478.767857 204.887794 
L 505.943182 203.909277 
L 512.737013 237.173654 
L 519.530844 251.709148 
L 526.324675 228.919343 
L 546.706169 253.104233 
L 553.5 245.641824 
L 560.293831 230.93257 
L 567.087662 226.128319 
L 573.881494 220.609064 
L 594.262987 205.616505 
L 601.056818 217.37218 
L 607.850649 205.221777 
L 614.644481 194.339907 
L 621.438312 231.492185 
L 641.819805 254.465477 
L 648.613636 289.405571 
L 655.407468 297.906843 
L 662.201299 350.230844 
L 668.99513 336.68729 
L 689.376623 345.765013 
L 696.170455 344.566325 
L 702.964286 324.383773 
L 709.758117 351.534471 
L 716.551948 357.83994 
L 736.933442 362.201231 
L 743.727273 351.312593 
L 750.521104 345.996504 
L 757.314935 326.316519 
L 764.108766 316.65114 
L 784.49026 298.668373 
L 791.284091 321.072664 
L 798.077922 335.779017 
L 804.871753 350.214293 
L 832.047078 342.051213 
L 838.840909 335.979623 
L 845.63474 330.105909 
L 852.428571 381.208869 
L 859.222403 400.525351 
L 879.603896 411.397211 
L 886.397727 396.561177 
L 893.191558 387.087987 
L 899.98539 362.010351 
L 906.779221 383.218741 
L 927.160714 377.385467 
L 933.954545 384.128606 
" clip-path="url(#p993a2855e7)" style="fill: none; stroke: #1f77b4; stroke-width: 1.5; stroke-linecap: round"/>
   </g>
   <g id="line2d_44">
    <path d="M 173.045455 401.87465 
L 179.839286 351.180524 
L 186.633117 327.324498 
L 193.426948 315.992843 
L 213.808442 290.347629 
L 220.602273 255.756363 
L 227.396104 246.81031 
L 234.189935 157.946542 
L 240.983766 146.614887 
L 268.159091 143.036512 
L 274.952922 169.278197 
L 281.746753 190.748564 
L 288.540584 187.170188 
L 308.922078 197.309013 
L 315.715909 206.255009 
L 322.50974 191.941393 
L 329.303571 171.067328 
L 336.097403 181.802568 
L 356.478896 209.833441 
L 363.272727 199.098258 
L 370.066558 166.296123 
L 376.86039 144.229341 
L 383.654221 146.614887 
L 404.035714 152.578922 
L 410.829545 150.193376 
L 417.623377 149.596961 
L 424.417208 168.085367 
L 431.211039 190.748564 
L 451.592532 177.031363 
L 458.386364 160.332088 
L 465.180195 159.735787 
L 471.974026 184.188228 
L 478.767857 185.977358 
L 505.943182 225.936302 
L 512.737013 233.689467 
L 519.530844 215.201061 
L 526.324675 233.689467 
L 546.706169 229.514677 
L 553.5 208.640669 
L 560.293831 205.658594 
L 567.087662 200.290974 
L 573.881494 185.977358 
L 594.262987 200.290974 
L 601.056818 185.977358 
L 607.850649 172.260158 
L 614.644481 214.604647 
L 621.438312 239.653502 
L 641.819805 276.033956 
L 648.613636 287.365611 
L 655.407468 335.07772 
L 662.201299 319.571275 
L 668.99513 327.920913 
L 689.376623 329.113685 
L 696.170455 304.661245 
L 702.964286 337.463323 
L 709.758117 348.794921 
L 716.551948 343.427301 
L 736.933442 330.306515 
L 743.727273 327.920913 
L 750.521104 305.854017 
L 757.314935 298.69721 
L 764.108766 281.997991 
L 784.49026 301.679227 
L 791.284091 317.185672 
L 798.077922 333.288476 
L 804.871753 326.131668 
L 832.047078 317.782087 
L 838.840909 307.643262 
L 845.63474 386.368205 
L 852.428571 389.350222 
L 859.222403 398.892633 
L 879.603896 380.40417 
L 886.397727 369.072572 
L 893.191558 348.794921 
L 899.98539 367.283384 
L 906.779221 362.512179 
L 927.160714 367.283384 
L 933.954545 395.910615 
" clip-path="url(#p993a2855e7)" style="fill: none; stroke: #000000; stroke-width: 2; stroke-linecap: round"/>
   </g>
   <g id="patch_3">
    <path d="M 135 512.64 
L 135 69.12 
" style="fill: none; stroke: #cccccc; stroke-linejoin: miter; stroke-linecap: square"/>
   </g>
   <g id="patch_4">
    <path d="M 972 512.64 
L 972 69.12 
" style="fill: none; stroke: #cccccc; stroke-linejoin: miter; stroke-linecap: square"/>
   </g>
   <g id="patch_5">
    <path d="M 135 512.64 
L 972 512.64 
" style="fill: none; stroke: #cccccc; stroke-linejoin: miter; stroke-linecap: square"/>
   </g>
   <g id="patch_6">
    <path d="M 135 69.12 
L 972 69.12 
" style="fill: none; stroke: #cccccc; stroke-linejoin: miter; stroke-linecap: square"/>
   </g>
   <g id="text_19">
    <!-- Tahminler ve Gerçek Değerler -->
    <g style="fill: #262626" transform="translate(473.811563 63.12) scale(0.12 -0.12)">
     <defs>
      <path id="ArialMT-54" d="M 1659 0 
L 1659 4041 
L 150 4041 
L 150 4581 
L 3781 4581 
L 3781 4041 
L 2266 4041 
L 2266 0 
L 1659 0 
z
" transform="scale(0.015625)"/>
      <path id="ArialMT-68" d="M 422 0 
L 422 4581 
L 984 4581 
L 984 2938 
Q 1378 3394 1978 3394 
Q 2347 3394 2619 3248 
Q 2891 3103 3008 2847 
Q 3125 2591 3125 2103 
L 3125 0 
L 2563 0 
L 2563 2103 
Q 2563 2525 2380 2717 
Q 2197 2909 1863 2909 
Q 1613 2909 1392 2779 
Q 1172 2650 1078 2428 
Q 984 2206 984 1816 
L 984 0 
L 422 0 
z
" transform="scale(0.015625)"/>
      <path id="ArialMT-6d" d="M 422 0 
L 422 3319 
L 925 3319 
L 925 2853 
Q 1081 3097 1340 3245 
Q 1600 3394 1931 3394 
Q 2300 3394 2536 3241 
Q 2772 3088 2869 2813 
Q 3263 3394 3894 3394 
Q 4388 3394 4653 3120 
Q 4919 2847 4919 2278 
L 4919 0 
L 4359 0 
L 4359 2091 
Q 4359 2428 4304 2576 
Q 4250 2725 4106 2815 
Q 3963 2906 3769 2906 
Q 3419 2906 3187 2673 
Q 2956 2441 2956 1928 
L 2956 0 
L 2394 0 
L 2394 2156 
Q 2394 2531 2256 2718 
Q 2119 2906 1806 2906 
Q 1569 2906 1367 2781 
Q 1166 2656 1075 2415 
Q 984 2175 984 1722 
L 984 0 
L 422 0 
z
" transform="scale(0.015625)"/>
      <path id="ArialMT-69" d="M 425 3934 
L 425 4581 
L 988 4581 
L 988 3934 
L 425 3934 
z
M 425 0 
L 425 3319 
L 988 3319 
L 988 0 
L 425 0 
z
" transform="scale(0.015625)"/>
      <path id="ArialMT-6e" d="M 422 0 
L 422 3319 
L 928 3319 
L 928 2847 
Q 1294 3394 1984 3394 
Q 2284 3394 2536 3286 
Q 2788 3178 2913 3003 
Q 3038 2828 3088 2588 
Q 3119 2431 3119 2041 
L 3119 0 
L 2556 0 
L 2556 2019 
Q 2556 2363 2490 2533 
Q 2425 2703 2258 2804 
Q 2091 2906 1866 2906 
Q 1506 2906 1245 2678 
Q 984 2450 984 1813 
L 984 0 
L 422 0 
z
" transform="scale(0.015625)"/>
      <path id="ArialMT-72" d="M 416 0 
L 416 3319 
L 922 3319 
L 922 2816 
Q 1116 3169 1280 3281 
Q 1444 3394 1641 3394 
Q 1925 3394 2219 3213 
L 2025 2691 
Q 1819 2813 1613 2813 
Q 1428 2813 1281 2702 
Q 1134 2591 1072 2394 
Q 978 2094 978 1738 
L 978 0 
L 416 0 
z
" transform="scale(0.015625)"/>
      <path id="ArialMT-76" d="M 1344 0 
L 81 3319 
L 675 3319 
L 1388 1331 
Q 1503 1009 1600 663 
Q 1675 925 1809 1294 
L 2547 3319 
L 3125 3319 
L 1869 0 
L 1344 0 
z
" transform="scale(0.015625)"/>
      <path id="ArialMT-47" d="M 2638 1797 
L 2638 2334 
L 4578 2338 
L 4578 638 
Q 4131 281 3656 101 
Q 3181 -78 2681 -78 
Q 2006 -78 1454 211 
Q 903 500 622 1047 
Q 341 1594 341 2269 
Q 341 2938 620 3517 
Q 900 4097 1425 4378 
Q 1950 4659 2634 4659 
Q 3131 4659 3532 4498 
Q 3934 4338 4162 4050 
Q 4391 3763 4509 3300 
L 3963 3150 
Q 3859 3500 3706 3700 
Q 3553 3900 3268 4020 
Q 2984 4141 2638 4141 
Q 2222 4141 1919 4014 
Q 1616 3888 1430 3681 
Q 1244 3475 1141 3228 
Q 966 2803 966 2306 
Q 966 1694 1177 1281 
Q 1388 869 1791 669 
Q 2194 469 2647 469 
Q 3041 469 3416 620 
Q 3791 772 3984 944 
L 3984 1797 
L 2638 1797 
z
" transform="scale(0.015625)"/>
      <path id="ArialMT-e7" d="M 2588 1216 
L 3141 1144 
Q 3050 572 2676 248 
Q 2303 -75 1759 -75 
Q 1078 -75 664 370 
Q 250 816 250 1647 
Q 250 2184 428 2587 
Q 606 2991 970 3192 
Q 1334 3394 1763 3394 
Q 2303 3394 2647 3120 
Q 2991 2847 3088 2344 
L 2541 2259 
Q 2463 2594 2264 2762 
Q 2066 2931 1784 2931 
Q 1359 2931 1093 2626 
Q 828 2322 828 1663 
Q 828 994 1084 691 
Q 1341 388 1753 388 
Q 2084 388 2306 591 
Q 2528 794 2588 1216 
z
M 1283 -417 
L 1446 136 
L 1864 136 
L 1761 -199 
Q 2027 -230 2161 -362 
Q 2296 -495 2296 -658 
Q 2296 -892 2071 -1072 
Q 1846 -1252 1392 -1252 
Q 1136 -1252 942 -1214 
L 977 -849 
Q 1177 -861 1271 -861 
Q 1564 -861 1683 -780 
Q 1774 -717 1774 -627 
Q 1774 -570 1738 -526 
Q 1702 -483 1605 -451 
Q 1508 -420 1283 -417 
z
" transform="scale(0.015625)"/>
      <path id="ArialMT-6b" d="M 425 0 
L 425 4581 
L 988 4581 
L 988 1969 
L 2319 3319 
L 3047 3319 
L 1778 2088 
L 3175 0 
L 2481 0 
L 1384 1697 
L 988 1316 
L 988 0 
L 425 0 
z
" transform="scale(0.015625)"/>
      <path id="ArialMT-11f" d="M 319 -275 
L 866 -356 
Q 900 -609 1056 -725 
Q 1266 -881 1628 -881 
Q 2019 -881 2231 -725 
Q 2444 -569 2519 -288 
Q 2563 -116 2559 434 
Q 2191 0 1641 0 
Q 956 0 581 494 
Q 206 988 206 1678 
Q 206 2153 378 2554 
Q 550 2956 876 3175 
Q 1203 3394 1644 3394 
Q 2231 3394 2613 2919 
L 2613 3319 
L 3131 3319 
L 3131 450 
Q 3131 -325 2973 -648 
Q 2816 -972 2473 -1159 
Q 2131 -1347 1631 -1347 
Q 1038 -1347 672 -1080 
Q 306 -813 319 -275 
z
M 784 1719 
Q 784 1066 1043 766 
Q 1303 466 1694 466 
Q 2081 466 2343 764 
Q 2606 1063 2606 1700 
Q 2606 2309 2336 2618 
Q 2066 2928 1684 2928 
Q 1309 2928 1046 2623 
Q 784 2319 784 1719 
z
M 2318 4575 
L 2703 4575 
Q 2656 4184 2417 3975 
Q 2178 3766 1781 3766 
Q 1381 3766 1142 3973 
Q 903 4181 856 4575 
L 1240 4575 
Q 1284 4363 1413 4258 
Q 1543 4153 1762 4153 
Q 2015 4153 2145 4254 
Q 2275 4356 2318 4575 
z
" transform="scale(0.015625)"/>
     </defs>
     <use xlink:href="#ArialMT-54"/>
     <use xlink:href="#ArialMT-61" x="49.958984"/>
     <use xlink:href="#ArialMT-68" x="105.574219"/>
     <use xlink:href="#ArialMT-6d" x="161.189453"/>
     <use xlink:href="#ArialMT-69" x="244.490234"/>
     <use xlink:href="#ArialMT-6e" x="266.707031"/>
     <use xlink:href="#ArialMT-6c" x="322.322266"/>
     <use xlink:href="#ArialMT-65" x="344.539062"/>
     <use xlink:href="#ArialMT-72" x="400.154297"/>
     <use xlink:href="#ArialMT-20" x="433.455078"/>
     <use xlink:href="#ArialMT-76" x="461.238281"/>
     <use xlink:href="#ArialMT-65" x="511.238281"/>
     <use xlink:href="#ArialMT-20" x="566.853516"/>
     <use xlink:href="#ArialMT-47" x="594.636719"/>
     <use xlink:href="#ArialMT-65" x="672.419922"/>
     <use xlink:href="#ArialMT-72" x="728.035156"/>
     <use xlink:href="#ArialMT-e7" x="761.335938"/>
     <use xlink:href="#ArialMT-65" x="811.335938"/>
     <use xlink:href="#ArialMT-6b" x="866.951172"/>
     <use xlink:href="#ArialMT-20" x="916.951172"/>
     <use xlink:href="#ArialMT-44" x="944.734375"/>
     <use xlink:href="#ArialMT-65" x="1016.951172"/>
     <use xlink:href="#ArialMT-11f" x="1072.566406"/>
     <use xlink:href="#ArialMT-65" x="1128.181641"/>
     <use xlink:href="#ArialMT-72" x="1183.796875"/>
     <use xlink:href="#ArialMT-6c" x="1217.097656"/>
     <use xlink:href="#ArialMT-65" x="1239.314453"/>
     <use xlink:href="#ArialMT-72" x="1294.929688"/>
    </g>
   </g>
   <g id="legend_1">
    <g id="line2d_45">
     <path d="M 841.63125 81.777813 
L 851.63125 81.777813 
L 861.63125 81.777813 
" style="fill: none; stroke: #1f77b4; stroke-width: 1.5; stroke-linecap: round"/>
    </g>
    <g id="text_20">
     <!-- Random Forest -->
     <g style="fill: #262626" transform="translate(869.63125 85.277813) scale(0.1 -0.1)">
      <defs>
       <path id="ArialMT-52" d="M 503 0 
L 503 4581 
L 2534 4581 
Q 3147 4581 3465 4457 
Q 3784 4334 3975 4021 
Q 4166 3709 4166 3331 
Q 4166 2844 3850 2509 
Q 3534 2175 2875 2084 
Q 3116 1969 3241 1856 
Q 3506 1613 3744 1247 
L 4541 0 
L 3778 0 
L 3172 953 
Q 2906 1366 2734 1584 
Q 2563 1803 2427 1890 
Q 2291 1978 2150 2013 
Q 2047 2034 1813 2034 
L 1109 2034 
L 1109 0 
L 503 0 
z
M 1109 2559 
L 2413 2559 
Q 2828 2559 3062 2645 
Q 3297 2731 3419 2920 
Q 3541 3109 3541 3331 
Q 3541 3656 3305 3865 
Q 3069 4075 2559 4075 
L 1109 4075 
L 1109 2559 
z
" transform="scale(0.015625)"/>
       <path id="ArialMT-46" d="M 525 0 
L 525 4581 
L 3616 4581 
L 3616 4041 
L 1131 4041 
L 1131 2622 
L 3281 2622 
L 3281 2081 
L 1131 2081 
L 1131 0 
L 525 0 
z
" transform="scale(0.015625)"/>
      </defs>
      <use xlink:href="#ArialMT-52"/>
      <use xlink:href="#ArialMT-61" x="72.216797"/>
      <use xlink:href="#ArialMT-6e" x="127.832031"/>
      <use xlink:href="#ArialMT-64" x="183.447266"/>
      <use xlink:href="#ArialMT-6f" x="239.0625"/>
      <use xlink:href="#ArialMT-6d" x="294.677734"/>
      <use xlink:href="#ArialMT-20" x="377.978516"/>
      <use xlink:href="#ArialMT-46" x="405.761719"/>
      <use xlink:href="#ArialMT-6f" x="466.845703"/>
      <use xlink:href="#ArialMT-72" x="522.460938"/>
      <use xlink:href="#ArialMT-65" x="555.761719"/>
      <use xlink:href="#ArialMT-73" x="611.376953"/>
      <use xlink:href="#ArialMT-74" x="661.376953"/>
     </g>
    </g>
    <g id="line2d_46">
     <path d="M 841.63125 96.045 
L 851.63125 96.045 
L 861.63125 96.045 
" style="fill: none; stroke: #ff7f0e; stroke-width: 1.5; stroke-linecap: round"/>
    </g>
    <g id="text_21">
     <!-- Gradient Boosting -->
     <g style="fill: #262626" transform="translate(869.63125 99.545) scale(0.1 -0.1)">
      <defs>
       <path id="ArialMT-42" d="M 469 0 
L 469 4581 
L 2188 4581 
Q 2713 4581 3030 4442 
Q 3347 4303 3526 4014 
Q 3706 3725 3706 3409 
Q 3706 3116 3547 2856 
Q 3388 2597 3066 2438 
Q 3481 2316 3704 2022 
Q 3928 1728 3928 1328 
Q 3928 1006 3792 729 
Q 3656 453 3456 303 
Q 3256 153 2954 76 
Q 2653 0 2216 0 
L 469 0 
z
M 1075 2656 
L 2066 2656 
Q 2469 2656 2644 2709 
Q 2875 2778 2992 2937 
Q 3109 3097 3109 3338 
Q 3109 3566 3000 3739 
Q 2891 3913 2687 3977 
Q 2484 4041 1991 4041 
L 1075 4041 
L 1075 2656 
z
M 1075 541 
L 2216 541 
Q 2509 541 2628 563 
Q 2838 600 2978 687 
Q 3119 775 3209 942 
Q 3300 1109 3300 1328 
Q 3300 1584 3169 1773 
Q 3038 1963 2805 2039 
Q 2572 2116 2134 2116 
L 1075 2116 
L 1075 541 
z
" transform="scale(0.015625)"/>
       <path id="ArialMT-67" d="M 319 -275 
L 866 -356 
Q 900 -609 1056 -725 
Q 1266 -881 1628 -881 
Q 2019 -881 2231 -725 
Q 2444 -569 2519 -288 
Q 2563 -116 2559 434 
Q 2191 0 1641 0 
Q 956 0 581 494 
Q 206 988 206 1678 
Q 206 2153 378 2554 
Q 550 2956 876 3175 
Q 1203 3394 1644 3394 
Q 2231 3394 2613 2919 
L 2613 3319 
L 3131 3319 
L 3131 450 
Q 3131 -325 2973 -648 
Q 2816 -972 2473 -1159 
Q 2131 -1347 1631 -1347 
Q 1038 -1347 672 -1080 
Q 306 -813 319 -275 
z
M 784 1719 
Q 784 1066 1043 766 
Q 1303 466 1694 466 
Q 2081 466 2343 764 
Q 2606 1063 2606 1700 
Q 2606 2309 2336 2618 
Q 2066 2928 1684 2928 
Q 1309 2928 1046 2623 
Q 784 2319 784 1719 
z
" transform="scale(0.015625)"/>
      </defs>
      <use xlink:href="#ArialMT-47"/>
      <use xlink:href="#ArialMT-72" x="77.783203"/>
      <use xlink:href="#ArialMT-61" x="111.083984"/>
      <use xlink:href="#ArialMT-64" x="166.699219"/>
      <use xlink:href="#ArialMT-69" x="222.314453"/>
      <use xlink:href="#ArialMT-65" x="244.53125"/>
      <use xlink:href="#ArialMT-6e" x="300.146484"/>
      <use xlink:href="#ArialMT-74" x="355.761719"/>
      <use xlink:href="#ArialMT-20" x="383.544922"/>
      <use xlink:href="#ArialMT-42" x="411.328125"/>
      <use xlink:href="#ArialMT-6f" x="478.027344"/>
      <use xlink:href="#ArialMT-6f" x="533.642578"/>
      <use xlink:href="#ArialMT-73" x="589.257812"/>
      <use xlink:href="#ArialMT-74" x="639.257812"/>
      <use xlink:href="#ArialMT-69" x="667.041016"/>
      <use xlink:href="#ArialMT-6e" x="689.257812"/>
      <use xlink:href="#ArialMT-67" x="744.873047"/>
     </g>
    </g>
    <g id="line2d_47">
     <path d="M 841.63125 110.3075 
L 851.63125 110.3075 
L 861.63125 110.3075 
" style="fill: none; stroke: #2ca02c; stroke-width: 1.5; stroke-linecap: round"/>
    </g>
    <g id="text_22">
     <!-- Linear Regression -->
     <g style="fill: #262626" transform="translate(869.63125 113.8075) scale(0.1 -0.1)">
      <defs>
       <path id="ArialMT-4c" d="M 469 0 
L 469 4581 
L 1075 4581 
L 1075 541 
L 3331 541 
L 3331 0 
L 469 0 
z
" transform="scale(0.015625)"/>
      </defs>
      <use xlink:href="#ArialMT-4c"/>
      <use xlink:href="#ArialMT-69" x="55.615234"/>
      <use xlink:href="#ArialMT-6e" x="77.832031"/>
      <use xlink:href="#ArialMT-65" x="133.447266"/>
      <use xlink:href="#ArialMT-61" x="189.0625"/>
      <use xlink:href="#ArialMT-72" x="244.677734"/>
      <use xlink:href="#ArialMT-20" x="277.978516"/>
      <use xlink:href="#ArialMT-52" x="305.761719"/>
      <use xlink:href="#ArialMT-65" x="377.978516"/>
      <use xlink:href="#ArialMT-67" x="433.59375"/>
      <use xlink:href="#ArialMT-72" x="489.208984"/>
      <use xlink:href="#ArialMT-65" x="522.509766"/>
      <use xlink:href="#ArialMT-73" x="578.125"/>
      <use xlink:href="#ArialMT-73" x="628.125"/>
      <use xlink:href="#ArialMT-69" x="678.125"/>
      <use xlink:href="#ArialMT-6f" x="700.341797"/>
      <use xlink:href="#ArialMT-6e" x="755.957031"/>
     </g>
    </g>
    <g id="line2d_48">
     <path d="M 841.63125 124.57 
L 851.63125 124.57 
L 861.63125 124.57 
" style="fill: none; stroke: #d62728; stroke-width: 1.5; stroke-linecap: round"/>
    </g>
    <g id="text_23">
     <!-- Decision Tree -->
     <g style="fill: #262626" transform="translate(869.63125 128.07) scale(0.1 -0.1)">
      <defs>
       <path id="ArialMT-63" d="M 2588 1216 
L 3141 1144 
Q 3050 572 2676 248 
Q 2303 -75 1759 -75 
Q 1078 -75 664 370 
Q 250 816 250 1647 
Q 250 2184 428 2587 
Q 606 2991 970 3192 
Q 1334 3394 1763 3394 
Q 2303 3394 2647 3120 
Q 2991 2847 3088 2344 
L 2541 2259 
Q 2463 2594 2264 2762 
Q 2066 2931 1784 2931 
Q 1359 2931 1093 2626 
Q 828 2322 828 1663 
Q 828 994 1084 691 
Q 1341 388 1753 388 
Q 2084 388 2306 591 
Q 2528 794 2588 1216 
z
" transform="scale(0.015625)"/>
      </defs>
      <use xlink:href="#ArialMT-44"/>
      <use xlink:href="#ArialMT-65" x="72.216797"/>
      <use xlink:href="#ArialMT-63" x="127.832031"/>
      <use xlink:href="#ArialMT-69" x="177.832031"/>
      <use xlink:href="#ArialMT-73" x="200.048828"/>
      <use xlink:href="#ArialMT-69" x="250.048828"/>
      <use xlink:href="#ArialMT-6f" x="272.265625"/>
      <use xlink:href="#ArialMT-6e" x="327.880859"/>
      <use xlink:href="#ArialMT-20" x="383.496094"/>
      <use xlink:href="#ArialMT-54" x="409.529297"/>
      <use xlink:href="#ArialMT-72" x="466.863281"/>
      <use xlink:href="#ArialMT-65" x="500.164062"/>
      <use xlink:href="#ArialMT-65" x="555.779297"/>
     </g>
    </g>
    <g id="line2d_49">
     <path d="M 841.63125 138.715313 
L 851.63125 138.715313 
L 861.63125 138.715313 
" style="fill: none; stroke: #9467bd; stroke-width: 1.5; stroke-linecap: round"/>
    </g>
    <g id="text_24">
     <!-- SVR -->
     <g style="fill: #262626" transform="translate(869.63125 142.215313) scale(0.1 -0.1)">
      <defs>
       <path id="ArialMT-53" d="M 288 1472 
L 859 1522 
Q 900 1178 1048 958 
Q 1197 738 1509 602 
Q 1822 466 2213 466 
Q 2559 466 2825 569 
Q 3091 672 3220 851 
Q 3350 1031 3350 1244 
Q 3350 1459 3225 1620 
Q 3100 1781 2813 1891 
Q 2628 1963 1997 2114 
Q 1366 2266 1113 2400 
Q 784 2572 623 2826 
Q 463 3081 463 3397 
Q 463 3744 659 4045 
Q 856 4347 1234 4503 
Q 1613 4659 2075 4659 
Q 2584 4659 2973 4495 
Q 3363 4331 3572 4012 
Q 3781 3694 3797 3291 
L 3216 3247 
Q 3169 3681 2898 3903 
Q 2628 4125 2100 4125 
Q 1550 4125 1298 3923 
Q 1047 3722 1047 3438 
Q 1047 3191 1225 3031 
Q 1400 2872 2139 2705 
Q 2878 2538 3153 2413 
Q 3553 2228 3743 1945 
Q 3934 1663 3934 1294 
Q 3934 928 3725 604 
Q 3516 281 3123 101 
Q 2731 -78 2241 -78 
Q 1619 -78 1198 103 
Q 778 284 539 648 
Q 300 1013 288 1472 
z
" transform="scale(0.015625)"/>
       <path id="ArialMT-56" d="M 1803 0 
L 28 4581 
L 684 4581 
L 1875 1253 
Q 2019 853 2116 503 
Q 2222 878 2363 1253 
L 3600 4581 
L 4219 4581 
L 2425 0 
L 1803 0 
z
" transform="scale(0.015625)"/>
      </defs>
      <use xlink:href="#ArialMT-53"/>
      <use xlink:href="#ArialMT-56" x="66.699219"/>
      <use xlink:href="#ArialMT-52" x="133.398438"/>
     </g>
    </g>
    <g id="line2d_50">
     <path d="M 841.63125 152.860625 
L 851.63125 152.860625 
L 861.63125 152.860625 
" style="fill: none; stroke: #8c564b; stroke-width: 1.5; stroke-linecap: round"/>
    </g>
    <g id="text_25">
     <!-- K-Nearest Neighbors -->
     <g style="fill: #262626" transform="translate(869.63125 156.360625) scale(0.1 -0.1)">
      <defs>
       <path id="ArialMT-4b" d="M 469 0 
L 469 4581 
L 1075 4581 
L 1075 2309 
L 3350 4581 
L 4172 4581 
L 2250 2725 
L 4256 0 
L 3456 0 
L 1825 2319 
L 1075 1588 
L 1075 0 
L 469 0 
z
" transform="scale(0.015625)"/>
       <path id="ArialMT-4e" d="M 488 0 
L 488 4581 
L 1109 4581 
L 3516 984 
L 3516 4581 
L 4097 4581 
L 4097 0 
L 3475 0 
L 1069 3600 
L 1069 0 
L 488 0 
z
" transform="scale(0.015625)"/>
       <path id="ArialMT-62" d="M 941 0 
L 419 0 
L 419 4581 
L 981 4581 
L 981 2947 
Q 1338 3394 1891 3394 
Q 2197 3394 2470 3270 
Q 2744 3147 2920 2923 
Q 3097 2700 3197 2384 
Q 3297 2069 3297 1709 
Q 3297 856 2875 390 
Q 2453 -75 1863 -75 
Q 1275 -75 941 416 
L 941 0 
z
M 934 1684 
Q 934 1088 1097 822 
Q 1363 388 1816 388 
Q 2184 388 2453 708 
Q 2722 1028 2722 1663 
Q 2722 2313 2464 2622 
Q 2206 2931 1841 2931 
Q 1472 2931 1203 2611 
Q 934 2291 934 1684 
z
" transform="scale(0.015625)"/>
      </defs>
      <use xlink:href="#ArialMT-4b"/>
      <use xlink:href="#ArialMT-2d" x="66.699219"/>
      <use xlink:href="#ArialMT-4e" x="100"/>
      <use xlink:href="#ArialMT-65" x="172.216797"/>
      <use xlink:href="#ArialMT-61" x="227.832031"/>
      <use xlink:href="#ArialMT-72" x="283.447266"/>
      <use xlink:href="#ArialMT-65" x="316.748047"/>
      <use xlink:href="#ArialMT-73" x="372.363281"/>
      <use xlink:href="#ArialMT-74" x="422.363281"/>
      <use xlink:href="#ArialMT-20" x="450.146484"/>
      <use xlink:href="#ArialMT-4e" x="477.929688"/>
      <use xlink:href="#ArialMT-65" x="550.146484"/>
      <use xlink:href="#ArialMT-69" x="605.761719"/>
      <use xlink:href="#ArialMT-67" x="627.978516"/>
      <use xlink:href="#ArialMT-68" x="683.59375"/>
      <use xlink:href="#ArialMT-62" x="739.208984"/>
      <use xlink:href="#ArialMT-6f" x="794.824219"/>
      <use xlink:href="#ArialMT-72" x="850.439453"/>
      <use xlink:href="#ArialMT-73" x="883.740234"/>
     </g>
    </g>
    <g id="line2d_51">
     <path d="M 841.63125 167.123125 
L 851.63125 167.123125 
L 861.63125 167.123125 
" style="fill: none; stroke: #e377c2; stroke-width: 1.5; stroke-linecap: round"/>
    </g>
    <g id="text_26">
     <!-- XGBoost -->
     <g style="fill: #262626" transform="translate(869.63125 170.623125) scale(0.1 -0.1)">
      <defs>
       <path id="ArialMT-58" d="M 28 0 
L 1800 2388 
L 238 4581 
L 959 4581 
L 1791 3406 
Q 2050 3041 2159 2844 
Q 2313 3094 2522 3366 
L 3444 4581 
L 4103 4581 
L 2494 2422 
L 4228 0 
L 3478 0 
L 2325 1634 
Q 2228 1775 2125 1941 
Q 1972 1691 1906 1597 
L 756 0 
L 28 0 
z
" transform="scale(0.015625)"/>
      </defs>
      <use xlink:href="#ArialMT-58"/>
      <use xlink:href="#ArialMT-47" x="66.699219"/>
      <use xlink:href="#ArialMT-42" x="144.482422"/>
      <use xlink:href="#ArialMT-6f" x="211.181641"/>
      <use xlink:href="#ArialMT-6f" x="266.796875"/>
      <use xlink:href="#ArialMT-73" x="322.412109"/>
      <use xlink:href="#ArialMT-74" x="372.412109"/>
     </g>
    </g>
    <g id="line2d_52">
     <path d="M 841.63125 181.268438 
L 851.63125 181.268438 
L 861.63125 181.268438 
" style="fill: none; stroke: #7f7f7f; stroke-width: 1.5; stroke-linecap: round"/>
    </g>
    <g id="text_27">
     <!-- Ridge Regression -->
     <g style="fill: #262626" transform="translate(869.63125 184.768438) scale(0.1 -0.1)">
      <use xlink:href="#ArialMT-52"/>
      <use xlink:href="#ArialMT-69" x="72.216797"/>
      <use xlink:href="#ArialMT-64" x="94.433594"/>
      <use xlink:href="#ArialMT-67" x="150.048828"/>
      <use xlink:href="#ArialMT-65" x="205.664062"/>
      <use xlink:href="#ArialMT-20" x="261.279297"/>
      <use xlink:href="#ArialMT-52" x="289.0625"/>
      <use xlink:href="#ArialMT-65" x="361.279297"/>
      <use xlink:href="#ArialMT-67" x="416.894531"/>
      <use xlink:href="#ArialMT-72" x="472.509766"/>
      <use xlink:href="#ArialMT-65" x="505.810547"/>
      <use xlink:href="#ArialMT-73" x="561.425781"/>
      <use xlink:href="#ArialMT-73" x="611.425781"/>
      <use xlink:href="#ArialMT-69" x="661.425781"/>
      <use xlink:href="#ArialMT-6f" x="683.642578"/>
      <use xlink:href="#ArialMT-6e" x="739.257812"/>
     </g>
    </g>
    <g id="line2d_53">
     <path d="M 841.63125 195.530938 
L 851.63125 195.530938 
L 861.63125 195.530938 
" style="fill: none; stroke: #bcbd22; stroke-width: 1.5; stroke-linecap: round"/>
    </g>
    <g id="text_28">
     <!-- ElasticNet -->
     <g style="fill: #262626" transform="translate(869.63125 199.030938) scale(0.1 -0.1)">
      <defs>
       <path id="ArialMT-45" d="M 506 0 
L 506 4581 
L 3819 4581 
L 3819 4041 
L 1113 4041 
L 1113 2638 
L 3647 2638 
L 3647 2100 
L 1113 2100 
L 1113 541 
L 3925 541 
L 3925 0 
L 506 0 
z
" transform="scale(0.015625)"/>
      </defs>
      <use xlink:href="#ArialMT-45"/>
      <use xlink:href="#ArialMT-6c" x="66.699219"/>
      <use xlink:href="#ArialMT-61" x="88.916016"/>
      <use xlink:href="#ArialMT-73" x="144.53125"/>
      <use xlink:href="#ArialMT-74" x="194.53125"/>
      <use xlink:href="#ArialMT-69" x="222.314453"/>
      <use xlink:href="#ArialMT-63" x="244.53125"/>
      <use xlink:href="#ArialMT-4e" x="294.53125"/>
      <use xlink:href="#ArialMT-65" x="366.748047"/>
      <use xlink:href="#ArialMT-74" x="422.363281"/>
     </g>
    </g>
    <g id="line2d_54">
     <path d="M 841.63125 209.67625 
L 851.63125 209.67625 
L 861.63125 209.67625 
" style="fill: none; stroke: #17becf; stroke-width: 1.5; stroke-linecap: round"/>
    </g>
    <g id="text_29">
     <!-- LSTM -->
     <g style="fill: #262626" transform="translate(869.63125 213.17625) scale(0.1 -0.1)">
      <defs>
       <path id="ArialMT-4d" d="M 475 0 
L 475 4581 
L 1388 4581 
L 2472 1338 
Q 2622 884 2691 659 
Q 2769 909 2934 1394 
L 4031 4581 
L 4847 4581 
L 4847 0 
L 4263 0 
L 4263 3834 
L 2931 0 
L 2384 0 
L 1059 3900 
L 1059 0 
L 475 0 
z
" transform="scale(0.015625)"/>
      </defs>
      <use xlink:href="#ArialMT-4c"/>
      <use xlink:href="#ArialMT-53" x="55.615234"/>
      <use xlink:href="#ArialMT-54" x="122.314453"/>
      <use xlink:href="#ArialMT-4d" x="183.398438"/>
     </g>
    </g>
    <g id="line2d_55">
     <path d="M 841.63125 223.821563 
L 851.63125 223.821563 
L 861.63125 223.821563 
" style="fill: none; stroke: #1f77b4; stroke-width: 1.5; stroke-linecap: round"/>
    </g>
    <g id="text_30">
     <!-- RNN -->
     <g style="fill: #262626" transform="translate(869.63125 227.321563) scale(0.1 -0.1)">
      <use xlink:href="#ArialMT-52"/>
      <use xlink:href="#ArialMT-4e" x="72.216797"/>
      <use xlink:href="#ArialMT-4e" x="144.433594"/>
     </g>
    </g>
    <g id="line2d_56">
     <path d="M 841.63125 238.08875 
L 851.63125 238.08875 
L 861.63125 238.08875 
" style="fill: none; stroke: #000000; stroke-width: 2; stroke-linecap: round"/>
    </g>
    <g id="text_31">
     <!-- Gerçek Değerler -->
     <g style="fill: #262626" transform="translate(869.63125 241.58875) scale(0.1 -0.1)">
      <use xlink:href="#ArialMT-47"/>
      <use xlink:href="#ArialMT-65" x="77.783203"/>
      <use xlink:href="#ArialMT-72" x="133.398438"/>
      <use xlink:href="#ArialMT-e7" x="166.699219"/>
      <use xlink:href="#ArialMT-65" x="216.699219"/>
      <use xlink:href="#ArialMT-6b" x="272.314453"/>
      <use xlink:href="#ArialMT-20" x="322.314453"/>
      <use xlink:href="#ArialMT-44" x="350.097656"/>
      <use xlink:href="#ArialMT-65" x="422.314453"/>
      <use xlink:href="#ArialMT-11f" x="477.929688"/>
      <use xlink:href="#ArialMT-65" x="533.544922"/>
      <use xlink:href="#ArialMT-72" x="589.160156"/>
      <use xlink:href="#ArialMT-6c" x="622.460938"/>
      <use xlink:href="#ArialMT-65" x="644.677734"/>
      <use xlink:href="#ArialMT-72" x="700.292969"/>
     </g>
    </g>
   </g>
  </g>
 </g>
 <defs>
  <clipPath id="p993a2855e7">
   <rect x="135" y="69.12" width="837" height="443.52"/>
  </clipPath>
 </defs>
</svg>
