<?xml version="1.0" encoding="utf-8" standalone="no"?>
<!DOCTYPE svg PUBLIC "-//W3C//DTD SVG 1.1//EN"
  "http://www.w3.org/Graphics/SVG/1.1/DTD/svg11.dtd">
<svg xmlns:xlink="http://www.w3.org/1999/xlink" width="1080pt" height="576pt" viewBox="0 0 1080 576" xmlns="http://www.w3.org/2000/svg" version="1.1">
 <metadata>
  <rdf:RDF xmlns:dc="http://purl.org/dc/elements/1.1/" xmlns:cc="http://creativecommons.org/ns#" xmlns:rdf="http://www.w3.org/1999/02/22-rdf-syntax-ns#">
   <cc:Work>
    <dc:type rdf:resource="http://purl.org/dc/dcmitype/StillImage"/>
    <dc:date>2023-05-23T01:50:22.590169</dc:date>
    <dc:format>image/svg+xml</dc:format>
    <dc:creator>
     <cc:Agent>
      <dc:title>Matplotlib v3.7.1, https://matplotlib.org/</dc:title>
     </cc:Agent>
    </dc:creator>
   </cc:Work>
  </rdf:RDF>
 </metadata>
 <defs>
  <style type="text/css">*{stroke-linejoin: round; stroke-linecap: butt}</style>
 </defs>
 <g id="figure_1">
  <g id="patch_1">
   <path d="M 0 576 
L 1080 576 
L 1080 0 
L 0 0 
z
" style="fill: #ffffff"/>
  </g>
  <g id="axes_1">
   <g id="patch_2">
    <path d="M 135 512.64 
L 972 512.64 
L 972 69.12 
L 135 69.12 
z
" style="fill: #ffffff"/>
   </g>
   <g id="matplotlib.axis_1">
    <g id="xtick_1">
     <g id="line2d_1">
      <path d="M 159.457792 512.64 
L 159.457792 69.12 
" clip-path="url(#p966503aacf)" style="fill: none; stroke: #cccccc; stroke-width: 0.8; stroke-linecap: round"/>
     </g>
     <g id="line2d_2"/>
     <g id="text_1">
      <!-- 2023-01-01 -->
      <g style="fill: #262626" transform="translate(133.884355 523.297812) scale(0.1 -0.1)">
       <defs>
        <path id="ArialMT-32" d="M 3222 541 
L 3222 0 
L 194 0 
Q 188 203 259 391 
Q 375 700 629 1000 
Q 884 1300 1366 1694 
Q 2113 2306 2375 2664 
Q 2638 3022 2638 3341 
Q 2638 3675 2398 3904 
Q 2159 4134 1775 4134 
Q 1369 4134 1125 3890 
Q 881 3647 878 3216 
L 300 3275 
Q 359 3922 746 4261 
Q 1134 4600 1788 4600 
Q 2447 4600 2831 4234 
Q 3216 3869 3216 3328 
Q 3216 3053 3103 2787 
Q 2991 2522 2730 2228 
Q 2469 1934 1863 1422 
Q 1356 997 1212 845 
Q 1069 694 975 541 
L 3222 541 
z
" transform="scale(0.015625)"/>
        <path id="ArialMT-30" d="M 266 2259 
Q 266 3072 433 3567 
Q 600 4063 929 4331 
Q 1259 4600 1759 4600 
Q 2128 4600 2406 4451 
Q 2684 4303 2865 4023 
Q 3047 3744 3150 3342 
Q 3253 2941 3253 2259 
Q 3253 1453 3087 958 
Q 2922 463 2592 192 
Q 2263 -78 1759 -78 
Q 1097 -78 719 397 
Q 266 969 266 2259 
z
M 844 2259 
Q 844 1131 1108 757 
Q 1372 384 1759 384 
Q 2147 384 2411 759 
Q 2675 1134 2675 2259 
Q 2675 3391 2411 3762 
Q 2147 4134 1753 4134 
Q 1366 4134 1134 3806 
Q 844 3388 844 2259 
z
" transform="scale(0.015625)"/>
        <path id="ArialMT-33" d="M 269 1209 
L 831 1284 
Q 928 806 1161 595 
Q 1394 384 1728 384 
Q 2125 384 2398 659 
Q 2672 934 2672 1341 
Q 2672 1728 2419 1979 
Q 2166 2231 1775 2231 
Q 1616 2231 1378 2169 
L 1441 2663 
Q 1497 2656 1531 2656 
Q 1891 2656 2178 2843 
Q 2466 3031 2466 3422 
Q 2466 3731 2256 3934 
Q 2047 4138 1716 4138 
Q 1388 4138 1169 3931 
Q 950 3725 888 3313 
L 325 3413 
Q 428 3978 793 4289 
Q 1159 4600 1703 4600 
Q 2078 4600 2393 4439 
Q 2709 4278 2876 4000 
Q 3044 3722 3044 3409 
Q 3044 3113 2884 2869 
Q 2725 2625 2413 2481 
Q 2819 2388 3044 2092 
Q 3269 1797 3269 1353 
Q 3269 753 2831 336 
Q 2394 -81 1725 -81 
Q 1122 -81 723 278 
Q 325 638 269 1209 
z
" transform="scale(0.015625)"/>
        <path id="ArialMT-2d" d="M 203 1375 
L 203 1941 
L 1931 1941 
L 1931 1375 
L 203 1375 
z
" transform="scale(0.015625)"/>
        <path id="ArialMT-31" d="M 2384 0 
L 1822 0 
L 1822 3584 
Q 1619 3391 1289 3197 
Q 959 3003 697 2906 
L 697 3450 
Q 1169 3672 1522 3987 
Q 1875 4303 2022 4600 
L 2384 4600 
L 2384 0 
z
" transform="scale(0.015625)"/>
       </defs>
       <use xlink:href="#ArialMT-32"/>
       <use xlink:href="#ArialMT-30" x="55.615234"/>
       <use xlink:href="#ArialMT-32" x="111.230469"/>
       <use xlink:href="#ArialMT-33" x="166.845703"/>
       <use xlink:href="#ArialMT-2d" x="222.460938"/>
       <use xlink:href="#ArialMT-30" x="255.761719"/>
       <use xlink:href="#ArialMT-31" x="311.376953"/>
       <use xlink:href="#ArialMT-2d" x="366.992188"/>
       <use xlink:href="#ArialMT-30" x="400.292969"/>
       <use xlink:href="#ArialMT-31" x="455.908203"/>
      </g>
     </g>
    </g>
    <g id="xtick_2">
     <g id="line2d_3">
      <path d="M 254.571429 512.64 
L 254.571429 69.12 
" clip-path="url(#p966503aacf)" style="fill: none; stroke: #cccccc; stroke-width: 0.8; stroke-linecap: round"/>
     </g>
     <g id="line2d_4"/>
     <g id="text_2">
      <!-- 2023-01-15 -->
      <g style="fill: #262626" transform="translate(228.997991 523.297812) scale(0.1 -0.1)">
       <defs>
        <path id="ArialMT-35" d="M 266 1200 
L 856 1250 
Q 922 819 1161 601 
Q 1400 384 1738 384 
Q 2144 384 2425 690 
Q 2706 997 2706 1503 
Q 2706 1984 2436 2262 
Q 2166 2541 1728 2541 
Q 1456 2541 1237 2417 
Q 1019 2294 894 2097 
L 366 2166 
L 809 4519 
L 3088 4519 
L 3088 3981 
L 1259 3981 
L 1013 2750 
Q 1425 3038 1878 3038 
Q 2478 3038 2890 2622 
Q 3303 2206 3303 1553 
Q 3303 931 2941 478 
Q 2500 -78 1738 -78 
Q 1113 -78 717 272 
Q 322 622 266 1200 
z
" transform="scale(0.015625)"/>
       </defs>
       <use xlink:href="#ArialMT-32"/>
       <use xlink:href="#ArialMT-30" x="55.615234"/>
       <use xlink:href="#ArialMT-32" x="111.230469"/>
       <use xlink:href="#ArialMT-33" x="166.845703"/>
       <use xlink:href="#ArialMT-2d" x="222.460938"/>
       <use xlink:href="#ArialMT-30" x="255.761719"/>
       <use xlink:href="#ArialMT-31" x="311.376953"/>
       <use xlink:href="#ArialMT-2d" x="366.992188"/>
       <use xlink:href="#ArialMT-31" x="400.292969"/>
       <use xlink:href="#ArialMT-35" x="455.908203"/>
      </g>
     </g>
    </g>
    <g id="xtick_3">
     <g id="line2d_5">
      <path d="M 370.066558 512.64 
L 370.066558 69.12 
" clip-path="url(#p966503aacf)" style="fill: none; stroke: #cccccc; stroke-width: 0.8; stroke-linecap: round"/>
     </g>
     <g id="line2d_6"/>
     <g id="text_3">
      <!-- 2023-02-01 -->
      <g style="fill: #262626" transform="translate(344.493121 523.297812) scale(0.1 -0.1)">
       <use xlink:href="#ArialMT-32"/>
       <use xlink:href="#ArialMT-30" x="55.615234"/>
       <use xlink:href="#ArialMT-32" x="111.230469"/>
       <use xlink:href="#ArialMT-33" x="166.845703"/>
       <use xlink:href="#ArialMT-2d" x="222.460938"/>
       <use xlink:href="#ArialMT-30" x="255.761719"/>
       <use xlink:href="#ArialMT-32" x="311.376953"/>
       <use xlink:href="#ArialMT-2d" x="366.992188"/>
       <use xlink:href="#ArialMT-30" x="400.292969"/>
       <use xlink:href="#ArialMT-31" x="455.908203"/>
      </g>
     </g>
    </g>
    <g id="xtick_4">
     <g id="line2d_7">
      <path d="M 465.180195 512.64 
L 465.180195 69.12 
" clip-path="url(#p966503aacf)" style="fill: none; stroke: #cccccc; stroke-width: 0.8; stroke-linecap: round"/>
     </g>
     <g id="line2d_8"/>
     <g id="text_4">
      <!-- 2023-02-15 -->
      <g style="fill: #262626" transform="translate(439.606757 523.297812) scale(0.1 -0.1)">
       <use xlink:href="#ArialMT-32"/>
       <use xlink:href="#ArialMT-30" x="55.615234"/>
       <use xlink:href="#ArialMT-32" x="111.230469"/>
       <use xlink:href="#ArialMT-33" x="166.845703"/>
       <use xlink:href="#ArialMT-2d" x="222.460938"/>
       <use xlink:href="#ArialMT-30" x="255.761719"/>
       <use xlink:href="#ArialMT-32" x="311.376953"/>
       <use xlink:href="#ArialMT-2d" x="366.992188"/>
       <use xlink:href="#ArialMT-31" x="400.292969"/>
       <use xlink:href="#ArialMT-35" x="455.908203"/>
      </g>
     </g>
    </g>
    <g id="xtick_5">
     <g id="line2d_9">
      <path d="M 560.293831 512.64 
L 560.293831 69.12 
" clip-path="url(#p966503aacf)" style="fill: none; stroke: #cccccc; stroke-width: 0.8; stroke-linecap: round"/>
     </g>
     <g id="line2d_10"/>
     <g id="text_5">
      <!-- 2023-03-01 -->
      <g style="fill: #262626" transform="translate(534.720394 523.297812) scale(0.1 -0.1)">
       <use xlink:href="#ArialMT-32"/>
       <use xlink:href="#ArialMT-30" x="55.615234"/>
       <use xlink:href="#ArialMT-32" x="111.230469"/>
       <use xlink:href="#ArialMT-33" x="166.845703"/>
       <use xlink:href="#ArialMT-2d" x="222.460938"/>
       <use xlink:href="#ArialMT-30" x="255.761719"/>
       <use xlink:href="#ArialMT-33" x="311.376953"/>
       <use xlink:href="#ArialMT-2d" x="366.992188"/>
       <use xlink:href="#ArialMT-30" x="400.292969"/>
       <use xlink:href="#ArialMT-31" x="455.908203"/>
      </g>
     </g>
    </g>
    <g id="xtick_6">
     <g id="line2d_11">
      <path d="M 655.407468 512.64 
L 655.407468 69.12 
" clip-path="url(#p966503aacf)" style="fill: none; stroke: #cccccc; stroke-width: 0.8; stroke-linecap: round"/>
     </g>
     <g id="line2d_12"/>
     <g id="text_6">
      <!-- 2023-03-15 -->
      <g style="fill: #262626" transform="translate(629.83403 523.297812) scale(0.1 -0.1)">
       <use xlink:href="#ArialMT-32"/>
       <use xlink:href="#ArialMT-30" x="55.615234"/>
       <use xlink:href="#ArialMT-32" x="111.230469"/>
       <use xlink:href="#ArialMT-33" x="166.845703"/>
       <use xlink:href="#ArialMT-2d" x="222.460938"/>
       <use xlink:href="#ArialMT-30" x="255.761719"/>
       <use xlink:href="#ArialMT-33" x="311.376953"/>
       <use xlink:href="#ArialMT-2d" x="366.992188"/>
       <use xlink:href="#ArialMT-31" x="400.292969"/>
       <use xlink:href="#ArialMT-35" x="455.908203"/>
      </g>
     </g>
    </g>
    <g id="xtick_7">
     <g id="line2d_13">
      <path d="M 770.902597 512.64 
L 770.902597 69.12 
" clip-path="url(#p966503aacf)" style="fill: none; stroke: #cccccc; stroke-width: 0.8; stroke-linecap: round"/>
     </g>
     <g id="line2d_14"/>
     <g id="text_7">
      <!-- 2023-04-01 -->
      <g style="fill: #262626" transform="translate(745.32916 523.297812) scale(0.1 -0.1)">
       <defs>
        <path id="ArialMT-34" d="M 2069 0 
L 2069 1097 
L 81 1097 
L 81 1613 
L 2172 4581 
L 2631 4581 
L 2631 1613 
L 3250 1613 
L 3250 1097 
L 2631 1097 
L 2631 0 
L 2069 0 
z
M 2069 1613 
L 2069 3678 
L 634 1613 
L 2069 1613 
z
" transform="scale(0.015625)"/>
       </defs>
       <use xlink:href="#ArialMT-32"/>
       <use xlink:href="#ArialMT-30" x="55.615234"/>
       <use xlink:href="#ArialMT-32" x="111.230469"/>
       <use xlink:href="#ArialMT-33" x="166.845703"/>
       <use xlink:href="#ArialMT-2d" x="222.460938"/>
       <use xlink:href="#ArialMT-30" x="255.761719"/>
       <use xlink:href="#ArialMT-34" x="311.376953"/>
       <use xlink:href="#ArialMT-2d" x="366.992188"/>
       <use xlink:href="#ArialMT-30" x="400.292969"/>
       <use xlink:href="#ArialMT-31" x="455.908203"/>
      </g>
     </g>
    </g>
    <g id="xtick_8">
     <g id="line2d_15">
      <path d="M 866.016234 512.64 
L 866.016234 69.12 
" clip-path="url(#p966503aacf)" style="fill: none; stroke: #cccccc; stroke-width: 0.8; stroke-linecap: round"/>
     </g>
     <g id="line2d_16"/>
     <g id="text_8">
      <!-- 2023-04-15 -->
      <g style="fill: #262626" transform="translate(840.442796 523.297812) scale(0.1 -0.1)">
       <use xlink:href="#ArialMT-32"/>
       <use xlink:href="#ArialMT-30" x="55.615234"/>
       <use xlink:href="#ArialMT-32" x="111.230469"/>
       <use xlink:href="#ArialMT-33" x="166.845703"/>
       <use xlink:href="#ArialMT-2d" x="222.460938"/>
       <use xlink:href="#ArialMT-30" x="255.761719"/>
       <use xlink:href="#ArialMT-34" x="311.376953"/>
       <use xlink:href="#ArialMT-2d" x="366.992188"/>
       <use xlink:href="#ArialMT-31" x="400.292969"/>
       <use xlink:href="#ArialMT-35" x="455.908203"/>
      </g>
     </g>
    </g>
    <g id="text_9">
     <!-- Date -->
     <g style="fill: #262626" transform="translate(542.939062 536.443125) scale(0.1 -0.1)">
      <defs>
       <path id="ArialMT-44" d="M 494 0 
L 494 4581 
L 2072 4581 
Q 2606 4581 2888 4516 
Q 3281 4425 3559 4188 
Q 3922 3881 4101 3404 
Q 4281 2928 4281 2316 
Q 4281 1794 4159 1391 
Q 4038 988 3847 723 
Q 3656 459 3429 307 
Q 3203 156 2883 78 
Q 2563 0 2147 0 
L 494 0 
z
M 1100 541 
L 2078 541 
Q 2531 541 2789 625 
Q 3047 709 3200 863 
Q 3416 1078 3536 1442 
Q 3656 1806 3656 2325 
Q 3656 3044 3420 3430 
Q 3184 3816 2847 3947 
Q 2603 4041 2063 4041 
L 1100 4041 
L 1100 541 
z
" transform="scale(0.015625)"/>
       <path id="ArialMT-61" d="M 2588 409 
Q 2275 144 1986 34 
Q 1697 -75 1366 -75 
Q 819 -75 525 192 
Q 231 459 231 875 
Q 231 1119 342 1320 
Q 453 1522 633 1644 
Q 813 1766 1038 1828 
Q 1203 1872 1538 1913 
Q 2219 1994 2541 2106 
Q 2544 2222 2544 2253 
Q 2544 2597 2384 2738 
Q 2169 2928 1744 2928 
Q 1347 2928 1158 2789 
Q 969 2650 878 2297 
L 328 2372 
Q 403 2725 575 2942 
Q 747 3159 1072 3276 
Q 1397 3394 1825 3394 
Q 2250 3394 2515 3294 
Q 2781 3194 2906 3042 
Q 3031 2891 3081 2659 
Q 3109 2516 3109 2141 
L 3109 1391 
Q 3109 606 3145 398 
Q 3181 191 3288 0 
L 2700 0 
Q 2613 175 2588 409 
z
M 2541 1666 
Q 2234 1541 1622 1453 
Q 1275 1403 1131 1340 
Q 988 1278 909 1158 
Q 831 1038 831 891 
Q 831 666 1001 516 
Q 1172 366 1500 366 
Q 1825 366 2078 508 
Q 2331 650 2450 897 
Q 2541 1088 2541 1459 
L 2541 1666 
z
" transform="scale(0.015625)"/>
       <path id="ArialMT-74" d="M 1650 503 
L 1731 6 
Q 1494 -44 1306 -44 
Q 1000 -44 831 53 
Q 663 150 594 308 
Q 525 466 525 972 
L 525 2881 
L 113 2881 
L 113 3319 
L 525 3319 
L 525 4141 
L 1084 4478 
L 1084 3319 
L 1650 3319 
L 1650 2881 
L 1084 2881 
L 1084 941 
Q 1084 700 1114 631 
Q 1144 563 1211 522 
Q 1278 481 1403 481 
Q 1497 481 1650 503 
z
" transform="scale(0.015625)"/>
       <path id="ArialMT-65" d="M 2694 1069 
L 3275 997 
Q 3138 488 2766 206 
Q 2394 -75 1816 -75 
Q 1088 -75 661 373 
Q 234 822 234 1631 
Q 234 2469 665 2931 
Q 1097 3394 1784 3394 
Q 2450 3394 2872 2941 
Q 3294 2488 3294 1666 
Q 3294 1616 3291 1516 
L 816 1516 
Q 847 969 1125 678 
Q 1403 388 1819 388 
Q 2128 388 2347 550 
Q 2566 713 2694 1069 
z
M 847 1978 
L 2700 1978 
Q 2663 2397 2488 2606 
Q 2219 2931 1791 2931 
Q 1403 2931 1139 2672 
Q 875 2413 847 1978 
z
" transform="scale(0.015625)"/>
      </defs>
      <use xlink:href="#ArialMT-44"/>
      <use xlink:href="#ArialMT-61" x="72.216797"/>
      <use xlink:href="#ArialMT-74" x="127.832031"/>
      <use xlink:href="#ArialMT-65" x="155.615234"/>
     </g>
    </g>
   </g>
   <g id="matplotlib.axis_2">
    <g id="ytick_1">
     <g id="line2d_17">
      <path d="M 135 484.518346 
L 972 484.518346 
" clip-path="url(#p966503aacf)" style="fill: none; stroke: #cccccc; stroke-width: 0.8; stroke-linecap: round"/>
     </g>
     <g id="line2d_18"/>
     <g id="text_10">
      <!-- 12 -->
      <g style="fill: #262626" transform="translate(120.378125 488.097252) scale(0.1 -0.1)">
       <use xlink:href="#ArialMT-31"/>
       <use xlink:href="#ArialMT-32" x="55.615234"/>
      </g>
     </g>
    </g>
    <g id="ytick_2">
     <g id="line2d_19">
      <path d="M 135 427.649525 
L 972 427.649525 
" clip-path="url(#p966503aacf)" style="fill: none; stroke: #cccccc; stroke-width: 0.8; stroke-linecap: round"/>
     </g>
     <g id="line2d_20"/>
     <g id="text_11">
      <!-- 13 -->
      <g style="fill: #262626" transform="translate(120.378125 431.228431) scale(0.1 -0.1)">
       <use xlink:href="#ArialMT-31"/>
       <use xlink:href="#ArialMT-33" x="55.615234"/>
      </g>
     </g>
    </g>
    <g id="ytick_3">
     <g id="line2d_21">
      <path d="M 135 370.780705 
L 972 370.780705 
" clip-path="url(#p966503aacf)" style="fill: none; stroke: #cccccc; stroke-width: 0.8; stroke-linecap: round"/>
     </g>
     <g id="line2d_22"/>
     <g id="text_12">
      <!-- 14 -->
      <g style="fill: #262626" transform="translate(120.378125 374.359611) scale(0.1 -0.1)">
       <use xlink:href="#ArialMT-31"/>
       <use xlink:href="#ArialMT-34" x="55.615234"/>
      </g>
     </g>
    </g>
    <g id="ytick_4">
     <g id="line2d_23">
      <path d="M 135 313.911884 
L 972 313.911884 
" clip-path="url(#p966503aacf)" style="fill: none; stroke: #cccccc; stroke-width: 0.8; stroke-linecap: round"/>
     </g>
     <g id="line2d_24"/>
     <g id="text_13">
      <!-- 15 -->
      <g style="fill: #262626" transform="translate(120.378125 317.49079) scale(0.1 -0.1)">
       <use xlink:href="#ArialMT-31"/>
       <use xlink:href="#ArialMT-35" x="55.615234"/>
      </g>
     </g>
    </g>
    <g id="ytick_5">
     <g id="line2d_25">
      <path d="M 135 257.043064 
L 972 257.043064 
" clip-path="url(#p966503aacf)" style="fill: none; stroke: #cccccc; stroke-width: 0.8; stroke-linecap: round"/>
     </g>
     <g id="line2d_26"/>
     <g id="text_14">
      <!-- 16 -->
      <g style="fill: #262626" transform="translate(120.378125 260.62197) scale(0.1 -0.1)">
       <defs>
        <path id="ArialMT-36" d="M 3184 3459 
L 2625 3416 
Q 2550 3747 2413 3897 
Q 2184 4138 1850 4138 
Q 1581 4138 1378 3988 
Q 1113 3794 959 3422 
Q 806 3050 800 2363 
Q 1003 2672 1297 2822 
Q 1591 2972 1913 2972 
Q 2475 2972 2870 2558 
Q 3266 2144 3266 1488 
Q 3266 1056 3080 686 
Q 2894 316 2569 119 
Q 2244 -78 1831 -78 
Q 1128 -78 684 439 
Q 241 956 241 2144 
Q 241 3472 731 4075 
Q 1159 4600 1884 4600 
Q 2425 4600 2770 4297 
Q 3116 3994 3184 3459 
z
M 888 1484 
Q 888 1194 1011 928 
Q 1134 663 1356 523 
Q 1578 384 1822 384 
Q 2178 384 2434 671 
Q 2691 959 2691 1453 
Q 2691 1928 2437 2201 
Q 2184 2475 1800 2475 
Q 1419 2475 1153 2201 
Q 888 1928 888 1484 
z
" transform="scale(0.015625)"/>
       </defs>
       <use xlink:href="#ArialMT-31"/>
       <use xlink:href="#ArialMT-36" x="55.615234"/>
      </g>
     </g>
    </g>
    <g id="ytick_6">
     <g id="line2d_27">
      <path d="M 135 200.174243 
L 972 200.174243 
" clip-path="url(#p966503aacf)" style="fill: none; stroke: #cccccc; stroke-width: 0.8; stroke-linecap: round"/>
     </g>
     <g id="line2d_28"/>
     <g id="text_15">
      <!-- 17 -->
      <g style="fill: #262626" transform="translate(120.378125 203.75315) scale(0.1 -0.1)">
       <defs>
        <path id="ArialMT-37" d="M 303 3981 
L 303 4522 
L 3269 4522 
L 3269 4084 
Q 2831 3619 2401 2847 
Q 1972 2075 1738 1259 
Q 1569 684 1522 0 
L 944 0 
Q 953 541 1156 1306 
Q 1359 2072 1739 2783 
Q 2119 3494 2547 3981 
L 303 3981 
z
" transform="scale(0.015625)"/>
       </defs>
       <use xlink:href="#ArialMT-31"/>
       <use xlink:href="#ArialMT-37" x="55.615234"/>
      </g>
     </g>
    </g>
    <g id="ytick_7">
     <g id="line2d_29">
      <path d="M 135 143.305423 
L 972 143.305423 
" clip-path="url(#p966503aacf)" style="fill: none; stroke: #cccccc; stroke-width: 0.8; stroke-linecap: round"/>
     </g>
     <g id="line2d_30"/>
     <g id="text_16">
      <!-- 18 -->
      <g style="fill: #262626" transform="translate(120.378125 146.884329) scale(0.1 -0.1)">
       <defs>
        <path id="ArialMT-38" d="M 1131 2484 
Q 781 2613 612 2850 
Q 444 3088 444 3419 
Q 444 3919 803 4259 
Q 1163 4600 1759 4600 
Q 2359 4600 2725 4251 
Q 3091 3903 3091 3403 
Q 3091 3084 2923 2848 
Q 2756 2613 2416 2484 
Q 2838 2347 3058 2040 
Q 3278 1734 3278 1309 
Q 3278 722 2862 322 
Q 2447 -78 1769 -78 
Q 1091 -78 675 323 
Q 259 725 259 1325 
Q 259 1772 486 2073 
Q 713 2375 1131 2484 
z
M 1019 3438 
Q 1019 3113 1228 2906 
Q 1438 2700 1772 2700 
Q 2097 2700 2305 2904 
Q 2513 3109 2513 3406 
Q 2513 3716 2298 3927 
Q 2084 4138 1766 4138 
Q 1444 4138 1231 3931 
Q 1019 3725 1019 3438 
z
M 838 1322 
Q 838 1081 952 856 
Q 1066 631 1291 507 
Q 1516 384 1775 384 
Q 2178 384 2440 643 
Q 2703 903 2703 1303 
Q 2703 1709 2433 1975 
Q 2163 2241 1756 2241 
Q 1359 2241 1098 1978 
Q 838 1716 838 1322 
z
" transform="scale(0.015625)"/>
       </defs>
       <use xlink:href="#ArialMT-31"/>
       <use xlink:href="#ArialMT-38" x="55.615234"/>
      </g>
     </g>
    </g>
    <g id="ytick_8">
     <g id="line2d_31">
      <path d="M 135 86.436602 
L 972 86.436602 
" clip-path="url(#p966503aacf)" style="fill: none; stroke: #cccccc; stroke-width: 0.8; stroke-linecap: round"/>
     </g>
     <g id="line2d_32"/>
     <g id="text_17">
      <!-- 19 -->
      <g style="fill: #262626" transform="translate(120.378125 90.015509) scale(0.1 -0.1)">
       <defs>
        <path id="ArialMT-39" d="M 350 1059 
L 891 1109 
Q 959 728 1153 556 
Q 1347 384 1650 384 
Q 1909 384 2104 503 
Q 2300 622 2425 820 
Q 2550 1019 2634 1356 
Q 2719 1694 2719 2044 
Q 2719 2081 2716 2156 
Q 2547 1888 2255 1720 
Q 1963 1553 1622 1553 
Q 1053 1553 659 1965 
Q 266 2378 266 3053 
Q 266 3750 677 4175 
Q 1088 4600 1706 4600 
Q 2153 4600 2523 4359 
Q 2894 4119 3086 3673 
Q 3278 3228 3278 2384 
Q 3278 1506 3087 986 
Q 2897 466 2520 194 
Q 2144 -78 1638 -78 
Q 1100 -78 759 220 
Q 419 519 350 1059 
z
M 2653 3081 
Q 2653 3566 2395 3850 
Q 2138 4134 1775 4134 
Q 1400 4134 1122 3828 
Q 844 3522 844 3034 
Q 844 2597 1108 2323 
Q 1372 2050 1759 2050 
Q 2150 2050 2401 2323 
Q 2653 2597 2653 3081 
z
" transform="scale(0.015625)"/>
       </defs>
       <use xlink:href="#ArialMT-31"/>
       <use xlink:href="#ArialMT-39" x="55.615234"/>
      </g>
     </g>
    </g>
    <g id="text_18">
     <!-- Adj Close -->
     <g style="fill: #262626" transform="translate(114.273438 312.278437) rotate(-90) scale(0.1 -0.1)">
      <defs>
       <path id="ArialMT-41" d="M -9 0 
L 1750 4581 
L 2403 4581 
L 4278 0 
L 3588 0 
L 3053 1388 
L 1138 1388 
L 634 0 
L -9 0 
z
M 1313 1881 
L 2866 1881 
L 2388 3150 
Q 2169 3728 2063 4100 
Q 1975 3659 1816 3225 
L 1313 1881 
z
" transform="scale(0.015625)"/>
       <path id="ArialMT-64" d="M 2575 0 
L 2575 419 
Q 2259 -75 1647 -75 
Q 1250 -75 917 144 
Q 584 363 401 755 
Q 219 1147 219 1656 
Q 219 2153 384 2558 
Q 550 2963 881 3178 
Q 1213 3394 1622 3394 
Q 1922 3394 2156 3267 
Q 2391 3141 2538 2938 
L 2538 4581 
L 3097 4581 
L 3097 0 
L 2575 0 
z
M 797 1656 
Q 797 1019 1065 703 
Q 1334 388 1700 388 
Q 2069 388 2326 689 
Q 2584 991 2584 1609 
Q 2584 2291 2321 2609 
Q 2059 2928 1675 2928 
Q 1300 2928 1048 2622 
Q 797 2316 797 1656 
z
" transform="scale(0.015625)"/>
       <path id="ArialMT-6a" d="M 419 3928 
L 419 4581 
L 981 4581 
L 981 3928 
L 419 3928 
z
M -294 -1288 
L -188 -809 
Q -19 -853 78 -853 
Q 250 -853 334 -739 
Q 419 -625 419 -169 
L 419 3319 
L 981 3319 
L 981 -181 
Q 981 -794 822 -1034 
Q 619 -1347 147 -1347 
Q -81 -1347 -294 -1288 
z
" transform="scale(0.015625)"/>
       <path id="ArialMT-20" transform="scale(0.015625)"/>
       <path id="ArialMT-43" d="M 3763 1606 
L 4369 1453 
Q 4178 706 3683 314 
Q 3188 -78 2472 -78 
Q 1731 -78 1267 223 
Q 803 525 561 1097 
Q 319 1669 319 2325 
Q 319 3041 592 3573 
Q 866 4106 1370 4382 
Q 1875 4659 2481 4659 
Q 3169 4659 3637 4309 
Q 4106 3959 4291 3325 
L 3694 3184 
Q 3534 3684 3231 3912 
Q 2928 4141 2469 4141 
Q 1941 4141 1586 3887 
Q 1231 3634 1087 3207 
Q 944 2781 944 2328 
Q 944 1744 1114 1308 
Q 1284 872 1643 656 
Q 2003 441 2422 441 
Q 2931 441 3284 734 
Q 3638 1028 3763 1606 
z
" transform="scale(0.015625)"/>
       <path id="ArialMT-6c" d="M 409 0 
L 409 4581 
L 972 4581 
L 972 0 
L 409 0 
z
" transform="scale(0.015625)"/>
       <path id="ArialMT-6f" d="M 213 1659 
Q 213 2581 725 3025 
Q 1153 3394 1769 3394 
Q 2453 3394 2887 2945 
Q 3322 2497 3322 1706 
Q 3322 1066 3130 698 
Q 2938 331 2570 128 
Q 2203 -75 1769 -75 
Q 1072 -75 642 372 
Q 213 819 213 1659 
z
M 791 1659 
Q 791 1022 1069 705 
Q 1347 388 1769 388 
Q 2188 388 2466 706 
Q 2744 1025 2744 1678 
Q 2744 2294 2464 2611 
Q 2184 2928 1769 2928 
Q 1347 2928 1069 2612 
Q 791 2297 791 1659 
z
" transform="scale(0.015625)"/>
       <path id="ArialMT-73" d="M 197 991 
L 753 1078 
Q 800 744 1014 566 
Q 1228 388 1613 388 
Q 2000 388 2187 545 
Q 2375 703 2375 916 
Q 2375 1106 2209 1216 
Q 2094 1291 1634 1406 
Q 1016 1563 777 1677 
Q 538 1791 414 1992 
Q 291 2194 291 2438 
Q 291 2659 392 2848 
Q 494 3038 669 3163 
Q 800 3259 1026 3326 
Q 1253 3394 1513 3394 
Q 1903 3394 2198 3281 
Q 2494 3169 2634 2976 
Q 2775 2784 2828 2463 
L 2278 2388 
Q 2241 2644 2061 2787 
Q 1881 2931 1553 2931 
Q 1166 2931 1000 2803 
Q 834 2675 834 2503 
Q 834 2394 903 2306 
Q 972 2216 1119 2156 
Q 1203 2125 1616 2013 
Q 2213 1853 2448 1751 
Q 2684 1650 2818 1456 
Q 2953 1263 2953 975 
Q 2953 694 2789 445 
Q 2625 197 2315 61 
Q 2006 -75 1616 -75 
Q 969 -75 630 194 
Q 291 463 197 991 
z
" transform="scale(0.015625)"/>
      </defs>
      <use xlink:href="#ArialMT-41"/>
      <use xlink:href="#ArialMT-64" x="66.699219"/>
      <use xlink:href="#ArialMT-6a" x="122.314453"/>
      <use xlink:href="#ArialMT-20" x="144.53125"/>
      <use xlink:href="#ArialMT-43" x="172.314453"/>
      <use xlink:href="#ArialMT-6c" x="244.53125"/>
      <use xlink:href="#ArialMT-6f" x="266.748047"/>
      <use xlink:href="#ArialMT-73" x="322.363281"/>
      <use xlink:href="#ArialMT-65" x="372.363281"/>
     </g>
    </g>
   </g>
   <g id="line2d_33">
    <path d="M 173.045455 439.745525 
L 179.839286 441.753002 
L 186.633117 385.054776 
L 193.426948 379.817153 
L 213.808442 377.115886 
L 220.602273 360.896902 
L 227.396104 339.394804 
L 234.189935 345.849413 
L 240.983766 232.487123 
L 268.159091 213.10623 
L 274.952922 176.107367 
L 281.746753 209.38132 
L 288.540584 216.228327 
L 308.922078 241.267664 
L 315.715909 237.650807 
L 322.50974 233.197969 
L 329.303571 225.037311 
L 336.097403 228.347067 
L 356.478896 227.016342 
L 363.272727 237.241353 
L 370.066558 241.000381 
L 376.86039 235.614905 
L 383.654221 175.618295 
L 404.035714 200.020704 
L 410.829545 216.461485 
L 417.623377 209.045786 
L 424.417208 214.425575 
L 431.211039 218.451888 
L 451.592532 246.266428 
L 458.386364 228.75652 
L 465.180195 229.865462 
L 471.974026 214.334585 
L 478.767857 223.996599 
L 505.943182 236.979751 
L 512.737013 240.420318 
L 519.530844 251.140084 
L 526.324675 239.925564 
L 546.706169 249.507948 
L 553.5 252.914396 
L 560.293831 256.354959 
L 567.087662 233.800788 
L 573.881494 243.559478 
L 594.262987 235.944738 
L 601.056818 237.520008 
L 607.850649 230.997149 
L 614.644481 223.81462 
L 621.438312 242.632513 
L 641.819805 286.802525 
L 648.613636 318.961837 
L 655.407468 335.885997 
L 662.201299 369.086011 
L 668.99513 367.095606 
L 689.376623 364.496699 
L 696.170455 370.974059 
L 702.964286 370.007285 
L 709.758117 372.839356 
L 716.551948 372.651687 
L 736.933442 371.434697 
L 743.727273 373.959677 
L 750.521104 374.266763 
L 757.314935 379.123361 
L 764.108766 362.045653 
L 784.49026 352.747601 
L 791.284091 368.574192 
L 798.077922 373.39667 
L 804.871753 371.599614 
L 832.047078 374.312256 
L 838.840909 374.295196 
L 845.63474 375.017433 
L 852.428571 427.422044 
L 859.222403 429.611493 
L 879.603896 440.484824 
L 886.397727 437.135245 
L 893.191558 423.623214 
L 899.98539 379.674989 
L 906.779221 422.292482 
L 927.160714 396.866433 
L 933.954545 422.281109 
" clip-path="url(#p966503aacf)" style="fill: none; stroke: #1f77b4; stroke-width: 1.5; stroke-linecap: round"/>
   </g>
   <g id="line2d_34">
    <path d="M 173.045455 444.939744 
L 179.839286 446.398642 
L 186.633117 395.336308 
L 193.426948 372.523992 
L 213.808442 357.22127 
L 220.602273 366.932588 
L 227.396104 328.715737 
L 234.189935 312.434916 
L 240.983766 242.840591 
L 268.159091 206.038152 
L 274.952922 185.233191 
L 281.746753 212.518661 
L 288.540584 224.252018 
L 308.922078 216.693787 
L 315.715909 230.192848 
L 322.50974 257.273242 
L 329.303571 233.265015 
L 336.097403 239.050362 
L 356.478896 213.028038 
L 363.272727 249.916549 
L 370.066558 242.050774 
L 376.86039 241.831308 
L 383.654221 181.68084 
L 404.035714 189.983271 
L 410.829545 209.163228 
L 417.623377 220.964279 
L 424.417208 201.433618 
L 431.211039 219.332786 
L 451.592532 239.892039 
L 458.386364 233.969557 
L 465.180195 217.174051 
L 471.974026 217.174051 
L 478.767857 217.139411 
L 505.943182 239.163324 
L 512.737013 253.060208 
L 519.530844 255.333973 
L 526.324675 259.124201 
L 546.706169 257.579151 
L 553.5 257.640281 
L 560.293831 260.00049 
L 567.087662 239.917061 
L 573.881494 239.102194 
L 594.262987 242.952085 
L 601.056818 242.16224 
L 607.850649 239.892039 
L 614.644481 212.68013 
L 621.438312 260.00049 
L 641.819805 300.701118 
L 648.613636 334.575711 
L 655.407468 344.168045 
L 662.201299 371.245999 
L 668.99513 362.090314 
L 689.376623 361.300469 
L 696.170455 372.171239 
L 702.964286 370.732696 
L 709.758117 376.778093 
L 716.551948 381.573483 
L 736.933442 372.111577 
L 743.727273 377.567939 
L 750.521104 374.155486 
L 757.314935 373.425303 
L 764.108766 372.036285 
L 784.49026 360.610282 
L 791.284091 369.261733 
L 798.077922 369.991915 
L 804.871753 376.837756 
L 832.047078 369.20207 
L 838.840909 374.155486 
L 845.63474 369.991915 
L 852.428571 425.003421 
L 859.222403 420.46958 
L 879.603896 431.795757 
L 886.397727 423.576389 
L 893.191558 415.100649 
L 899.98539 377.80026 
L 906.779221 414.591345 
L 927.160714 393.098378 
L 933.954545 421.556883 
" clip-path="url(#p966503aacf)" style="fill: none; stroke: #ff7f0e; stroke-width: 1.5; stroke-linecap: round"/>
   </g>
   <g id="line2d_35">
    <path d="M 173.045455 442.748299 
L 179.839286 440.257791 
L 186.633117 400.204771 
L 193.426948 354.076878 
L 213.808442 353.531779 
L 220.602273 341.123385 
L 227.396104 294.504217 
L 234.189935 280.267876 
L 240.983766 238.972049 
L 268.159091 204.210989 
L 274.952922 194.63132 
L 281.746753 226.419638 
L 288.540584 222.532461 
L 308.922078 236.380724 
L 315.715909 245.988608 
L 322.50974 262.96235 
L 329.303571 233.46734 
L 336.097403 229.075064 
L 356.478896 265.883749 
L 363.272727 285.497535 
L 370.066558 241.064459 
L 376.86039 217.684117 
L 383.654221 221.5136 
L 404.035714 210.404932 
L 410.829545 216.607174 
L 417.623377 230.982688 
L 424.417208 213.131455 
L 431.211039 225.577714 
L 451.592532 256.442981 
L 458.386364 242.229161 
L 465.180195 229.58233 
L 471.974026 230.436939 
L 478.767857 246.837684 
L 505.943182 252.225927 
L 512.737013 277.832487 
L 519.530844 293.569301 
L 526.324675 289.251865 
L 546.706169 298.927065 
L 553.5 276.724349 
L 560.293831 275.10788 
L 567.087662 258.341363 
L 573.881494 259.911346 
L 594.262987 256.826151 
L 601.056818 255.034229 
L 607.850649 243.810422 
L 614.644481 228.372812 
L 621.438312 274.794698 
L 641.819805 307.785449 
L 648.613636 345.439835 
L 655.407468 330.992993 
L 662.201299 397.574953 
L 668.99513 347.862137 
L 689.376623 370.3563 
L 696.170455 377.395561 
L 702.964286 318.343852 
L 709.758117 365.807858 
L 716.551948 392.005316 
L 736.933442 405.681032 
L 743.727273 387.5936 
L 750.521104 379.077874 
L 757.314935 326.498906 
L 764.108766 330.28983 
L 784.49026 339.179815 
L 791.284091 363.516367 
L 798.077922 368.100941 
L 804.871753 393.199192 
L 832.047078 366.885442 
L 838.840909 370.546266 
L 845.63474 352.294628 
L 852.428571 455.336846 
L 859.222403 388.272714 
L 879.603896 420.362096 
L 886.397727 442.813254 
L 893.191558 377.703277 
L 899.98539 436.154354 
L 906.779221 425.680148 
L 927.160714 405.049733 
L 933.954545 430.127017 
" clip-path="url(#p966503aacf)" style="fill: none; stroke: #2ca02c; stroke-width: 1.5; stroke-linecap: round"/>
   </g>
   <g id="line2d_36">
    <path d="M 173.045455 466.32034 
L 179.839286 454.377886 
L 186.633117 359.406951 
L 193.426948 359.406951 
L 213.808442 387.27266 
L 220.602273 388.97871 
L 227.396104 332.109889 
L 234.189935 353.151346 
L 240.983766 186.525739 
L 268.159091 249.650165 
L 274.952922 89.28 
L 281.746753 183.113641 
L 288.540584 225.196555 
L 308.922078 285.477474 
L 315.715909 287.183523 
L 322.50974 287.183523 
L 329.303571 224.059152 
L 336.097403 225.765256 
L 356.478896 201.880347 
L 363.272727 287.183523 
L 370.066558 287.183523 
L 376.86039 287.183523 
L 383.654221 134.20642 
L 404.035714 135.912524 
L 410.829545 89.28 
L 417.623377 214.391448 
L 424.417208 214.391448 
L 431.211039 89.28 
L 451.592532 285.477474 
L 458.386364 285.477474 
L 465.180195 214.391448 
L 471.974026 214.391448 
L 478.767857 214.391448 
L 505.943182 287.183523 
L 512.737013 287.183523 
L 519.530844 287.183523 
L 526.324675 287.183523 
L 546.706169 316.186635 
L 553.5 316.186635 
L 560.293831 316.186635 
L 567.087662 316.186635 
L 573.881494 316.186635 
L 594.262987 316.186635 
L 601.056818 316.186635 
L 607.850649 316.186635 
L 614.644481 201.880347 
L 621.438312 287.183523 
L 641.819805 295.145178 
L 648.613636 295.145178 
L 655.407468 366.231203 
L 662.201299 317.892684 
L 668.99513 367.937253 
L 689.376623 334.953341 
L 696.170455 371.918107 
L 702.964286 372.486754 
L 709.758117 414.569722 
L 716.551948 360.5443 
L 736.933442 355.426097 
L 743.727273 372.486754 
L 750.521104 381.01711 
L 757.314935 352.013998 
L 764.108766 352.013998 
L 784.49026 321.873539 
L 791.284091 352.013998 
L 798.077922 372.486754 
L 804.871753 372.486754 
L 832.047078 372.486754 
L 838.840909 372.486754 
L 845.63474 346.895796 
L 852.428571 431.630325 
L 859.222403 431.630325 
L 879.603896 492.48 
L 886.397727 438.454577 
L 893.191558 376.467608 
L 899.98539 403.195915 
L 906.779221 444.141481 
L 927.160714 407.745416 
L 933.954545 428.218226 
" clip-path="url(#p966503aacf)" style="fill: none; stroke: #d62728; stroke-width: 1.5; stroke-linecap: round"/>
   </g>
   <g id="line2d_37">
    <path d="M 173.045455 430.302619 
L 179.839286 429.642805 
L 186.633117 417.728597 
L 193.426948 404.011317 
L 213.808442 390.551802 
L 220.602273 373.84148 
L 227.396104 354.261759 
L 234.189935 337.029571 
L 240.983766 303.161018 
L 268.159091 276.577099 
L 274.952922 255.683 
L 281.746753 245.128003 
L 288.540584 243.23622 
L 308.922078 242.171491 
L 315.715909 243.59332 
L 322.50974 250.671316 
L 329.303571 253.225623 
L 336.097403 251.029733 
L 356.478896 250.705084 
L 363.272727 255.626389 
L 370.066558 257.303436 
L 376.86039 251.084385 
L 383.654221 240.71018 
L 404.035714 233.644029 
L 410.829545 230.431858 
L 417.623377 227.361949 
L 424.417208 223.58853 
L 431.211039 224.839741 
L 451.592532 232.15646 
L 458.386364 235.755238 
L 465.180195 234.901393 
L 471.974026 233.85648 
L 478.767857 238.377086 
L 505.943182 242.486182 
L 512.737013 254.14114 
L 519.530844 263.661409 
L 526.324675 267.39636 
L 546.706169 275.48886 
L 553.5 280.53668 
L 560.293831 278.915615 
L 567.087662 277.320347 
L 573.881494 273.111994 
L 594.262987 266.135109 
L 601.056818 264.948595 
L 607.850649 259.852674 
L 614.644481 252.987888 
L 621.438312 257.970934 
L 641.819805 267.373841 
L 648.613636 283.249235 
L 655.407468 298.787407 
L 662.201299 320.832563 
L 668.99513 334.859045 
L 689.376623 348.362842 
L 696.170455 357.378454 
L 702.964286 357.868359 
L 709.758117 364.284897 
L 716.551948 371.350963 
L 736.933442 373.968992 
L 743.727273 373.682223 
L 750.521104 372.601971 
L 757.314935 366.624049 
L 764.108766 361.460637 
L 784.49026 352.818047 
L 791.284091 350.03927 
L 798.077922 351.302528 
L 804.871753 356.46385 
L 832.047078 358.883702 
L 838.840909 359.717565 
L 845.63474 358.233762 
L 852.428571 374.873968 
L 859.222403 387.259911 
L 879.603896 398.589743 
L 886.397727 402.733937 
L 893.191558 403.347056 
L 899.98539 399.814205 
L 906.779221 401.654666 
L 927.160714 399.912552 
L 933.954545 399.328797 
" clip-path="url(#p966503aacf)" style="fill: none; stroke: #9467bd; stroke-width: 1.5; stroke-linecap: round"/>
   </g>
   <g id="line2d_38">
    <path d="M 173.045455 450.624534 
L 179.839286 450.624534 
L 186.633117 433.677628 
L 193.426948 383.97428 
L 213.808442 386.135291 
L 220.602273 373.737875 
L 227.396104 365.435033 
L 234.189935 322.214727 
L 240.983766 291.278107 
L 268.159091 246.692951 
L 274.952922 235.774137 
L 281.746753 235.774137 
L 288.540584 228.608675 
L 308.922078 232.134536 
L 315.715909 247.602851 
L 322.50974 250.673762 
L 329.303571 207.112257 
L 336.097403 161.275991 
L 356.478896 173.787136 
L 363.272727 212.685399 
L 370.066558 189.482921 
L 376.86039 173.787136 
L 383.654221 171.853595 
L 404.035714 187.54938 
L 410.829545 182.886138 
L 417.623377 211.889228 
L 424.417208 203.358905 
L 431.211039 210.410648 
L 451.592532 267.848148 
L 458.386364 228.381184 
L 465.180195 218.258541 
L 471.974026 188.00433 
L 478.767857 212.344178 
L 505.943182 208.932047 
L 512.737013 233.044436 
L 519.530844 275.127361 
L 526.324675 252.379833 
L 546.706169 255.905694 
L 553.5 261.820056 
L 560.293831 284.453844 
L 567.087662 300.37711 
L 573.881494 283.202723 
L 594.262987 203.927606 
L 601.056818 217.234911 
L 607.850649 195.056062 
L 614.644481 173.787136 
L 621.438312 195.056062 
L 641.819805 281.041724 
L 648.613636 314.594326 
L 655.407468 393.869454 
L 662.201299 396.030464 
L 668.99513 396.940364 
L 689.376623 370.098285 
L 696.170455 373.624146 
L 702.964286 362.364122 
L 709.758117 389.206212 
L 716.551948 400.238766 
L 736.933442 380.448419 
L 743.727273 374.875267 
L 750.521104 383.633059 
L 757.314935 361.454222 
L 764.108766 352.127739 
L 784.49026 332.906071 
L 791.284091 344.052355 
L 798.077922 352.241457 
L 804.871753 362.364122 
L 832.047078 377.604957 
L 838.840909 375.671427 
L 845.63474 366.799894 
L 852.428571 406.039367 
L 859.222403 427.763265 
L 879.603896 449.600893 
L 886.397727 421.848903 
L 893.191558 410.361399 
L 899.98539 370.439484 
L 906.779221 401.489876 
L 927.160714 392.618333 
L 933.954545 411.271299 
" clip-path="url(#p966503aacf)" style="fill: none; stroke: #8c564b; stroke-width: 1.5; stroke-linecap: round"/>
   </g>
   <g id="line2d_39">
    <path d="M 173.045455 445.928936 
L 179.839286 451.915864 
L 186.633117 435.245911 
L 193.426948 408.044464 
L 213.808442 402.144854 
L 220.602273 379.792553 
L 227.396104 364.439735 
L 234.189935 334.041879 
L 240.983766 303.624933 
L 268.159091 260.967514 
L 274.952922 237.29233 
L 281.746753 228.667444 
L 288.540584 235.171008 
L 308.922078 244.082143 
L 315.715909 246.117991 
L 322.50974 255.958702 
L 329.303571 251.619197 
L 336.097403 255.915098 
L 356.478896 240.66321 
L 363.272727 241.510134 
L 370.066558 246.955261 
L 376.86039 246.96665 
L 383.654221 229.591488 
L 404.035714 219.68396 
L 410.829545 237.379538 
L 417.623377 242.70253 
L 424.417208 232.910195 
L 431.211039 237.268575 
L 451.592532 263.875397 
L 458.386364 274.089023 
L 465.180195 268.126175 
L 471.974026 259.166121 
L 478.767857 261.203705 
L 505.943182 270.66201 
L 512.737013 274.547683 
L 519.530844 273.176042 
L 526.324675 271.158525 
L 546.706169 269.134175 
L 553.5 271.871869 
L 560.293831 276.94739 
L 567.087662 271.802992 
L 573.881494 275.889115 
L 594.262987 278.317349 
L 601.056818 281.391459 
L 607.850649 280.971523 
L 614.644481 271.602596 
L 621.438312 271.572821 
L 641.819805 284.663037 
L 648.613636 323.090123 
L 655.407468 347.119512 
L 662.201299 372.602273 
L 668.99513 379.278574 
L 689.376623 371.274942 
L 696.170455 372.393308 
L 702.964286 376.388155 
L 709.758117 378.767741 
L 716.551948 377.494861 
L 736.933442 384.973992 
L 743.727273 387.406185 
L 750.521104 390.81644 
L 757.314935 390.880166 
L 764.108766 387.885291 
L 784.49026 384.44076 
L 791.284091 385.819343 
L 798.077922 385.819343 
L 804.871753 385.786477 
L 832.047078 386.043548 
L 838.840909 390.104398 
L 845.63474 388.479537 
L 852.428571 413.601857 
L 859.222403 423.034292 
L 879.603896 437.727891 
L 886.397727 437.282356 
L 893.191558 431.372061 
L 899.98539 414.092352 
L 906.779221 417.559227 
L 927.160714 413.009021 
L 933.954545 423.413824 
" clip-path="url(#p966503aacf)" style="fill: none; stroke: #e377c2; stroke-width: 1.5; stroke-linecap: round"/>
   </g>
   <g id="line2d_40">
    <path d="M 173.045455 443.25367 
L 179.839286 443.38513 
L 186.633117 401.557197 
L 193.426948 374.797025 
L 213.808442 364.456165 
L 220.602273 342.16261 
L 227.396104 309.784749 
L 234.189935 298.388936 
L 240.983766 228.513975 
L 268.159091 207.671946 
L 274.952922 203.421106 
L 281.746753 221.968371 
L 288.540584 233.508817 
L 308.922078 236.60357 
L 315.715909 247.589155 
L 322.50974 258.111336 
L 329.303571 248.37234 
L 336.097403 230.940875 
L 356.478896 237.768526 
L 363.272727 263.775196 
L 370.066558 257.069138 
L 376.86039 226.536085 
L 383.654221 206.946171 
L 404.035714 207.073602 
L 410.829545 214.637636 
L 417.623377 215.786018 
L 424.417208 212.758543 
L 431.211039 227.715753 
L 451.592532 248.970429 
L 458.386364 239.961544 
L 465.180195 224.739874 
L 471.974026 225.144875 
L 478.767857 243.968888 
L 505.943182 248.096988 
L 512.737013 277.742962 
L 519.530844 289.398917 
L 526.324675 278.009779 
L 546.706169 287.137678 
L 553.5 285.300932 
L 560.293831 267.772335 
L 567.087662 263.181382 
L 573.881494 260.882408 
L 594.262987 249.538529 
L 601.056818 259.256571 
L 607.850649 251.650754 
L 614.644481 237.739862 
L 621.438312 268.288818 
L 641.819805 294.270222 
L 648.613636 324.0625 
L 655.407468 338.114964 
L 662.201299 375.945683 
L 668.99513 366.562917 
L 689.376623 368.261681 
L 696.170455 369.639001 
L 702.964286 352.203825 
L 709.758117 374.15202 
L 716.551948 391.514824 
L 736.933442 389.481272 
L 743.727273 378.969608 
L 750.521104 375.473132 
L 757.314935 354.52084 
L 764.108766 349.07772 
L 784.49026 338.653596 
L 791.284091 352.298233 
L 798.077922 366.287035 
L 804.871753 380.808713 
L 832.047078 374.687824 
L 838.840909 368.897579 
L 845.63474 358.956286 
L 852.428571 418.103478 
L 859.222403 427.50539 
L 879.603896 435.591348 
L 886.397727 421.221732 
L 893.191558 404.718863 
L 899.98539 387.456922 
L 906.779221 406.006316 
L 927.160714 407.210164 
L 933.954545 411.114485 
" clip-path="url(#p966503aacf)" style="fill: none; stroke: #7f7f7f; stroke-width: 1.5; stroke-linecap: round"/>
   </g>
   <g id="line2d_41">
    <path d="M 173.045455 422.327017 
L 179.839286 419.982348 
L 186.633117 396.746312 
L 193.426948 375.321579 
L 213.808442 361.012511 
L 220.602273 344.048613 
L 227.396104 321.818761 
L 234.189935 308.097381 
L 240.983766 263.562518 
L 268.159091 238.030833 
L 274.952922 226.434333 
L 281.746753 234.030578 
L 288.540584 248.484231 
L 308.922078 253.571609 
L 315.715909 259.718956 
L 322.50974 266.061342 
L 329.303571 262.419239 
L 336.097403 251.184173 
L 356.478896 250.500074 
L 363.272727 263.026062 
L 370.066558 264.635358 
L 376.86039 250.513616 
L 383.654221 233.633786 
L 404.035714 226.987259 
L 410.829545 227.456831 
L 417.623377 227.316997 
L 424.417208 227.102249 
L 431.211039 235.064333 
L 451.592532 248.86571 
L 458.386364 249.176652 
L 465.180195 241.256623 
L 471.974026 236.871569 
L 478.767857 245.771243 
L 505.943182 251.294417 
L 512.737013 271.276728 
L 519.530844 283.966662 
L 526.324675 280.846254 
L 546.706169 286.700138 
L 553.5 287.460961 
L 560.293831 278.453576 
L 567.087662 272.816495 
L 573.881494 267.979543 
L 594.262987 259.761276 
L 601.056818 262.490504 
L 607.850649 257.915065 
L 614.644481 249.656698 
L 621.438312 264.543271 
L 641.819805 283.083656 
L 648.613636 307.599317 
L 655.407468 323.486861 
L 662.201299 350.553377 
L 668.99513 355.753071 
L 689.376623 360.375172 
L 696.170455 362.597652 
L 702.964286 352.391901 
L 709.758117 361.929845 
L 716.551948 371.90181 
L 736.933442 374.059155 
L 743.727273 368.913148 
L 750.521104 364.909665 
L 757.314935 353.464629 
L 764.108766 345.085024 
L 784.49026 334.318316 
L 791.284091 338.270056 
L 798.077922 347.717552 
L 804.871753 359.318991 
L 832.047078 361.385196 
L 838.840909 357.916505 
L 845.63474 351.489281 
L 852.428571 383.10037 
L 859.222403 400.126162 
L 879.603896 411.243808 
L 886.397727 407.379654 
L 893.191558 399.323298 
L 899.98539 386.691744 
L 906.779221 389.100181 
L 927.160714 388.96697 
L 933.954545 391.073203 
" clip-path="url(#p966503aacf)" style="fill: none; stroke: #bcbd22; stroke-width: 1.5; stroke-linecap: round"/>
   </g>
   <g id="line2d_42">
    <path d="M 234.189935 382.20175 
L 240.983766 348.808261 
L 268.159091 319.388196 
L 274.952922 295.150222 
L 281.746753 274.325865 
L 288.540584 259.976762 
L 308.922078 248.520355 
L 315.715909 238.663807 
L 322.50974 246.75058 
L 329.303571 254.316053 
L 336.097403 258.292406 
L 356.478896 257.8434 
L 363.272727 257.394231 
L 370.066558 258.016407 
L 376.86039 254.94387 
L 383.654221 246.822604 
L 404.035714 239.525374 
L 410.829545 242.528546 
L 417.623377 238.736048 
L 424.417208 229.341251 
L 431.211039 224.060454 
L 451.592532 226.962642 
L 458.386364 233.047517 
L 465.180195 235.239885 
L 471.974026 235.249214 
L 478.767857 241.836082 
L 505.943182 248.353856 
L 512.737013 254.107142 
L 519.530844 257.120944 
L 526.324675 259.161457 
L 546.706169 268.219296 
L 553.5 276.275209 
L 560.293831 281.105048 
L 567.087662 287.58079 
L 573.881494 285.835909 
L 594.262987 280.492037 
L 601.056818 279.617563 
L 607.850649 273.705153 
L 614.644481 267.408275 
L 621.438312 268.660058 
L 641.819805 271.406322 
L 648.613636 278.26062 
L 655.407468 286.653166 
L 662.201299 300.868364 
L 668.99513 314.361541 
L 689.376623 336.060264 
L 696.170455 351.613803 
L 702.964286 363.458582 
L 709.758117 372.85289 
L 716.551948 380.846543 
L 736.933442 380.559101 
L 743.727273 384.732812 
L 750.521104 384.159935 
L 757.314935 382.89519 
L 764.108766 385.459064 
L 784.49026 378.498359 
L 791.284091 372.969765 
L 798.077922 368.725278 
L 804.871753 367.112674 
L 832.047078 363.542374 
L 838.840909 364.721103 
L 845.63474 368.40215 
L 852.428571 382.845946 
L 859.222403 391.457599 
L 879.603896 398.285267 
L 886.397727 400.985595 
L 893.191558 406.576124 
L 899.98539 412.676456 
L 906.779221 425.578641 
L 927.160714 423.072636 
L 933.954545 420.885799 
" clip-path="url(#p966503aacf)" style="fill: none; stroke: #17becf; stroke-width: 1.5; stroke-linecap: round"/>
   </g>
   <g id="line2d_43">
    <path d="M 234.189935 339.969637 
L 240.983766 294.058864 
L 268.159091 260.824553 
L 274.952922 236.994041 
L 281.746753 240.741633 
L 288.540584 254.957971 
L 308.922078 262.003987 
L 315.715909 266.833717 
L 322.50974 278.064563 
L 329.303571 275.143393 
L 336.097403 264.417469 
L 356.478896 262.973751 
L 363.272727 270.276567 
L 370.066558 275.642783 
L 376.86039 266.258833 
L 383.654221 246.504465 
L 404.035714 237.037211 
L 410.829545 236.750095 
L 417.623377 236.269579 
L 424.417208 235.474395 
L 431.211039 244.977226 
L 451.592532 259.36169 
L 458.386364 264.582721 
L 465.180195 253.679342 
L 471.974026 247.071431 
L 478.767857 258.656047 
L 505.943182 267.522113 
L 512.737013 284.0958 
L 519.530844 301.793494 
L 526.324675 298.293698 
L 546.706169 304.75176 
L 553.5 310.674528 
L 560.293831 301.523352 
L 567.087662 294.787611 
L 573.881494 290.869831 
L 594.262987 283.067517 
L 601.056818 282.149872 
L 607.850649 280.040374 
L 614.644481 269.831411 
L 621.438312 279.191064 
L 641.819805 302.650125 
L 648.613636 329.297351 
L 655.407468 348.48112 
L 662.201299 377.93584 
L 668.99513 389.849171 
L 689.376623 394.283804 
L 696.170455 396.429748 
L 702.964286 389.48477 
L 709.758117 398.991561 
L 716.551948 411.64839 
L 736.933442 418.699125 
L 743.727273 411.45396 
L 750.521104 405.160825 
L 757.314935 398.046582 
L 764.108766 386.77582 
L 784.49026 374.313095 
L 791.284091 377.114678 
L 798.077922 385.878838 
L 804.871753 396.332452 
L 832.047078 401.368977 
L 838.840909 397.434059 
L 845.63474 389.633101 
L 852.428571 422.381799 
L 859.222403 447.038408 
L 879.603896 454.960797 
L 886.397727 453.352315 
L 893.191558 446.893602 
L 899.98539 436.131287 
L 906.779221 435.851383 
L 927.160714 436.225492 
L 933.954545 435.995104 
" clip-path="url(#p966503aacf)" style="fill: none; stroke: #1f77b4; stroke-width: 1.5; stroke-linecap: round"/>
   </g>
   <g id="line2d_44">
    <path d="M 173.045455 442.435431 
L 179.839286 394.096912 
L 186.633117 371.349406 
L 193.426948 360.5443 
L 213.808442 336.090744 
L 220.602273 303.106832 
L 227.396104 294.576477 
L 234.189935 209.841947 
L 240.983766 199.036841 
L 268.159091 195.624742 
L 274.952922 220.647053 
L 281.746753 241.119755 
L 288.540584 237.707656 
L 308.922078 247.37536 
L 315.715909 255.905661 
L 322.50974 242.257157 
L 329.303571 222.353049 
L 336.097403 232.589454 
L 356.478896 259.317814 
L 363.272727 249.081464 
L 370.066558 217.803547 
L 376.86039 196.762144 
L 383.654221 199.036841 
L 404.035714 204.723745 
L 410.829545 202.449048 
L 417.623377 201.880347 
L 424.417208 219.509651 
L 431.211039 241.119755 
L 451.592532 228.039952 
L 458.386364 212.116644 
L 465.180195 211.548051 
L 471.974026 234.864258 
L 478.767857 236.570254 
L 505.943182 274.672422 
L 512.737013 282.065321 
L 519.530844 264.436017 
L 526.324675 282.065321 
L 546.706169 278.084521 
L 553.5 258.180466 
L 560.293831 255.33696 
L 567.087662 250.218758 
L 573.881494 236.570254 
L 594.262987 250.218758 
L 601.056818 236.570254 
L 607.850649 223.490451 
L 614.644481 263.867316 
L 621.438312 287.752225 
L 641.819805 322.442186 
L 648.613636 333.247292 
L 655.407468 378.742359 
L 662.201299 363.956453 
L 668.99513 371.918107 
L 689.376623 373.055455 
L 696.170455 349.739248 
L 702.964286 381.01711 
L 709.758117 391.822162 
L 716.551948 386.703959 
L 736.933442 374.192858 
L 743.727273 371.918107 
L 750.521104 350.876596 
L 757.314935 344.052344 
L 764.108766 328.129089 
L 784.49026 346.895796 
L 791.284091 361.681702 
L 798.077922 377.036255 
L 804.871753 370.212003 
L 832.047078 362.250403 
L 838.840909 352.582699 
L 845.63474 427.649525 
L 852.428571 430.492977 
L 859.222403 439.59198 
L 879.603896 421.962621 
L 886.397727 411.157569 
L 893.191558 391.822162 
L 899.98539 409.45152 
L 906.779221 404.902019 
L 927.160714 409.45152 
L 933.954545 436.748528 
" clip-path="url(#p966503aacf)" style="fill: none; stroke: #000000; stroke-width: 2; stroke-linecap: round"/>
   </g>
   <g id="patch_3">
    <path d="M 135 512.64 
L 135 69.12 
" style="fill: none; stroke: #cccccc; stroke-linejoin: miter; stroke-linecap: square"/>
   </g>
   <g id="patch_4">
    <path d="M 972 512.64 
L 972 69.12 
" style="fill: none; stroke: #cccccc; stroke-linejoin: miter; stroke-linecap: square"/>
   </g>
   <g id="patch_5">
    <path d="M 135 512.64 
L 972 512.64 
" style="fill: none; stroke: #cccccc; stroke-linejoin: miter; stroke-linecap: square"/>
   </g>
   <g id="patch_6">
    <path d="M 135 69.12 
L 972 69.12 
" style="fill: none; stroke: #cccccc; stroke-linejoin: miter; stroke-linecap: square"/>
   </g>
   <g id="text_19">
    <!-- Tahminler ve Gerek Deerler -->
    <g style="fill: #262626" transform="translate(473.811563 63.12) scale(0.12 -0.12)">
     <defs>
      <path id="ArialMT-54" d="M 1659 0 
L 1659 4041 
L 150 4041 
L 150 4581 
L 3781 4581 
L 3781 4041 
L 2266 4041 
L 2266 0 
L 1659 0 
z
" transform="scale(0.015625)"/>
      <path id="ArialMT-68" d="M 422 0 
L 422 4581 
L 984 4581 
L 984 2938 
Q 1378 3394 1978 3394 
Q 2347 3394 2619 3248 
Q 2891 3103 3008 2847 
Q 3125 2591 3125 2103 
L 3125 0 
L 2563 0 
L 2563 2103 
Q 2563 2525 2380 2717 
Q 2197 2909 1863 2909 
Q 1613 2909 1392 2779 
Q 1172 2650 1078 2428 
Q 984 2206 984 1816 
L 984 0 
L 422 0 
z
" transform="scale(0.015625)"/>
      <path id="ArialMT-6d" d="M 422 0 
L 422 3319 
L 925 3319 
L 925 2853 
Q 1081 3097 1340 3245 
Q 1600 3394 1931 3394 
Q 2300 3394 2536 3241 
Q 2772 3088 2869 2813 
Q 3263 3394 3894 3394 
Q 4388 3394 4653 3120 
Q 4919 2847 4919 2278 
L 4919 0 
L 4359 0 
L 4359 2091 
Q 4359 2428 4304 2576 
Q 4250 2725 4106 2815 
Q 3963 2906 3769 2906 
Q 3419 2906 3187 2673 
Q 2956 2441 2956 1928 
L 2956 0 
L 2394 0 
L 2394 2156 
Q 2394 2531 2256 2718 
Q 2119 2906 1806 2906 
Q 1569 2906 1367 2781 
Q 1166 2656 1075 2415 
Q 984 2175 984 1722 
L 984 0 
L 422 0 
z
" transform="scale(0.015625)"/>
      <path id="ArialMT-69" d="M 425 3934 
L 425 4581 
L 988 4581 
L 988 3934 
L 425 3934 
z
M 425 0 
L 425 3319 
L 988 3319 
L 988 0 
L 425 0 
z
" transform="scale(0.015625)"/>
      <path id="ArialMT-6e" d="M 422 0 
L 422 3319 
L 928 3319 
L 928 2847 
Q 1294 3394 1984 3394 
Q 2284 3394 2536 3286 
Q 2788 3178 2913 3003 
Q 3038 2828 3088 2588 
Q 3119 2431 3119 2041 
L 3119 0 
L 2556 0 
L 2556 2019 
Q 2556 2363 2490 2533 
Q 2425 2703 2258 2804 
Q 2091 2906 1866 2906 
Q 1506 2906 1245 2678 
Q 984 2450 984 1813 
L 984 0 
L 422 0 
z
" transform="scale(0.015625)"/>
      <path id="ArialMT-72" d="M 416 0 
L 416 3319 
L 922 3319 
L 922 2816 
Q 1116 3169 1280 3281 
Q 1444 3394 1641 3394 
Q 1925 3394 2219 3213 
L 2025 2691 
Q 1819 2813 1613 2813 
Q 1428 2813 1281 2702 
Q 1134 2591 1072 2394 
Q 978 2094 978 1738 
L 978 0 
L 416 0 
z
" transform="scale(0.015625)"/>
      <path id="ArialMT-76" d="M 1344 0 
L 81 3319 
L 675 3319 
L 1388 1331 
Q 1503 1009 1600 663 
Q 1675 925 1809 1294 
L 2547 3319 
L 3125 3319 
L 1869 0 
L 1344 0 
z
" transform="scale(0.015625)"/>
      <path id="ArialMT-47" d="M 2638 1797 
L 2638 2334 
L 4578 2338 
L 4578 638 
Q 4131 281 3656 101 
Q 3181 -78 2681 -78 
Q 2006 -78 1454 211 
Q 903 500 622 1047 
Q 341 1594 341 2269 
Q 341 2938 620 3517 
Q 900 4097 1425 4378 
Q 1950 4659 2634 4659 
Q 3131 4659 3532 4498 
Q 3934 4338 4162 4050 
Q 4391 3763 4509 3300 
L 3963 3150 
Q 3859 3500 3706 3700 
Q 3553 3900 3268 4020 
Q 2984 4141 2638 4141 
Q 2222 4141 1919 4014 
Q 1616 3888 1430 3681 
Q 1244 3475 1141 3228 
Q 966 2803 966 2306 
Q 966 1694 1177 1281 
Q 1388 869 1791 669 
Q 2194 469 2647 469 
Q 3041 469 3416 620 
Q 3791 772 3984 944 
L 3984 1797 
L 2638 1797 
z
" transform="scale(0.015625)"/>
      <path id="ArialMT-e7" d="M 2588 1216 
L 3141 1144 
Q 3050 572 2676 248 
Q 2303 -75 1759 -75 
Q 1078 -75 664 370 
Q 250 816 250 1647 
Q 250 2184 428 2587 
Q 606 2991 970 3192 
Q 1334 3394 1763 3394 
Q 2303 3394 2647 3120 
Q 2991 2847 3088 2344 
L 2541 2259 
Q 2463 2594 2264 2762 
Q 2066 2931 1784 2931 
Q 1359 2931 1093 2626 
Q 828 2322 828 1663 
Q 828 994 1084 691 
Q 1341 388 1753 388 
Q 2084 388 2306 591 
Q 2528 794 2588 1216 
z
M 1283 -417 
L 1446 136 
L 1864 136 
L 1761 -199 
Q 2027 -230 2161 -362 
Q 2296 -495 2296 -658 
Q 2296 -892 2071 -1072 
Q 1846 -1252 1392 -1252 
Q 1136 -1252 942 -1214 
L 977 -849 
Q 1177 -861 1271 -861 
Q 1564 -861 1683 -780 
Q 1774 -717 1774 -627 
Q 1774 -570 1738 -526 
Q 1702 -483 1605 -451 
Q 1508 -420 1283 -417 
z
" transform="scale(0.015625)"/>
      <path id="ArialMT-6b" d="M 425 0 
L 425 4581 
L 988 4581 
L 988 1969 
L 2319 3319 
L 3047 3319 
L 1778 2088 
L 3175 0 
L 2481 0 
L 1384 1697 
L 988 1316 
L 988 0 
L 425 0 
z
" transform="scale(0.015625)"/>
      <path id="ArialMT-11f" d="M 319 -275 
L 866 -356 
Q 900 -609 1056 -725 
Q 1266 -881 1628 -881 
Q 2019 -881 2231 -725 
Q 2444 -569 2519 -288 
Q 2563 -116 2559 434 
Q 2191 0 1641 0 
Q 956 0 581 494 
Q 206 988 206 1678 
Q 206 2153 378 2554 
Q 550 2956 876 3175 
Q 1203 3394 1644 3394 
Q 2231 3394 2613 2919 
L 2613 3319 
L 3131 3319 
L 3131 450 
Q 3131 -325 2973 -648 
Q 2816 -972 2473 -1159 
Q 2131 -1347 1631 -1347 
Q 1038 -1347 672 -1080 
Q 306 -813 319 -275 
z
M 784 1719 
Q 784 1066 1043 766 
Q 1303 466 1694 466 
Q 2081 466 2343 764 
Q 2606 1063 2606 1700 
Q 2606 2309 2336 2618 
Q 2066 2928 1684 2928 
Q 1309 2928 1046 2623 
Q 784 2319 784 1719 
z
M 2318 4575 
L 2703 4575 
Q 2656 4184 2417 3975 
Q 2178 3766 1781 3766 
Q 1381 3766 1142 3973 
Q 903 4181 856 4575 
L 1240 4575 
Q 1284 4363 1413 4258 
Q 1543 4153 1762 4153 
Q 2015 4153 2145 4254 
Q 2275 4356 2318 4575 
z
" transform="scale(0.015625)"/>
     </defs>
     <use xlink:href="#ArialMT-54"/>
     <use xlink:href="#ArialMT-61" x="49.958984"/>
     <use xlink:href="#ArialMT-68" x="105.574219"/>
     <use xlink:href="#ArialMT-6d" x="161.189453"/>
     <use xlink:href="#ArialMT-69" x="244.490234"/>
     <use xlink:href="#ArialMT-6e" x="266.707031"/>
     <use xlink:href="#ArialMT-6c" x="322.322266"/>
     <use xlink:href="#ArialMT-65" x="344.539062"/>
     <use xlink:href="#ArialMT-72" x="400.154297"/>
     <use xlink:href="#ArialMT-20" x="433.455078"/>
     <use xlink:href="#ArialMT-76" x="461.238281"/>
     <use xlink:href="#ArialMT-65" x="511.238281"/>
     <use xlink:href="#ArialMT-20" x="566.853516"/>
     <use xlink:href="#ArialMT-47" x="594.636719"/>
     <use xlink:href="#ArialMT-65" x="672.419922"/>
     <use xlink:href="#ArialMT-72" x="728.035156"/>
     <use xlink:href="#ArialMT-e7" x="761.335938"/>
     <use xlink:href="#ArialMT-65" x="811.335938"/>
     <use xlink:href="#ArialMT-6b" x="866.951172"/>
     <use xlink:href="#ArialMT-20" x="916.951172"/>
     <use xlink:href="#ArialMT-44" x="944.734375"/>
     <use xlink:href="#ArialMT-65" x="1016.951172"/>
     <use xlink:href="#ArialMT-11f" x="1072.566406"/>
     <use xlink:href="#ArialMT-65" x="1128.181641"/>
     <use xlink:href="#ArialMT-72" x="1183.796875"/>
     <use xlink:href="#ArialMT-6c" x="1217.097656"/>
     <use xlink:href="#ArialMT-65" x="1239.314453"/>
     <use xlink:href="#ArialMT-72" x="1294.929688"/>
    </g>
   </g>
   <g id="legend_1">
    <g id="line2d_45">
     <path d="M 841.63125 81.777813 
L 851.63125 81.777813 
L 861.63125 81.777813 
" style="fill: none; stroke: #1f77b4; stroke-width: 1.5; stroke-linecap: round"/>
    </g>
    <g id="text_20">
     <!-- Random Forest -->
     <g style="fill: #262626" transform="translate(869.63125 85.277813) scale(0.1 -0.1)">
      <defs>
       <path id="ArialMT-52" d="M 503 0 
L 503 4581 
L 2534 4581 
Q 3147 4581 3465 4457 
Q 3784 4334 3975 4021 
Q 4166 3709 4166 3331 
Q 4166 2844 3850 2509 
Q 3534 2175 2875 2084 
Q 3116 1969 3241 1856 
Q 3506 1613 3744 1247 
L 4541 0 
L 3778 0 
L 3172 953 
Q 2906 1366 2734 1584 
Q 2563 1803 2427 1890 
Q 2291 1978 2150 2013 
Q 2047 2034 1813 2034 
L 1109 2034 
L 1109 0 
L 503 0 
z
M 1109 2559 
L 2413 2559 
Q 2828 2559 3062 2645 
Q 3297 2731 3419 2920 
Q 3541 3109 3541 3331 
Q 3541 3656 3305 3865 
Q 3069 4075 2559 4075 
L 1109 4075 
L 1109 2559 
z
" transform="scale(0.015625)"/>
       <path id="ArialMT-46" d="M 525 0 
L 525 4581 
L 3616 4581 
L 3616 4041 
L 1131 4041 
L 1131 2622 
L 3281 2622 
L 3281 2081 
L 1131 2081 
L 1131 0 
L 525 0 
z
" transform="scale(0.015625)"/>
      </defs>
      <use xlink:href="#ArialMT-52"/>
      <use xlink:href="#ArialMT-61" x="72.216797"/>
      <use xlink:href="#ArialMT-6e" x="127.832031"/>
      <use xlink:href="#ArialMT-64" x="183.447266"/>
      <use xlink:href="#ArialMT-6f" x="239.0625"/>
      <use xlink:href="#ArialMT-6d" x="294.677734"/>
      <use xlink:href="#ArialMT-20" x="377.978516"/>
      <use xlink:href="#ArialMT-46" x="405.761719"/>
      <use xlink:href="#ArialMT-6f" x="466.845703"/>
      <use xlink:href="#ArialMT-72" x="522.460938"/>
      <use xlink:href="#ArialMT-65" x="555.761719"/>
      <use xlink:href="#ArialMT-73" x="611.376953"/>
      <use xlink:href="#ArialMT-74" x="661.376953"/>
     </g>
    </g>
    <g id="line2d_46">
     <path d="M 841.63125 96.045 
L 851.63125 96.045 
L 861.63125 96.045 
" style="fill: none; stroke: #ff7f0e; stroke-width: 1.5; stroke-linecap: round"/>
    </g>
    <g id="text_21">
     <!-- Gradient Boosting -->
     <g style="fill: #262626" transform="translate(869.63125 99.545) scale(0.1 -0.1)">
      <defs>
       <path id="ArialMT-42" d="M 469 0 
L 469 4581 
L 2188 4581 
Q 2713 4581 3030 4442 
Q 3347 4303 3526 4014 
Q 3706 3725 3706 3409 
Q 3706 3116 3547 2856 
Q 3388 2597 3066 2438 
Q 3481 2316 3704 2022 
Q 3928 1728 3928 1328 
Q 3928 1006 3792 729 
Q 3656 453 3456 303 
Q 3256 153 2954 76 
Q 2653 0 2216 0 
L 469 0 
z
M 1075 2656 
L 2066 2656 
Q 2469 2656 2644 2709 
Q 2875 2778 2992 2937 
Q 3109 3097 3109 3338 
Q 3109 3566 3000 3739 
Q 2891 3913 2687 3977 
Q 2484 4041 1991 4041 
L 1075 4041 
L 1075 2656 
z
M 1075 541 
L 2216 541 
Q 2509 541 2628 563 
Q 2838 600 2978 687 
Q 3119 775 3209 942 
Q 3300 1109 3300 1328 
Q 3300 1584 3169 1773 
Q 3038 1963 2805 2039 
Q 2572 2116 2134 2116 
L 1075 2116 
L 1075 541 
z
" transform="scale(0.015625)"/>
       <path id="ArialMT-67" d="M 319 -275 
L 866 -356 
Q 900 -609 1056 -725 
Q 1266 -881 1628 -881 
Q 2019 -881 2231 -725 
Q 2444 -569 2519 -288 
Q 2563 -116 2559 434 
Q 2191 0 1641 0 
Q 956 0 581 494 
Q 206 988 206 1678 
Q 206 2153 378 2554 
Q 550 2956 876 3175 
Q 1203 3394 1644 3394 
Q 2231 3394 2613 2919 
L 2613 3319 
L 3131 3319 
L 3131 450 
Q 3131 -325 2973 -648 
Q 2816 -972 2473 -1159 
Q 2131 -1347 1631 -1347 
Q 1038 -1347 672 -1080 
Q 306 -813 319 -275 
z
M 784 1719 
Q 784 1066 1043 766 
Q 1303 466 1694 466 
Q 2081 466 2343 764 
Q 2606 1063 2606 1700 
Q 2606 2309 2336 2618 
Q 2066 2928 1684 2928 
Q 1309 2928 1046 2623 
Q 784 2319 784 1719 
z
" transform="scale(0.015625)"/>
      </defs>
      <use xlink:href="#ArialMT-47"/>
      <use xlink:href="#ArialMT-72" x="77.783203"/>
      <use xlink:href="#ArialMT-61" x="111.083984"/>
      <use xlink:href="#ArialMT-64" x="166.699219"/>
      <use xlink:href="#ArialMT-69" x="222.314453"/>
      <use xlink:href="#ArialMT-65" x="244.53125"/>
      <use xlink:href="#ArialMT-6e" x="300.146484"/>
      <use xlink:href="#ArialMT-74" x="355.761719"/>
      <use xlink:href="#ArialMT-20" x="383.544922"/>
      <use xlink:href="#ArialMT-42" x="411.328125"/>
      <use xlink:href="#ArialMT-6f" x="478.027344"/>
      <use xlink:href="#ArialMT-6f" x="533.642578"/>
      <use xlink:href="#ArialMT-73" x="589.257812"/>
      <use xlink:href="#ArialMT-74" x="639.257812"/>
      <use xlink:href="#ArialMT-69" x="667.041016"/>
      <use xlink:href="#ArialMT-6e" x="689.257812"/>
      <use xlink:href="#ArialMT-67" x="744.873047"/>
     </g>
    </g>
    <g id="line2d_47">
     <path d="M 841.63125 110.3075 
L 851.63125 110.3075 
L 861.63125 110.3075 
" style="fill: none; stroke: #2ca02c; stroke-width: 1.5; stroke-linecap: round"/>
    </g>
    <g id="text_22">
     <!-- Linear Regression -->
     <g style="fill: #262626" transform="translate(869.63125 113.8075) scale(0.1 -0.1)">
      <defs>
       <path id="ArialMT-4c" d="M 469 0 
L 469 4581 
L 1075 4581 
L 1075 541 
L 3331 541 
L 3331 0 
L 469 0 
z
" transform="scale(0.015625)"/>
      </defs>
      <use xlink:href="#ArialMT-4c"/>
      <use xlink:href="#ArialMT-69" x="55.615234"/>
      <use xlink:href="#ArialMT-6e" x="77.832031"/>
      <use xlink:href="#ArialMT-65" x="133.447266"/>
      <use xlink:href="#ArialMT-61" x="189.0625"/>
      <use xlink:href="#ArialMT-72" x="244.677734"/>
      <use xlink:href="#ArialMT-20" x="277.978516"/>
      <use xlink:href="#ArialMT-52" x="305.761719"/>
      <use xlink:href="#ArialMT-65" x="377.978516"/>
      <use xlink:href="#ArialMT-67" x="433.59375"/>
      <use xlink:href="#ArialMT-72" x="489.208984"/>
      <use xlink:href="#ArialMT-65" x="522.509766"/>
      <use xlink:href="#ArialMT-73" x="578.125"/>
      <use xlink:href="#ArialMT-73" x="628.125"/>
      <use xlink:href="#ArialMT-69" x="678.125"/>
      <use xlink:href="#ArialMT-6f" x="700.341797"/>
      <use xlink:href="#ArialMT-6e" x="755.957031"/>
     </g>
    </g>
    <g id="line2d_48">
     <path d="M 841.63125 124.57 
L 851.63125 124.57 
L 861.63125 124.57 
" style="fill: none; stroke: #d62728; stroke-width: 1.5; stroke-linecap: round"/>
    </g>
    <g id="text_23">
     <!-- Decision Tree -->
     <g style="fill: #262626" transform="translate(869.63125 128.07) scale(0.1 -0.1)">
      <defs>
       <path id="ArialMT-63" d="M 2588 1216 
L 3141 1144 
Q 3050 572 2676 248 
Q 2303 -75 1759 -75 
Q 1078 -75 664 370 
Q 250 816 250 1647 
Q 250 2184 428 2587 
Q 606 2991 970 3192 
Q 1334 3394 1763 3394 
Q 2303 3394 2647 3120 
Q 2991 2847 3088 2344 
L 2541 2259 
Q 2463 2594 2264 2762 
Q 2066 2931 1784 2931 
Q 1359 2931 1093 2626 
Q 828 2322 828 1663 
Q 828 994 1084 691 
Q 1341 388 1753 388 
Q 2084 388 2306 591 
Q 2528 794 2588 1216 
z
" transform="scale(0.015625)"/>
      </defs>
      <use xlink:href="#ArialMT-44"/>
      <use xlink:href="#ArialMT-65" x="72.216797"/>
      <use xlink:href="#ArialMT-63" x="127.832031"/>
      <use xlink:href="#ArialMT-69" x="177.832031"/>
      <use xlink:href="#ArialMT-73" x="200.048828"/>
      <use xlink:href="#ArialMT-69" x="250.048828"/>
      <use xlink:href="#ArialMT-6f" x="272.265625"/>
      <use xlink:href="#ArialMT-6e" x="327.880859"/>
      <use xlink:href="#ArialMT-20" x="383.496094"/>
      <use xlink:href="#ArialMT-54" x="409.529297"/>
      <use xlink:href="#ArialMT-72" x="466.863281"/>
      <use xlink:href="#ArialMT-65" x="500.164062"/>
      <use xlink:href="#ArialMT-65" x="555.779297"/>
     </g>
    </g>
    <g id="line2d_49">
     <path d="M 841.63125 138.715313 
L 851.63125 138.715313 
L 861.63125 138.715313 
" style="fill: none; stroke: #9467bd; stroke-width: 1.5; stroke-linecap: round"/>
    </g>
    <g id="text_24">
     <!-- SVR -->
     <g style="fill: #262626" transform="translate(869.63125 142.215313) scale(0.1 -0.1)">
      <defs>
       <path id="ArialMT-53" d="M 288 1472 
L 859 1522 
Q 900 1178 1048 958 
Q 1197 738 1509 602 
Q 1822 466 2213 466 
Q 2559 466 2825 569 
Q 3091 672 3220 851 
Q 3350 1031 3350 1244 
Q 3350 1459 3225 1620 
Q 3100 1781 2813 1891 
Q 2628 1963 1997 2114 
Q 1366 2266 1113 2400 
Q 784 2572 623 2826 
Q 463 3081 463 3397 
Q 463 3744 659 4045 
Q 856 4347 1234 4503 
Q 1613 4659 2075 4659 
Q 2584 4659 2973 4495 
Q 3363 4331 3572 4012 
Q 3781 3694 3797 3291 
L 3216 3247 
Q 3169 3681 2898 3903 
Q 2628 4125 2100 4125 
Q 1550 4125 1298 3923 
Q 1047 3722 1047 3438 
Q 1047 3191 1225 3031 
Q 1400 2872 2139 2705 
Q 2878 2538 3153 2413 
Q 3553 2228 3743 1945 
Q 3934 1663 3934 1294 
Q 3934 928 3725 604 
Q 3516 281 3123 101 
Q 2731 -78 2241 -78 
Q 1619 -78 1198 103 
Q 778 284 539 648 
Q 300 1013 288 1472 
z
" transform="scale(0.015625)"/>
       <path id="ArialMT-56" d="M 1803 0 
L 28 4581 
L 684 4581 
L 1875 1253 
Q 2019 853 2116 503 
Q 2222 878 2363 1253 
L 3600 4581 
L 4219 4581 
L 2425 0 
L 1803 0 
z
" transform="scale(0.015625)"/>
      </defs>
      <use xlink:href="#ArialMT-53"/>
      <use xlink:href="#ArialMT-56" x="66.699219"/>
      <use xlink:href="#ArialMT-52" x="133.398438"/>
     </g>
    </g>
    <g id="line2d_50">
     <path d="M 841.63125 152.860625 
L 851.63125 152.860625 
L 861.63125 152.860625 
" style="fill: none; stroke: #8c564b; stroke-width: 1.5; stroke-linecap: round"/>
    </g>
    <g id="text_25">
     <!-- K-Nearest Neighbors -->
     <g style="fill: #262626" transform="translate(869.63125 156.360625) scale(0.1 -0.1)">
      <defs>
       <path id="ArialMT-4b" d="M 469 0 
L 469 4581 
L 1075 4581 
L 1075 2309 
L 3350 4581 
L 4172 4581 
L 2250 2725 
L 4256 0 
L 3456 0 
L 1825 2319 
L 1075 1588 
L 1075 0 
L 469 0 
z
" transform="scale(0.015625)"/>
       <path id="ArialMT-4e" d="M 488 0 
L 488 4581 
L 1109 4581 
L 3516 984 
L 3516 4581 
L 4097 4581 
L 4097 0 
L 3475 0 
L 1069 3600 
L 1069 0 
L 488 0 
z
" transform="scale(0.015625)"/>
       <path id="ArialMT-62" d="M 941 0 
L 419 0 
L 419 4581 
L 981 4581 
L 981 2947 
Q 1338 3394 1891 3394 
Q 2197 3394 2470 3270 
Q 2744 3147 2920 2923 
Q 3097 2700 3197 2384 
Q 3297 2069 3297 1709 
Q 3297 856 2875 390 
Q 2453 -75 1863 -75 
Q 1275 -75 941 416 
L 941 0 
z
M 934 1684 
Q 934 1088 1097 822 
Q 1363 388 1816 388 
Q 2184 388 2453 708 
Q 2722 1028 2722 1663 
Q 2722 2313 2464 2622 
Q 2206 2931 1841 2931 
Q 1472 2931 1203 2611 
Q 934 2291 934 1684 
z
" transform="scale(0.015625)"/>
      </defs>
      <use xlink:href="#ArialMT-4b"/>
      <use xlink:href="#ArialMT-2d" x="66.699219"/>
      <use xlink:href="#ArialMT-4e" x="100"/>
      <use xlink:href="#ArialMT-65" x="172.216797"/>
      <use xlink:href="#ArialMT-61" x="227.832031"/>
      <use xlink:href="#ArialMT-72" x="283.447266"/>
      <use xlink:href="#ArialMT-65" x="316.748047"/>
      <use xlink:href="#ArialMT-73" x="372.363281"/>
      <use xlink:href="#ArialMT-74" x="422.363281"/>
      <use xlink:href="#ArialMT-20" x="450.146484"/>
      <use xlink:href="#ArialMT-4e" x="477.929688"/>
      <use xlink:href="#ArialMT-65" x="550.146484"/>
      <use xlink:href="#ArialMT-69" x="605.761719"/>
      <use xlink:href="#ArialMT-67" x="627.978516"/>
      <use xlink:href="#ArialMT-68" x="683.59375"/>
      <use xlink:href="#ArialMT-62" x="739.208984"/>
      <use xlink:href="#ArialMT-6f" x="794.824219"/>
      <use xlink:href="#ArialMT-72" x="850.439453"/>
      <use xlink:href="#ArialMT-73" x="883.740234"/>
     </g>
    </g>
    <g id="line2d_51">
     <path d="M 841.63125 167.123125 
L 851.63125 167.123125 
L 861.63125 167.123125 
" style="fill: none; stroke: #e377c2; stroke-width: 1.5; stroke-linecap: round"/>
    </g>
    <g id="text_26">
     <!-- XGBoost -->
     <g style="fill: #262626" transform="translate(869.63125 170.623125) scale(0.1 -0.1)">
      <defs>
       <path id="ArialMT-58" d="M 28 0 
L 1800 2388 
L 238 4581 
L 959 4581 
L 1791 3406 
Q 2050 3041 2159 2844 
Q 2313 3094 2522 3366 
L 3444 4581 
L 4103 4581 
L 2494 2422 
L 4228 0 
L 3478 0 
L 2325 1634 
Q 2228 1775 2125 1941 
Q 1972 1691 1906 1597 
L 756 0 
L 28 0 
z
" transform="scale(0.015625)"/>
      </defs>
      <use xlink:href="#ArialMT-58"/>
      <use xlink:href="#ArialMT-47" x="66.699219"/>
      <use xlink:href="#ArialMT-42" x="144.482422"/>
      <use xlink:href="#ArialMT-6f" x="211.181641"/>
      <use xlink:href="#ArialMT-6f" x="266.796875"/>
      <use xlink:href="#ArialMT-73" x="322.412109"/>
      <use xlink:href="#ArialMT-74" x="372.412109"/>
     </g>
    </g>
    <g id="line2d_52">
     <path d="M 841.63125 181.268438 
L 851.63125 181.268438 
L 861.63125 181.268438 
" style="fill: none; stroke: #7f7f7f; stroke-width: 1.5; stroke-linecap: round"/>
    </g>
    <g id="text_27">
     <!-- Ridge Regression -->
     <g style="fill: #262626" transform="translate(869.63125 184.768438) scale(0.1 -0.1)">
      <use xlink:href="#ArialMT-52"/>
      <use xlink:href="#ArialMT-69" x="72.216797"/>
      <use xlink:href="#ArialMT-64" x="94.433594"/>
      <use xlink:href="#ArialMT-67" x="150.048828"/>
      <use xlink:href="#ArialMT-65" x="205.664062"/>
      <use xlink:href="#ArialMT-20" x="261.279297"/>
      <use xlink:href="#ArialMT-52" x="289.0625"/>
      <use xlink:href="#ArialMT-65" x="361.279297"/>
      <use xlink:href="#ArialMT-67" x="416.894531"/>
      <use xlink:href="#ArialMT-72" x="472.509766"/>
      <use xlink:href="#ArialMT-65" x="505.810547"/>
      <use xlink:href="#ArialMT-73" x="561.425781"/>
      <use xlink:href="#ArialMT-73" x="611.425781"/>
      <use xlink:href="#ArialMT-69" x="661.425781"/>
      <use xlink:href="#ArialMT-6f" x="683.642578"/>
      <use xlink:href="#ArialMT-6e" x="739.257812"/>
     </g>
    </g>
    <g id="line2d_53">
     <path d="M 841.63125 195.530938 
L 851.63125 195.530938 
L 861.63125 195.530938 
" style="fill: none; stroke: #bcbd22; stroke-width: 1.5; stroke-linecap: round"/>
    </g>
    <g id="text_28">
     <!-- ElasticNet -->
     <g style="fill: #262626" transform="translate(869.63125 199.030938) scale(0.1 -0.1)">
      <defs>
       <path id="ArialMT-45" d="M 506 0 
L 506 4581 
L 3819 4581 
L 3819 4041 
L 1113 4041 
L 1113 2638 
L 3647 2638 
L 3647 2100 
L 1113 2100 
L 1113 541 
L 3925 541 
L 3925 0 
L 506 0 
z
" transform="scale(0.015625)"/>
      </defs>
      <use xlink:href="#ArialMT-45"/>
      <use xlink:href="#ArialMT-6c" x="66.699219"/>
      <use xlink:href="#ArialMT-61" x="88.916016"/>
      <use xlink:href="#ArialMT-73" x="144.53125"/>
      <use xlink:href="#ArialMT-74" x="194.53125"/>
      <use xlink:href="#ArialMT-69" x="222.314453"/>
      <use xlink:href="#ArialMT-63" x="244.53125"/>
      <use xlink:href="#ArialMT-4e" x="294.53125"/>
      <use xlink:href="#ArialMT-65" x="366.748047"/>
      <use xlink:href="#ArialMT-74" x="422.363281"/>
     </g>
    </g>
    <g id="line2d_54">
     <path d="M 841.63125 209.67625 
L 851.63125 209.67625 
L 861.63125 209.67625 
" style="fill: none; stroke: #17becf; stroke-width: 1.5; stroke-linecap: round"/>
    </g>
    <g id="text_29">
     <!-- LSTM -->
     <g style="fill: #262626" transform="translate(869.63125 213.17625) scale(0.1 -0.1)">
      <defs>
       <path id="ArialMT-4d" d="M 475 0 
L 475 4581 
L 1388 4581 
L 2472 1338 
Q 2622 884 2691 659 
Q 2769 909 2934 1394 
L 4031 4581 
L 4847 4581 
L 4847 0 
L 4263 0 
L 4263 3834 
L 2931 0 
L 2384 0 
L 1059 3900 
L 1059 0 
L 475 0 
z
" transform="scale(0.015625)"/>
      </defs>
      <use xlink:href="#ArialMT-4c"/>
      <use xlink:href="#ArialMT-53" x="55.615234"/>
      <use xlink:href="#ArialMT-54" x="122.314453"/>
      <use xlink:href="#ArialMT-4d" x="183.398438"/>
     </g>
    </g>
    <g id="line2d_55">
     <path d="M 841.63125 223.821563 
L 851.63125 223.821563 
L 861.63125 223.821563 
" style="fill: none; stroke: #1f77b4; stroke-width: 1.5; stroke-linecap: round"/>
    </g>
    <g id="text_30">
     <!-- RNN -->
     <g style="fill: #262626" transform="translate(869.63125 227.321563) scale(0.1 -0.1)">
      <use xlink:href="#ArialMT-52"/>
      <use xlink:href="#ArialMT-4e" x="72.216797"/>
      <use xlink:href="#ArialMT-4e" x="144.433594"/>
     </g>
    </g>
    <g id="line2d_56">
     <path d="M 841.63125 238.08875 
L 851.63125 238.08875 
L 861.63125 238.08875 
" style="fill: none; stroke: #000000; stroke-width: 2; stroke-linecap: round"/>
    </g>
    <g id="text_31">
     <!-- Gerek Deerler -->
     <g style="fill: #262626" transform="translate(869.63125 241.58875) scale(0.1 -0.1)">
      <use xlink:href="#ArialMT-47"/>
      <use xlink:href="#ArialMT-65" x="77.783203"/>
      <use xlink:href="#ArialMT-72" x="133.398438"/>
      <use xlink:href="#ArialMT-e7" x="166.699219"/>
      <use xlink:href="#ArialMT-65" x="216.699219"/>
      <use xlink:href="#ArialMT-6b" x="272.314453"/>
      <use xlink:href="#ArialMT-20" x="322.314453"/>
      <use xlink:href="#ArialMT-44" x="350.097656"/>
      <use xlink:href="#ArialMT-65" x="422.314453"/>
      <use xlink:href="#ArialMT-11f" x="477.929688"/>
      <use xlink:href="#ArialMT-65" x="533.544922"/>
      <use xlink:href="#ArialMT-72" x="589.160156"/>
      <use xlink:href="#ArialMT-6c" x="622.460938"/>
      <use xlink:href="#ArialMT-65" x="644.677734"/>
      <use xlink:href="#ArialMT-72" x="700.292969"/>
     </g>
    </g>
   </g>
  </g>
 </g>
 <defs>
  <clipPath id="p966503aacf">
   <rect x="135" y="69.12" width="837" height="443.52"/>
  </clipPath>
 </defs>
</svg>
