<?xml version="1.0" encoding="utf-8" standalone="no"?>
<!DOCTYPE svg PUBLIC "-//W3C//DTD SVG 1.1//EN"
  "http://www.w3.org/Graphics/SVG/1.1/DTD/svg11.dtd">
<svg xmlns:xlink="http://www.w3.org/1999/xlink" width="1080pt" height="576pt" viewBox="0 0 1080 576" xmlns="http://www.w3.org/2000/svg" version="1.1">
 <metadata>
  <rdf:RDF xmlns:dc="http://purl.org/dc/elements/1.1/" xmlns:cc="http://creativecommons.org/ns#" xmlns:rdf="http://www.w3.org/1999/02/22-rdf-syntax-ns#">
   <cc:Work>
    <dc:type rdf:resource="http://purl.org/dc/dcmitype/StillImage"/>
    <dc:date>2023-05-23T01:33:08.273311</dc:date>
    <dc:format>image/svg+xml</dc:format>
    <dc:creator>
     <cc:Agent>
      <dc:title>Matplotlib v3.7.1, https://matplotlib.org/</dc:title>
     </cc:Agent>
    </dc:creator>
   </cc:Work>
  </rdf:RDF>
 </metadata>
 <defs>
  <style type="text/css">*{stroke-linejoin: round; stroke-linecap: butt}</style>
 </defs>
 <g id="figure_1">
  <g id="patch_1">
   <path d="M 0 576 
L 1080 576 
L 1080 0 
L 0 0 
z
" style="fill: #ffffff"/>
  </g>
  <g id="axes_1">
   <g id="patch_2">
    <path d="M 135 512.64 
L 972 512.64 
L 972 69.12 
L 135 69.12 
z
" style="fill: #ffffff"/>
   </g>
   <g id="matplotlib.axis_1">
    <g id="xtick_1">
     <g id="line2d_1">
      <path d="M 159.457792 512.64 
L 159.457792 69.12 
" clip-path="url(#p161c1f1775)" style="fill: none; stroke: #cccccc; stroke-width: 0.8; stroke-linecap: round"/>
     </g>
     <g id="line2d_2"/>
     <g id="text_1">
      <!-- 2023-01-01 -->
      <g style="fill: #262626" transform="translate(133.884355 523.297812) scale(0.1 -0.1)">
       <defs>
        <path id="ArialMT-32" d="M 3222 541 
L 3222 0 
L 194 0 
Q 188 203 259 391 
Q 375 700 629 1000 
Q 884 1300 1366 1694 
Q 2113 2306 2375 2664 
Q 2638 3022 2638 3341 
Q 2638 3675 2398 3904 
Q 2159 4134 1775 4134 
Q 1369 4134 1125 3890 
Q 881 3647 878 3216 
L 300 3275 
Q 359 3922 746 4261 
Q 1134 4600 1788 4600 
Q 2447 4600 2831 4234 
Q 3216 3869 3216 3328 
Q 3216 3053 3103 2787 
Q 2991 2522 2730 2228 
Q 2469 1934 1863 1422 
Q 1356 997 1212 845 
Q 1069 694 975 541 
L 3222 541 
z
" transform="scale(0.015625)"/>
        <path id="ArialMT-30" d="M 266 2259 
Q 266 3072 433 3567 
Q 600 4063 929 4331 
Q 1259 4600 1759 4600 
Q 2128 4600 2406 4451 
Q 2684 4303 2865 4023 
Q 3047 3744 3150 3342 
Q 3253 2941 3253 2259 
Q 3253 1453 3087 958 
Q 2922 463 2592 192 
Q 2263 -78 1759 -78 
Q 1097 -78 719 397 
Q 266 969 266 2259 
z
M 844 2259 
Q 844 1131 1108 757 
Q 1372 384 1759 384 
Q 2147 384 2411 759 
Q 2675 1134 2675 2259 
Q 2675 3391 2411 3762 
Q 2147 4134 1753 4134 
Q 1366 4134 1134 3806 
Q 844 3388 844 2259 
z
" transform="scale(0.015625)"/>
        <path id="ArialMT-33" d="M 269 1209 
L 831 1284 
Q 928 806 1161 595 
Q 1394 384 1728 384 
Q 2125 384 2398 659 
Q 2672 934 2672 1341 
Q 2672 1728 2419 1979 
Q 2166 2231 1775 2231 
Q 1616 2231 1378 2169 
L 1441 2663 
Q 1497 2656 1531 2656 
Q 1891 2656 2178 2843 
Q 2466 3031 2466 3422 
Q 2466 3731 2256 3934 
Q 2047 4138 1716 4138 
Q 1388 4138 1169 3931 
Q 950 3725 888 3313 
L 325 3413 
Q 428 3978 793 4289 
Q 1159 4600 1703 4600 
Q 2078 4600 2393 4439 
Q 2709 4278 2876 4000 
Q 3044 3722 3044 3409 
Q 3044 3113 2884 2869 
Q 2725 2625 2413 2481 
Q 2819 2388 3044 2092 
Q 3269 1797 3269 1353 
Q 3269 753 2831 336 
Q 2394 -81 1725 -81 
Q 1122 -81 723 278 
Q 325 638 269 1209 
z
" transform="scale(0.015625)"/>
        <path id="ArialMT-2d" d="M 203 1375 
L 203 1941 
L 1931 1941 
L 1931 1375 
L 203 1375 
z
" transform="scale(0.015625)"/>
        <path id="ArialMT-31" d="M 2384 0 
L 1822 0 
L 1822 3584 
Q 1619 3391 1289 3197 
Q 959 3003 697 2906 
L 697 3450 
Q 1169 3672 1522 3987 
Q 1875 4303 2022 4600 
L 2384 4600 
L 2384 0 
z
" transform="scale(0.015625)"/>
       </defs>
       <use xlink:href="#ArialMT-32"/>
       <use xlink:href="#ArialMT-30" x="55.615234"/>
       <use xlink:href="#ArialMT-32" x="111.230469"/>
       <use xlink:href="#ArialMT-33" x="166.845703"/>
       <use xlink:href="#ArialMT-2d" x="222.460938"/>
       <use xlink:href="#ArialMT-30" x="255.761719"/>
       <use xlink:href="#ArialMT-31" x="311.376953"/>
       <use xlink:href="#ArialMT-2d" x="366.992188"/>
       <use xlink:href="#ArialMT-30" x="400.292969"/>
       <use xlink:href="#ArialMT-31" x="455.908203"/>
      </g>
     </g>
    </g>
    <g id="xtick_2">
     <g id="line2d_3">
      <path d="M 254.571429 512.64 
L 254.571429 69.12 
" clip-path="url(#p161c1f1775)" style="fill: none; stroke: #cccccc; stroke-width: 0.8; stroke-linecap: round"/>
     </g>
     <g id="line2d_4"/>
     <g id="text_2">
      <!-- 2023-01-15 -->
      <g style="fill: #262626" transform="translate(228.997991 523.297812) scale(0.1 -0.1)">
       <defs>
        <path id="ArialMT-35" d="M 266 1200 
L 856 1250 
Q 922 819 1161 601 
Q 1400 384 1738 384 
Q 2144 384 2425 690 
Q 2706 997 2706 1503 
Q 2706 1984 2436 2262 
Q 2166 2541 1728 2541 
Q 1456 2541 1237 2417 
Q 1019 2294 894 2097 
L 366 2166 
L 809 4519 
L 3088 4519 
L 3088 3981 
L 1259 3981 
L 1013 2750 
Q 1425 3038 1878 3038 
Q 2478 3038 2890 2622 
Q 3303 2206 3303 1553 
Q 3303 931 2941 478 
Q 2500 -78 1738 -78 
Q 1113 -78 717 272 
Q 322 622 266 1200 
z
" transform="scale(0.015625)"/>
       </defs>
       <use xlink:href="#ArialMT-32"/>
       <use xlink:href="#ArialMT-30" x="55.615234"/>
       <use xlink:href="#ArialMT-32" x="111.230469"/>
       <use xlink:href="#ArialMT-33" x="166.845703"/>
       <use xlink:href="#ArialMT-2d" x="222.460938"/>
       <use xlink:href="#ArialMT-30" x="255.761719"/>
       <use xlink:href="#ArialMT-31" x="311.376953"/>
       <use xlink:href="#ArialMT-2d" x="366.992188"/>
       <use xlink:href="#ArialMT-31" x="400.292969"/>
       <use xlink:href="#ArialMT-35" x="455.908203"/>
      </g>
     </g>
    </g>
    <g id="xtick_3">
     <g id="line2d_5">
      <path d="M 370.066558 512.64 
L 370.066558 69.12 
" clip-path="url(#p161c1f1775)" style="fill: none; stroke: #cccccc; stroke-width: 0.8; stroke-linecap: round"/>
     </g>
     <g id="line2d_6"/>
     <g id="text_3">
      <!-- 2023-02-01 -->
      <g style="fill: #262626" transform="translate(344.493121 523.297812) scale(0.1 -0.1)">
       <use xlink:href="#ArialMT-32"/>
       <use xlink:href="#ArialMT-30" x="55.615234"/>
       <use xlink:href="#ArialMT-32" x="111.230469"/>
       <use xlink:href="#ArialMT-33" x="166.845703"/>
       <use xlink:href="#ArialMT-2d" x="222.460938"/>
       <use xlink:href="#ArialMT-30" x="255.761719"/>
       <use xlink:href="#ArialMT-32" x="311.376953"/>
       <use xlink:href="#ArialMT-2d" x="366.992188"/>
       <use xlink:href="#ArialMT-30" x="400.292969"/>
       <use xlink:href="#ArialMT-31" x="455.908203"/>
      </g>
     </g>
    </g>
    <g id="xtick_4">
     <g id="line2d_7">
      <path d="M 465.180195 512.64 
L 465.180195 69.12 
" clip-path="url(#p161c1f1775)" style="fill: none; stroke: #cccccc; stroke-width: 0.8; stroke-linecap: round"/>
     </g>
     <g id="line2d_8"/>
     <g id="text_4">
      <!-- 2023-02-15 -->
      <g style="fill: #262626" transform="translate(439.606757 523.297812) scale(0.1 -0.1)">
       <use xlink:href="#ArialMT-32"/>
       <use xlink:href="#ArialMT-30" x="55.615234"/>
       <use xlink:href="#ArialMT-32" x="111.230469"/>
       <use xlink:href="#ArialMT-33" x="166.845703"/>
       <use xlink:href="#ArialMT-2d" x="222.460938"/>
       <use xlink:href="#ArialMT-30" x="255.761719"/>
       <use xlink:href="#ArialMT-32" x="311.376953"/>
       <use xlink:href="#ArialMT-2d" x="366.992188"/>
       <use xlink:href="#ArialMT-31" x="400.292969"/>
       <use xlink:href="#ArialMT-35" x="455.908203"/>
      </g>
     </g>
    </g>
    <g id="xtick_5">
     <g id="line2d_9">
      <path d="M 560.293831 512.64 
L 560.293831 69.12 
" clip-path="url(#p161c1f1775)" style="fill: none; stroke: #cccccc; stroke-width: 0.8; stroke-linecap: round"/>
     </g>
     <g id="line2d_10"/>
     <g id="text_5">
      <!-- 2023-03-01 -->
      <g style="fill: #262626" transform="translate(534.720394 523.297812) scale(0.1 -0.1)">
       <use xlink:href="#ArialMT-32"/>
       <use xlink:href="#ArialMT-30" x="55.615234"/>
       <use xlink:href="#ArialMT-32" x="111.230469"/>
       <use xlink:href="#ArialMT-33" x="166.845703"/>
       <use xlink:href="#ArialMT-2d" x="222.460938"/>
       <use xlink:href="#ArialMT-30" x="255.761719"/>
       <use xlink:href="#ArialMT-33" x="311.376953"/>
       <use xlink:href="#ArialMT-2d" x="366.992188"/>
       <use xlink:href="#ArialMT-30" x="400.292969"/>
       <use xlink:href="#ArialMT-31" x="455.908203"/>
      </g>
     </g>
    </g>
    <g id="xtick_6">
     <g id="line2d_11">
      <path d="M 655.407468 512.64 
L 655.407468 69.12 
" clip-path="url(#p161c1f1775)" style="fill: none; stroke: #cccccc; stroke-width: 0.8; stroke-linecap: round"/>
     </g>
     <g id="line2d_12"/>
     <g id="text_6">
      <!-- 2023-03-15 -->
      <g style="fill: #262626" transform="translate(629.83403 523.297812) scale(0.1 -0.1)">
       <use xlink:href="#ArialMT-32"/>
       <use xlink:href="#ArialMT-30" x="55.615234"/>
       <use xlink:href="#ArialMT-32" x="111.230469"/>
       <use xlink:href="#ArialMT-33" x="166.845703"/>
       <use xlink:href="#ArialMT-2d" x="222.460938"/>
       <use xlink:href="#ArialMT-30" x="255.761719"/>
       <use xlink:href="#ArialMT-33" x="311.376953"/>
       <use xlink:href="#ArialMT-2d" x="366.992188"/>
       <use xlink:href="#ArialMT-31" x="400.292969"/>
       <use xlink:href="#ArialMT-35" x="455.908203"/>
      </g>
     </g>
    </g>
    <g id="xtick_7">
     <g id="line2d_13">
      <path d="M 770.902597 512.64 
L 770.902597 69.12 
" clip-path="url(#p161c1f1775)" style="fill: none; stroke: #cccccc; stroke-width: 0.8; stroke-linecap: round"/>
     </g>
     <g id="line2d_14"/>
     <g id="text_7">
      <!-- 2023-04-01 -->
      <g style="fill: #262626" transform="translate(745.32916 523.297812) scale(0.1 -0.1)">
       <defs>
        <path id="ArialMT-34" d="M 2069 0 
L 2069 1097 
L 81 1097 
L 81 1613 
L 2172 4581 
L 2631 4581 
L 2631 1613 
L 3250 1613 
L 3250 1097 
L 2631 1097 
L 2631 0 
L 2069 0 
z
M 2069 1613 
L 2069 3678 
L 634 1613 
L 2069 1613 
z
" transform="scale(0.015625)"/>
       </defs>
       <use xlink:href="#ArialMT-32"/>
       <use xlink:href="#ArialMT-30" x="55.615234"/>
       <use xlink:href="#ArialMT-32" x="111.230469"/>
       <use xlink:href="#ArialMT-33" x="166.845703"/>
       <use xlink:href="#ArialMT-2d" x="222.460938"/>
       <use xlink:href="#ArialMT-30" x="255.761719"/>
       <use xlink:href="#ArialMT-34" x="311.376953"/>
       <use xlink:href="#ArialMT-2d" x="366.992188"/>
       <use xlink:href="#ArialMT-30" x="400.292969"/>
       <use xlink:href="#ArialMT-31" x="455.908203"/>
      </g>
     </g>
    </g>
    <g id="xtick_8">
     <g id="line2d_15">
      <path d="M 866.016234 512.64 
L 866.016234 69.12 
" clip-path="url(#p161c1f1775)" style="fill: none; stroke: #cccccc; stroke-width: 0.8; stroke-linecap: round"/>
     </g>
     <g id="line2d_16"/>
     <g id="text_8">
      <!-- 2023-04-15 -->
      <g style="fill: #262626" transform="translate(840.442796 523.297812) scale(0.1 -0.1)">
       <use xlink:href="#ArialMT-32"/>
       <use xlink:href="#ArialMT-30" x="55.615234"/>
       <use xlink:href="#ArialMT-32" x="111.230469"/>
       <use xlink:href="#ArialMT-33" x="166.845703"/>
       <use xlink:href="#ArialMT-2d" x="222.460938"/>
       <use xlink:href="#ArialMT-30" x="255.761719"/>
       <use xlink:href="#ArialMT-34" x="311.376953"/>
       <use xlink:href="#ArialMT-2d" x="366.992188"/>
       <use xlink:href="#ArialMT-31" x="400.292969"/>
       <use xlink:href="#ArialMT-35" x="455.908203"/>
      </g>
     </g>
    </g>
    <g id="text_9">
     <!-- Date -->
     <g style="fill: #262626" transform="translate(542.939062 536.443125) scale(0.1 -0.1)">
      <defs>
       <path id="ArialMT-44" d="M 494 0 
L 494 4581 
L 2072 4581 
Q 2606 4581 2888 4516 
Q 3281 4425 3559 4188 
Q 3922 3881 4101 3404 
Q 4281 2928 4281 2316 
Q 4281 1794 4159 1391 
Q 4038 988 3847 723 
Q 3656 459 3429 307 
Q 3203 156 2883 78 
Q 2563 0 2147 0 
L 494 0 
z
M 1100 541 
L 2078 541 
Q 2531 541 2789 625 
Q 3047 709 3200 863 
Q 3416 1078 3536 1442 
Q 3656 1806 3656 2325 
Q 3656 3044 3420 3430 
Q 3184 3816 2847 3947 
Q 2603 4041 2063 4041 
L 1100 4041 
L 1100 541 
z
" transform="scale(0.015625)"/>
       <path id="ArialMT-61" d="M 2588 409 
Q 2275 144 1986 34 
Q 1697 -75 1366 -75 
Q 819 -75 525 192 
Q 231 459 231 875 
Q 231 1119 342 1320 
Q 453 1522 633 1644 
Q 813 1766 1038 1828 
Q 1203 1872 1538 1913 
Q 2219 1994 2541 2106 
Q 2544 2222 2544 2253 
Q 2544 2597 2384 2738 
Q 2169 2928 1744 2928 
Q 1347 2928 1158 2789 
Q 969 2650 878 2297 
L 328 2372 
Q 403 2725 575 2942 
Q 747 3159 1072 3276 
Q 1397 3394 1825 3394 
Q 2250 3394 2515 3294 
Q 2781 3194 2906 3042 
Q 3031 2891 3081 2659 
Q 3109 2516 3109 2141 
L 3109 1391 
Q 3109 606 3145 398 
Q 3181 191 3288 0 
L 2700 0 
Q 2613 175 2588 409 
z
M 2541 1666 
Q 2234 1541 1622 1453 
Q 1275 1403 1131 1340 
Q 988 1278 909 1158 
Q 831 1038 831 891 
Q 831 666 1001 516 
Q 1172 366 1500 366 
Q 1825 366 2078 508 
Q 2331 650 2450 897 
Q 2541 1088 2541 1459 
L 2541 1666 
z
" transform="scale(0.015625)"/>
       <path id="ArialMT-74" d="M 1650 503 
L 1731 6 
Q 1494 -44 1306 -44 
Q 1000 -44 831 53 
Q 663 150 594 308 
Q 525 466 525 972 
L 525 2881 
L 113 2881 
L 113 3319 
L 525 3319 
L 525 4141 
L 1084 4478 
L 1084 3319 
L 1650 3319 
L 1650 2881 
L 1084 2881 
L 1084 941 
Q 1084 700 1114 631 
Q 1144 563 1211 522 
Q 1278 481 1403 481 
Q 1497 481 1650 503 
z
" transform="scale(0.015625)"/>
       <path id="ArialMT-65" d="M 2694 1069 
L 3275 997 
Q 3138 488 2766 206 
Q 2394 -75 1816 -75 
Q 1088 -75 661 373 
Q 234 822 234 1631 
Q 234 2469 665 2931 
Q 1097 3394 1784 3394 
Q 2450 3394 2872 2941 
Q 3294 2488 3294 1666 
Q 3294 1616 3291 1516 
L 816 1516 
Q 847 969 1125 678 
Q 1403 388 1819 388 
Q 2128 388 2347 550 
Q 2566 713 2694 1069 
z
M 847 1978 
L 2700 1978 
Q 2663 2397 2488 2606 
Q 2219 2931 1791 2931 
Q 1403 2931 1139 2672 
Q 875 2413 847 1978 
z
" transform="scale(0.015625)"/>
      </defs>
      <use xlink:href="#ArialMT-44"/>
      <use xlink:href="#ArialMT-61" x="72.216797"/>
      <use xlink:href="#ArialMT-74" x="127.832031"/>
      <use xlink:href="#ArialMT-65" x="155.615234"/>
     </g>
    </g>
   </g>
   <g id="matplotlib.axis_2">
    <g id="ytick_1">
     <g id="line2d_17">
      <path d="M 135 501.821951 
L 972 501.821951 
" clip-path="url(#p161c1f1775)" style="fill: none; stroke: #cccccc; stroke-width: 0.8; stroke-linecap: round"/>
     </g>
     <g id="line2d_18"/>
     <g id="text_10">
      <!-- 12 -->
      <g style="fill: #262626" transform="translate(120.378125 505.400857) scale(0.1 -0.1)">
       <use xlink:href="#ArialMT-31"/>
       <use xlink:href="#ArialMT-32" x="55.615234"/>
      </g>
     </g>
    </g>
    <g id="ytick_2">
     <g id="line2d_19">
      <path d="M 135 430.93845 
L 972 430.93845 
" clip-path="url(#p161c1f1775)" style="fill: none; stroke: #cccccc; stroke-width: 0.8; stroke-linecap: round"/>
     </g>
     <g id="line2d_20"/>
     <g id="text_11">
      <!-- 13 -->
      <g style="fill: #262626" transform="translate(120.378125 434.517357) scale(0.1 -0.1)">
       <use xlink:href="#ArialMT-31"/>
       <use xlink:href="#ArialMT-33" x="55.615234"/>
      </g>
     </g>
    </g>
    <g id="ytick_3">
     <g id="line2d_21">
      <path d="M 135 360.05495 
L 972 360.05495 
" clip-path="url(#p161c1f1775)" style="fill: none; stroke: #cccccc; stroke-width: 0.8; stroke-linecap: round"/>
     </g>
     <g id="line2d_22"/>
     <g id="text_12">
      <!-- 14 -->
      <g style="fill: #262626" transform="translate(120.378125 363.633856) scale(0.1 -0.1)">
       <use xlink:href="#ArialMT-31"/>
       <use xlink:href="#ArialMT-34" x="55.615234"/>
      </g>
     </g>
    </g>
    <g id="ytick_4">
     <g id="line2d_23">
      <path d="M 135 289.17145 
L 972 289.17145 
" clip-path="url(#p161c1f1775)" style="fill: none; stroke: #cccccc; stroke-width: 0.8; stroke-linecap: round"/>
     </g>
     <g id="line2d_24"/>
     <g id="text_13">
      <!-- 15 -->
      <g style="fill: #262626" transform="translate(120.378125 292.750356) scale(0.1 -0.1)">
       <use xlink:href="#ArialMT-31"/>
       <use xlink:href="#ArialMT-35" x="55.615234"/>
      </g>
     </g>
    </g>
    <g id="ytick_5">
     <g id="line2d_25">
      <path d="M 135 218.287949 
L 972 218.287949 
" clip-path="url(#p161c1f1775)" style="fill: none; stroke: #cccccc; stroke-width: 0.8; stroke-linecap: round"/>
     </g>
     <g id="line2d_26"/>
     <g id="text_14">
      <!-- 16 -->
      <g style="fill: #262626" transform="translate(120.378125 221.866855) scale(0.1 -0.1)">
       <defs>
        <path id="ArialMT-36" d="M 3184 3459 
L 2625 3416 
Q 2550 3747 2413 3897 
Q 2184 4138 1850 4138 
Q 1581 4138 1378 3988 
Q 1113 3794 959 3422 
Q 806 3050 800 2363 
Q 1003 2672 1297 2822 
Q 1591 2972 1913 2972 
Q 2475 2972 2870 2558 
Q 3266 2144 3266 1488 
Q 3266 1056 3080 686 
Q 2894 316 2569 119 
Q 2244 -78 1831 -78 
Q 1128 -78 684 439 
Q 241 956 241 2144 
Q 241 3472 731 4075 
Q 1159 4600 1884 4600 
Q 2425 4600 2770 4297 
Q 3116 3994 3184 3459 
z
M 888 1484 
Q 888 1194 1011 928 
Q 1134 663 1356 523 
Q 1578 384 1822 384 
Q 2178 384 2434 671 
Q 2691 959 2691 1453 
Q 2691 1928 2437 2201 
Q 2184 2475 1800 2475 
Q 1419 2475 1153 2201 
Q 888 1928 888 1484 
z
" transform="scale(0.015625)"/>
       </defs>
       <use xlink:href="#ArialMT-31"/>
       <use xlink:href="#ArialMT-36" x="55.615234"/>
      </g>
     </g>
    </g>
    <g id="ytick_6">
     <g id="line2d_27">
      <path d="M 135 147.404449 
L 972 147.404449 
" clip-path="url(#p161c1f1775)" style="fill: none; stroke: #cccccc; stroke-width: 0.8; stroke-linecap: round"/>
     </g>
     <g id="line2d_28"/>
     <g id="text_15">
      <!-- 17 -->
      <g style="fill: #262626" transform="translate(120.378125 150.983355) scale(0.1 -0.1)">
       <defs>
        <path id="ArialMT-37" d="M 303 3981 
L 303 4522 
L 3269 4522 
L 3269 4084 
Q 2831 3619 2401 2847 
Q 1972 2075 1738 1259 
Q 1569 684 1522 0 
L 944 0 
Q 953 541 1156 1306 
Q 1359 2072 1739 2783 
Q 2119 3494 2547 3981 
L 303 3981 
z
" transform="scale(0.015625)"/>
       </defs>
       <use xlink:href="#ArialMT-31"/>
       <use xlink:href="#ArialMT-37" x="55.615234"/>
      </g>
     </g>
    </g>
    <g id="ytick_7">
     <g id="line2d_29">
      <path d="M 135 76.520948 
L 972 76.520948 
" clip-path="url(#p161c1f1775)" style="fill: none; stroke: #cccccc; stroke-width: 0.8; stroke-linecap: round"/>
     </g>
     <g id="line2d_30"/>
     <g id="text_16">
      <!-- 18 -->
      <g style="fill: #262626" transform="translate(120.378125 80.099855) scale(0.1 -0.1)">
       <defs>
        <path id="ArialMT-38" d="M 1131 2484 
Q 781 2613 612 2850 
Q 444 3088 444 3419 
Q 444 3919 803 4259 
Q 1163 4600 1759 4600 
Q 2359 4600 2725 4251 
Q 3091 3903 3091 3403 
Q 3091 3084 2923 2848 
Q 2756 2613 2416 2484 
Q 2838 2347 3058 2040 
Q 3278 1734 3278 1309 
Q 3278 722 2862 322 
Q 2447 -78 1769 -78 
Q 1091 -78 675 323 
Q 259 725 259 1325 
Q 259 1772 486 2073 
Q 713 2375 1131 2484 
z
M 1019 3438 
Q 1019 3113 1228 2906 
Q 1438 2700 1772 2700 
Q 2097 2700 2305 2904 
Q 2513 3109 2513 3406 
Q 2513 3716 2298 3927 
Q 2084 4138 1766 4138 
Q 1444 4138 1231 3931 
Q 1019 3725 1019 3438 
z
M 838 1322 
Q 838 1081 952 856 
Q 1066 631 1291 507 
Q 1516 384 1775 384 
Q 2178 384 2440 643 
Q 2703 903 2703 1303 
Q 2703 1709 2433 1975 
Q 2163 2241 1756 2241 
Q 1359 2241 1098 1978 
Q 838 1716 838 1322 
z
" transform="scale(0.015625)"/>
       </defs>
       <use xlink:href="#ArialMT-31"/>
       <use xlink:href="#ArialMT-38" x="55.615234"/>
      </g>
     </g>
    </g>
    <g id="text_17">
     <!-- Adj Close -->
     <g style="fill: #262626" transform="translate(114.273438 312.278437) rotate(-90) scale(0.1 -0.1)">
      <defs>
       <path id="ArialMT-41" d="M -9 0 
L 1750 4581 
L 2403 4581 
L 4278 0 
L 3588 0 
L 3053 1388 
L 1138 1388 
L 634 0 
L -9 0 
z
M 1313 1881 
L 2866 1881 
L 2388 3150 
Q 2169 3728 2063 4100 
Q 1975 3659 1816 3225 
L 1313 1881 
z
" transform="scale(0.015625)"/>
       <path id="ArialMT-64" d="M 2575 0 
L 2575 419 
Q 2259 -75 1647 -75 
Q 1250 -75 917 144 
Q 584 363 401 755 
Q 219 1147 219 1656 
Q 219 2153 384 2558 
Q 550 2963 881 3178 
Q 1213 3394 1622 3394 
Q 1922 3394 2156 3267 
Q 2391 3141 2538 2938 
L 2538 4581 
L 3097 4581 
L 3097 0 
L 2575 0 
z
M 797 1656 
Q 797 1019 1065 703 
Q 1334 388 1700 388 
Q 2069 388 2326 689 
Q 2584 991 2584 1609 
Q 2584 2291 2321 2609 
Q 2059 2928 1675 2928 
Q 1300 2928 1048 2622 
Q 797 2316 797 1656 
z
" transform="scale(0.015625)"/>
       <path id="ArialMT-6a" d="M 419 3928 
L 419 4581 
L 981 4581 
L 981 3928 
L 419 3928 
z
M -294 -1288 
L -188 -809 
Q -19 -853 78 -853 
Q 250 -853 334 -739 
Q 419 -625 419 -169 
L 419 3319 
L 981 3319 
L 981 -181 
Q 981 -794 822 -1034 
Q 619 -1347 147 -1347 
Q -81 -1347 -294 -1288 
z
" transform="scale(0.015625)"/>
       <path id="ArialMT-20" transform="scale(0.015625)"/>
       <path id="ArialMT-43" d="M 3763 1606 
L 4369 1453 
Q 4178 706 3683 314 
Q 3188 -78 2472 -78 
Q 1731 -78 1267 223 
Q 803 525 561 1097 
Q 319 1669 319 2325 
Q 319 3041 592 3573 
Q 866 4106 1370 4382 
Q 1875 4659 2481 4659 
Q 3169 4659 3637 4309 
Q 4106 3959 4291 3325 
L 3694 3184 
Q 3534 3684 3231 3912 
Q 2928 4141 2469 4141 
Q 1941 4141 1586 3887 
Q 1231 3634 1087 3207 
Q 944 2781 944 2328 
Q 944 1744 1114 1308 
Q 1284 872 1643 656 
Q 2003 441 2422 441 
Q 2931 441 3284 734 
Q 3638 1028 3763 1606 
z
" transform="scale(0.015625)"/>
       <path id="ArialMT-6c" d="M 409 0 
L 409 4581 
L 972 4581 
L 972 0 
L 409 0 
z
" transform="scale(0.015625)"/>
       <path id="ArialMT-6f" d="M 213 1659 
Q 213 2581 725 3025 
Q 1153 3394 1769 3394 
Q 2453 3394 2887 2945 
Q 3322 2497 3322 1706 
Q 3322 1066 3130 698 
Q 2938 331 2570 128 
Q 2203 -75 1769 -75 
Q 1072 -75 642 372 
Q 213 819 213 1659 
z
M 791 1659 
Q 791 1022 1069 705 
Q 1347 388 1769 388 
Q 2188 388 2466 706 
Q 2744 1025 2744 1678 
Q 2744 2294 2464 2611 
Q 2184 2928 1769 2928 
Q 1347 2928 1069 2612 
Q 791 2297 791 1659 
z
" transform="scale(0.015625)"/>
       <path id="ArialMT-73" d="M 197 991 
L 753 1078 
Q 800 744 1014 566 
Q 1228 388 1613 388 
Q 2000 388 2187 545 
Q 2375 703 2375 916 
Q 2375 1106 2209 1216 
Q 2094 1291 1634 1406 
Q 1016 1563 777 1677 
Q 538 1791 414 1992 
Q 291 2194 291 2438 
Q 291 2659 392 2848 
Q 494 3038 669 3163 
Q 800 3259 1026 3326 
Q 1253 3394 1513 3394 
Q 1903 3394 2198 3281 
Q 2494 3169 2634 2976 
Q 2775 2784 2828 2463 
L 2278 2388 
Q 2241 2644 2061 2787 
Q 1881 2931 1553 2931 
Q 1166 2931 1000 2803 
Q 834 2675 834 2503 
Q 834 2394 903 2306 
Q 972 2216 1119 2156 
Q 1203 2125 1616 2013 
Q 2213 1853 2448 1751 
Q 2684 1650 2818 1456 
Q 2953 1263 2953 975 
Q 2953 694 2789 445 
Q 2625 197 2315 61 
Q 2006 -75 1616 -75 
Q 969 -75 630 194 
Q 291 463 197 991 
z
" transform="scale(0.015625)"/>
      </defs>
      <use xlink:href="#ArialMT-41"/>
      <use xlink:href="#ArialMT-64" x="66.699219"/>
      <use xlink:href="#ArialMT-6a" x="122.314453"/>
      <use xlink:href="#ArialMT-20" x="144.53125"/>
      <use xlink:href="#ArialMT-43" x="172.314453"/>
      <use xlink:href="#ArialMT-6c" x="244.53125"/>
      <use xlink:href="#ArialMT-6f" x="266.748047"/>
      <use xlink:href="#ArialMT-73" x="322.363281"/>
      <use xlink:href="#ArialMT-65" x="372.363281"/>
     </g>
    </g>
   </g>
   <g id="line2d_31">
    <path d="M 173.045455 459.646271 
L 179.839286 455.690973 
L 186.633117 381.440497 
L 193.426948 368.171108 
L 213.808442 362.039679 
L 220.602273 339.647587 
L 227.396104 305.623507 
L 234.189935 299.626762 
L 240.983766 198.036552 
L 268.159091 163.232755 
L 274.952922 119.603952 
L 281.746753 164.494479 
L 288.540584 184.356041 
L 308.922078 201.403511 
L 315.715909 196.661402 
L 322.50974 203.147238 
L 329.303571 176.750237 
L 336.097403 179.365832 
L 356.478896 168.18751 
L 363.272727 205.096533 
L 370.066558 203.756827 
L 376.86039 186.766058 
L 383.654221 107.638822 
L 404.035714 137.367359 
L 410.829545 186.276969 
L 417.623377 162.857055 
L 424.417208 148.864658 
L 431.211039 172.334183 
L 451.592532 216.67181 
L 458.386364 198.915486 
L 465.180195 174.191323 
L 471.974026 156.71854 
L 478.767857 165.274179 
L 505.943182 201.573616 
L 512.737013 205.940045 
L 519.530844 216.494596 
L 526.324675 199.822803 
L 546.706169 221.25088 
L 553.5 216.678895 
L 560.293831 212.043112 
L 567.087662 212.262857 
L 573.881494 199.645586 
L 594.262987 220.740521 
L 601.056818 204.628695 
L 607.850649 205.117791 
L 614.644481 175.10572 
L 621.438312 213.375718 
L 641.819805 280.594549 
L 648.613636 334.409305 
L 655.407468 336.819345 
L 662.201299 375.734384 
L 668.99513 366.951917 
L 689.376623 366.888122 
L 696.170455 362.188543 
L 702.964286 357.623648 
L 709.758117 362.280689 
L 716.551948 366.058786 
L 736.933442 362.514614 
L 743.727273 363.932277 
L 750.521104 364.541872 
L 757.314935 361.607298 
L 764.108766 338.258271 
L 784.49026 326.690087 
L 791.284091 348.430053 
L 798.077922 356.928985 
L 804.871753 363.088762 
L 832.047078 360.749605 
L 838.840909 362.755613 
L 845.63474 365.321592 
L 852.428571 431.221978 
L 859.222403 431.789045 
L 879.603896 456.456519 
L 886.397727 428.733969 
L 893.191558 400.408926 
L 899.98539 377.570262 
L 906.779221 406.582881 
L 927.160714 374.81289 
L 933.954545 415.287369 
" clip-path="url(#p161c1f1775)" style="fill: none; stroke: #1f77b4; stroke-width: 1.5; stroke-linecap: round"/>
   </g>
   <g id="line2d_32">
    <path d="M 173.045455 461.246476 
L 179.839286 459.031095 
L 186.633117 394.259174 
L 193.426948 361.779242 
L 213.808442 354.547145 
L 220.602273 351.35186 
L 227.396104 303.368551 
L 234.189935 283.985633 
L 240.983766 198.777391 
L 268.159091 164.089641 
L 274.952922 123.045704 
L 281.746753 163.215807 
L 288.540584 167.383598 
L 308.922078 169.791585 
L 315.715909 188.113022 
L 322.50974 214.960725 
L 329.303571 194.36149 
L 336.097403 198.777391 
L 356.478896 158.799906 
L 363.272727 215.651385 
L 370.066558 194.36149 
L 376.86039 195.73709 
L 383.654221 127.886213 
L 404.035714 127.886213 
L 410.829545 162.573964 
L 417.623377 168.414281 
L 424.417208 149.779289 
L 431.211039 162.573964 
L 451.592532 200.201807 
L 458.386364 192.819797 
L 465.180195 168.414281 
L 471.974026 168.414281 
L 478.767857 168.414281 
L 505.943182 200.201807 
L 512.737013 219.425442 
L 519.530844 219.425442 
L 526.324675 219.425442 
L 546.706169 219.425442 
L 553.5 219.425442 
L 560.293831 225.26576 
L 567.087662 200.201807 
L 573.881494 200.201807 
L 594.262987 200.201807 
L 601.056818 200.201807 
L 607.850649 200.201807 
L 614.644481 168.414281 
L 621.438312 225.26576 
L 641.819805 280.764063 
L 648.613636 319.179907 
L 655.407468 325.694431 
L 662.201299 363.819219 
L 668.99513 349.96027 
L 689.376623 349.96027 
L 696.170455 361.934719 
L 702.964286 353.856486 
L 709.758117 367.775036 
L 716.551948 374.997155 
L 736.933442 363.177376 
L 743.727273 369.017693 
L 750.521104 364.16152 
L 757.314935 364.16152 
L 764.108766 364.16152 
L 784.49026 351.362644 
L 791.284091 358.331987 
L 798.077922 358.331987 
L 804.871753 369.017693 
L 832.047078 358.331987 
L 838.840909 364.16152 
L 845.63474 358.331987 
L 852.428571 431.299231 
L 859.222403 423.096039 
L 879.603896 449.41672 
L 886.397727 426.285539 
L 893.191558 395.437865 
L 899.98539 363.497499 
L 906.779221 412.700631 
L 927.160714 384.293346 
L 933.954545 424.482017 
" clip-path="url(#p161c1f1775)" style="fill: none; stroke: #ff7f0e; stroke-width: 1.5; stroke-linecap: round"/>
   </g>
   <g id="line2d_33">
    <path d="M 173.045455 452.621082 
L 179.839286 454.199564 
L 186.633117 415.026111 
L 193.426948 360.312807 
L 213.808442 357.240769 
L 220.602273 332.453462 
L 227.396104 272.348201 
L 234.189935 264.468757 
L 240.983766 197.320038 
L 268.159091 154.57979 
L 274.952922 139.079082 
L 281.746753 174.659722 
L 288.540584 172.564185 
L 308.922078 182.843961 
L 315.715909 196.822892 
L 322.50974 220.570022 
L 329.303571 182.777184 
L 336.097403 198.429753 
L 356.478896 232.06709 
L 363.272727 230.923099 
L 370.066558 184.538456 
L 376.86039 167.523299 
L 383.654221 176.718982 
L 404.035714 157.105877 
L 410.829545 153.439747 
L 417.623377 167.864305 
L 424.417208 152.633025 
L 431.211039 179.64087 
L 451.592532 209.387772 
L 458.386364 190.279283 
L 465.180195 170.285633 
L 471.974026 169.229933 
L 478.767857 202.29329 
L 505.943182 212.439211 
L 512.737013 247.883319 
L 519.530844 263.121533 
L 526.324675 243.019832 
L 546.706169 261.113673 
L 553.5 241.383533 
L 560.293831 235.930593 
L 567.087662 218.911078 
L 573.881494 215.94715 
L 594.262987 213.99505 
L 601.056818 215.724522 
L 607.850649 204.149343 
L 614.644481 187.107947 
L 621.438312 246.120666 
L 641.819805 291.83454 
L 648.613636 331.166497 
L 655.407468 307.727273 
L 662.201299 392.984896 
L 668.99513 329.758531 
L 689.376623 362.05508 
L 696.170455 361.313267 
L 702.964286 300.319148 
L 709.758117 369.507971 
L 716.551948 390.405546 
L 736.933442 398.68151 
L 743.727273 370.555206 
L 750.521104 372.396843 
L 757.314935 315.951677 
L 764.108766 316.174336 
L 784.49026 317.985581 
L 791.284091 349.236864 
L 798.077922 353.038142 
L 804.871753 392.619079 
L 832.047078 363.811143 
L 838.840909 356.556148 
L 845.63474 336.393055 
L 852.428571 474.937456 
L 859.222403 402.057407 
L 879.603896 438.959718 
L 886.397727 433.728522 
L 893.191558 334.352926 
L 899.98539 409.433137 
L 906.779221 414.797641 
L 927.160714 393.573998 
L 933.954545 425.370601 
" clip-path="url(#p161c1f1775)" style="fill: none; stroke: #2ca02c; stroke-width: 1.5; stroke-linecap: round"/>
   </g>
   <g id="line2d_34">
    <path d="M 173.045455 479.139252 
L 179.839286 464.253714 
L 186.633117 367.852111 
L 193.426948 362.181436 
L 213.808442 398.332037 
L 220.602273 382.737648 
L 227.396104 277.8301 
L 234.189935 316.107188 
L 240.983766 178.593227 
L 268.159091 165.125324 
L 274.952922 155.201677 
L 281.746753 138.189653 
L 288.540584 203.402479 
L 308.922078 292.006787 
L 315.715909 255.856185 
L 322.50974 255.856185 
L 329.303571 169.378296 
L 336.097403 130.392425 
L 356.478896 155.201677 
L 363.272727 253.729699 
L 370.066558 255.856185 
L 376.86039 255.856185 
L 383.654221 155.201677 
L 404.035714 155.201677 
L 410.829545 199.858223 
L 417.623377 165.125324 
L 424.417208 165.125324 
L 431.211039 165.125324 
L 451.592532 253.729699 
L 458.386364 253.729699 
L 465.180195 89.28 
L 471.974026 89.28 
L 478.767857 89.28 
L 505.943182 253.729699 
L 512.737013 255.856185 
L 519.530844 255.856185 
L 526.324675 255.856185 
L 546.706169 255.856185 
L 553.5 255.856185 
L 560.293831 255.856185 
L 567.087662 292.006787 
L 573.881494 292.006787 
L 594.262987 255.856185 
L 601.056818 292.006787 
L 607.850649 292.006787 
L 614.644481 155.201677 
L 621.438312 255.856185 
L 641.819805 309.727662 
L 648.613636 348.004749 
L 655.407468 348.004749 
L 662.201299 361.472652 
L 668.99513 391.952512 
L 689.376623 391.952512 
L 696.170455 428.811964 
L 702.964286 342.334075 
L 709.758117 361.472652 
L 716.551948 388.408323 
L 736.933442 345.878263 
L 743.727273 345.169412 
L 750.521104 342.334075 
L 757.314935 361.472652 
L 764.108766 294.133273 
L 784.49026 363.599138 
L 791.284091 299.095164 
L 798.077922 363.599138 
L 804.871753 356.510761 
L 832.047078 361.472652 
L 838.840909 391.952512 
L 845.63474 391.952512 
L 852.428571 435.900274 
L 859.222403 435.900274 
L 879.603896 464.253714 
L 886.397727 415.344061 
L 893.191558 415.344061 
L 899.98539 380.611162 
L 906.779221 416.761764 
L 927.160714 360.763801 
L 933.954545 381.320014 
" clip-path="url(#p161c1f1775)" style="fill: none; stroke: #d62728; stroke-width: 1.5; stroke-linecap: round"/>
   </g>
   <g id="line2d_35">
    <path d="M 173.045455 434.448599 
L 179.839286 433.598731 
L 186.633117 418.483095 
L 193.426948 401.140774 
L 213.808442 384.20043 
L 220.602273 363.287182 
L 227.396104 338.727644 
L 234.189935 317.157021 
L 240.983766 274.367168 
L 268.159091 240.927916 
L 274.952922 214.852581 
L 281.746753 201.961045 
L 288.540584 200.002695 
L 308.922078 198.814002 
L 315.715909 200.763845 
L 322.50974 209.687935 
L 329.303571 212.764076 
L 336.097403 209.747327 
L 356.478896 209.333168 
L 363.272727 215.593971 
L 370.066558 217.608102 
L 376.86039 209.707248 
L 383.654221 196.544943 
L 404.035714 187.662745 
L 410.829545 183.826922 
L 417.623377 179.988066 
L 424.417208 175.250735 
L 431.211039 176.991635 
L 451.592532 186.360533 
L 458.386364 190.909586 
L 465.180195 189.733948 
L 471.974026 188.232465 
L 478.767857 193.938347 
L 505.943182 199.148241 
L 512.737013 213.998822 
L 519.530844 226.139694 
L 526.324675 230.693331 
L 546.706169 240.709879 
L 553.5 246.895342 
L 560.293831 244.704118 
L 567.087662 242.654316 
L 573.881494 237.343926 
L 594.262987 228.516284 
L 601.056818 227.105365 
L 607.850649 220.743466 
L 614.644481 212.151832 
L 621.438312 218.64842 
L 641.819805 230.648538 
L 648.613636 250.80372 
L 655.407468 270.347485 
L 662.201299 298.193105 
L 668.99513 315.630864 
L 689.376623 332.404275 
L 696.170455 343.528148 
L 702.964286 343.813228 
L 709.758117 351.908175 
L 716.551948 360.79602 
L 736.933442 364.059917 
L 743.727273 363.684403 
L 750.521104 362.230575 
L 757.314935 354.633547 
L 764.108766 348.123232 
L 784.49026 337.149897 
L 791.284091 333.786179 
L 798.077922 335.601326 
L 804.871753 342.226448 
L 832.047078 345.294804 
L 838.840909 346.293424 
L 845.63474 344.319473 
L 852.428571 365.521151 
L 859.222403 381.229576 
L 879.603896 395.491538 
L 886.397727 400.464712 
L 893.191558 400.928668 
L 899.98539 396.085188 
L 906.779221 398.272432 
L 927.160714 396.154772 
L 933.954545 395.517106 
" clip-path="url(#p161c1f1775)" style="fill: none; stroke: #9467bd; stroke-width: 1.5; stroke-linecap: round"/>
   </g>
   <g id="line2d_36">
    <path d="M 173.045455 459.575391 
L 179.839286 467.089038 
L 186.633117 446.816366 
L 193.426948 378.484663 
L 213.808442 369.55334 
L 220.602273 363.740882 
L 227.396104 353.108357 
L 234.189935 304.198744 
L 240.983766 260.959833 
L 268.159091 205.387168 
L 274.952922 191.777535 
L 281.746753 191.777535 
L 288.540584 182.846226 
L 308.922078 187.240995 
L 315.715909 206.521303 
L 322.50974 210.349005 
L 329.303571 156.052258 
L 336.097403 98.92016 
L 356.478896 132.093641 
L 363.272727 162.998838 
L 370.066558 114.514536 
L 376.86039 114.514536 
L 383.654221 112.104496 
L 404.035714 131.66833 
L 410.829545 125.855885 
L 417.623377 162.00646 
L 424.417208 151.373934 
L 431.211039 160.1635 
L 451.592532 235.01646 
L 458.386364 182.562672 
L 465.180195 169.945418 
L 471.974026 132.235397 
L 478.767857 162.573527 
L 505.943182 158.320514 
L 512.737013 188.37513 
L 519.530844 240.828918 
L 526.324675 212.475518 
L 546.706169 216.870287 
L 553.5 267.764643 
L 560.293831 196.030548 
L 567.087662 272.301182 
L 573.881494 250.894362 
L 594.262987 132.093641 
L 601.056818 141.733801 
L 607.850649 132.093641 
L 614.644481 114.514536 
L 621.438312 141.02495 
L 641.819805 231.614068 
L 648.613636 290.022071 
L 655.407468 388.833661 
L 662.201299 391.527228 
L 668.99513 392.661363 
L 689.376623 359.204355 
L 696.170455 354.242505 
L 702.964286 349.564195 
L 709.758117 369.978651 
L 716.551948 396.772619 
L 736.933442 372.105164 
L 743.727273 355.234883 
L 750.521104 365.867408 
L 757.314935 358.070221 
L 764.108766 330.142118 
L 784.49026 312.84654 
L 791.284091 314.689499 
L 798.077922 336.946914 
L 804.871753 354.667802 
L 832.047078 357.50314 
L 838.840909 366.150935 
L 845.63474 349.422438 
L 852.428571 404.002712 
L 859.222403 415.202318 
L 879.603896 458.299486 
L 886.397727 423.70833 
L 893.191558 409.38986 
L 899.98539 359.629639 
L 906.779221 401.025618 
L 927.160714 392.519593 
L 933.954545 407.546887 
" clip-path="url(#p161c1f1775)" style="fill: none; stroke: #8c564b; stroke-width: 1.5; stroke-linecap: round"/>
   </g>
   <g id="line2d_37">
    <path d="M 173.045455 458.682749 
L 179.839286 464.082417 
L 186.633117 447.685889 
L 193.426948 403.253842 
L 213.808442 395.38489 
L 220.602273 368.068362 
L 227.396104 354.947043 
L 234.189935 312.874905 
L 240.983766 268.216331 
L 268.159091 220.35515 
L 274.952922 189.77815 
L 281.746753 181.102395 
L 288.540584 192.791072 
L 308.922078 200.263821 
L 315.715909 210.842645 
L 322.50974 214.123262 
L 329.303571 214.883489 
L 336.097403 214.637561 
L 356.478896 191.622272 
L 363.272727 196.781216 
L 370.066558 204.777053 
L 376.86039 213.076683 
L 383.654221 179.802181 
L 404.035714 163.27647 
L 410.829545 191.471795 
L 417.623377 201.841195 
L 424.417208 184.962883 
L 431.211039 192.683318 
L 451.592532 230.270685 
L 458.386364 241.521856 
L 465.180195 228.961683 
L 471.974026 223.624748 
L 478.767857 224.490904 
L 505.943182 237.156668 
L 512.737013 242.503878 
L 519.530844 233.307064 
L 526.324675 234.498172 
L 546.706169 230.105877 
L 553.5 235.195599 
L 560.293831 246.975738 
L 567.087662 242.829979 
L 573.881494 240.912647 
L 594.262987 247.414934 
L 601.056818 249.135145 
L 607.850649 245.324343 
L 614.644481 237.476618 
L 621.438312 235.982933 
L 641.819805 254.862266 
L 648.613636 305.123779 
L 655.407468 340.284382 
L 662.201299 366.099384 
L 668.99513 371.425029 
L 689.376623 362.097004 
L 696.170455 360.341911 
L 702.964286 366.31692 
L 709.758117 368.572657 
L 716.551948 369.197211 
L 736.933442 380.936723 
L 743.727273 384.64795 
L 750.521104 391.22142 
L 757.314935 389.633163 
L 764.108766 387.078635 
L 784.49026 380.087872 
L 791.284091 381.363413 
L 798.077922 381.363413 
L 804.871753 377.552611 
L 832.047078 383.809375 
L 838.840909 385.935591 
L 845.63474 380.910224 
L 852.428571 411.751742 
L 859.222403 428.204445 
L 879.603896 442.463333 
L 886.397727 441.139797 
L 893.191558 435.515901 
L 899.98539 420.022709 
L 906.779221 415.505422 
L 927.160714 420.454604 
L 933.954545 425.526615 
" clip-path="url(#p161c1f1775)" style="fill: none; stroke: #e377c2; stroke-width: 1.5; stroke-linecap: round"/>
   </g>
   <g id="line2d_38">
    <path d="M 173.045455 450.308608 
L 179.839286 451.305623 
L 186.633117 401.318416 
L 193.426948 368.320878 
L 213.808442 355.412411 
L 220.602273 327.317001 
L 227.396104 285.98458 
L 234.189935 273.020193 
L 240.983766 184.816628 
L 268.159091 156.460229 
L 274.952922 151.427512 
L 281.746753 173.850009 
L 288.540584 188.274765 
L 308.922078 192.884351 
L 315.715909 206.493538 
L 322.50974 218.999895 
L 329.303571 207.35493 
L 336.097403 186.968734 
L 356.478896 195.569126 
L 363.272727 224.490604 
L 370.066558 215.506435 
L 376.86039 179.729274 
L 383.654221 155.835816 
L 404.035714 157.786249 
L 410.829545 164.169268 
L 417.623377 162.426777 
L 424.417208 160.535693 
L 431.211039 179.93333 
L 451.592532 206.38246 
L 458.386364 196.258016 
L 465.180195 177.433122 
L 471.974026 175.378895 
L 478.767857 200.433665 
L 505.943182 205.687471 
L 512.737013 245.04966 
L 519.530844 259.30886 
L 526.324675 241.224105 
L 546.706169 253.478494 
L 553.5 253.315001 
L 560.293831 231.184153 
L 567.087662 225.365456 
L 573.881494 222.962573 
L 594.262987 208.142593 
L 601.056818 220.61043 
L 607.850649 210.653153 
L 614.644481 194.203872 
L 621.438312 232.707217 
L 641.819805 265.163789 
L 648.613636 301.917832 
L 655.407468 317.78849 
L 662.201299 365.817196 
L 668.99513 353.380947 
L 689.376623 357.518604 
L 696.170455 358.538784 
L 702.964286 336.390643 
L 709.758117 365.081888 
L 716.551948 385.582283 
L 736.933442 381.951278 
L 743.727273 368.741336 
L 750.521104 366.705565 
L 757.314935 342.954652 
L 764.108766 333.457271 
L 784.49026 318.454025 
L 791.284091 336.88467 
L 798.077922 354.339346 
L 804.871753 373.066767 
L 832.047078 367.13139 
L 838.840909 358.151287 
L 845.63474 345.267298 
L 852.428571 421.394841 
L 859.222403 434.368829 
L 879.603896 441.796092 
L 886.397727 420.186802 
L 893.191558 398.580568 
L 899.98539 377.062449 
L 906.779221 402.66691 
L 927.160714 403.622533 
L 933.954545 408.363032 
" clip-path="url(#p161c1f1775)" style="fill: none; stroke: #7f7f7f; stroke-width: 1.5; stroke-linecap: round"/>
   </g>
   <g id="line2d_39">
    <path d="M 173.045455 424.30427 
L 179.839286 421.381784 
L 186.633117 392.419488 
L 193.426948 365.714872 
L 213.808442 347.879495 
L 220.602273 326.735036 
L 227.396104 299.026887 
L 234.189935 281.924027 
L 240.983766 226.41405 
L 268.159091 194.590369 
L 274.952922 180.136041 
L 281.746753 189.604295 
L 288.540584 207.619888 
L 308.922078 213.960993 
L 315.715909 221.623285 
L 322.50974 229.52868 
L 329.303571 224.989022 
L 336.097403 210.9852 
L 356.478896 210.132513 
L 363.272727 225.745389 
L 370.066558 227.751279 
L 376.86039 210.149392 
L 383.654221 189.109719 
L 404.035714 180.82523 
L 410.829545 181.410522 
L 417.623377 181.236228 
L 424.417208 180.968558 
L 431.211039 190.892807 
L 451.592532 208.095379 
L 458.386364 208.482949 
L 465.180195 198.611118 
L 471.974026 193.145416 
L 478.767857 204.238315 
L 505.943182 211.122613 
L 512.737013 236.02934 
L 519.530844 251.846564 
L 526.324675 247.957167 
L 546.706169 255.253675 
L 553.5 256.201994 
L 560.293831 244.974841 
L 567.087662 237.948564 
L 573.881494 231.9196 
L 594.262987 221.676035 
L 601.056818 225.077849 
L 607.850649 219.374846 
L 614.644481 209.081297 
L 621.438312 227.636498 
L 641.819805 250.745951 
L 648.613636 281.303221 
L 655.407468 301.106071 
L 662.201299 334.842826 
L 668.99513 341.323926 
L 689.376623 347.085091 
L 696.170455 349.855276 
L 702.964286 337.134432 
L 709.758117 349.022896 
L 716.551948 361.452339 
L 736.933442 364.141337 
L 743.727273 357.727155 
L 750.521104 352.737058 
L 757.314935 338.471522 
L 764.108766 328.026858 
L 784.49026 314.606816 
L 791.284091 319.532418 
L 798.077922 331.308144 
L 804.871753 345.768626 
L 832.047078 348.344024 
L 838.840909 344.020513 
L 845.63474 336.009373 
L 852.428571 375.410658 
L 859.222403 396.632265 
L 879.603896 410.489729 
L 886.397727 405.673298 
L 893.191558 395.631543 
L 899.98539 379.887085 
L 906.779221 382.889055 
L 927.160714 382.723016 
L 933.954545 385.348306 
" clip-path="url(#p161c1f1775)" style="fill: none; stroke: #bcbd22; stroke-width: 1.5; stroke-linecap: round"/>
   </g>
   <g id="line2d_40">
    <path d="M 234.189935 423.180024 
L 240.983766 376.270513 
L 268.159091 340.303783 
L 274.952922 303.914217 
L 281.746753 267.763886 
L 288.540584 245.457042 
L 308.922078 230.486801 
L 315.715909 219.306745 
L 322.50974 237.928185 
L 329.303571 248.301437 
L 336.097403 253.953049 
L 356.478896 261.050687 
L 363.272727 264.517136 
L 370.066558 265.982632 
L 376.86039 260.085903 
L 383.654221 250.172667 
L 404.035714 247.496121 
L 410.829545 249.809318 
L 417.623377 244.907253 
L 424.417208 232.480048 
L 431.211039 226.202733 
L 451.592532 230.899769 
L 458.386364 237.093665 
L 465.180195 240.055144 
L 471.974026 243.844584 
L 478.767857 250.723064 
L 505.943182 256.257593 
L 512.737013 263.116266 
L 519.530844 266.557027 
L 526.324675 269.881043 
L 546.706169 282.778539 
L 553.5 295.674751 
L 560.293831 301.866619 
L 567.087662 309.270417 
L 573.881494 307.674589 
L 594.262987 301.426207 
L 601.056818 300.710325 
L 607.850649 292.707256 
L 614.644481 283.834785 
L 621.438312 282.508005 
L 641.819805 284.095991 
L 648.613636 291.525679 
L 655.407468 302.741496 
L 662.201299 319.567891 
L 668.99513 341.847289 
L 689.376623 367.20295 
L 696.170455 388.210932 
L 702.964286 404.611854 
L 709.758117 418.793948 
L 716.551948 431.927367 
L 736.933442 436.199132 
L 743.727273 439.230847 
L 750.521104 442.966005 
L 757.314935 442.337868 
L 764.108766 444.767268 
L 784.49026 437.845052 
L 791.284091 428.648778 
L 798.077922 421.773746 
L 804.871753 419.824169 
L 832.047078 417.548084 
L 838.840909 418.584321 
L 845.63474 420.98506 
L 852.428571 425.932011 
L 859.222403 439.309804 
L 879.603896 449.63959 
L 886.397727 454.187297 
L 893.191558 461.269252 
L 899.98539 470.366627 
L 906.779221 485.572385 
L 927.160714 492.48 
L 933.954545 489.574427 
" clip-path="url(#p161c1f1775)" style="fill: none; stroke: #17becf; stroke-width: 1.5; stroke-linecap: round"/>
   </g>
   <g id="line2d_41">
    <path d="M 234.189935 284.644157 
L 240.983766 213.106426 
L 268.159091 187.073213 
L 274.952922 156.508516 
L 281.746753 147.692559 
L 288.540584 155.355804 
L 308.922078 166.066042 
L 315.715909 183.373477 
L 322.50974 197.134357 
L 329.303571 194.08047 
L 336.097403 181.614531 
L 356.478896 184.509153 
L 363.272727 197.0143 
L 370.066558 193.066744 
L 376.86039 177.633445 
L 383.654221 160.956851 
L 404.035714 152.413592 
L 410.829545 144.477919 
L 417.623377 136.02957 
L 424.417208 135.325045 
L 431.211039 148.036371 
L 451.592532 165.828632 
L 458.386364 167.002029 
L 465.180195 164.911979 
L 471.974026 164.150265 
L 478.767857 173.297731 
L 505.943182 171.631937 
L 512.737013 198.768109 
L 519.530844 216.863487 
L 526.324675 223.453383 
L 546.706169 239.705923 
L 553.5 240.405311 
L 560.293831 229.916597 
L 567.087662 221.596688 
L 573.881494 213.363982 
L 594.262987 198.74161 
L 601.056818 198.951439 
L 607.850649 187.60333 
L 614.644481 180.49954 
L 621.438312 198.502036 
L 641.819805 214.449228 
L 648.613636 249.074982 
L 655.407468 274.985502 
L 662.201299 324.814917 
L 668.99513 339.610074 
L 689.376623 358.864112 
L 696.170455 362.290204 
L 702.964286 353.687998 
L 709.758117 365.301842 
L 716.551948 367.655192 
L 736.933442 374.801976 
L 743.727273 371.352968 
L 750.521104 373.871262 
L 757.314935 356.814352 
L 764.108766 342.968904 
L 784.49026 323.273034 
L 791.284091 325.369979 
L 798.077922 329.864823 
L 804.871753 345.705952 
L 832.047078 352.222164 
L 838.840909 356.707747 
L 845.63474 351.501686 
L 852.428571 379.865875 
L 859.222403 399.323659 
L 879.603896 435.078328 
L 886.397727 434.122805 
L 893.191558 433.689153 
L 899.98539 413.265301 
L 906.779221 411.196072 
L 927.160714 405.40223 
L 933.954545 406.379723 
" clip-path="url(#p161c1f1775)" style="fill: none; stroke: #1f77b4; stroke-width: 1.5; stroke-linecap: round"/>
   </g>
   <g id="line2d_42">
    <path d="M 173.045455 449.368177 
L 179.839286 389.117174 
L 186.633117 360.763801 
L 193.426948 347.295898 
L 213.808442 316.816039 
L 220.602273 275.703614 
L 227.396104 265.071049 
L 234.189935 159.454649 
L 240.983766 145.986746 
L 268.159091 141.733774 
L 274.952922 172.922552 
L 281.746753 198.44052 
L 288.540584 194.187548 
L 308.922078 206.237749 
L 315.715909 216.870247 
L 322.50974 199.858223 
L 329.303571 175.048971 
L 336.097403 187.808022 
L 356.478896 221.123286 
L 363.272727 208.364302 
L 370.066558 169.378296 
L 376.86039 143.151477 
L 383.654221 145.986746 
L 404.035714 153.075123 
L 410.829545 150.239854 
L 417.623377 149.531002 
L 424.417208 171.50485 
L 431.211039 198.44052 
L 451.592532 182.137348 
L 458.386364 162.289919 
L 465.180195 161.581203 
L 471.974026 190.643427 
L 478.767857 192.769846 
L 505.943182 240.261864 
L 512.737013 249.47666 
L 519.530844 227.502812 
L 526.324675 249.47666 
L 546.706169 244.514836 
L 553.5 219.705652 
L 560.293831 216.161395 
L 567.087662 209.78187 
L 573.881494 192.769846 
L 594.262987 209.78187 
L 601.056818 192.769846 
L 607.850649 176.466673 
L 614.644481 226.793961 
L 621.438312 256.565037 
L 641.819805 299.803948 
L 648.613636 313.27185 
L 655.407468 369.978664 
L 662.201299 351.548938 
L 668.99513 361.472652 
L 689.376623 362.890287 
L 696.170455 333.828063 
L 702.964286 372.814002 
L 709.758117 386.281837 
L 716.551948 379.902311 
L 736.933442 364.30799 
L 743.727273 361.472652 
L 750.521104 335.245698 
L 757.314935 326.739686 
L 764.108766 306.892325 
L 784.49026 330.283874 
L 791.284091 348.713601 
L 798.077922 367.852111 
L 804.871753 359.346099 
L 832.047078 349.422452 
L 838.840909 337.372251 
L 845.63474 430.93845 
L 852.428571 434.482639 
L 859.222403 445.823988 
L 879.603896 423.850073 
L 886.397727 410.382238 
L 893.191558 386.281837 
L 899.98539 408.255752 
L 906.779221 402.585077 
L 927.160714 408.255752 
L 933.954545 442.2798 
" clip-path="url(#p161c1f1775)" style="fill: none; stroke: #000000; stroke-width: 2; stroke-linecap: round"/>
   </g>
   <g id="patch_3">
    <path d="M 135 512.64 
L 135 69.12 
" style="fill: none; stroke: #cccccc; stroke-linejoin: miter; stroke-linecap: square"/>
   </g>
   <g id="patch_4">
    <path d="M 972 512.64 
L 972 69.12 
" style="fill: none; stroke: #cccccc; stroke-linejoin: miter; stroke-linecap: square"/>
   </g>
   <g id="patch_5">
    <path d="M 135 512.64 
L 972 512.64 
" style="fill: none; stroke: #cccccc; stroke-linejoin: miter; stroke-linecap: square"/>
   </g>
   <g id="patch_6">
    <path d="M 135 69.12 
L 972 69.12 
" style="fill: none; stroke: #cccccc; stroke-linejoin: miter; stroke-linecap: square"/>
   </g>
   <g id="text_18">
    <!-- Tahminler ve Gerçek Değerler -->
    <g style="fill: #262626" transform="translate(473.811563 63.12) scale(0.12 -0.12)">
     <defs>
      <path id="ArialMT-54" d="M 1659 0 
L 1659 4041 
L 150 4041 
L 150 4581 
L 3781 4581 
L 3781 4041 
L 2266 4041 
L 2266 0 
L 1659 0 
z
" transform="scale(0.015625)"/>
      <path id="ArialMT-68" d="M 422 0 
L 422 4581 
L 984 4581 
L 984 2938 
Q 1378 3394 1978 3394 
Q 2347 3394 2619 3248 
Q 2891 3103 3008 2847 
Q 3125 2591 3125 2103 
L 3125 0 
L 2563 0 
L 2563 2103 
Q 2563 2525 2380 2717 
Q 2197 2909 1863 2909 
Q 1613 2909 1392 2779 
Q 1172 2650 1078 2428 
Q 984 2206 984 1816 
L 984 0 
L 422 0 
z
" transform="scale(0.015625)"/>
      <path id="ArialMT-6d" d="M 422 0 
L 422 3319 
L 925 3319 
L 925 2853 
Q 1081 3097 1340 3245 
Q 1600 3394 1931 3394 
Q 2300 3394 2536 3241 
Q 2772 3088 2869 2813 
Q 3263 3394 3894 3394 
Q 4388 3394 4653 3120 
Q 4919 2847 4919 2278 
L 4919 0 
L 4359 0 
L 4359 2091 
Q 4359 2428 4304 2576 
Q 4250 2725 4106 2815 
Q 3963 2906 3769 2906 
Q 3419 2906 3187 2673 
Q 2956 2441 2956 1928 
L 2956 0 
L 2394 0 
L 2394 2156 
Q 2394 2531 2256 2718 
Q 2119 2906 1806 2906 
Q 1569 2906 1367 2781 
Q 1166 2656 1075 2415 
Q 984 2175 984 1722 
L 984 0 
L 422 0 
z
" transform="scale(0.015625)"/>
      <path id="ArialMT-69" d="M 425 3934 
L 425 4581 
L 988 4581 
L 988 3934 
L 425 3934 
z
M 425 0 
L 425 3319 
L 988 3319 
L 988 0 
L 425 0 
z
" transform="scale(0.015625)"/>
      <path id="ArialMT-6e" d="M 422 0 
L 422 3319 
L 928 3319 
L 928 2847 
Q 1294 3394 1984 3394 
Q 2284 3394 2536 3286 
Q 2788 3178 2913 3003 
Q 3038 2828 3088 2588 
Q 3119 2431 3119 2041 
L 3119 0 
L 2556 0 
L 2556 2019 
Q 2556 2363 2490 2533 
Q 2425 2703 2258 2804 
Q 2091 2906 1866 2906 
Q 1506 2906 1245 2678 
Q 984 2450 984 1813 
L 984 0 
L 422 0 
z
" transform="scale(0.015625)"/>
      <path id="ArialMT-72" d="M 416 0 
L 416 3319 
L 922 3319 
L 922 2816 
Q 1116 3169 1280 3281 
Q 1444 3394 1641 3394 
Q 1925 3394 2219 3213 
L 2025 2691 
Q 1819 2813 1613 2813 
Q 1428 2813 1281 2702 
Q 1134 2591 1072 2394 
Q 978 2094 978 1738 
L 978 0 
L 416 0 
z
" transform="scale(0.015625)"/>
      <path id="ArialMT-76" d="M 1344 0 
L 81 3319 
L 675 3319 
L 1388 1331 
Q 1503 1009 1600 663 
Q 1675 925 1809 1294 
L 2547 3319 
L 3125 3319 
L 1869 0 
L 1344 0 
z
" transform="scale(0.015625)"/>
      <path id="ArialMT-47" d="M 2638 1797 
L 2638 2334 
L 4578 2338 
L 4578 638 
Q 4131 281 3656 101 
Q 3181 -78 2681 -78 
Q 2006 -78 1454 211 
Q 903 500 622 1047 
Q 341 1594 341 2269 
Q 341 2938 620 3517 
Q 900 4097 1425 4378 
Q 1950 4659 2634 4659 
Q 3131 4659 3532 4498 
Q 3934 4338 4162 4050 
Q 4391 3763 4509 3300 
L 3963 3150 
Q 3859 3500 3706 3700 
Q 3553 3900 3268 4020 
Q 2984 4141 2638 4141 
Q 2222 4141 1919 4014 
Q 1616 3888 1430 3681 
Q 1244 3475 1141 3228 
Q 966 2803 966 2306 
Q 966 1694 1177 1281 
Q 1388 869 1791 669 
Q 2194 469 2647 469 
Q 3041 469 3416 620 
Q 3791 772 3984 944 
L 3984 1797 
L 2638 1797 
z
" transform="scale(0.015625)"/>
      <path id="ArialMT-e7" d="M 2588 1216 
L 3141 1144 
Q 3050 572 2676 248 
Q 2303 -75 1759 -75 
Q 1078 -75 664 370 
Q 250 816 250 1647 
Q 250 2184 428 2587 
Q 606 2991 970 3192 
Q 1334 3394 1763 3394 
Q 2303 3394 2647 3120 
Q 2991 2847 3088 2344 
L 2541 2259 
Q 2463 2594 2264 2762 
Q 2066 2931 1784 2931 
Q 1359 2931 1093 2626 
Q 828 2322 828 1663 
Q 828 994 1084 691 
Q 1341 388 1753 388 
Q 2084 388 2306 591 
Q 2528 794 2588 1216 
z
M 1283 -417 
L 1446 136 
L 1864 136 
L 1761 -199 
Q 2027 -230 2161 -362 
Q 2296 -495 2296 -658 
Q 2296 -892 2071 -1072 
Q 1846 -1252 1392 -1252 
Q 1136 -1252 942 -1214 
L 977 -849 
Q 1177 -861 1271 -861 
Q 1564 -861 1683 -780 
Q 1774 -717 1774 -627 
Q 1774 -570 1738 -526 
Q 1702 -483 1605 -451 
Q 1508 -420 1283 -417 
z
" transform="scale(0.015625)"/>
      <path id="ArialMT-6b" d="M 425 0 
L 425 4581 
L 988 4581 
L 988 1969 
L 2319 3319 
L 3047 3319 
L 1778 2088 
L 3175 0 
L 2481 0 
L 1384 1697 
L 988 1316 
L 988 0 
L 425 0 
z
" transform="scale(0.015625)"/>
      <path id="ArialMT-11f" d="M 319 -275 
L 866 -356 
Q 900 -609 1056 -725 
Q 1266 -881 1628 -881 
Q 2019 -881 2231 -725 
Q 2444 -569 2519 -288 
Q 2563 -116 2559 434 
Q 2191 0 1641 0 
Q 956 0 581 494 
Q 206 988 206 1678 
Q 206 2153 378 2554 
Q 550 2956 876 3175 
Q 1203 3394 1644 3394 
Q 2231 3394 2613 2919 
L 2613 3319 
L 3131 3319 
L 3131 450 
Q 3131 -325 2973 -648 
Q 2816 -972 2473 -1159 
Q 2131 -1347 1631 -1347 
Q 1038 -1347 672 -1080 
Q 306 -813 319 -275 
z
M 784 1719 
Q 784 1066 1043 766 
Q 1303 466 1694 466 
Q 2081 466 2343 764 
Q 2606 1063 2606 1700 
Q 2606 2309 2336 2618 
Q 2066 2928 1684 2928 
Q 1309 2928 1046 2623 
Q 784 2319 784 1719 
z
M 2318 4575 
L 2703 4575 
Q 2656 4184 2417 3975 
Q 2178 3766 1781 3766 
Q 1381 3766 1142 3973 
Q 903 4181 856 4575 
L 1240 4575 
Q 1284 4363 1413 4258 
Q 1543 4153 1762 4153 
Q 2015 4153 2145 4254 
Q 2275 4356 2318 4575 
z
" transform="scale(0.015625)"/>
     </defs>
     <use xlink:href="#ArialMT-54"/>
     <use xlink:href="#ArialMT-61" x="49.958984"/>
     <use xlink:href="#ArialMT-68" x="105.574219"/>
     <use xlink:href="#ArialMT-6d" x="161.189453"/>
     <use xlink:href="#ArialMT-69" x="244.490234"/>
     <use xlink:href="#ArialMT-6e" x="266.707031"/>
     <use xlink:href="#ArialMT-6c" x="322.322266"/>
     <use xlink:href="#ArialMT-65" x="344.539062"/>
     <use xlink:href="#ArialMT-72" x="400.154297"/>
     <use xlink:href="#ArialMT-20" x="433.455078"/>
     <use xlink:href="#ArialMT-76" x="461.238281"/>
     <use xlink:href="#ArialMT-65" x="511.238281"/>
     <use xlink:href="#ArialMT-20" x="566.853516"/>
     <use xlink:href="#ArialMT-47" x="594.636719"/>
     <use xlink:href="#ArialMT-65" x="672.419922"/>
     <use xlink:href="#ArialMT-72" x="728.035156"/>
     <use xlink:href="#ArialMT-e7" x="761.335938"/>
     <use xlink:href="#ArialMT-65" x="811.335938"/>
     <use xlink:href="#ArialMT-6b" x="866.951172"/>
     <use xlink:href="#ArialMT-20" x="916.951172"/>
     <use xlink:href="#ArialMT-44" x="944.734375"/>
     <use xlink:href="#ArialMT-65" x="1016.951172"/>
     <use xlink:href="#ArialMT-11f" x="1072.566406"/>
     <use xlink:href="#ArialMT-65" x="1128.181641"/>
     <use xlink:href="#ArialMT-72" x="1183.796875"/>
     <use xlink:href="#ArialMT-6c" x="1217.097656"/>
     <use xlink:href="#ArialMT-65" x="1239.314453"/>
     <use xlink:href="#ArialMT-72" x="1294.929688"/>
    </g>
   </g>
   <g id="legend_1">
    <g id="line2d_43">
     <path d="M 841.63125 81.777813 
L 851.63125 81.777813 
L 861.63125 81.777813 
" style="fill: none; stroke: #1f77b4; stroke-width: 1.5; stroke-linecap: round"/>
    </g>
    <g id="text_19">
     <!-- Random Forest -->
     <g style="fill: #262626" transform="translate(869.63125 85.277813) scale(0.1 -0.1)">
      <defs>
       <path id="ArialMT-52" d="M 503 0 
L 503 4581 
L 2534 4581 
Q 3147 4581 3465 4457 
Q 3784 4334 3975 4021 
Q 4166 3709 4166 3331 
Q 4166 2844 3850 2509 
Q 3534 2175 2875 2084 
Q 3116 1969 3241 1856 
Q 3506 1613 3744 1247 
L 4541 0 
L 3778 0 
L 3172 953 
Q 2906 1366 2734 1584 
Q 2563 1803 2427 1890 
Q 2291 1978 2150 2013 
Q 2047 2034 1813 2034 
L 1109 2034 
L 1109 0 
L 503 0 
z
M 1109 2559 
L 2413 2559 
Q 2828 2559 3062 2645 
Q 3297 2731 3419 2920 
Q 3541 3109 3541 3331 
Q 3541 3656 3305 3865 
Q 3069 4075 2559 4075 
L 1109 4075 
L 1109 2559 
z
" transform="scale(0.015625)"/>
       <path id="ArialMT-46" d="M 525 0 
L 525 4581 
L 3616 4581 
L 3616 4041 
L 1131 4041 
L 1131 2622 
L 3281 2622 
L 3281 2081 
L 1131 2081 
L 1131 0 
L 525 0 
z
" transform="scale(0.015625)"/>
      </defs>
      <use xlink:href="#ArialMT-52"/>
      <use xlink:href="#ArialMT-61" x="72.216797"/>
      <use xlink:href="#ArialMT-6e" x="127.832031"/>
      <use xlink:href="#ArialMT-64" x="183.447266"/>
      <use xlink:href="#ArialMT-6f" x="239.0625"/>
      <use xlink:href="#ArialMT-6d" x="294.677734"/>
      <use xlink:href="#ArialMT-20" x="377.978516"/>
      <use xlink:href="#ArialMT-46" x="405.761719"/>
      <use xlink:href="#ArialMT-6f" x="466.845703"/>
      <use xlink:href="#ArialMT-72" x="522.460938"/>
      <use xlink:href="#ArialMT-65" x="555.761719"/>
      <use xlink:href="#ArialMT-73" x="611.376953"/>
      <use xlink:href="#ArialMT-74" x="661.376953"/>
     </g>
    </g>
    <g id="line2d_44">
     <path d="M 841.63125 96.045 
L 851.63125 96.045 
L 861.63125 96.045 
" style="fill: none; stroke: #ff7f0e; stroke-width: 1.5; stroke-linecap: round"/>
    </g>
    <g id="text_20">
     <!-- Gradient Boosting -->
     <g style="fill: #262626" transform="translate(869.63125 99.545) scale(0.1 -0.1)">
      <defs>
       <path id="ArialMT-42" d="M 469 0 
L 469 4581 
L 2188 4581 
Q 2713 4581 3030 4442 
Q 3347 4303 3526 4014 
Q 3706 3725 3706 3409 
Q 3706 3116 3547 2856 
Q 3388 2597 3066 2438 
Q 3481 2316 3704 2022 
Q 3928 1728 3928 1328 
Q 3928 1006 3792 729 
Q 3656 453 3456 303 
Q 3256 153 2954 76 
Q 2653 0 2216 0 
L 469 0 
z
M 1075 2656 
L 2066 2656 
Q 2469 2656 2644 2709 
Q 2875 2778 2992 2937 
Q 3109 3097 3109 3338 
Q 3109 3566 3000 3739 
Q 2891 3913 2687 3977 
Q 2484 4041 1991 4041 
L 1075 4041 
L 1075 2656 
z
M 1075 541 
L 2216 541 
Q 2509 541 2628 563 
Q 2838 600 2978 687 
Q 3119 775 3209 942 
Q 3300 1109 3300 1328 
Q 3300 1584 3169 1773 
Q 3038 1963 2805 2039 
Q 2572 2116 2134 2116 
L 1075 2116 
L 1075 541 
z
" transform="scale(0.015625)"/>
       <path id="ArialMT-67" d="M 319 -275 
L 866 -356 
Q 900 -609 1056 -725 
Q 1266 -881 1628 -881 
Q 2019 -881 2231 -725 
Q 2444 -569 2519 -288 
Q 2563 -116 2559 434 
Q 2191 0 1641 0 
Q 956 0 581 494 
Q 206 988 206 1678 
Q 206 2153 378 2554 
Q 550 2956 876 3175 
Q 1203 3394 1644 3394 
Q 2231 3394 2613 2919 
L 2613 3319 
L 3131 3319 
L 3131 450 
Q 3131 -325 2973 -648 
Q 2816 -972 2473 -1159 
Q 2131 -1347 1631 -1347 
Q 1038 -1347 672 -1080 
Q 306 -813 319 -275 
z
M 784 1719 
Q 784 1066 1043 766 
Q 1303 466 1694 466 
Q 2081 466 2343 764 
Q 2606 1063 2606 1700 
Q 2606 2309 2336 2618 
Q 2066 2928 1684 2928 
Q 1309 2928 1046 2623 
Q 784 2319 784 1719 
z
" transform="scale(0.015625)"/>
      </defs>
      <use xlink:href="#ArialMT-47"/>
      <use xlink:href="#ArialMT-72" x="77.783203"/>
      <use xlink:href="#ArialMT-61" x="111.083984"/>
      <use xlink:href="#ArialMT-64" x="166.699219"/>
      <use xlink:href="#ArialMT-69" x="222.314453"/>
      <use xlink:href="#ArialMT-65" x="244.53125"/>
      <use xlink:href="#ArialMT-6e" x="300.146484"/>
      <use xlink:href="#ArialMT-74" x="355.761719"/>
      <use xlink:href="#ArialMT-20" x="383.544922"/>
      <use xlink:href="#ArialMT-42" x="411.328125"/>
      <use xlink:href="#ArialMT-6f" x="478.027344"/>
      <use xlink:href="#ArialMT-6f" x="533.642578"/>
      <use xlink:href="#ArialMT-73" x="589.257812"/>
      <use xlink:href="#ArialMT-74" x="639.257812"/>
      <use xlink:href="#ArialMT-69" x="667.041016"/>
      <use xlink:href="#ArialMT-6e" x="689.257812"/>
      <use xlink:href="#ArialMT-67" x="744.873047"/>
     </g>
    </g>
    <g id="line2d_45">
     <path d="M 841.63125 110.3075 
L 851.63125 110.3075 
L 861.63125 110.3075 
" style="fill: none; stroke: #2ca02c; stroke-width: 1.5; stroke-linecap: round"/>
    </g>
    <g id="text_21">
     <!-- Linear Regression -->
     <g style="fill: #262626" transform="translate(869.63125 113.8075) scale(0.1 -0.1)">
      <defs>
       <path id="ArialMT-4c" d="M 469 0 
L 469 4581 
L 1075 4581 
L 1075 541 
L 3331 541 
L 3331 0 
L 469 0 
z
" transform="scale(0.015625)"/>
      </defs>
      <use xlink:href="#ArialMT-4c"/>
      <use xlink:href="#ArialMT-69" x="55.615234"/>
      <use xlink:href="#ArialMT-6e" x="77.832031"/>
      <use xlink:href="#ArialMT-65" x="133.447266"/>
      <use xlink:href="#ArialMT-61" x="189.0625"/>
      <use xlink:href="#ArialMT-72" x="244.677734"/>
      <use xlink:href="#ArialMT-20" x="277.978516"/>
      <use xlink:href="#ArialMT-52" x="305.761719"/>
      <use xlink:href="#ArialMT-65" x="377.978516"/>
      <use xlink:href="#ArialMT-67" x="433.59375"/>
      <use xlink:href="#ArialMT-72" x="489.208984"/>
      <use xlink:href="#ArialMT-65" x="522.509766"/>
      <use xlink:href="#ArialMT-73" x="578.125"/>
      <use xlink:href="#ArialMT-73" x="628.125"/>
      <use xlink:href="#ArialMT-69" x="678.125"/>
      <use xlink:href="#ArialMT-6f" x="700.341797"/>
      <use xlink:href="#ArialMT-6e" x="755.957031"/>
     </g>
    </g>
    <g id="line2d_46">
     <path d="M 841.63125 124.57 
L 851.63125 124.57 
L 861.63125 124.57 
" style="fill: none; stroke: #d62728; stroke-width: 1.5; stroke-linecap: round"/>
    </g>
    <g id="text_22">
     <!-- Decision Tree -->
     <g style="fill: #262626" transform="translate(869.63125 128.07) scale(0.1 -0.1)">
      <defs>
       <path id="ArialMT-63" d="M 2588 1216 
L 3141 1144 
Q 3050 572 2676 248 
Q 2303 -75 1759 -75 
Q 1078 -75 664 370 
Q 250 816 250 1647 
Q 250 2184 428 2587 
Q 606 2991 970 3192 
Q 1334 3394 1763 3394 
Q 2303 3394 2647 3120 
Q 2991 2847 3088 2344 
L 2541 2259 
Q 2463 2594 2264 2762 
Q 2066 2931 1784 2931 
Q 1359 2931 1093 2626 
Q 828 2322 828 1663 
Q 828 994 1084 691 
Q 1341 388 1753 388 
Q 2084 388 2306 591 
Q 2528 794 2588 1216 
z
" transform="scale(0.015625)"/>
      </defs>
      <use xlink:href="#ArialMT-44"/>
      <use xlink:href="#ArialMT-65" x="72.216797"/>
      <use xlink:href="#ArialMT-63" x="127.832031"/>
      <use xlink:href="#ArialMT-69" x="177.832031"/>
      <use xlink:href="#ArialMT-73" x="200.048828"/>
      <use xlink:href="#ArialMT-69" x="250.048828"/>
      <use xlink:href="#ArialMT-6f" x="272.265625"/>
      <use xlink:href="#ArialMT-6e" x="327.880859"/>
      <use xlink:href="#ArialMT-20" x="383.496094"/>
      <use xlink:href="#ArialMT-54" x="409.529297"/>
      <use xlink:href="#ArialMT-72" x="466.863281"/>
      <use xlink:href="#ArialMT-65" x="500.164062"/>
      <use xlink:href="#ArialMT-65" x="555.779297"/>
     </g>
    </g>
    <g id="line2d_47">
     <path d="M 841.63125 138.715313 
L 851.63125 138.715313 
L 861.63125 138.715313 
" style="fill: none; stroke: #9467bd; stroke-width: 1.5; stroke-linecap: round"/>
    </g>
    <g id="text_23">
     <!-- SVR -->
     <g style="fill: #262626" transform="translate(869.63125 142.215313) scale(0.1 -0.1)">
      <defs>
       <path id="ArialMT-53" d="M 288 1472 
L 859 1522 
Q 900 1178 1048 958 
Q 1197 738 1509 602 
Q 1822 466 2213 466 
Q 2559 466 2825 569 
Q 3091 672 3220 851 
Q 3350 1031 3350 1244 
Q 3350 1459 3225 1620 
Q 3100 1781 2813 1891 
Q 2628 1963 1997 2114 
Q 1366 2266 1113 2400 
Q 784 2572 623 2826 
Q 463 3081 463 3397 
Q 463 3744 659 4045 
Q 856 4347 1234 4503 
Q 1613 4659 2075 4659 
Q 2584 4659 2973 4495 
Q 3363 4331 3572 4012 
Q 3781 3694 3797 3291 
L 3216 3247 
Q 3169 3681 2898 3903 
Q 2628 4125 2100 4125 
Q 1550 4125 1298 3923 
Q 1047 3722 1047 3438 
Q 1047 3191 1225 3031 
Q 1400 2872 2139 2705 
Q 2878 2538 3153 2413 
Q 3553 2228 3743 1945 
Q 3934 1663 3934 1294 
Q 3934 928 3725 604 
Q 3516 281 3123 101 
Q 2731 -78 2241 -78 
Q 1619 -78 1198 103 
Q 778 284 539 648 
Q 300 1013 288 1472 
z
" transform="scale(0.015625)"/>
       <path id="ArialMT-56" d="M 1803 0 
L 28 4581 
L 684 4581 
L 1875 1253 
Q 2019 853 2116 503 
Q 2222 878 2363 1253 
L 3600 4581 
L 4219 4581 
L 2425 0 
L 1803 0 
z
" transform="scale(0.015625)"/>
      </defs>
      <use xlink:href="#ArialMT-53"/>
      <use xlink:href="#ArialMT-56" x="66.699219"/>
      <use xlink:href="#ArialMT-52" x="133.398438"/>
     </g>
    </g>
    <g id="line2d_48">
     <path d="M 841.63125 152.860625 
L 851.63125 152.860625 
L 861.63125 152.860625 
" style="fill: none; stroke: #8c564b; stroke-width: 1.5; stroke-linecap: round"/>
    </g>
    <g id="text_24">
     <!-- K-Nearest Neighbors -->
     <g style="fill: #262626" transform="translate(869.63125 156.360625) scale(0.1 -0.1)">
      <defs>
       <path id="ArialMT-4b" d="M 469 0 
L 469 4581 
L 1075 4581 
L 1075 2309 
L 3350 4581 
L 4172 4581 
L 2250 2725 
L 4256 0 
L 3456 0 
L 1825 2319 
L 1075 1588 
L 1075 0 
L 469 0 
z
" transform="scale(0.015625)"/>
       <path id="ArialMT-4e" d="M 488 0 
L 488 4581 
L 1109 4581 
L 3516 984 
L 3516 4581 
L 4097 4581 
L 4097 0 
L 3475 0 
L 1069 3600 
L 1069 0 
L 488 0 
z
" transform="scale(0.015625)"/>
       <path id="ArialMT-62" d="M 941 0 
L 419 0 
L 419 4581 
L 981 4581 
L 981 2947 
Q 1338 3394 1891 3394 
Q 2197 3394 2470 3270 
Q 2744 3147 2920 2923 
Q 3097 2700 3197 2384 
Q 3297 2069 3297 1709 
Q 3297 856 2875 390 
Q 2453 -75 1863 -75 
Q 1275 -75 941 416 
L 941 0 
z
M 934 1684 
Q 934 1088 1097 822 
Q 1363 388 1816 388 
Q 2184 388 2453 708 
Q 2722 1028 2722 1663 
Q 2722 2313 2464 2622 
Q 2206 2931 1841 2931 
Q 1472 2931 1203 2611 
Q 934 2291 934 1684 
z
" transform="scale(0.015625)"/>
      </defs>
      <use xlink:href="#ArialMT-4b"/>
      <use xlink:href="#ArialMT-2d" x="66.699219"/>
      <use xlink:href="#ArialMT-4e" x="100"/>
      <use xlink:href="#ArialMT-65" x="172.216797"/>
      <use xlink:href="#ArialMT-61" x="227.832031"/>
      <use xlink:href="#ArialMT-72" x="283.447266"/>
      <use xlink:href="#ArialMT-65" x="316.748047"/>
      <use xlink:href="#ArialMT-73" x="372.363281"/>
      <use xlink:href="#ArialMT-74" x="422.363281"/>
      <use xlink:href="#ArialMT-20" x="450.146484"/>
      <use xlink:href="#ArialMT-4e" x="477.929688"/>
      <use xlink:href="#ArialMT-65" x="550.146484"/>
      <use xlink:href="#ArialMT-69" x="605.761719"/>
      <use xlink:href="#ArialMT-67" x="627.978516"/>
      <use xlink:href="#ArialMT-68" x="683.59375"/>
      <use xlink:href="#ArialMT-62" x="739.208984"/>
      <use xlink:href="#ArialMT-6f" x="794.824219"/>
      <use xlink:href="#ArialMT-72" x="850.439453"/>
      <use xlink:href="#ArialMT-73" x="883.740234"/>
     </g>
    </g>
    <g id="line2d_49">
     <path d="M 841.63125 167.123125 
L 851.63125 167.123125 
L 861.63125 167.123125 
" style="fill: none; stroke: #e377c2; stroke-width: 1.5; stroke-linecap: round"/>
    </g>
    <g id="text_25">
     <!-- XGBoost -->
     <g style="fill: #262626" transform="translate(869.63125 170.623125) scale(0.1 -0.1)">
      <defs>
       <path id="ArialMT-58" d="M 28 0 
L 1800 2388 
L 238 4581 
L 959 4581 
L 1791 3406 
Q 2050 3041 2159 2844 
Q 2313 3094 2522 3366 
L 3444 4581 
L 4103 4581 
L 2494 2422 
L 4228 0 
L 3478 0 
L 2325 1634 
Q 2228 1775 2125 1941 
Q 1972 1691 1906 1597 
L 756 0 
L 28 0 
z
" transform="scale(0.015625)"/>
      </defs>
      <use xlink:href="#ArialMT-58"/>
      <use xlink:href="#ArialMT-47" x="66.699219"/>
      <use xlink:href="#ArialMT-42" x="144.482422"/>
      <use xlink:href="#ArialMT-6f" x="211.181641"/>
      <use xlink:href="#ArialMT-6f" x="266.796875"/>
      <use xlink:href="#ArialMT-73" x="322.412109"/>
      <use xlink:href="#ArialMT-74" x="372.412109"/>
     </g>
    </g>
    <g id="line2d_50">
     <path d="M 841.63125 181.268438 
L 851.63125 181.268438 
L 861.63125 181.268438 
" style="fill: none; stroke: #7f7f7f; stroke-width: 1.5; stroke-linecap: round"/>
    </g>
    <g id="text_26">
     <!-- Ridge Regression -->
     <g style="fill: #262626" transform="translate(869.63125 184.768438) scale(0.1 -0.1)">
      <use xlink:href="#ArialMT-52"/>
      <use xlink:href="#ArialMT-69" x="72.216797"/>
      <use xlink:href="#ArialMT-64" x="94.433594"/>
      <use xlink:href="#ArialMT-67" x="150.048828"/>
      <use xlink:href="#ArialMT-65" x="205.664062"/>
      <use xlink:href="#ArialMT-20" x="261.279297"/>
      <use xlink:href="#ArialMT-52" x="289.0625"/>
      <use xlink:href="#ArialMT-65" x="361.279297"/>
      <use xlink:href="#ArialMT-67" x="416.894531"/>
      <use xlink:href="#ArialMT-72" x="472.509766"/>
      <use xlink:href="#ArialMT-65" x="505.810547"/>
      <use xlink:href="#ArialMT-73" x="561.425781"/>
      <use xlink:href="#ArialMT-73" x="611.425781"/>
      <use xlink:href="#ArialMT-69" x="661.425781"/>
      <use xlink:href="#ArialMT-6f" x="683.642578"/>
      <use xlink:href="#ArialMT-6e" x="739.257812"/>
     </g>
    </g>
    <g id="line2d_51">
     <path d="M 841.63125 195.530938 
L 851.63125 195.530938 
L 861.63125 195.530938 
" style="fill: none; stroke: #bcbd22; stroke-width: 1.5; stroke-linecap: round"/>
    </g>
    <g id="text_27">
     <!-- ElasticNet -->
     <g style="fill: #262626" transform="translate(869.63125 199.030938) scale(0.1 -0.1)">
      <defs>
       <path id="ArialMT-45" d="M 506 0 
L 506 4581 
L 3819 4581 
L 3819 4041 
L 1113 4041 
L 1113 2638 
L 3647 2638 
L 3647 2100 
L 1113 2100 
L 1113 541 
L 3925 541 
L 3925 0 
L 506 0 
z
" transform="scale(0.015625)"/>
      </defs>
      <use xlink:href="#ArialMT-45"/>
      <use xlink:href="#ArialMT-6c" x="66.699219"/>
      <use xlink:href="#ArialMT-61" x="88.916016"/>
      <use xlink:href="#ArialMT-73" x="144.53125"/>
      <use xlink:href="#ArialMT-74" x="194.53125"/>
      <use xlink:href="#ArialMT-69" x="222.314453"/>
      <use xlink:href="#ArialMT-63" x="244.53125"/>
      <use xlink:href="#ArialMT-4e" x="294.53125"/>
      <use xlink:href="#ArialMT-65" x="366.748047"/>
      <use xlink:href="#ArialMT-74" x="422.363281"/>
     </g>
    </g>
    <g id="line2d_52">
     <path d="M 841.63125 209.67625 
L 851.63125 209.67625 
L 861.63125 209.67625 
" style="fill: none; stroke: #17becf; stroke-width: 1.5; stroke-linecap: round"/>
    </g>
    <g id="text_28">
     <!-- LSTM -->
     <g style="fill: #262626" transform="translate(869.63125 213.17625) scale(0.1 -0.1)">
      <defs>
       <path id="ArialMT-4d" d="M 475 0 
L 475 4581 
L 1388 4581 
L 2472 1338 
Q 2622 884 2691 659 
Q 2769 909 2934 1394 
L 4031 4581 
L 4847 4581 
L 4847 0 
L 4263 0 
L 4263 3834 
L 2931 0 
L 2384 0 
L 1059 3900 
L 1059 0 
L 475 0 
z
" transform="scale(0.015625)"/>
      </defs>
      <use xlink:href="#ArialMT-4c"/>
      <use xlink:href="#ArialMT-53" x="55.615234"/>
      <use xlink:href="#ArialMT-54" x="122.314453"/>
      <use xlink:href="#ArialMT-4d" x="183.398438"/>
     </g>
    </g>
    <g id="line2d_53">
     <path d="M 841.63125 223.821563 
L 851.63125 223.821563 
L 861.63125 223.821563 
" style="fill: none; stroke: #1f77b4; stroke-width: 1.5; stroke-linecap: round"/>
    </g>
    <g id="text_29">
     <!-- RNN -->
     <g style="fill: #262626" transform="translate(869.63125 227.321563) scale(0.1 -0.1)">
      <use xlink:href="#ArialMT-52"/>
      <use xlink:href="#ArialMT-4e" x="72.216797"/>
      <use xlink:href="#ArialMT-4e" x="144.433594"/>
     </g>
    </g>
    <g id="line2d_54">
     <path d="M 841.63125 238.08875 
L 851.63125 238.08875 
L 861.63125 238.08875 
" style="fill: none; stroke: #000000; stroke-width: 2; stroke-linecap: round"/>
    </g>
    <g id="text_30">
     <!-- Gerçek Değerler -->
     <g style="fill: #262626" transform="translate(869.63125 241.58875) scale(0.1 -0.1)">
      <use xlink:href="#ArialMT-47"/>
      <use xlink:href="#ArialMT-65" x="77.783203"/>
      <use xlink:href="#ArialMT-72" x="133.398438"/>
      <use xlink:href="#ArialMT-e7" x="166.699219"/>
      <use xlink:href="#ArialMT-65" x="216.699219"/>
      <use xlink:href="#ArialMT-6b" x="272.314453"/>
      <use xlink:href="#ArialMT-20" x="322.314453"/>
      <use xlink:href="#ArialMT-44" x="350.097656"/>
      <use xlink:href="#ArialMT-65" x="422.314453"/>
      <use xlink:href="#ArialMT-11f" x="477.929688"/>
      <use xlink:href="#ArialMT-65" x="533.544922"/>
      <use xlink:href="#ArialMT-72" x="589.160156"/>
      <use xlink:href="#ArialMT-6c" x="622.460938"/>
      <use xlink:href="#ArialMT-65" x="644.677734"/>
      <use xlink:href="#ArialMT-72" x="700.292969"/>
     </g>
    </g>
   </g>
  </g>
 </g>
 <defs>
  <clipPath id="p161c1f1775">
   <rect x="135" y="69.12" width="837" height="443.52"/>
  </clipPath>
 </defs>
</svg>
