<?xml version="1.0" encoding="utf-8" standalone="no"?>
<!DOCTYPE svg PUBLIC "-//W3C//DTD SVG 1.1//EN"
  "http://www.w3.org/Graphics/SVG/1.1/DTD/svg11.dtd">
<svg xmlns:xlink="http://www.w3.org/1999/xlink" width="1080pt" height="576pt" viewBox="0 0 1080 576" xmlns="http://www.w3.org/2000/svg" version="1.1">
 <metadata>
  <rdf:RDF xmlns:dc="http://purl.org/dc/elements/1.1/" xmlns:cc="http://creativecommons.org/ns#" xmlns:rdf="http://www.w3.org/1999/02/22-rdf-syntax-ns#">
   <cc:Work>
    <dc:type rdf:resource="http://purl.org/dc/dcmitype/StillImage"/>
    <dc:date>2023-05-23T14:23:20.375020</dc:date>
    <dc:format>image/svg+xml</dc:format>
    <dc:creator>
     <cc:Agent>
      <dc:title>Matplotlib v3.7.1, https://matplotlib.org/</dc:title>
     </cc:Agent>
    </dc:creator>
   </cc:Work>
  </rdf:RDF>
 </metadata>
 <defs>
  <style type="text/css">*{stroke-linejoin: round; stroke-linecap: butt}</style>
 </defs>
 <g id="figure_1">
  <g id="patch_1">
   <path d="M 0 576 
L 1080 576 
L 1080 0 
L 0 0 
z
" style="fill: #ffffff"/>
  </g>
  <g id="axes_1">
   <g id="patch_2">
    <path d="M 135 512.64 
L 972 512.64 
L 972 69.12 
L 135 69.12 
z
" style="fill: #ffffff"/>
   </g>
   <g id="matplotlib.axis_1">
    <g id="xtick_1">
     <g id="line2d_1">
      <path d="M 190.080733 512.64 
L 190.080733 69.12 
" clip-path="url(#pb3b8158431)" style="fill: none; stroke: #cccccc; stroke-width: 0.8; stroke-linecap: round"/>
     </g>
     <g id="line2d_2"/>
     <g id="text_1">
      <!-- 2022-12-15 -->
      <g style="fill: #262626" transform="translate(164.507295 523.297812) scale(0.1 -0.1)">
       <defs>
        <path id="ArialMT-32" d="M 3222 541 
L 3222 0 
L 194 0 
Q 188 203 259 391 
Q 375 700 629 1000 
Q 884 1300 1366 1694 
Q 2113 2306 2375 2664 
Q 2638 3022 2638 3341 
Q 2638 3675 2398 3904 
Q 2159 4134 1775 4134 
Q 1369 4134 1125 3890 
Q 881 3647 878 3216 
L 300 3275 
Q 359 3922 746 4261 
Q 1134 4600 1788 4600 
Q 2447 4600 2831 4234 
Q 3216 3869 3216 3328 
Q 3216 3053 3103 2787 
Q 2991 2522 2730 2228 
Q 2469 1934 1863 1422 
Q 1356 997 1212 845 
Q 1069 694 975 541 
L 3222 541 
z
" transform="scale(0.015625)"/>
        <path id="ArialMT-30" d="M 266 2259 
Q 266 3072 433 3567 
Q 600 4063 929 4331 
Q 1259 4600 1759 4600 
Q 2128 4600 2406 4451 
Q 2684 4303 2865 4023 
Q 3047 3744 3150 3342 
Q 3253 2941 3253 2259 
Q 3253 1453 3087 958 
Q 2922 463 2592 192 
Q 2263 -78 1759 -78 
Q 1097 -78 719 397 
Q 266 969 266 2259 
z
M 844 2259 
Q 844 1131 1108 757 
Q 1372 384 1759 384 
Q 2147 384 2411 759 
Q 2675 1134 2675 2259 
Q 2675 3391 2411 3762 
Q 2147 4134 1753 4134 
Q 1366 4134 1134 3806 
Q 844 3388 844 2259 
z
" transform="scale(0.015625)"/>
        <path id="ArialMT-2d" d="M 203 1375 
L 203 1941 
L 1931 1941 
L 1931 1375 
L 203 1375 
z
" transform="scale(0.015625)"/>
        <path id="ArialMT-31" d="M 2384 0 
L 1822 0 
L 1822 3584 
Q 1619 3391 1289 3197 
Q 959 3003 697 2906 
L 697 3450 
Q 1169 3672 1522 3987 
Q 1875 4303 2022 4600 
L 2384 4600 
L 2384 0 
z
" transform="scale(0.015625)"/>
        <path id="ArialMT-35" d="M 266 1200 
L 856 1250 
Q 922 819 1161 601 
Q 1400 384 1738 384 
Q 2144 384 2425 690 
Q 2706 997 2706 1503 
Q 2706 1984 2436 2262 
Q 2166 2541 1728 2541 
Q 1456 2541 1237 2417 
Q 1019 2294 894 2097 
L 366 2166 
L 809 4519 
L 3088 4519 
L 3088 3981 
L 1259 3981 
L 1013 2750 
Q 1425 3038 1878 3038 
Q 2478 3038 2890 2622 
Q 3303 2206 3303 1553 
Q 3303 931 2941 478 
Q 2500 -78 1738 -78 
Q 1113 -78 717 272 
Q 322 622 266 1200 
z
" transform="scale(0.015625)"/>
       </defs>
       <use xlink:href="#ArialMT-32"/>
       <use xlink:href="#ArialMT-30" x="55.615234"/>
       <use xlink:href="#ArialMT-32" x="111.230469"/>
       <use xlink:href="#ArialMT-32" x="166.845703"/>
       <use xlink:href="#ArialMT-2d" x="222.460938"/>
       <use xlink:href="#ArialMT-31" x="255.761719"/>
       <use xlink:href="#ArialMT-32" x="311.376953"/>
       <use xlink:href="#ArialMT-2d" x="366.992188"/>
       <use xlink:href="#ArialMT-31" x="400.292969"/>
       <use xlink:href="#ArialMT-35" x="455.908203"/>
      </g>
     </g>
    </g>
    <g id="xtick_2">
     <g id="line2d_3">
      <path d="M 286.613976 512.64 
L 286.613976 69.12 
" clip-path="url(#pb3b8158431)" style="fill: none; stroke: #cccccc; stroke-width: 0.8; stroke-linecap: round"/>
     </g>
     <g id="line2d_4"/>
     <g id="text_2">
      <!-- 2023-01-01 -->
      <g style="fill: #262626" transform="translate(261.040538 523.297812) scale(0.1 -0.1)">
       <defs>
        <path id="ArialMT-33" d="M 269 1209 
L 831 1284 
Q 928 806 1161 595 
Q 1394 384 1728 384 
Q 2125 384 2398 659 
Q 2672 934 2672 1341 
Q 2672 1728 2419 1979 
Q 2166 2231 1775 2231 
Q 1616 2231 1378 2169 
L 1441 2663 
Q 1497 2656 1531 2656 
Q 1891 2656 2178 2843 
Q 2466 3031 2466 3422 
Q 2466 3731 2256 3934 
Q 2047 4138 1716 4138 
Q 1388 4138 1169 3931 
Q 950 3725 888 3313 
L 325 3413 
Q 428 3978 793 4289 
Q 1159 4600 1703 4600 
Q 2078 4600 2393 4439 
Q 2709 4278 2876 4000 
Q 3044 3722 3044 3409 
Q 3044 3113 2884 2869 
Q 2725 2625 2413 2481 
Q 2819 2388 3044 2092 
Q 3269 1797 3269 1353 
Q 3269 753 2831 336 
Q 2394 -81 1725 -81 
Q 1122 -81 723 278 
Q 325 638 269 1209 
z
" transform="scale(0.015625)"/>
       </defs>
       <use xlink:href="#ArialMT-32"/>
       <use xlink:href="#ArialMT-30" x="55.615234"/>
       <use xlink:href="#ArialMT-32" x="111.230469"/>
       <use xlink:href="#ArialMT-33" x="166.845703"/>
       <use xlink:href="#ArialMT-2d" x="222.460938"/>
       <use xlink:href="#ArialMT-30" x="255.761719"/>
       <use xlink:href="#ArialMT-31" x="311.376953"/>
       <use xlink:href="#ArialMT-2d" x="366.992188"/>
       <use xlink:href="#ArialMT-30" x="400.292969"/>
       <use xlink:href="#ArialMT-31" x="455.908203"/>
      </g>
     </g>
    </g>
    <g id="xtick_3">
     <g id="line2d_5">
      <path d="M 366.11194 512.64 
L 366.11194 69.12 
" clip-path="url(#pb3b8158431)" style="fill: none; stroke: #cccccc; stroke-width: 0.8; stroke-linecap: round"/>
     </g>
     <g id="line2d_6"/>
     <g id="text_3">
      <!-- 2023-01-15 -->
      <g style="fill: #262626" transform="translate(340.538503 523.297812) scale(0.1 -0.1)">
       <use xlink:href="#ArialMT-32"/>
       <use xlink:href="#ArialMT-30" x="55.615234"/>
       <use xlink:href="#ArialMT-32" x="111.230469"/>
       <use xlink:href="#ArialMT-33" x="166.845703"/>
       <use xlink:href="#ArialMT-2d" x="222.460938"/>
       <use xlink:href="#ArialMT-30" x="255.761719"/>
       <use xlink:href="#ArialMT-31" x="311.376953"/>
       <use xlink:href="#ArialMT-2d" x="366.992188"/>
       <use xlink:href="#ArialMT-31" x="400.292969"/>
       <use xlink:href="#ArialMT-35" x="455.908203"/>
      </g>
     </g>
    </g>
    <g id="xtick_4">
     <g id="line2d_7">
      <path d="M 462.645183 512.64 
L 462.645183 69.12 
" clip-path="url(#pb3b8158431)" style="fill: none; stroke: #cccccc; stroke-width: 0.8; stroke-linecap: round"/>
     </g>
     <g id="line2d_8"/>
     <g id="text_4">
      <!-- 2023-02-01 -->
      <g style="fill: #262626" transform="translate(437.071746 523.297812) scale(0.1 -0.1)">
       <use xlink:href="#ArialMT-32"/>
       <use xlink:href="#ArialMT-30" x="55.615234"/>
       <use xlink:href="#ArialMT-32" x="111.230469"/>
       <use xlink:href="#ArialMT-33" x="166.845703"/>
       <use xlink:href="#ArialMT-2d" x="222.460938"/>
       <use xlink:href="#ArialMT-30" x="255.761719"/>
       <use xlink:href="#ArialMT-32" x="311.376953"/>
       <use xlink:href="#ArialMT-2d" x="366.992188"/>
       <use xlink:href="#ArialMT-30" x="400.292969"/>
       <use xlink:href="#ArialMT-31" x="455.908203"/>
      </g>
     </g>
    </g>
    <g id="xtick_5">
     <g id="line2d_9">
      <path d="M 542.143148 512.64 
L 542.143148 69.12 
" clip-path="url(#pb3b8158431)" style="fill: none; stroke: #cccccc; stroke-width: 0.8; stroke-linecap: round"/>
     </g>
     <g id="line2d_10"/>
     <g id="text_5">
      <!-- 2023-02-15 -->
      <g style="fill: #262626" transform="translate(516.56971 523.297812) scale(0.1 -0.1)">
       <use xlink:href="#ArialMT-32"/>
       <use xlink:href="#ArialMT-30" x="55.615234"/>
       <use xlink:href="#ArialMT-32" x="111.230469"/>
       <use xlink:href="#ArialMT-33" x="166.845703"/>
       <use xlink:href="#ArialMT-2d" x="222.460938"/>
       <use xlink:href="#ArialMT-30" x="255.761719"/>
       <use xlink:href="#ArialMT-32" x="311.376953"/>
       <use xlink:href="#ArialMT-2d" x="366.992188"/>
       <use xlink:href="#ArialMT-31" x="400.292969"/>
       <use xlink:href="#ArialMT-35" x="455.908203"/>
      </g>
     </g>
    </g>
    <g id="xtick_6">
     <g id="line2d_11">
      <path d="M 621.641113 512.64 
L 621.641113 69.12 
" clip-path="url(#pb3b8158431)" style="fill: none; stroke: #cccccc; stroke-width: 0.8; stroke-linecap: round"/>
     </g>
     <g id="line2d_12"/>
     <g id="text_6">
      <!-- 2023-03-01 -->
      <g style="fill: #262626" transform="translate(596.067675 523.297812) scale(0.1 -0.1)">
       <use xlink:href="#ArialMT-32"/>
       <use xlink:href="#ArialMT-30" x="55.615234"/>
       <use xlink:href="#ArialMT-32" x="111.230469"/>
       <use xlink:href="#ArialMT-33" x="166.845703"/>
       <use xlink:href="#ArialMT-2d" x="222.460938"/>
       <use xlink:href="#ArialMT-30" x="255.761719"/>
       <use xlink:href="#ArialMT-33" x="311.376953"/>
       <use xlink:href="#ArialMT-2d" x="366.992188"/>
       <use xlink:href="#ArialMT-30" x="400.292969"/>
       <use xlink:href="#ArialMT-31" x="455.908203"/>
      </g>
     </g>
    </g>
    <g id="xtick_7">
     <g id="line2d_13">
      <path d="M 701.139077 512.64 
L 701.139077 69.12 
" clip-path="url(#pb3b8158431)" style="fill: none; stroke: #cccccc; stroke-width: 0.8; stroke-linecap: round"/>
     </g>
     <g id="line2d_14"/>
     <g id="text_7">
      <!-- 2023-03-15 -->
      <g style="fill: #262626" transform="translate(675.56564 523.297812) scale(0.1 -0.1)">
       <use xlink:href="#ArialMT-32"/>
       <use xlink:href="#ArialMT-30" x="55.615234"/>
       <use xlink:href="#ArialMT-32" x="111.230469"/>
       <use xlink:href="#ArialMT-33" x="166.845703"/>
       <use xlink:href="#ArialMT-2d" x="222.460938"/>
       <use xlink:href="#ArialMT-30" x="255.761719"/>
       <use xlink:href="#ArialMT-33" x="311.376953"/>
       <use xlink:href="#ArialMT-2d" x="366.992188"/>
       <use xlink:href="#ArialMT-31" x="400.292969"/>
       <use xlink:href="#ArialMT-35" x="455.908203"/>
      </g>
     </g>
    </g>
    <g id="xtick_8">
     <g id="line2d_15">
      <path d="M 797.67232 512.64 
L 797.67232 69.12 
" clip-path="url(#pb3b8158431)" style="fill: none; stroke: #cccccc; stroke-width: 0.8; stroke-linecap: round"/>
     </g>
     <g id="line2d_16"/>
     <g id="text_8">
      <!-- 2023-04-01 -->
      <g style="fill: #262626" transform="translate(772.098883 523.297812) scale(0.1 -0.1)">
       <defs>
        <path id="ArialMT-34" d="M 2069 0 
L 2069 1097 
L 81 1097 
L 81 1613 
L 2172 4581 
L 2631 4581 
L 2631 1613 
L 3250 1613 
L 3250 1097 
L 2631 1097 
L 2631 0 
L 2069 0 
z
M 2069 1613 
L 2069 3678 
L 634 1613 
L 2069 1613 
z
" transform="scale(0.015625)"/>
       </defs>
       <use xlink:href="#ArialMT-32"/>
       <use xlink:href="#ArialMT-30" x="55.615234"/>
       <use xlink:href="#ArialMT-32" x="111.230469"/>
       <use xlink:href="#ArialMT-33" x="166.845703"/>
       <use xlink:href="#ArialMT-2d" x="222.460938"/>
       <use xlink:href="#ArialMT-30" x="255.761719"/>
       <use xlink:href="#ArialMT-34" x="311.376953"/>
       <use xlink:href="#ArialMT-2d" x="366.992188"/>
       <use xlink:href="#ArialMT-30" x="400.292969"/>
       <use xlink:href="#ArialMT-31" x="455.908203"/>
      </g>
     </g>
    </g>
    <g id="xtick_9">
     <g id="line2d_17">
      <path d="M 877.170285 512.64 
L 877.170285 69.12 
" clip-path="url(#pb3b8158431)" style="fill: none; stroke: #cccccc; stroke-width: 0.8; stroke-linecap: round"/>
     </g>
     <g id="line2d_18"/>
     <g id="text_9">
      <!-- 2023-04-15 -->
      <g style="fill: #262626" transform="translate(851.596847 523.297812) scale(0.1 -0.1)">
       <use xlink:href="#ArialMT-32"/>
       <use xlink:href="#ArialMT-30" x="55.615234"/>
       <use xlink:href="#ArialMT-32" x="111.230469"/>
       <use xlink:href="#ArialMT-33" x="166.845703"/>
       <use xlink:href="#ArialMT-2d" x="222.460938"/>
       <use xlink:href="#ArialMT-30" x="255.761719"/>
       <use xlink:href="#ArialMT-34" x="311.376953"/>
       <use xlink:href="#ArialMT-2d" x="366.992188"/>
       <use xlink:href="#ArialMT-31" x="400.292969"/>
       <use xlink:href="#ArialMT-35" x="455.908203"/>
      </g>
     </g>
    </g>
    <g id="xtick_10">
     <g id="line2d_19">
      <path d="M 968.025102 512.64 
L 968.025102 69.12 
" clip-path="url(#pb3b8158431)" style="fill: none; stroke: #cccccc; stroke-width: 0.8; stroke-linecap: round"/>
     </g>
     <g id="line2d_20"/>
     <g id="text_10">
      <!-- 2023-05-01 -->
      <g style="fill: #262626" transform="translate(942.451664 523.297812) scale(0.1 -0.1)">
       <use xlink:href="#ArialMT-32"/>
       <use xlink:href="#ArialMT-30" x="55.615234"/>
       <use xlink:href="#ArialMT-32" x="111.230469"/>
       <use xlink:href="#ArialMT-33" x="166.845703"/>
       <use xlink:href="#ArialMT-2d" x="222.460938"/>
       <use xlink:href="#ArialMT-30" x="255.761719"/>
       <use xlink:href="#ArialMT-35" x="311.376953"/>
       <use xlink:href="#ArialMT-2d" x="366.992188"/>
       <use xlink:href="#ArialMT-30" x="400.292969"/>
       <use xlink:href="#ArialMT-31" x="455.908203"/>
      </g>
     </g>
    </g>
    <g id="text_11">
     <!-- Date -->
     <g style="fill: #262626" transform="translate(542.939062 536.443125) scale(0.1 -0.1)">
      <defs>
       <path id="ArialMT-44" d="M 494 0 
L 494 4581 
L 2072 4581 
Q 2606 4581 2888 4516 
Q 3281 4425 3559 4188 
Q 3922 3881 4101 3404 
Q 4281 2928 4281 2316 
Q 4281 1794 4159 1391 
Q 4038 988 3847 723 
Q 3656 459 3429 307 
Q 3203 156 2883 78 
Q 2563 0 2147 0 
L 494 0 
z
M 1100 541 
L 2078 541 
Q 2531 541 2789 625 
Q 3047 709 3200 863 
Q 3416 1078 3536 1442 
Q 3656 1806 3656 2325 
Q 3656 3044 3420 3430 
Q 3184 3816 2847 3947 
Q 2603 4041 2063 4041 
L 1100 4041 
L 1100 541 
z
" transform="scale(0.015625)"/>
       <path id="ArialMT-61" d="M 2588 409 
Q 2275 144 1986 34 
Q 1697 -75 1366 -75 
Q 819 -75 525 192 
Q 231 459 231 875 
Q 231 1119 342 1320 
Q 453 1522 633 1644 
Q 813 1766 1038 1828 
Q 1203 1872 1538 1913 
Q 2219 1994 2541 2106 
Q 2544 2222 2544 2253 
Q 2544 2597 2384 2738 
Q 2169 2928 1744 2928 
Q 1347 2928 1158 2789 
Q 969 2650 878 2297 
L 328 2372 
Q 403 2725 575 2942 
Q 747 3159 1072 3276 
Q 1397 3394 1825 3394 
Q 2250 3394 2515 3294 
Q 2781 3194 2906 3042 
Q 3031 2891 3081 2659 
Q 3109 2516 3109 2141 
L 3109 1391 
Q 3109 606 3145 398 
Q 3181 191 3288 0 
L 2700 0 
Q 2613 175 2588 409 
z
M 2541 1666 
Q 2234 1541 1622 1453 
Q 1275 1403 1131 1340 
Q 988 1278 909 1158 
Q 831 1038 831 891 
Q 831 666 1001 516 
Q 1172 366 1500 366 
Q 1825 366 2078 508 
Q 2331 650 2450 897 
Q 2541 1088 2541 1459 
L 2541 1666 
z
" transform="scale(0.015625)"/>
       <path id="ArialMT-74" d="M 1650 503 
L 1731 6 
Q 1494 -44 1306 -44 
Q 1000 -44 831 53 
Q 663 150 594 308 
Q 525 466 525 972 
L 525 2881 
L 113 2881 
L 113 3319 
L 525 3319 
L 525 4141 
L 1084 4478 
L 1084 3319 
L 1650 3319 
L 1650 2881 
L 1084 2881 
L 1084 941 
Q 1084 700 1114 631 
Q 1144 563 1211 522 
Q 1278 481 1403 481 
Q 1497 481 1650 503 
z
" transform="scale(0.015625)"/>
       <path id="ArialMT-65" d="M 2694 1069 
L 3275 997 
Q 3138 488 2766 206 
Q 2394 -75 1816 -75 
Q 1088 -75 661 373 
Q 234 822 234 1631 
Q 234 2469 665 2931 
Q 1097 3394 1784 3394 
Q 2450 3394 2872 2941 
Q 3294 2488 3294 1666 
Q 3294 1616 3291 1516 
L 816 1516 
Q 847 969 1125 678 
Q 1403 388 1819 388 
Q 2128 388 2347 550 
Q 2566 713 2694 1069 
z
M 847 1978 
L 2700 1978 
Q 2663 2397 2488 2606 
Q 2219 2931 1791 2931 
Q 1403 2931 1139 2672 
Q 875 2413 847 1978 
z
" transform="scale(0.015625)"/>
      </defs>
      <use xlink:href="#ArialMT-44"/>
      <use xlink:href="#ArialMT-61" x="72.216797"/>
      <use xlink:href="#ArialMT-74" x="127.832031"/>
      <use xlink:href="#ArialMT-65" x="155.615234"/>
     </g>
    </g>
   </g>
   <g id="matplotlib.axis_2">
    <g id="ytick_1">
     <g id="line2d_21">
      <path d="M 135 448.090883 
L 972 448.090883 
" clip-path="url(#pb3b8158431)" style="fill: none; stroke: #cccccc; stroke-width: 0.8; stroke-linecap: round"/>
     </g>
     <g id="line2d_22"/>
     <g id="text_12">
      <!-- 13 -->
      <g style="fill: #262626" transform="translate(120.378125 451.669789) scale(0.1 -0.1)">
       <use xlink:href="#ArialMT-31"/>
       <use xlink:href="#ArialMT-33" x="55.615234"/>
      </g>
     </g>
    </g>
    <g id="ytick_2">
     <g id="line2d_23">
      <path d="M 135 382.812799 
L 972 382.812799 
" clip-path="url(#pb3b8158431)" style="fill: none; stroke: #cccccc; stroke-width: 0.8; stroke-linecap: round"/>
     </g>
     <g id="line2d_24"/>
     <g id="text_13">
      <!-- 14 -->
      <g style="fill: #262626" transform="translate(120.378125 386.391705) scale(0.1 -0.1)">
       <use xlink:href="#ArialMT-31"/>
       <use xlink:href="#ArialMT-34" x="55.615234"/>
      </g>
     </g>
    </g>
    <g id="ytick_3">
     <g id="line2d_25">
      <path d="M 135 317.534715 
L 972 317.534715 
" clip-path="url(#pb3b8158431)" style="fill: none; stroke: #cccccc; stroke-width: 0.8; stroke-linecap: round"/>
     </g>
     <g id="line2d_26"/>
     <g id="text_14">
      <!-- 15 -->
      <g style="fill: #262626" transform="translate(120.378125 321.113621) scale(0.1 -0.1)">
       <use xlink:href="#ArialMT-31"/>
       <use xlink:href="#ArialMT-35" x="55.615234"/>
      </g>
     </g>
    </g>
    <g id="ytick_4">
     <g id="line2d_27">
      <path d="M 135 252.256631 
L 972 252.256631 
" clip-path="url(#pb3b8158431)" style="fill: none; stroke: #cccccc; stroke-width: 0.8; stroke-linecap: round"/>
     </g>
     <g id="line2d_28"/>
     <g id="text_15">
      <!-- 16 -->
      <g style="fill: #262626" transform="translate(120.378125 255.835537) scale(0.1 -0.1)">
       <defs>
        <path id="ArialMT-36" d="M 3184 3459 
L 2625 3416 
Q 2550 3747 2413 3897 
Q 2184 4138 1850 4138 
Q 1581 4138 1378 3988 
Q 1113 3794 959 3422 
Q 806 3050 800 2363 
Q 1003 2672 1297 2822 
Q 1591 2972 1913 2972 
Q 2475 2972 2870 2558 
Q 3266 2144 3266 1488 
Q 3266 1056 3080 686 
Q 2894 316 2569 119 
Q 2244 -78 1831 -78 
Q 1128 -78 684 439 
Q 241 956 241 2144 
Q 241 3472 731 4075 
Q 1159 4600 1884 4600 
Q 2425 4600 2770 4297 
Q 3116 3994 3184 3459 
z
M 888 1484 
Q 888 1194 1011 928 
Q 1134 663 1356 523 
Q 1578 384 1822 384 
Q 2178 384 2434 671 
Q 2691 959 2691 1453 
Q 2691 1928 2437 2201 
Q 2184 2475 1800 2475 
Q 1419 2475 1153 2201 
Q 888 1928 888 1484 
z
" transform="scale(0.015625)"/>
       </defs>
       <use xlink:href="#ArialMT-31"/>
       <use xlink:href="#ArialMT-36" x="55.615234"/>
      </g>
     </g>
    </g>
    <g id="ytick_5">
     <g id="line2d_29">
      <path d="M 135 186.978547 
L 972 186.978547 
" clip-path="url(#pb3b8158431)" style="fill: none; stroke: #cccccc; stroke-width: 0.8; stroke-linecap: round"/>
     </g>
     <g id="line2d_30"/>
     <g id="text_16">
      <!-- 17 -->
      <g style="fill: #262626" transform="translate(120.378125 190.557453) scale(0.1 -0.1)">
       <defs>
        <path id="ArialMT-37" d="M 303 3981 
L 303 4522 
L 3269 4522 
L 3269 4084 
Q 2831 3619 2401 2847 
Q 1972 2075 1738 1259 
Q 1569 684 1522 0 
L 944 0 
Q 953 541 1156 1306 
Q 1359 2072 1739 2783 
Q 2119 3494 2547 3981 
L 303 3981 
z
" transform="scale(0.015625)"/>
       </defs>
       <use xlink:href="#ArialMT-31"/>
       <use xlink:href="#ArialMT-37" x="55.615234"/>
      </g>
     </g>
    </g>
    <g id="ytick_6">
     <g id="line2d_31">
      <path d="M 135 121.700462 
L 972 121.700462 
" clip-path="url(#pb3b8158431)" style="fill: none; stroke: #cccccc; stroke-width: 0.8; stroke-linecap: round"/>
     </g>
     <g id="line2d_32"/>
     <g id="text_17">
      <!-- 18 -->
      <g style="fill: #262626" transform="translate(120.378125 125.279369) scale(0.1 -0.1)">
       <defs>
        <path id="ArialMT-38" d="M 1131 2484 
Q 781 2613 612 2850 
Q 444 3088 444 3419 
Q 444 3919 803 4259 
Q 1163 4600 1759 4600 
Q 2359 4600 2725 4251 
Q 3091 3903 3091 3403 
Q 3091 3084 2923 2848 
Q 2756 2613 2416 2484 
Q 2838 2347 3058 2040 
Q 3278 1734 3278 1309 
Q 3278 722 2862 322 
Q 2447 -78 1769 -78 
Q 1091 -78 675 323 
Q 259 725 259 1325 
Q 259 1772 486 2073 
Q 713 2375 1131 2484 
z
M 1019 3438 
Q 1019 3113 1228 2906 
Q 1438 2700 1772 2700 
Q 2097 2700 2305 2904 
Q 2513 3109 2513 3406 
Q 2513 3716 2298 3927 
Q 2084 4138 1766 4138 
Q 1444 4138 1231 3931 
Q 1019 3725 1019 3438 
z
M 838 1322 
Q 838 1081 952 856 
Q 1066 631 1291 507 
Q 1516 384 1775 384 
Q 2178 384 2440 643 
Q 2703 903 2703 1303 
Q 2703 1709 2433 1975 
Q 2163 2241 1756 2241 
Q 1359 2241 1098 1978 
Q 838 1716 838 1322 
z
" transform="scale(0.015625)"/>
       </defs>
       <use xlink:href="#ArialMT-31"/>
       <use xlink:href="#ArialMT-38" x="55.615234"/>
      </g>
     </g>
    </g>
    <g id="text_18">
     <!-- Adj Close -->
     <g style="fill: #262626" transform="translate(114.273438 312.278437) rotate(-90) scale(0.1 -0.1)">
      <defs>
       <path id="ArialMT-41" d="M -9 0 
L 1750 4581 
L 2403 4581 
L 4278 0 
L 3588 0 
L 3053 1388 
L 1138 1388 
L 634 0 
L -9 0 
z
M 1313 1881 
L 2866 1881 
L 2388 3150 
Q 2169 3728 2063 4100 
Q 1975 3659 1816 3225 
L 1313 1881 
z
" transform="scale(0.015625)"/>
       <path id="ArialMT-64" d="M 2575 0 
L 2575 419 
Q 2259 -75 1647 -75 
Q 1250 -75 917 144 
Q 584 363 401 755 
Q 219 1147 219 1656 
Q 219 2153 384 2558 
Q 550 2963 881 3178 
Q 1213 3394 1622 3394 
Q 1922 3394 2156 3267 
Q 2391 3141 2538 2938 
L 2538 4581 
L 3097 4581 
L 3097 0 
L 2575 0 
z
M 797 1656 
Q 797 1019 1065 703 
Q 1334 388 1700 388 
Q 2069 388 2326 689 
Q 2584 991 2584 1609 
Q 2584 2291 2321 2609 
Q 2059 2928 1675 2928 
Q 1300 2928 1048 2622 
Q 797 2316 797 1656 
z
" transform="scale(0.015625)"/>
       <path id="ArialMT-6a" d="M 419 3928 
L 419 4581 
L 981 4581 
L 981 3928 
L 419 3928 
z
M -294 -1288 
L -188 -809 
Q -19 -853 78 -853 
Q 250 -853 334 -739 
Q 419 -625 419 -169 
L 419 3319 
L 981 3319 
L 981 -181 
Q 981 -794 822 -1034 
Q 619 -1347 147 -1347 
Q -81 -1347 -294 -1288 
z
" transform="scale(0.015625)"/>
       <path id="ArialMT-20" transform="scale(0.015625)"/>
       <path id="ArialMT-43" d="M 3763 1606 
L 4369 1453 
Q 4178 706 3683 314 
Q 3188 -78 2472 -78 
Q 1731 -78 1267 223 
Q 803 525 561 1097 
Q 319 1669 319 2325 
Q 319 3041 592 3573 
Q 866 4106 1370 4382 
Q 1875 4659 2481 4659 
Q 3169 4659 3637 4309 
Q 4106 3959 4291 3325 
L 3694 3184 
Q 3534 3684 3231 3912 
Q 2928 4141 2469 4141 
Q 1941 4141 1586 3887 
Q 1231 3634 1087 3207 
Q 944 2781 944 2328 
Q 944 1744 1114 1308 
Q 1284 872 1643 656 
Q 2003 441 2422 441 
Q 2931 441 3284 734 
Q 3638 1028 3763 1606 
z
" transform="scale(0.015625)"/>
       <path id="ArialMT-6c" d="M 409 0 
L 409 4581 
L 972 4581 
L 972 0 
L 409 0 
z
" transform="scale(0.015625)"/>
       <path id="ArialMT-6f" d="M 213 1659 
Q 213 2581 725 3025 
Q 1153 3394 1769 3394 
Q 2453 3394 2887 2945 
Q 3322 2497 3322 1706 
Q 3322 1066 3130 698 
Q 2938 331 2570 128 
Q 2203 -75 1769 -75 
Q 1072 -75 642 372 
Q 213 819 213 1659 
z
M 791 1659 
Q 791 1022 1069 705 
Q 1347 388 1769 388 
Q 2188 388 2466 706 
Q 2744 1025 2744 1678 
Q 2744 2294 2464 2611 
Q 2184 2928 1769 2928 
Q 1347 2928 1069 2612 
Q 791 2297 791 1659 
z
" transform="scale(0.015625)"/>
       <path id="ArialMT-73" d="M 197 991 
L 753 1078 
Q 800 744 1014 566 
Q 1228 388 1613 388 
Q 2000 388 2187 545 
Q 2375 703 2375 916 
Q 2375 1106 2209 1216 
Q 2094 1291 1634 1406 
Q 1016 1563 777 1677 
Q 538 1791 414 1992 
Q 291 2194 291 2438 
Q 291 2659 392 2848 
Q 494 3038 669 3163 
Q 800 3259 1026 3326 
Q 1253 3394 1513 3394 
Q 1903 3394 2198 3281 
Q 2494 3169 2634 2976 
Q 2775 2784 2828 2463 
L 2278 2388 
Q 2241 2644 2061 2787 
Q 1881 2931 1553 2931 
Q 1166 2931 1000 2803 
Q 834 2675 834 2503 
Q 834 2394 903 2306 
Q 972 2216 1119 2156 
Q 1203 2125 1616 2013 
Q 2213 1853 2448 1751 
Q 2684 1650 2818 1456 
Q 2953 1263 2953 975 
Q 2953 694 2789 445 
Q 2625 197 2315 61 
Q 2006 -75 1616 -75 
Q 969 -75 630 194 
Q 291 463 197 991 
z
" transform="scale(0.015625)"/>
      </defs>
      <use xlink:href="#ArialMT-41"/>
      <use xlink:href="#ArialMT-64" x="66.699219"/>
      <use xlink:href="#ArialMT-6a" x="122.314453"/>
      <use xlink:href="#ArialMT-20" x="144.53125"/>
      <use xlink:href="#ArialMT-43" x="172.314453"/>
      <use xlink:href="#ArialMT-6c" x="244.53125"/>
      <use xlink:href="#ArialMT-6f" x="266.748047"/>
      <use xlink:href="#ArialMT-73" x="322.363281"/>
      <use xlink:href="#ArialMT-65" x="372.363281"/>
     </g>
    </g>
   </g>
   <g id="line2d_33">
    <path d="M 462.645183 233.952659 
L 468.323609 224.552614 
L 474.002035 206.255173 
L 491.037313 214.192986 
L 496.715739 215.531187 
L 502.394166 217.071746 
L 508.072592 215.309245 
L 513.751018 232.320706 
L 530.786296 245.108686 
L 536.464722 232.229317 
L 542.143148 224.989975 
L 547.821574 231.197928 
L 553.5 234.024463 
L 576.213704 242.282145 
L 581.89213 256.538875 
L 587.570556 259.202216 
L 593.248982 237.941145 
L 610.284261 246.773269 
L 615.962687 252.002042 
L 621.641113 239.899488 
L 627.319539 240.552271 
L 632.997965 234.194183 
L 650.033243 233.358624 
L 655.711669 235.852245 
L 661.390095 236.172107 
L 667.068521 235.858777 
L 672.746947 245.683125 
L 689.782225 273.22395 
L 695.460651 348.646256 
L 701.139077 357.432686 
L 706.817503 399.119264 
L 712.495929 390.443805 
L 729.531208 395.150354 
L 735.209634 395.685635 
L 740.88806 394.98716 
L 746.566486 398.668845 
L 752.244912 397.010776 
L 769.28019 396.083831 
L 774.958616 392.989652 
L 780.637042 391.070474 
L 786.315468 393.028818 
L 791.993894 378.915696 
L 809.029172 342.040111 
L 814.707598 383.576551 
L 820.386024 389.020744 
L 826.06445 391.631864 
L 848.778155 385.182394 
L 854.456581 381.16779 
L 860.135007 381.716127 
L 865.813433 451.648537 
L 871.491859 444.787806 
L 888.527137 464.168877 
L 894.205563 453.69827 
L 899.883989 459.455797 
L 905.562415 385.260731 
L 911.240841 455.885082 
L 928.276119 398.120508 
L 933.954545 450.362557 
" clip-path="url(#pb3b8158431)" style="fill: none; stroke: #1f77b4; stroke-width: 1.5; stroke-linecap: round"/>
   </g>
   <g id="line2d_34">
    <path d="M 462.645183 231.541015 
L 468.323609 239.882972 
L 474.002035 198.527086 
L 491.037313 198.323589 
L 496.715739 214.067018 
L 502.394166 212.452222 
L 508.072592 190.418731 
L 513.751018 217.926201 
L 530.786296 222.960945 
L 536.464722 229.496423 
L 542.143148 219.532367 
L 547.821574 229.298115 
L 553.5 238.984752 
L 576.213704 237.686194 
L 581.89213 257.291822 
L 587.570556 264.25057 
L 593.248982 264.471014 
L 610.284261 270.265654 
L 615.962687 269.348718 
L 621.641113 267.84479 
L 627.319539 247.209466 
L 632.997965 231.248115 
L 650.033243 237.439975 
L 655.711669 251.399164 
L 661.390095 239.172381 
L 667.068521 242.769227 
L 672.746947 273.133192 
L 689.782225 273.133192 
L 695.460651 332.494891 
L 701.139077 353.116586 
L 706.817503 385.480505 
L 712.495929 383.567908 
L 729.531208 385.135016 
L 735.209634 387.827036 
L 740.88806 383.438025 
L 746.566486 388.452696 
L 752.244912 396.117803 
L 769.28019 390.554275 
L 774.958616 387.487277 
L 780.637042 383.438025 
L 786.315468 377.512964 
L 791.993894 381.10981 
L 809.029172 354.493052 
L 814.707598 372.354662 
L 820.386024 371.437726 
L 826.06445 391.027954 
L 848.778155 360.527238 
L 854.456581 356.959967 
L 860.135007 372.208471 
L 865.813433 442.566928 
L 871.491859 432.299454 
L 888.527137 449.322564 
L 894.205563 432.299454 
L 899.883989 427.248469 
L 905.562415 396.578093 
L 911.240841 425.522846 
L 928.276119 398.422214 
L 933.954545 429.576684 
" clip-path="url(#pb3b8158431)" style="fill: none; stroke: #ff7f0e; stroke-width: 1.5; stroke-linecap: round"/>
   </g>
   <g id="line2d_35">
    <path d="M 462.645183 209.209638 
L 468.323609 154.555757 
L 474.002035 265.57774 
L 491.037313 89.28 
L 496.715739 201.047099 
L 502.394166 141.33566 
L 508.072592 207.054132 
L 513.751018 219.57972 
L 530.786296 255.715754 
L 536.464722 202.975127 
L 542.143148 164.048846 
L 547.821574 165.937438 
L 553.5 223.066905 
L 576.213704 250.656054 
L 581.89213 180.770306 
L 587.570556 255.307036 
L 593.248982 283.554802 
L 610.284261 265.732625 
L 615.962687 216.83922 
L 621.641113 241.055502 
L 627.319539 251.907709 
L 632.997965 226.091147 
L 650.033243 192.460815 
L 655.711669 217.569264 
L 661.390095 193.553747 
L 667.068521 187.239288 
L 672.746947 264.698925 
L 689.782225 306.560821 
L 695.460651 282.884002 
L 701.139077 337.636316 
L 706.817503 366.9977 
L 712.495929 336.820428 
L 729.531208 330.759544 
L 735.209634 409.791829 
L 740.88806 354.598891 
L 746.566486 372.307862 
L 752.244912 445.852048 
L 769.28019 402.078158 
L 774.958616 408.304113 
L 780.637042 356.038916 
L 786.315468 308.266543 
L 791.993894 316.969373 
L 809.029172 294.630881 
L 814.707598 346.255243 
L 820.386024 267.145314 
L 826.06445 389.208971 
L 848.778155 324.814572 
L 854.456581 308.871223 
L 860.135007 328.827697 
L 865.813433 441.568207 
L 871.491859 344.326667 
L 888.527137 455.072543 
L 894.205563 421.496824 
L 899.883989 305.878747 
L 905.562415 399.230592 
L 911.240841 450.417232 
L 928.276119 328.822648 
L 933.954545 372.79034 
" clip-path="url(#pb3b8158431)" style="fill: none; stroke: #2ca02c; stroke-width: 1.5; stroke-linecap: round"/>
   </g>
   <g id="line2d_36">
    <path d="M 462.645183 243.117739 
L 468.323609 233.978722 
L 474.002035 190.242401 
L 491.037313 213.742551 
L 496.715739 213.742551 
L 502.394166 181.756305 
L 508.072592 231.367664 
L 513.751018 250.951039 
L 530.786296 336.465357 
L 536.464722 320.145836 
L 542.143148 237.895497 
L 547.821574 213.742551 
L 553.5 336.465357 
L 576.213704 336.465357 
L 581.89213 336.465357 
L 587.570556 336.465357 
L 593.248982 336.465357 
L 610.284261 336.465357 
L 615.962687 336.465357 
L 621.641113 216.353734 
L 627.319539 336.465357 
L 632.997965 216.353734 
L 650.033243 336.465357 
L 655.711669 336.465357 
L 661.390095 336.465357 
L 667.068521 336.465357 
L 672.746947 336.465357 
L 689.782225 336.465357 
L 695.460651 427.201916 
L 701.139077 371.71552 
L 706.817503 414.799045 
L 712.495929 414.799045 
L 729.531208 411.535128 
L 735.209634 414.799045 
L 740.88806 446.132558 
L 746.566486 411.535128 
L 752.244912 411.535128 
L 769.28019 414.799045 
L 774.958616 414.799045 
L 780.637042 414.799045 
L 786.315468 342.99319 
L 791.993894 433.076953 
L 809.029172 327.979198 
L 814.707598 342.99319 
L 820.386024 418.062962 
L 826.06445 418.062962 
L 848.778155 418.062962 
L 854.456581 384.11839 
L 860.135007 384.11839 
L 865.813433 467.021525 
L 871.491859 435.035279 
L 888.527137 482.035517 
L 894.205563 460.493691 
L 899.883989 460.493691 
L 905.562415 385.42392 
L 911.240841 468.97985 
L 928.276119 365.187686 
L 933.954545 468.97985 
" clip-path="url(#pb3b8158431)" style="fill: none; stroke: #d62728; stroke-width: 1.5; stroke-linecap: round"/>
   </g>
   <g id="line2d_37">
    <path d="M 462.645183 265.17631 
L 468.323609 261.789062 
L 474.002035 255.551851 
L 491.037313 249.717552 
L 496.715739 245.130808 
L 502.394166 240.268652 
L 508.072592 235.678278 
L 513.751018 235.961934 
L 530.786296 239.435953 
L 536.464722 240.789744 
L 542.143148 239.567684 
L 547.821574 238.532969 
L 553.5 241.433204 
L 576.213704 244.109326 
L 581.89213 251.56284 
L 587.570556 259.561476 
L 593.248982 264.423507 
L 610.284261 270.358056 
L 615.962687 273.832831 
L 621.641113 273.939133 
L 627.319539 274.1931 
L 632.997965 274.180735 
L 650.033243 272.066029 
L 655.711669 271.78062 
L 661.390095 269.524441 
L 667.068521 265.669602 
L 672.746947 267.231108 
L 689.782225 271.504665 
L 695.460651 280.335781 
L 701.139077 289.98793 
L 706.817503 305.388791 
L 712.495929 316.862456 
L 729.531208 328.093782 
L 735.209634 337.513311 
L 740.88806 342.485231 
L 746.566486 351.444556 
L 752.244912 359.906788 
L 769.28019 365.858169 
L 774.958616 368.714027 
L 780.637042 369.869396 
L 786.315468 367.432959 
L 791.993894 363.825499 
L 809.029172 358.373215 
L 814.707598 357.002468 
L 820.386024 358.48904 
L 826.06445 361.882234 
L 848.778155 363.520999 
L 854.456581 363.714053 
L 860.135007 362.598073 
L 865.813433 371.587206 
L 871.491859 380.168975 
L 888.527137 389.047708 
L 894.205563 394.485608 
L 899.883989 398.129422 
L 905.562415 398.091876 
L 911.240841 399.75544 
L 928.276119 400.691741 
L 933.954545 401.913952 
" clip-path="url(#pb3b8158431)" style="fill: none; stroke: #9467bd; stroke-width: 1.5; stroke-linecap: round"/>
   </g>
   <g id="line2d_38">
    <path d="M 462.645183 186.978559 
L 468.323609 193.898045 
L 474.002035 217.528717 
L 491.037313 231.889863 
L 496.715739 261.134454 
L 502.394166 267.27061 
L 508.072592 234.239903 
L 513.751018 215.43982 
L 530.786296 241.420482 
L 536.464722 261.134454 
L 542.143148 261.134454 
L 547.821574 250.298293 
L 553.5 270.534489 
L 576.213704 304.218004 
L 581.89213 288.290148 
L 587.570556 289.204038 
L 593.248982 300.040186 
L 610.284261 300.040186 
L 615.962687 348.868203 
L 621.641113 348.868203 
L 627.319539 331.765351 
L 632.997965 321.973651 
L 650.033243 278.237342 
L 655.711669 215.43982 
L 661.390095 241.420482 
L 667.068521 261.134454 
L 672.746947 261.134454 
L 689.782225 300.040186 
L 695.460651 341.818157 
L 701.139077 385.946144 
L 706.817503 429.160241 
L 712.495929 427.463009 
L 729.531208 419.890753 
L 735.209634 428.376911 
L 740.88806 428.507458 
L 746.566486 428.507458 
L 752.244912 438.29917 
L 769.28019 442.085299 
L 774.958616 434.774148 
L 780.637042 434.251924 
L 786.315468 405.660128 
L 791.993894 382.029456 
L 809.029172 384.118353 
L 814.707598 389.732272 
L 820.386024 369.104399 
L 826.06445 396.782305 
L 848.778155 393.779506 
L 854.456581 397.565647 
L 860.135007 372.368303 
L 865.813433 402.004547 
L 871.491859 432.81581 
L 888.527137 443.260306 
L 894.205563 450.049233 
L 899.883989 455.924246 
L 905.562415 453.574231 
L 911.240841 467.152071 
L 928.276119 468.196532 
L 933.954545 456.83816 
" clip-path="url(#pb3b8158431)" style="fill: none; stroke: #8c564b; stroke-width: 1.5; stroke-linecap: round"/>
   </g>
   <g id="line2d_39">
    <path d="M 462.645183 242.024433 
L 468.323609 240.666673 
L 474.002035 209.29973 
L 491.037313 202.895657 
L 496.715739 204.314053 
L 502.394166 207.151219 
L 508.072592 201.601147 
L 513.751018 212.699671 
L 530.786296 240.194663 
L 536.464722 249.573108 
L 542.143148 238.98569 
L 547.821574 238.35406 
L 553.5 250.380792 
L 576.213704 256.68532 
L 581.89213 256.515429 
L 587.570556 257.246105 
L 593.248982 255.301538 
L 610.284261 254.166522 
L 615.962687 259.404576 
L 621.641113 261.758713 
L 627.319539 255.822293 
L 632.997965 263.434716 
L 650.033243 268.253863 
L 655.711669 269.092611 
L 661.390095 270.637071 
L 667.068521 265.32176 
L 672.746947 268.295012 
L 689.782225 269.151939 
L 695.460651 315.15686 
L 701.139077 357.73096 
L 706.817503 386.084497 
L 712.495929 391.230353 
L 729.531208 395.765373 
L 735.209634 395.72553 
L 740.88806 398.257028 
L 746.566486 397.804441 
L 752.244912 405.883147 
L 769.28019 412.226148 
L 774.958616 418.714886 
L 780.637042 412.544204 
L 786.315468 406.855431 
L 791.993894 401.579401 
L 809.029172 386.308487 
L 814.707598 392.860351 
L 820.386024 389.201557 
L 826.06445 391.928283 
L 848.778155 397.143366 
L 854.456581 401.261034 
L 860.135007 388.901928 
L 865.813433 420.216578 
L 871.491859 432.247543 
L 888.527137 448.953973 
L 894.205563 448.496219 
L 899.883989 448.831706 
L 905.562415 433.364692 
L 911.240841 436.267659 
L 928.276119 423.773088 
L 933.954545 454.671383 
" clip-path="url(#pb3b8158431)" style="fill: none; stroke: #e377c2; stroke-width: 1.5; stroke-linecap: round"/>
   </g>
   <g id="line2d_40">
    <path d="M 462.645183 256.625559 
L 468.323609 214.417452 
L 474.002035 200.724433 
L 491.037313 189.467307 
L 496.715739 201.257333 
L 502.394166 187.917188 
L 508.072592 197.333083 
L 513.751018 216.804721 
L 530.786296 230.867959 
L 536.464722 223.412274 
L 542.143148 204.027252 
L 547.821574 206.058578 
L 553.5 234.484325 
L 576.213704 240.406907 
L 581.89213 270.08494 
L 587.570556 294.304872 
L 593.248982 279.158191 
L 610.284261 280.1268 
L 615.962687 280.594105 
L 621.641113 262.09629 
L 627.319539 258.51619 
L 632.997965 248.352847 
L 650.033243 243.004028 
L 655.711669 249.677476 
L 661.390095 238.233538 
L 667.068521 228.453931 
L 672.746947 259.550859 
L 689.782225 292.180398 
L 695.460651 324.377904 
L 701.139077 342.237282 
L 706.817503 383.328123 
L 712.495929 378.767413 
L 729.531208 380.867856 
L 735.209634 385.792145 
L 740.88806 371.182714 
L 746.566486 394.625356 
L 752.244912 408.724789 
L 769.28019 405.273765 
L 774.958616 401.061309 
L 780.637042 380.357814 
L 786.315468 360.455137 
L 791.993894 345.696596 
L 809.029172 331.538179 
L 814.707598 351.909265 
L 820.386024 364.650361 
L 826.06445 384.829719 
L 848.778155 367.064216 
L 854.456581 368.567403 
L 860.135007 358.538341 
L 865.813433 432.290486 
L 871.491859 445.258625 
L 888.527137 464.328745 
L 894.205563 437.384952 
L 899.883989 420.83269 
L 905.562415 403.119585 
L 911.240841 423.858241 
L 928.276119 429.682106 
L 933.954545 430.355638 
" clip-path="url(#pb3b8158431)" style="fill: none; stroke: #7f7f7f; stroke-width: 1.5; stroke-linecap: round"/>
   </g>
   <g id="line2d_41">
    <path d="M 462.645183 261.400517 
L 468.323609 245.255423 
L 474.002035 225.461315 
L 491.037313 217.743446 
L 496.715739 218.578304 
L 502.394166 218.724935 
L 508.072592 218.467116 
L 513.751018 227.454429 
L 530.786296 243.305394 
L 536.464722 243.874763 
L 542.143148 234.662968 
L 547.821574 229.242529 
L 553.5 239.465403 
L 576.213704 246.085758 
L 581.89213 268.987189 
L 587.570556 283.377768 
L 593.248982 280.030057 
L 610.284261 286.162204 
L 615.962687 286.948562 
L 621.641113 276.969597 
L 627.319539 270.194799 
L 632.997965 264.618765 
L 650.033243 255.460088 
L 655.711669 258.503898 
L 661.390095 253.363266 
L 667.068521 244.114299 
L 672.746947 260.766423 
L 689.782225 282.225262 
L 695.460651 310.657085 
L 701.139077 328.568433 
L 706.817503 359.343795 
L 712.495929 365.143423 
L 729.531208 370.416854 
L 735.209634 372.352575 
L 740.88806 360.953529 
L 746.566486 371.59756 
L 752.244912 383.006531 
L 769.28019 385.970903 
L 774.958616 379.740858 
L 780.637042 374.948595 
L 786.315468 361.896523 
L 791.993894 352.37527 
L 809.029172 339.993078 
L 814.707598 344.636168 
L 820.386024 355.51339 
L 826.06445 369.107499 
L 848.778155 371.386343 
L 854.456581 367.286541 
L 860.135007 359.69265 
L 865.813433 395.705268 
L 871.491859 415.578251 
L 888.527137 428.753692 
L 894.205563 423.477526 
L 899.883989 414.207958 
L 905.562415 399.553204 
L 911.240841 402.356333 
L 928.276119 402.342909 
L 933.954545 405.046013 
" clip-path="url(#pb3b8158431)" style="fill: none; stroke: #bcbd22; stroke-width: 1.5; stroke-linecap: round"/>
   </g>
   <g id="line2d_42">
    <path d="M 621.641113 309.289168 
L 627.319539 309.453021 
L 632.997965 301.518869 
L 650.033243 295.249203 
L 655.711669 288.403127 
L 661.390095 286.68504 
L 667.068521 286.379498 
L 672.746947 275.540572 
L 689.782225 284.987933 
L 695.460651 291.447412 
L 701.139077 312.980645 
L 706.817503 340.130687 
L 712.495929 361.485314 
L 729.531208 370.447031 
L 735.209634 383.06113 
L 740.88806 388.103209 
L 746.566486 386.059409 
L 752.244912 388.622719 
L 769.28019 404.467241 
L 774.958616 406.273106 
L 780.637042 415.290292 
L 786.315468 412.016912 
L 791.993894 399.796321 
L 809.029172 394.411908 
L 814.707598 377.333884 
L 820.386024 369.303674 
L 826.06445 373.50414 
L 848.778155 371.040997 
L 854.456581 377.37715 
L 860.135007 383.081114 
L 865.813433 371.716391 
L 871.491859 380.132327 
L 888.527137 395.334637 
L 894.205563 425.222051 
L 899.883989 435.771495 
L 905.562415 430.384716 
L 911.240841 419.344772 
L 928.276119 413.693787 
L 933.954545 415.069539 
" clip-path="url(#pb3b8158431)" style="fill: none; stroke: #17becf; stroke-width: 1.5; stroke-linecap: round"/>
   </g>
   <g id="line2d_43">
    <path d="M 621.641113 296.806737 
L 627.319539 291.230518 
L 632.997965 287.08496 
L 650.033243 277.825856 
L 655.711669 276.619808 
L 661.390095 272.375453 
L 667.068521 265.071934 
L 672.746947 273.964114 
L 689.782225 287.420821 
L 695.460651 310.134453 
L 701.139077 327.157383 
L 706.817503 356.244147 
L 712.495929 373.124453 
L 729.531208 385.407547 
L 735.209634 389.61567 
L 740.88806 390.865296 
L 746.566486 402.813401 
L 752.244912 410.570938 
L 769.28019 418.658671 
L 774.958616 416.758802 
L 780.637042 416.386461 
L 786.315468 406.702286 
L 791.993894 400.109335 
L 809.029172 387.471144 
L 814.707598 386.550904 
L 820.386024 389.217369 
L 826.06445 398.376556 
L 848.778155 402.598749 
L 854.456581 400.859994 
L 860.135007 395.589318 
L 865.813433 418.692973 
L 871.491859 427.153171 
L 888.527137 449.658688 
L 894.205563 450.147009 
L 899.883989 451.692963 
L 905.562415 444.866996 
L 911.240841 445.423609 
L 928.276119 445.045104 
L 933.954545 446.172214 
" clip-path="url(#pb3b8158431)" style="fill: none; stroke: #1f77b4; stroke-width: 1.5; stroke-linecap: round"/>
   </g>
   <g id="line2d_44">
    <path d="M 173.045455 369.757194 
L 178.723881 418.062962 
L 184.402307 425.243529 
L 190.080733 452.660329 
L 195.759159 460.493691 
L 212.794437 482.035517 
L 218.472863 478.7716 
L 224.151289 446.132558 
L 229.829715 476.813213 
L 235.508141 467.021525 
L 258.221845 478.7716 
L 263.900271 492.48 
L 269.578697 467.674321 
L 275.257123 466.368729 
L 297.970828 465.0632 
L 303.649254 409.576803 
L 309.32768 383.465595 
L 315.006106 371.062724 
L 332.041384 342.99319 
L 337.71981 305.131906 
L 343.398236 295.340156 
L 349.076662 198.075826 
L 354.755088 185.672955 
L 377.468792 181.756305 
L 383.147218 210.478697 
L 388.825645 233.978722 
L 394.504071 230.062072 
L 411.539349 241.159351 
L 417.217775 250.951039 
L 422.896201 235.284314 
L 428.574627 212.436959 
L 434.253053 224.187035 
L 451.288331 254.867751 
L 456.966757 243.117739 
L 462.645183 207.214718 
L 468.323609 183.061896 
L 474.002035 185.672955 
L 491.037313 192.200788 
L 496.715739 189.58973 
L 502.394166 188.936934 
L 508.072592 209.173105 
L 513.751018 233.978722 
L 530.786296 218.964793 
L 536.464722 200.686884 
L 542.143148 200.034213 
L 547.821574 226.798218 
L 553.5 228.75648 
L 576.213704 272.492864 
L 581.89213 280.97896 
L 587.570556 260.742789 
L 593.248982 280.97896 
L 610.284261 276.409514 
L 615.962687 253.562222 
L 621.641113 250.298243 
L 627.319539 244.423206 
L 632.997965 228.75648 
L 650.033243 244.423206 
L 655.711669 228.75648 
L 661.390095 213.742551 
L 667.068521 260.089993 
L 672.746947 287.506794 
L 689.782225 327.326402 
L 695.460651 339.729273 
L 701.139077 391.951753 
L 706.817503 374.979436 
L 712.495929 384.11839 
L 729.531208 385.42392 
L 735.209634 358.659915 
L 740.88806 394.562874 
L 746.566486 406.965682 
L 752.244912 401.090645 
L 769.28019 386.729511 
L 774.958616 384.11839 
L 780.637042 359.965444 
L 786.315468 352.132082 
L 791.993894 333.854236 
L 809.029172 355.395998 
L 814.707598 372.368315 
L 820.386024 389.993366 
L 826.06445 382.160003 
L 848.778155 373.021111 
L 854.456581 361.923832 
L 860.135007 448.090883 
L 865.813433 451.3548 
L 871.491859 461.799283 
L 888.527137 441.56305 
L 894.205563 429.160241 
L 899.883989 406.965682 
L 905.562415 427.201916 
L 911.240841 421.979674 
L 928.276119 427.201916 
L 933.954545 458.535366 
" clip-path="url(#pb3b8158431)" style="fill: none; stroke: #000000; stroke-width: 2; stroke-linecap: round"/>
   </g>
   <g id="patch_3">
    <path d="M 135 512.64 
L 135 69.12 
" style="fill: none; stroke: #cccccc; stroke-linejoin: miter; stroke-linecap: square"/>
   </g>
   <g id="patch_4">
    <path d="M 972 512.64 
L 972 69.12 
" style="fill: none; stroke: #cccccc; stroke-linejoin: miter; stroke-linecap: square"/>
   </g>
   <g id="patch_5">
    <path d="M 135 512.64 
L 972 512.64 
" style="fill: none; stroke: #cccccc; stroke-linejoin: miter; stroke-linecap: square"/>
   </g>
   <g id="patch_6">
    <path d="M 135 69.12 
L 972 69.12 
" style="fill: none; stroke: #cccccc; stroke-linejoin: miter; stroke-linecap: square"/>
   </g>
   <g id="text_19">
    <!-- Tahminler ve Gerçek Değerler -->
    <g style="fill: #262626" transform="translate(473.811563 63.12) scale(0.12 -0.12)">
     <defs>
      <path id="ArialMT-54" d="M 1659 0 
L 1659 4041 
L 150 4041 
L 150 4581 
L 3781 4581 
L 3781 4041 
L 2266 4041 
L 2266 0 
L 1659 0 
z
" transform="scale(0.015625)"/>
      <path id="ArialMT-68" d="M 422 0 
L 422 4581 
L 984 4581 
L 984 2938 
Q 1378 3394 1978 3394 
Q 2347 3394 2619 3248 
Q 2891 3103 3008 2847 
Q 3125 2591 3125 2103 
L 3125 0 
L 2563 0 
L 2563 2103 
Q 2563 2525 2380 2717 
Q 2197 2909 1863 2909 
Q 1613 2909 1392 2779 
Q 1172 2650 1078 2428 
Q 984 2206 984 1816 
L 984 0 
L 422 0 
z
" transform="scale(0.015625)"/>
      <path id="ArialMT-6d" d="M 422 0 
L 422 3319 
L 925 3319 
L 925 2853 
Q 1081 3097 1340 3245 
Q 1600 3394 1931 3394 
Q 2300 3394 2536 3241 
Q 2772 3088 2869 2813 
Q 3263 3394 3894 3394 
Q 4388 3394 4653 3120 
Q 4919 2847 4919 2278 
L 4919 0 
L 4359 0 
L 4359 2091 
Q 4359 2428 4304 2576 
Q 4250 2725 4106 2815 
Q 3963 2906 3769 2906 
Q 3419 2906 3187 2673 
Q 2956 2441 2956 1928 
L 2956 0 
L 2394 0 
L 2394 2156 
Q 2394 2531 2256 2718 
Q 2119 2906 1806 2906 
Q 1569 2906 1367 2781 
Q 1166 2656 1075 2415 
Q 984 2175 984 1722 
L 984 0 
L 422 0 
z
" transform="scale(0.015625)"/>
      <path id="ArialMT-69" d="M 425 3934 
L 425 4581 
L 988 4581 
L 988 3934 
L 425 3934 
z
M 425 0 
L 425 3319 
L 988 3319 
L 988 0 
L 425 0 
z
" transform="scale(0.015625)"/>
      <path id="ArialMT-6e" d="M 422 0 
L 422 3319 
L 928 3319 
L 928 2847 
Q 1294 3394 1984 3394 
Q 2284 3394 2536 3286 
Q 2788 3178 2913 3003 
Q 3038 2828 3088 2588 
Q 3119 2431 3119 2041 
L 3119 0 
L 2556 0 
L 2556 2019 
Q 2556 2363 2490 2533 
Q 2425 2703 2258 2804 
Q 2091 2906 1866 2906 
Q 1506 2906 1245 2678 
Q 984 2450 984 1813 
L 984 0 
L 422 0 
z
" transform="scale(0.015625)"/>
      <path id="ArialMT-72" d="M 416 0 
L 416 3319 
L 922 3319 
L 922 2816 
Q 1116 3169 1280 3281 
Q 1444 3394 1641 3394 
Q 1925 3394 2219 3213 
L 2025 2691 
Q 1819 2813 1613 2813 
Q 1428 2813 1281 2702 
Q 1134 2591 1072 2394 
Q 978 2094 978 1738 
L 978 0 
L 416 0 
z
" transform="scale(0.015625)"/>
      <path id="ArialMT-76" d="M 1344 0 
L 81 3319 
L 675 3319 
L 1388 1331 
Q 1503 1009 1600 663 
Q 1675 925 1809 1294 
L 2547 3319 
L 3125 3319 
L 1869 0 
L 1344 0 
z
" transform="scale(0.015625)"/>
      <path id="ArialMT-47" d="M 2638 1797 
L 2638 2334 
L 4578 2338 
L 4578 638 
Q 4131 281 3656 101 
Q 3181 -78 2681 -78 
Q 2006 -78 1454 211 
Q 903 500 622 1047 
Q 341 1594 341 2269 
Q 341 2938 620 3517 
Q 900 4097 1425 4378 
Q 1950 4659 2634 4659 
Q 3131 4659 3532 4498 
Q 3934 4338 4162 4050 
Q 4391 3763 4509 3300 
L 3963 3150 
Q 3859 3500 3706 3700 
Q 3553 3900 3268 4020 
Q 2984 4141 2638 4141 
Q 2222 4141 1919 4014 
Q 1616 3888 1430 3681 
Q 1244 3475 1141 3228 
Q 966 2803 966 2306 
Q 966 1694 1177 1281 
Q 1388 869 1791 669 
Q 2194 469 2647 469 
Q 3041 469 3416 620 
Q 3791 772 3984 944 
L 3984 1797 
L 2638 1797 
z
" transform="scale(0.015625)"/>
      <path id="ArialMT-e7" d="M 2588 1216 
L 3141 1144 
Q 3050 572 2676 248 
Q 2303 -75 1759 -75 
Q 1078 -75 664 370 
Q 250 816 250 1647 
Q 250 2184 428 2587 
Q 606 2991 970 3192 
Q 1334 3394 1763 3394 
Q 2303 3394 2647 3120 
Q 2991 2847 3088 2344 
L 2541 2259 
Q 2463 2594 2264 2762 
Q 2066 2931 1784 2931 
Q 1359 2931 1093 2626 
Q 828 2322 828 1663 
Q 828 994 1084 691 
Q 1341 388 1753 388 
Q 2084 388 2306 591 
Q 2528 794 2588 1216 
z
M 1283 -417 
L 1446 136 
L 1864 136 
L 1761 -199 
Q 2027 -230 2161 -362 
Q 2296 -495 2296 -658 
Q 2296 -892 2071 -1072 
Q 1846 -1252 1392 -1252 
Q 1136 -1252 942 -1214 
L 977 -849 
Q 1177 -861 1271 -861 
Q 1564 -861 1683 -780 
Q 1774 -717 1774 -627 
Q 1774 -570 1738 -526 
Q 1702 -483 1605 -451 
Q 1508 -420 1283 -417 
z
" transform="scale(0.015625)"/>
      <path id="ArialMT-6b" d="M 425 0 
L 425 4581 
L 988 4581 
L 988 1969 
L 2319 3319 
L 3047 3319 
L 1778 2088 
L 3175 0 
L 2481 0 
L 1384 1697 
L 988 1316 
L 988 0 
L 425 0 
z
" transform="scale(0.015625)"/>
      <path id="ArialMT-11f" d="M 319 -275 
L 866 -356 
Q 900 -609 1056 -725 
Q 1266 -881 1628 -881 
Q 2019 -881 2231 -725 
Q 2444 -569 2519 -288 
Q 2563 -116 2559 434 
Q 2191 0 1641 0 
Q 956 0 581 494 
Q 206 988 206 1678 
Q 206 2153 378 2554 
Q 550 2956 876 3175 
Q 1203 3394 1644 3394 
Q 2231 3394 2613 2919 
L 2613 3319 
L 3131 3319 
L 3131 450 
Q 3131 -325 2973 -648 
Q 2816 -972 2473 -1159 
Q 2131 -1347 1631 -1347 
Q 1038 -1347 672 -1080 
Q 306 -813 319 -275 
z
M 784 1719 
Q 784 1066 1043 766 
Q 1303 466 1694 466 
Q 2081 466 2343 764 
Q 2606 1063 2606 1700 
Q 2606 2309 2336 2618 
Q 2066 2928 1684 2928 
Q 1309 2928 1046 2623 
Q 784 2319 784 1719 
z
M 2318 4575 
L 2703 4575 
Q 2656 4184 2417 3975 
Q 2178 3766 1781 3766 
Q 1381 3766 1142 3973 
Q 903 4181 856 4575 
L 1240 4575 
Q 1284 4363 1413 4258 
Q 1543 4153 1762 4153 
Q 2015 4153 2145 4254 
Q 2275 4356 2318 4575 
z
" transform="scale(0.015625)"/>
     </defs>
     <use xlink:href="#ArialMT-54"/>
     <use xlink:href="#ArialMT-61" x="49.958984"/>
     <use xlink:href="#ArialMT-68" x="105.574219"/>
     <use xlink:href="#ArialMT-6d" x="161.189453"/>
     <use xlink:href="#ArialMT-69" x="244.490234"/>
     <use xlink:href="#ArialMT-6e" x="266.707031"/>
     <use xlink:href="#ArialMT-6c" x="322.322266"/>
     <use xlink:href="#ArialMT-65" x="344.539062"/>
     <use xlink:href="#ArialMT-72" x="400.154297"/>
     <use xlink:href="#ArialMT-20" x="433.455078"/>
     <use xlink:href="#ArialMT-76" x="461.238281"/>
     <use xlink:href="#ArialMT-65" x="511.238281"/>
     <use xlink:href="#ArialMT-20" x="566.853516"/>
     <use xlink:href="#ArialMT-47" x="594.636719"/>
     <use xlink:href="#ArialMT-65" x="672.419922"/>
     <use xlink:href="#ArialMT-72" x="728.035156"/>
     <use xlink:href="#ArialMT-e7" x="761.335938"/>
     <use xlink:href="#ArialMT-65" x="811.335938"/>
     <use xlink:href="#ArialMT-6b" x="866.951172"/>
     <use xlink:href="#ArialMT-20" x="916.951172"/>
     <use xlink:href="#ArialMT-44" x="944.734375"/>
     <use xlink:href="#ArialMT-65" x="1016.951172"/>
     <use xlink:href="#ArialMT-11f" x="1072.566406"/>
     <use xlink:href="#ArialMT-65" x="1128.181641"/>
     <use xlink:href="#ArialMT-72" x="1183.796875"/>
     <use xlink:href="#ArialMT-6c" x="1217.097656"/>
     <use xlink:href="#ArialMT-65" x="1239.314453"/>
     <use xlink:href="#ArialMT-72" x="1294.929688"/>
    </g>
   </g>
   <g id="legend_1">
    <g id="line2d_45">
     <path d="M 841.63125 81.777813 
L 851.63125 81.777813 
L 861.63125 81.777813 
" style="fill: none; stroke: #1f77b4; stroke-width: 1.5; stroke-linecap: round"/>
    </g>
    <g id="text_20">
     <!-- Random Forest -->
     <g style="fill: #262626" transform="translate(869.63125 85.277813) scale(0.1 -0.1)">
      <defs>
       <path id="ArialMT-52" d="M 503 0 
L 503 4581 
L 2534 4581 
Q 3147 4581 3465 4457 
Q 3784 4334 3975 4021 
Q 4166 3709 4166 3331 
Q 4166 2844 3850 2509 
Q 3534 2175 2875 2084 
Q 3116 1969 3241 1856 
Q 3506 1613 3744 1247 
L 4541 0 
L 3778 0 
L 3172 953 
Q 2906 1366 2734 1584 
Q 2563 1803 2427 1890 
Q 2291 1978 2150 2013 
Q 2047 2034 1813 2034 
L 1109 2034 
L 1109 0 
L 503 0 
z
M 1109 2559 
L 2413 2559 
Q 2828 2559 3062 2645 
Q 3297 2731 3419 2920 
Q 3541 3109 3541 3331 
Q 3541 3656 3305 3865 
Q 3069 4075 2559 4075 
L 1109 4075 
L 1109 2559 
z
" transform="scale(0.015625)"/>
       <path id="ArialMT-46" d="M 525 0 
L 525 4581 
L 3616 4581 
L 3616 4041 
L 1131 4041 
L 1131 2622 
L 3281 2622 
L 3281 2081 
L 1131 2081 
L 1131 0 
L 525 0 
z
" transform="scale(0.015625)"/>
      </defs>
      <use xlink:href="#ArialMT-52"/>
      <use xlink:href="#ArialMT-61" x="72.216797"/>
      <use xlink:href="#ArialMT-6e" x="127.832031"/>
      <use xlink:href="#ArialMT-64" x="183.447266"/>
      <use xlink:href="#ArialMT-6f" x="239.0625"/>
      <use xlink:href="#ArialMT-6d" x="294.677734"/>
      <use xlink:href="#ArialMT-20" x="377.978516"/>
      <use xlink:href="#ArialMT-46" x="405.761719"/>
      <use xlink:href="#ArialMT-6f" x="466.845703"/>
      <use xlink:href="#ArialMT-72" x="522.460938"/>
      <use xlink:href="#ArialMT-65" x="555.761719"/>
      <use xlink:href="#ArialMT-73" x="611.376953"/>
      <use xlink:href="#ArialMT-74" x="661.376953"/>
     </g>
    </g>
    <g id="line2d_46">
     <path d="M 841.63125 96.045 
L 851.63125 96.045 
L 861.63125 96.045 
" style="fill: none; stroke: #ff7f0e; stroke-width: 1.5; stroke-linecap: round"/>
    </g>
    <g id="text_21">
     <!-- Gradient Boosting -->
     <g style="fill: #262626" transform="translate(869.63125 99.545) scale(0.1 -0.1)">
      <defs>
       <path id="ArialMT-42" d="M 469 0 
L 469 4581 
L 2188 4581 
Q 2713 4581 3030 4442 
Q 3347 4303 3526 4014 
Q 3706 3725 3706 3409 
Q 3706 3116 3547 2856 
Q 3388 2597 3066 2438 
Q 3481 2316 3704 2022 
Q 3928 1728 3928 1328 
Q 3928 1006 3792 729 
Q 3656 453 3456 303 
Q 3256 153 2954 76 
Q 2653 0 2216 0 
L 469 0 
z
M 1075 2656 
L 2066 2656 
Q 2469 2656 2644 2709 
Q 2875 2778 2992 2937 
Q 3109 3097 3109 3338 
Q 3109 3566 3000 3739 
Q 2891 3913 2687 3977 
Q 2484 4041 1991 4041 
L 1075 4041 
L 1075 2656 
z
M 1075 541 
L 2216 541 
Q 2509 541 2628 563 
Q 2838 600 2978 687 
Q 3119 775 3209 942 
Q 3300 1109 3300 1328 
Q 3300 1584 3169 1773 
Q 3038 1963 2805 2039 
Q 2572 2116 2134 2116 
L 1075 2116 
L 1075 541 
z
" transform="scale(0.015625)"/>
       <path id="ArialMT-67" d="M 319 -275 
L 866 -356 
Q 900 -609 1056 -725 
Q 1266 -881 1628 -881 
Q 2019 -881 2231 -725 
Q 2444 -569 2519 -288 
Q 2563 -116 2559 434 
Q 2191 0 1641 0 
Q 956 0 581 494 
Q 206 988 206 1678 
Q 206 2153 378 2554 
Q 550 2956 876 3175 
Q 1203 3394 1644 3394 
Q 2231 3394 2613 2919 
L 2613 3319 
L 3131 3319 
L 3131 450 
Q 3131 -325 2973 -648 
Q 2816 -972 2473 -1159 
Q 2131 -1347 1631 -1347 
Q 1038 -1347 672 -1080 
Q 306 -813 319 -275 
z
M 784 1719 
Q 784 1066 1043 766 
Q 1303 466 1694 466 
Q 2081 466 2343 764 
Q 2606 1063 2606 1700 
Q 2606 2309 2336 2618 
Q 2066 2928 1684 2928 
Q 1309 2928 1046 2623 
Q 784 2319 784 1719 
z
" transform="scale(0.015625)"/>
      </defs>
      <use xlink:href="#ArialMT-47"/>
      <use xlink:href="#ArialMT-72" x="77.783203"/>
      <use xlink:href="#ArialMT-61" x="111.083984"/>
      <use xlink:href="#ArialMT-64" x="166.699219"/>
      <use xlink:href="#ArialMT-69" x="222.314453"/>
      <use xlink:href="#ArialMT-65" x="244.53125"/>
      <use xlink:href="#ArialMT-6e" x="300.146484"/>
      <use xlink:href="#ArialMT-74" x="355.761719"/>
      <use xlink:href="#ArialMT-20" x="383.544922"/>
      <use xlink:href="#ArialMT-42" x="411.328125"/>
      <use xlink:href="#ArialMT-6f" x="478.027344"/>
      <use xlink:href="#ArialMT-6f" x="533.642578"/>
      <use xlink:href="#ArialMT-73" x="589.257812"/>
      <use xlink:href="#ArialMT-74" x="639.257812"/>
      <use xlink:href="#ArialMT-69" x="667.041016"/>
      <use xlink:href="#ArialMT-6e" x="689.257812"/>
      <use xlink:href="#ArialMT-67" x="744.873047"/>
     </g>
    </g>
    <g id="line2d_47">
     <path d="M 841.63125 110.3075 
L 851.63125 110.3075 
L 861.63125 110.3075 
" style="fill: none; stroke: #2ca02c; stroke-width: 1.5; stroke-linecap: round"/>
    </g>
    <g id="text_22">
     <!-- Linear Regression -->
     <g style="fill: #262626" transform="translate(869.63125 113.8075) scale(0.1 -0.1)">
      <defs>
       <path id="ArialMT-4c" d="M 469 0 
L 469 4581 
L 1075 4581 
L 1075 541 
L 3331 541 
L 3331 0 
L 469 0 
z
" transform="scale(0.015625)"/>
      </defs>
      <use xlink:href="#ArialMT-4c"/>
      <use xlink:href="#ArialMT-69" x="55.615234"/>
      <use xlink:href="#ArialMT-6e" x="77.832031"/>
      <use xlink:href="#ArialMT-65" x="133.447266"/>
      <use xlink:href="#ArialMT-61" x="189.0625"/>
      <use xlink:href="#ArialMT-72" x="244.677734"/>
      <use xlink:href="#ArialMT-20" x="277.978516"/>
      <use xlink:href="#ArialMT-52" x="305.761719"/>
      <use xlink:href="#ArialMT-65" x="377.978516"/>
      <use xlink:href="#ArialMT-67" x="433.59375"/>
      <use xlink:href="#ArialMT-72" x="489.208984"/>
      <use xlink:href="#ArialMT-65" x="522.509766"/>
      <use xlink:href="#ArialMT-73" x="578.125"/>
      <use xlink:href="#ArialMT-73" x="628.125"/>
      <use xlink:href="#ArialMT-69" x="678.125"/>
      <use xlink:href="#ArialMT-6f" x="700.341797"/>
      <use xlink:href="#ArialMT-6e" x="755.957031"/>
     </g>
    </g>
    <g id="line2d_48">
     <path d="M 841.63125 124.57 
L 851.63125 124.57 
L 861.63125 124.57 
" style="fill: none; stroke: #d62728; stroke-width: 1.5; stroke-linecap: round"/>
    </g>
    <g id="text_23">
     <!-- Decision Tree -->
     <g style="fill: #262626" transform="translate(869.63125 128.07) scale(0.1 -0.1)">
      <defs>
       <path id="ArialMT-63" d="M 2588 1216 
L 3141 1144 
Q 3050 572 2676 248 
Q 2303 -75 1759 -75 
Q 1078 -75 664 370 
Q 250 816 250 1647 
Q 250 2184 428 2587 
Q 606 2991 970 3192 
Q 1334 3394 1763 3394 
Q 2303 3394 2647 3120 
Q 2991 2847 3088 2344 
L 2541 2259 
Q 2463 2594 2264 2762 
Q 2066 2931 1784 2931 
Q 1359 2931 1093 2626 
Q 828 2322 828 1663 
Q 828 994 1084 691 
Q 1341 388 1753 388 
Q 2084 388 2306 591 
Q 2528 794 2588 1216 
z
" transform="scale(0.015625)"/>
      </defs>
      <use xlink:href="#ArialMT-44"/>
      <use xlink:href="#ArialMT-65" x="72.216797"/>
      <use xlink:href="#ArialMT-63" x="127.832031"/>
      <use xlink:href="#ArialMT-69" x="177.832031"/>
      <use xlink:href="#ArialMT-73" x="200.048828"/>
      <use xlink:href="#ArialMT-69" x="250.048828"/>
      <use xlink:href="#ArialMT-6f" x="272.265625"/>
      <use xlink:href="#ArialMT-6e" x="327.880859"/>
      <use xlink:href="#ArialMT-20" x="383.496094"/>
      <use xlink:href="#ArialMT-54" x="409.529297"/>
      <use xlink:href="#ArialMT-72" x="466.863281"/>
      <use xlink:href="#ArialMT-65" x="500.164062"/>
      <use xlink:href="#ArialMT-65" x="555.779297"/>
     </g>
    </g>
    <g id="line2d_49">
     <path d="M 841.63125 138.715313 
L 851.63125 138.715313 
L 861.63125 138.715313 
" style="fill: none; stroke: #9467bd; stroke-width: 1.5; stroke-linecap: round"/>
    </g>
    <g id="text_24">
     <!-- SVR -->
     <g style="fill: #262626" transform="translate(869.63125 142.215313) scale(0.1 -0.1)">
      <defs>
       <path id="ArialMT-53" d="M 288 1472 
L 859 1522 
Q 900 1178 1048 958 
Q 1197 738 1509 602 
Q 1822 466 2213 466 
Q 2559 466 2825 569 
Q 3091 672 3220 851 
Q 3350 1031 3350 1244 
Q 3350 1459 3225 1620 
Q 3100 1781 2813 1891 
Q 2628 1963 1997 2114 
Q 1366 2266 1113 2400 
Q 784 2572 623 2826 
Q 463 3081 463 3397 
Q 463 3744 659 4045 
Q 856 4347 1234 4503 
Q 1613 4659 2075 4659 
Q 2584 4659 2973 4495 
Q 3363 4331 3572 4012 
Q 3781 3694 3797 3291 
L 3216 3247 
Q 3169 3681 2898 3903 
Q 2628 4125 2100 4125 
Q 1550 4125 1298 3923 
Q 1047 3722 1047 3438 
Q 1047 3191 1225 3031 
Q 1400 2872 2139 2705 
Q 2878 2538 3153 2413 
Q 3553 2228 3743 1945 
Q 3934 1663 3934 1294 
Q 3934 928 3725 604 
Q 3516 281 3123 101 
Q 2731 -78 2241 -78 
Q 1619 -78 1198 103 
Q 778 284 539 648 
Q 300 1013 288 1472 
z
" transform="scale(0.015625)"/>
       <path id="ArialMT-56" d="M 1803 0 
L 28 4581 
L 684 4581 
L 1875 1253 
Q 2019 853 2116 503 
Q 2222 878 2363 1253 
L 3600 4581 
L 4219 4581 
L 2425 0 
L 1803 0 
z
" transform="scale(0.015625)"/>
      </defs>
      <use xlink:href="#ArialMT-53"/>
      <use xlink:href="#ArialMT-56" x="66.699219"/>
      <use xlink:href="#ArialMT-52" x="133.398438"/>
     </g>
    </g>
    <g id="line2d_50">
     <path d="M 841.63125 152.860625 
L 851.63125 152.860625 
L 861.63125 152.860625 
" style="fill: none; stroke: #8c564b; stroke-width: 1.5; stroke-linecap: round"/>
    </g>
    <g id="text_25">
     <!-- K-Nearest Neighbors -->
     <g style="fill: #262626" transform="translate(869.63125 156.360625) scale(0.1 -0.1)">
      <defs>
       <path id="ArialMT-4b" d="M 469 0 
L 469 4581 
L 1075 4581 
L 1075 2309 
L 3350 4581 
L 4172 4581 
L 2250 2725 
L 4256 0 
L 3456 0 
L 1825 2319 
L 1075 1588 
L 1075 0 
L 469 0 
z
" transform="scale(0.015625)"/>
       <path id="ArialMT-4e" d="M 488 0 
L 488 4581 
L 1109 4581 
L 3516 984 
L 3516 4581 
L 4097 4581 
L 4097 0 
L 3475 0 
L 1069 3600 
L 1069 0 
L 488 0 
z
" transform="scale(0.015625)"/>
       <path id="ArialMT-62" d="M 941 0 
L 419 0 
L 419 4581 
L 981 4581 
L 981 2947 
Q 1338 3394 1891 3394 
Q 2197 3394 2470 3270 
Q 2744 3147 2920 2923 
Q 3097 2700 3197 2384 
Q 3297 2069 3297 1709 
Q 3297 856 2875 390 
Q 2453 -75 1863 -75 
Q 1275 -75 941 416 
L 941 0 
z
M 934 1684 
Q 934 1088 1097 822 
Q 1363 388 1816 388 
Q 2184 388 2453 708 
Q 2722 1028 2722 1663 
Q 2722 2313 2464 2622 
Q 2206 2931 1841 2931 
Q 1472 2931 1203 2611 
Q 934 2291 934 1684 
z
" transform="scale(0.015625)"/>
      </defs>
      <use xlink:href="#ArialMT-4b"/>
      <use xlink:href="#ArialMT-2d" x="66.699219"/>
      <use xlink:href="#ArialMT-4e" x="100"/>
      <use xlink:href="#ArialMT-65" x="172.216797"/>
      <use xlink:href="#ArialMT-61" x="227.832031"/>
      <use xlink:href="#ArialMT-72" x="283.447266"/>
      <use xlink:href="#ArialMT-65" x="316.748047"/>
      <use xlink:href="#ArialMT-73" x="372.363281"/>
      <use xlink:href="#ArialMT-74" x="422.363281"/>
      <use xlink:href="#ArialMT-20" x="450.146484"/>
      <use xlink:href="#ArialMT-4e" x="477.929688"/>
      <use xlink:href="#ArialMT-65" x="550.146484"/>
      <use xlink:href="#ArialMT-69" x="605.761719"/>
      <use xlink:href="#ArialMT-67" x="627.978516"/>
      <use xlink:href="#ArialMT-68" x="683.59375"/>
      <use xlink:href="#ArialMT-62" x="739.208984"/>
      <use xlink:href="#ArialMT-6f" x="794.824219"/>
      <use xlink:href="#ArialMT-72" x="850.439453"/>
      <use xlink:href="#ArialMT-73" x="883.740234"/>
     </g>
    </g>
    <g id="line2d_51">
     <path d="M 841.63125 167.123125 
L 851.63125 167.123125 
L 861.63125 167.123125 
" style="fill: none; stroke: #e377c2; stroke-width: 1.5; stroke-linecap: round"/>
    </g>
    <g id="text_26">
     <!-- XGBoost -->
     <g style="fill: #262626" transform="translate(869.63125 170.623125) scale(0.1 -0.1)">
      <defs>
       <path id="ArialMT-58" d="M 28 0 
L 1800 2388 
L 238 4581 
L 959 4581 
L 1791 3406 
Q 2050 3041 2159 2844 
Q 2313 3094 2522 3366 
L 3444 4581 
L 4103 4581 
L 2494 2422 
L 4228 0 
L 3478 0 
L 2325 1634 
Q 2228 1775 2125 1941 
Q 1972 1691 1906 1597 
L 756 0 
L 28 0 
z
" transform="scale(0.015625)"/>
      </defs>
      <use xlink:href="#ArialMT-58"/>
      <use xlink:href="#ArialMT-47" x="66.699219"/>
      <use xlink:href="#ArialMT-42" x="144.482422"/>
      <use xlink:href="#ArialMT-6f" x="211.181641"/>
      <use xlink:href="#ArialMT-6f" x="266.796875"/>
      <use xlink:href="#ArialMT-73" x="322.412109"/>
      <use xlink:href="#ArialMT-74" x="372.412109"/>
     </g>
    </g>
    <g id="line2d_52">
     <path d="M 841.63125 181.268438 
L 851.63125 181.268438 
L 861.63125 181.268438 
" style="fill: none; stroke: #7f7f7f; stroke-width: 1.5; stroke-linecap: round"/>
    </g>
    <g id="text_27">
     <!-- Ridge Regression -->
     <g style="fill: #262626" transform="translate(869.63125 184.768438) scale(0.1 -0.1)">
      <use xlink:href="#ArialMT-52"/>
      <use xlink:href="#ArialMT-69" x="72.216797"/>
      <use xlink:href="#ArialMT-64" x="94.433594"/>
      <use xlink:href="#ArialMT-67" x="150.048828"/>
      <use xlink:href="#ArialMT-65" x="205.664062"/>
      <use xlink:href="#ArialMT-20" x="261.279297"/>
      <use xlink:href="#ArialMT-52" x="289.0625"/>
      <use xlink:href="#ArialMT-65" x="361.279297"/>
      <use xlink:href="#ArialMT-67" x="416.894531"/>
      <use xlink:href="#ArialMT-72" x="472.509766"/>
      <use xlink:href="#ArialMT-65" x="505.810547"/>
      <use xlink:href="#ArialMT-73" x="561.425781"/>
      <use xlink:href="#ArialMT-73" x="611.425781"/>
      <use xlink:href="#ArialMT-69" x="661.425781"/>
      <use xlink:href="#ArialMT-6f" x="683.642578"/>
      <use xlink:href="#ArialMT-6e" x="739.257812"/>
     </g>
    </g>
    <g id="line2d_53">
     <path d="M 841.63125 195.530938 
L 851.63125 195.530938 
L 861.63125 195.530938 
" style="fill: none; stroke: #bcbd22; stroke-width: 1.5; stroke-linecap: round"/>
    </g>
    <g id="text_28">
     <!-- ElasticNet -->
     <g style="fill: #262626" transform="translate(869.63125 199.030938) scale(0.1 -0.1)">
      <defs>
       <path id="ArialMT-45" d="M 506 0 
L 506 4581 
L 3819 4581 
L 3819 4041 
L 1113 4041 
L 1113 2638 
L 3647 2638 
L 3647 2100 
L 1113 2100 
L 1113 541 
L 3925 541 
L 3925 0 
L 506 0 
z
" transform="scale(0.015625)"/>
      </defs>
      <use xlink:href="#ArialMT-45"/>
      <use xlink:href="#ArialMT-6c" x="66.699219"/>
      <use xlink:href="#ArialMT-61" x="88.916016"/>
      <use xlink:href="#ArialMT-73" x="144.53125"/>
      <use xlink:href="#ArialMT-74" x="194.53125"/>
      <use xlink:href="#ArialMT-69" x="222.314453"/>
      <use xlink:href="#ArialMT-63" x="244.53125"/>
      <use xlink:href="#ArialMT-4e" x="294.53125"/>
      <use xlink:href="#ArialMT-65" x="366.748047"/>
      <use xlink:href="#ArialMT-74" x="422.363281"/>
     </g>
    </g>
    <g id="line2d_54">
     <path d="M 841.63125 209.67625 
L 851.63125 209.67625 
L 861.63125 209.67625 
" style="fill: none; stroke: #17becf; stroke-width: 1.5; stroke-linecap: round"/>
    </g>
    <g id="text_29">
     <!-- LSTM -->
     <g style="fill: #262626" transform="translate(869.63125 213.17625) scale(0.1 -0.1)">
      <defs>
       <path id="ArialMT-4d" d="M 475 0 
L 475 4581 
L 1388 4581 
L 2472 1338 
Q 2622 884 2691 659 
Q 2769 909 2934 1394 
L 4031 4581 
L 4847 4581 
L 4847 0 
L 4263 0 
L 4263 3834 
L 2931 0 
L 2384 0 
L 1059 3900 
L 1059 0 
L 475 0 
z
" transform="scale(0.015625)"/>
      </defs>
      <use xlink:href="#ArialMT-4c"/>
      <use xlink:href="#ArialMT-53" x="55.615234"/>
      <use xlink:href="#ArialMT-54" x="122.314453"/>
      <use xlink:href="#ArialMT-4d" x="183.398438"/>
     </g>
    </g>
    <g id="line2d_55">
     <path d="M 841.63125 223.821563 
L 851.63125 223.821563 
L 861.63125 223.821563 
" style="fill: none; stroke: #1f77b4; stroke-width: 1.5; stroke-linecap: round"/>
    </g>
    <g id="text_30">
     <!-- RNN -->
     <g style="fill: #262626" transform="translate(869.63125 227.321563) scale(0.1 -0.1)">
      <use xlink:href="#ArialMT-52"/>
      <use xlink:href="#ArialMT-4e" x="72.216797"/>
      <use xlink:href="#ArialMT-4e" x="144.433594"/>
     </g>
    </g>
    <g id="line2d_56">
     <path d="M 841.63125 238.08875 
L 851.63125 238.08875 
L 861.63125 238.08875 
" style="fill: none; stroke: #000000; stroke-width: 2; stroke-linecap: round"/>
    </g>
    <g id="text_31">
     <!-- Gerçek Değerler -->
     <g style="fill: #262626" transform="translate(869.63125 241.58875) scale(0.1 -0.1)">
      <use xlink:href="#ArialMT-47"/>
      <use xlink:href="#ArialMT-65" x="77.783203"/>
      <use xlink:href="#ArialMT-72" x="133.398438"/>
      <use xlink:href="#ArialMT-e7" x="166.699219"/>
      <use xlink:href="#ArialMT-65" x="216.699219"/>
      <use xlink:href="#ArialMT-6b" x="272.314453"/>
      <use xlink:href="#ArialMT-20" x="322.314453"/>
      <use xlink:href="#ArialMT-44" x="350.097656"/>
      <use xlink:href="#ArialMT-65" x="422.314453"/>
      <use xlink:href="#ArialMT-11f" x="477.929688"/>
      <use xlink:href="#ArialMT-65" x="533.544922"/>
      <use xlink:href="#ArialMT-72" x="589.160156"/>
      <use xlink:href="#ArialMT-6c" x="622.460938"/>
      <use xlink:href="#ArialMT-65" x="644.677734"/>
      <use xlink:href="#ArialMT-72" x="700.292969"/>
     </g>
    </g>
   </g>
  </g>
 </g>
 <defs>
  <clipPath id="pb3b8158431">
   <rect x="135" y="69.12" width="837" height="443.52"/>
  </clipPath>
 </defs>
</svg>
