<?xml version="1.0" encoding="utf-8" standalone="no"?>
<!DOCTYPE svg PUBLIC "-//W3C//DTD SVG 1.1//EN"
  "http://www.w3.org/Graphics/SVG/1.1/DTD/svg11.dtd">
<svg xmlns:xlink="http://www.w3.org/1999/xlink" width="1080pt" height="576pt" viewBox="0 0 1080 576" xmlns="http://www.w3.org/2000/svg" version="1.1">
 <metadata>
  <rdf:RDF xmlns:dc="http://purl.org/dc/elements/1.1/" xmlns:cc="http://creativecommons.org/ns#" xmlns:rdf="http://www.w3.org/1999/02/22-rdf-syntax-ns#">
   <cc:Work>
    <dc:type rdf:resource="http://purl.org/dc/dcmitype/StillImage"/>
    <dc:date>2023-05-23T14:06:42.124960</dc:date>
    <dc:format>image/svg+xml</dc:format>
    <dc:creator>
     <cc:Agent>
      <dc:title>Matplotlib v3.7.1, https://matplotlib.org/</dc:title>
     </cc:Agent>
    </dc:creator>
   </cc:Work>
  </rdf:RDF>
 </metadata>
 <defs>
  <style type="text/css">*{stroke-linejoin: round; stroke-linecap: butt}</style>
 </defs>
 <g id="figure_1">
  <g id="patch_1">
   <path d="M 0 576 
L 1080 576 
L 1080 0 
L 0 0 
z
" style="fill: #ffffff"/>
  </g>
  <g id="axes_1">
   <g id="patch_2">
    <path d="M 135 512.64 
L 972 512.64 
L 972 69.12 
L 135 69.12 
z
" style="fill: #ffffff"/>
   </g>
   <g id="matplotlib.axis_1">
    <g id="xtick_1">
     <g id="line2d_1">
      <path d="M 269.305038 512.64 
L 269.305038 69.12 
" clip-path="url(#pcbb46e941b)" style="fill: none; stroke: #cccccc; stroke-width: 0.8; stroke-linecap: round"/>
     </g>
     <g id="line2d_2"/>
     <g id="text_1">
      <!-- 2022-12 -->
      <g style="fill: #262626" transform="translate(250.957382 523.297812) scale(0.1 -0.1)">
       <defs>
        <path id="ArialMT-32" d="M 3222 541 
L 3222 0 
L 194 0 
Q 188 203 259 391 
Q 375 700 629 1000 
Q 884 1300 1366 1694 
Q 2113 2306 2375 2664 
Q 2638 3022 2638 3341 
Q 2638 3675 2398 3904 
Q 2159 4134 1775 4134 
Q 1369 4134 1125 3890 
Q 881 3647 878 3216 
L 300 3275 
Q 359 3922 746 4261 
Q 1134 4600 1788 4600 
Q 2447 4600 2831 4234 
Q 3216 3869 3216 3328 
Q 3216 3053 3103 2787 
Q 2991 2522 2730 2228 
Q 2469 1934 1863 1422 
Q 1356 997 1212 845 
Q 1069 694 975 541 
L 3222 541 
z
" transform="scale(0.015625)"/>
        <path id="ArialMT-30" d="M 266 2259 
Q 266 3072 433 3567 
Q 600 4063 929 4331 
Q 1259 4600 1759 4600 
Q 2128 4600 2406 4451 
Q 2684 4303 2865 4023 
Q 3047 3744 3150 3342 
Q 3253 2941 3253 2259 
Q 3253 1453 3087 958 
Q 2922 463 2592 192 
Q 2263 -78 1759 -78 
Q 1097 -78 719 397 
Q 266 969 266 2259 
z
M 844 2259 
Q 844 1131 1108 757 
Q 1372 384 1759 384 
Q 2147 384 2411 759 
Q 2675 1134 2675 2259 
Q 2675 3391 2411 3762 
Q 2147 4134 1753 4134 
Q 1366 4134 1134 3806 
Q 844 3388 844 2259 
z
" transform="scale(0.015625)"/>
        <path id="ArialMT-2d" d="M 203 1375 
L 203 1941 
L 1931 1941 
L 1931 1375 
L 203 1375 
z
" transform="scale(0.015625)"/>
        <path id="ArialMT-31" d="M 2384 0 
L 1822 0 
L 1822 3584 
Q 1619 3391 1289 3197 
Q 959 3003 697 2906 
L 697 3450 
Q 1169 3672 1522 3987 
Q 1875 4303 2022 4600 
L 2384 4600 
L 2384 0 
z
" transform="scale(0.015625)"/>
       </defs>
       <use xlink:href="#ArialMT-32"/>
       <use xlink:href="#ArialMT-30" x="55.615234"/>
       <use xlink:href="#ArialMT-32" x="111.230469"/>
       <use xlink:href="#ArialMT-32" x="166.845703"/>
       <use xlink:href="#ArialMT-2d" x="222.460938"/>
       <use xlink:href="#ArialMT-31" x="255.761719"/>
       <use xlink:href="#ArialMT-32" x="311.376953"/>
      </g>
     </g>
    </g>
    <g id="xtick_2">
     <g id="line2d_3">
      <path d="M 411.402519 512.64 
L 411.402519 69.12 
" clip-path="url(#pcbb46e941b)" style="fill: none; stroke: #cccccc; stroke-width: 0.8; stroke-linecap: round"/>
     </g>
     <g id="line2d_4"/>
     <g id="text_2">
      <!-- 2023-01 -->
      <g style="fill: #262626" transform="translate(393.054863 523.297812) scale(0.1 -0.1)">
       <defs>
        <path id="ArialMT-33" d="M 269 1209 
L 831 1284 
Q 928 806 1161 595 
Q 1394 384 1728 384 
Q 2125 384 2398 659 
Q 2672 934 2672 1341 
Q 2672 1728 2419 1979 
Q 2166 2231 1775 2231 
Q 1616 2231 1378 2169 
L 1441 2663 
Q 1497 2656 1531 2656 
Q 1891 2656 2178 2843 
Q 2466 3031 2466 3422 
Q 2466 3731 2256 3934 
Q 2047 4138 1716 4138 
Q 1388 4138 1169 3931 
Q 950 3725 888 3313 
L 325 3413 
Q 428 3978 793 4289 
Q 1159 4600 1703 4600 
Q 2078 4600 2393 4439 
Q 2709 4278 2876 4000 
Q 3044 3722 3044 3409 
Q 3044 3113 2884 2869 
Q 2725 2625 2413 2481 
Q 2819 2388 3044 2092 
Q 3269 1797 3269 1353 
Q 3269 753 2831 336 
Q 2394 -81 1725 -81 
Q 1122 -81 723 278 
Q 325 638 269 1209 
z
" transform="scale(0.015625)"/>
       </defs>
       <use xlink:href="#ArialMT-32"/>
       <use xlink:href="#ArialMT-30" x="55.615234"/>
       <use xlink:href="#ArialMT-32" x="111.230469"/>
       <use xlink:href="#ArialMT-33" x="166.845703"/>
       <use xlink:href="#ArialMT-2d" x="222.460938"/>
       <use xlink:href="#ArialMT-30" x="255.761719"/>
       <use xlink:href="#ArialMT-31" x="311.376953"/>
      </g>
     </g>
    </g>
    <g id="xtick_3">
     <g id="line2d_5">
      <path d="M 553.5 512.64 
L 553.5 69.12 
" clip-path="url(#pcbb46e941b)" style="fill: none; stroke: #cccccc; stroke-width: 0.8; stroke-linecap: round"/>
     </g>
     <g id="line2d_6"/>
     <g id="text_3">
      <!-- 2023-02 -->
      <g style="fill: #262626" transform="translate(535.152344 523.297812) scale(0.1 -0.1)">
       <use xlink:href="#ArialMT-32"/>
       <use xlink:href="#ArialMT-30" x="55.615234"/>
       <use xlink:href="#ArialMT-32" x="111.230469"/>
       <use xlink:href="#ArialMT-33" x="166.845703"/>
       <use xlink:href="#ArialMT-2d" x="222.460938"/>
       <use xlink:href="#ArialMT-30" x="255.761719"/>
       <use xlink:href="#ArialMT-32" x="311.376953"/>
      </g>
     </g>
    </g>
    <g id="xtick_4">
     <g id="line2d_7">
      <path d="M 681.846112 512.64 
L 681.846112 69.12 
" clip-path="url(#pcbb46e941b)" style="fill: none; stroke: #cccccc; stroke-width: 0.8; stroke-linecap: round"/>
     </g>
     <g id="line2d_8"/>
     <g id="text_4">
      <!-- 2023-03 -->
      <g style="fill: #262626" transform="translate(663.498455 523.297812) scale(0.1 -0.1)">
       <use xlink:href="#ArialMT-32"/>
       <use xlink:href="#ArialMT-30" x="55.615234"/>
       <use xlink:href="#ArialMT-32" x="111.230469"/>
       <use xlink:href="#ArialMT-33" x="166.845703"/>
       <use xlink:href="#ArialMT-2d" x="222.460938"/>
       <use xlink:href="#ArialMT-30" x="255.761719"/>
       <use xlink:href="#ArialMT-33" x="311.376953"/>
      </g>
     </g>
    </g>
    <g id="xtick_5">
     <g id="line2d_9">
      <path d="M 823.943593 512.64 
L 823.943593 69.12 
" clip-path="url(#pcbb46e941b)" style="fill: none; stroke: #cccccc; stroke-width: 0.8; stroke-linecap: round"/>
     </g>
     <g id="line2d_10"/>
     <g id="text_5">
      <!-- 2023-04 -->
      <g style="fill: #262626" transform="translate(805.595936 523.297812) scale(0.1 -0.1)">
       <defs>
        <path id="ArialMT-34" d="M 2069 0 
L 2069 1097 
L 81 1097 
L 81 1613 
L 2172 4581 
L 2631 4581 
L 2631 1613 
L 3250 1613 
L 3250 1097 
L 2631 1097 
L 2631 0 
L 2069 0 
z
M 2069 1613 
L 2069 3678 
L 634 1613 
L 2069 1613 
z
" transform="scale(0.015625)"/>
       </defs>
       <use xlink:href="#ArialMT-32"/>
       <use xlink:href="#ArialMT-30" x="55.615234"/>
       <use xlink:href="#ArialMT-32" x="111.230469"/>
       <use xlink:href="#ArialMT-33" x="166.845703"/>
       <use xlink:href="#ArialMT-2d" x="222.460938"/>
       <use xlink:href="#ArialMT-30" x="255.761719"/>
       <use xlink:href="#ArialMT-34" x="311.376953"/>
      </g>
     </g>
    </g>
    <g id="xtick_6">
     <g id="line2d_11">
      <path d="M 961.457284 512.64 
L 961.457284 69.12 
" clip-path="url(#pcbb46e941b)" style="fill: none; stroke: #cccccc; stroke-width: 0.8; stroke-linecap: round"/>
     </g>
     <g id="line2d_12"/>
     <g id="text_6">
      <!-- 2023-05 -->
      <g style="fill: #262626" transform="translate(943.109627 523.297812) scale(0.1 -0.1)">
       <defs>
        <path id="ArialMT-35" d="M 266 1200 
L 856 1250 
Q 922 819 1161 601 
Q 1400 384 1738 384 
Q 2144 384 2425 690 
Q 2706 997 2706 1503 
Q 2706 1984 2436 2262 
Q 2166 2541 1728 2541 
Q 1456 2541 1237 2417 
Q 1019 2294 894 2097 
L 366 2166 
L 809 4519 
L 3088 4519 
L 3088 3981 
L 1259 3981 
L 1013 2750 
Q 1425 3038 1878 3038 
Q 2478 3038 2890 2622 
Q 3303 2206 3303 1553 
Q 3303 931 2941 478 
Q 2500 -78 1738 -78 
Q 1113 -78 717 272 
Q 322 622 266 1200 
z
" transform="scale(0.015625)"/>
       </defs>
       <use xlink:href="#ArialMT-32"/>
       <use xlink:href="#ArialMT-30" x="55.615234"/>
       <use xlink:href="#ArialMT-32" x="111.230469"/>
       <use xlink:href="#ArialMT-33" x="166.845703"/>
       <use xlink:href="#ArialMT-2d" x="222.460938"/>
       <use xlink:href="#ArialMT-30" x="255.761719"/>
       <use xlink:href="#ArialMT-35" x="311.376953"/>
      </g>
     </g>
    </g>
    <g id="text_7">
     <!-- Date -->
     <g style="fill: #262626" transform="translate(542.939062 536.443125) scale(0.1 -0.1)">
      <defs>
       <path id="ArialMT-44" d="M 494 0 
L 494 4581 
L 2072 4581 
Q 2606 4581 2888 4516 
Q 3281 4425 3559 4188 
Q 3922 3881 4101 3404 
Q 4281 2928 4281 2316 
Q 4281 1794 4159 1391 
Q 4038 988 3847 723 
Q 3656 459 3429 307 
Q 3203 156 2883 78 
Q 2563 0 2147 0 
L 494 0 
z
M 1100 541 
L 2078 541 
Q 2531 541 2789 625 
Q 3047 709 3200 863 
Q 3416 1078 3536 1442 
Q 3656 1806 3656 2325 
Q 3656 3044 3420 3430 
Q 3184 3816 2847 3947 
Q 2603 4041 2063 4041 
L 1100 4041 
L 1100 541 
z
" transform="scale(0.015625)"/>
       <path id="ArialMT-61" d="M 2588 409 
Q 2275 144 1986 34 
Q 1697 -75 1366 -75 
Q 819 -75 525 192 
Q 231 459 231 875 
Q 231 1119 342 1320 
Q 453 1522 633 1644 
Q 813 1766 1038 1828 
Q 1203 1872 1538 1913 
Q 2219 1994 2541 2106 
Q 2544 2222 2544 2253 
Q 2544 2597 2384 2738 
Q 2169 2928 1744 2928 
Q 1347 2928 1158 2789 
Q 969 2650 878 2297 
L 328 2372 
Q 403 2725 575 2942 
Q 747 3159 1072 3276 
Q 1397 3394 1825 3394 
Q 2250 3394 2515 3294 
Q 2781 3194 2906 3042 
Q 3031 2891 3081 2659 
Q 3109 2516 3109 2141 
L 3109 1391 
Q 3109 606 3145 398 
Q 3181 191 3288 0 
L 2700 0 
Q 2613 175 2588 409 
z
M 2541 1666 
Q 2234 1541 1622 1453 
Q 1275 1403 1131 1340 
Q 988 1278 909 1158 
Q 831 1038 831 891 
Q 831 666 1001 516 
Q 1172 366 1500 366 
Q 1825 366 2078 508 
Q 2331 650 2450 897 
Q 2541 1088 2541 1459 
L 2541 1666 
z
" transform="scale(0.015625)"/>
       <path id="ArialMT-74" d="M 1650 503 
L 1731 6 
Q 1494 -44 1306 -44 
Q 1000 -44 831 53 
Q 663 150 594 308 
Q 525 466 525 972 
L 525 2881 
L 113 2881 
L 113 3319 
L 525 3319 
L 525 4141 
L 1084 4478 
L 1084 3319 
L 1650 3319 
L 1650 2881 
L 1084 2881 
L 1084 941 
Q 1084 700 1114 631 
Q 1144 563 1211 522 
Q 1278 481 1403 481 
Q 1497 481 1650 503 
z
" transform="scale(0.015625)"/>
       <path id="ArialMT-65" d="M 2694 1069 
L 3275 997 
Q 3138 488 2766 206 
Q 2394 -75 1816 -75 
Q 1088 -75 661 373 
Q 234 822 234 1631 
Q 234 2469 665 2931 
Q 1097 3394 1784 3394 
Q 2450 3394 2872 2941 
Q 3294 2488 3294 1666 
Q 3294 1616 3291 1516 
L 816 1516 
Q 847 969 1125 678 
Q 1403 388 1819 388 
Q 2128 388 2347 550 
Q 2566 713 2694 1069 
z
M 847 1978 
L 2700 1978 
Q 2663 2397 2488 2606 
Q 2219 2931 1791 2931 
Q 1403 2931 1139 2672 
Q 875 2413 847 1978 
z
" transform="scale(0.015625)"/>
      </defs>
      <use xlink:href="#ArialMT-44"/>
      <use xlink:href="#ArialMT-61" x="72.216797"/>
      <use xlink:href="#ArialMT-74" x="127.832031"/>
      <use xlink:href="#ArialMT-65" x="155.615234"/>
     </g>
    </g>
   </g>
   <g id="matplotlib.axis_2">
    <g id="ytick_1">
     <g id="line2d_13">
      <path d="M 135 479.14482 
L 972 479.14482 
" clip-path="url(#pcbb46e941b)" style="fill: none; stroke: #cccccc; stroke-width: 0.8; stroke-linecap: round"/>
     </g>
     <g id="line2d_14"/>
     <g id="text_8">
      <!-- 44 -->
      <g style="fill: #262626" transform="translate(120.378125 482.723726) scale(0.1 -0.1)">
       <use xlink:href="#ArialMT-34"/>
       <use xlink:href="#ArialMT-34" x="55.615234"/>
      </g>
     </g>
    </g>
    <g id="ytick_2">
     <g id="line2d_15">
      <path d="M 135 387.238796 
L 972 387.238796 
" clip-path="url(#pcbb46e941b)" style="fill: none; stroke: #cccccc; stroke-width: 0.8; stroke-linecap: round"/>
     </g>
     <g id="line2d_16"/>
     <g id="text_9">
      <!-- 46 -->
      <g style="fill: #262626" transform="translate(120.378125 390.817703) scale(0.1 -0.1)">
       <defs>
        <path id="ArialMT-36" d="M 3184 3459 
L 2625 3416 
Q 2550 3747 2413 3897 
Q 2184 4138 1850 4138 
Q 1581 4138 1378 3988 
Q 1113 3794 959 3422 
Q 806 3050 800 2363 
Q 1003 2672 1297 2822 
Q 1591 2972 1913 2972 
Q 2475 2972 2870 2558 
Q 3266 2144 3266 1488 
Q 3266 1056 3080 686 
Q 2894 316 2569 119 
Q 2244 -78 1831 -78 
Q 1128 -78 684 439 
Q 241 956 241 2144 
Q 241 3472 731 4075 
Q 1159 4600 1884 4600 
Q 2425 4600 2770 4297 
Q 3116 3994 3184 3459 
z
M 888 1484 
Q 888 1194 1011 928 
Q 1134 663 1356 523 
Q 1578 384 1822 384 
Q 2178 384 2434 671 
Q 2691 959 2691 1453 
Q 2691 1928 2437 2201 
Q 2184 2475 1800 2475 
Q 1419 2475 1153 2201 
Q 888 1928 888 1484 
z
" transform="scale(0.015625)"/>
       </defs>
       <use xlink:href="#ArialMT-34"/>
       <use xlink:href="#ArialMT-36" x="55.615234"/>
      </g>
     </g>
    </g>
    <g id="ytick_3">
     <g id="line2d_17">
      <path d="M 135 295.332773 
L 972 295.332773 
" clip-path="url(#pcbb46e941b)" style="fill: none; stroke: #cccccc; stroke-width: 0.8; stroke-linecap: round"/>
     </g>
     <g id="line2d_18"/>
     <g id="text_10">
      <!-- 48 -->
      <g style="fill: #262626" transform="translate(120.378125 298.911679) scale(0.1 -0.1)">
       <defs>
        <path id="ArialMT-38" d="M 1131 2484 
Q 781 2613 612 2850 
Q 444 3088 444 3419 
Q 444 3919 803 4259 
Q 1163 4600 1759 4600 
Q 2359 4600 2725 4251 
Q 3091 3903 3091 3403 
Q 3091 3084 2923 2848 
Q 2756 2613 2416 2484 
Q 2838 2347 3058 2040 
Q 3278 1734 3278 1309 
Q 3278 722 2862 322 
Q 2447 -78 1769 -78 
Q 1091 -78 675 323 
Q 259 725 259 1325 
Q 259 1772 486 2073 
Q 713 2375 1131 2484 
z
M 1019 3438 
Q 1019 3113 1228 2906 
Q 1438 2700 1772 2700 
Q 2097 2700 2305 2904 
Q 2513 3109 2513 3406 
Q 2513 3716 2298 3927 
Q 2084 4138 1766 4138 
Q 1444 4138 1231 3931 
Q 1019 3725 1019 3438 
z
M 838 1322 
Q 838 1081 952 856 
Q 1066 631 1291 507 
Q 1516 384 1775 384 
Q 2178 384 2440 643 
Q 2703 903 2703 1303 
Q 2703 1709 2433 1975 
Q 2163 2241 1756 2241 
Q 1359 2241 1098 1978 
Q 838 1716 838 1322 
z
" transform="scale(0.015625)"/>
       </defs>
       <use xlink:href="#ArialMT-34"/>
       <use xlink:href="#ArialMT-38" x="55.615234"/>
      </g>
     </g>
    </g>
    <g id="ytick_4">
     <g id="line2d_19">
      <path d="M 135 203.42675 
L 972 203.42675 
" clip-path="url(#pcbb46e941b)" style="fill: none; stroke: #cccccc; stroke-width: 0.8; stroke-linecap: round"/>
     </g>
     <g id="line2d_20"/>
     <g id="text_11">
      <!-- 50 -->
      <g style="fill: #262626" transform="translate(120.378125 207.005656) scale(0.1 -0.1)">
       <use xlink:href="#ArialMT-35"/>
       <use xlink:href="#ArialMT-30" x="55.615234"/>
      </g>
     </g>
    </g>
    <g id="ytick_5">
     <g id="line2d_21">
      <path d="M 135 111.520727 
L 972 111.520727 
" clip-path="url(#pcbb46e941b)" style="fill: none; stroke: #cccccc; stroke-width: 0.8; stroke-linecap: round"/>
     </g>
     <g id="line2d_22"/>
     <g id="text_12">
      <!-- 52 -->
      <g style="fill: #262626" transform="translate(120.378125 115.099633) scale(0.1 -0.1)">
       <use xlink:href="#ArialMT-35"/>
       <use xlink:href="#ArialMT-32" x="55.615234"/>
      </g>
     </g>
    </g>
    <g id="text_13">
     <!-- Adj Close -->
     <g style="fill: #262626" transform="translate(114.273438 312.278437) rotate(-90) scale(0.1 -0.1)">
      <defs>
       <path id="ArialMT-41" d="M -9 0 
L 1750 4581 
L 2403 4581 
L 4278 0 
L 3588 0 
L 3053 1388 
L 1138 1388 
L 634 0 
L -9 0 
z
M 1313 1881 
L 2866 1881 
L 2388 3150 
Q 2169 3728 2063 4100 
Q 1975 3659 1816 3225 
L 1313 1881 
z
" transform="scale(0.015625)"/>
       <path id="ArialMT-64" d="M 2575 0 
L 2575 419 
Q 2259 -75 1647 -75 
Q 1250 -75 917 144 
Q 584 363 401 755 
Q 219 1147 219 1656 
Q 219 2153 384 2558 
Q 550 2963 881 3178 
Q 1213 3394 1622 3394 
Q 1922 3394 2156 3267 
Q 2391 3141 2538 2938 
L 2538 4581 
L 3097 4581 
L 3097 0 
L 2575 0 
z
M 797 1656 
Q 797 1019 1065 703 
Q 1334 388 1700 388 
Q 2069 388 2326 689 
Q 2584 991 2584 1609 
Q 2584 2291 2321 2609 
Q 2059 2928 1675 2928 
Q 1300 2928 1048 2622 
Q 797 2316 797 1656 
z
" transform="scale(0.015625)"/>
       <path id="ArialMT-6a" d="M 419 3928 
L 419 4581 
L 981 4581 
L 981 3928 
L 419 3928 
z
M -294 -1288 
L -188 -809 
Q -19 -853 78 -853 
Q 250 -853 334 -739 
Q 419 -625 419 -169 
L 419 3319 
L 981 3319 
L 981 -181 
Q 981 -794 822 -1034 
Q 619 -1347 147 -1347 
Q -81 -1347 -294 -1288 
z
" transform="scale(0.015625)"/>
       <path id="ArialMT-20" transform="scale(0.015625)"/>
       <path id="ArialMT-43" d="M 3763 1606 
L 4369 1453 
Q 4178 706 3683 314 
Q 3188 -78 2472 -78 
Q 1731 -78 1267 223 
Q 803 525 561 1097 
Q 319 1669 319 2325 
Q 319 3041 592 3573 
Q 866 4106 1370 4382 
Q 1875 4659 2481 4659 
Q 3169 4659 3637 4309 
Q 4106 3959 4291 3325 
L 3694 3184 
Q 3534 3684 3231 3912 
Q 2928 4141 2469 4141 
Q 1941 4141 1586 3887 
Q 1231 3634 1087 3207 
Q 944 2781 944 2328 
Q 944 1744 1114 1308 
Q 1284 872 1643 656 
Q 2003 441 2422 441 
Q 2931 441 3284 734 
Q 3638 1028 3763 1606 
z
" transform="scale(0.015625)"/>
       <path id="ArialMT-6c" d="M 409 0 
L 409 4581 
L 972 4581 
L 972 0 
L 409 0 
z
" transform="scale(0.015625)"/>
       <path id="ArialMT-6f" d="M 213 1659 
Q 213 2581 725 3025 
Q 1153 3394 1769 3394 
Q 2453 3394 2887 2945 
Q 3322 2497 3322 1706 
Q 3322 1066 3130 698 
Q 2938 331 2570 128 
Q 2203 -75 1769 -75 
Q 1072 -75 642 372 
Q 213 819 213 1659 
z
M 791 1659 
Q 791 1022 1069 705 
Q 1347 388 1769 388 
Q 2188 388 2466 706 
Q 2744 1025 2744 1678 
Q 2744 2294 2464 2611 
Q 2184 2928 1769 2928 
Q 1347 2928 1069 2612 
Q 791 2297 791 1659 
z
" transform="scale(0.015625)"/>
       <path id="ArialMT-73" d="M 197 991 
L 753 1078 
Q 800 744 1014 566 
Q 1228 388 1613 388 
Q 2000 388 2187 545 
Q 2375 703 2375 916 
Q 2375 1106 2209 1216 
Q 2094 1291 1634 1406 
Q 1016 1563 777 1677 
Q 538 1791 414 1992 
Q 291 2194 291 2438 
Q 291 2659 392 2848 
Q 494 3038 669 3163 
Q 800 3259 1026 3326 
Q 1253 3394 1513 3394 
Q 1903 3394 2198 3281 
Q 2494 3169 2634 2976 
Q 2775 2784 2828 2463 
L 2278 2388 
Q 2241 2644 2061 2787 
Q 1881 2931 1553 2931 
Q 1166 2931 1000 2803 
Q 834 2675 834 2503 
Q 834 2394 903 2306 
Q 972 2216 1119 2156 
Q 1203 2125 1616 2013 
Q 2213 1853 2448 1751 
Q 2684 1650 2818 1456 
Q 2953 1263 2953 975 
Q 2953 694 2789 445 
Q 2625 197 2315 61 
Q 2006 -75 1616 -75 
Q 969 -75 630 194 
Q 291 463 197 991 
z
" transform="scale(0.015625)"/>
      </defs>
      <use xlink:href="#ArialMT-41"/>
      <use xlink:href="#ArialMT-64" x="66.699219"/>
      <use xlink:href="#ArialMT-6a" x="122.314453"/>
      <use xlink:href="#ArialMT-20" x="144.53125"/>
      <use xlink:href="#ArialMT-43" x="172.314453"/>
      <use xlink:href="#ArialMT-6c" x="244.53125"/>
      <use xlink:href="#ArialMT-6f" x="266.748047"/>
      <use xlink:href="#ArialMT-73" x="322.363281"/>
      <use xlink:href="#ArialMT-65" x="372.363281"/>
     </g>
    </g>
   </g>
   <g id="line2d_23">
    <path d="M 420.570099 341.586656 
L 425.153888 334.464249 
L 429.737678 337.984905 
L 434.321468 357.935528 
L 448.072837 315.199533 
L 452.656627 307.291852 
L 457.240416 328.338959 
L 461.824206 316.240643 
L 466.407996 305.877046 
L 484.743154 315.209845 
L 489.326944 320.122492 
L 493.910734 342.460207 
L 498.494524 360.95874 
L 512.245893 382.138698 
L 516.829682 351.834976 
L 521.413472 343.420802 
L 525.997262 338.013209 
L 530.581051 315.227997 
L 544.332421 315.985923 
L 548.91621 307.479083 
L 553.5 293.656173 
L 558.08379 329.165834 
L 562.667579 324.031287 
L 576.418949 320.512131 
L 581.002738 334.359436 
L 585.586528 332.371394 
L 590.170318 343.997359 
L 594.754107 351.70205 
L 608.505476 337.546106 
L 613.089266 321.261265 
L 617.673056 342.808306 
L 622.256846 341.34716 
L 626.840635 347.529807 
L 645.175794 320.344074 
L 649.759584 315.77221 
L 654.343373 302.133237 
L 658.927163 314.953805 
L 672.678532 308.937364 
L 677.262322 306.661578 
L 681.846112 293.850155 
L 686.429901 309.435864 
L 691.013691 304.606443 
L 704.76506 290.731417 
L 709.34885 293.311383 
L 713.93264 308.848628 
L 718.516429 296.556543 
L 723.100219 293.327234 
L 736.851588 310.948083 
L 741.435378 294.478277 
L 746.019168 291.838741 
L 750.602957 292.295261 
L 755.186747 294.305679 
L 768.938116 340.771162 
L 773.521906 307.806252 
L 778.105696 313.160976 
L 782.689485 309.591396 
L 787.273275 323.895817 
L 801.024644 306.270792 
L 805.608434 313.785103 
L 810.192223 317.009939 
L 814.776013 301.461511 
L 819.359803 303.539676 
L 833.111172 277.981572 
L 837.694962 273.781848 
L 842.278751 267.087413 
L 846.862541 259.714379 
L 865.1977 271.983073 
L 869.78149 282.182203 
L 874.365279 279.007706 
L 878.949069 270.493286 
L 883.532859 264.102753 
L 897.284228 257.614924 
L 901.868018 265.445858 
L 906.451807 260.684098 
L 911.035597 286.103493 
L 915.619387 343.008818 
L 929.370756 321.120363 
L 933.954545 341.269326 
" clip-path="url(#pcbb46e941b)" style="fill: none; stroke: #1f77b4; stroke-width: 1.5; stroke-linecap: round"/>
   </g>
   <g id="line2d_24">
    <path d="M 420.570099 348.731019 
L 425.153888 352.933793 
L 429.737678 333.898039 
L 434.321468 364.152085 
L 448.072837 301.6006 
L 452.656627 301.6006 
L 457.240416 330.722883 
L 461.824206 323.748988 
L 466.407996 316.359667 
L 484.743154 306.853656 
L 489.326944 313.075029 
L 493.910734 358.919804 
L 498.494524 342.364495 
L 512.245893 341.380396 
L 516.829682 324.779707 
L 521.413472 293.570294 
L 525.997262 313.316749 
L 530.581051 322.05824 
L 544.332421 316.459468 
L 548.91621 316.426486 
L 553.5 307.506774 
L 558.08379 304.211791 
L 562.667579 308.490872 
L 576.418949 297.040557 
L 581.002738 297.552677 
L 585.586528 298.732301 
L 590.170318 373.152981 
L 594.754107 368.581281 
L 608.505476 338.207007 
L 613.089266 309.995879 
L 617.673056 310.168928 
L 622.256846 321.107124 
L 626.840635 319.992549 
L 645.175794 303.624678 
L 649.759584 303.624678 
L 654.343373 302.733839 
L 658.927163 307.506774 
L 672.678532 309.441989 
L 677.262322 281.798796 
L 681.846112 293.855058 
L 686.429901 296.496923 
L 691.013691 293.855058 
L 704.76506 290.740219 
L 709.34885 289.310678 
L 713.93264 293.008249 
L 718.516429 299.716399 
L 723.100219 296.568579 
L 736.851588 312.848553 
L 741.435378 292.903941 
L 746.019168 287.645497 
L 750.602957 292.903941 
L 755.186747 266.312567 
L 768.938116 271.232335 
L 773.521906 283.586627 
L 778.105696 284.537744 
L 782.689485 277.758267 
L 787.273275 277.758267 
L 801.024644 275.414402 
L 805.608434 275.414402 
L 810.192223 265.669024 
L 814.776013 278.709384 
L 819.359803 282.945139 
L 833.111172 240.789277 
L 837.694962 236.677475 
L 842.278751 239.805179 
L 846.862541 218.556606 
L 865.1977 226.764818 
L 869.78149 223.711319 
L 874.365279 266.653122 
L 878.949069 265.702005 
L 883.532859 262.554185 
L 897.284228 221.050499 
L 901.868018 217.547663 
L 906.451807 197.082929 
L 911.035597 240.993745 
L 915.619387 311.379905 
L 929.370756 276.678464 
L 933.954545 275.734189 
" clip-path="url(#pcbb46e941b)" style="fill: none; stroke: #ff7f0e; stroke-width: 1.5; stroke-linecap: round"/>
   </g>
   <g id="line2d_25">
    <path d="M 420.570099 417.923064 
L 425.153888 330.895686 
L 429.737678 320.562087 
L 434.321468 348.339507 
L 448.072837 294.465263 
L 452.656627 379.31487 
L 457.240416 353.976958 
L 461.824206 278.935899 
L 466.407996 160.275674 
L 484.743154 229.830208 
L 489.326944 297.368967 
L 493.910734 362.671796 
L 498.494524 345.642272 
L 512.245893 423.70425 
L 516.829682 403.819541 
L 521.413472 343.823923 
L 525.997262 306.973142 
L 530.581051 271.259444 
L 544.332421 282.631043 
L 548.91621 324.816217 
L 553.5 303.422831 
L 558.08379 261.23327 
L 562.667579 249.801639 
L 576.418949 310.327137 
L 581.002738 351.844329 
L 585.586528 332.518445 
L 590.170318 340.17858 
L 594.754107 361.347449 
L 608.505476 340.893934 
L 613.089266 288.455984 
L 617.673056 334.229367 
L 622.256846 308.634843 
L 626.840635 198.751211 
L 645.175794 281.495566 
L 649.759584 314.035385 
L 654.343373 297.15118 
L 658.927163 246.396936 
L 672.678532 236.084928 
L 677.262322 245.837317 
L 681.846112 236.352527 
L 686.429901 258.833513 
L 691.013691 254.280205 
L 704.76506 192.968449 
L 709.34885 298.653269 
L 713.93264 344.558601 
L 718.516429 327.888282 
L 723.100219 338.782927 
L 736.851588 316.988012 
L 741.435378 289.638977 
L 746.019168 233.681354 
L 750.602957 255.704685 
L 755.186747 195.912833 
L 768.938116 210.32471 
L 773.521906 226.315876 
L 778.105696 208.170138 
L 782.689485 289.688587 
L 787.273275 258.186762 
L 801.024644 242.680801 
L 805.608434 169.961363 
L 810.192223 122.971094 
L 814.776013 96.967118 
L 819.359803 158.69412 
L 833.111172 89.28 
L 837.694962 210.67302 
L 842.278751 231.241947 
L 846.862541 208.770161 
L 865.1977 193.084345 
L 869.78149 208.075446 
L 874.365279 189.586121 
L 878.949069 145.7034 
L 883.532859 136.85269 
L 897.284228 222.920476 
L 901.868018 194.941445 
L 906.451807 164.384691 
L 911.035597 277.343879 
L 915.619387 314.351312 
L 929.370756 342.105149 
L 933.954545 314.222791 
" clip-path="url(#pcbb46e941b)" style="fill: none; stroke: #2ca02c; stroke-width: 1.5; stroke-linecap: round"/>
   </g>
   <g id="line2d_26">
    <path d="M 420.570099 345.421037 
L 425.153888 345.421037 
L 429.737678 345.421037 
L 434.321468 345.421037 
L 448.072837 320.986587 
L 452.656627 320.986587 
L 457.240416 284.335001 
L 461.824206 320.986587 
L 466.407996 352.32037 
L 484.743154 352.32037 
L 489.326944 337.728662 
L 493.910734 345.421037 
L 498.494524 299.00121 
L 512.245893 345.421037 
L 516.829682 371.212985 
L 521.413472 337.728662 
L 525.997262 325.511524 
L 530.581051 337.728662 
L 544.332421 337.728662 
L 548.91621 311.031831 
L 553.5 320.986587 
L 558.08379 310.10977 
L 562.667579 310.10977 
L 576.418949 352.32037 
L 581.002738 339.435001 
L 585.586528 337.728662 
L 590.170318 345.421037 
L 594.754107 345.421037 
L 608.505476 345.421037 
L 613.089266 270.307924 
L 617.673056 311.031831 
L 622.256846 352.32037 
L 626.840635 352.32037 
L 645.175794 337.728662 
L 649.759584 337.728662 
L 654.343373 320.986587 
L 658.927163 337.728662 
L 672.678532 320.986587 
L 677.262322 310.10977 
L 681.846112 303.339456 
L 686.429901 299.445938 
L 691.013691 316.46165 
L 704.76506 316.46165 
L 709.34885 316.46165 
L 713.93264 252.208351 
L 718.516429 302.434574 
L 723.100219 320.986587 
L 736.851588 320.986587 
L 741.435378 302.434574 
L 746.019168 308.317009 
L 750.602957 270.307924 
L 755.186747 270.307924 
L 768.938116 322.343911 
L 773.521906 337.728662 
L 778.105696 337.728662 
L 782.689485 337.728662 
L 787.273275 337.728662 
L 801.024644 310.10977 
L 805.608434 352.32037 
L 810.192223 339.435001 
L 814.776013 299.445938 
L 819.359803 352.32037 
L 833.111172 316.46165 
L 837.694962 310.10977 
L 842.278751 302.434574 
L 846.862541 252.208351 
L 865.1977 352.32037 
L 869.78149 296.779673 
L 874.365279 296.779673 
L 878.949069 251.458431 
L 883.532859 308.317009 
L 897.284228 219.022909 
L 901.868018 219.022909 
L 906.451807 183.921121 
L 911.035597 219.022909 
L 915.619387 219.022909 
L 929.370756 183.921121 
L 933.954545 324.772473 
" clip-path="url(#pcbb46e941b)" style="fill: none; stroke: #d62728; stroke-width: 1.5; stroke-linecap: round"/>
   </g>
   <g id="line2d_27">
    <path d="M 420.570099 393.316179 
L 425.153888 394.33259 
L 429.737678 394.797361 
L 434.321468 395.963299 
L 448.072837 395.660336 
L 452.656627 394.686429 
L 457.240416 393.978701 
L 461.824206 392.948812 
L 466.407996 391.90898 
L 484.743154 390.271908 
L 489.326944 389.579372 
L 493.910734 390.278724 
L 498.494524 391.551169 
L 512.245893 392.54912 
L 516.829682 392.273019 
L 521.413472 391.725841 
L 525.997262 390.982639 
L 530.581051 389.423165 
L 544.332421 387.982616 
L 548.91621 387.040639 
L 553.5 385.690501 
L 558.08379 384.475881 
L 562.667579 381.818574 
L 576.418949 381.307609 
L 581.002738 382.542858 
L 585.586528 383.585089 
L 590.170318 386.082757 
L 594.754107 388.64707 
L 608.505476 390.238785 
L 613.089266 390.287872 
L 617.673056 389.748097 
L 622.256846 387.89759 
L 626.840635 382.776197 
L 645.175794 378.628393 
L 649.759584 376.344418 
L 654.343373 374.74127 
L 658.927163 373.571336 
L 672.678532 373.632661 
L 677.262322 373.217375 
L 681.846112 373.579475 
L 686.429901 373.957849 
L 691.013691 374.636646 
L 704.76506 373.739706 
L 709.34885 371.910283 
L 713.93264 370.926522 
L 718.516429 369.011845 
L 723.100219 367.403744 
L 736.851588 366.59899 
L 741.435378 366.558431 
L 746.019168 365.572397 
L 750.602957 365.215052 
L 755.186747 365.162041 
L 768.938116 364.855835 
L 773.521906 362.704247 
L 778.105696 360.715937 
L 782.689485 360.327315 
L 787.273275 359.070483 
L 801.024644 356.91715 
L 805.608434 354.60305 
L 810.192223 352.577799 
L 814.776013 349.682505 
L 819.359803 347.067979 
L 833.111172 343.483649 
L 837.694962 339.623322 
L 842.278751 336.067111 
L 846.862541 332.395571 
L 865.1977 329.405263 
L 869.78149 326.418918 
L 874.365279 324.983611 
L 878.949069 324.353093 
L 883.532859 323.564227 
L 897.284228 323.211543 
L 901.868018 323.73995 
L 906.451807 324.000474 
L 911.035597 326.553049 
L 915.619387 331.247123 
L 929.370756 335.72897 
L 933.954545 339.573944 
" clip-path="url(#pcbb46e941b)" style="fill: none; stroke: #9467bd; stroke-width: 1.5; stroke-linecap: round"/>
   </g>
   <g id="line2d_28">
    <path d="M 420.570099 354.561329 
L 425.153888 356.190257 
L 429.737678 352.027378 
L 434.321468 354.289864 
L 448.072837 354.289864 
L 452.656627 413.228164 
L 457.240416 413.228164 
L 461.824206 342.70604 
L 466.407996 328.859904 
L 484.743154 328.859904 
L 489.326944 328.859904 
L 493.910734 328.859904 
L 498.494524 330.217438 
L 512.245893 334.651817 
L 516.829682 329.945868 
L 521.413472 344.606503 
L 525.997262 326.687977 
L 530.581051 342.70604 
L 544.332421 342.70604 
L 548.91621 348.316976 
L 553.5 348.316976 
L 558.08379 354.199306 
L 562.667579 353.022889 
L 576.418949 344.606503 
L 581.002738 353.656342 
L 585.586528 354.651852 
L 590.170318 349.583951 
L 594.754107 351.212879 
L 608.505476 351.212879 
L 613.089266 329.945868 
L 617.673056 344.606503 
L 622.256846 343.882527 
L 626.840635 346.597454 
L 645.175794 343.882527 
L 649.759584 404.268778 
L 654.343373 343.70155 
L 658.927163 343.70155 
L 672.678532 351.212879 
L 677.262322 351.212879 
L 681.846112 346.77843 
L 686.429901 343.70155 
L 691.013691 328.859904 
L 704.76506 328.859904 
L 709.34885 328.859904 
L 713.93264 343.70155 
L 718.516429 343.70155 
L 723.100219 343.70155 
L 736.851588 351.042876 
L 741.435378 344.65478 
L 746.019168 336.206875 
L 750.602957 375.069796 
L 755.186747 389.512151 
L 768.938116 403.205182 
L 773.521906 403.205182 
L 778.105696 404.268778 
L 782.689485 343.70155 
L 787.273275 343.70155 
L 801.024644 343.70155 
L 805.608434 343.70155 
L 810.192223 343.70155 
L 814.776013 338.866899 
L 819.359803 330.246993 
L 833.111172 330.246993 
L 837.694962 330.246993 
L 842.278751 318.880045 
L 846.862541 322.298264 
L 865.1977 325.838663 
L 869.78149 314.108466 
L 874.365279 276.785072 
L 878.949069 276.785072 
L 883.532859 284.605273 
L 897.284228 276.785072 
L 901.868018 284.782954 
L 906.451807 257.234707 
L 911.035597 288.070962 
L 915.619387 293.758397 
L 929.370756 280.428651 
L 933.954545 279.895398 
" clip-path="url(#pcbb46e941b)" style="fill: none; stroke: #8c564b; stroke-width: 1.5; stroke-linecap: round"/>
   </g>
   <g id="line2d_29">
    <path d="M 420.570099 384.265587 
L 425.153888 363.571095 
L 429.737678 361.88176 
L 434.321468 379.803406 
L 448.072837 356.849163 
L 452.656627 356.699284 
L 457.240416 354.715625 
L 461.824206 356.588847 
L 466.407996 348.523616 
L 484.743154 344.275998 
L 489.326944 340.982872 
L 493.910734 360.066035 
L 498.494524 367.76402 
L 512.245893 397.883696 
L 516.829682 380.346651 
L 521.413472 370.59261 
L 525.997262 366.111146 
L 530.581051 358.729747 
L 544.332421 351.532235 
L 548.91621 350.064299 
L 553.5 346.43846 
L 558.08379 344.268811 
L 562.667579 345.114268 
L 576.418949 344.669539 
L 581.002738 341.928598 
L 585.586528 349.149776 
L 590.170318 363.029428 
L 594.754107 363.907665 
L 608.505476 369.648636 
L 613.089266 355.902736 
L 617.673056 362.908649 
L 622.256846 362.19817 
L 626.840635 378.019936 
L 645.175794 357.484614 
L 649.759584 352.552813 
L 654.343373 342.669578 
L 658.927163 336.603431 
L 672.678532 335.939757 
L 677.262322 333.131152 
L 681.846112 323.210052 
L 686.429901 318.710358 
L 691.013691 315.118176 
L 704.76506 320.640376 
L 709.34885 341.770656 
L 713.93264 336.80029 
L 718.516429 337.497796 
L 723.100219 337.970922 
L 736.851588 341.934558 
L 741.435378 338.494533 
L 746.019168 331.223046 
L 750.602957 332.222939 
L 755.186747 331.514389 
L 768.938116 361.445797 
L 773.521906 339.774376 
L 778.105696 341.716139 
L 782.689485 335.659984 
L 787.273275 339.449726 
L 801.024644 333.620931 
L 805.608434 324.67606 
L 810.192223 323.55416 
L 814.776013 321.653066 
L 819.359803 319.340901 
L 833.111172 318.33347 
L 837.694962 319.159118 
L 842.278751 318.196388 
L 846.862541 317.105516 
L 865.1977 316.325795 
L 869.78149 321.250059 
L 874.365279 317.653669 
L 878.949069 309.081654 
L 883.532859 309.564421 
L 897.284228 294.966403 
L 901.868018 295.709661 
L 906.451807 299.837726 
L 911.035597 301.780892 
L 915.619387 331.815549 
L 929.370756 317.472587 
L 933.954545 330.824947 
" clip-path="url(#pcbb46e941b)" style="fill: none; stroke: #e377c2; stroke-width: 1.5; stroke-linecap: round"/>
   </g>
   <g id="line2d_30">
    <path d="M 420.570099 341.758741 
L 425.153888 336.968823 
L 429.737678 336.516389 
L 434.321468 367.661132 
L 448.072837 316.098604 
L 452.656627 315.11257 
L 457.240416 294.815501 
L 461.824206 279.584115 
L 466.407996 278.026324 
L 484.743154 279.898732 
L 489.326944 314.86676 
L 493.910734 358.938233 
L 498.494524 374.248146 
L 512.245893 361.2272 
L 516.829682 331.689298 
L 521.413472 331.477337 
L 525.997262 316.919212 
L 530.581051 299.876225 
L 544.332421 304.91347 
L 548.91621 300.677346 
L 553.5 287.191723 
L 558.08379 285.091984 
L 562.667579 253.956425 
L 576.418949 294.368433 
L 581.002738 341.05581 
L 585.586528 337.519352 
L 590.170318 365.062487 
L 594.754107 369.912819 
L 608.505476 348.322857 
L 613.089266 314.031754 
L 617.673056 321.334633 
L 622.256846 298.201934 
L 626.840635 206.568089 
L 645.175794 206.169421 
L 649.759584 239.539226 
L 654.343373 255.146986 
L 658.927163 270.511336 
L 672.678532 283.697606 
L 677.262322 283.203531 
L 681.846112 308.42259 
L 686.429901 292.700173 
L 691.013691 291.150917 
L 704.76506 273.265276 
L 709.34885 271.437142 
L 713.93264 258.512997 
L 718.516429 249.241438 
L 723.100219 278.703609 
L 736.851588 276.102808 
L 741.435378 295.862885 
L 746.019168 281.903649 
L 750.602957 282.882542 
L 755.186747 232.968066 
L 768.938116 241.212335 
L 773.521906 200.925165 
L 778.105696 206.892646 
L 782.689485 244.590354 
L 787.273275 241.739985 
L 801.024644 202.910135 
L 805.608434 199.351503 
L 810.192223 212.596287 
L 814.776013 180.651772 
L 819.359803 176.346885 
L 833.111172 138.32408 
L 837.694962 140.040559 
L 842.278751 129.95166 
L 846.862541 125.95045 
L 865.1977 136.350873 
L 869.78149 159.203713 
L 874.365279 183.675259 
L 878.949069 197.840707 
L 883.532859 181.922949 
L 897.284228 190.844554 
L 901.868018 196.244745 
L 906.451807 195.632715 
L 911.035597 285.355508 
L 915.619387 339.288587 
L 929.370756 334.312217 
L 933.954545 315.833877 
" clip-path="url(#pcbb46e941b)" style="fill: none; stroke: #7f7f7f; stroke-width: 1.5; stroke-linecap: round"/>
   </g>
   <g id="line2d_31">
    <path d="M 420.570099 359.45917 
L 425.153888 349.183101 
L 429.737678 346.791195 
L 434.321468 364.478096 
L 448.072837 330.201665 
L 452.656627 312.838135 
L 457.240416 299.809942 
L 461.824206 286.306736 
L 466.407996 287.837206 
L 484.743154 291.122607 
L 489.326944 312.497599 
L 493.910734 350.850088 
L 498.494524 374.104546 
L 512.245893 371.936754 
L 516.829682 351.801136 
L 521.413472 338.307452 
L 525.997262 331.385893 
L 530.581051 320.881432 
L 544.332421 312.675667 
L 548.91621 317.05885 
L 553.5 305.119724 
L 558.08379 304.407965 
L 562.667579 282.556644 
L 576.418949 295.592859 
L 581.002738 327.725381 
L 585.586528 330.695823 
L 590.170318 354.930028 
L 594.754107 367.375561 
L 608.505476 357.488711 
L 613.089266 339.039921 
L 617.673056 338.959342 
L 622.256846 318.304271 
L 626.840635 243.820666 
L 645.175794 227.21341 
L 649.759584 250.184783 
L 654.343373 268.602764 
L 658.927163 275.324604 
L 672.678532 294.454104 
L 677.262322 291.224578 
L 681.846112 301.393336 
L 686.429901 307.075228 
L 691.013691 304.46094 
L 704.76506 283.080357 
L 709.34885 273.740903 
L 713.93264 284.486806 
L 718.516429 282.893135 
L 723.100219 290.517417 
L 736.851588 298.215639 
L 741.435378 304.464077 
L 746.019168 288.82514 
L 750.602957 284.680273 
L 755.186747 253.657523 
L 768.938116 244.086999 
L 773.521906 219.742752 
L 778.105696 220.764893 
L 782.689485 252.458133 
L 787.273275 254.362529 
L 801.024644 232.339618 
L 805.608434 224.08842 
L 810.192223 225.794664 
L 814.776013 206.528588 
L 819.359803 194.485677 
L 833.111172 165.709806 
L 837.694962 156.525114 
L 842.278751 156.107007 
L 846.862541 156.181764 
L 865.1977 169.936398 
L 869.78149 171.559496 
L 874.365279 191.381584 
L 878.949069 211.022339 
L 883.532859 198.504627 
L 897.284228 202.198719 
L 901.868018 210.601751 
L 906.451807 213.45965 
L 911.035597 277.90978 
L 915.619387 336.586404 
L 929.370756 341.836254 
L 933.954545 333.137346 
" clip-path="url(#pcbb46e941b)" style="fill: none; stroke: #bcbd22; stroke-width: 1.5; stroke-linecap: round"/>
   </g>
   <g id="line2d_32">
    <path d="M 548.91621 419.853297 
L 553.5 419.053944 
L 558.08379 409.027316 
L 562.667579 401.028521 
L 576.418949 388.344043 
L 581.002738 403.600476 
L 585.586528 411.698489 
L 590.170318 405.990473 
L 594.754107 415.902808 
L 608.505476 422.620007 
L 613.089266 416.805762 
L 617.673056 416.752997 
L 622.256846 421.489342 
L 626.840635 387.260884 
L 645.175794 363.216645 
L 649.759584 368.085339 
L 654.343373 380.531765 
L 658.927163 376.106221 
L 672.678532 369.666166 
L 677.262322 371.908212 
L 681.846112 362.405196 
L 686.429901 367.991205 
L 691.013691 371.467516 
L 704.76506 370.202574 
L 709.34885 364.892132 
L 713.93264 370.056903 
L 718.516429 380.139626 
L 723.100219 376.69031 
L 736.851588 379.25052 
L 741.435378 382.113994 
L 746.019168 382.674067 
L 750.602957 376.691712 
L 755.186747 368.670129 
L 768.938116 343.673678 
L 773.521906 347.973184 
L 778.105696 334.259362 
L 782.689485 342.906053 
L 787.273275 350.787399 
L 801.024644 333.657217 
L 805.608434 315.800957 
L 810.192223 316.776659 
L 814.776013 312.2682 
L 819.359803 297.036308 
L 833.111172 285.556294 
L 837.694962 271.647016 
L 842.278751 269.04789 
L 846.862541 263.199988 
L 865.1977 261.130434 
L 869.78149 265.618734 
L 874.365279 255.294978 
L 878.949069 263.798802 
L 883.532859 268.703257 
L 897.284228 259.096465 
L 901.868018 268.630333 
L 906.451807 279.071012 
L 911.035597 291.787395 
L 915.619387 324.0499 
L 929.370756 365.92165 
L 933.954545 375.159969 
" clip-path="url(#pcbb46e941b)" style="fill: none; stroke: #17becf; stroke-width: 1.5; stroke-linecap: round"/>
   </g>
   <g id="line2d_33">
    <path d="M 548.91621 350.135996 
L 553.5 349.310698 
L 558.08379 344.098072 
L 562.667579 333.595338 
L 576.418949 325.770788 
L 581.002738 345.41981 
L 585.586528 368.827195 
L 590.170318 383.967056 
L 594.754107 405.860578 
L 608.505476 413.452684 
L 613.089266 399.763229 
L 617.673056 385.019188 
L 622.256846 374.026499 
L 626.840635 328.720508 
L 645.175794 270.910244 
L 649.759584 264.631813 
L 654.343373 284.782534 
L 658.927163 300.465289 
L 672.678532 316.432201 
L 677.262322 332.728144 
L 681.846112 338.399523 
L 686.429901 345.131271 
L 691.013691 347.326338 
L 704.76506 335.641753 
L 709.34885 315.917179 
L 713.93264 311.805591 
L 718.516429 317.085181 
L 723.100219 319.932177 
L 736.851588 328.019847 
L 741.435378 338.89421 
L 746.019168 338.329404 
L 750.602957 327.346006 
L 755.186747 309.886968 
L 768.938116 286.146518 
L 773.521906 266.228241 
L 778.105696 250.581421 
L 782.689485 260.45186 
L 787.273275 282.23775 
L 801.024644 278.937787 
L 805.608434 262.256541 
L 810.192223 256.539235 
L 814.776013 248.51064 
L 819.359803 228.045962 
L 833.111172 206.530731 
L 837.694962 184.299237 
L 842.278751 176.357063 
L 846.862541 174.946099 
L 865.1977 181.608781 
L 869.78149 192.241235 
L 874.365279 204.923434 
L 878.949069 226.793642 
L 883.532859 236.708606 
L 897.284228 231.707212 
L 901.868018 235.192113 
L 906.451807 241.183408 
L 911.035597 270.83995 
L 915.619387 337.76898 
L 929.370756 385.326483 
L 933.954545 390.945974 
" clip-path="url(#pcbb46e941b)" style="fill: none; stroke: #1f77b4; stroke-width: 1.5; stroke-linecap: round"/>
   </g>
   <g id="line2d_34">
    <path d="M 173.045455 435.013843 
L 177.629244 474.380427 
L 191.380613 476.642633 
L 195.964403 469.402874 
L 200.548193 492.48 
L 205.131982 392.932437 
L 209.715772 338.633719 
L 223.467141 346.326095 
L 228.050931 311.936889 
L 232.634721 303.339456 
L 241.8023 311.031831 
L 255.553669 325.511524 
L 260.137459 316.46165 
L 264.721249 251.303294 
L 269.305038 239.991039 
L 273.888828 252.208351 
L 287.640197 268.950425 
L 292.223987 302.434574 
L 296.807777 320.986587 
L 301.391566 284.335001 
L 305.975356 308.317009 
L 319.726725 270.307924 
L 324.310515 254.923348 
L 328.894304 270.307924 
L 333.478094 322.343911 
L 338.061884 337.728662 
L 351.813253 356.280675 
L 356.397043 357.638349 
L 360.980832 344.516155 
L 365.564622 359.900555 
L 370.148412 352.660796 
L 388.483571 350.39859 
L 393.06736 371.212985 
L 397.65115 351.755914 
L 402.23494 345.421037 
L 420.570099 331.846401 
L 425.153888 332.302524 
L 429.737678 362.861318 
L 434.321468 297.182505 
L 448.072837 285.323675 
L 452.656627 274.833212 
L 457.240416 256.589194 
L 461.824206 266.167413 
L 466.407996 271.64053 
L 484.743154 308.128916 
L 489.326944 361.949074 
L 493.910734 382.017756 
L 498.494524 367.422542 
L 512.245893 334.58296 
L 516.829682 320.443693 
L 521.413472 312.689964 
L 525.997262 296.270261 
L 530.581051 288.516531 
L 544.332421 301.743378 
L 548.91621 281.218924 
L 553.5 285.779797 
L 558.08379 251.572024 
L 562.667579 283.043238 
L 576.418949 331.390279 
L 581.002738 319.075501 
L 585.586528 359.21269 
L 590.170318 369.702978 
L 594.754107 345.529546 
L 608.505476 318.163257 
L 613.089266 325.460864 
L 617.673056 291.25309 
L 622.256846 175.402572 
L 626.840635 185.436913 
L 645.175794 234.696198 
L 649.759584 252.028146 
L 654.343373 256.589194 
L 658.927163 289.884723 
L 672.678532 278.48219 
L 677.262322 292.621457 
L 681.846112 296.270261 
L 686.429901 287.604287 
L 691.013691 253.396513 
L 704.76506 247.011151 
L 709.34885 270.272339 
L 713.93264 261.150242 
L 718.516429 274.833212 
L 723.100219 286.23592 
L 736.851588 293.07758 
L 741.435378 263.886801 
L 746.019168 263.430679 
L 750.602957 215.083814 
L 755.186747 211.890957 
L 768.938116 177.683184 
L 773.521906 189.998136 
L 778.105696 245.186661 
L 782.689485 232.871709 
L 787.273275 197.295743 
L 801.024644 195.927201 
L 805.608434 202.768861 
L 810.192223 167.192896 
L 814.776013 155.334065 
L 819.359803 116.565244 
L 833.111172 115.196876 
L 837.694962 119.792283 
L 842.278751 119.792283 
L 846.862541 145.066404 
L 865.1977 142.30916 
L 869.78149 174.935932 
L 874.365279 198.371891 
L 878.949069 166.664376 
L 883.532859 178.612082 
L 897.284228 190.559963 
L 901.868018 189.181253 
L 906.451807 293.494611 
L 911.035597 360.585966 
L 915.619387 339.907251 
L 929.370756 323.364138 
L 933.954545 337.150007 
" clip-path="url(#pcbb46e941b)" style="fill: none; stroke: #000000; stroke-width: 2; stroke-linecap: round"/>
   </g>
   <g id="patch_3">
    <path d="M 135 512.64 
L 135 69.12 
" style="fill: none; stroke: #cccccc; stroke-linejoin: miter; stroke-linecap: square"/>
   </g>
   <g id="patch_4">
    <path d="M 972 512.64 
L 972 69.12 
" style="fill: none; stroke: #cccccc; stroke-linejoin: miter; stroke-linecap: square"/>
   </g>
   <g id="patch_5">
    <path d="M 135 512.64 
L 972 512.64 
" style="fill: none; stroke: #cccccc; stroke-linejoin: miter; stroke-linecap: square"/>
   </g>
   <g id="patch_6">
    <path d="M 135 69.12 
L 972 69.12 
" style="fill: none; stroke: #cccccc; stroke-linejoin: miter; stroke-linecap: square"/>
   </g>
   <g id="text_14">
    <!-- Tahminler ve Gerçek Değerler -->
    <g style="fill: #262626" transform="translate(473.811563 63.12) scale(0.12 -0.12)">
     <defs>
      <path id="ArialMT-54" d="M 1659 0 
L 1659 4041 
L 150 4041 
L 150 4581 
L 3781 4581 
L 3781 4041 
L 2266 4041 
L 2266 0 
L 1659 0 
z
" transform="scale(0.015625)"/>
      <path id="ArialMT-68" d="M 422 0 
L 422 4581 
L 984 4581 
L 984 2938 
Q 1378 3394 1978 3394 
Q 2347 3394 2619 3248 
Q 2891 3103 3008 2847 
Q 3125 2591 3125 2103 
L 3125 0 
L 2563 0 
L 2563 2103 
Q 2563 2525 2380 2717 
Q 2197 2909 1863 2909 
Q 1613 2909 1392 2779 
Q 1172 2650 1078 2428 
Q 984 2206 984 1816 
L 984 0 
L 422 0 
z
" transform="scale(0.015625)"/>
      <path id="ArialMT-6d" d="M 422 0 
L 422 3319 
L 925 3319 
L 925 2853 
Q 1081 3097 1340 3245 
Q 1600 3394 1931 3394 
Q 2300 3394 2536 3241 
Q 2772 3088 2869 2813 
Q 3263 3394 3894 3394 
Q 4388 3394 4653 3120 
Q 4919 2847 4919 2278 
L 4919 0 
L 4359 0 
L 4359 2091 
Q 4359 2428 4304 2576 
Q 4250 2725 4106 2815 
Q 3963 2906 3769 2906 
Q 3419 2906 3187 2673 
Q 2956 2441 2956 1928 
L 2956 0 
L 2394 0 
L 2394 2156 
Q 2394 2531 2256 2718 
Q 2119 2906 1806 2906 
Q 1569 2906 1367 2781 
Q 1166 2656 1075 2415 
Q 984 2175 984 1722 
L 984 0 
L 422 0 
z
" transform="scale(0.015625)"/>
      <path id="ArialMT-69" d="M 425 3934 
L 425 4581 
L 988 4581 
L 988 3934 
L 425 3934 
z
M 425 0 
L 425 3319 
L 988 3319 
L 988 0 
L 425 0 
z
" transform="scale(0.015625)"/>
      <path id="ArialMT-6e" d="M 422 0 
L 422 3319 
L 928 3319 
L 928 2847 
Q 1294 3394 1984 3394 
Q 2284 3394 2536 3286 
Q 2788 3178 2913 3003 
Q 3038 2828 3088 2588 
Q 3119 2431 3119 2041 
L 3119 0 
L 2556 0 
L 2556 2019 
Q 2556 2363 2490 2533 
Q 2425 2703 2258 2804 
Q 2091 2906 1866 2906 
Q 1506 2906 1245 2678 
Q 984 2450 984 1813 
L 984 0 
L 422 0 
z
" transform="scale(0.015625)"/>
      <path id="ArialMT-72" d="M 416 0 
L 416 3319 
L 922 3319 
L 922 2816 
Q 1116 3169 1280 3281 
Q 1444 3394 1641 3394 
Q 1925 3394 2219 3213 
L 2025 2691 
Q 1819 2813 1613 2813 
Q 1428 2813 1281 2702 
Q 1134 2591 1072 2394 
Q 978 2094 978 1738 
L 978 0 
L 416 0 
z
" transform="scale(0.015625)"/>
      <path id="ArialMT-76" d="M 1344 0 
L 81 3319 
L 675 3319 
L 1388 1331 
Q 1503 1009 1600 663 
Q 1675 925 1809 1294 
L 2547 3319 
L 3125 3319 
L 1869 0 
L 1344 0 
z
" transform="scale(0.015625)"/>
      <path id="ArialMT-47" d="M 2638 1797 
L 2638 2334 
L 4578 2338 
L 4578 638 
Q 4131 281 3656 101 
Q 3181 -78 2681 -78 
Q 2006 -78 1454 211 
Q 903 500 622 1047 
Q 341 1594 341 2269 
Q 341 2938 620 3517 
Q 900 4097 1425 4378 
Q 1950 4659 2634 4659 
Q 3131 4659 3532 4498 
Q 3934 4338 4162 4050 
Q 4391 3763 4509 3300 
L 3963 3150 
Q 3859 3500 3706 3700 
Q 3553 3900 3268 4020 
Q 2984 4141 2638 4141 
Q 2222 4141 1919 4014 
Q 1616 3888 1430 3681 
Q 1244 3475 1141 3228 
Q 966 2803 966 2306 
Q 966 1694 1177 1281 
Q 1388 869 1791 669 
Q 2194 469 2647 469 
Q 3041 469 3416 620 
Q 3791 772 3984 944 
L 3984 1797 
L 2638 1797 
z
" transform="scale(0.015625)"/>
      <path id="ArialMT-e7" d="M 2588 1216 
L 3141 1144 
Q 3050 572 2676 248 
Q 2303 -75 1759 -75 
Q 1078 -75 664 370 
Q 250 816 250 1647 
Q 250 2184 428 2587 
Q 606 2991 970 3192 
Q 1334 3394 1763 3394 
Q 2303 3394 2647 3120 
Q 2991 2847 3088 2344 
L 2541 2259 
Q 2463 2594 2264 2762 
Q 2066 2931 1784 2931 
Q 1359 2931 1093 2626 
Q 828 2322 828 1663 
Q 828 994 1084 691 
Q 1341 388 1753 388 
Q 2084 388 2306 591 
Q 2528 794 2588 1216 
z
M 1283 -417 
L 1446 136 
L 1864 136 
L 1761 -199 
Q 2027 -230 2161 -362 
Q 2296 -495 2296 -658 
Q 2296 -892 2071 -1072 
Q 1846 -1252 1392 -1252 
Q 1136 -1252 942 -1214 
L 977 -849 
Q 1177 -861 1271 -861 
Q 1564 -861 1683 -780 
Q 1774 -717 1774 -627 
Q 1774 -570 1738 -526 
Q 1702 -483 1605 -451 
Q 1508 -420 1283 -417 
z
" transform="scale(0.015625)"/>
      <path id="ArialMT-6b" d="M 425 0 
L 425 4581 
L 988 4581 
L 988 1969 
L 2319 3319 
L 3047 3319 
L 1778 2088 
L 3175 0 
L 2481 0 
L 1384 1697 
L 988 1316 
L 988 0 
L 425 0 
z
" transform="scale(0.015625)"/>
      <path id="ArialMT-11f" d="M 319 -275 
L 866 -356 
Q 900 -609 1056 -725 
Q 1266 -881 1628 -881 
Q 2019 -881 2231 -725 
Q 2444 -569 2519 -288 
Q 2563 -116 2559 434 
Q 2191 0 1641 0 
Q 956 0 581 494 
Q 206 988 206 1678 
Q 206 2153 378 2554 
Q 550 2956 876 3175 
Q 1203 3394 1644 3394 
Q 2231 3394 2613 2919 
L 2613 3319 
L 3131 3319 
L 3131 450 
Q 3131 -325 2973 -648 
Q 2816 -972 2473 -1159 
Q 2131 -1347 1631 -1347 
Q 1038 -1347 672 -1080 
Q 306 -813 319 -275 
z
M 784 1719 
Q 784 1066 1043 766 
Q 1303 466 1694 466 
Q 2081 466 2343 764 
Q 2606 1063 2606 1700 
Q 2606 2309 2336 2618 
Q 2066 2928 1684 2928 
Q 1309 2928 1046 2623 
Q 784 2319 784 1719 
z
M 2318 4575 
L 2703 4575 
Q 2656 4184 2417 3975 
Q 2178 3766 1781 3766 
Q 1381 3766 1142 3973 
Q 903 4181 856 4575 
L 1240 4575 
Q 1284 4363 1413 4258 
Q 1543 4153 1762 4153 
Q 2015 4153 2145 4254 
Q 2275 4356 2318 4575 
z
" transform="scale(0.015625)"/>
     </defs>
     <use xlink:href="#ArialMT-54"/>
     <use xlink:href="#ArialMT-61" x="49.958984"/>
     <use xlink:href="#ArialMT-68" x="105.574219"/>
     <use xlink:href="#ArialMT-6d" x="161.189453"/>
     <use xlink:href="#ArialMT-69" x="244.490234"/>
     <use xlink:href="#ArialMT-6e" x="266.707031"/>
     <use xlink:href="#ArialMT-6c" x="322.322266"/>
     <use xlink:href="#ArialMT-65" x="344.539062"/>
     <use xlink:href="#ArialMT-72" x="400.154297"/>
     <use xlink:href="#ArialMT-20" x="433.455078"/>
     <use xlink:href="#ArialMT-76" x="461.238281"/>
     <use xlink:href="#ArialMT-65" x="511.238281"/>
     <use xlink:href="#ArialMT-20" x="566.853516"/>
     <use xlink:href="#ArialMT-47" x="594.636719"/>
     <use xlink:href="#ArialMT-65" x="672.419922"/>
     <use xlink:href="#ArialMT-72" x="728.035156"/>
     <use xlink:href="#ArialMT-e7" x="761.335938"/>
     <use xlink:href="#ArialMT-65" x="811.335938"/>
     <use xlink:href="#ArialMT-6b" x="866.951172"/>
     <use xlink:href="#ArialMT-20" x="916.951172"/>
     <use xlink:href="#ArialMT-44" x="944.734375"/>
     <use xlink:href="#ArialMT-65" x="1016.951172"/>
     <use xlink:href="#ArialMT-11f" x="1072.566406"/>
     <use xlink:href="#ArialMT-65" x="1128.181641"/>
     <use xlink:href="#ArialMT-72" x="1183.796875"/>
     <use xlink:href="#ArialMT-6c" x="1217.097656"/>
     <use xlink:href="#ArialMT-65" x="1239.314453"/>
     <use xlink:href="#ArialMT-72" x="1294.929688"/>
    </g>
   </g>
   <g id="legend_1">
    <g id="line2d_35">
     <path d="M 492.815625 81.777813 
L 502.815625 81.777813 
L 512.815625 81.777813 
" style="fill: none; stroke: #1f77b4; stroke-width: 1.5; stroke-linecap: round"/>
    </g>
    <g id="text_15">
     <!-- Random Forest -->
     <g style="fill: #262626" transform="translate(520.815625 85.277813) scale(0.1 -0.1)">
      <defs>
       <path id="ArialMT-52" d="M 503 0 
L 503 4581 
L 2534 4581 
Q 3147 4581 3465 4457 
Q 3784 4334 3975 4021 
Q 4166 3709 4166 3331 
Q 4166 2844 3850 2509 
Q 3534 2175 2875 2084 
Q 3116 1969 3241 1856 
Q 3506 1613 3744 1247 
L 4541 0 
L 3778 0 
L 3172 953 
Q 2906 1366 2734 1584 
Q 2563 1803 2427 1890 
Q 2291 1978 2150 2013 
Q 2047 2034 1813 2034 
L 1109 2034 
L 1109 0 
L 503 0 
z
M 1109 2559 
L 2413 2559 
Q 2828 2559 3062 2645 
Q 3297 2731 3419 2920 
Q 3541 3109 3541 3331 
Q 3541 3656 3305 3865 
Q 3069 4075 2559 4075 
L 1109 4075 
L 1109 2559 
z
" transform="scale(0.015625)"/>
       <path id="ArialMT-46" d="M 525 0 
L 525 4581 
L 3616 4581 
L 3616 4041 
L 1131 4041 
L 1131 2622 
L 3281 2622 
L 3281 2081 
L 1131 2081 
L 1131 0 
L 525 0 
z
" transform="scale(0.015625)"/>
      </defs>
      <use xlink:href="#ArialMT-52"/>
      <use xlink:href="#ArialMT-61" x="72.216797"/>
      <use xlink:href="#ArialMT-6e" x="127.832031"/>
      <use xlink:href="#ArialMT-64" x="183.447266"/>
      <use xlink:href="#ArialMT-6f" x="239.0625"/>
      <use xlink:href="#ArialMT-6d" x="294.677734"/>
      <use xlink:href="#ArialMT-20" x="377.978516"/>
      <use xlink:href="#ArialMT-46" x="405.761719"/>
      <use xlink:href="#ArialMT-6f" x="466.845703"/>
      <use xlink:href="#ArialMT-72" x="522.460938"/>
      <use xlink:href="#ArialMT-65" x="555.761719"/>
      <use xlink:href="#ArialMT-73" x="611.376953"/>
      <use xlink:href="#ArialMT-74" x="661.376953"/>
     </g>
    </g>
    <g id="line2d_36">
     <path d="M 492.815625 96.045 
L 502.815625 96.045 
L 512.815625 96.045 
" style="fill: none; stroke: #ff7f0e; stroke-width: 1.5; stroke-linecap: round"/>
    </g>
    <g id="text_16">
     <!-- Gradient Boosting -->
     <g style="fill: #262626" transform="translate(520.815625 99.545) scale(0.1 -0.1)">
      <defs>
       <path id="ArialMT-42" d="M 469 0 
L 469 4581 
L 2188 4581 
Q 2713 4581 3030 4442 
Q 3347 4303 3526 4014 
Q 3706 3725 3706 3409 
Q 3706 3116 3547 2856 
Q 3388 2597 3066 2438 
Q 3481 2316 3704 2022 
Q 3928 1728 3928 1328 
Q 3928 1006 3792 729 
Q 3656 453 3456 303 
Q 3256 153 2954 76 
Q 2653 0 2216 0 
L 469 0 
z
M 1075 2656 
L 2066 2656 
Q 2469 2656 2644 2709 
Q 2875 2778 2992 2937 
Q 3109 3097 3109 3338 
Q 3109 3566 3000 3739 
Q 2891 3913 2687 3977 
Q 2484 4041 1991 4041 
L 1075 4041 
L 1075 2656 
z
M 1075 541 
L 2216 541 
Q 2509 541 2628 563 
Q 2838 600 2978 687 
Q 3119 775 3209 942 
Q 3300 1109 3300 1328 
Q 3300 1584 3169 1773 
Q 3038 1963 2805 2039 
Q 2572 2116 2134 2116 
L 1075 2116 
L 1075 541 
z
" transform="scale(0.015625)"/>
       <path id="ArialMT-67" d="M 319 -275 
L 866 -356 
Q 900 -609 1056 -725 
Q 1266 -881 1628 -881 
Q 2019 -881 2231 -725 
Q 2444 -569 2519 -288 
Q 2563 -116 2559 434 
Q 2191 0 1641 0 
Q 956 0 581 494 
Q 206 988 206 1678 
Q 206 2153 378 2554 
Q 550 2956 876 3175 
Q 1203 3394 1644 3394 
Q 2231 3394 2613 2919 
L 2613 3319 
L 3131 3319 
L 3131 450 
Q 3131 -325 2973 -648 
Q 2816 -972 2473 -1159 
Q 2131 -1347 1631 -1347 
Q 1038 -1347 672 -1080 
Q 306 -813 319 -275 
z
M 784 1719 
Q 784 1066 1043 766 
Q 1303 466 1694 466 
Q 2081 466 2343 764 
Q 2606 1063 2606 1700 
Q 2606 2309 2336 2618 
Q 2066 2928 1684 2928 
Q 1309 2928 1046 2623 
Q 784 2319 784 1719 
z
" transform="scale(0.015625)"/>
      </defs>
      <use xlink:href="#ArialMT-47"/>
      <use xlink:href="#ArialMT-72" x="77.783203"/>
      <use xlink:href="#ArialMT-61" x="111.083984"/>
      <use xlink:href="#ArialMT-64" x="166.699219"/>
      <use xlink:href="#ArialMT-69" x="222.314453"/>
      <use xlink:href="#ArialMT-65" x="244.53125"/>
      <use xlink:href="#ArialMT-6e" x="300.146484"/>
      <use xlink:href="#ArialMT-74" x="355.761719"/>
      <use xlink:href="#ArialMT-20" x="383.544922"/>
      <use xlink:href="#ArialMT-42" x="411.328125"/>
      <use xlink:href="#ArialMT-6f" x="478.027344"/>
      <use xlink:href="#ArialMT-6f" x="533.642578"/>
      <use xlink:href="#ArialMT-73" x="589.257812"/>
      <use xlink:href="#ArialMT-74" x="639.257812"/>
      <use xlink:href="#ArialMT-69" x="667.041016"/>
      <use xlink:href="#ArialMT-6e" x="689.257812"/>
      <use xlink:href="#ArialMT-67" x="744.873047"/>
     </g>
    </g>
    <g id="line2d_37">
     <path d="M 492.815625 110.3075 
L 502.815625 110.3075 
L 512.815625 110.3075 
" style="fill: none; stroke: #2ca02c; stroke-width: 1.5; stroke-linecap: round"/>
    </g>
    <g id="text_17">
     <!-- Linear Regression -->
     <g style="fill: #262626" transform="translate(520.815625 113.8075) scale(0.1 -0.1)">
      <defs>
       <path id="ArialMT-4c" d="M 469 0 
L 469 4581 
L 1075 4581 
L 1075 541 
L 3331 541 
L 3331 0 
L 469 0 
z
" transform="scale(0.015625)"/>
      </defs>
      <use xlink:href="#ArialMT-4c"/>
      <use xlink:href="#ArialMT-69" x="55.615234"/>
      <use xlink:href="#ArialMT-6e" x="77.832031"/>
      <use xlink:href="#ArialMT-65" x="133.447266"/>
      <use xlink:href="#ArialMT-61" x="189.0625"/>
      <use xlink:href="#ArialMT-72" x="244.677734"/>
      <use xlink:href="#ArialMT-20" x="277.978516"/>
      <use xlink:href="#ArialMT-52" x="305.761719"/>
      <use xlink:href="#ArialMT-65" x="377.978516"/>
      <use xlink:href="#ArialMT-67" x="433.59375"/>
      <use xlink:href="#ArialMT-72" x="489.208984"/>
      <use xlink:href="#ArialMT-65" x="522.509766"/>
      <use xlink:href="#ArialMT-73" x="578.125"/>
      <use xlink:href="#ArialMT-73" x="628.125"/>
      <use xlink:href="#ArialMT-69" x="678.125"/>
      <use xlink:href="#ArialMT-6f" x="700.341797"/>
      <use xlink:href="#ArialMT-6e" x="755.957031"/>
     </g>
    </g>
    <g id="line2d_38">
     <path d="M 492.815625 124.57 
L 502.815625 124.57 
L 512.815625 124.57 
" style="fill: none; stroke: #d62728; stroke-width: 1.5; stroke-linecap: round"/>
    </g>
    <g id="text_18">
     <!-- Decision Tree -->
     <g style="fill: #262626" transform="translate(520.815625 128.07) scale(0.1 -0.1)">
      <defs>
       <path id="ArialMT-63" d="M 2588 1216 
L 3141 1144 
Q 3050 572 2676 248 
Q 2303 -75 1759 -75 
Q 1078 -75 664 370 
Q 250 816 250 1647 
Q 250 2184 428 2587 
Q 606 2991 970 3192 
Q 1334 3394 1763 3394 
Q 2303 3394 2647 3120 
Q 2991 2847 3088 2344 
L 2541 2259 
Q 2463 2594 2264 2762 
Q 2066 2931 1784 2931 
Q 1359 2931 1093 2626 
Q 828 2322 828 1663 
Q 828 994 1084 691 
Q 1341 388 1753 388 
Q 2084 388 2306 591 
Q 2528 794 2588 1216 
z
" transform="scale(0.015625)"/>
      </defs>
      <use xlink:href="#ArialMT-44"/>
      <use xlink:href="#ArialMT-65" x="72.216797"/>
      <use xlink:href="#ArialMT-63" x="127.832031"/>
      <use xlink:href="#ArialMT-69" x="177.832031"/>
      <use xlink:href="#ArialMT-73" x="200.048828"/>
      <use xlink:href="#ArialMT-69" x="250.048828"/>
      <use xlink:href="#ArialMT-6f" x="272.265625"/>
      <use xlink:href="#ArialMT-6e" x="327.880859"/>
      <use xlink:href="#ArialMT-20" x="383.496094"/>
      <use xlink:href="#ArialMT-54" x="409.529297"/>
      <use xlink:href="#ArialMT-72" x="466.863281"/>
      <use xlink:href="#ArialMT-65" x="500.164062"/>
      <use xlink:href="#ArialMT-65" x="555.779297"/>
     </g>
    </g>
    <g id="line2d_39">
     <path d="M 492.815625 138.715313 
L 502.815625 138.715313 
L 512.815625 138.715313 
" style="fill: none; stroke: #9467bd; stroke-width: 1.5; stroke-linecap: round"/>
    </g>
    <g id="text_19">
     <!-- SVR -->
     <g style="fill: #262626" transform="translate(520.815625 142.215313) scale(0.1 -0.1)">
      <defs>
       <path id="ArialMT-53" d="M 288 1472 
L 859 1522 
Q 900 1178 1048 958 
Q 1197 738 1509 602 
Q 1822 466 2213 466 
Q 2559 466 2825 569 
Q 3091 672 3220 851 
Q 3350 1031 3350 1244 
Q 3350 1459 3225 1620 
Q 3100 1781 2813 1891 
Q 2628 1963 1997 2114 
Q 1366 2266 1113 2400 
Q 784 2572 623 2826 
Q 463 3081 463 3397 
Q 463 3744 659 4045 
Q 856 4347 1234 4503 
Q 1613 4659 2075 4659 
Q 2584 4659 2973 4495 
Q 3363 4331 3572 4012 
Q 3781 3694 3797 3291 
L 3216 3247 
Q 3169 3681 2898 3903 
Q 2628 4125 2100 4125 
Q 1550 4125 1298 3923 
Q 1047 3722 1047 3438 
Q 1047 3191 1225 3031 
Q 1400 2872 2139 2705 
Q 2878 2538 3153 2413 
Q 3553 2228 3743 1945 
Q 3934 1663 3934 1294 
Q 3934 928 3725 604 
Q 3516 281 3123 101 
Q 2731 -78 2241 -78 
Q 1619 -78 1198 103 
Q 778 284 539 648 
Q 300 1013 288 1472 
z
" transform="scale(0.015625)"/>
       <path id="ArialMT-56" d="M 1803 0 
L 28 4581 
L 684 4581 
L 1875 1253 
Q 2019 853 2116 503 
Q 2222 878 2363 1253 
L 3600 4581 
L 4219 4581 
L 2425 0 
L 1803 0 
z
" transform="scale(0.015625)"/>
      </defs>
      <use xlink:href="#ArialMT-53"/>
      <use xlink:href="#ArialMT-56" x="66.699219"/>
      <use xlink:href="#ArialMT-52" x="133.398438"/>
     </g>
    </g>
    <g id="line2d_40">
     <path d="M 492.815625 152.860625 
L 502.815625 152.860625 
L 512.815625 152.860625 
" style="fill: none; stroke: #8c564b; stroke-width: 1.5; stroke-linecap: round"/>
    </g>
    <g id="text_20">
     <!-- K-Nearest Neighbors -->
     <g style="fill: #262626" transform="translate(520.815625 156.360625) scale(0.1 -0.1)">
      <defs>
       <path id="ArialMT-4b" d="M 469 0 
L 469 4581 
L 1075 4581 
L 1075 2309 
L 3350 4581 
L 4172 4581 
L 2250 2725 
L 4256 0 
L 3456 0 
L 1825 2319 
L 1075 1588 
L 1075 0 
L 469 0 
z
" transform="scale(0.015625)"/>
       <path id="ArialMT-4e" d="M 488 0 
L 488 4581 
L 1109 4581 
L 3516 984 
L 3516 4581 
L 4097 4581 
L 4097 0 
L 3475 0 
L 1069 3600 
L 1069 0 
L 488 0 
z
" transform="scale(0.015625)"/>
       <path id="ArialMT-62" d="M 941 0 
L 419 0 
L 419 4581 
L 981 4581 
L 981 2947 
Q 1338 3394 1891 3394 
Q 2197 3394 2470 3270 
Q 2744 3147 2920 2923 
Q 3097 2700 3197 2384 
Q 3297 2069 3297 1709 
Q 3297 856 2875 390 
Q 2453 -75 1863 -75 
Q 1275 -75 941 416 
L 941 0 
z
M 934 1684 
Q 934 1088 1097 822 
Q 1363 388 1816 388 
Q 2184 388 2453 708 
Q 2722 1028 2722 1663 
Q 2722 2313 2464 2622 
Q 2206 2931 1841 2931 
Q 1472 2931 1203 2611 
Q 934 2291 934 1684 
z
" transform="scale(0.015625)"/>
      </defs>
      <use xlink:href="#ArialMT-4b"/>
      <use xlink:href="#ArialMT-2d" x="66.699219"/>
      <use xlink:href="#ArialMT-4e" x="100"/>
      <use xlink:href="#ArialMT-65" x="172.216797"/>
      <use xlink:href="#ArialMT-61" x="227.832031"/>
      <use xlink:href="#ArialMT-72" x="283.447266"/>
      <use xlink:href="#ArialMT-65" x="316.748047"/>
      <use xlink:href="#ArialMT-73" x="372.363281"/>
      <use xlink:href="#ArialMT-74" x="422.363281"/>
      <use xlink:href="#ArialMT-20" x="450.146484"/>
      <use xlink:href="#ArialMT-4e" x="477.929688"/>
      <use xlink:href="#ArialMT-65" x="550.146484"/>
      <use xlink:href="#ArialMT-69" x="605.761719"/>
      <use xlink:href="#ArialMT-67" x="627.978516"/>
      <use xlink:href="#ArialMT-68" x="683.59375"/>
      <use xlink:href="#ArialMT-62" x="739.208984"/>
      <use xlink:href="#ArialMT-6f" x="794.824219"/>
      <use xlink:href="#ArialMT-72" x="850.439453"/>
      <use xlink:href="#ArialMT-73" x="883.740234"/>
     </g>
    </g>
    <g id="line2d_41">
     <path d="M 492.815625 167.123125 
L 502.815625 167.123125 
L 512.815625 167.123125 
" style="fill: none; stroke: #e377c2; stroke-width: 1.5; stroke-linecap: round"/>
    </g>
    <g id="text_21">
     <!-- XGBoost -->
     <g style="fill: #262626" transform="translate(520.815625 170.623125) scale(0.1 -0.1)">
      <defs>
       <path id="ArialMT-58" d="M 28 0 
L 1800 2388 
L 238 4581 
L 959 4581 
L 1791 3406 
Q 2050 3041 2159 2844 
Q 2313 3094 2522 3366 
L 3444 4581 
L 4103 4581 
L 2494 2422 
L 4228 0 
L 3478 0 
L 2325 1634 
Q 2228 1775 2125 1941 
Q 1972 1691 1906 1597 
L 756 0 
L 28 0 
z
" transform="scale(0.015625)"/>
      </defs>
      <use xlink:href="#ArialMT-58"/>
      <use xlink:href="#ArialMT-47" x="66.699219"/>
      <use xlink:href="#ArialMT-42" x="144.482422"/>
      <use xlink:href="#ArialMT-6f" x="211.181641"/>
      <use xlink:href="#ArialMT-6f" x="266.796875"/>
      <use xlink:href="#ArialMT-73" x="322.412109"/>
      <use xlink:href="#ArialMT-74" x="372.412109"/>
     </g>
    </g>
    <g id="line2d_42">
     <path d="M 492.815625 181.268438 
L 502.815625 181.268438 
L 512.815625 181.268438 
" style="fill: none; stroke: #7f7f7f; stroke-width: 1.5; stroke-linecap: round"/>
    </g>
    <g id="text_22">
     <!-- Ridge Regression -->
     <g style="fill: #262626" transform="translate(520.815625 184.768438) scale(0.1 -0.1)">
      <use xlink:href="#ArialMT-52"/>
      <use xlink:href="#ArialMT-69" x="72.216797"/>
      <use xlink:href="#ArialMT-64" x="94.433594"/>
      <use xlink:href="#ArialMT-67" x="150.048828"/>
      <use xlink:href="#ArialMT-65" x="205.664062"/>
      <use xlink:href="#ArialMT-20" x="261.279297"/>
      <use xlink:href="#ArialMT-52" x="289.0625"/>
      <use xlink:href="#ArialMT-65" x="361.279297"/>
      <use xlink:href="#ArialMT-67" x="416.894531"/>
      <use xlink:href="#ArialMT-72" x="472.509766"/>
      <use xlink:href="#ArialMT-65" x="505.810547"/>
      <use xlink:href="#ArialMT-73" x="561.425781"/>
      <use xlink:href="#ArialMT-73" x="611.425781"/>
      <use xlink:href="#ArialMT-69" x="661.425781"/>
      <use xlink:href="#ArialMT-6f" x="683.642578"/>
      <use xlink:href="#ArialMT-6e" x="739.257812"/>
     </g>
    </g>
    <g id="line2d_43">
     <path d="M 492.815625 195.530938 
L 502.815625 195.530938 
L 512.815625 195.530938 
" style="fill: none; stroke: #bcbd22; stroke-width: 1.5; stroke-linecap: round"/>
    </g>
    <g id="text_23">
     <!-- ElasticNet -->
     <g style="fill: #262626" transform="translate(520.815625 199.030938) scale(0.1 -0.1)">
      <defs>
       <path id="ArialMT-45" d="M 506 0 
L 506 4581 
L 3819 4581 
L 3819 4041 
L 1113 4041 
L 1113 2638 
L 3647 2638 
L 3647 2100 
L 1113 2100 
L 1113 541 
L 3925 541 
L 3925 0 
L 506 0 
z
" transform="scale(0.015625)"/>
      </defs>
      <use xlink:href="#ArialMT-45"/>
      <use xlink:href="#ArialMT-6c" x="66.699219"/>
      <use xlink:href="#ArialMT-61" x="88.916016"/>
      <use xlink:href="#ArialMT-73" x="144.53125"/>
      <use xlink:href="#ArialMT-74" x="194.53125"/>
      <use xlink:href="#ArialMT-69" x="222.314453"/>
      <use xlink:href="#ArialMT-63" x="244.53125"/>
      <use xlink:href="#ArialMT-4e" x="294.53125"/>
      <use xlink:href="#ArialMT-65" x="366.748047"/>
      <use xlink:href="#ArialMT-74" x="422.363281"/>
     </g>
    </g>
    <g id="line2d_44">
     <path d="M 492.815625 209.67625 
L 502.815625 209.67625 
L 512.815625 209.67625 
" style="fill: none; stroke: #17becf; stroke-width: 1.5; stroke-linecap: round"/>
    </g>
    <g id="text_24">
     <!-- LSTM -->
     <g style="fill: #262626" transform="translate(520.815625 213.17625) scale(0.1 -0.1)">
      <defs>
       <path id="ArialMT-4d" d="M 475 0 
L 475 4581 
L 1388 4581 
L 2472 1338 
Q 2622 884 2691 659 
Q 2769 909 2934 1394 
L 4031 4581 
L 4847 4581 
L 4847 0 
L 4263 0 
L 4263 3834 
L 2931 0 
L 2384 0 
L 1059 3900 
L 1059 0 
L 475 0 
z
" transform="scale(0.015625)"/>
      </defs>
      <use xlink:href="#ArialMT-4c"/>
      <use xlink:href="#ArialMT-53" x="55.615234"/>
      <use xlink:href="#ArialMT-54" x="122.314453"/>
      <use xlink:href="#ArialMT-4d" x="183.398438"/>
     </g>
    </g>
    <g id="line2d_45">
     <path d="M 492.815625 223.821563 
L 502.815625 223.821563 
L 512.815625 223.821563 
" style="fill: none; stroke: #1f77b4; stroke-width: 1.5; stroke-linecap: round"/>
    </g>
    <g id="text_25">
     <!-- RNN -->
     <g style="fill: #262626" transform="translate(520.815625 227.321563) scale(0.1 -0.1)">
      <use xlink:href="#ArialMT-52"/>
      <use xlink:href="#ArialMT-4e" x="72.216797"/>
      <use xlink:href="#ArialMT-4e" x="144.433594"/>
     </g>
    </g>
    <g id="line2d_46">
     <path d="M 492.815625 238.08875 
L 502.815625 238.08875 
L 512.815625 238.08875 
" style="fill: none; stroke: #000000; stroke-width: 2; stroke-linecap: round"/>
    </g>
    <g id="text_26">
     <!-- Gerçek Değerler -->
     <g style="fill: #262626" transform="translate(520.815625 241.58875) scale(0.1 -0.1)">
      <use xlink:href="#ArialMT-47"/>
      <use xlink:href="#ArialMT-65" x="77.783203"/>
      <use xlink:href="#ArialMT-72" x="133.398438"/>
      <use xlink:href="#ArialMT-e7" x="166.699219"/>
      <use xlink:href="#ArialMT-65" x="216.699219"/>
      <use xlink:href="#ArialMT-6b" x="272.314453"/>
      <use xlink:href="#ArialMT-20" x="322.314453"/>
      <use xlink:href="#ArialMT-44" x="350.097656"/>
      <use xlink:href="#ArialMT-65" x="422.314453"/>
      <use xlink:href="#ArialMT-11f" x="477.929688"/>
      <use xlink:href="#ArialMT-65" x="533.544922"/>
      <use xlink:href="#ArialMT-72" x="589.160156"/>
      <use xlink:href="#ArialMT-6c" x="622.460938"/>
      <use xlink:href="#ArialMT-65" x="644.677734"/>
      <use xlink:href="#ArialMT-72" x="700.292969"/>
     </g>
    </g>
   </g>
  </g>
 </g>
 <defs>
  <clipPath id="pcbb46e941b">
   <rect x="135" y="69.12" width="837" height="443.52"/>
  </clipPath>
 </defs>
</svg>
