<?xml version="1.0" encoding="utf-8" standalone="no"?>
<!DOCTYPE svg PUBLIC "-//W3C//DTD SVG 1.1//EN"
  "http://www.w3.org/Graphics/SVG/1.1/DTD/svg11.dtd">
<svg xmlns:xlink="http://www.w3.org/1999/xlink" width="1080pt" height="576pt" viewBox="0 0 1080 576" xmlns="http://www.w3.org/2000/svg" version="1.1">
 <metadata>
  <rdf:RDF xmlns:dc="http://purl.org/dc/elements/1.1/" xmlns:cc="http://creativecommons.org/ns#" xmlns:rdf="http://www.w3.org/1999/02/22-rdf-syntax-ns#">
   <cc:Work>
    <dc:type rdf:resource="http://purl.org/dc/dcmitype/StillImage"/>
    <dc:date>2023-05-23T03:04:12.509504</dc:date>
    <dc:format>image/svg+xml</dc:format>
    <dc:creator>
     <cc:Agent>
      <dc:title>Matplotlib v3.7.1, https://matplotlib.org/</dc:title>
     </cc:Agent>
    </dc:creator>
   </cc:Work>
  </rdf:RDF>
 </metadata>
 <defs>
  <style type="text/css">*{stroke-linejoin: round; stroke-linecap: butt}</style>
 </defs>
 <g id="figure_1">
  <g id="patch_1">
   <path d="M 0 576 
L 1080 576 
L 1080 0 
L 0 0 
z
" style="fill: #ffffff"/>
  </g>
  <g id="axes_1">
   <g id="patch_2">
    <path d="M 135 512.64 
L 972 512.64 
L 972 69.12 
L 135 69.12 
z
" style="fill: #ffffff"/>
   </g>
   <g id="matplotlib.axis_1">
    <g id="xtick_1">
     <g id="line2d_1">
      <path d="M 159.457792 512.64 
L 159.457792 69.12 
" clip-path="url(#p51a6e5fde1)" style="fill: none; stroke: #cccccc; stroke-width: 0.8; stroke-linecap: round"/>
     </g>
     <g id="line2d_2"/>
     <g id="text_1">
      <!-- 2023-01-01 -->
      <g style="fill: #262626" transform="translate(133.884355 523.297812) scale(0.1 -0.1)">
       <defs>
        <path id="ArialMT-32" d="M 3222 541 
L 3222 0 
L 194 0 
Q 188 203 259 391 
Q 375 700 629 1000 
Q 884 1300 1366 1694 
Q 2113 2306 2375 2664 
Q 2638 3022 2638 3341 
Q 2638 3675 2398 3904 
Q 2159 4134 1775 4134 
Q 1369 4134 1125 3890 
Q 881 3647 878 3216 
L 300 3275 
Q 359 3922 746 4261 
Q 1134 4600 1788 4600 
Q 2447 4600 2831 4234 
Q 3216 3869 3216 3328 
Q 3216 3053 3103 2787 
Q 2991 2522 2730 2228 
Q 2469 1934 1863 1422 
Q 1356 997 1212 845 
Q 1069 694 975 541 
L 3222 541 
z
" transform="scale(0.015625)"/>
        <path id="ArialMT-30" d="M 266 2259 
Q 266 3072 433 3567 
Q 600 4063 929 4331 
Q 1259 4600 1759 4600 
Q 2128 4600 2406 4451 
Q 2684 4303 2865 4023 
Q 3047 3744 3150 3342 
Q 3253 2941 3253 2259 
Q 3253 1453 3087 958 
Q 2922 463 2592 192 
Q 2263 -78 1759 -78 
Q 1097 -78 719 397 
Q 266 969 266 2259 
z
M 844 2259 
Q 844 1131 1108 757 
Q 1372 384 1759 384 
Q 2147 384 2411 759 
Q 2675 1134 2675 2259 
Q 2675 3391 2411 3762 
Q 2147 4134 1753 4134 
Q 1366 4134 1134 3806 
Q 844 3388 844 2259 
z
" transform="scale(0.015625)"/>
        <path id="ArialMT-33" d="M 269 1209 
L 831 1284 
Q 928 806 1161 595 
Q 1394 384 1728 384 
Q 2125 384 2398 659 
Q 2672 934 2672 1341 
Q 2672 1728 2419 1979 
Q 2166 2231 1775 2231 
Q 1616 2231 1378 2169 
L 1441 2663 
Q 1497 2656 1531 2656 
Q 1891 2656 2178 2843 
Q 2466 3031 2466 3422 
Q 2466 3731 2256 3934 
Q 2047 4138 1716 4138 
Q 1388 4138 1169 3931 
Q 950 3725 888 3313 
L 325 3413 
Q 428 3978 793 4289 
Q 1159 4600 1703 4600 
Q 2078 4600 2393 4439 
Q 2709 4278 2876 4000 
Q 3044 3722 3044 3409 
Q 3044 3113 2884 2869 
Q 2725 2625 2413 2481 
Q 2819 2388 3044 2092 
Q 3269 1797 3269 1353 
Q 3269 753 2831 336 
Q 2394 -81 1725 -81 
Q 1122 -81 723 278 
Q 325 638 269 1209 
z
" transform="scale(0.015625)"/>
        <path id="ArialMT-2d" d="M 203 1375 
L 203 1941 
L 1931 1941 
L 1931 1375 
L 203 1375 
z
" transform="scale(0.015625)"/>
        <path id="ArialMT-31" d="M 2384 0 
L 1822 0 
L 1822 3584 
Q 1619 3391 1289 3197 
Q 959 3003 697 2906 
L 697 3450 
Q 1169 3672 1522 3987 
Q 1875 4303 2022 4600 
L 2384 4600 
L 2384 0 
z
" transform="scale(0.015625)"/>
       </defs>
       <use xlink:href="#ArialMT-32"/>
       <use xlink:href="#ArialMT-30" x="55.615234"/>
       <use xlink:href="#ArialMT-32" x="111.230469"/>
       <use xlink:href="#ArialMT-33" x="166.845703"/>
       <use xlink:href="#ArialMT-2d" x="222.460938"/>
       <use xlink:href="#ArialMT-30" x="255.761719"/>
       <use xlink:href="#ArialMT-31" x="311.376953"/>
       <use xlink:href="#ArialMT-2d" x="366.992188"/>
       <use xlink:href="#ArialMT-30" x="400.292969"/>
       <use xlink:href="#ArialMT-31" x="455.908203"/>
      </g>
     </g>
    </g>
    <g id="xtick_2">
     <g id="line2d_3">
      <path d="M 254.571429 512.64 
L 254.571429 69.12 
" clip-path="url(#p51a6e5fde1)" style="fill: none; stroke: #cccccc; stroke-width: 0.8; stroke-linecap: round"/>
     </g>
     <g id="line2d_4"/>
     <g id="text_2">
      <!-- 2023-01-15 -->
      <g style="fill: #262626" transform="translate(228.997991 523.297812) scale(0.1 -0.1)">
       <defs>
        <path id="ArialMT-35" d="M 266 1200 
L 856 1250 
Q 922 819 1161 601 
Q 1400 384 1738 384 
Q 2144 384 2425 690 
Q 2706 997 2706 1503 
Q 2706 1984 2436 2262 
Q 2166 2541 1728 2541 
Q 1456 2541 1237 2417 
Q 1019 2294 894 2097 
L 366 2166 
L 809 4519 
L 3088 4519 
L 3088 3981 
L 1259 3981 
L 1013 2750 
Q 1425 3038 1878 3038 
Q 2478 3038 2890 2622 
Q 3303 2206 3303 1553 
Q 3303 931 2941 478 
Q 2500 -78 1738 -78 
Q 1113 -78 717 272 
Q 322 622 266 1200 
z
" transform="scale(0.015625)"/>
       </defs>
       <use xlink:href="#ArialMT-32"/>
       <use xlink:href="#ArialMT-30" x="55.615234"/>
       <use xlink:href="#ArialMT-32" x="111.230469"/>
       <use xlink:href="#ArialMT-33" x="166.845703"/>
       <use xlink:href="#ArialMT-2d" x="222.460938"/>
       <use xlink:href="#ArialMT-30" x="255.761719"/>
       <use xlink:href="#ArialMT-31" x="311.376953"/>
       <use xlink:href="#ArialMT-2d" x="366.992188"/>
       <use xlink:href="#ArialMT-31" x="400.292969"/>
       <use xlink:href="#ArialMT-35" x="455.908203"/>
      </g>
     </g>
    </g>
    <g id="xtick_3">
     <g id="line2d_5">
      <path d="M 370.066558 512.64 
L 370.066558 69.12 
" clip-path="url(#p51a6e5fde1)" style="fill: none; stroke: #cccccc; stroke-width: 0.8; stroke-linecap: round"/>
     </g>
     <g id="line2d_6"/>
     <g id="text_3">
      <!-- 2023-02-01 -->
      <g style="fill: #262626" transform="translate(344.493121 523.297812) scale(0.1 -0.1)">
       <use xlink:href="#ArialMT-32"/>
       <use xlink:href="#ArialMT-30" x="55.615234"/>
       <use xlink:href="#ArialMT-32" x="111.230469"/>
       <use xlink:href="#ArialMT-33" x="166.845703"/>
       <use xlink:href="#ArialMT-2d" x="222.460938"/>
       <use xlink:href="#ArialMT-30" x="255.761719"/>
       <use xlink:href="#ArialMT-32" x="311.376953"/>
       <use xlink:href="#ArialMT-2d" x="366.992188"/>
       <use xlink:href="#ArialMT-30" x="400.292969"/>
       <use xlink:href="#ArialMT-31" x="455.908203"/>
      </g>
     </g>
    </g>
    <g id="xtick_4">
     <g id="line2d_7">
      <path d="M 465.180195 512.64 
L 465.180195 69.12 
" clip-path="url(#p51a6e5fde1)" style="fill: none; stroke: #cccccc; stroke-width: 0.8; stroke-linecap: round"/>
     </g>
     <g id="line2d_8"/>
     <g id="text_4">
      <!-- 2023-02-15 -->
      <g style="fill: #262626" transform="translate(439.606757 523.297812) scale(0.1 -0.1)">
       <use xlink:href="#ArialMT-32"/>
       <use xlink:href="#ArialMT-30" x="55.615234"/>
       <use xlink:href="#ArialMT-32" x="111.230469"/>
       <use xlink:href="#ArialMT-33" x="166.845703"/>
       <use xlink:href="#ArialMT-2d" x="222.460938"/>
       <use xlink:href="#ArialMT-30" x="255.761719"/>
       <use xlink:href="#ArialMT-32" x="311.376953"/>
       <use xlink:href="#ArialMT-2d" x="366.992188"/>
       <use xlink:href="#ArialMT-31" x="400.292969"/>
       <use xlink:href="#ArialMT-35" x="455.908203"/>
      </g>
     </g>
    </g>
    <g id="xtick_5">
     <g id="line2d_9">
      <path d="M 560.293831 512.64 
L 560.293831 69.12 
" clip-path="url(#p51a6e5fde1)" style="fill: none; stroke: #cccccc; stroke-width: 0.8; stroke-linecap: round"/>
     </g>
     <g id="line2d_10"/>
     <g id="text_5">
      <!-- 2023-03-01 -->
      <g style="fill: #262626" transform="translate(534.720394 523.297812) scale(0.1 -0.1)">
       <use xlink:href="#ArialMT-32"/>
       <use xlink:href="#ArialMT-30" x="55.615234"/>
       <use xlink:href="#ArialMT-32" x="111.230469"/>
       <use xlink:href="#ArialMT-33" x="166.845703"/>
       <use xlink:href="#ArialMT-2d" x="222.460938"/>
       <use xlink:href="#ArialMT-30" x="255.761719"/>
       <use xlink:href="#ArialMT-33" x="311.376953"/>
       <use xlink:href="#ArialMT-2d" x="366.992188"/>
       <use xlink:href="#ArialMT-30" x="400.292969"/>
       <use xlink:href="#ArialMT-31" x="455.908203"/>
      </g>
     </g>
    </g>
    <g id="xtick_6">
     <g id="line2d_11">
      <path d="M 655.407468 512.64 
L 655.407468 69.12 
" clip-path="url(#p51a6e5fde1)" style="fill: none; stroke: #cccccc; stroke-width: 0.8; stroke-linecap: round"/>
     </g>
     <g id="line2d_12"/>
     <g id="text_6">
      <!-- 2023-03-15 -->
      <g style="fill: #262626" transform="translate(629.83403 523.297812) scale(0.1 -0.1)">
       <use xlink:href="#ArialMT-32"/>
       <use xlink:href="#ArialMT-30" x="55.615234"/>
       <use xlink:href="#ArialMT-32" x="111.230469"/>
       <use xlink:href="#ArialMT-33" x="166.845703"/>
       <use xlink:href="#ArialMT-2d" x="222.460938"/>
       <use xlink:href="#ArialMT-30" x="255.761719"/>
       <use xlink:href="#ArialMT-33" x="311.376953"/>
       <use xlink:href="#ArialMT-2d" x="366.992188"/>
       <use xlink:href="#ArialMT-31" x="400.292969"/>
       <use xlink:href="#ArialMT-35" x="455.908203"/>
      </g>
     </g>
    </g>
    <g id="xtick_7">
     <g id="line2d_13">
      <path d="M 770.902597 512.64 
L 770.902597 69.12 
" clip-path="url(#p51a6e5fde1)" style="fill: none; stroke: #cccccc; stroke-width: 0.8; stroke-linecap: round"/>
     </g>
     <g id="line2d_14"/>
     <g id="text_7">
      <!-- 2023-04-01 -->
      <g style="fill: #262626" transform="translate(745.32916 523.297812) scale(0.1 -0.1)">
       <defs>
        <path id="ArialMT-34" d="M 2069 0 
L 2069 1097 
L 81 1097 
L 81 1613 
L 2172 4581 
L 2631 4581 
L 2631 1613 
L 3250 1613 
L 3250 1097 
L 2631 1097 
L 2631 0 
L 2069 0 
z
M 2069 1613 
L 2069 3678 
L 634 1613 
L 2069 1613 
z
" transform="scale(0.015625)"/>
       </defs>
       <use xlink:href="#ArialMT-32"/>
       <use xlink:href="#ArialMT-30" x="55.615234"/>
       <use xlink:href="#ArialMT-32" x="111.230469"/>
       <use xlink:href="#ArialMT-33" x="166.845703"/>
       <use xlink:href="#ArialMT-2d" x="222.460938"/>
       <use xlink:href="#ArialMT-30" x="255.761719"/>
       <use xlink:href="#ArialMT-34" x="311.376953"/>
       <use xlink:href="#ArialMT-2d" x="366.992188"/>
       <use xlink:href="#ArialMT-30" x="400.292969"/>
       <use xlink:href="#ArialMT-31" x="455.908203"/>
      </g>
     </g>
    </g>
    <g id="xtick_8">
     <g id="line2d_15">
      <path d="M 866.016234 512.64 
L 866.016234 69.12 
" clip-path="url(#p51a6e5fde1)" style="fill: none; stroke: #cccccc; stroke-width: 0.8; stroke-linecap: round"/>
     </g>
     <g id="line2d_16"/>
     <g id="text_8">
      <!-- 2023-04-15 -->
      <g style="fill: #262626" transform="translate(840.442796 523.297812) scale(0.1 -0.1)">
       <use xlink:href="#ArialMT-32"/>
       <use xlink:href="#ArialMT-30" x="55.615234"/>
       <use xlink:href="#ArialMT-32" x="111.230469"/>
       <use xlink:href="#ArialMT-33" x="166.845703"/>
       <use xlink:href="#ArialMT-2d" x="222.460938"/>
       <use xlink:href="#ArialMT-30" x="255.761719"/>
       <use xlink:href="#ArialMT-34" x="311.376953"/>
       <use xlink:href="#ArialMT-2d" x="366.992188"/>
       <use xlink:href="#ArialMT-31" x="400.292969"/>
       <use xlink:href="#ArialMT-35" x="455.908203"/>
      </g>
     </g>
    </g>
    <g id="text_9">
     <!-- Date -->
     <g style="fill: #262626" transform="translate(542.939062 536.443125) scale(0.1 -0.1)">
      <defs>
       <path id="ArialMT-44" d="M 494 0 
L 494 4581 
L 2072 4581 
Q 2606 4581 2888 4516 
Q 3281 4425 3559 4188 
Q 3922 3881 4101 3404 
Q 4281 2928 4281 2316 
Q 4281 1794 4159 1391 
Q 4038 988 3847 723 
Q 3656 459 3429 307 
Q 3203 156 2883 78 
Q 2563 0 2147 0 
L 494 0 
z
M 1100 541 
L 2078 541 
Q 2531 541 2789 625 
Q 3047 709 3200 863 
Q 3416 1078 3536 1442 
Q 3656 1806 3656 2325 
Q 3656 3044 3420 3430 
Q 3184 3816 2847 3947 
Q 2603 4041 2063 4041 
L 1100 4041 
L 1100 541 
z
" transform="scale(0.015625)"/>
       <path id="ArialMT-61" d="M 2588 409 
Q 2275 144 1986 34 
Q 1697 -75 1366 -75 
Q 819 -75 525 192 
Q 231 459 231 875 
Q 231 1119 342 1320 
Q 453 1522 633 1644 
Q 813 1766 1038 1828 
Q 1203 1872 1538 1913 
Q 2219 1994 2541 2106 
Q 2544 2222 2544 2253 
Q 2544 2597 2384 2738 
Q 2169 2928 1744 2928 
Q 1347 2928 1158 2789 
Q 969 2650 878 2297 
L 328 2372 
Q 403 2725 575 2942 
Q 747 3159 1072 3276 
Q 1397 3394 1825 3394 
Q 2250 3394 2515 3294 
Q 2781 3194 2906 3042 
Q 3031 2891 3081 2659 
Q 3109 2516 3109 2141 
L 3109 1391 
Q 3109 606 3145 398 
Q 3181 191 3288 0 
L 2700 0 
Q 2613 175 2588 409 
z
M 2541 1666 
Q 2234 1541 1622 1453 
Q 1275 1403 1131 1340 
Q 988 1278 909 1158 
Q 831 1038 831 891 
Q 831 666 1001 516 
Q 1172 366 1500 366 
Q 1825 366 2078 508 
Q 2331 650 2450 897 
Q 2541 1088 2541 1459 
L 2541 1666 
z
" transform="scale(0.015625)"/>
       <path id="ArialMT-74" d="M 1650 503 
L 1731 6 
Q 1494 -44 1306 -44 
Q 1000 -44 831 53 
Q 663 150 594 308 
Q 525 466 525 972 
L 525 2881 
L 113 2881 
L 113 3319 
L 525 3319 
L 525 4141 
L 1084 4478 
L 1084 3319 
L 1650 3319 
L 1650 2881 
L 1084 2881 
L 1084 941 
Q 1084 700 1114 631 
Q 1144 563 1211 522 
Q 1278 481 1403 481 
Q 1497 481 1650 503 
z
" transform="scale(0.015625)"/>
       <path id="ArialMT-65" d="M 2694 1069 
L 3275 997 
Q 3138 488 2766 206 
Q 2394 -75 1816 -75 
Q 1088 -75 661 373 
Q 234 822 234 1631 
Q 234 2469 665 2931 
Q 1097 3394 1784 3394 
Q 2450 3394 2872 2941 
Q 3294 2488 3294 1666 
Q 3294 1616 3291 1516 
L 816 1516 
Q 847 969 1125 678 
Q 1403 388 1819 388 
Q 2128 388 2347 550 
Q 2566 713 2694 1069 
z
M 847 1978 
L 2700 1978 
Q 2663 2397 2488 2606 
Q 2219 2931 1791 2931 
Q 1403 2931 1139 2672 
Q 875 2413 847 1978 
z
" transform="scale(0.015625)"/>
      </defs>
      <use xlink:href="#ArialMT-44"/>
      <use xlink:href="#ArialMT-61" x="72.216797"/>
      <use xlink:href="#ArialMT-74" x="127.832031"/>
      <use xlink:href="#ArialMT-65" x="155.615234"/>
     </g>
    </g>
   </g>
   <g id="matplotlib.axis_2">
    <g id="ytick_1">
     <g id="line2d_17">
      <path d="M 135 500.879308 
L 972 500.879308 
" clip-path="url(#p51a6e5fde1)" style="fill: none; stroke: #cccccc; stroke-width: 0.8; stroke-linecap: round"/>
     </g>
     <g id="line2d_18"/>
     <g id="text_10">
      <!-- 11 -->
      <g style="fill: #262626" transform="translate(121.115625 504.458215) scale(0.1 -0.1)">
       <use xlink:href="#ArialMT-31"/>
       <use xlink:href="#ArialMT-31" x="48.240234"/>
      </g>
     </g>
    </g>
    <g id="ytick_2">
     <g id="line2d_19">
      <path d="M 135 440.86191 
L 972 440.86191 
" clip-path="url(#p51a6e5fde1)" style="fill: none; stroke: #cccccc; stroke-width: 0.8; stroke-linecap: round"/>
     </g>
     <g id="line2d_20"/>
     <g id="text_11">
      <!-- 12 -->
      <g style="fill: #262626" transform="translate(120.378125 444.440816) scale(0.1 -0.1)">
       <use xlink:href="#ArialMT-31"/>
       <use xlink:href="#ArialMT-32" x="55.615234"/>
      </g>
     </g>
    </g>
    <g id="ytick_3">
     <g id="line2d_21">
      <path d="M 135 380.844511 
L 972 380.844511 
" clip-path="url(#p51a6e5fde1)" style="fill: none; stroke: #cccccc; stroke-width: 0.8; stroke-linecap: round"/>
     </g>
     <g id="line2d_22"/>
     <g id="text_12">
      <!-- 13 -->
      <g style="fill: #262626" transform="translate(120.378125 384.423417) scale(0.1 -0.1)">
       <use xlink:href="#ArialMT-31"/>
       <use xlink:href="#ArialMT-33" x="55.615234"/>
      </g>
     </g>
    </g>
    <g id="ytick_4">
     <g id="line2d_23">
      <path d="M 135 320.827112 
L 972 320.827112 
" clip-path="url(#p51a6e5fde1)" style="fill: none; stroke: #cccccc; stroke-width: 0.8; stroke-linecap: round"/>
     </g>
     <g id="line2d_24"/>
     <g id="text_13">
      <!-- 14 -->
      <g style="fill: #262626" transform="translate(120.378125 324.406019) scale(0.1 -0.1)">
       <use xlink:href="#ArialMT-31"/>
       <use xlink:href="#ArialMT-34" x="55.615234"/>
      </g>
     </g>
    </g>
    <g id="ytick_5">
     <g id="line2d_25">
      <path d="M 135 260.809714 
L 972 260.809714 
" clip-path="url(#p51a6e5fde1)" style="fill: none; stroke: #cccccc; stroke-width: 0.8; stroke-linecap: round"/>
     </g>
     <g id="line2d_26"/>
     <g id="text_14">
      <!-- 15 -->
      <g style="fill: #262626" transform="translate(120.378125 264.38862) scale(0.1 -0.1)">
       <use xlink:href="#ArialMT-31"/>
       <use xlink:href="#ArialMT-35" x="55.615234"/>
      </g>
     </g>
    </g>
    <g id="ytick_6">
     <g id="line2d_27">
      <path d="M 135 200.792315 
L 972 200.792315 
" clip-path="url(#p51a6e5fde1)" style="fill: none; stroke: #cccccc; stroke-width: 0.8; stroke-linecap: round"/>
     </g>
     <g id="line2d_28"/>
     <g id="text_15">
      <!-- 16 -->
      <g style="fill: #262626" transform="translate(120.378125 204.371221) scale(0.1 -0.1)">
       <defs>
        <path id="ArialMT-36" d="M 3184 3459 
L 2625 3416 
Q 2550 3747 2413 3897 
Q 2184 4138 1850 4138 
Q 1581 4138 1378 3988 
Q 1113 3794 959 3422 
Q 806 3050 800 2363 
Q 1003 2672 1297 2822 
Q 1591 2972 1913 2972 
Q 2475 2972 2870 2558 
Q 3266 2144 3266 1488 
Q 3266 1056 3080 686 
Q 2894 316 2569 119 
Q 2244 -78 1831 -78 
Q 1128 -78 684 439 
Q 241 956 241 2144 
Q 241 3472 731 4075 
Q 1159 4600 1884 4600 
Q 2425 4600 2770 4297 
Q 3116 3994 3184 3459 
z
M 888 1484 
Q 888 1194 1011 928 
Q 1134 663 1356 523 
Q 1578 384 1822 384 
Q 2178 384 2434 671 
Q 2691 959 2691 1453 
Q 2691 1928 2437 2201 
Q 2184 2475 1800 2475 
Q 1419 2475 1153 2201 
Q 888 1928 888 1484 
z
" transform="scale(0.015625)"/>
       </defs>
       <use xlink:href="#ArialMT-31"/>
       <use xlink:href="#ArialMT-36" x="55.615234"/>
      </g>
     </g>
    </g>
    <g id="ytick_7">
     <g id="line2d_29">
      <path d="M 135 140.774916 
L 972 140.774916 
" clip-path="url(#p51a6e5fde1)" style="fill: none; stroke: #cccccc; stroke-width: 0.8; stroke-linecap: round"/>
     </g>
     <g id="line2d_30"/>
     <g id="text_16">
      <!-- 17 -->
      <g style="fill: #262626" transform="translate(120.378125 144.353822) scale(0.1 -0.1)">
       <defs>
        <path id="ArialMT-37" d="M 303 3981 
L 303 4522 
L 3269 4522 
L 3269 4084 
Q 2831 3619 2401 2847 
Q 1972 2075 1738 1259 
Q 1569 684 1522 0 
L 944 0 
Q 953 541 1156 1306 
Q 1359 2072 1739 2783 
Q 2119 3494 2547 3981 
L 303 3981 
z
" transform="scale(0.015625)"/>
       </defs>
       <use xlink:href="#ArialMT-31"/>
       <use xlink:href="#ArialMT-37" x="55.615234"/>
      </g>
     </g>
    </g>
    <g id="ytick_8">
     <g id="line2d_31">
      <path d="M 135 80.757517 
L 972 80.757517 
" clip-path="url(#p51a6e5fde1)" style="fill: none; stroke: #cccccc; stroke-width: 0.8; stroke-linecap: round"/>
     </g>
     <g id="line2d_32"/>
     <g id="text_17">
      <!-- 18 -->
      <g style="fill: #262626" transform="translate(120.378125 84.336424) scale(0.1 -0.1)">
       <defs>
        <path id="ArialMT-38" d="M 1131 2484 
Q 781 2613 612 2850 
Q 444 3088 444 3419 
Q 444 3919 803 4259 
Q 1163 4600 1759 4600 
Q 2359 4600 2725 4251 
Q 3091 3903 3091 3403 
Q 3091 3084 2923 2848 
Q 2756 2613 2416 2484 
Q 2838 2347 3058 2040 
Q 3278 1734 3278 1309 
Q 3278 722 2862 322 
Q 2447 -78 1769 -78 
Q 1091 -78 675 323 
Q 259 725 259 1325 
Q 259 1772 486 2073 
Q 713 2375 1131 2484 
z
M 1019 3438 
Q 1019 3113 1228 2906 
Q 1438 2700 1772 2700 
Q 2097 2700 2305 2904 
Q 2513 3109 2513 3406 
Q 2513 3716 2298 3927 
Q 2084 4138 1766 4138 
Q 1444 4138 1231 3931 
Q 1019 3725 1019 3438 
z
M 838 1322 
Q 838 1081 952 856 
Q 1066 631 1291 507 
Q 1516 384 1775 384 
Q 2178 384 2440 643 
Q 2703 903 2703 1303 
Q 2703 1709 2433 1975 
Q 2163 2241 1756 2241 
Q 1359 2241 1098 1978 
Q 838 1716 838 1322 
z
" transform="scale(0.015625)"/>
       </defs>
       <use xlink:href="#ArialMT-31"/>
       <use xlink:href="#ArialMT-38" x="55.615234"/>
      </g>
     </g>
    </g>
    <g id="text_18">
     <!-- Adj Close -->
     <g style="fill: #262626" transform="translate(114.273438 312.278437) rotate(-90) scale(0.1 -0.1)">
      <defs>
       <path id="ArialMT-41" d="M -9 0 
L 1750 4581 
L 2403 4581 
L 4278 0 
L 3588 0 
L 3053 1388 
L 1138 1388 
L 634 0 
L -9 0 
z
M 1313 1881 
L 2866 1881 
L 2388 3150 
Q 2169 3728 2063 4100 
Q 1975 3659 1816 3225 
L 1313 1881 
z
" transform="scale(0.015625)"/>
       <path id="ArialMT-64" d="M 2575 0 
L 2575 419 
Q 2259 -75 1647 -75 
Q 1250 -75 917 144 
Q 584 363 401 755 
Q 219 1147 219 1656 
Q 219 2153 384 2558 
Q 550 2963 881 3178 
Q 1213 3394 1622 3394 
Q 1922 3394 2156 3267 
Q 2391 3141 2538 2938 
L 2538 4581 
L 3097 4581 
L 3097 0 
L 2575 0 
z
M 797 1656 
Q 797 1019 1065 703 
Q 1334 388 1700 388 
Q 2069 388 2326 689 
Q 2584 991 2584 1609 
Q 2584 2291 2321 2609 
Q 2059 2928 1675 2928 
Q 1300 2928 1048 2622 
Q 797 2316 797 1656 
z
" transform="scale(0.015625)"/>
       <path id="ArialMT-6a" d="M 419 3928 
L 419 4581 
L 981 4581 
L 981 3928 
L 419 3928 
z
M -294 -1288 
L -188 -809 
Q -19 -853 78 -853 
Q 250 -853 334 -739 
Q 419 -625 419 -169 
L 419 3319 
L 981 3319 
L 981 -181 
Q 981 -794 822 -1034 
Q 619 -1347 147 -1347 
Q -81 -1347 -294 -1288 
z
" transform="scale(0.015625)"/>
       <path id="ArialMT-20" transform="scale(0.015625)"/>
       <path id="ArialMT-43" d="M 3763 1606 
L 4369 1453 
Q 4178 706 3683 314 
Q 3188 -78 2472 -78 
Q 1731 -78 1267 223 
Q 803 525 561 1097 
Q 319 1669 319 2325 
Q 319 3041 592 3573 
Q 866 4106 1370 4382 
Q 1875 4659 2481 4659 
Q 3169 4659 3637 4309 
Q 4106 3959 4291 3325 
L 3694 3184 
Q 3534 3684 3231 3912 
Q 2928 4141 2469 4141 
Q 1941 4141 1586 3887 
Q 1231 3634 1087 3207 
Q 944 2781 944 2328 
Q 944 1744 1114 1308 
Q 1284 872 1643 656 
Q 2003 441 2422 441 
Q 2931 441 3284 734 
Q 3638 1028 3763 1606 
z
" transform="scale(0.015625)"/>
       <path id="ArialMT-6c" d="M 409 0 
L 409 4581 
L 972 4581 
L 972 0 
L 409 0 
z
" transform="scale(0.015625)"/>
       <path id="ArialMT-6f" d="M 213 1659 
Q 213 2581 725 3025 
Q 1153 3394 1769 3394 
Q 2453 3394 2887 2945 
Q 3322 2497 3322 1706 
Q 3322 1066 3130 698 
Q 2938 331 2570 128 
Q 2203 -75 1769 -75 
Q 1072 -75 642 372 
Q 213 819 213 1659 
z
M 791 1659 
Q 791 1022 1069 705 
Q 1347 388 1769 388 
Q 2188 388 2466 706 
Q 2744 1025 2744 1678 
Q 2744 2294 2464 2611 
Q 2184 2928 1769 2928 
Q 1347 2928 1069 2612 
Q 791 2297 791 1659 
z
" transform="scale(0.015625)"/>
       <path id="ArialMT-73" d="M 197 991 
L 753 1078 
Q 800 744 1014 566 
Q 1228 388 1613 388 
Q 2000 388 2187 545 
Q 2375 703 2375 916 
Q 2375 1106 2209 1216 
Q 2094 1291 1634 1406 
Q 1016 1563 777 1677 
Q 538 1791 414 1992 
Q 291 2194 291 2438 
Q 291 2659 392 2848 
Q 494 3038 669 3163 
Q 800 3259 1026 3326 
Q 1253 3394 1513 3394 
Q 1903 3394 2198 3281 
Q 2494 3169 2634 2976 
Q 2775 2784 2828 2463 
L 2278 2388 
Q 2241 2644 2061 2787 
Q 1881 2931 1553 2931 
Q 1166 2931 1000 2803 
Q 834 2675 834 2503 
Q 834 2394 903 2306 
Q 972 2216 1119 2156 
Q 1203 2125 1616 2013 
Q 2213 1853 2448 1751 
Q 2684 1650 2818 1456 
Q 2953 1263 2953 975 
Q 2953 694 2789 445 
Q 2625 197 2315 61 
Q 2006 -75 1616 -75 
Q 969 -75 630 194 
Q 291 463 197 991 
z
" transform="scale(0.015625)"/>
      </defs>
      <use xlink:href="#ArialMT-41"/>
      <use xlink:href="#ArialMT-64" x="66.699219"/>
      <use xlink:href="#ArialMT-6a" x="122.314453"/>
      <use xlink:href="#ArialMT-20" x="144.53125"/>
      <use xlink:href="#ArialMT-43" x="172.314453"/>
      <use xlink:href="#ArialMT-6c" x="244.53125"/>
      <use xlink:href="#ArialMT-6f" x="266.748047"/>
      <use xlink:href="#ArialMT-73" x="322.363281"/>
      <use xlink:href="#ArialMT-65" x="372.363281"/>
     </g>
    </g>
   </g>
   <g id="line2d_33">
    <path d="M 173.045455 410.925241 
L 179.839286 408.92066 
L 186.633117 331.39017 
L 193.426948 321.247231 
L 213.808442 315.509569 
L 220.602273 291.484613 
L 227.396104 267.351613 
L 234.189935 263.558513 
L 240.983766 183.063187 
L 268.159091 160.274575 
L 274.952922 94.741575 
L 281.746753 156.343433 
L 288.540584 163.755589 
L 308.922078 200.01809 
L 315.715909 196.909197 
L 322.50974 206.836071 
L 329.303571 159.800442 
L 336.097403 197.809462 
L 356.478896 157.441757 
L 363.272727 206.18188 
L 370.066558 192.822011 
L 376.86039 194.448486 
L 383.654221 103.882236 
L 404.035714 148.859278 
L 410.829545 165.003953 
L 417.623377 150.029613 
L 424.417208 149.55548 
L 431.211039 154.680958 
L 451.592532 200.612267 
L 458.386364 194.316442 
L 465.180195 185.679938 
L 471.974026 166.984525 
L 478.767857 175.050859 
L 505.943182 200.228154 
L 512.737013 200.930365 
L 519.530844 219.301688 
L 526.324675 200.000097 
L 546.706169 210.689192 
L 553.5 211.30137 
L 560.293831 205.737754 
L 567.087662 199.892064 
L 573.881494 191.987774 
L 594.262987 201.770601 
L 601.056818 197.731431 
L 607.850649 201.422502 
L 614.644481 197.809453 
L 621.438312 227.878166 
L 641.819805 235.908502 
L 648.613636 274.445664 
L 655.407468 289.42001 
L 662.201299 335.279298 
L 668.99513 318.504438 
L 689.376623 324.158068 
L 696.170455 327.260974 
L 702.964286 322.105484 
L 709.758117 316.211769 
L 716.551948 335.309315 
L 736.933442 330.075793 
L 743.727273 315.773639 
L 750.521104 295.787845 
L 757.314935 309.231746 
L 764.108766 316.397828 
L 784.49026 286.569177 
L 791.284091 319.638767 
L 798.077922 320.448999 
L 804.871753 315.257493 
L 832.047078 293.099063 
L 838.840909 306.032818 
L 845.63474 327.110932 
L 852.428571 372.62212 
L 859.222403 380.022268 
L 879.603896 403.357046 
L 886.397727 383.311219 
L 893.191558 373.480368 
L 899.98539 330.765987 
L 906.779221 378.977966 
L 927.160714 327.91516 
L 933.954545 374.488668 
" clip-path="url(#p51a6e5fde1)" style="fill: none; stroke: #1f77b4; stroke-width: 1.5; stroke-linecap: round"/>
   </g>
   <g id="line2d_34">
    <path d="M 173.045455 398.710819 
L 179.839286 392.400031 
L 186.633117 341.212301 
L 193.426948 316.125334 
L 213.808442 314.093977 
L 220.602273 309.388932 
L 227.396104 264.294371 
L 234.189935 256.237432 
L 240.983766 173.2623 
L 268.159091 157.849706 
L 274.952922 121.18489 
L 281.746753 152.962963 
L 288.540584 178.801759 
L 308.922078 179.538015 
L 315.715909 179.538015 
L 322.50974 216.854429 
L 329.303571 176.193672 
L 336.097403 187.321997 
L 356.478896 152.048623 
L 363.272727 214.246342 
L 370.066558 179.538015 
L 376.86039 178.801759 
L 383.654221 126.75142 
L 404.035714 123.312589 
L 410.829545 150.84477 
L 417.623377 150.84477 
L 424.417208 135.073626 
L 431.211039 150.84477 
L 451.592532 179.538015 
L 458.386364 179.538015 
L 465.180195 152.784879 
L 471.974026 152.784879 
L 478.767857 152.784879 
L 505.943182 179.538015 
L 512.737013 216.118172 
L 519.530844 216.854429 
L 526.324675 216.118172 
L 546.706169 216.854429 
L 553.5 216.854429 
L 560.293831 216.854429 
L 567.087662 179.538015 
L 573.881494 179.538015 
L 594.262987 179.538015 
L 601.056818 179.538015 
L 607.850649 179.538015 
L 614.644481 179.538015 
L 621.438312 216.854429 
L 641.819805 256.237432 
L 648.613636 280.223333 
L 655.407468 298.489683 
L 662.201299 326.134854 
L 668.99513 318.269065 
L 689.376623 314.093977 
L 696.170455 323.280405 
L 702.964286 314.830233 
L 709.758117 324.016661 
L 716.551948 331.055303 
L 736.933442 332.203454 
L 743.727273 324.016661 
L 750.521104 314.830233 
L 757.314935 314.830233 
L 764.108766 314.830233 
L 784.49026 300.560253 
L 791.284091 314.830233 
L 798.077922 314.830233 
L 804.871753 324.016661 
L 832.047078 314.830233 
L 838.840909 314.830233 
L 845.63474 312.222146 
L 852.428571 365.512517 
L 859.222403 380.719328 
L 879.603896 398.44695 
L 886.397727 376.374177 
L 893.191558 368.231037 
L 899.98539 342.53294 
L 906.779221 368.231037 
L 927.160714 339.094108 
L 933.954545 368.231037 
" clip-path="url(#p51a6e5fde1)" style="fill: none; stroke: #ff7f0e; stroke-width: 1.5; stroke-linecap: round"/>
   </g>
   <g id="line2d_35">
    <path d="M 173.045455 392.297803 
L 179.839286 384.437211 
L 186.633117 337.191397 
L 193.426948 316.935528 
L 213.808442 308.590816 
L 220.602273 279.659819 
L 227.396104 244.609806 
L 234.189935 244.680491 
L 240.983766 155.433498 
L 268.159091 150.839531 
L 274.952922 141.615824 
L 281.746753 169.595449 
L 288.540584 190.93271 
L 308.922078 185.421314 
L 315.715909 195.965624 
L 322.50974 205.150335 
L 329.303571 183.746309 
L 336.097403 170.138162 
L 356.478896 184.291708 
L 363.272727 201.808814 
L 370.066558 197.233754 
L 376.86039 162.025673 
L 383.654221 153.749395 
L 404.035714 150.88783 
L 410.829545 153.351474 
L 417.623377 154.400551 
L 424.417208 154.892163 
L 431.211039 173.045612 
L 451.592532 192.344262 
L 458.386364 181.615806 
L 465.180195 159.062123 
L 471.974026 164.326305 
L 478.767857 183.903506 
L 505.943182 189.579209 
L 512.737013 226.953543 
L 519.530844 231.476328 
L 526.324675 214.825009 
L 546.706169 233.896348 
L 553.5 232.756872 
L 560.293831 205.900717 
L 567.087662 205.928106 
L 573.881494 200.005635 
L 594.262987 188.398822 
L 601.056818 203.158124 
L 607.850649 189.110993 
L 614.644481 173.57178 
L 621.438312 211.217892 
L 641.819805 235.07761 
L 648.613636 275.396092 
L 655.407468 289.481738 
L 662.201299 322.135219 
L 668.99513 319.162249 
L 689.376623 318.268859 
L 696.170455 321.119567 
L 702.964286 302.702671 
L 709.758117 330.281789 
L 716.551948 344.858882 
L 736.933442 335.607896 
L 743.727273 321.090635 
L 750.521104 322.731216 
L 757.314935 302.407548 
L 764.108766 298.43156 
L 784.49026 280.926758 
L 791.284091 298.505935 
L 798.077922 306.227606 
L 804.871753 323.703905 
L 832.047078 322.426957 
L 838.840909 309.914826 
L 845.63474 295.310174 
L 852.428571 376.708113 
L 859.222403 384.740494 
L 879.603896 397.860875 
L 886.397727 377.231428 
L 893.191558 363.329342 
L 899.98539 346.770874 
L 906.779221 364.004087 
L 927.160714 359.071685 
L 933.954545 357.441304 
" clip-path="url(#p51a6e5fde1)" style="fill: none; stroke: #2ca02c; stroke-width: 1.5; stroke-linecap: round"/>
   </g>
   <g id="line2d_36">
    <path d="M 173.045455 409.052704 
L 179.839286 412.053586 
L 186.633117 322.627618 
L 193.426948 353.236505 
L 213.808442 314.225219 
L 220.602273 340.032662 
L 227.396104 270.412488 
L 234.189935 241.003977 
L 240.983766 218.197358 
L 268.159091 178.585827 
L 274.952922 122.769742 
L 281.746753 143.77574 
L 288.540584 157.579829 
L 308.922078 230.801014 
L 315.715909 230.801014 
L 322.50974 232.60152 
L 329.303571 167.782791 
L 336.097403 218.197358 
L 356.478896 91.560668 
L 363.272727 232.60152 
L 370.066558 232.60152 
L 376.86039 232.60152 
L 383.654221 122.769742 
L 404.035714 142.575479 
L 410.829545 142.575479 
L 417.623377 142.575479 
L 424.417208 142.575479 
L 431.211039 142.575479 
L 451.592532 230.801014 
L 458.386364 230.801014 
L 465.180195 91.560668 
L 471.974026 185.187777 
L 478.767857 185.187777 
L 505.943182 230.801014 
L 512.737013 232.60152 
L 519.530844 263.210407 
L 526.324675 263.210407 
L 546.706169 263.210407 
L 553.5 263.210407 
L 560.293831 263.210407 
L 567.087662 263.210407 
L 573.881494 263.210407 
L 594.262987 230.801014 
L 601.056818 232.60152 
L 607.850649 230.801014 
L 614.644481 230.801014 
L 621.438312 232.60152 
L 641.819805 278.214757 
L 648.613636 270.412488 
L 655.407468 270.412488 
L 662.201299 379.044005 
L 668.99513 301.021375 
L 689.376623 304.622387 
L 696.170455 322.027488 
L 702.964286 336.43165 
L 709.758117 312.424656 
L 716.551948 350.835812 
L 736.933442 349.035306 
L 743.727273 355.037011 
L 750.521104 295.6198 
L 757.314935 322.027488 
L 764.108766 336.43165 
L 784.49026 310.62415 
L 791.284091 336.43165 
L 798.077922 338.232156 
L 804.871753 355.037011 
L 832.047078 322.627618 
L 838.840909 295.019613 
L 845.63474 322.027488 
L 852.428571 362.239092 
L 859.222403 400.05006 
L 879.603896 412.053586 
L 886.397727 367.640667 
L 893.191558 431.259135 
L 899.98539 308.823644 
L 906.779221 385.045711 
L 927.160714 308.823644 
L 933.954545 381.444699 
" clip-path="url(#p51a6e5fde1)" style="fill: none; stroke: #d62728; stroke-width: 1.5; stroke-linecap: round"/>
   </g>
   <g id="line2d_37">
    <path d="M 173.045455 383.829991 
L 179.839286 382.391099 
L 186.633117 341.175342 
L 193.426948 320.231751 
L 213.808442 309.741761 
L 220.602273 286.523028 
L 227.396104 255.157575 
L 234.189935 246.595552 
L 240.983766 164.904179 
L 268.159091 155.255105 
L 274.952922 150.995593 
L 281.746753 173.368492 
L 288.540584 194.327759 
L 308.922078 191.029227 
L 315.715909 200.079651 
L 322.50974 208.470018 
L 329.303571 195.383819 
L 336.097403 176.803671 
L 356.478896 185.90073 
L 363.272727 211.18543 
L 370.066558 202.260811 
L 376.86039 172.721209 
L 383.654221 152.441797 
L 404.035714 154.267613 
L 410.829545 159.474746 
L 417.623377 157.815171 
L 424.417208 156.630434 
L 431.211039 173.269643 
L 451.592532 194.47401 
L 458.386364 182.31814 
L 465.180195 166.990909 
L 471.974026 166.432855 
L 478.767857 188.103365 
L 505.943182 190.156073 
L 512.737013 226.689326 
L 519.530844 234.073611 
L 526.324675 217.263092 
L 546.706169 234.40811 
L 553.5 230.426176 
L 560.293831 211.51556 
L 567.087662 208.601737 
L 573.881494 203.775509 
L 594.262987 190.210493 
L 601.056818 202.947781 
L 607.850649 190.187896 
L 614.644481 177.893609 
L 621.438312 215.474975 
L 641.819805 239.30526 
L 648.613636 273.151498 
L 655.407468 283.362445 
L 662.201299 325.906493 
L 668.99513 313.552227 
L 689.376623 320.184753 
L 696.170455 321.031579 
L 702.964286 299.589959 
L 709.758117 327.974055 
L 716.551948 338.19729 
L 736.933442 334.214944 
L 743.727273 322.360094 
L 750.521104 320.389059 
L 757.314935 300.923725 
L 764.108766 294.049159 
L 784.49026 279.224773 
L 791.284091 296.788528 
L 798.077922 310.189435 
L 804.871753 324.776045 
L 832.047078 318.80349 
L 838.840909 311.419552 
L 845.63474 301.998233 
L 852.428571 368.305922 
L 859.222403 372.475854 
L 879.603896 380.395546 
L 886.397727 365.737194 
L 893.191558 356.174308 
L 899.98539 339.231301 
L 906.779221 354.129398 
L 927.160714 350.663 
L 933.954545 354.245218 
" clip-path="url(#p51a6e5fde1)" style="fill: none; stroke: #9467bd; stroke-width: 1.5; stroke-linecap: round"/>
   </g>
   <g id="line2d_38">
    <path d="M 173.045455 409.17273 
L 179.839286 407.612277 
L 186.633117 328.509355 
L 193.426948 317.46613 
L 213.808442 324.068057 
L 220.602273 281.695777 
L 227.396104 262.490205 
L 234.189935 259.849436 
L 240.983766 161.420916 
L 268.159091 155.539214 
L 274.952922 89.28 
L 281.746753 185.427864 
L 288.540584 168.142847 
L 308.922078 184.70765 
L 315.715909 166.342329 
L 322.50974 181.466717 
L 329.303571 190.109225 
L 336.097403 181.946867 
L 356.478896 155.419165 
L 363.272727 183.027182 
L 370.066558 166.342329 
L 376.86039 176.065153 
L 383.654221 130.692014 
L 404.035714 133.932959 
L 410.829545 165.502101 
L 417.623377 177.985708 
L 424.417208 153.498621 
L 431.211039 175.585014 
L 451.592532 166.342329 
L 458.386364 170.423514 
L 465.180195 180.746503 
L 471.974026 171.023691 
L 478.767857 156.739555 
L 505.943182 161.180829 
L 512.737013 237.162867 
L 519.530844 226.239702 
L 526.324675 208.594584 
L 546.706169 226.239702 
L 553.5 226.239702 
L 560.293831 181.466717 
L 567.087662 181.466717 
L 573.881494 181.466717 
L 594.262987 161.420905 
L 601.056818 181.106604 
L 607.850649 161.420905 
L 614.644481 173.424396 
L 621.438312 206.674029 
L 641.819805 226.239702 
L 648.613636 268.131832 
L 655.407468 290.818424 
L 662.201299 329.829711 
L 668.99513 310.504112 
L 689.376623 322.627618 
L 696.170455 327.789118 
L 702.964286 323.827994 
L 709.758117 322.867705 
L 716.551948 330.910037 
L 736.933442 322.627641 
L 743.727273 297.660393 
L 750.521104 302.701855 
L 757.314935 323.827994 
L 764.108766 324.068057 
L 784.49026 274.493685 
L 791.284091 325.628511 
L 798.077922 321.78739 
L 804.871753 312.424679 
L 832.047078 297.30028 
L 838.840909 317.346104 
L 845.63474 326.468751 
L 852.428571 357.917867 
L 859.222403 377.003401 
L 879.603896 401.250424 
L 886.397727 362.479179 
L 893.191558 341.473089 
L 899.98539 327.549066 
L 906.779221 345.914375 
L 927.160714 330.429887 
L 933.954545 338.232144 
" clip-path="url(#p51a6e5fde1)" style="fill: none; stroke: #8c564b; stroke-width: 1.5; stroke-linecap: round"/>
   </g>
   <g id="line2d_39">
    <path d="M 173.045455 389.125396 
L 179.839286 383.055693 
L 186.633117 360.122638 
L 193.426948 331.507145 
L 213.808442 324.444837 
L 220.602273 307.971728 
L 227.396104 302.230279 
L 234.189935 264.759356 
L 240.983766 193.857016 
L 268.159091 183.663097 
L 274.952922 154.910178 
L 281.746753 153.160442 
L 288.540584 193.857016 
L 308.922078 193.857016 
L 315.715909 193.857016 
L 322.50974 209.784427 
L 329.303571 193.857016 
L 336.097403 193.857016 
L 356.478896 165.104555 
L 363.272727 209.784427 
L 370.066558 193.857016 
L 376.86039 193.857016 
L 383.654221 147.193823 
L 404.035714 147.193823 
L 410.829545 162.105219 
L 417.623377 155.928426 
L 424.417208 146.983648 
L 431.211039 153.160442 
L 451.592532 206.968193 
L 458.386364 206.968193 
L 465.180195 165.104555 
L 471.974026 178.215389 
L 478.767857 178.215389 
L 505.943182 193.857016 
L 512.737013 210.806624 
L 519.530844 216.23344 
L 526.324675 210.806624 
L 546.706169 216.23344 
L 553.5 229.344675 
L 560.293831 223.917858 
L 567.087662 206.968193 
L 573.881494 206.968193 
L 594.262987 206.968193 
L 601.056818 206.968193 
L 607.850649 193.857016 
L 614.644481 206.968193 
L 621.438312 209.784427 
L 641.819805 225.353478 
L 648.613636 302.230279 
L 655.407468 305.318275 
L 662.201299 331.816054 
L 668.99513 325.278781 
L 689.376623 324.619811 
L 696.170455 331.024236 
L 702.964286 324.444837 
L 709.758117 331.024236 
L 716.551948 333.146987 
L 736.933442 352.389454 
L 743.727273 344.310444 
L 750.521104 337.556072 
L 757.314935 337.556072 
L 764.108766 337.312642 
L 784.49026 327.806369 
L 791.284091 337.556072 
L 798.077922 337.556072 
L 804.871753 331.19921 
L 832.047078 337.556072 
L 838.840909 324.444837 
L 845.63474 324.444837 
L 852.428571 366.064015 
L 859.222403 373.395738 
L 879.603896 383.055693 
L 886.397727 374.545402 
L 893.191558 373.395738 
L 899.98539 358.972974 
L 906.779221 368.143151 
L 927.160714 372.084209 
L 933.954545 372.334506 
" clip-path="url(#p51a6e5fde1)" style="fill: none; stroke: #e377c2; stroke-width: 1.5; stroke-linecap: round"/>
   </g>
   <g id="line2d_40">
    <path d="M 173.045455 392.408813 
L 179.839286 390.053135 
L 186.633117 342.828177 
L 193.426948 320.204649 
L 213.808442 309.113129 
L 220.602273 283.984329 
L 227.396104 251.196494 
L 234.189935 243.324275 
L 240.983766 158.236432 
L 268.159091 149.079482 
L 274.952922 143.587603 
L 281.746753 167.765448 
L 288.540584 189.57325 
L 308.922078 185.783975 
L 315.715909 195.186396 
L 322.50974 203.855636 
L 329.303571 189.475487 
L 336.097403 171.520179 
L 356.478896 180.863626 
L 363.272727 205.946549 
L 370.066558 197.419202 
L 376.86039 166.44249 
L 383.654221 146.402237 
L 404.035714 147.646093 
L 410.829545 152.788153 
L 417.623377 151.712177 
L 424.417208 150.511118 
L 431.211039 168.089843 
L 451.592532 189.801148 
L 458.386364 177.417531 
L 465.180195 160.67082 
L 471.974026 160.669111 
L 478.767857 182.843844 
L 505.943182 185.549764 
L 512.737013 223.29233 
L 519.530844 230.373108 
L 526.324675 213.244845 
L 546.706169 231.024028 
L 553.5 227.259434 
L 560.293831 206.968303 
L 567.087662 204.345788 
L 573.881494 199.288626 
L 594.262987 185.464687 
L 601.056818 198.772535 
L 607.850649 185.45825 
L 614.644481 172.424536 
L 621.438312 211.128886 
L 641.819805 235.885824 
L 648.613636 271.25298 
L 655.407468 282.436415 
L 662.201299 326.267089 
L 668.99513 314.199335 
L 689.376623 320.225717 
L 696.170455 321.207813 
L 702.964286 298.879563 
L 709.758117 329.084294 
L 716.551948 340.801017 
L 736.933442 335.821917 
L 743.727273 322.649988 
L 750.521104 320.897905 
L 757.314935 300.234652 
L 764.108766 293.200579 
L 784.49026 277.506639 
L 791.284091 295.863532 
L 798.077922 309.355025 
L 804.871753 325.265255 
L 832.047078 319.360024 
L 838.840909 310.877394 
L 845.63474 300.25382 
L 852.428571 374.899494 
L 859.222403 379.795441 
L 879.603896 389.540436 
L 886.397727 371.997556 
L 893.191558 360.756695 
L 899.98539 342.075881 
L 906.779221 358.561102 
L 927.160714 354.743032 
L 933.954545 358.080013 
" clip-path="url(#p51a6e5fde1)" style="fill: none; stroke: #7f7f7f; stroke-width: 1.5; stroke-linecap: round"/>
   </g>
   <g id="line2d_41">
    <path d="M 173.045455 365.248587 
L 179.839286 364.362995 
L 186.633117 326.724383 
L 193.426948 309.012119 
L 213.808442 300.598763 
L 220.602273 281.55809 
L 227.396104 255.875287 
L 234.189935 249.233157 
L 240.983766 183.254923 
L 268.159091 174.841566 
L 274.952922 172.184748 
L 281.746753 191.66828 
L 288.540584 207.609275 
L 308.922078 204.952456 
L 315.715909 212.480179 
L 322.50974 219.122267 
L 329.303571 208.494909 
L 336.097403 192.996647 
L 356.478896 200.967186 
L 363.272727 221.779127 
L 370.066558 213.80863 
L 376.86039 189.454194 
L 383.654221 173.070382 
L 404.035714 174.841566 
L 410.829545 179.269653 
L 417.623377 177.498469 
L 424.417208 177.055652 
L 431.211039 190.782646 
L 451.592532 207.609275 
L 458.386364 197.424734 
L 465.180195 185.026107 
L 471.974026 184.583375 
L 478.767857 202.738455 
L 505.943182 204.066822 
L 512.737013 233.734937 
L 519.530844 239.491391 
L 526.324675 225.764397 
L 546.706169 239.491391 
L 553.5 236.391755 
L 560.293831 220.893535 
L 567.087662 218.67945 
L 573.881494 214.69418 
L 594.262987 204.066822 
L 601.056818 214.69418 
L 607.850649 204.066822 
L 614.644481 193.882281 
L 621.438312 225.32158 
L 641.819805 243.919478 
L 648.613636 270.93069 
L 655.407468 279.344047 
L 662.201299 314.768615 
L 668.99513 303.255623 
L 689.376623 309.454936 
L 696.170455 310.340528 
L 702.964286 292.185448 
L 709.758117 316.539842 
L 716.551948 324.953156 
L 736.933442 320.967886 
L 743.727273 311.226163 
L 750.521104 309.454936 
L 757.314935 293.07104 
L 764.108766 287.757361 
L 784.49026 275.358777 
L 791.284091 289.971405 
L 798.077922 301.484397 
L 804.871753 313.440164 
L 832.047078 308.126485 
L 838.840909 301.927214 
L 845.63474 294.399491 
L 852.428571 352.850003 
L 859.222403 355.064046 
L 879.603896 362.148951 
L 886.397727 348.421916 
L 893.191558 340.008601 
L 899.98539 324.953156 
L 906.779221 338.680192 
L 927.160714 335.137739 
L 933.954545 338.680192 
" clip-path="url(#p51a6e5fde1)" style="fill: none; stroke: #bcbd22; stroke-width: 1.5; stroke-linecap: round"/>
   </g>
   <g id="line2d_42">
    <path d="M 179.839286 492.48 
L 186.633117 418.571512 
L 193.426948 384.963862 
L 213.808442 361.84118 
L 220.602273 332.193074 
L 227.396104 288.686333 
L 234.189935 261.163782 
L 240.983766 90.54368 
L 268.159091 98.322767 
L 274.952922 114.60213 
L 281.746753 126.645378 
L 288.540584 173.772191 
L 308.922078 181.598327 
L 315.715909 192.967781 
L 322.50974 207.727614 
L 329.303571 192.172758 
L 336.097403 135.555012 
L 356.478896 163.605517 
L 363.272727 217.993766 
L 370.066558 202.063378 
L 376.86039 158.11511 
L 383.654221 99.690389 
L 404.035714 118.740712 
L 410.829545 133.919863 
L 417.623377 123.496653 
L 424.417208 115.942163 
L 431.211039 143.147392 
L 451.592532 186.852116 
L 458.386364 165.446032 
L 465.180195 150.461028 
L 471.974026 143.924671 
L 478.767857 179.837029 
L 505.943182 171.519341 
L 512.737013 223.484058 
L 519.530844 245.444828 
L 526.324675 216.142605 
L 546.706169 244.466246 
L 553.5 236.319525 
L 560.293831 221.735753 
L 567.087662 213.41732 
L 573.881494 207.778326 
L 594.262987 179.421946 
L 601.056818 195.534863 
L 607.850649 176.437034 
L 614.644481 167.033558 
L 621.438312 215.935121 
L 641.819805 246.182556 
L 648.613636 290.558786 
L 655.407468 295.857792 
L 662.201299 378.480163 
L 668.99513 360.125156 
L 689.376623 377.746155 
L 696.170455 379.318686 
L 702.964286 346.367258 
L 709.758117 387.984261 
L 716.551948 396.306814 
L 736.933442 406.32347 
L 743.727273 391.161947 
L 750.521104 387.437189 
L 757.314935 352.17327 
L 764.108766 337.422652 
L 784.49026 319.53573 
L 791.284091 344.794441 
L 798.077922 372.840253 
L 804.871753 392.27143 
L 832.047078 380.311634 
L 838.840909 373.428249 
L 845.63474 366.719494 
L 852.428571 396.482246 
L 859.222403 437.385904 
L 879.603896 459.704919 
L 886.397727 443.357445 
L 893.191558 432.230162 
L 899.98539 397.381154 
L 906.779221 424.304261 
L 927.160714 426.501706 
L 933.954545 433.505632 
" clip-path="url(#p51a6e5fde1)" style="fill: none; stroke: #17becf; stroke-width: 1.5; stroke-linecap: round"/>
   </g>
   <g id="line2d_43">
    <path d="M 179.839286 409.453421 
L 186.633117 354.724898 
L 193.426948 331.363709 
L 213.808442 317.573987 
L 220.602273 294.720778 
L 227.396104 261.970824 
L 234.189935 247.162683 
L 240.983766 135.384445 
L 268.159091 135.83616 
L 274.952922 144.706415 
L 281.746753 160.25154 
L 288.540584 188.158609 
L 308.922078 190.920297 
L 315.715909 200.155152 
L 322.50974 209.758098 
L 329.303571 196.751608 
L 336.097403 161.96476 
L 356.478896 181.153023 
L 363.272727 216.037175 
L 370.066558 204.20599 
L 376.86039 171.187709 
L 383.654221 138.013572 
L 404.035714 148.35997 
L 410.829545 157.591047 
L 417.623377 151.12784 
L 424.417208 148.328604 
L 431.211039 167.399876 
L 451.592532 194.793414 
L 458.386364 179.636127 
L 465.180195 166.786638 
L 471.974026 164.273473 
L 478.767857 189.756553 
L 505.943182 185.741489 
L 512.737013 223.398432 
L 519.530844 236.178664 
L 526.324675 215.578019 
L 546.706169 235.440249 
L 553.5 230.701078 
L 560.293831 215.798897 
L 567.087662 211.571654 
L 573.881494 206.81434 
L 594.262987 189.486623 
L 601.056818 202.454593 
L 607.850649 188.004642 
L 614.644481 178.863656 
L 621.438312 216.924921 
L 641.819805 238.148535 
L 648.613636 271.078212 
L 655.407468 277.289577 
L 662.201299 331.813421 
L 668.99513 317.063604 
L 689.376623 329.0404 
L 696.170455 330.864488 
L 702.964286 306.995035 
L 709.758117 338.277029 
L 716.551948 345.371276 
L 736.933442 347.633971 
L 743.727273 336.63507 
L 750.521104 334.2832 
L 757.314935 309.645854 
L 764.108766 301.218442 
L 784.49026 286.647549 
L 791.284091 305.375856 
L 798.077922 324.114236 
L 804.871753 338.340276 
L 832.047078 330.222116 
L 838.840909 323.865942 
L 845.63474 317.504845 
L 852.428571 356.630319 
L 859.222403 377.834128 
L 879.603896 392.333132 
L 886.397727 377.538213 
L 893.191558 368.556975 
L 899.98539 344.264884 
L 906.779221 365.155835 
L 927.160714 363.92604 
L 933.954545 368.970627 
" clip-path="url(#p51a6e5fde1)" style="fill: none; stroke: #1f77b4; stroke-width: 1.5; stroke-linecap: round"/>
   </g>
   <g id="line2d_44">
    <path d="M 173.045455 396.449048 
L 179.839286 345.434237 
L 186.633117 321.4273 
L 193.426948 310.023962 
L 213.808442 284.21652 
L 220.602273 249.406433 
L 227.396104 240.403789 
L 234.189935 150.977879 
L 240.983766 139.574541 
L 268.159091 135.973529 
L 274.952922 162.381216 
L 281.746753 183.987402 
L 288.540584 180.38639 
L 308.922078 190.589353 
L 315.715909 199.591939 
L 322.50974 185.187777 
L 329.303571 164.181665 
L 336.097403 174.984815 
L 356.478896 203.193009 
L 363.272727 192.389916 
L 370.066558 159.380278 
L 376.86039 137.173904 
L 383.654221 139.574541 
L 404.035714 145.576303 
L 410.829545 143.175667 
L 417.623377 142.575479 
L 424.417208 161.180841 
L 431.211039 183.987402 
L 451.592532 170.183428 
L 458.386364 153.378515 
L 465.180195 152.778442 
L 471.974026 177.385566 
L 478.767857 179.186015 
L 505.943182 219.397734 
L 512.737013 227.199945 
L 519.530844 208.594584 
L 526.324675 227.199945 
L 546.706169 222.998746 
L 553.5 201.99269 
L 560.293831 198.991752 
L 567.087662 193.590177 
L 573.881494 179.186015 
L 594.262987 193.590177 
L 601.056818 179.186015 
L 607.850649 165.38204 
L 614.644481 207.994396 
L 621.438312 233.201708 
L 641.819805 269.8123 
L 648.613636 281.215638 
L 655.407468 329.229569 
L 662.201299 313.625031 
L 668.99513 322.027488 
L 689.376623 323.227806 
L 696.170455 298.620682 
L 702.964286 331.630262 
L 709.758117 343.033543 
L 716.551948 337.631968 
L 736.933442 324.428181 
L 743.727273 322.027488 
L 750.521104 299.821 
L 757.314935 292.618919 
L 764.108766 275.814063 
L 784.49026 295.6198 
L 791.284091 311.224338 
L 798.077922 327.429006 
L 804.871753 320.226925 
L 832.047078 311.824525 
L 838.840909 301.621563 
L 845.63474 380.844511 
L 852.428571 383.845392 
L 859.222403 393.448167 
L 879.603896 374.842748 
L 886.397727 363.439468 
L 893.191558 343.033543 
L 899.98539 361.638962 
L 906.779221 356.837574 
L 927.160714 361.638962 
L 933.954545 390.447286 
" clip-path="url(#p51a6e5fde1)" style="fill: none; stroke: #000000; stroke-width: 2; stroke-linecap: round"/>
   </g>
   <g id="patch_3">
    <path d="M 135 512.64 
L 135 69.12 
" style="fill: none; stroke: #cccccc; stroke-linejoin: miter; stroke-linecap: square"/>
   </g>
   <g id="patch_4">
    <path d="M 972 512.64 
L 972 69.12 
" style="fill: none; stroke: #cccccc; stroke-linejoin: miter; stroke-linecap: square"/>
   </g>
   <g id="patch_5">
    <path d="M 135 512.64 
L 972 512.64 
" style="fill: none; stroke: #cccccc; stroke-linejoin: miter; stroke-linecap: square"/>
   </g>
   <g id="patch_6">
    <path d="M 135 69.12 
L 972 69.12 
" style="fill: none; stroke: #cccccc; stroke-linejoin: miter; stroke-linecap: square"/>
   </g>
   <g id="text_19">
    <!-- Tahminler ve Gerçek Değerler -->
    <g style="fill: #262626" transform="translate(473.811563 63.12) scale(0.12 -0.12)">
     <defs>
      <path id="ArialMT-54" d="M 1659 0 
L 1659 4041 
L 150 4041 
L 150 4581 
L 3781 4581 
L 3781 4041 
L 2266 4041 
L 2266 0 
L 1659 0 
z
" transform="scale(0.015625)"/>
      <path id="ArialMT-68" d="M 422 0 
L 422 4581 
L 984 4581 
L 984 2938 
Q 1378 3394 1978 3394 
Q 2347 3394 2619 3248 
Q 2891 3103 3008 2847 
Q 3125 2591 3125 2103 
L 3125 0 
L 2563 0 
L 2563 2103 
Q 2563 2525 2380 2717 
Q 2197 2909 1863 2909 
Q 1613 2909 1392 2779 
Q 1172 2650 1078 2428 
Q 984 2206 984 1816 
L 984 0 
L 422 0 
z
" transform="scale(0.015625)"/>
      <path id="ArialMT-6d" d="M 422 0 
L 422 3319 
L 925 3319 
L 925 2853 
Q 1081 3097 1340 3245 
Q 1600 3394 1931 3394 
Q 2300 3394 2536 3241 
Q 2772 3088 2869 2813 
Q 3263 3394 3894 3394 
Q 4388 3394 4653 3120 
Q 4919 2847 4919 2278 
L 4919 0 
L 4359 0 
L 4359 2091 
Q 4359 2428 4304 2576 
Q 4250 2725 4106 2815 
Q 3963 2906 3769 2906 
Q 3419 2906 3187 2673 
Q 2956 2441 2956 1928 
L 2956 0 
L 2394 0 
L 2394 2156 
Q 2394 2531 2256 2718 
Q 2119 2906 1806 2906 
Q 1569 2906 1367 2781 
Q 1166 2656 1075 2415 
Q 984 2175 984 1722 
L 984 0 
L 422 0 
z
" transform="scale(0.015625)"/>
      <path id="ArialMT-69" d="M 425 3934 
L 425 4581 
L 988 4581 
L 988 3934 
L 425 3934 
z
M 425 0 
L 425 3319 
L 988 3319 
L 988 0 
L 425 0 
z
" transform="scale(0.015625)"/>
      <path id="ArialMT-6e" d="M 422 0 
L 422 3319 
L 928 3319 
L 928 2847 
Q 1294 3394 1984 3394 
Q 2284 3394 2536 3286 
Q 2788 3178 2913 3003 
Q 3038 2828 3088 2588 
Q 3119 2431 3119 2041 
L 3119 0 
L 2556 0 
L 2556 2019 
Q 2556 2363 2490 2533 
Q 2425 2703 2258 2804 
Q 2091 2906 1866 2906 
Q 1506 2906 1245 2678 
Q 984 2450 984 1813 
L 984 0 
L 422 0 
z
" transform="scale(0.015625)"/>
      <path id="ArialMT-72" d="M 416 0 
L 416 3319 
L 922 3319 
L 922 2816 
Q 1116 3169 1280 3281 
Q 1444 3394 1641 3394 
Q 1925 3394 2219 3213 
L 2025 2691 
Q 1819 2813 1613 2813 
Q 1428 2813 1281 2702 
Q 1134 2591 1072 2394 
Q 978 2094 978 1738 
L 978 0 
L 416 0 
z
" transform="scale(0.015625)"/>
      <path id="ArialMT-76" d="M 1344 0 
L 81 3319 
L 675 3319 
L 1388 1331 
Q 1503 1009 1600 663 
Q 1675 925 1809 1294 
L 2547 3319 
L 3125 3319 
L 1869 0 
L 1344 0 
z
" transform="scale(0.015625)"/>
      <path id="ArialMT-47" d="M 2638 1797 
L 2638 2334 
L 4578 2338 
L 4578 638 
Q 4131 281 3656 101 
Q 3181 -78 2681 -78 
Q 2006 -78 1454 211 
Q 903 500 622 1047 
Q 341 1594 341 2269 
Q 341 2938 620 3517 
Q 900 4097 1425 4378 
Q 1950 4659 2634 4659 
Q 3131 4659 3532 4498 
Q 3934 4338 4162 4050 
Q 4391 3763 4509 3300 
L 3963 3150 
Q 3859 3500 3706 3700 
Q 3553 3900 3268 4020 
Q 2984 4141 2638 4141 
Q 2222 4141 1919 4014 
Q 1616 3888 1430 3681 
Q 1244 3475 1141 3228 
Q 966 2803 966 2306 
Q 966 1694 1177 1281 
Q 1388 869 1791 669 
Q 2194 469 2647 469 
Q 3041 469 3416 620 
Q 3791 772 3984 944 
L 3984 1797 
L 2638 1797 
z
" transform="scale(0.015625)"/>
      <path id="ArialMT-e7" d="M 2588 1216 
L 3141 1144 
Q 3050 572 2676 248 
Q 2303 -75 1759 -75 
Q 1078 -75 664 370 
Q 250 816 250 1647 
Q 250 2184 428 2587 
Q 606 2991 970 3192 
Q 1334 3394 1763 3394 
Q 2303 3394 2647 3120 
Q 2991 2847 3088 2344 
L 2541 2259 
Q 2463 2594 2264 2762 
Q 2066 2931 1784 2931 
Q 1359 2931 1093 2626 
Q 828 2322 828 1663 
Q 828 994 1084 691 
Q 1341 388 1753 388 
Q 2084 388 2306 591 
Q 2528 794 2588 1216 
z
M 1283 -417 
L 1446 136 
L 1864 136 
L 1761 -199 
Q 2027 -230 2161 -362 
Q 2296 -495 2296 -658 
Q 2296 -892 2071 -1072 
Q 1846 -1252 1392 -1252 
Q 1136 -1252 942 -1214 
L 977 -849 
Q 1177 -861 1271 -861 
Q 1564 -861 1683 -780 
Q 1774 -717 1774 -627 
Q 1774 -570 1738 -526 
Q 1702 -483 1605 -451 
Q 1508 -420 1283 -417 
z
" transform="scale(0.015625)"/>
      <path id="ArialMT-6b" d="M 425 0 
L 425 4581 
L 988 4581 
L 988 1969 
L 2319 3319 
L 3047 3319 
L 1778 2088 
L 3175 0 
L 2481 0 
L 1384 1697 
L 988 1316 
L 988 0 
L 425 0 
z
" transform="scale(0.015625)"/>
      <path id="ArialMT-11f" d="M 319 -275 
L 866 -356 
Q 900 -609 1056 -725 
Q 1266 -881 1628 -881 
Q 2019 -881 2231 -725 
Q 2444 -569 2519 -288 
Q 2563 -116 2559 434 
Q 2191 0 1641 0 
Q 956 0 581 494 
Q 206 988 206 1678 
Q 206 2153 378 2554 
Q 550 2956 876 3175 
Q 1203 3394 1644 3394 
Q 2231 3394 2613 2919 
L 2613 3319 
L 3131 3319 
L 3131 450 
Q 3131 -325 2973 -648 
Q 2816 -972 2473 -1159 
Q 2131 -1347 1631 -1347 
Q 1038 -1347 672 -1080 
Q 306 -813 319 -275 
z
M 784 1719 
Q 784 1066 1043 766 
Q 1303 466 1694 466 
Q 2081 466 2343 764 
Q 2606 1063 2606 1700 
Q 2606 2309 2336 2618 
Q 2066 2928 1684 2928 
Q 1309 2928 1046 2623 
Q 784 2319 784 1719 
z
M 2318 4575 
L 2703 4575 
Q 2656 4184 2417 3975 
Q 2178 3766 1781 3766 
Q 1381 3766 1142 3973 
Q 903 4181 856 4575 
L 1240 4575 
Q 1284 4363 1413 4258 
Q 1543 4153 1762 4153 
Q 2015 4153 2145 4254 
Q 2275 4356 2318 4575 
z
" transform="scale(0.015625)"/>
     </defs>
     <use xlink:href="#ArialMT-54"/>
     <use xlink:href="#ArialMT-61" x="49.958984"/>
     <use xlink:href="#ArialMT-68" x="105.574219"/>
     <use xlink:href="#ArialMT-6d" x="161.189453"/>
     <use xlink:href="#ArialMT-69" x="244.490234"/>
     <use xlink:href="#ArialMT-6e" x="266.707031"/>
     <use xlink:href="#ArialMT-6c" x="322.322266"/>
     <use xlink:href="#ArialMT-65" x="344.539062"/>
     <use xlink:href="#ArialMT-72" x="400.154297"/>
     <use xlink:href="#ArialMT-20" x="433.455078"/>
     <use xlink:href="#ArialMT-76" x="461.238281"/>
     <use xlink:href="#ArialMT-65" x="511.238281"/>
     <use xlink:href="#ArialMT-20" x="566.853516"/>
     <use xlink:href="#ArialMT-47" x="594.636719"/>
     <use xlink:href="#ArialMT-65" x="672.419922"/>
     <use xlink:href="#ArialMT-72" x="728.035156"/>
     <use xlink:href="#ArialMT-e7" x="761.335938"/>
     <use xlink:href="#ArialMT-65" x="811.335938"/>
     <use xlink:href="#ArialMT-6b" x="866.951172"/>
     <use xlink:href="#ArialMT-20" x="916.951172"/>
     <use xlink:href="#ArialMT-44" x="944.734375"/>
     <use xlink:href="#ArialMT-65" x="1016.951172"/>
     <use xlink:href="#ArialMT-11f" x="1072.566406"/>
     <use xlink:href="#ArialMT-65" x="1128.181641"/>
     <use xlink:href="#ArialMT-72" x="1183.796875"/>
     <use xlink:href="#ArialMT-6c" x="1217.097656"/>
     <use xlink:href="#ArialMT-65" x="1239.314453"/>
     <use xlink:href="#ArialMT-72" x="1294.929688"/>
    </g>
   </g>
   <g id="legend_1">
    <g id="line2d_45">
     <path d="M 841.63125 81.777813 
L 851.63125 81.777813 
L 861.63125 81.777813 
" style="fill: none; stroke: #1f77b4; stroke-width: 1.5; stroke-linecap: round"/>
    </g>
    <g id="text_20">
     <!-- Random Forest -->
     <g style="fill: #262626" transform="translate(869.63125 85.277813) scale(0.1 -0.1)">
      <defs>
       <path id="ArialMT-52" d="M 503 0 
L 503 4581 
L 2534 4581 
Q 3147 4581 3465 4457 
Q 3784 4334 3975 4021 
Q 4166 3709 4166 3331 
Q 4166 2844 3850 2509 
Q 3534 2175 2875 2084 
Q 3116 1969 3241 1856 
Q 3506 1613 3744 1247 
L 4541 0 
L 3778 0 
L 3172 953 
Q 2906 1366 2734 1584 
Q 2563 1803 2427 1890 
Q 2291 1978 2150 2013 
Q 2047 2034 1813 2034 
L 1109 2034 
L 1109 0 
L 503 0 
z
M 1109 2559 
L 2413 2559 
Q 2828 2559 3062 2645 
Q 3297 2731 3419 2920 
Q 3541 3109 3541 3331 
Q 3541 3656 3305 3865 
Q 3069 4075 2559 4075 
L 1109 4075 
L 1109 2559 
z
" transform="scale(0.015625)"/>
       <path id="ArialMT-46" d="M 525 0 
L 525 4581 
L 3616 4581 
L 3616 4041 
L 1131 4041 
L 1131 2622 
L 3281 2622 
L 3281 2081 
L 1131 2081 
L 1131 0 
L 525 0 
z
" transform="scale(0.015625)"/>
      </defs>
      <use xlink:href="#ArialMT-52"/>
      <use xlink:href="#ArialMT-61" x="72.216797"/>
      <use xlink:href="#ArialMT-6e" x="127.832031"/>
      <use xlink:href="#ArialMT-64" x="183.447266"/>
      <use xlink:href="#ArialMT-6f" x="239.0625"/>
      <use xlink:href="#ArialMT-6d" x="294.677734"/>
      <use xlink:href="#ArialMT-20" x="377.978516"/>
      <use xlink:href="#ArialMT-46" x="405.761719"/>
      <use xlink:href="#ArialMT-6f" x="466.845703"/>
      <use xlink:href="#ArialMT-72" x="522.460938"/>
      <use xlink:href="#ArialMT-65" x="555.761719"/>
      <use xlink:href="#ArialMT-73" x="611.376953"/>
      <use xlink:href="#ArialMT-74" x="661.376953"/>
     </g>
    </g>
    <g id="line2d_46">
     <path d="M 841.63125 96.045 
L 851.63125 96.045 
L 861.63125 96.045 
" style="fill: none; stroke: #ff7f0e; stroke-width: 1.5; stroke-linecap: round"/>
    </g>
    <g id="text_21">
     <!-- Gradient Boosting -->
     <g style="fill: #262626" transform="translate(869.63125 99.545) scale(0.1 -0.1)">
      <defs>
       <path id="ArialMT-42" d="M 469 0 
L 469 4581 
L 2188 4581 
Q 2713 4581 3030 4442 
Q 3347 4303 3526 4014 
Q 3706 3725 3706 3409 
Q 3706 3116 3547 2856 
Q 3388 2597 3066 2438 
Q 3481 2316 3704 2022 
Q 3928 1728 3928 1328 
Q 3928 1006 3792 729 
Q 3656 453 3456 303 
Q 3256 153 2954 76 
Q 2653 0 2216 0 
L 469 0 
z
M 1075 2656 
L 2066 2656 
Q 2469 2656 2644 2709 
Q 2875 2778 2992 2937 
Q 3109 3097 3109 3338 
Q 3109 3566 3000 3739 
Q 2891 3913 2687 3977 
Q 2484 4041 1991 4041 
L 1075 4041 
L 1075 2656 
z
M 1075 541 
L 2216 541 
Q 2509 541 2628 563 
Q 2838 600 2978 687 
Q 3119 775 3209 942 
Q 3300 1109 3300 1328 
Q 3300 1584 3169 1773 
Q 3038 1963 2805 2039 
Q 2572 2116 2134 2116 
L 1075 2116 
L 1075 541 
z
" transform="scale(0.015625)"/>
       <path id="ArialMT-67" d="M 319 -275 
L 866 -356 
Q 900 -609 1056 -725 
Q 1266 -881 1628 -881 
Q 2019 -881 2231 -725 
Q 2444 -569 2519 -288 
Q 2563 -116 2559 434 
Q 2191 0 1641 0 
Q 956 0 581 494 
Q 206 988 206 1678 
Q 206 2153 378 2554 
Q 550 2956 876 3175 
Q 1203 3394 1644 3394 
Q 2231 3394 2613 2919 
L 2613 3319 
L 3131 3319 
L 3131 450 
Q 3131 -325 2973 -648 
Q 2816 -972 2473 -1159 
Q 2131 -1347 1631 -1347 
Q 1038 -1347 672 -1080 
Q 306 -813 319 -275 
z
M 784 1719 
Q 784 1066 1043 766 
Q 1303 466 1694 466 
Q 2081 466 2343 764 
Q 2606 1063 2606 1700 
Q 2606 2309 2336 2618 
Q 2066 2928 1684 2928 
Q 1309 2928 1046 2623 
Q 784 2319 784 1719 
z
" transform="scale(0.015625)"/>
      </defs>
      <use xlink:href="#ArialMT-47"/>
      <use xlink:href="#ArialMT-72" x="77.783203"/>
      <use xlink:href="#ArialMT-61" x="111.083984"/>
      <use xlink:href="#ArialMT-64" x="166.699219"/>
      <use xlink:href="#ArialMT-69" x="222.314453"/>
      <use xlink:href="#ArialMT-65" x="244.53125"/>
      <use xlink:href="#ArialMT-6e" x="300.146484"/>
      <use xlink:href="#ArialMT-74" x="355.761719"/>
      <use xlink:href="#ArialMT-20" x="383.544922"/>
      <use xlink:href="#ArialMT-42" x="411.328125"/>
      <use xlink:href="#ArialMT-6f" x="478.027344"/>
      <use xlink:href="#ArialMT-6f" x="533.642578"/>
      <use xlink:href="#ArialMT-73" x="589.257812"/>
      <use xlink:href="#ArialMT-74" x="639.257812"/>
      <use xlink:href="#ArialMT-69" x="667.041016"/>
      <use xlink:href="#ArialMT-6e" x="689.257812"/>
      <use xlink:href="#ArialMT-67" x="744.873047"/>
     </g>
    </g>
    <g id="line2d_47">
     <path d="M 841.63125 110.3075 
L 851.63125 110.3075 
L 861.63125 110.3075 
" style="fill: none; stroke: #2ca02c; stroke-width: 1.5; stroke-linecap: round"/>
    </g>
    <g id="text_22">
     <!-- Linear Regression -->
     <g style="fill: #262626" transform="translate(869.63125 113.8075) scale(0.1 -0.1)">
      <defs>
       <path id="ArialMT-4c" d="M 469 0 
L 469 4581 
L 1075 4581 
L 1075 541 
L 3331 541 
L 3331 0 
L 469 0 
z
" transform="scale(0.015625)"/>
      </defs>
      <use xlink:href="#ArialMT-4c"/>
      <use xlink:href="#ArialMT-69" x="55.615234"/>
      <use xlink:href="#ArialMT-6e" x="77.832031"/>
      <use xlink:href="#ArialMT-65" x="133.447266"/>
      <use xlink:href="#ArialMT-61" x="189.0625"/>
      <use xlink:href="#ArialMT-72" x="244.677734"/>
      <use xlink:href="#ArialMT-20" x="277.978516"/>
      <use xlink:href="#ArialMT-52" x="305.761719"/>
      <use xlink:href="#ArialMT-65" x="377.978516"/>
      <use xlink:href="#ArialMT-67" x="433.59375"/>
      <use xlink:href="#ArialMT-72" x="489.208984"/>
      <use xlink:href="#ArialMT-65" x="522.509766"/>
      <use xlink:href="#ArialMT-73" x="578.125"/>
      <use xlink:href="#ArialMT-73" x="628.125"/>
      <use xlink:href="#ArialMT-69" x="678.125"/>
      <use xlink:href="#ArialMT-6f" x="700.341797"/>
      <use xlink:href="#ArialMT-6e" x="755.957031"/>
     </g>
    </g>
    <g id="line2d_48">
     <path d="M 841.63125 124.57 
L 851.63125 124.57 
L 861.63125 124.57 
" style="fill: none; stroke: #d62728; stroke-width: 1.5; stroke-linecap: round"/>
    </g>
    <g id="text_23">
     <!-- Decision Tree -->
     <g style="fill: #262626" transform="translate(869.63125 128.07) scale(0.1 -0.1)">
      <defs>
       <path id="ArialMT-63" d="M 2588 1216 
L 3141 1144 
Q 3050 572 2676 248 
Q 2303 -75 1759 -75 
Q 1078 -75 664 370 
Q 250 816 250 1647 
Q 250 2184 428 2587 
Q 606 2991 970 3192 
Q 1334 3394 1763 3394 
Q 2303 3394 2647 3120 
Q 2991 2847 3088 2344 
L 2541 2259 
Q 2463 2594 2264 2762 
Q 2066 2931 1784 2931 
Q 1359 2931 1093 2626 
Q 828 2322 828 1663 
Q 828 994 1084 691 
Q 1341 388 1753 388 
Q 2084 388 2306 591 
Q 2528 794 2588 1216 
z
" transform="scale(0.015625)"/>
      </defs>
      <use xlink:href="#ArialMT-44"/>
      <use xlink:href="#ArialMT-65" x="72.216797"/>
      <use xlink:href="#ArialMT-63" x="127.832031"/>
      <use xlink:href="#ArialMT-69" x="177.832031"/>
      <use xlink:href="#ArialMT-73" x="200.048828"/>
      <use xlink:href="#ArialMT-69" x="250.048828"/>
      <use xlink:href="#ArialMT-6f" x="272.265625"/>
      <use xlink:href="#ArialMT-6e" x="327.880859"/>
      <use xlink:href="#ArialMT-20" x="383.496094"/>
      <use xlink:href="#ArialMT-54" x="409.529297"/>
      <use xlink:href="#ArialMT-72" x="466.863281"/>
      <use xlink:href="#ArialMT-65" x="500.164062"/>
      <use xlink:href="#ArialMT-65" x="555.779297"/>
     </g>
    </g>
    <g id="line2d_49">
     <path d="M 841.63125 138.715313 
L 851.63125 138.715313 
L 861.63125 138.715313 
" style="fill: none; stroke: #9467bd; stroke-width: 1.5; stroke-linecap: round"/>
    </g>
    <g id="text_24">
     <!-- SVR -->
     <g style="fill: #262626" transform="translate(869.63125 142.215313) scale(0.1 -0.1)">
      <defs>
       <path id="ArialMT-53" d="M 288 1472 
L 859 1522 
Q 900 1178 1048 958 
Q 1197 738 1509 602 
Q 1822 466 2213 466 
Q 2559 466 2825 569 
Q 3091 672 3220 851 
Q 3350 1031 3350 1244 
Q 3350 1459 3225 1620 
Q 3100 1781 2813 1891 
Q 2628 1963 1997 2114 
Q 1366 2266 1113 2400 
Q 784 2572 623 2826 
Q 463 3081 463 3397 
Q 463 3744 659 4045 
Q 856 4347 1234 4503 
Q 1613 4659 2075 4659 
Q 2584 4659 2973 4495 
Q 3363 4331 3572 4012 
Q 3781 3694 3797 3291 
L 3216 3247 
Q 3169 3681 2898 3903 
Q 2628 4125 2100 4125 
Q 1550 4125 1298 3923 
Q 1047 3722 1047 3438 
Q 1047 3191 1225 3031 
Q 1400 2872 2139 2705 
Q 2878 2538 3153 2413 
Q 3553 2228 3743 1945 
Q 3934 1663 3934 1294 
Q 3934 928 3725 604 
Q 3516 281 3123 101 
Q 2731 -78 2241 -78 
Q 1619 -78 1198 103 
Q 778 284 539 648 
Q 300 1013 288 1472 
z
" transform="scale(0.015625)"/>
       <path id="ArialMT-56" d="M 1803 0 
L 28 4581 
L 684 4581 
L 1875 1253 
Q 2019 853 2116 503 
Q 2222 878 2363 1253 
L 3600 4581 
L 4219 4581 
L 2425 0 
L 1803 0 
z
" transform="scale(0.015625)"/>
      </defs>
      <use xlink:href="#ArialMT-53"/>
      <use xlink:href="#ArialMT-56" x="66.699219"/>
      <use xlink:href="#ArialMT-52" x="133.398438"/>
     </g>
    </g>
    <g id="line2d_50">
     <path d="M 841.63125 152.860625 
L 851.63125 152.860625 
L 861.63125 152.860625 
" style="fill: none; stroke: #8c564b; stroke-width: 1.5; stroke-linecap: round"/>
    </g>
    <g id="text_25">
     <!-- K-Nearest Neighbors -->
     <g style="fill: #262626" transform="translate(869.63125 156.360625) scale(0.1 -0.1)">
      <defs>
       <path id="ArialMT-4b" d="M 469 0 
L 469 4581 
L 1075 4581 
L 1075 2309 
L 3350 4581 
L 4172 4581 
L 2250 2725 
L 4256 0 
L 3456 0 
L 1825 2319 
L 1075 1588 
L 1075 0 
L 469 0 
z
" transform="scale(0.015625)"/>
       <path id="ArialMT-4e" d="M 488 0 
L 488 4581 
L 1109 4581 
L 3516 984 
L 3516 4581 
L 4097 4581 
L 4097 0 
L 3475 0 
L 1069 3600 
L 1069 0 
L 488 0 
z
" transform="scale(0.015625)"/>
       <path id="ArialMT-62" d="M 941 0 
L 419 0 
L 419 4581 
L 981 4581 
L 981 2947 
Q 1338 3394 1891 3394 
Q 2197 3394 2470 3270 
Q 2744 3147 2920 2923 
Q 3097 2700 3197 2384 
Q 3297 2069 3297 1709 
Q 3297 856 2875 390 
Q 2453 -75 1863 -75 
Q 1275 -75 941 416 
L 941 0 
z
M 934 1684 
Q 934 1088 1097 822 
Q 1363 388 1816 388 
Q 2184 388 2453 708 
Q 2722 1028 2722 1663 
Q 2722 2313 2464 2622 
Q 2206 2931 1841 2931 
Q 1472 2931 1203 2611 
Q 934 2291 934 1684 
z
" transform="scale(0.015625)"/>
      </defs>
      <use xlink:href="#ArialMT-4b"/>
      <use xlink:href="#ArialMT-2d" x="66.699219"/>
      <use xlink:href="#ArialMT-4e" x="100"/>
      <use xlink:href="#ArialMT-65" x="172.216797"/>
      <use xlink:href="#ArialMT-61" x="227.832031"/>
      <use xlink:href="#ArialMT-72" x="283.447266"/>
      <use xlink:href="#ArialMT-65" x="316.748047"/>
      <use xlink:href="#ArialMT-73" x="372.363281"/>
      <use xlink:href="#ArialMT-74" x="422.363281"/>
      <use xlink:href="#ArialMT-20" x="450.146484"/>
      <use xlink:href="#ArialMT-4e" x="477.929688"/>
      <use xlink:href="#ArialMT-65" x="550.146484"/>
      <use xlink:href="#ArialMT-69" x="605.761719"/>
      <use xlink:href="#ArialMT-67" x="627.978516"/>
      <use xlink:href="#ArialMT-68" x="683.59375"/>
      <use xlink:href="#ArialMT-62" x="739.208984"/>
      <use xlink:href="#ArialMT-6f" x="794.824219"/>
      <use xlink:href="#ArialMT-72" x="850.439453"/>
      <use xlink:href="#ArialMT-73" x="883.740234"/>
     </g>
    </g>
    <g id="line2d_51">
     <path d="M 841.63125 167.123125 
L 851.63125 167.123125 
L 861.63125 167.123125 
" style="fill: none; stroke: #e377c2; stroke-width: 1.5; stroke-linecap: round"/>
    </g>
    <g id="text_26">
     <!-- XGBoost -->
     <g style="fill: #262626" transform="translate(869.63125 170.623125) scale(0.1 -0.1)">
      <defs>
       <path id="ArialMT-58" d="M 28 0 
L 1800 2388 
L 238 4581 
L 959 4581 
L 1791 3406 
Q 2050 3041 2159 2844 
Q 2313 3094 2522 3366 
L 3444 4581 
L 4103 4581 
L 2494 2422 
L 4228 0 
L 3478 0 
L 2325 1634 
Q 2228 1775 2125 1941 
Q 1972 1691 1906 1597 
L 756 0 
L 28 0 
z
" transform="scale(0.015625)"/>
      </defs>
      <use xlink:href="#ArialMT-58"/>
      <use xlink:href="#ArialMT-47" x="66.699219"/>
      <use xlink:href="#ArialMT-42" x="144.482422"/>
      <use xlink:href="#ArialMT-6f" x="211.181641"/>
      <use xlink:href="#ArialMT-6f" x="266.796875"/>
      <use xlink:href="#ArialMT-73" x="322.412109"/>
      <use xlink:href="#ArialMT-74" x="372.412109"/>
     </g>
    </g>
    <g id="line2d_52">
     <path d="M 841.63125 181.268438 
L 851.63125 181.268438 
L 861.63125 181.268438 
" style="fill: none; stroke: #7f7f7f; stroke-width: 1.5; stroke-linecap: round"/>
    </g>
    <g id="text_27">
     <!-- Ridge Regression -->
     <g style="fill: #262626" transform="translate(869.63125 184.768438) scale(0.1 -0.1)">
      <use xlink:href="#ArialMT-52"/>
      <use xlink:href="#ArialMT-69" x="72.216797"/>
      <use xlink:href="#ArialMT-64" x="94.433594"/>
      <use xlink:href="#ArialMT-67" x="150.048828"/>
      <use xlink:href="#ArialMT-65" x="205.664062"/>
      <use xlink:href="#ArialMT-20" x="261.279297"/>
      <use xlink:href="#ArialMT-52" x="289.0625"/>
      <use xlink:href="#ArialMT-65" x="361.279297"/>
      <use xlink:href="#ArialMT-67" x="416.894531"/>
      <use xlink:href="#ArialMT-72" x="472.509766"/>
      <use xlink:href="#ArialMT-65" x="505.810547"/>
      <use xlink:href="#ArialMT-73" x="561.425781"/>
      <use xlink:href="#ArialMT-73" x="611.425781"/>
      <use xlink:href="#ArialMT-69" x="661.425781"/>
      <use xlink:href="#ArialMT-6f" x="683.642578"/>
      <use xlink:href="#ArialMT-6e" x="739.257812"/>
     </g>
    </g>
    <g id="line2d_53">
     <path d="M 841.63125 195.530938 
L 851.63125 195.530938 
L 861.63125 195.530938 
" style="fill: none; stroke: #bcbd22; stroke-width: 1.5; stroke-linecap: round"/>
    </g>
    <g id="text_28">
     <!-- ElasticNet -->
     <g style="fill: #262626" transform="translate(869.63125 199.030938) scale(0.1 -0.1)">
      <defs>
       <path id="ArialMT-45" d="M 506 0 
L 506 4581 
L 3819 4581 
L 3819 4041 
L 1113 4041 
L 1113 2638 
L 3647 2638 
L 3647 2100 
L 1113 2100 
L 1113 541 
L 3925 541 
L 3925 0 
L 506 0 
z
" transform="scale(0.015625)"/>
      </defs>
      <use xlink:href="#ArialMT-45"/>
      <use xlink:href="#ArialMT-6c" x="66.699219"/>
      <use xlink:href="#ArialMT-61" x="88.916016"/>
      <use xlink:href="#ArialMT-73" x="144.53125"/>
      <use xlink:href="#ArialMT-74" x="194.53125"/>
      <use xlink:href="#ArialMT-69" x="222.314453"/>
      <use xlink:href="#ArialMT-63" x="244.53125"/>
      <use xlink:href="#ArialMT-4e" x="294.53125"/>
      <use xlink:href="#ArialMT-65" x="366.748047"/>
      <use xlink:href="#ArialMT-74" x="422.363281"/>
     </g>
    </g>
    <g id="line2d_54">
     <path d="M 841.63125 209.67625 
L 851.63125 209.67625 
L 861.63125 209.67625 
" style="fill: none; stroke: #17becf; stroke-width: 1.5; stroke-linecap: round"/>
    </g>
    <g id="text_29">
     <!-- LSTM -->
     <g style="fill: #262626" transform="translate(869.63125 213.17625) scale(0.1 -0.1)">
      <defs>
       <path id="ArialMT-4d" d="M 475 0 
L 475 4581 
L 1388 4581 
L 2472 1338 
Q 2622 884 2691 659 
Q 2769 909 2934 1394 
L 4031 4581 
L 4847 4581 
L 4847 0 
L 4263 0 
L 4263 3834 
L 2931 0 
L 2384 0 
L 1059 3900 
L 1059 0 
L 475 0 
z
" transform="scale(0.015625)"/>
      </defs>
      <use xlink:href="#ArialMT-4c"/>
      <use xlink:href="#ArialMT-53" x="55.615234"/>
      <use xlink:href="#ArialMT-54" x="122.314453"/>
      <use xlink:href="#ArialMT-4d" x="183.398438"/>
     </g>
    </g>
    <g id="line2d_55">
     <path d="M 841.63125 223.821563 
L 851.63125 223.821563 
L 861.63125 223.821563 
" style="fill: none; stroke: #1f77b4; stroke-width: 1.5; stroke-linecap: round"/>
    </g>
    <g id="text_30">
     <!-- RNN -->
     <g style="fill: #262626" transform="translate(869.63125 227.321563) scale(0.1 -0.1)">
      <use xlink:href="#ArialMT-52"/>
      <use xlink:href="#ArialMT-4e" x="72.216797"/>
      <use xlink:href="#ArialMT-4e" x="144.433594"/>
     </g>
    </g>
    <g id="line2d_56">
     <path d="M 841.63125 238.08875 
L 851.63125 238.08875 
L 861.63125 238.08875 
" style="fill: none; stroke: #000000; stroke-width: 2; stroke-linecap: round"/>
    </g>
    <g id="text_31">
     <!-- Gerçek Değerler -->
     <g style="fill: #262626" transform="translate(869.63125 241.58875) scale(0.1 -0.1)">
      <use xlink:href="#ArialMT-47"/>
      <use xlink:href="#ArialMT-65" x="77.783203"/>
      <use xlink:href="#ArialMT-72" x="133.398438"/>
      <use xlink:href="#ArialMT-e7" x="166.699219"/>
      <use xlink:href="#ArialMT-65" x="216.699219"/>
      <use xlink:href="#ArialMT-6b" x="272.314453"/>
      <use xlink:href="#ArialMT-20" x="322.314453"/>
      <use xlink:href="#ArialMT-44" x="350.097656"/>
      <use xlink:href="#ArialMT-65" x="422.314453"/>
      <use xlink:href="#ArialMT-11f" x="477.929688"/>
      <use xlink:href="#ArialMT-65" x="533.544922"/>
      <use xlink:href="#ArialMT-72" x="589.160156"/>
      <use xlink:href="#ArialMT-6c" x="622.460938"/>
      <use xlink:href="#ArialMT-65" x="644.677734"/>
      <use xlink:href="#ArialMT-72" x="700.292969"/>
     </g>
    </g>
   </g>
  </g>
 </g>
 <defs>
  <clipPath id="p51a6e5fde1">
   <rect x="135" y="69.12" width="837" height="443.52"/>
  </clipPath>
 </defs>
</svg>
