<?xml version="1.0" encoding="utf-8" standalone="no"?>
<!DOCTYPE svg PUBLIC "-//W3C//DTD SVG 1.1//EN"
  "http://www.w3.org/Graphics/SVG/1.1/DTD/svg11.dtd">
<svg xmlns:xlink="http://www.w3.org/1999/xlink" width="1080pt" height="576pt" viewBox="0 0 1080 576" xmlns="http://www.w3.org/2000/svg" version="1.1">
 <metadata>
  <rdf:RDF xmlns:dc="http://purl.org/dc/elements/1.1/" xmlns:cc="http://creativecommons.org/ns#" xmlns:rdf="http://www.w3.org/1999/02/22-rdf-syntax-ns#">
   <cc:Work>
    <dc:type rdf:resource="http://purl.org/dc/dcmitype/StillImage"/>
    <dc:date>2023-05-23T13:39:59.223907</dc:date>
    <dc:format>image/svg+xml</dc:format>
    <dc:creator>
     <cc:Agent>
      <dc:title>Matplotlib v3.7.1, https://matplotlib.org/</dc:title>
     </cc:Agent>
    </dc:creator>
   </cc:Work>
  </rdf:RDF>
 </metadata>
 <defs>
  <style type="text/css">*{stroke-linejoin: round; stroke-linecap: butt}</style>
 </defs>
 <g id="figure_1">
  <g id="patch_1">
   <path d="M 0 576 
L 1080 576 
L 1080 0 
L 0 0 
z
" style="fill: #ffffff"/>
  </g>
  <g id="axes_1">
   <g id="patch_2">
    <path d="M 135 512.64 
L 972 512.64 
L 972 69.12 
L 135 69.12 
z
" style="fill: #ffffff"/>
   </g>
   <g id="matplotlib.axis_1">
    <g id="xtick_1">
     <g id="line2d_1">
      <path d="M 159.457792 512.64 
L 159.457792 69.12 
" clip-path="url(#p4d8ecdfc04)" style="fill: none; stroke: #cccccc; stroke-width: 0.8; stroke-linecap: round"/>
     </g>
     <g id="line2d_2"/>
     <g id="text_1">
      <!-- 2023-01-01 -->
      <g style="fill: #262626" transform="translate(133.884355 523.297812) scale(0.1 -0.1)">
       <defs>
        <path id="ArialMT-32" d="M 3222 541 
L 3222 0 
L 194 0 
Q 188 203 259 391 
Q 375 700 629 1000 
Q 884 1300 1366 1694 
Q 2113 2306 2375 2664 
Q 2638 3022 2638 3341 
Q 2638 3675 2398 3904 
Q 2159 4134 1775 4134 
Q 1369 4134 1125 3890 
Q 881 3647 878 3216 
L 300 3275 
Q 359 3922 746 4261 
Q 1134 4600 1788 4600 
Q 2447 4600 2831 4234 
Q 3216 3869 3216 3328 
Q 3216 3053 3103 2787 
Q 2991 2522 2730 2228 
Q 2469 1934 1863 1422 
Q 1356 997 1212 845 
Q 1069 694 975 541 
L 3222 541 
z
" transform="scale(0.015625)"/>
        <path id="ArialMT-30" d="M 266 2259 
Q 266 3072 433 3567 
Q 600 4063 929 4331 
Q 1259 4600 1759 4600 
Q 2128 4600 2406 4451 
Q 2684 4303 2865 4023 
Q 3047 3744 3150 3342 
Q 3253 2941 3253 2259 
Q 3253 1453 3087 958 
Q 2922 463 2592 192 
Q 2263 -78 1759 -78 
Q 1097 -78 719 397 
Q 266 969 266 2259 
z
M 844 2259 
Q 844 1131 1108 757 
Q 1372 384 1759 384 
Q 2147 384 2411 759 
Q 2675 1134 2675 2259 
Q 2675 3391 2411 3762 
Q 2147 4134 1753 4134 
Q 1366 4134 1134 3806 
Q 844 3388 844 2259 
z
" transform="scale(0.015625)"/>
        <path id="ArialMT-33" d="M 269 1209 
L 831 1284 
Q 928 806 1161 595 
Q 1394 384 1728 384 
Q 2125 384 2398 659 
Q 2672 934 2672 1341 
Q 2672 1728 2419 1979 
Q 2166 2231 1775 2231 
Q 1616 2231 1378 2169 
L 1441 2663 
Q 1497 2656 1531 2656 
Q 1891 2656 2178 2843 
Q 2466 3031 2466 3422 
Q 2466 3731 2256 3934 
Q 2047 4138 1716 4138 
Q 1388 4138 1169 3931 
Q 950 3725 888 3313 
L 325 3413 
Q 428 3978 793 4289 
Q 1159 4600 1703 4600 
Q 2078 4600 2393 4439 
Q 2709 4278 2876 4000 
Q 3044 3722 3044 3409 
Q 3044 3113 2884 2869 
Q 2725 2625 2413 2481 
Q 2819 2388 3044 2092 
Q 3269 1797 3269 1353 
Q 3269 753 2831 336 
Q 2394 -81 1725 -81 
Q 1122 -81 723 278 
Q 325 638 269 1209 
z
" transform="scale(0.015625)"/>
        <path id="ArialMT-2d" d="M 203 1375 
L 203 1941 
L 1931 1941 
L 1931 1375 
L 203 1375 
z
" transform="scale(0.015625)"/>
        <path id="ArialMT-31" d="M 2384 0 
L 1822 0 
L 1822 3584 
Q 1619 3391 1289 3197 
Q 959 3003 697 2906 
L 697 3450 
Q 1169 3672 1522 3987 
Q 1875 4303 2022 4600 
L 2384 4600 
L 2384 0 
z
" transform="scale(0.015625)"/>
       </defs>
       <use xlink:href="#ArialMT-32"/>
       <use xlink:href="#ArialMT-30" x="55.615234"/>
       <use xlink:href="#ArialMT-32" x="111.230469"/>
       <use xlink:href="#ArialMT-33" x="166.845703"/>
       <use xlink:href="#ArialMT-2d" x="222.460938"/>
       <use xlink:href="#ArialMT-30" x="255.761719"/>
       <use xlink:href="#ArialMT-31" x="311.376953"/>
       <use xlink:href="#ArialMT-2d" x="366.992188"/>
       <use xlink:href="#ArialMT-30" x="400.292969"/>
       <use xlink:href="#ArialMT-31" x="455.908203"/>
      </g>
     </g>
    </g>
    <g id="xtick_2">
     <g id="line2d_3">
      <path d="M 254.571429 512.64 
L 254.571429 69.12 
" clip-path="url(#p4d8ecdfc04)" style="fill: none; stroke: #cccccc; stroke-width: 0.8; stroke-linecap: round"/>
     </g>
     <g id="line2d_4"/>
     <g id="text_2">
      <!-- 2023-01-15 -->
      <g style="fill: #262626" transform="translate(228.997991 523.297812) scale(0.1 -0.1)">
       <defs>
        <path id="ArialMT-35" d="M 266 1200 
L 856 1250 
Q 922 819 1161 601 
Q 1400 384 1738 384 
Q 2144 384 2425 690 
Q 2706 997 2706 1503 
Q 2706 1984 2436 2262 
Q 2166 2541 1728 2541 
Q 1456 2541 1237 2417 
Q 1019 2294 894 2097 
L 366 2166 
L 809 4519 
L 3088 4519 
L 3088 3981 
L 1259 3981 
L 1013 2750 
Q 1425 3038 1878 3038 
Q 2478 3038 2890 2622 
Q 3303 2206 3303 1553 
Q 3303 931 2941 478 
Q 2500 -78 1738 -78 
Q 1113 -78 717 272 
Q 322 622 266 1200 
z
" transform="scale(0.015625)"/>
       </defs>
       <use xlink:href="#ArialMT-32"/>
       <use xlink:href="#ArialMT-30" x="55.615234"/>
       <use xlink:href="#ArialMT-32" x="111.230469"/>
       <use xlink:href="#ArialMT-33" x="166.845703"/>
       <use xlink:href="#ArialMT-2d" x="222.460938"/>
       <use xlink:href="#ArialMT-30" x="255.761719"/>
       <use xlink:href="#ArialMT-31" x="311.376953"/>
       <use xlink:href="#ArialMT-2d" x="366.992188"/>
       <use xlink:href="#ArialMT-31" x="400.292969"/>
       <use xlink:href="#ArialMT-35" x="455.908203"/>
      </g>
     </g>
    </g>
    <g id="xtick_3">
     <g id="line2d_5">
      <path d="M 370.066558 512.64 
L 370.066558 69.12 
" clip-path="url(#p4d8ecdfc04)" style="fill: none; stroke: #cccccc; stroke-width: 0.8; stroke-linecap: round"/>
     </g>
     <g id="line2d_6"/>
     <g id="text_3">
      <!-- 2023-02-01 -->
      <g style="fill: #262626" transform="translate(344.493121 523.297812) scale(0.1 -0.1)">
       <use xlink:href="#ArialMT-32"/>
       <use xlink:href="#ArialMT-30" x="55.615234"/>
       <use xlink:href="#ArialMT-32" x="111.230469"/>
       <use xlink:href="#ArialMT-33" x="166.845703"/>
       <use xlink:href="#ArialMT-2d" x="222.460938"/>
       <use xlink:href="#ArialMT-30" x="255.761719"/>
       <use xlink:href="#ArialMT-32" x="311.376953"/>
       <use xlink:href="#ArialMT-2d" x="366.992188"/>
       <use xlink:href="#ArialMT-30" x="400.292969"/>
       <use xlink:href="#ArialMT-31" x="455.908203"/>
      </g>
     </g>
    </g>
    <g id="xtick_4">
     <g id="line2d_7">
      <path d="M 465.180195 512.64 
L 465.180195 69.12 
" clip-path="url(#p4d8ecdfc04)" style="fill: none; stroke: #cccccc; stroke-width: 0.8; stroke-linecap: round"/>
     </g>
     <g id="line2d_8"/>
     <g id="text_4">
      <!-- 2023-02-15 -->
      <g style="fill: #262626" transform="translate(439.606757 523.297812) scale(0.1 -0.1)">
       <use xlink:href="#ArialMT-32"/>
       <use xlink:href="#ArialMT-30" x="55.615234"/>
       <use xlink:href="#ArialMT-32" x="111.230469"/>
       <use xlink:href="#ArialMT-33" x="166.845703"/>
       <use xlink:href="#ArialMT-2d" x="222.460938"/>
       <use xlink:href="#ArialMT-30" x="255.761719"/>
       <use xlink:href="#ArialMT-32" x="311.376953"/>
       <use xlink:href="#ArialMT-2d" x="366.992188"/>
       <use xlink:href="#ArialMT-31" x="400.292969"/>
       <use xlink:href="#ArialMT-35" x="455.908203"/>
      </g>
     </g>
    </g>
    <g id="xtick_5">
     <g id="line2d_9">
      <path d="M 560.293831 512.64 
L 560.293831 69.12 
" clip-path="url(#p4d8ecdfc04)" style="fill: none; stroke: #cccccc; stroke-width: 0.8; stroke-linecap: round"/>
     </g>
     <g id="line2d_10"/>
     <g id="text_5">
      <!-- 2023-03-01 -->
      <g style="fill: #262626" transform="translate(534.720394 523.297812) scale(0.1 -0.1)">
       <use xlink:href="#ArialMT-32"/>
       <use xlink:href="#ArialMT-30" x="55.615234"/>
       <use xlink:href="#ArialMT-32" x="111.230469"/>
       <use xlink:href="#ArialMT-33" x="166.845703"/>
       <use xlink:href="#ArialMT-2d" x="222.460938"/>
       <use xlink:href="#ArialMT-30" x="255.761719"/>
       <use xlink:href="#ArialMT-33" x="311.376953"/>
       <use xlink:href="#ArialMT-2d" x="366.992188"/>
       <use xlink:href="#ArialMT-30" x="400.292969"/>
       <use xlink:href="#ArialMT-31" x="455.908203"/>
      </g>
     </g>
    </g>
    <g id="xtick_6">
     <g id="line2d_11">
      <path d="M 655.407468 512.64 
L 655.407468 69.12 
" clip-path="url(#p4d8ecdfc04)" style="fill: none; stroke: #cccccc; stroke-width: 0.8; stroke-linecap: round"/>
     </g>
     <g id="line2d_12"/>
     <g id="text_6">
      <!-- 2023-03-15 -->
      <g style="fill: #262626" transform="translate(629.83403 523.297812) scale(0.1 -0.1)">
       <use xlink:href="#ArialMT-32"/>
       <use xlink:href="#ArialMT-30" x="55.615234"/>
       <use xlink:href="#ArialMT-32" x="111.230469"/>
       <use xlink:href="#ArialMT-33" x="166.845703"/>
       <use xlink:href="#ArialMT-2d" x="222.460938"/>
       <use xlink:href="#ArialMT-30" x="255.761719"/>
       <use xlink:href="#ArialMT-33" x="311.376953"/>
       <use xlink:href="#ArialMT-2d" x="366.992188"/>
       <use xlink:href="#ArialMT-31" x="400.292969"/>
       <use xlink:href="#ArialMT-35" x="455.908203"/>
      </g>
     </g>
    </g>
    <g id="xtick_7">
     <g id="line2d_13">
      <path d="M 770.902597 512.64 
L 770.902597 69.12 
" clip-path="url(#p4d8ecdfc04)" style="fill: none; stroke: #cccccc; stroke-width: 0.8; stroke-linecap: round"/>
     </g>
     <g id="line2d_14"/>
     <g id="text_7">
      <!-- 2023-04-01 -->
      <g style="fill: #262626" transform="translate(745.32916 523.297812) scale(0.1 -0.1)">
       <defs>
        <path id="ArialMT-34" d="M 2069 0 
L 2069 1097 
L 81 1097 
L 81 1613 
L 2172 4581 
L 2631 4581 
L 2631 1613 
L 3250 1613 
L 3250 1097 
L 2631 1097 
L 2631 0 
L 2069 0 
z
M 2069 1613 
L 2069 3678 
L 634 1613 
L 2069 1613 
z
" transform="scale(0.015625)"/>
       </defs>
       <use xlink:href="#ArialMT-32"/>
       <use xlink:href="#ArialMT-30" x="55.615234"/>
       <use xlink:href="#ArialMT-32" x="111.230469"/>
       <use xlink:href="#ArialMT-33" x="166.845703"/>
       <use xlink:href="#ArialMT-2d" x="222.460938"/>
       <use xlink:href="#ArialMT-30" x="255.761719"/>
       <use xlink:href="#ArialMT-34" x="311.376953"/>
       <use xlink:href="#ArialMT-2d" x="366.992188"/>
       <use xlink:href="#ArialMT-30" x="400.292969"/>
       <use xlink:href="#ArialMT-31" x="455.908203"/>
      </g>
     </g>
    </g>
    <g id="xtick_8">
     <g id="line2d_15">
      <path d="M 866.016234 512.64 
L 866.016234 69.12 
" clip-path="url(#p4d8ecdfc04)" style="fill: none; stroke: #cccccc; stroke-width: 0.8; stroke-linecap: round"/>
     </g>
     <g id="line2d_16"/>
     <g id="text_8">
      <!-- 2023-04-15 -->
      <g style="fill: #262626" transform="translate(840.442796 523.297812) scale(0.1 -0.1)">
       <use xlink:href="#ArialMT-32"/>
       <use xlink:href="#ArialMT-30" x="55.615234"/>
       <use xlink:href="#ArialMT-32" x="111.230469"/>
       <use xlink:href="#ArialMT-33" x="166.845703"/>
       <use xlink:href="#ArialMT-2d" x="222.460938"/>
       <use xlink:href="#ArialMT-30" x="255.761719"/>
       <use xlink:href="#ArialMT-34" x="311.376953"/>
       <use xlink:href="#ArialMT-2d" x="366.992188"/>
       <use xlink:href="#ArialMT-31" x="400.292969"/>
       <use xlink:href="#ArialMT-35" x="455.908203"/>
      </g>
     </g>
    </g>
    <g id="text_9">
     <!-- Date -->
     <g style="fill: #262626" transform="translate(542.939062 536.443125) scale(0.1 -0.1)">
      <defs>
       <path id="ArialMT-44" d="M 494 0 
L 494 4581 
L 2072 4581 
Q 2606 4581 2888 4516 
Q 3281 4425 3559 4188 
Q 3922 3881 4101 3404 
Q 4281 2928 4281 2316 
Q 4281 1794 4159 1391 
Q 4038 988 3847 723 
Q 3656 459 3429 307 
Q 3203 156 2883 78 
Q 2563 0 2147 0 
L 494 0 
z
M 1100 541 
L 2078 541 
Q 2531 541 2789 625 
Q 3047 709 3200 863 
Q 3416 1078 3536 1442 
Q 3656 1806 3656 2325 
Q 3656 3044 3420 3430 
Q 3184 3816 2847 3947 
Q 2603 4041 2063 4041 
L 1100 4041 
L 1100 541 
z
" transform="scale(0.015625)"/>
       <path id="ArialMT-61" d="M 2588 409 
Q 2275 144 1986 34 
Q 1697 -75 1366 -75 
Q 819 -75 525 192 
Q 231 459 231 875 
Q 231 1119 342 1320 
Q 453 1522 633 1644 
Q 813 1766 1038 1828 
Q 1203 1872 1538 1913 
Q 2219 1994 2541 2106 
Q 2544 2222 2544 2253 
Q 2544 2597 2384 2738 
Q 2169 2928 1744 2928 
Q 1347 2928 1158 2789 
Q 969 2650 878 2297 
L 328 2372 
Q 403 2725 575 2942 
Q 747 3159 1072 3276 
Q 1397 3394 1825 3394 
Q 2250 3394 2515 3294 
Q 2781 3194 2906 3042 
Q 3031 2891 3081 2659 
Q 3109 2516 3109 2141 
L 3109 1391 
Q 3109 606 3145 398 
Q 3181 191 3288 0 
L 2700 0 
Q 2613 175 2588 409 
z
M 2541 1666 
Q 2234 1541 1622 1453 
Q 1275 1403 1131 1340 
Q 988 1278 909 1158 
Q 831 1038 831 891 
Q 831 666 1001 516 
Q 1172 366 1500 366 
Q 1825 366 2078 508 
Q 2331 650 2450 897 
Q 2541 1088 2541 1459 
L 2541 1666 
z
" transform="scale(0.015625)"/>
       <path id="ArialMT-74" d="M 1650 503 
L 1731 6 
Q 1494 -44 1306 -44 
Q 1000 -44 831 53 
Q 663 150 594 308 
Q 525 466 525 972 
L 525 2881 
L 113 2881 
L 113 3319 
L 525 3319 
L 525 4141 
L 1084 4478 
L 1084 3319 
L 1650 3319 
L 1650 2881 
L 1084 2881 
L 1084 941 
Q 1084 700 1114 631 
Q 1144 563 1211 522 
Q 1278 481 1403 481 
Q 1497 481 1650 503 
z
" transform="scale(0.015625)"/>
       <path id="ArialMT-65" d="M 2694 1069 
L 3275 997 
Q 3138 488 2766 206 
Q 2394 -75 1816 -75 
Q 1088 -75 661 373 
Q 234 822 234 1631 
Q 234 2469 665 2931 
Q 1097 3394 1784 3394 
Q 2450 3394 2872 2941 
Q 3294 2488 3294 1666 
Q 3294 1616 3291 1516 
L 816 1516 
Q 847 969 1125 678 
Q 1403 388 1819 388 
Q 2128 388 2347 550 
Q 2566 713 2694 1069 
z
M 847 1978 
L 2700 1978 
Q 2663 2397 2488 2606 
Q 2219 2931 1791 2931 
Q 1403 2931 1139 2672 
Q 875 2413 847 1978 
z
" transform="scale(0.015625)"/>
      </defs>
      <use xlink:href="#ArialMT-44"/>
      <use xlink:href="#ArialMT-61" x="72.216797"/>
      <use xlink:href="#ArialMT-74" x="127.832031"/>
      <use xlink:href="#ArialMT-65" x="155.615234"/>
     </g>
    </g>
   </g>
   <g id="matplotlib.axis_2">
    <g id="ytick_1">
     <g id="line2d_17">
      <path d="M 135 468.450207 
L 972 468.450207 
" clip-path="url(#p4d8ecdfc04)" style="fill: none; stroke: #cccccc; stroke-width: 0.8; stroke-linecap: round"/>
     </g>
     <g id="line2d_18"/>
     <g id="text_10">
      <!-- 20 -->
      <g style="fill: #262626" transform="translate(120.378125 472.029113) scale(0.1 -0.1)">
       <use xlink:href="#ArialMT-32"/>
       <use xlink:href="#ArialMT-30" x="55.615234"/>
      </g>
     </g>
    </g>
    <g id="ytick_2">
     <g id="line2d_19">
      <path d="M 135 400.88601 
L 972 400.88601 
" clip-path="url(#p4d8ecdfc04)" style="fill: none; stroke: #cccccc; stroke-width: 0.8; stroke-linecap: round"/>
     </g>
     <g id="line2d_20"/>
     <g id="text_11">
      <!-- 40 -->
      <g style="fill: #262626" transform="translate(120.378125 404.464916) scale(0.1 -0.1)">
       <use xlink:href="#ArialMT-34"/>
       <use xlink:href="#ArialMT-30" x="55.615234"/>
      </g>
     </g>
    </g>
    <g id="ytick_3">
     <g id="line2d_21">
      <path d="M 135 333.321812 
L 972 333.321812 
" clip-path="url(#p4d8ecdfc04)" style="fill: none; stroke: #cccccc; stroke-width: 0.8; stroke-linecap: round"/>
     </g>
     <g id="line2d_22"/>
     <g id="text_12">
      <!-- 60 -->
      <g style="fill: #262626" transform="translate(120.378125 336.900718) scale(0.1 -0.1)">
       <defs>
        <path id="ArialMT-36" d="M 3184 3459 
L 2625 3416 
Q 2550 3747 2413 3897 
Q 2184 4138 1850 4138 
Q 1581 4138 1378 3988 
Q 1113 3794 959 3422 
Q 806 3050 800 2363 
Q 1003 2672 1297 2822 
Q 1591 2972 1913 2972 
Q 2475 2972 2870 2558 
Q 3266 2144 3266 1488 
Q 3266 1056 3080 686 
Q 2894 316 2569 119 
Q 2244 -78 1831 -78 
Q 1128 -78 684 439 
Q 241 956 241 2144 
Q 241 3472 731 4075 
Q 1159 4600 1884 4600 
Q 2425 4600 2770 4297 
Q 3116 3994 3184 3459 
z
M 888 1484 
Q 888 1194 1011 928 
Q 1134 663 1356 523 
Q 1578 384 1822 384 
Q 2178 384 2434 671 
Q 2691 959 2691 1453 
Q 2691 1928 2437 2201 
Q 2184 2475 1800 2475 
Q 1419 2475 1153 2201 
Q 888 1928 888 1484 
z
" transform="scale(0.015625)"/>
       </defs>
       <use xlink:href="#ArialMT-36"/>
       <use xlink:href="#ArialMT-30" x="55.615234"/>
      </g>
     </g>
    </g>
    <g id="ytick_4">
     <g id="line2d_23">
      <path d="M 135 265.757615 
L 972 265.757615 
" clip-path="url(#p4d8ecdfc04)" style="fill: none; stroke: #cccccc; stroke-width: 0.8; stroke-linecap: round"/>
     </g>
     <g id="line2d_24"/>
     <g id="text_13">
      <!-- 80 -->
      <g style="fill: #262626" transform="translate(120.378125 269.336521) scale(0.1 -0.1)">
       <defs>
        <path id="ArialMT-38" d="M 1131 2484 
Q 781 2613 612 2850 
Q 444 3088 444 3419 
Q 444 3919 803 4259 
Q 1163 4600 1759 4600 
Q 2359 4600 2725 4251 
Q 3091 3903 3091 3403 
Q 3091 3084 2923 2848 
Q 2756 2613 2416 2484 
Q 2838 2347 3058 2040 
Q 3278 1734 3278 1309 
Q 3278 722 2862 322 
Q 2447 -78 1769 -78 
Q 1091 -78 675 323 
Q 259 725 259 1325 
Q 259 1772 486 2073 
Q 713 2375 1131 2484 
z
M 1019 3438 
Q 1019 3113 1228 2906 
Q 1438 2700 1772 2700 
Q 2097 2700 2305 2904 
Q 2513 3109 2513 3406 
Q 2513 3716 2298 3927 
Q 2084 4138 1766 4138 
Q 1444 4138 1231 3931 
Q 1019 3725 1019 3438 
z
M 838 1322 
Q 838 1081 952 856 
Q 1066 631 1291 507 
Q 1516 384 1775 384 
Q 2178 384 2440 643 
Q 2703 903 2703 1303 
Q 2703 1709 2433 1975 
Q 2163 2241 1756 2241 
Q 1359 2241 1098 1978 
Q 838 1716 838 1322 
z
" transform="scale(0.015625)"/>
       </defs>
       <use xlink:href="#ArialMT-38"/>
       <use xlink:href="#ArialMT-30" x="55.615234"/>
      </g>
     </g>
    </g>
    <g id="ytick_5">
     <g id="line2d_25">
      <path d="M 135 198.193417 
L 972 198.193417 
" clip-path="url(#p4d8ecdfc04)" style="fill: none; stroke: #cccccc; stroke-width: 0.8; stroke-linecap: round"/>
     </g>
     <g id="line2d_26"/>
     <g id="text_14">
      <!-- 100 -->
      <g style="fill: #262626" transform="translate(114.817188 201.772324) scale(0.1 -0.1)">
       <use xlink:href="#ArialMT-31"/>
       <use xlink:href="#ArialMT-30" x="55.615234"/>
       <use xlink:href="#ArialMT-30" x="111.230469"/>
      </g>
     </g>
    </g>
    <g id="ytick_6">
     <g id="line2d_27">
      <path d="M 135 130.62922 
L 972 130.62922 
" clip-path="url(#p4d8ecdfc04)" style="fill: none; stroke: #cccccc; stroke-width: 0.8; stroke-linecap: round"/>
     </g>
     <g id="line2d_28"/>
     <g id="text_15">
      <!-- 120 -->
      <g style="fill: #262626" transform="translate(114.817188 134.208126) scale(0.1 -0.1)">
       <use xlink:href="#ArialMT-31"/>
       <use xlink:href="#ArialMT-32" x="55.615234"/>
       <use xlink:href="#ArialMT-30" x="111.230469"/>
      </g>
     </g>
    </g>
    <g id="text_16">
     <!-- Adj Close -->
     <g style="fill: #262626" transform="translate(108.7125 312.278437) rotate(-90) scale(0.1 -0.1)">
      <defs>
       <path id="ArialMT-41" d="M -9 0 
L 1750 4581 
L 2403 4581 
L 4278 0 
L 3588 0 
L 3053 1388 
L 1138 1388 
L 634 0 
L -9 0 
z
M 1313 1881 
L 2866 1881 
L 2388 3150 
Q 2169 3728 2063 4100 
Q 1975 3659 1816 3225 
L 1313 1881 
z
" transform="scale(0.015625)"/>
       <path id="ArialMT-64" d="M 2575 0 
L 2575 419 
Q 2259 -75 1647 -75 
Q 1250 -75 917 144 
Q 584 363 401 755 
Q 219 1147 219 1656 
Q 219 2153 384 2558 
Q 550 2963 881 3178 
Q 1213 3394 1622 3394 
Q 1922 3394 2156 3267 
Q 2391 3141 2538 2938 
L 2538 4581 
L 3097 4581 
L 3097 0 
L 2575 0 
z
M 797 1656 
Q 797 1019 1065 703 
Q 1334 388 1700 388 
Q 2069 388 2326 689 
Q 2584 991 2584 1609 
Q 2584 2291 2321 2609 
Q 2059 2928 1675 2928 
Q 1300 2928 1048 2622 
Q 797 2316 797 1656 
z
" transform="scale(0.015625)"/>
       <path id="ArialMT-6a" d="M 419 3928 
L 419 4581 
L 981 4581 
L 981 3928 
L 419 3928 
z
M -294 -1288 
L -188 -809 
Q -19 -853 78 -853 
Q 250 -853 334 -739 
Q 419 -625 419 -169 
L 419 3319 
L 981 3319 
L 981 -181 
Q 981 -794 822 -1034 
Q 619 -1347 147 -1347 
Q -81 -1347 -294 -1288 
z
" transform="scale(0.015625)"/>
       <path id="ArialMT-20" transform="scale(0.015625)"/>
       <path id="ArialMT-43" d="M 3763 1606 
L 4369 1453 
Q 4178 706 3683 314 
Q 3188 -78 2472 -78 
Q 1731 -78 1267 223 
Q 803 525 561 1097 
Q 319 1669 319 2325 
Q 319 3041 592 3573 
Q 866 4106 1370 4382 
Q 1875 4659 2481 4659 
Q 3169 4659 3637 4309 
Q 4106 3959 4291 3325 
L 3694 3184 
Q 3534 3684 3231 3912 
Q 2928 4141 2469 4141 
Q 1941 4141 1586 3887 
Q 1231 3634 1087 3207 
Q 944 2781 944 2328 
Q 944 1744 1114 1308 
Q 1284 872 1643 656 
Q 2003 441 2422 441 
Q 2931 441 3284 734 
Q 3638 1028 3763 1606 
z
" transform="scale(0.015625)"/>
       <path id="ArialMT-6c" d="M 409 0 
L 409 4581 
L 972 4581 
L 972 0 
L 409 0 
z
" transform="scale(0.015625)"/>
       <path id="ArialMT-6f" d="M 213 1659 
Q 213 2581 725 3025 
Q 1153 3394 1769 3394 
Q 2453 3394 2887 2945 
Q 3322 2497 3322 1706 
Q 3322 1066 3130 698 
Q 2938 331 2570 128 
Q 2203 -75 1769 -75 
Q 1072 -75 642 372 
Q 213 819 213 1659 
z
M 791 1659 
Q 791 1022 1069 705 
Q 1347 388 1769 388 
Q 2188 388 2466 706 
Q 2744 1025 2744 1678 
Q 2744 2294 2464 2611 
Q 2184 2928 1769 2928 
Q 1347 2928 1069 2612 
Q 791 2297 791 1659 
z
" transform="scale(0.015625)"/>
       <path id="ArialMT-73" d="M 197 991 
L 753 1078 
Q 800 744 1014 566 
Q 1228 388 1613 388 
Q 2000 388 2187 545 
Q 2375 703 2375 916 
Q 2375 1106 2209 1216 
Q 2094 1291 1634 1406 
Q 1016 1563 777 1677 
Q 538 1791 414 1992 
Q 291 2194 291 2438 
Q 291 2659 392 2848 
Q 494 3038 669 3163 
Q 800 3259 1026 3326 
Q 1253 3394 1513 3394 
Q 1903 3394 2198 3281 
Q 2494 3169 2634 2976 
Q 2775 2784 2828 2463 
L 2278 2388 
Q 2241 2644 2061 2787 
Q 1881 2931 1553 2931 
Q 1166 2931 1000 2803 
Q 834 2675 834 2503 
Q 834 2394 903 2306 
Q 972 2216 1119 2156 
Q 1203 2125 1616 2013 
Q 2213 1853 2448 1751 
Q 2684 1650 2818 1456 
Q 2953 1263 2953 975 
Q 2953 694 2789 445 
Q 2625 197 2315 61 
Q 2006 -75 1616 -75 
Q 969 -75 630 194 
Q 291 463 197 991 
z
" transform="scale(0.015625)"/>
      </defs>
      <use xlink:href="#ArialMT-41"/>
      <use xlink:href="#ArialMT-64" x="66.699219"/>
      <use xlink:href="#ArialMT-6a" x="122.314453"/>
      <use xlink:href="#ArialMT-20" x="144.53125"/>
      <use xlink:href="#ArialMT-43" x="172.314453"/>
      <use xlink:href="#ArialMT-6c" x="244.53125"/>
      <use xlink:href="#ArialMT-6f" x="266.748047"/>
      <use xlink:href="#ArialMT-73" x="322.363281"/>
      <use xlink:href="#ArialMT-65" x="372.363281"/>
     </g>
    </g>
   </g>
   <g id="line2d_29">
    <path d="M 173.045455 236.466508 
L 179.839286 236.713455 
L 186.633117 233.188632 
L 193.426948 233.227482 
L 213.808442 232.566704 
L 220.602273 232.964995 
L 227.396104 230.094192 
L 234.189935 225.637658 
L 240.983766 227.517295 
L 268.159091 225.180925 
L 274.952922 224.721826 
L 281.746753 224.297859 
L 288.540584 223.269532 
L 308.922078 208.598305 
L 315.715909 206.546379 
L 322.50974 208.609113 
L 329.303571 208.32771 
L 336.097403 209.197597 
L 356.478896 205.775809 
L 363.272727 208.925653 
L 370.066558 209.212125 
L 376.86039 205.77412 
L 383.654221 169.210656 
L 404.035714 172.365498 
L 410.829545 197.060433 
L 417.623377 176.054334 
L 424.417208 198.361044 
L 431.211039 208.256616 
L 451.592532 221.632791 
L 458.386364 221.066451 
L 465.180195 221.386181 
L 471.974026 206.731505 
L 478.767857 207.2808 
L 505.943182 221.867914 
L 512.737013 224.445824 
L 519.530844 229.076001 
L 526.324675 231.154274 
L 546.706169 232.54069 
L 553.5 230.053315 
L 560.293831 232.438669 
L 567.087662 231.26339 
L 573.881494 227.530806 
L 594.262987 222.335793 
L 601.056818 209.887428 
L 607.850649 220.522035 
L 614.644481 220.373391 
L 621.438312 221.970611 
L 641.819805 228.829053 
L 648.613636 226.695376 
L 655.407468 218.25458 
L 662.201299 207.315597 
L 668.99513 203.722872 
L 689.376623 203.27492 
L 696.170455 203.965426 
L 702.964286 199.344018 
L 709.758117 171.411323 
L 716.551948 168.765948 
L 736.933442 187.128952 
L 743.727273 193.662341 
L 750.521104 199.087038 
L 757.314935 202.092546 
L 764.108766 199.814957 
L 784.49026 197.042158 
L 791.284091 197.115075 
L 798.077922 193.631988 
L 804.871753 175.898632 
L 832.047078 167.835419 
L 838.840909 163.189097 
L 845.63474 162.972216 
L 852.428571 165.734984 
L 859.222403 166.680106 
L 879.603896 160.969207 
L 886.397727 165.943031 
L 893.191558 168.158224 
L 899.98539 192.102825 
L 906.779221 175.022358 
L 927.160714 168.540181 
L 933.954545 163.552964 
" clip-path="url(#p4d8ecdfc04)" style="fill: none; stroke: #1f77b4; stroke-width: 1.5; stroke-linecap: round"/>
   </g>
   <g id="line2d_30">
    <path d="M 173.045455 232.363469 
L 179.839286 233.049611 
L 186.633117 233.224999 
L 193.426948 232.44264 
L 213.808442 235.142818 
L 220.602273 229.534398 
L 227.396104 228.139717 
L 234.189935 219.600515 
L 240.983766 218.758044 
L 268.159091 216.312362 
L 274.952922 218.875557 
L 281.746753 229.904338 
L 288.540584 220.226768 
L 308.922078 211.963451 
L 315.715909 206.973262 
L 322.50974 209.218582 
L 329.303571 210.100487 
L 336.097403 209.982696 
L 356.478896 205.847684 
L 363.272727 207.784365 
L 370.066558 208.0608 
L 376.86039 203.146289 
L 383.654221 182.964067 
L 404.035714 191.667329 
L 410.829545 198.834585 
L 417.623377 182.739892 
L 424.417208 206.78919 
L 431.211039 205.998533 
L 451.592532 215.959899 
L 458.386364 218.440804 
L 465.180195 218.169077 
L 471.974026 216.167844 
L 478.767857 214.749395 
L 505.943182 219.326303 
L 512.737013 218.759369 
L 519.530844 227.420408 
L 526.324675 225.887037 
L 546.706169 231.110134 
L 553.5 230.870947 
L 560.293831 231.4621 
L 567.087662 231.417527 
L 573.881494 219.544487 
L 594.262987 218.207839 
L 601.056818 211.819799 
L 607.850649 216.087441 
L 614.644481 216.270617 
L 621.438312 218.599123 
L 641.819805 223.444358 
L 648.613636 218.21822 
L 655.407468 210.077191 
L 662.201299 203.255518 
L 668.99513 204.520154 
L 689.376623 201.840393 
L 696.170455 202.549843 
L 702.964286 197.896606 
L 709.758117 189.6484 
L 716.551948 175.92787 
L 736.933442 195.124975 
L 743.727273 194.639463 
L 750.521104 197.937236 
L 757.314935 201.582932 
L 764.108766 202.560247 
L 784.49026 205.242548 
L 791.284091 203.970581 
L 798.077922 201.039719 
L 804.871753 189.731463 
L 832.047078 173.162792 
L 838.840909 178.75273 
L 845.63474 173.49808 
L 852.428571 179.533881 
L 859.222403 173.964096 
L 879.603896 176.007858 
L 886.397727 176.734264 
L 893.191558 182.234864 
L 899.98539 195.760456 
L 906.779221 173.772848 
L 927.160714 179.326879 
L 933.954545 174.336577 
" clip-path="url(#p4d8ecdfc04)" style="fill: none; stroke: #ff7f0e; stroke-width: 1.5; stroke-linecap: round"/>
   </g>
   <g id="line2d_31">
    <path d="M 173.045455 234.593775 
L 179.839286 276.518101 
L 186.633117 288.011368 
L 193.426948 289.413917 
L 213.808442 255.297011 
L 220.602273 260.004101 
L 227.396104 237.735569 
L 234.189935 263.408338 
L 240.983766 156.339389 
L 268.159091 203.853899 
L 274.952922 155.622832 
L 281.746753 206.510222 
L 288.540584 143.558264 
L 308.922078 89.28 
L 315.715909 180.517062 
L 322.50974 172.131285 
L 329.303571 149.084363 
L 336.097403 128.034546 
L 356.478896 231.727338 
L 363.272727 179.916197 
L 370.066558 188.093828 
L 376.86039 182.899783 
L 383.654221 149.514212 
L 404.035714 244.788434 
L 410.829545 265.694124 
L 417.623377 220.241418 
L 424.417208 195.813774 
L 431.211039 196.084727 
L 451.592532 244.514899 
L 458.386364 178.686415 
L 465.180195 175.308824 
L 471.974026 158.391024 
L 478.767857 200.39262 
L 505.943182 236.803136 
L 512.737013 270.902922 
L 519.530844 232.084359 
L 526.324675 230.663859 
L 546.706169 255.89542 
L 553.5 249.125744 
L 560.293831 263.905272 
L 567.087662 229.034528 
L 573.881494 215.787142 
L 594.262987 177.767176 
L 601.056818 212.047458 
L 607.850649 258.218112 
L 614.644481 208.496857 
L 621.438312 201.463607 
L 641.819805 140.088967 
L 648.613636 220.691128 
L 655.407468 177.235413 
L 662.201299 139.048611 
L 668.99513 135.157068 
L 689.376623 141.521814 
L 696.170455 277.708861 
L 702.964286 258.186423 
L 709.758117 204.654116 
L 716.551948 146.555734 
L 736.933442 121.803279 
L 743.727273 155.371407 
L 750.521104 114.228438 
L 757.314935 185.025156 
L 764.108766 188.814977 
L 784.49026 222.610094 
L 791.284091 257.144578 
L 798.077922 284.069234 
L 804.871753 211.86742 
L 832.047078 198.6228 
L 838.840909 198.961543 
L 845.63474 197.356848 
L 852.428571 159.182896 
L 859.222403 185.030739 
L 879.603896 165.964452 
L 886.397727 181.178909 
L 893.191558 192.081976 
L 899.98539 200.239577 
L 906.779221 186.809522 
L 927.160714 157.774758 
L 933.954545 144.125821 
" clip-path="url(#p4d8ecdfc04)" style="fill: none; stroke: #2ca02c; stroke-width: 1.5; stroke-linecap: round"/>
   </g>
   <g id="line2d_32">
    <path d="M 173.045455 238.968409 
L 179.839286 217.888387 
L 186.633117 217.888387 
L 193.426948 236.265831 
L 213.808442 217.888387 
L 220.602273 237.853594 
L 227.396104 217.888387 
L 234.189935 219.949097 
L 240.983766 221.604413 
L 268.159091 219.949097 
L 274.952922 212.212993 
L 281.746753 217.888387 
L 288.540584 212.212993 
L 308.922078 213.598046 
L 315.715909 212.280546 
L 322.50974 207.28081 
L 329.303571 213.598046 
L 336.097403 213.598046 
L 356.478896 213.598046 
L 363.272727 210.861704 
L 370.066558 212.280546 
L 376.86039 207.28081 
L 383.654221 158.094057 
L 404.035714 156.788387 
L 410.829545 185.187314 
L 417.623377 158.094057 
L 424.417208 214.57773 
L 431.211039 188.16013 
L 451.592532 221.604413 
L 458.386364 212.212993 
L 465.180195 209.746889 
L 471.974026 195.389497 
L 478.767857 195.389497 
L 505.943182 209.746889 
L 512.737013 209.746889 
L 519.530844 231.130964 
L 526.324675 236.265831 
L 546.706169 241.873672 
L 553.5 236.536094 
L 560.293831 238.968409 
L 567.087662 232.617384 
L 573.881494 212.212993 
L 594.262987 212.212993 
L 601.056818 207.719968 
L 607.850649 212.212993 
L 614.644481 212.212993 
L 621.438312 221.604413 
L 641.819805 217.888387 
L 648.613636 217.888387 
L 655.407468 212.212993 
L 662.201299 212.280546 
L 668.99513 214.03723 
L 689.376623 207.28081 
L 696.170455 213.598046 
L 702.964286 212.280546 
L 709.758117 151.280213 
L 716.551948 156.788387 
L 736.933442 210.861704 
L 743.727273 210.861704 
L 750.521104 210.861704 
L 757.314935 210.861704 
L 764.108766 193.497708 
L 784.49026 181.538842 
L 791.284091 192.011287 
L 798.077922 192.011287 
L 804.871753 152.249768 
L 832.047078 166.531154 
L 838.840909 156.788387 
L 845.63474 158.094057 
L 852.428571 166.531154 
L 859.222403 158.094057 
L 879.603896 156.788387 
L 886.397727 162.789767 
L 893.191558 162.789767 
L 899.98539 185.187314 
L 906.779221 166.531154 
L 927.160714 166.531154 
L 933.954545 156.788387 
" clip-path="url(#p4d8ecdfc04)" style="fill: none; stroke: #d62728; stroke-width: 1.5; stroke-linecap: round"/>
   </g>
   <g id="line2d_33">
    <path d="M 173.045455 186.983713 
L 179.839286 187.229227 
L 186.633117 187.451241 
L 193.426948 187.773665 
L 213.808442 188.08641 
L 220.602273 188.349265 
L 227.396104 188.560707 
L 234.189935 188.651653 
L 240.983766 188.909718 
L 268.159091 189.130635 
L 274.952922 189.35943 
L 281.746753 189.570002 
L 288.540584 189.639952 
L 308.922078 189.480219 
L 315.715909 189.226256 
L 322.50974 189.021892 
L 329.303571 188.913558 
L 336.097403 188.7802 
L 356.478896 188.582825 
L 363.272727 188.372707 
L 370.066558 188.084317 
L 376.86039 187.697574 
L 383.654221 187.072514 
L 404.035714 186.599812 
L 410.829545 186.139577 
L 417.623377 185.554491 
L 424.417208 185.20165 
L 431.211039 184.961422 
L 451.592532 184.79845 
L 458.386364 184.619147 
L 465.180195 184.471589 
L 471.974026 184.236991 
L 478.767857 183.995096 
L 505.943182 183.829095 
L 512.737013 183.767343 
L 519.530844 183.72464 
L 526.324675 183.777988 
L 546.706169 183.881575 
L 553.5 183.991898 
L 560.293831 184.090642 
L 567.087662 184.175688 
L 573.881494 184.267551 
L 594.262987 184.455546 
L 601.056818 184.631691 
L 607.850649 184.797816 
L 614.644481 184.874532 
L 621.438312 185.083399 
L 641.819805 185.384523 
L 648.613636 185.587203 
L 655.407468 185.757644 
L 662.201299 185.892875 
L 668.99513 186.074524 
L 689.376623 186.108577 
L 696.170455 186.113803 
L 702.964286 186.101724 
L 709.758117 185.928425 
L 716.551948 185.562294 
L 736.933442 185.189897 
L 743.727273 184.927415 
L 750.521104 184.724652 
L 757.314935 184.562721 
L 764.108766 184.382422 
L 784.49026 184.075832 
L 791.284091 183.66589 
L 798.077922 183.236587 
L 804.871753 182.792217 
L 832.047078 182.16516 
L 838.840909 181.634872 
L 845.63474 181.145353 
L 852.428571 180.698779 
L 859.222403 180.202501 
L 879.603896 179.719621 
L 886.397727 179.393921 
L 893.191558 179.077831 
L 899.98539 178.774733 
L 906.779221 178.383558 
L 927.160714 177.948421 
L 933.954545 177.495727 
" clip-path="url(#p4d8ecdfc04)" style="fill: none; stroke: #9467bd; stroke-width: 1.5; stroke-linecap: round"/>
   </g>
   <g id="line2d_34">
    <path d="M 173.045455 237.461731 
L 179.839286 237.461731 
L 186.633117 237.461731 
L 193.426948 237.461731 
L 213.808442 237.461731 
L 220.602273 237.461731 
L 227.396104 237.461731 
L 234.189935 237.461731 
L 240.983766 237.461731 
L 268.159091 231.374195 
L 274.952922 224.840738 
L 281.746753 228.036522 
L 288.540584 212.064346 
L 308.922078 203.585043 
L 315.715909 198.956891 
L 322.50974 201.949985 
L 329.303571 206.902442 
L 336.097403 206.902442 
L 356.478896 212.145425 
L 363.272727 212.145425 
L 370.066558 216.408729 
L 376.86039 216.408729 
L 383.654221 212.145425 
L 404.035714 212.145425 
L 410.829545 216.408729 
L 417.623377 216.408729 
L 424.417208 216.408729 
L 431.211039 217.395166 
L 451.592532 217.395166 
L 458.386364 217.287066 
L 465.180195 219.145082 
L 471.974026 220.63825 
L 478.767857 223.617828 
L 505.943182 223.617828 
L 512.737013 227.820322 
L 519.530844 231.239069 
L 526.324675 233.225453 
L 546.706169 233.934879 
L 553.5 234.759163 
L 560.293831 236.900947 
L 567.087662 237.779283 
L 573.881494 237.461731 
L 594.262987 231.441758 
L 601.056818 224.117802 
L 607.850649 216.63844 
L 614.644481 205.997079 
L 621.438312 206.111937 
L 641.819805 214.246667 
L 648.613636 214.381798 
L 655.407468 208.030763 
L 662.201299 205.247121 
L 668.99513 203.585043 
L 689.376623 201.402717 
L 696.170455 201.402717 
L 702.964286 197.693444 
L 709.758117 201.949985 
L 716.551948 201.949985 
L 736.933442 206.902442 
L 743.727273 212.145425 
L 750.521104 212.145425 
L 757.314935 216.408729 
L 764.108766 217.395166 
L 784.49026 217.395166 
L 791.284091 215.88173 
L 798.077922 217.476245 
L 804.871753 220.847697 
L 832.047078 215.557419 
L 838.840909 215.874972 
L 845.63474 216.368187 
L 852.428571 209.280699 
L 859.222403 219.030213 
L 879.603896 219.030213 
L 886.397727 219.030213 
L 893.191558 219.030213 
L 899.98539 219.030213 
L 906.779221 213.388604 
L 927.160714 207.774021 
L 933.954545 203.666116 
" clip-path="url(#p4d8ecdfc04)" style="fill: none; stroke: #8c564b; stroke-width: 1.5; stroke-linecap: round"/>
   </g>
   <g id="line2d_35">
    <path d="M 173.045455 236.597178 
L 179.839286 236.25413 
L 186.633117 233.527041 
L 193.426948 234.960394 
L 213.808442 242.32881 
L 220.602273 235.504244 
L 227.396104 229.756839 
L 234.189935 230.068933 
L 240.983766 229.007804 
L 268.159091 228.944194 
L 274.952922 230.949878 
L 281.746753 225.947049 
L 288.540584 225.143296 
L 308.922078 222.899644 
L 315.715909 219.872085 
L 322.50974 217.181311 
L 329.303571 216.565526 
L 336.097403 216.079718 
L 356.478896 215.71752 
L 363.272727 215.568548 
L 370.066558 216.032604 
L 376.86039 216.396657 
L 383.654221 205.199507 
L 404.035714 205.926428 
L 410.829545 207.066734 
L 417.623377 206.816033 
L 424.417208 209.000637 
L 431.211039 209.835293 
L 451.592532 215.2688 
L 458.386364 218.114964 
L 465.180195 222.065917 
L 471.974026 229.307758 
L 478.767857 226.646083 
L 505.943182 219.528728 
L 512.737013 220.348177 
L 519.530844 229.811531 
L 526.324675 232.468154 
L 546.706169 232.670478 
L 553.5 233.149456 
L 560.293831 232.743005 
L 567.087662 232.005955 
L 573.881494 229.739957 
L 594.262987 223.360993 
L 601.056818 222.84253 
L 607.850649 220.395034 
L 614.644481 216.99538 
L 621.438312 217.725497 
L 641.819805 218.179888 
L 648.613636 218.008699 
L 655.407468 208.484699 
L 662.201299 206.702345 
L 668.99513 207.986958 
L 689.376623 210.056586 
L 696.170455 210.337442 
L 702.964286 209.764699 
L 709.758117 206.163907 
L 716.551948 196.88633 
L 736.933442 203.857239 
L 743.727273 202.290894 
L 750.521104 203.380348 
L 757.314935 209.262034 
L 764.108766 214.019137 
L 784.49026 215.431226 
L 791.284091 217.044195 
L 798.077922 213.130743 
L 804.871753 205.959625 
L 832.047078 197.228141 
L 838.840909 193.069632 
L 845.63474 188.235905 
L 852.428571 186.24865 
L 859.222403 187.266582 
L 879.603896 188.566684 
L 886.397727 188.726404 
L 893.191558 185.315564 
L 899.98539 196.648568 
L 906.779221 198.732758 
L 927.160714 192.827566 
L 933.954545 185.579925 
" clip-path="url(#p4d8ecdfc04)" style="fill: none; stroke: #e377c2; stroke-width: 1.5; stroke-linecap: round"/>
   </g>
   <g id="line2d_36">
    <path d="M 173.045455 236.796211 
L 179.839286 232.030708 
L 186.633117 236.970439 
L 193.426948 238.879471 
L 213.808442 233.523836 
L 220.602273 236.193681 
L 227.396104 231.433553 
L 234.189935 227.538167 
L 240.983766 225.881817 
L 268.159091 222.865761 
L 274.952922 227.714964 
L 281.746753 225.549749 
L 288.540584 219.626422 
L 308.922078 203.673971 
L 315.715909 198.110123 
L 322.50974 205.04364 
L 329.303571 209.059934 
L 336.097403 204.168181 
L 356.478896 202.949169 
L 363.272727 208.109861 
L 370.066558 204.039683 
L 376.86039 196.418682 
L 383.654221 174.806213 
L 404.035714 185.325722 
L 410.829545 190.200157 
L 417.623377 176.078758 
L 424.417208 200.810555 
L 431.211039 214.198593 
L 451.592532 217.958788 
L 458.386364 213.822582 
L 465.180195 208.663214 
L 471.974026 210.872969 
L 478.767857 208.516789 
L 505.943182 214.397917 
L 512.737013 219.515553 
L 519.530844 224.10395 
L 526.324675 228.902627 
L 546.706169 221.654409 
L 553.5 226.306099 
L 560.293831 222.993273 
L 567.087662 220.826626 
L 573.881494 220.647759 
L 594.262987 215.474185 
L 601.056818 214.334388 
L 607.850649 216.263739 
L 614.644481 213.553926 
L 621.438312 219.678585 
L 641.819805 219.26489 
L 648.613636 219.784205 
L 655.407468 214.720719 
L 662.201299 207.871169 
L 668.99513 197.5549 
L 689.376623 192.143301 
L 696.170455 192.843584 
L 702.964286 183.854735 
L 709.758117 187.017155 
L 716.551948 181.973718 
L 736.933442 181.278113 
L 743.727273 188.524779 
L 750.521104 192.903503 
L 757.314935 193.326959 
L 764.108766 194.234399 
L 784.49026 187.567607 
L 791.284091 185.245275 
L 798.077922 182.142176 
L 804.871753 183.313322 
L 832.047078 168.254314 
L 838.840909 175.702757 
L 845.63474 178.07788 
L 852.428571 180.998845 
L 859.222403 175.994587 
L 879.603896 168.808524 
L 886.397727 179.621839 
L 893.191558 182.080999 
L 899.98539 180.99098 
L 906.779221 180.690136 
L 927.160714 178.697049 
L 933.954545 177.834831 
" clip-path="url(#p4d8ecdfc04)" style="fill: none; stroke: #7f7f7f; stroke-width: 1.5; stroke-linecap: round"/>
   </g>
   <g id="line2d_37">
    <path d="M 173.045455 234.554735 
L 179.839286 231.831202 
L 186.633117 234.494498 
L 193.426948 240.341622 
L 213.808442 236.302963 
L 220.602273 234.535516 
L 227.396104 233.262544 
L 234.189935 224.499703 
L 240.983766 225.040359 
L 268.159091 222.607466 
L 274.952922 224.472338 
L 281.746753 225.883351 
L 288.540584 219.810582 
L 308.922078 204.090288 
L 315.715909 197.439314 
L 322.50974 202.473676 
L 329.303571 209.814705 
L 336.097403 203.621817 
L 356.478896 198.899307 
L 363.272727 206.184539 
L 370.066558 201.112569 
L 376.86039 195.688977 
L 383.654221 174.643193 
L 404.035714 183.502832 
L 410.829545 188.939724 
L 417.623377 176.318986 
L 424.417208 197.787522 
L 431.211039 212.341358 
L 451.592532 215.094599 
L 458.386364 214.512499 
L 465.180195 213.882776 
L 471.974026 208.261948 
L 478.767857 211.375224 
L 505.943182 214.639432 
L 512.737013 222.951983 
L 519.530844 224.762014 
L 526.324675 227.02516 
L 546.706169 231.827914 
L 553.5 229.653421 
L 560.293831 228.646422 
L 567.087662 228.315359 
L 573.881494 223.598571 
L 594.262987 218.532256 
L 601.056818 213.685977 
L 607.850649 217.591761 
L 614.644481 216.513148 
L 621.438312 221.830218 
L 641.819805 226.268537 
L 648.613636 225.0469 
L 655.407468 217.602289 
L 662.201299 210.044567 
L 668.99513 197.29773 
L 689.376623 192.888697 
L 696.170455 193.993043 
L 702.964286 183.349769 
L 709.758117 187.270537 
L 716.551948 181.475377 
L 736.933442 181.429997 
L 743.727273 189.545389 
L 750.521104 194.595579 
L 757.314935 193.402473 
L 764.108766 194.986087 
L 784.49026 187.32446 
L 791.284091 184.313995 
L 798.077922 183.22739 
L 804.871753 183.711309 
L 832.047078 172.904412 
L 838.840909 177.607237 
L 845.63474 180.051355 
L 852.428571 182.905357 
L 859.222403 174.446083 
L 879.603896 170.352275 
L 886.397727 178.624036 
L 893.191558 182.724966 
L 899.98539 182.789172 
L 906.779221 180.442686 
L 927.160714 180.011306 
L 933.954545 177.467341 
" clip-path="url(#p4d8ecdfc04)" style="fill: none; stroke: #bcbd22; stroke-width: 1.5; stroke-linecap: round"/>
   </g>
   <g id="line2d_38">
    <path d="M 458.386364 480.735252 
L 465.180195 480.517961 
L 471.974026 480.405323 
L 478.767857 481.071818 
L 505.943182 481.375129 
L 512.737013 481.727488 
L 519.530844 482.47554 
L 526.324675 482.399225 
L 546.706169 483.053084 
L 553.5 482.67337 
L 560.293831 483.000657 
L 567.087662 482.706089 
L 573.881494 482.273993 
L 594.262987 482.458868 
L 601.056818 482.188483 
L 607.850649 481.93715 
L 614.644481 481.839932 
L 621.438312 481.761741 
L 641.819805 482.500528 
L 648.613636 483.6848 
L 655.407468 483.968698 
L 662.201299 484.926071 
L 668.99513 485.809255 
L 689.376623 486.420127 
L 696.170455 486.590669 
L 702.964286 486.768185 
L 709.758117 486.885452 
L 716.551948 487.493212 
L 736.933442 488.271722 
L 743.727273 487.515161 
L 750.521104 487.119725 
L 757.314935 487.825544 
L 764.108766 487.362465 
L 784.49026 486.588285 
L 791.284091 487.108556 
L 798.077922 487.24534 
L 804.871753 487.664533 
L 832.047078 487.876989 
L 838.840909 487.988296 
L 845.63474 487.999659 
L 852.428571 489.337433 
L 859.222403 490.247563 
L 879.603896 489.478466 
L 886.397727 489.854798 
L 893.191558 490.647558 
L 899.98539 490.211409 
L 906.779221 489.960798 
L 927.160714 489.586052 
L 933.954545 490.047253 
" clip-path="url(#p4d8ecdfc04)" style="fill: none; stroke: #17becf; stroke-width: 1.5; stroke-linecap: round"/>
   </g>
   <g id="line2d_39">
    <path d="M 458.386364 480.416805 
L 465.180195 480.225307 
L 471.974026 479.884495 
L 478.767857 480.124622 
L 505.943182 480.542323 
L 512.737013 481.439795 
L 519.530844 482.507435 
L 526.324675 482.877597 
L 546.706169 483.089885 
L 553.5 483.499481 
L 560.293831 483.206463 
L 567.087662 482.808501 
L 573.881494 482.509391 
L 594.262987 481.907942 
L 601.056818 481.69605 
L 607.850649 481.507806 
L 614.644481 481.014807 
L 621.438312 481.34788 
L 641.819805 482.419454 
L 648.613636 483.807003 
L 655.407468 485.176443 
L 662.201299 486.849066 
L 668.99513 488.158782 
L 689.376623 488.629088 
L 696.170455 489.061377 
L 702.964286 488.820883 
L 709.758117 489.073156 
L 716.551948 489.729515 
L 736.933442 490.078716 
L 743.727273 490.05205 
L 750.521104 489.900697 
L 757.314935 489.309616 
L 764.108766 488.612251 
L 784.49026 487.94094 
L 791.284091 487.674043 
L 798.077922 488.06561 
L 804.871753 488.716854 
L 832.047078 489.1879 
L 838.840909 489.165268 
L 845.63474 488.881074 
L 852.428571 489.375362 
L 859.222403 490.673499 
L 879.603896 491.836176 
L 886.397727 492.48 
L 893.191558 492.317294 
L 899.98539 491.755379 
L 906.779221 491.439509 
L 927.160714 491.558867 
L 933.954545 491.523061 
" clip-path="url(#p4d8ecdfc04)" style="fill: none; stroke: #1f77b4; stroke-width: 1.5; stroke-linecap: round"/>
   </g>
   <g id="line2d_40">
    <path d="M 173.045455 232.988989 
L 179.839286 236.33341 
L 186.633117 242.887145 
L 193.426948 238.19141 
L 213.808442 236.029358 
L 220.602273 234.542963 
L 227.396104 224.340755 
L 234.189935 225.523123 
L 240.983766 222.516518 
L 268.159091 224.67857 
L 274.952922 225.962307 
L 281.746753 218.766703 
L 288.540584 200.625733 
L 308.922078 194.105786 
L 315.715909 200.862206 
L 322.50974 209.240152 
L 329.303571 201.031101 
L 336.097403 195.794891 
L 356.478896 205.118758 
L 363.272727 198.632575 
L 370.066558 193.362576 
L 376.86039 168.46516 
L 383.654221 180.559158 
L 404.035714 186.471025 
L 410.829545 171.032607 
L 417.623377 198.193417 
L 424.417208 213.530493 
L 431.211039 215.557414 
L 451.592532 215.084467 
L 458.386364 215.253387 
L 465.180195 207.990231 
L 471.974026 212.449467 
L 478.767857 216.469545 
L 505.943182 225.050176 
L 512.737013 225.894728 
L 519.530844 228.360833 
L 526.324675 234.171358 
L 546.706169 231.6377 
L 553.5 230.962043 
L 560.293831 230.252622 
L 567.087662 224.171859 
L 573.881494 218.395124 
L 594.262987 213.125099 
L 601.056818 217.888387 
L 607.850649 216.266835 
L 614.644481 222.989465 
L 621.438312 228.563517 
L 641.819805 226.367675 
L 648.613636 217.618124 
L 655.407468 209.848231 
L 662.201299 194.578734 
L 668.99513 189.883024 
L 689.376623 191.673471 
L 696.170455 178.464684 
L 702.964286 183.937368 
L 709.758117 177.045816 
L 716.551948 177.721474 
L 736.933442 187.856103 
L 743.727273 193.59905 
L 750.521104 191.774813 
L 757.314935 193.734181 
L 764.108766 184.680578 
L 784.49026 181.606394 
L 791.284091 180.896974 
L 798.077922 181.471289 
L 804.871753 168.127344 
L 832.047078 174.714869 
L 838.840909 177.518764 
L 845.63474 180.559158 
L 852.428571 170.52587 
L 859.222403 166.235555 
L 879.603896 176.505316 
L 886.397727 180.896974 
L 893.191558 181.234815 
L 899.98539 178.261974 
L 906.779221 178.228185 
L 927.160714 175.289159 
L 933.954545 182.619868 
" clip-path="url(#p4d8ecdfc04)" style="fill: none; stroke: #000000; stroke-width: 2; stroke-linecap: round"/>
   </g>
   <g id="patch_3">
    <path d="M 135 512.64 
L 135 69.12 
" style="fill: none; stroke: #cccccc; stroke-linejoin: miter; stroke-linecap: square"/>
   </g>
   <g id="patch_4">
    <path d="M 972 512.64 
L 972 69.12 
" style="fill: none; stroke: #cccccc; stroke-linejoin: miter; stroke-linecap: square"/>
   </g>
   <g id="patch_5">
    <path d="M 135 512.64 
L 972 512.64 
" style="fill: none; stroke: #cccccc; stroke-linejoin: miter; stroke-linecap: square"/>
   </g>
   <g id="patch_6">
    <path d="M 135 69.12 
L 972 69.12 
" style="fill: none; stroke: #cccccc; stroke-linejoin: miter; stroke-linecap: square"/>
   </g>
   <g id="text_17">
    <!-- Tahminler ve Gerçek Değerler -->
    <g style="fill: #262626" transform="translate(473.811563 63.12) scale(0.12 -0.12)">
     <defs>
      <path id="ArialMT-54" d="M 1659 0 
L 1659 4041 
L 150 4041 
L 150 4581 
L 3781 4581 
L 3781 4041 
L 2266 4041 
L 2266 0 
L 1659 0 
z
" transform="scale(0.015625)"/>
      <path id="ArialMT-68" d="M 422 0 
L 422 4581 
L 984 4581 
L 984 2938 
Q 1378 3394 1978 3394 
Q 2347 3394 2619 3248 
Q 2891 3103 3008 2847 
Q 3125 2591 3125 2103 
L 3125 0 
L 2563 0 
L 2563 2103 
Q 2563 2525 2380 2717 
Q 2197 2909 1863 2909 
Q 1613 2909 1392 2779 
Q 1172 2650 1078 2428 
Q 984 2206 984 1816 
L 984 0 
L 422 0 
z
" transform="scale(0.015625)"/>
      <path id="ArialMT-6d" d="M 422 0 
L 422 3319 
L 925 3319 
L 925 2853 
Q 1081 3097 1340 3245 
Q 1600 3394 1931 3394 
Q 2300 3394 2536 3241 
Q 2772 3088 2869 2813 
Q 3263 3394 3894 3394 
Q 4388 3394 4653 3120 
Q 4919 2847 4919 2278 
L 4919 0 
L 4359 0 
L 4359 2091 
Q 4359 2428 4304 2576 
Q 4250 2725 4106 2815 
Q 3963 2906 3769 2906 
Q 3419 2906 3187 2673 
Q 2956 2441 2956 1928 
L 2956 0 
L 2394 0 
L 2394 2156 
Q 2394 2531 2256 2718 
Q 2119 2906 1806 2906 
Q 1569 2906 1367 2781 
Q 1166 2656 1075 2415 
Q 984 2175 984 1722 
L 984 0 
L 422 0 
z
" transform="scale(0.015625)"/>
      <path id="ArialMT-69" d="M 425 3934 
L 425 4581 
L 988 4581 
L 988 3934 
L 425 3934 
z
M 425 0 
L 425 3319 
L 988 3319 
L 988 0 
L 425 0 
z
" transform="scale(0.015625)"/>
      <path id="ArialMT-6e" d="M 422 0 
L 422 3319 
L 928 3319 
L 928 2847 
Q 1294 3394 1984 3394 
Q 2284 3394 2536 3286 
Q 2788 3178 2913 3003 
Q 3038 2828 3088 2588 
Q 3119 2431 3119 2041 
L 3119 0 
L 2556 0 
L 2556 2019 
Q 2556 2363 2490 2533 
Q 2425 2703 2258 2804 
Q 2091 2906 1866 2906 
Q 1506 2906 1245 2678 
Q 984 2450 984 1813 
L 984 0 
L 422 0 
z
" transform="scale(0.015625)"/>
      <path id="ArialMT-72" d="M 416 0 
L 416 3319 
L 922 3319 
L 922 2816 
Q 1116 3169 1280 3281 
Q 1444 3394 1641 3394 
Q 1925 3394 2219 3213 
L 2025 2691 
Q 1819 2813 1613 2813 
Q 1428 2813 1281 2702 
Q 1134 2591 1072 2394 
Q 978 2094 978 1738 
L 978 0 
L 416 0 
z
" transform="scale(0.015625)"/>
      <path id="ArialMT-76" d="M 1344 0 
L 81 3319 
L 675 3319 
L 1388 1331 
Q 1503 1009 1600 663 
Q 1675 925 1809 1294 
L 2547 3319 
L 3125 3319 
L 1869 0 
L 1344 0 
z
" transform="scale(0.015625)"/>
      <path id="ArialMT-47" d="M 2638 1797 
L 2638 2334 
L 4578 2338 
L 4578 638 
Q 4131 281 3656 101 
Q 3181 -78 2681 -78 
Q 2006 -78 1454 211 
Q 903 500 622 1047 
Q 341 1594 341 2269 
Q 341 2938 620 3517 
Q 900 4097 1425 4378 
Q 1950 4659 2634 4659 
Q 3131 4659 3532 4498 
Q 3934 4338 4162 4050 
Q 4391 3763 4509 3300 
L 3963 3150 
Q 3859 3500 3706 3700 
Q 3553 3900 3268 4020 
Q 2984 4141 2638 4141 
Q 2222 4141 1919 4014 
Q 1616 3888 1430 3681 
Q 1244 3475 1141 3228 
Q 966 2803 966 2306 
Q 966 1694 1177 1281 
Q 1388 869 1791 669 
Q 2194 469 2647 469 
Q 3041 469 3416 620 
Q 3791 772 3984 944 
L 3984 1797 
L 2638 1797 
z
" transform="scale(0.015625)"/>
      <path id="ArialMT-e7" d="M 2588 1216 
L 3141 1144 
Q 3050 572 2676 248 
Q 2303 -75 1759 -75 
Q 1078 -75 664 370 
Q 250 816 250 1647 
Q 250 2184 428 2587 
Q 606 2991 970 3192 
Q 1334 3394 1763 3394 
Q 2303 3394 2647 3120 
Q 2991 2847 3088 2344 
L 2541 2259 
Q 2463 2594 2264 2762 
Q 2066 2931 1784 2931 
Q 1359 2931 1093 2626 
Q 828 2322 828 1663 
Q 828 994 1084 691 
Q 1341 388 1753 388 
Q 2084 388 2306 591 
Q 2528 794 2588 1216 
z
M 1283 -417 
L 1446 136 
L 1864 136 
L 1761 -199 
Q 2027 -230 2161 -362 
Q 2296 -495 2296 -658 
Q 2296 -892 2071 -1072 
Q 1846 -1252 1392 -1252 
Q 1136 -1252 942 -1214 
L 977 -849 
Q 1177 -861 1271 -861 
Q 1564 -861 1683 -780 
Q 1774 -717 1774 -627 
Q 1774 -570 1738 -526 
Q 1702 -483 1605 -451 
Q 1508 -420 1283 -417 
z
" transform="scale(0.015625)"/>
      <path id="ArialMT-6b" d="M 425 0 
L 425 4581 
L 988 4581 
L 988 1969 
L 2319 3319 
L 3047 3319 
L 1778 2088 
L 3175 0 
L 2481 0 
L 1384 1697 
L 988 1316 
L 988 0 
L 425 0 
z
" transform="scale(0.015625)"/>
      <path id="ArialMT-11f" d="M 319 -275 
L 866 -356 
Q 900 -609 1056 -725 
Q 1266 -881 1628 -881 
Q 2019 -881 2231 -725 
Q 2444 -569 2519 -288 
Q 2563 -116 2559 434 
Q 2191 0 1641 0 
Q 956 0 581 494 
Q 206 988 206 1678 
Q 206 2153 378 2554 
Q 550 2956 876 3175 
Q 1203 3394 1644 3394 
Q 2231 3394 2613 2919 
L 2613 3319 
L 3131 3319 
L 3131 450 
Q 3131 -325 2973 -648 
Q 2816 -972 2473 -1159 
Q 2131 -1347 1631 -1347 
Q 1038 -1347 672 -1080 
Q 306 -813 319 -275 
z
M 784 1719 
Q 784 1066 1043 766 
Q 1303 466 1694 466 
Q 2081 466 2343 764 
Q 2606 1063 2606 1700 
Q 2606 2309 2336 2618 
Q 2066 2928 1684 2928 
Q 1309 2928 1046 2623 
Q 784 2319 784 1719 
z
M 2318 4575 
L 2703 4575 
Q 2656 4184 2417 3975 
Q 2178 3766 1781 3766 
Q 1381 3766 1142 3973 
Q 903 4181 856 4575 
L 1240 4575 
Q 1284 4363 1413 4258 
Q 1543 4153 1762 4153 
Q 2015 4153 2145 4254 
Q 2275 4356 2318 4575 
z
" transform="scale(0.015625)"/>
     </defs>
     <use xlink:href="#ArialMT-54"/>
     <use xlink:href="#ArialMT-61" x="49.958984"/>
     <use xlink:href="#ArialMT-68" x="105.574219"/>
     <use xlink:href="#ArialMT-6d" x="161.189453"/>
     <use xlink:href="#ArialMT-69" x="244.490234"/>
     <use xlink:href="#ArialMT-6e" x="266.707031"/>
     <use xlink:href="#ArialMT-6c" x="322.322266"/>
     <use xlink:href="#ArialMT-65" x="344.539062"/>
     <use xlink:href="#ArialMT-72" x="400.154297"/>
     <use xlink:href="#ArialMT-20" x="433.455078"/>
     <use xlink:href="#ArialMT-76" x="461.238281"/>
     <use xlink:href="#ArialMT-65" x="511.238281"/>
     <use xlink:href="#ArialMT-20" x="566.853516"/>
     <use xlink:href="#ArialMT-47" x="594.636719"/>
     <use xlink:href="#ArialMT-65" x="672.419922"/>
     <use xlink:href="#ArialMT-72" x="728.035156"/>
     <use xlink:href="#ArialMT-e7" x="761.335938"/>
     <use xlink:href="#ArialMT-65" x="811.335938"/>
     <use xlink:href="#ArialMT-6b" x="866.951172"/>
     <use xlink:href="#ArialMT-20" x="916.951172"/>
     <use xlink:href="#ArialMT-44" x="944.734375"/>
     <use xlink:href="#ArialMT-65" x="1016.951172"/>
     <use xlink:href="#ArialMT-11f" x="1072.566406"/>
     <use xlink:href="#ArialMT-65" x="1128.181641"/>
     <use xlink:href="#ArialMT-72" x="1183.796875"/>
     <use xlink:href="#ArialMT-6c" x="1217.097656"/>
     <use xlink:href="#ArialMT-65" x="1239.314453"/>
     <use xlink:href="#ArialMT-72" x="1294.929688"/>
    </g>
   </g>
   <g id="legend_1">
    <g id="line2d_41">
     <path d="M 144 341.724375 
L 154 341.724375 
L 164 341.724375 
" style="fill: none; stroke: #1f77b4; stroke-width: 1.5; stroke-linecap: round"/>
    </g>
    <g id="text_18">
     <!-- Random Forest -->
     <g style="fill: #262626" transform="translate(172 345.224375) scale(0.1 -0.1)">
      <defs>
       <path id="ArialMT-52" d="M 503 0 
L 503 4581 
L 2534 4581 
Q 3147 4581 3465 4457 
Q 3784 4334 3975 4021 
Q 4166 3709 4166 3331 
Q 4166 2844 3850 2509 
Q 3534 2175 2875 2084 
Q 3116 1969 3241 1856 
Q 3506 1613 3744 1247 
L 4541 0 
L 3778 0 
L 3172 953 
Q 2906 1366 2734 1584 
Q 2563 1803 2427 1890 
Q 2291 1978 2150 2013 
Q 2047 2034 1813 2034 
L 1109 2034 
L 1109 0 
L 503 0 
z
M 1109 2559 
L 2413 2559 
Q 2828 2559 3062 2645 
Q 3297 2731 3419 2920 
Q 3541 3109 3541 3331 
Q 3541 3656 3305 3865 
Q 3069 4075 2559 4075 
L 1109 4075 
L 1109 2559 
z
" transform="scale(0.015625)"/>
       <path id="ArialMT-46" d="M 525 0 
L 525 4581 
L 3616 4581 
L 3616 4041 
L 1131 4041 
L 1131 2622 
L 3281 2622 
L 3281 2081 
L 1131 2081 
L 1131 0 
L 525 0 
z
" transform="scale(0.015625)"/>
      </defs>
      <use xlink:href="#ArialMT-52"/>
      <use xlink:href="#ArialMT-61" x="72.216797"/>
      <use xlink:href="#ArialMT-6e" x="127.832031"/>
      <use xlink:href="#ArialMT-64" x="183.447266"/>
      <use xlink:href="#ArialMT-6f" x="239.0625"/>
      <use xlink:href="#ArialMT-6d" x="294.677734"/>
      <use xlink:href="#ArialMT-20" x="377.978516"/>
      <use xlink:href="#ArialMT-46" x="405.761719"/>
      <use xlink:href="#ArialMT-6f" x="466.845703"/>
      <use xlink:href="#ArialMT-72" x="522.460938"/>
      <use xlink:href="#ArialMT-65" x="555.761719"/>
      <use xlink:href="#ArialMT-73" x="611.376953"/>
      <use xlink:href="#ArialMT-74" x="661.376953"/>
     </g>
    </g>
    <g id="line2d_42">
     <path d="M 144 355.991562 
L 154 355.991562 
L 164 355.991562 
" style="fill: none; stroke: #ff7f0e; stroke-width: 1.5; stroke-linecap: round"/>
    </g>
    <g id="text_19">
     <!-- Gradient Boosting -->
     <g style="fill: #262626" transform="translate(172 359.491562) scale(0.1 -0.1)">
      <defs>
       <path id="ArialMT-42" d="M 469 0 
L 469 4581 
L 2188 4581 
Q 2713 4581 3030 4442 
Q 3347 4303 3526 4014 
Q 3706 3725 3706 3409 
Q 3706 3116 3547 2856 
Q 3388 2597 3066 2438 
Q 3481 2316 3704 2022 
Q 3928 1728 3928 1328 
Q 3928 1006 3792 729 
Q 3656 453 3456 303 
Q 3256 153 2954 76 
Q 2653 0 2216 0 
L 469 0 
z
M 1075 2656 
L 2066 2656 
Q 2469 2656 2644 2709 
Q 2875 2778 2992 2937 
Q 3109 3097 3109 3338 
Q 3109 3566 3000 3739 
Q 2891 3913 2687 3977 
Q 2484 4041 1991 4041 
L 1075 4041 
L 1075 2656 
z
M 1075 541 
L 2216 541 
Q 2509 541 2628 563 
Q 2838 600 2978 687 
Q 3119 775 3209 942 
Q 3300 1109 3300 1328 
Q 3300 1584 3169 1773 
Q 3038 1963 2805 2039 
Q 2572 2116 2134 2116 
L 1075 2116 
L 1075 541 
z
" transform="scale(0.015625)"/>
       <path id="ArialMT-67" d="M 319 -275 
L 866 -356 
Q 900 -609 1056 -725 
Q 1266 -881 1628 -881 
Q 2019 -881 2231 -725 
Q 2444 -569 2519 -288 
Q 2563 -116 2559 434 
Q 2191 0 1641 0 
Q 956 0 581 494 
Q 206 988 206 1678 
Q 206 2153 378 2554 
Q 550 2956 876 3175 
Q 1203 3394 1644 3394 
Q 2231 3394 2613 2919 
L 2613 3319 
L 3131 3319 
L 3131 450 
Q 3131 -325 2973 -648 
Q 2816 -972 2473 -1159 
Q 2131 -1347 1631 -1347 
Q 1038 -1347 672 -1080 
Q 306 -813 319 -275 
z
M 784 1719 
Q 784 1066 1043 766 
Q 1303 466 1694 466 
Q 2081 466 2343 764 
Q 2606 1063 2606 1700 
Q 2606 2309 2336 2618 
Q 2066 2928 1684 2928 
Q 1309 2928 1046 2623 
Q 784 2319 784 1719 
z
" transform="scale(0.015625)"/>
      </defs>
      <use xlink:href="#ArialMT-47"/>
      <use xlink:href="#ArialMT-72" x="77.783203"/>
      <use xlink:href="#ArialMT-61" x="111.083984"/>
      <use xlink:href="#ArialMT-64" x="166.699219"/>
      <use xlink:href="#ArialMT-69" x="222.314453"/>
      <use xlink:href="#ArialMT-65" x="244.53125"/>
      <use xlink:href="#ArialMT-6e" x="300.146484"/>
      <use xlink:href="#ArialMT-74" x="355.761719"/>
      <use xlink:href="#ArialMT-20" x="383.544922"/>
      <use xlink:href="#ArialMT-42" x="411.328125"/>
      <use xlink:href="#ArialMT-6f" x="478.027344"/>
      <use xlink:href="#ArialMT-6f" x="533.642578"/>
      <use xlink:href="#ArialMT-73" x="589.257812"/>
      <use xlink:href="#ArialMT-74" x="639.257812"/>
      <use xlink:href="#ArialMT-69" x="667.041016"/>
      <use xlink:href="#ArialMT-6e" x="689.257812"/>
      <use xlink:href="#ArialMT-67" x="744.873047"/>
     </g>
    </g>
    <g id="line2d_43">
     <path d="M 144 370.254063 
L 154 370.254063 
L 164 370.254063 
" style="fill: none; stroke: #2ca02c; stroke-width: 1.5; stroke-linecap: round"/>
    </g>
    <g id="text_20">
     <!-- Linear Regression -->
     <g style="fill: #262626" transform="translate(172 373.754063) scale(0.1 -0.1)">
      <defs>
       <path id="ArialMT-4c" d="M 469 0 
L 469 4581 
L 1075 4581 
L 1075 541 
L 3331 541 
L 3331 0 
L 469 0 
z
" transform="scale(0.015625)"/>
      </defs>
      <use xlink:href="#ArialMT-4c"/>
      <use xlink:href="#ArialMT-69" x="55.615234"/>
      <use xlink:href="#ArialMT-6e" x="77.832031"/>
      <use xlink:href="#ArialMT-65" x="133.447266"/>
      <use xlink:href="#ArialMT-61" x="189.0625"/>
      <use xlink:href="#ArialMT-72" x="244.677734"/>
      <use xlink:href="#ArialMT-20" x="277.978516"/>
      <use xlink:href="#ArialMT-52" x="305.761719"/>
      <use xlink:href="#ArialMT-65" x="377.978516"/>
      <use xlink:href="#ArialMT-67" x="433.59375"/>
      <use xlink:href="#ArialMT-72" x="489.208984"/>
      <use xlink:href="#ArialMT-65" x="522.509766"/>
      <use xlink:href="#ArialMT-73" x="578.125"/>
      <use xlink:href="#ArialMT-73" x="628.125"/>
      <use xlink:href="#ArialMT-69" x="678.125"/>
      <use xlink:href="#ArialMT-6f" x="700.341797"/>
      <use xlink:href="#ArialMT-6e" x="755.957031"/>
     </g>
    </g>
    <g id="line2d_44">
     <path d="M 144 384.516563 
L 154 384.516563 
L 164 384.516563 
" style="fill: none; stroke: #d62728; stroke-width: 1.5; stroke-linecap: round"/>
    </g>
    <g id="text_21">
     <!-- Decision Tree -->
     <g style="fill: #262626" transform="translate(172 388.016563) scale(0.1 -0.1)">
      <defs>
       <path id="ArialMT-63" d="M 2588 1216 
L 3141 1144 
Q 3050 572 2676 248 
Q 2303 -75 1759 -75 
Q 1078 -75 664 370 
Q 250 816 250 1647 
Q 250 2184 428 2587 
Q 606 2991 970 3192 
Q 1334 3394 1763 3394 
Q 2303 3394 2647 3120 
Q 2991 2847 3088 2344 
L 2541 2259 
Q 2463 2594 2264 2762 
Q 2066 2931 1784 2931 
Q 1359 2931 1093 2626 
Q 828 2322 828 1663 
Q 828 994 1084 691 
Q 1341 388 1753 388 
Q 2084 388 2306 591 
Q 2528 794 2588 1216 
z
" transform="scale(0.015625)"/>
      </defs>
      <use xlink:href="#ArialMT-44"/>
      <use xlink:href="#ArialMT-65" x="72.216797"/>
      <use xlink:href="#ArialMT-63" x="127.832031"/>
      <use xlink:href="#ArialMT-69" x="177.832031"/>
      <use xlink:href="#ArialMT-73" x="200.048828"/>
      <use xlink:href="#ArialMT-69" x="250.048828"/>
      <use xlink:href="#ArialMT-6f" x="272.265625"/>
      <use xlink:href="#ArialMT-6e" x="327.880859"/>
      <use xlink:href="#ArialMT-20" x="383.496094"/>
      <use xlink:href="#ArialMT-54" x="409.529297"/>
      <use xlink:href="#ArialMT-72" x="466.863281"/>
      <use xlink:href="#ArialMT-65" x="500.164062"/>
      <use xlink:href="#ArialMT-65" x="555.779297"/>
     </g>
    </g>
    <g id="line2d_45">
     <path d="M 144 398.661875 
L 154 398.661875 
L 164 398.661875 
" style="fill: none; stroke: #9467bd; stroke-width: 1.5; stroke-linecap: round"/>
    </g>
    <g id="text_22">
     <!-- SVR -->
     <g style="fill: #262626" transform="translate(172 402.161875) scale(0.1 -0.1)">
      <defs>
       <path id="ArialMT-53" d="M 288 1472 
L 859 1522 
Q 900 1178 1048 958 
Q 1197 738 1509 602 
Q 1822 466 2213 466 
Q 2559 466 2825 569 
Q 3091 672 3220 851 
Q 3350 1031 3350 1244 
Q 3350 1459 3225 1620 
Q 3100 1781 2813 1891 
Q 2628 1963 1997 2114 
Q 1366 2266 1113 2400 
Q 784 2572 623 2826 
Q 463 3081 463 3397 
Q 463 3744 659 4045 
Q 856 4347 1234 4503 
Q 1613 4659 2075 4659 
Q 2584 4659 2973 4495 
Q 3363 4331 3572 4012 
Q 3781 3694 3797 3291 
L 3216 3247 
Q 3169 3681 2898 3903 
Q 2628 4125 2100 4125 
Q 1550 4125 1298 3923 
Q 1047 3722 1047 3438 
Q 1047 3191 1225 3031 
Q 1400 2872 2139 2705 
Q 2878 2538 3153 2413 
Q 3553 2228 3743 1945 
Q 3934 1663 3934 1294 
Q 3934 928 3725 604 
Q 3516 281 3123 101 
Q 2731 -78 2241 -78 
Q 1619 -78 1198 103 
Q 778 284 539 648 
Q 300 1013 288 1472 
z
" transform="scale(0.015625)"/>
       <path id="ArialMT-56" d="M 1803 0 
L 28 4581 
L 684 4581 
L 1875 1253 
Q 2019 853 2116 503 
Q 2222 878 2363 1253 
L 3600 4581 
L 4219 4581 
L 2425 0 
L 1803 0 
z
" transform="scale(0.015625)"/>
      </defs>
      <use xlink:href="#ArialMT-53"/>
      <use xlink:href="#ArialMT-56" x="66.699219"/>
      <use xlink:href="#ArialMT-52" x="133.398438"/>
     </g>
    </g>
    <g id="line2d_46">
     <path d="M 144 412.807187 
L 154 412.807187 
L 164 412.807187 
" style="fill: none; stroke: #8c564b; stroke-width: 1.5; stroke-linecap: round"/>
    </g>
    <g id="text_23">
     <!-- K-Nearest Neighbors -->
     <g style="fill: #262626" transform="translate(172 416.307187) scale(0.1 -0.1)">
      <defs>
       <path id="ArialMT-4b" d="M 469 0 
L 469 4581 
L 1075 4581 
L 1075 2309 
L 3350 4581 
L 4172 4581 
L 2250 2725 
L 4256 0 
L 3456 0 
L 1825 2319 
L 1075 1588 
L 1075 0 
L 469 0 
z
" transform="scale(0.015625)"/>
       <path id="ArialMT-4e" d="M 488 0 
L 488 4581 
L 1109 4581 
L 3516 984 
L 3516 4581 
L 4097 4581 
L 4097 0 
L 3475 0 
L 1069 3600 
L 1069 0 
L 488 0 
z
" transform="scale(0.015625)"/>
       <path id="ArialMT-62" d="M 941 0 
L 419 0 
L 419 4581 
L 981 4581 
L 981 2947 
Q 1338 3394 1891 3394 
Q 2197 3394 2470 3270 
Q 2744 3147 2920 2923 
Q 3097 2700 3197 2384 
Q 3297 2069 3297 1709 
Q 3297 856 2875 390 
Q 2453 -75 1863 -75 
Q 1275 -75 941 416 
L 941 0 
z
M 934 1684 
Q 934 1088 1097 822 
Q 1363 388 1816 388 
Q 2184 388 2453 708 
Q 2722 1028 2722 1663 
Q 2722 2313 2464 2622 
Q 2206 2931 1841 2931 
Q 1472 2931 1203 2611 
Q 934 2291 934 1684 
z
" transform="scale(0.015625)"/>
      </defs>
      <use xlink:href="#ArialMT-4b"/>
      <use xlink:href="#ArialMT-2d" x="66.699219"/>
      <use xlink:href="#ArialMT-4e" x="100"/>
      <use xlink:href="#ArialMT-65" x="172.216797"/>
      <use xlink:href="#ArialMT-61" x="227.832031"/>
      <use xlink:href="#ArialMT-72" x="283.447266"/>
      <use xlink:href="#ArialMT-65" x="316.748047"/>
      <use xlink:href="#ArialMT-73" x="372.363281"/>
      <use xlink:href="#ArialMT-74" x="422.363281"/>
      <use xlink:href="#ArialMT-20" x="450.146484"/>
      <use xlink:href="#ArialMT-4e" x="477.929688"/>
      <use xlink:href="#ArialMT-65" x="550.146484"/>
      <use xlink:href="#ArialMT-69" x="605.761719"/>
      <use xlink:href="#ArialMT-67" x="627.978516"/>
      <use xlink:href="#ArialMT-68" x="683.59375"/>
      <use xlink:href="#ArialMT-62" x="739.208984"/>
      <use xlink:href="#ArialMT-6f" x="794.824219"/>
      <use xlink:href="#ArialMT-72" x="850.439453"/>
      <use xlink:href="#ArialMT-73" x="883.740234"/>
     </g>
    </g>
    <g id="line2d_47">
     <path d="M 144 427.069687 
L 154 427.069687 
L 164 427.069687 
" style="fill: none; stroke: #e377c2; stroke-width: 1.5; stroke-linecap: round"/>
    </g>
    <g id="text_24">
     <!-- XGBoost -->
     <g style="fill: #262626" transform="translate(172 430.569687) scale(0.1 -0.1)">
      <defs>
       <path id="ArialMT-58" d="M 28 0 
L 1800 2388 
L 238 4581 
L 959 4581 
L 1791 3406 
Q 2050 3041 2159 2844 
Q 2313 3094 2522 3366 
L 3444 4581 
L 4103 4581 
L 2494 2422 
L 4228 0 
L 3478 0 
L 2325 1634 
Q 2228 1775 2125 1941 
Q 1972 1691 1906 1597 
L 756 0 
L 28 0 
z
" transform="scale(0.015625)"/>
      </defs>
      <use xlink:href="#ArialMT-58"/>
      <use xlink:href="#ArialMT-47" x="66.699219"/>
      <use xlink:href="#ArialMT-42" x="144.482422"/>
      <use xlink:href="#ArialMT-6f" x="211.181641"/>
      <use xlink:href="#ArialMT-6f" x="266.796875"/>
      <use xlink:href="#ArialMT-73" x="322.412109"/>
      <use xlink:href="#ArialMT-74" x="372.412109"/>
     </g>
    </g>
    <g id="line2d_48">
     <path d="M 144 441.215 
L 154 441.215 
L 164 441.215 
" style="fill: none; stroke: #7f7f7f; stroke-width: 1.5; stroke-linecap: round"/>
    </g>
    <g id="text_25">
     <!-- Ridge Regression -->
     <g style="fill: #262626" transform="translate(172 444.715) scale(0.1 -0.1)">
      <use xlink:href="#ArialMT-52"/>
      <use xlink:href="#ArialMT-69" x="72.216797"/>
      <use xlink:href="#ArialMT-64" x="94.433594"/>
      <use xlink:href="#ArialMT-67" x="150.048828"/>
      <use xlink:href="#ArialMT-65" x="205.664062"/>
      <use xlink:href="#ArialMT-20" x="261.279297"/>
      <use xlink:href="#ArialMT-52" x="289.0625"/>
      <use xlink:href="#ArialMT-65" x="361.279297"/>
      <use xlink:href="#ArialMT-67" x="416.894531"/>
      <use xlink:href="#ArialMT-72" x="472.509766"/>
      <use xlink:href="#ArialMT-65" x="505.810547"/>
      <use xlink:href="#ArialMT-73" x="561.425781"/>
      <use xlink:href="#ArialMT-73" x="611.425781"/>
      <use xlink:href="#ArialMT-69" x="661.425781"/>
      <use xlink:href="#ArialMT-6f" x="683.642578"/>
      <use xlink:href="#ArialMT-6e" x="739.257812"/>
     </g>
    </g>
    <g id="line2d_49">
     <path d="M 144 455.4775 
L 154 455.4775 
L 164 455.4775 
" style="fill: none; stroke: #bcbd22; stroke-width: 1.5; stroke-linecap: round"/>
    </g>
    <g id="text_26">
     <!-- ElasticNet -->
     <g style="fill: #262626" transform="translate(172 458.9775) scale(0.1 -0.1)">
      <defs>
       <path id="ArialMT-45" d="M 506 0 
L 506 4581 
L 3819 4581 
L 3819 4041 
L 1113 4041 
L 1113 2638 
L 3647 2638 
L 3647 2100 
L 1113 2100 
L 1113 541 
L 3925 541 
L 3925 0 
L 506 0 
z
" transform="scale(0.015625)"/>
      </defs>
      <use xlink:href="#ArialMT-45"/>
      <use xlink:href="#ArialMT-6c" x="66.699219"/>
      <use xlink:href="#ArialMT-61" x="88.916016"/>
      <use xlink:href="#ArialMT-73" x="144.53125"/>
      <use xlink:href="#ArialMT-74" x="194.53125"/>
      <use xlink:href="#ArialMT-69" x="222.314453"/>
      <use xlink:href="#ArialMT-63" x="244.53125"/>
      <use xlink:href="#ArialMT-4e" x="294.53125"/>
      <use xlink:href="#ArialMT-65" x="366.748047"/>
      <use xlink:href="#ArialMT-74" x="422.363281"/>
     </g>
    </g>
    <g id="line2d_50">
     <path d="M 144 469.622813 
L 154 469.622813 
L 164 469.622813 
" style="fill: none; stroke: #17becf; stroke-width: 1.5; stroke-linecap: round"/>
    </g>
    <g id="text_27">
     <!-- LSTM -->
     <g style="fill: #262626" transform="translate(172 473.122813) scale(0.1 -0.1)">
      <defs>
       <path id="ArialMT-4d" d="M 475 0 
L 475 4581 
L 1388 4581 
L 2472 1338 
Q 2622 884 2691 659 
Q 2769 909 2934 1394 
L 4031 4581 
L 4847 4581 
L 4847 0 
L 4263 0 
L 4263 3834 
L 2931 0 
L 2384 0 
L 1059 3900 
L 1059 0 
L 475 0 
z
" transform="scale(0.015625)"/>
      </defs>
      <use xlink:href="#ArialMT-4c"/>
      <use xlink:href="#ArialMT-53" x="55.615234"/>
      <use xlink:href="#ArialMT-54" x="122.314453"/>
      <use xlink:href="#ArialMT-4d" x="183.398438"/>
     </g>
    </g>
    <g id="line2d_51">
     <path d="M 144 483.768125 
L 154 483.768125 
L 164 483.768125 
" style="fill: none; stroke: #1f77b4; stroke-width: 1.5; stroke-linecap: round"/>
    </g>
    <g id="text_28">
     <!-- RNN -->
     <g style="fill: #262626" transform="translate(172 487.268125) scale(0.1 -0.1)">
      <use xlink:href="#ArialMT-52"/>
      <use xlink:href="#ArialMT-4e" x="72.216797"/>
      <use xlink:href="#ArialMT-4e" x="144.433594"/>
     </g>
    </g>
    <g id="line2d_52">
     <path d="M 144 498.035313 
L 154 498.035313 
L 164 498.035313 
" style="fill: none; stroke: #000000; stroke-width: 2; stroke-linecap: round"/>
    </g>
    <g id="text_29">
     <!-- Gerçek Değerler -->
     <g style="fill: #262626" transform="translate(172 501.535313) scale(0.1 -0.1)">
      <use xlink:href="#ArialMT-47"/>
      <use xlink:href="#ArialMT-65" x="77.783203"/>
      <use xlink:href="#ArialMT-72" x="133.398438"/>
      <use xlink:href="#ArialMT-e7" x="166.699219"/>
      <use xlink:href="#ArialMT-65" x="216.699219"/>
      <use xlink:href="#ArialMT-6b" x="272.314453"/>
      <use xlink:href="#ArialMT-20" x="322.314453"/>
      <use xlink:href="#ArialMT-44" x="350.097656"/>
      <use xlink:href="#ArialMT-65" x="422.314453"/>
      <use xlink:href="#ArialMT-11f" x="477.929688"/>
      <use xlink:href="#ArialMT-65" x="533.544922"/>
      <use xlink:href="#ArialMT-72" x="589.160156"/>
      <use xlink:href="#ArialMT-6c" x="622.460938"/>
      <use xlink:href="#ArialMT-65" x="644.677734"/>
      <use xlink:href="#ArialMT-72" x="700.292969"/>
     </g>
    </g>
   </g>
  </g>
 </g>
 <defs>
  <clipPath id="p4d8ecdfc04">
   <rect x="135" y="69.12" width="837" height="443.52"/>
  </clipPath>
 </defs>
</svg>
