<?xml version="1.0" encoding="utf-8" standalone="no"?>
<!DOCTYPE svg PUBLIC "-//W3C//DTD SVG 1.1//EN"
  "http://www.w3.org/Graphics/SVG/1.1/DTD/svg11.dtd">
<svg xmlns:xlink="http://www.w3.org/1999/xlink" width="1080pt" height="576pt" viewBox="0 0 1080 576" xmlns="http://www.w3.org/2000/svg" version="1.1">
 <metadata>
  <rdf:RDF xmlns:dc="http://purl.org/dc/elements/1.1/" xmlns:cc="http://creativecommons.org/ns#" xmlns:rdf="http://www.w3.org/1999/02/22-rdf-syntax-ns#">
   <cc:Work>
    <dc:type rdf:resource="http://purl.org/dc/dcmitype/StillImage"/>
    <dc:date>2023-05-23T13:38:51.185903</dc:date>
    <dc:format>image/svg+xml</dc:format>
    <dc:creator>
     <cc:Agent>
      <dc:title>Matplotlib v3.7.1, https://matplotlib.org/</dc:title>
     </cc:Agent>
    </dc:creator>
   </cc:Work>
  </rdf:RDF>
 </metadata>
 <defs>
  <style type="text/css">*{stroke-linejoin: round; stroke-linecap: butt}</style>
 </defs>
 <g id="figure_1">
  <g id="patch_1">
   <path d="M 0 576 
L 1080 576 
L 1080 0 
L 0 0 
z
" style="fill: #ffffff"/>
  </g>
  <g id="axes_1">
   <g id="patch_2">
    <path d="M 135 512.64 
L 972 512.64 
L 972 69.12 
L 135 69.12 
z
" style="fill: #ffffff"/>
   </g>
   <g id="matplotlib.axis_1">
    <g id="xtick_1">
     <g id="line2d_1">
      <path d="M 159.457792 512.64 
L 159.457792 69.12 
" clip-path="url(#peee9218375)" style="fill: none; stroke: #cccccc; stroke-width: 0.8; stroke-linecap: round"/>
     </g>
     <g id="line2d_2"/>
     <g id="text_1">
      <!-- 2023-01-01 -->
      <g style="fill: #262626" transform="translate(133.884355 523.297812) scale(0.1 -0.1)">
       <defs>
        <path id="ArialMT-32" d="M 3222 541 
L 3222 0 
L 194 0 
Q 188 203 259 391 
Q 375 700 629 1000 
Q 884 1300 1366 1694 
Q 2113 2306 2375 2664 
Q 2638 3022 2638 3341 
Q 2638 3675 2398 3904 
Q 2159 4134 1775 4134 
Q 1369 4134 1125 3890 
Q 881 3647 878 3216 
L 300 3275 
Q 359 3922 746 4261 
Q 1134 4600 1788 4600 
Q 2447 4600 2831 4234 
Q 3216 3869 3216 3328 
Q 3216 3053 3103 2787 
Q 2991 2522 2730 2228 
Q 2469 1934 1863 1422 
Q 1356 997 1212 845 
Q 1069 694 975 541 
L 3222 541 
z
" transform="scale(0.015625)"/>
        <path id="ArialMT-30" d="M 266 2259 
Q 266 3072 433 3567 
Q 600 4063 929 4331 
Q 1259 4600 1759 4600 
Q 2128 4600 2406 4451 
Q 2684 4303 2865 4023 
Q 3047 3744 3150 3342 
Q 3253 2941 3253 2259 
Q 3253 1453 3087 958 
Q 2922 463 2592 192 
Q 2263 -78 1759 -78 
Q 1097 -78 719 397 
Q 266 969 266 2259 
z
M 844 2259 
Q 844 1131 1108 757 
Q 1372 384 1759 384 
Q 2147 384 2411 759 
Q 2675 1134 2675 2259 
Q 2675 3391 2411 3762 
Q 2147 4134 1753 4134 
Q 1366 4134 1134 3806 
Q 844 3388 844 2259 
z
" transform="scale(0.015625)"/>
        <path id="ArialMT-33" d="M 269 1209 
L 831 1284 
Q 928 806 1161 595 
Q 1394 384 1728 384 
Q 2125 384 2398 659 
Q 2672 934 2672 1341 
Q 2672 1728 2419 1979 
Q 2166 2231 1775 2231 
Q 1616 2231 1378 2169 
L 1441 2663 
Q 1497 2656 1531 2656 
Q 1891 2656 2178 2843 
Q 2466 3031 2466 3422 
Q 2466 3731 2256 3934 
Q 2047 4138 1716 4138 
Q 1388 4138 1169 3931 
Q 950 3725 888 3313 
L 325 3413 
Q 428 3978 793 4289 
Q 1159 4600 1703 4600 
Q 2078 4600 2393 4439 
Q 2709 4278 2876 4000 
Q 3044 3722 3044 3409 
Q 3044 3113 2884 2869 
Q 2725 2625 2413 2481 
Q 2819 2388 3044 2092 
Q 3269 1797 3269 1353 
Q 3269 753 2831 336 
Q 2394 -81 1725 -81 
Q 1122 -81 723 278 
Q 325 638 269 1209 
z
" transform="scale(0.015625)"/>
        <path id="ArialMT-2d" d="M 203 1375 
L 203 1941 
L 1931 1941 
L 1931 1375 
L 203 1375 
z
" transform="scale(0.015625)"/>
        <path id="ArialMT-31" d="M 2384 0 
L 1822 0 
L 1822 3584 
Q 1619 3391 1289 3197 
Q 959 3003 697 2906 
L 697 3450 
Q 1169 3672 1522 3987 
Q 1875 4303 2022 4600 
L 2384 4600 
L 2384 0 
z
" transform="scale(0.015625)"/>
       </defs>
       <use xlink:href="#ArialMT-32"/>
       <use xlink:href="#ArialMT-30" x="55.615234"/>
       <use xlink:href="#ArialMT-32" x="111.230469"/>
       <use xlink:href="#ArialMT-33" x="166.845703"/>
       <use xlink:href="#ArialMT-2d" x="222.460938"/>
       <use xlink:href="#ArialMT-30" x="255.761719"/>
       <use xlink:href="#ArialMT-31" x="311.376953"/>
       <use xlink:href="#ArialMT-2d" x="366.992188"/>
       <use xlink:href="#ArialMT-30" x="400.292969"/>
       <use xlink:href="#ArialMT-31" x="455.908203"/>
      </g>
     </g>
    </g>
    <g id="xtick_2">
     <g id="line2d_3">
      <path d="M 254.571429 512.64 
L 254.571429 69.12 
" clip-path="url(#peee9218375)" style="fill: none; stroke: #cccccc; stroke-width: 0.8; stroke-linecap: round"/>
     </g>
     <g id="line2d_4"/>
     <g id="text_2">
      <!-- 2023-01-15 -->
      <g style="fill: #262626" transform="translate(228.997991 523.297812) scale(0.1 -0.1)">
       <defs>
        <path id="ArialMT-35" d="M 266 1200 
L 856 1250 
Q 922 819 1161 601 
Q 1400 384 1738 384 
Q 2144 384 2425 690 
Q 2706 997 2706 1503 
Q 2706 1984 2436 2262 
Q 2166 2541 1728 2541 
Q 1456 2541 1237 2417 
Q 1019 2294 894 2097 
L 366 2166 
L 809 4519 
L 3088 4519 
L 3088 3981 
L 1259 3981 
L 1013 2750 
Q 1425 3038 1878 3038 
Q 2478 3038 2890 2622 
Q 3303 2206 3303 1553 
Q 3303 931 2941 478 
Q 2500 -78 1738 -78 
Q 1113 -78 717 272 
Q 322 622 266 1200 
z
" transform="scale(0.015625)"/>
       </defs>
       <use xlink:href="#ArialMT-32"/>
       <use xlink:href="#ArialMT-30" x="55.615234"/>
       <use xlink:href="#ArialMT-32" x="111.230469"/>
       <use xlink:href="#ArialMT-33" x="166.845703"/>
       <use xlink:href="#ArialMT-2d" x="222.460938"/>
       <use xlink:href="#ArialMT-30" x="255.761719"/>
       <use xlink:href="#ArialMT-31" x="311.376953"/>
       <use xlink:href="#ArialMT-2d" x="366.992188"/>
       <use xlink:href="#ArialMT-31" x="400.292969"/>
       <use xlink:href="#ArialMT-35" x="455.908203"/>
      </g>
     </g>
    </g>
    <g id="xtick_3">
     <g id="line2d_5">
      <path d="M 370.066558 512.64 
L 370.066558 69.12 
" clip-path="url(#peee9218375)" style="fill: none; stroke: #cccccc; stroke-width: 0.8; stroke-linecap: round"/>
     </g>
     <g id="line2d_6"/>
     <g id="text_3">
      <!-- 2023-02-01 -->
      <g style="fill: #262626" transform="translate(344.493121 523.297812) scale(0.1 -0.1)">
       <use xlink:href="#ArialMT-32"/>
       <use xlink:href="#ArialMT-30" x="55.615234"/>
       <use xlink:href="#ArialMT-32" x="111.230469"/>
       <use xlink:href="#ArialMT-33" x="166.845703"/>
       <use xlink:href="#ArialMT-2d" x="222.460938"/>
       <use xlink:href="#ArialMT-30" x="255.761719"/>
       <use xlink:href="#ArialMT-32" x="311.376953"/>
       <use xlink:href="#ArialMT-2d" x="366.992188"/>
       <use xlink:href="#ArialMT-30" x="400.292969"/>
       <use xlink:href="#ArialMT-31" x="455.908203"/>
      </g>
     </g>
    </g>
    <g id="xtick_4">
     <g id="line2d_7">
      <path d="M 465.180195 512.64 
L 465.180195 69.12 
" clip-path="url(#peee9218375)" style="fill: none; stroke: #cccccc; stroke-width: 0.8; stroke-linecap: round"/>
     </g>
     <g id="line2d_8"/>
     <g id="text_4">
      <!-- 2023-02-15 -->
      <g style="fill: #262626" transform="translate(439.606757 523.297812) scale(0.1 -0.1)">
       <use xlink:href="#ArialMT-32"/>
       <use xlink:href="#ArialMT-30" x="55.615234"/>
       <use xlink:href="#ArialMT-32" x="111.230469"/>
       <use xlink:href="#ArialMT-33" x="166.845703"/>
       <use xlink:href="#ArialMT-2d" x="222.460938"/>
       <use xlink:href="#ArialMT-30" x="255.761719"/>
       <use xlink:href="#ArialMT-32" x="311.376953"/>
       <use xlink:href="#ArialMT-2d" x="366.992188"/>
       <use xlink:href="#ArialMT-31" x="400.292969"/>
       <use xlink:href="#ArialMT-35" x="455.908203"/>
      </g>
     </g>
    </g>
    <g id="xtick_5">
     <g id="line2d_9">
      <path d="M 560.293831 512.64 
L 560.293831 69.12 
" clip-path="url(#peee9218375)" style="fill: none; stroke: #cccccc; stroke-width: 0.8; stroke-linecap: round"/>
     </g>
     <g id="line2d_10"/>
     <g id="text_5">
      <!-- 2023-03-01 -->
      <g style="fill: #262626" transform="translate(534.720394 523.297812) scale(0.1 -0.1)">
       <use xlink:href="#ArialMT-32"/>
       <use xlink:href="#ArialMT-30" x="55.615234"/>
       <use xlink:href="#ArialMT-32" x="111.230469"/>
       <use xlink:href="#ArialMT-33" x="166.845703"/>
       <use xlink:href="#ArialMT-2d" x="222.460938"/>
       <use xlink:href="#ArialMT-30" x="255.761719"/>
       <use xlink:href="#ArialMT-33" x="311.376953"/>
       <use xlink:href="#ArialMT-2d" x="366.992188"/>
       <use xlink:href="#ArialMT-30" x="400.292969"/>
       <use xlink:href="#ArialMT-31" x="455.908203"/>
      </g>
     </g>
    </g>
    <g id="xtick_6">
     <g id="line2d_11">
      <path d="M 655.407468 512.64 
L 655.407468 69.12 
" clip-path="url(#peee9218375)" style="fill: none; stroke: #cccccc; stroke-width: 0.8; stroke-linecap: round"/>
     </g>
     <g id="line2d_12"/>
     <g id="text_6">
      <!-- 2023-03-15 -->
      <g style="fill: #262626" transform="translate(629.83403 523.297812) scale(0.1 -0.1)">
       <use xlink:href="#ArialMT-32"/>
       <use xlink:href="#ArialMT-30" x="55.615234"/>
       <use xlink:href="#ArialMT-32" x="111.230469"/>
       <use xlink:href="#ArialMT-33" x="166.845703"/>
       <use xlink:href="#ArialMT-2d" x="222.460938"/>
       <use xlink:href="#ArialMT-30" x="255.761719"/>
       <use xlink:href="#ArialMT-33" x="311.376953"/>
       <use xlink:href="#ArialMT-2d" x="366.992188"/>
       <use xlink:href="#ArialMT-31" x="400.292969"/>
       <use xlink:href="#ArialMT-35" x="455.908203"/>
      </g>
     </g>
    </g>
    <g id="xtick_7">
     <g id="line2d_13">
      <path d="M 770.902597 512.64 
L 770.902597 69.12 
" clip-path="url(#peee9218375)" style="fill: none; stroke: #cccccc; stroke-width: 0.8; stroke-linecap: round"/>
     </g>
     <g id="line2d_14"/>
     <g id="text_7">
      <!-- 2023-04-01 -->
      <g style="fill: #262626" transform="translate(745.32916 523.297812) scale(0.1 -0.1)">
       <defs>
        <path id="ArialMT-34" d="M 2069 0 
L 2069 1097 
L 81 1097 
L 81 1613 
L 2172 4581 
L 2631 4581 
L 2631 1613 
L 3250 1613 
L 3250 1097 
L 2631 1097 
L 2631 0 
L 2069 0 
z
M 2069 1613 
L 2069 3678 
L 634 1613 
L 2069 1613 
z
" transform="scale(0.015625)"/>
       </defs>
       <use xlink:href="#ArialMT-32"/>
       <use xlink:href="#ArialMT-30" x="55.615234"/>
       <use xlink:href="#ArialMT-32" x="111.230469"/>
       <use xlink:href="#ArialMT-33" x="166.845703"/>
       <use xlink:href="#ArialMT-2d" x="222.460938"/>
       <use xlink:href="#ArialMT-30" x="255.761719"/>
       <use xlink:href="#ArialMT-34" x="311.376953"/>
       <use xlink:href="#ArialMT-2d" x="366.992188"/>
       <use xlink:href="#ArialMT-30" x="400.292969"/>
       <use xlink:href="#ArialMT-31" x="455.908203"/>
      </g>
     </g>
    </g>
    <g id="xtick_8">
     <g id="line2d_15">
      <path d="M 866.016234 512.64 
L 866.016234 69.12 
" clip-path="url(#peee9218375)" style="fill: none; stroke: #cccccc; stroke-width: 0.8; stroke-linecap: round"/>
     </g>
     <g id="line2d_16"/>
     <g id="text_8">
      <!-- 2023-04-15 -->
      <g style="fill: #262626" transform="translate(840.442796 523.297812) scale(0.1 -0.1)">
       <use xlink:href="#ArialMT-32"/>
       <use xlink:href="#ArialMT-30" x="55.615234"/>
       <use xlink:href="#ArialMT-32" x="111.230469"/>
       <use xlink:href="#ArialMT-33" x="166.845703"/>
       <use xlink:href="#ArialMT-2d" x="222.460938"/>
       <use xlink:href="#ArialMT-30" x="255.761719"/>
       <use xlink:href="#ArialMT-34" x="311.376953"/>
       <use xlink:href="#ArialMT-2d" x="366.992188"/>
       <use xlink:href="#ArialMT-31" x="400.292969"/>
       <use xlink:href="#ArialMT-35" x="455.908203"/>
      </g>
     </g>
    </g>
    <g id="text_9">
     <!-- Date -->
     <g style="fill: #262626" transform="translate(542.939062 536.443125) scale(0.1 -0.1)">
      <defs>
       <path id="ArialMT-44" d="M 494 0 
L 494 4581 
L 2072 4581 
Q 2606 4581 2888 4516 
Q 3281 4425 3559 4188 
Q 3922 3881 4101 3404 
Q 4281 2928 4281 2316 
Q 4281 1794 4159 1391 
Q 4038 988 3847 723 
Q 3656 459 3429 307 
Q 3203 156 2883 78 
Q 2563 0 2147 0 
L 494 0 
z
M 1100 541 
L 2078 541 
Q 2531 541 2789 625 
Q 3047 709 3200 863 
Q 3416 1078 3536 1442 
Q 3656 1806 3656 2325 
Q 3656 3044 3420 3430 
Q 3184 3816 2847 3947 
Q 2603 4041 2063 4041 
L 1100 4041 
L 1100 541 
z
" transform="scale(0.015625)"/>
       <path id="ArialMT-61" d="M 2588 409 
Q 2275 144 1986 34 
Q 1697 -75 1366 -75 
Q 819 -75 525 192 
Q 231 459 231 875 
Q 231 1119 342 1320 
Q 453 1522 633 1644 
Q 813 1766 1038 1828 
Q 1203 1872 1538 1913 
Q 2219 1994 2541 2106 
Q 2544 2222 2544 2253 
Q 2544 2597 2384 2738 
Q 2169 2928 1744 2928 
Q 1347 2928 1158 2789 
Q 969 2650 878 2297 
L 328 2372 
Q 403 2725 575 2942 
Q 747 3159 1072 3276 
Q 1397 3394 1825 3394 
Q 2250 3394 2515 3294 
Q 2781 3194 2906 3042 
Q 3031 2891 3081 2659 
Q 3109 2516 3109 2141 
L 3109 1391 
Q 3109 606 3145 398 
Q 3181 191 3288 0 
L 2700 0 
Q 2613 175 2588 409 
z
M 2541 1666 
Q 2234 1541 1622 1453 
Q 1275 1403 1131 1340 
Q 988 1278 909 1158 
Q 831 1038 831 891 
Q 831 666 1001 516 
Q 1172 366 1500 366 
Q 1825 366 2078 508 
Q 2331 650 2450 897 
Q 2541 1088 2541 1459 
L 2541 1666 
z
" transform="scale(0.015625)"/>
       <path id="ArialMT-74" d="M 1650 503 
L 1731 6 
Q 1494 -44 1306 -44 
Q 1000 -44 831 53 
Q 663 150 594 308 
Q 525 466 525 972 
L 525 2881 
L 113 2881 
L 113 3319 
L 525 3319 
L 525 4141 
L 1084 4478 
L 1084 3319 
L 1650 3319 
L 1650 2881 
L 1084 2881 
L 1084 941 
Q 1084 700 1114 631 
Q 1144 563 1211 522 
Q 1278 481 1403 481 
Q 1497 481 1650 503 
z
" transform="scale(0.015625)"/>
       <path id="ArialMT-65" d="M 2694 1069 
L 3275 997 
Q 3138 488 2766 206 
Q 2394 -75 1816 -75 
Q 1088 -75 661 373 
Q 234 822 234 1631 
Q 234 2469 665 2931 
Q 1097 3394 1784 3394 
Q 2450 3394 2872 2941 
Q 3294 2488 3294 1666 
Q 3294 1616 3291 1516 
L 816 1516 
Q 847 969 1125 678 
Q 1403 388 1819 388 
Q 2128 388 2347 550 
Q 2566 713 2694 1069 
z
M 847 1978 
L 2700 1978 
Q 2663 2397 2488 2606 
Q 2219 2931 1791 2931 
Q 1403 2931 1139 2672 
Q 875 2413 847 1978 
z
" transform="scale(0.015625)"/>
      </defs>
      <use xlink:href="#ArialMT-44"/>
      <use xlink:href="#ArialMT-61" x="72.216797"/>
      <use xlink:href="#ArialMT-74" x="127.832031"/>
      <use xlink:href="#ArialMT-65" x="155.615234"/>
     </g>
    </g>
   </g>
   <g id="matplotlib.axis_2">
    <g id="ytick_1">
     <g id="line2d_17">
      <path d="M 135 468.222505 
L 972 468.222505 
" clip-path="url(#peee9218375)" style="fill: none; stroke: #cccccc; stroke-width: 0.8; stroke-linecap: round"/>
     </g>
     <g id="line2d_18"/>
     <g id="text_10">
      <!-- 20 -->
      <g style="fill: #262626" transform="translate(120.378125 471.801411) scale(0.1 -0.1)">
       <use xlink:href="#ArialMT-32"/>
       <use xlink:href="#ArialMT-30" x="55.615234"/>
      </g>
     </g>
    </g>
    <g id="ytick_2">
     <g id="line2d_19">
      <path d="M 135 398.483575 
L 972 398.483575 
" clip-path="url(#peee9218375)" style="fill: none; stroke: #cccccc; stroke-width: 0.8; stroke-linecap: round"/>
     </g>
     <g id="line2d_20"/>
     <g id="text_11">
      <!-- 40 -->
      <g style="fill: #262626" transform="translate(120.378125 402.062481) scale(0.1 -0.1)">
       <use xlink:href="#ArialMT-34"/>
       <use xlink:href="#ArialMT-30" x="55.615234"/>
      </g>
     </g>
    </g>
    <g id="ytick_3">
     <g id="line2d_21">
      <path d="M 135 328.744645 
L 972 328.744645 
" clip-path="url(#peee9218375)" style="fill: none; stroke: #cccccc; stroke-width: 0.8; stroke-linecap: round"/>
     </g>
     <g id="line2d_22"/>
     <g id="text_12">
      <!-- 60 -->
      <g style="fill: #262626" transform="translate(120.378125 332.323551) scale(0.1 -0.1)">
       <defs>
        <path id="ArialMT-36" d="M 3184 3459 
L 2625 3416 
Q 2550 3747 2413 3897 
Q 2184 4138 1850 4138 
Q 1581 4138 1378 3988 
Q 1113 3794 959 3422 
Q 806 3050 800 2363 
Q 1003 2672 1297 2822 
Q 1591 2972 1913 2972 
Q 2475 2972 2870 2558 
Q 3266 2144 3266 1488 
Q 3266 1056 3080 686 
Q 2894 316 2569 119 
Q 2244 -78 1831 -78 
Q 1128 -78 684 439 
Q 241 956 241 2144 
Q 241 3472 731 4075 
Q 1159 4600 1884 4600 
Q 2425 4600 2770 4297 
Q 3116 3994 3184 3459 
z
M 888 1484 
Q 888 1194 1011 928 
Q 1134 663 1356 523 
Q 1578 384 1822 384 
Q 2178 384 2434 671 
Q 2691 959 2691 1453 
Q 2691 1928 2437 2201 
Q 2184 2475 1800 2475 
Q 1419 2475 1153 2201 
Q 888 1928 888 1484 
z
" transform="scale(0.015625)"/>
       </defs>
       <use xlink:href="#ArialMT-36"/>
       <use xlink:href="#ArialMT-30" x="55.615234"/>
      </g>
     </g>
    </g>
    <g id="ytick_4">
     <g id="line2d_23">
      <path d="M 135 259.005715 
L 972 259.005715 
" clip-path="url(#peee9218375)" style="fill: none; stroke: #cccccc; stroke-width: 0.8; stroke-linecap: round"/>
     </g>
     <g id="line2d_24"/>
     <g id="text_13">
      <!-- 80 -->
      <g style="fill: #262626" transform="translate(120.378125 262.584621) scale(0.1 -0.1)">
       <defs>
        <path id="ArialMT-38" d="M 1131 2484 
Q 781 2613 612 2850 
Q 444 3088 444 3419 
Q 444 3919 803 4259 
Q 1163 4600 1759 4600 
Q 2359 4600 2725 4251 
Q 3091 3903 3091 3403 
Q 3091 3084 2923 2848 
Q 2756 2613 2416 2484 
Q 2838 2347 3058 2040 
Q 3278 1734 3278 1309 
Q 3278 722 2862 322 
Q 2447 -78 1769 -78 
Q 1091 -78 675 323 
Q 259 725 259 1325 
Q 259 1772 486 2073 
Q 713 2375 1131 2484 
z
M 1019 3438 
Q 1019 3113 1228 2906 
Q 1438 2700 1772 2700 
Q 2097 2700 2305 2904 
Q 2513 3109 2513 3406 
Q 2513 3716 2298 3927 
Q 2084 4138 1766 4138 
Q 1444 4138 1231 3931 
Q 1019 3725 1019 3438 
z
M 838 1322 
Q 838 1081 952 856 
Q 1066 631 1291 507 
Q 1516 384 1775 384 
Q 2178 384 2440 643 
Q 2703 903 2703 1303 
Q 2703 1709 2433 1975 
Q 2163 2241 1756 2241 
Q 1359 2241 1098 1978 
Q 838 1716 838 1322 
z
" transform="scale(0.015625)"/>
       </defs>
       <use xlink:href="#ArialMT-38"/>
       <use xlink:href="#ArialMT-30" x="55.615234"/>
      </g>
     </g>
    </g>
    <g id="ytick_5">
     <g id="line2d_25">
      <path d="M 135 189.266785 
L 972 189.266785 
" clip-path="url(#peee9218375)" style="fill: none; stroke: #cccccc; stroke-width: 0.8; stroke-linecap: round"/>
     </g>
     <g id="line2d_26"/>
     <g id="text_14">
      <!-- 100 -->
      <g style="fill: #262626" transform="translate(114.817188 192.845691) scale(0.1 -0.1)">
       <use xlink:href="#ArialMT-31"/>
       <use xlink:href="#ArialMT-30" x="55.615234"/>
       <use xlink:href="#ArialMT-30" x="111.230469"/>
      </g>
     </g>
    </g>
    <g id="ytick_6">
     <g id="line2d_27">
      <path d="M 135 119.527855 
L 972 119.527855 
" clip-path="url(#peee9218375)" style="fill: none; stroke: #cccccc; stroke-width: 0.8; stroke-linecap: round"/>
     </g>
     <g id="line2d_28"/>
     <g id="text_15">
      <!-- 120 -->
      <g style="fill: #262626" transform="translate(114.817188 123.106762) scale(0.1 -0.1)">
       <use xlink:href="#ArialMT-31"/>
       <use xlink:href="#ArialMT-32" x="55.615234"/>
       <use xlink:href="#ArialMT-30" x="111.230469"/>
      </g>
     </g>
    </g>
    <g id="text_16">
     <!-- Adj Close -->
     <g style="fill: #262626" transform="translate(108.7125 312.278437) rotate(-90) scale(0.1 -0.1)">
      <defs>
       <path id="ArialMT-41" d="M -9 0 
L 1750 4581 
L 2403 4581 
L 4278 0 
L 3588 0 
L 3053 1388 
L 1138 1388 
L 634 0 
L -9 0 
z
M 1313 1881 
L 2866 1881 
L 2388 3150 
Q 2169 3728 2063 4100 
Q 1975 3659 1816 3225 
L 1313 1881 
z
" transform="scale(0.015625)"/>
       <path id="ArialMT-64" d="M 2575 0 
L 2575 419 
Q 2259 -75 1647 -75 
Q 1250 -75 917 144 
Q 584 363 401 755 
Q 219 1147 219 1656 
Q 219 2153 384 2558 
Q 550 2963 881 3178 
Q 1213 3394 1622 3394 
Q 1922 3394 2156 3267 
Q 2391 3141 2538 2938 
L 2538 4581 
L 3097 4581 
L 3097 0 
L 2575 0 
z
M 797 1656 
Q 797 1019 1065 703 
Q 1334 388 1700 388 
Q 2069 388 2326 689 
Q 2584 991 2584 1609 
Q 2584 2291 2321 2609 
Q 2059 2928 1675 2928 
Q 1300 2928 1048 2622 
Q 797 2316 797 1656 
z
" transform="scale(0.015625)"/>
       <path id="ArialMT-6a" d="M 419 3928 
L 419 4581 
L 981 4581 
L 981 3928 
L 419 3928 
z
M -294 -1288 
L -188 -809 
Q -19 -853 78 -853 
Q 250 -853 334 -739 
Q 419 -625 419 -169 
L 419 3319 
L 981 3319 
L 981 -181 
Q 981 -794 822 -1034 
Q 619 -1347 147 -1347 
Q -81 -1347 -294 -1288 
z
" transform="scale(0.015625)"/>
       <path id="ArialMT-20" transform="scale(0.015625)"/>
       <path id="ArialMT-43" d="M 3763 1606 
L 4369 1453 
Q 4178 706 3683 314 
Q 3188 -78 2472 -78 
Q 1731 -78 1267 223 
Q 803 525 561 1097 
Q 319 1669 319 2325 
Q 319 3041 592 3573 
Q 866 4106 1370 4382 
Q 1875 4659 2481 4659 
Q 3169 4659 3637 4309 
Q 4106 3959 4291 3325 
L 3694 3184 
Q 3534 3684 3231 3912 
Q 2928 4141 2469 4141 
Q 1941 4141 1586 3887 
Q 1231 3634 1087 3207 
Q 944 2781 944 2328 
Q 944 1744 1114 1308 
Q 1284 872 1643 656 
Q 2003 441 2422 441 
Q 2931 441 3284 734 
Q 3638 1028 3763 1606 
z
" transform="scale(0.015625)"/>
       <path id="ArialMT-6c" d="M 409 0 
L 409 4581 
L 972 4581 
L 972 0 
L 409 0 
z
" transform="scale(0.015625)"/>
       <path id="ArialMT-6f" d="M 213 1659 
Q 213 2581 725 3025 
Q 1153 3394 1769 3394 
Q 2453 3394 2887 2945 
Q 3322 2497 3322 1706 
Q 3322 1066 3130 698 
Q 2938 331 2570 128 
Q 2203 -75 1769 -75 
Q 1072 -75 642 372 
Q 213 819 213 1659 
z
M 791 1659 
Q 791 1022 1069 705 
Q 1347 388 1769 388 
Q 2188 388 2466 706 
Q 2744 1025 2744 1678 
Q 2744 2294 2464 2611 
Q 2184 2928 1769 2928 
Q 1347 2928 1069 2612 
Q 791 2297 791 1659 
z
" transform="scale(0.015625)"/>
       <path id="ArialMT-73" d="M 197 991 
L 753 1078 
Q 800 744 1014 566 
Q 1228 388 1613 388 
Q 2000 388 2187 545 
Q 2375 703 2375 916 
Q 2375 1106 2209 1216 
Q 2094 1291 1634 1406 
Q 1016 1563 777 1677 
Q 538 1791 414 1992 
Q 291 2194 291 2438 
Q 291 2659 392 2848 
Q 494 3038 669 3163 
Q 800 3259 1026 3326 
Q 1253 3394 1513 3394 
Q 1903 3394 2198 3281 
Q 2494 3169 2634 2976 
Q 2775 2784 2828 2463 
L 2278 2388 
Q 2241 2644 2061 2787 
Q 1881 2931 1553 2931 
Q 1166 2931 1000 2803 
Q 834 2675 834 2503 
Q 834 2394 903 2306 
Q 972 2216 1119 2156 
Q 1203 2125 1616 2013 
Q 2213 1853 2448 1751 
Q 2684 1650 2818 1456 
Q 2953 1263 2953 975 
Q 2953 694 2789 445 
Q 2625 197 2315 61 
Q 2006 -75 1616 -75 
Q 969 -75 630 194 
Q 291 463 197 991 
z
" transform="scale(0.015625)"/>
      </defs>
      <use xlink:href="#ArialMT-41"/>
      <use xlink:href="#ArialMT-64" x="66.699219"/>
      <use xlink:href="#ArialMT-6a" x="122.314453"/>
      <use xlink:href="#ArialMT-20" x="144.53125"/>
      <use xlink:href="#ArialMT-43" x="172.314453"/>
      <use xlink:href="#ArialMT-6c" x="244.53125"/>
      <use xlink:href="#ArialMT-6f" x="266.748047"/>
      <use xlink:href="#ArialMT-73" x="322.363281"/>
      <use xlink:href="#ArialMT-65" x="372.363281"/>
     </g>
    </g>
   </g>
   <g id="line2d_29">
    <path d="M 173.045455 227.11201 
L 179.839286 229.570656 
L 186.633117 225.336458 
L 193.426948 225.911456 
L 213.808442 224.955684 
L 220.602273 222.111383 
L 227.396104 222.436714 
L 234.189935 217.211525 
L 240.983766 221.35611 
L 268.159091 217.203505 
L 274.952922 217.366346 
L 281.746753 216.047582 
L 288.540584 216.789952 
L 308.922078 200.421876 
L 315.715909 197.706939 
L 322.50974 200.119907 
L 329.303571 200.265661 
L 336.097403 200.013904 
L 356.478896 197.96044 
L 363.272727 199.576641 
L 370.066558 199.056737 
L 376.86039 195.674764 
L 383.654221 160.152314 
L 404.035714 163.092038 
L 410.829545 188.499098 
L 417.623377 166.363455 
L 424.417208 189.316632 
L 431.211039 200.079982 
L 451.592532 214.156263 
L 458.386364 212.186662 
L 465.180195 214.426152 
L 471.974026 196.772087 
L 478.767857 197.548631 
L 505.943182 212.844472 
L 512.737013 217.234538 
L 519.530844 220.101854 
L 526.324675 222.849219 
L 546.706169 223.822773 
L 553.5 222.898384 
L 560.293831 225.036929 
L 567.087662 224.792493 
L 573.881494 220.761583 
L 594.262987 214.900026 
L 601.056818 201.752842 
L 607.850649 213.489208 
L 614.644481 212.341653 
L 621.438312 214.004929 
L 641.819805 221.381564 
L 648.613636 218.87166 
L 655.407468 210.50508 
L 662.201299 199.314073 
L 668.99513 196.169544 
L 689.376623 194.383531 
L 696.170455 195.379072 
L 702.964286 191.301104 
L 709.758117 163.476926 
L 716.551948 158.421917 
L 736.933442 177.941322 
L 743.727273 185.252194 
L 750.521104 191.952152 
L 757.314935 192.62447 
L 764.108766 190.732365 
L 784.49026 186.443142 
L 791.284091 186.923609 
L 798.077922 185.013859 
L 804.871753 165.862974 
L 832.047078 158.783722 
L 838.840909 153.650536 
L 845.63474 154.721743 
L 852.428571 157.327277 
L 859.222403 155.11188 
L 879.603896 151.761569 
L 886.397727 157.357475 
L 893.191558 159.14701 
L 899.98539 182.305722 
L 906.779221 165.090702 
L 927.160714 157.729914 
L 933.954545 152.576782 
" clip-path="url(#peee9218375)" style="fill: none; stroke: #1f77b4; stroke-width: 1.5; stroke-linecap: round"/>
   </g>
   <g id="line2d_30">
    <path d="M 173.045455 222.47492 
L 179.839286 224.945534 
L 186.633117 224.706596 
L 193.426948 225.595766 
L 213.808442 223.723171 
L 220.602273 220.442475 
L 227.396104 220.442475 
L 234.189935 211.870553 
L 240.983766 209.496733 
L 268.159091 210.354728 
L 274.952922 211.124617 
L 281.746753 222.55402 
L 288.540584 213.150003 
L 308.922078 205.938256 
L 315.715909 199.615642 
L 322.50974 202.65911 
L 329.303571 203.200068 
L 336.097403 202.467261 
L 356.478896 196.202348 
L 363.272727 198.887049 
L 370.066558 200.831705 
L 376.86039 195.938318 
L 383.654221 180.604212 
L 404.035714 184.994415 
L 410.829545 190.652063 
L 417.623377 171.436038 
L 424.417208 197.107339 
L 431.211039 198.617337 
L 451.592532 213.616313 
L 458.386364 209.874769 
L 465.180195 211.427523 
L 471.974026 208.446014 
L 478.767857 206.635088 
L 505.943182 215.658395 
L 512.737013 210.74415 
L 519.530844 217.54763 
L 526.324675 216.325267 
L 546.706169 222.281281 
L 553.5 222.830009 
L 560.293831 223.233616 
L 567.087662 223.275934 
L 573.881494 208.427526 
L 594.262987 210.183332 
L 601.056818 203.473144 
L 607.850649 207.394558 
L 614.644481 208.431513 
L 621.438312 209.132365 
L 641.819805 214.251844 
L 648.613636 208.831366 
L 655.407468 201.649853 
L 662.201299 194.939665 
L 668.99513 194.394421 
L 689.376623 189.14062 
L 696.170455 192.08436 
L 702.964286 189.184955 
L 709.758117 182.326443 
L 716.551948 167.032429 
L 736.933442 189.120211 
L 743.727273 187.88681 
L 750.521104 187.631369 
L 757.314935 193.045164 
L 764.108766 193.242975 
L 784.49026 194.541887 
L 791.284091 194.039929 
L 798.077922 191.064719 
L 804.871753 179.982012 
L 832.047078 164.804041 
L 838.840909 169.407315 
L 845.63474 162.997273 
L 852.428571 170.752301 
L 859.222403 164.54766 
L 879.603896 171.757591 
L 886.397727 172.261915 
L 893.191558 175.627259 
L 899.98539 190.195231 
L 906.779221 168.289883 
L 927.160714 173.149538 
L 933.954545 168.294017 
" clip-path="url(#peee9218375)" style="fill: none; stroke: #ff7f0e; stroke-width: 1.5; stroke-linecap: round"/>
   </g>
   <g id="line2d_31">
    <path d="M 173.045455 235.993467 
L 179.839286 214.317619 
L 186.633117 274.868841 
L 193.426948 303.636274 
L 213.808442 252.73371 
L 220.602273 255.853473 
L 227.396104 168.515396 
L 234.189935 187.374755 
L 240.983766 151.910986 
L 268.159091 204.238132 
L 274.952922 154.442892 
L 281.746753 169.509454 
L 288.540584 129.159319 
L 308.922078 121.902951 
L 315.715909 183.265616 
L 322.50974 180.358137 
L 329.303571 202.13844 
L 336.097403 157.164246 
L 356.478896 94.732346 
L 363.272727 134.568515 
L 370.066558 89.28 
L 376.86039 191.682741 
L 383.654221 201.834365 
L 404.035714 246.648062 
L 410.829545 144.169674 
L 417.623377 184.366787 
L 424.417208 211.58351 
L 431.211039 283.270223 
L 451.592532 375.321078 
L 458.386364 236.908126 
L 465.180195 254.162664 
L 471.974026 164.099475 
L 478.767857 172.918999 
L 505.943182 241.895642 
L 512.737013 305.456312 
L 519.530844 328.524934 
L 526.324675 257.299328 
L 546.706169 265.145558 
L 553.5 242.553792 
L 560.293831 285.39254 
L 567.087662 227.501881 
L 573.881494 309.767583 
L 594.262987 251.60005 
L 601.056818 220.739678 
L 607.850649 163.858944 
L 614.644481 162.406989 
L 621.438312 211.490245 
L 641.819805 154.79037 
L 648.613636 228.525383 
L 655.407468 102.428196 
L 662.201299 143.99072 
L 668.99513 151.60825 
L 689.376623 155.946154 
L 696.170455 222.910635 
L 702.964286 173.10606 
L 709.758117 227.007887 
L 716.551948 160.679213 
L 736.933442 139.249476 
L 743.727273 168.970641 
L 750.521104 124.760951 
L 757.314935 274.185651 
L 764.108766 176.368021 
L 784.49026 280.519857 
L 791.284091 186.812444 
L 798.077922 167.997471 
L 804.871753 223.461383 
L 832.047078 248.299802 
L 838.840909 257.079029 
L 845.63474 211.099325 
L 852.428571 234.394671 
L 859.222403 201.933407 
L 879.603896 252.303793 
L 886.397727 234.226061 
L 893.191558 285.599409 
L 899.98539 271.543784 
L 906.779221 354.154416 
L 927.160714 361.06671 
L 933.954545 492.48 
" clip-path="url(#peee9218375)" style="fill: none; stroke: #2ca02c; stroke-width: 1.5; stroke-linecap: round"/>
   </g>
   <g id="line2d_32">
    <path d="M 173.045455 246.836279 
L 179.839286 231.354228 
L 186.633117 231.354228 
L 193.426948 231.354228 
L 213.808442 246.836279 
L 220.602273 224.798779 
L 227.396104 230.20353 
L 234.189935 203.737618 
L 240.983766 203.737618 
L 268.159091 203.737618 
L 274.952922 203.737618 
L 281.746753 235.643184 
L 288.540584 203.737618 
L 308.922078 203.807346 
L 315.715909 203.807346 
L 322.50974 203.109967 
L 329.303571 203.807346 
L 336.097403 203.109967 
L 356.478896 203.109967 
L 363.272727 203.807346 
L 370.066558 203.807346 
L 376.86039 205.620573 
L 383.654221 154.711133 
L 404.035714 148.19056 
L 410.829545 181.52576 
L 417.623377 154.711133 
L 424.417208 184.210723 
L 431.211039 184.106093 
L 451.592532 219.951925 
L 458.386364 219.951925 
L 465.180195 219.951925 
L 471.974026 189.720079 
L 478.767857 189.720079 
L 505.943182 219.951925 
L 512.737013 200.669089 
L 519.530844 228.564661 
L 526.324675 228.564661 
L 546.706169 228.564661 
L 553.5 224.798779 
L 560.293831 225.42643 
L 567.087662 224.798779 
L 573.881494 201.192136 
L 594.262987 215.070195 
L 601.056818 198.576926 
L 607.850649 222.392777 
L 614.644481 213.431325 
L 621.438312 200.669089 
L 641.819805 246.836279 
L 648.613636 209.59569 
L 655.407468 222.392777 
L 662.201299 197.635462 
L 668.99513 203.807346 
L 689.376623 203.807346 
L 696.170455 203.807346 
L 702.964286 203.109967 
L 709.758117 148.19056 
L 716.551948 146.529025 
L 736.933442 203.807346 
L 743.727273 184.210723 
L 750.521104 207.887067 
L 757.314935 207.887067 
L 764.108766 184.106093 
L 784.49026 172.076138 
L 791.284091 172.076138 
L 798.077922 172.076138 
L 804.871753 148.19056 
L 832.047078 159.000089 
L 838.840909 148.19056 
L 845.63474 154.711133 
L 852.428571 159.000089 
L 859.222403 154.711133 
L 879.603896 153.035657 
L 886.397727 154.711133 
L 893.191558 154.711133 
L 899.98539 181.52576 
L 906.779221 159.000089 
L 927.160714 159.000089 
L 933.954545 160.339085 
" clip-path="url(#peee9218375)" style="fill: none; stroke: #d62728; stroke-width: 1.5; stroke-linecap: round"/>
   </g>
   <g id="line2d_33">
    <path d="M 173.045455 177.706715 
L 179.839286 177.960285 
L 186.633117 178.189548 
L 193.426948 178.522529 
L 213.808442 178.845499 
L 220.602273 179.116949 
L 227.396104 179.335298 
L 234.189935 179.429245 
L 240.983766 179.695728 
L 268.159091 179.923869 
L 274.952922 180.160155 
L 281.746753 180.3776 
L 288.540584 180.449843 
L 308.922078 180.284882 
L 315.715909 180.022604 
L 322.50974 179.811556 
L 329.303571 179.699646 
L 336.097403 179.56194 
L 356.478896 179.35809 
L 363.272727 179.14111 
L 370.066558 178.843263 
L 376.86039 178.443864 
L 383.654221 177.79833 
L 404.035714 177.310162 
L 410.829545 176.834883 
L 417.623377 176.230641 
L 424.417208 175.866235 
L 431.211039 175.61815 
L 451.592532 175.449854 
L 458.386364 175.264713 
L 465.180195 175.112333 
L 471.974026 174.870073 
L 478.767857 174.620281 
L 505.943182 174.448841 
L 512.737013 174.385069 
L 519.530844 174.340976 
L 526.324675 174.396068 
L 546.706169 174.503022 
L 553.5 174.616955 
L 560.293831 174.718953 
L 567.087662 174.806772 
L 573.881494 174.901629 
L 594.262987 175.095781 
L 601.056818 175.277702 
L 607.850649 175.44927 
L 614.644481 175.528505 
L 621.438312 175.744207 
L 641.819805 176.055174 
L 648.613636 176.264492 
L 655.407468 176.440512 
L 662.201299 176.580166 
L 668.99513 176.767767 
L 689.376623 176.802949 
L 696.170455 176.808319 
L 702.964286 176.795817 
L 709.758117 176.61685 
L 716.551948 176.238733 
L 736.933442 175.85412 
L 743.727273 175.583064 
L 750.521104 175.373673 
L 757.314935 175.206435 
L 764.108766 175.020252 
L 784.49026 174.703621 
L 791.284091 174.280245 
L 798.077922 173.83691 
L 804.871753 173.377976 
L 832.047078 172.730379 
L 838.840909 172.182755 
L 845.63474 171.677202 
L 852.428571 171.215993 
L 859.222403 170.703466 
L 879.603896 170.204795 
L 886.397727 169.868431 
L 893.191558 169.542003 
L 899.98539 169.228993 
L 906.779221 168.825011 
L 927.160714 168.375622 
L 933.954545 167.908091 
" clip-path="url(#peee9218375)" style="fill: none; stroke: #9467bd; stroke-width: 1.5; stroke-linecap: round"/>
   </g>
   <g id="line2d_34">
    <path d="M 173.045455 229.799053 
L 179.839286 229.799053 
L 186.633117 229.799053 
L 193.426948 229.799053 
L 213.808442 229.799053 
L 220.602273 229.799053 
L 227.396104 229.799053 
L 234.189935 229.799053 
L 240.983766 229.799053 
L 268.159091 223.515574 
L 274.952922 216.771821 
L 281.746753 220.070469 
L 288.540584 203.584187 
L 308.922078 194.831954 
L 315.715909 190.054833 
L 322.50974 193.144268 
L 329.303571 198.256133 
L 336.097403 198.256133 
L 356.478896 203.667875 
L 363.272727 203.667875 
L 370.066558 208.068405 
L 376.86039 208.068405 
L 383.654221 203.667875 
L 404.035714 203.667875 
L 410.829545 208.068405 
L 417.623377 208.068405 
L 424.417208 208.068405 
L 431.211039 209.086593 
L 451.592532 209.086593 
L 458.386364 208.975014 
L 465.180195 210.892834 
L 471.974026 212.434064 
L 478.767857 215.509548 
L 505.943182 215.509548 
L 512.737013 219.84731 
L 519.530844 223.376098 
L 526.324675 225.426419 
L 546.706169 226.15868 
L 553.5 227.009496 
L 560.293831 229.220219 
L 567.087662 230.126827 
L 573.881494 229.799053 
L 594.262987 223.585312 
L 601.056818 216.025615 
L 607.850649 208.30551 
L 614.644481 197.321628 
L 621.438312 197.440183 
L 641.819805 205.836751 
L 648.613636 205.976232 
L 655.407468 199.420772 
L 662.201299 196.547531 
L 668.99513 194.831954 
L 689.376623 192.579384 
L 696.170455 192.579384 
L 702.964286 188.750719 
L 709.758117 193.144268 
L 716.551948 193.144268 
L 736.933442 198.256133 
L 743.727273 203.667875 
L 750.521104 203.667875 
L 757.314935 208.068405 
L 764.108766 209.086593 
L 784.49026 209.086593 
L 791.284091 207.524443 
L 798.077922 209.170282 
L 804.871753 212.650253 
L 832.047078 207.189693 
L 838.840909 207.517467 
L 845.63474 208.026558 
L 852.428571 200.710941 
L 859.222403 210.774269 
L 879.603896 210.774269 
L 886.397727 210.774269 
L 893.191558 210.774269 
L 899.98539 210.774269 
L 906.779221 204.951069 
L 927.160714 199.155766 
L 933.954545 194.915637 
" clip-path="url(#peee9218375)" style="fill: none; stroke: #8c564b; stroke-width: 1.5; stroke-linecap: round"/>
   </g>
   <g id="line2d_35">
    <path d="M 173.045455 229.213196 
L 179.839286 228.441407 
L 186.633117 225.386339 
L 193.426948 226.398488 
L 213.808442 227.579328 
L 220.602273 226.57923 
L 227.396104 221.824238 
L 234.189935 222.295249 
L 240.983766 221.663528 
L 268.159091 221.476214 
L 274.952922 223.3319 
L 281.746753 217.684979 
L 288.540584 217.341078 
L 308.922078 215.214597 
L 315.715909 212.306379 
L 322.50974 209.134601 
L 329.303571 208.69179 
L 336.097403 208.189653 
L 356.478896 207.317384 
L 363.272727 206.99011 
L 370.066558 207.365642 
L 376.86039 209.389541 
L 383.654221 197.077884 
L 404.035714 197.81538 
L 410.829545 197.881037 
L 417.623377 197.55951 
L 424.417208 200.961618 
L 431.211039 202.403251 
L 451.592532 209.24136 
L 458.386364 210.794381 
L 465.180195 216.24348 
L 471.974026 226.144559 
L 478.767857 222.826437 
L 505.943182 212.65286 
L 512.737013 211.600992 
L 519.530844 222.657799 
L 526.324675 225.711511 
L 546.706169 225.18849 
L 553.5 226.145543 
L 560.293831 225.061513 
L 567.087662 224.224467 
L 573.881494 222.344625 
L 594.262987 215.216034 
L 601.056818 214.609426 
L 607.850649 212.441976 
L 614.644481 209.5017 
L 621.438312 209.086157 
L 641.819805 209.662304 
L 648.613636 209.86127 
L 655.407468 200.04846 
L 662.201299 198.730214 
L 668.99513 200.962177 
L 689.376623 201.012404 
L 696.170455 202.457468 
L 702.964286 201.956847 
L 709.758117 198.487459 
L 716.551948 189.182054 
L 736.933442 195.683738 
L 743.727273 194.073255 
L 750.521104 194.733442 
L 757.314935 201.024163 
L 764.108766 206.614206 
L 784.49026 206.940256 
L 791.284091 207.860118 
L 798.077922 205.309474 
L 804.871753 199.092524 
L 832.047078 189.252925 
L 838.840909 184.484099 
L 845.63474 179.672814 
L 852.428571 178.757661 
L 859.222403 179.560362 
L 879.603896 181.550128 
L 886.397727 181.846436 
L 893.191558 178.195081 
L 899.98539 189.914921 
L 906.779221 192.100515 
L 927.160714 186.668442 
L 933.954545 178.139693 
" clip-path="url(#peee9218375)" style="fill: none; stroke: #e377c2; stroke-width: 1.5; stroke-linecap: round"/>
   </g>
   <g id="line2d_36">
    <path d="M 173.045455 230.220985 
L 179.839286 223.442941 
L 186.633117 229.397469 
L 193.426948 232.855288 
L 213.808442 225.00726 
L 220.602273 227.541567 
L 227.396104 223.856001 
L 234.189935 221.018621 
L 240.983766 218.449983 
L 268.159091 215.636591 
L 274.952922 220.579181 
L 281.746753 217.7586 
L 288.540584 214.080483 
L 308.922078 197.506671 
L 315.715909 189.424216 
L 322.50974 197.609065 
L 329.303571 201.433688 
L 336.097403 196.918664 
L 356.478896 193.498073 
L 363.272727 200.304238 
L 370.066558 195.904231 
L 376.86039 187.826285 
L 383.654221 166.094393 
L 404.035714 176.642383 
L 410.829545 180.880446 
L 417.623377 166.255899 
L 424.417208 191.281221 
L 431.211039 206.008333 
L 451.592532 207.729978 
L 458.386364 205.565844 
L 465.180195 200.852562 
L 471.974026 201.197655 
L 478.767857 199.445692 
L 505.943182 205.300657 
L 512.737013 211.2299 
L 519.530844 216.043015 
L 526.324675 220.030629 
L 546.706169 213.158405 
L 553.5 216.27568 
L 560.293831 213.411153 
L 567.087662 211.027942 
L 573.881494 212.002612 
L 594.262987 207.169696 
L 601.056818 206.718655 
L 607.850649 208.905844 
L 614.644481 204.71615 
L 621.438312 210.785333 
L 641.819805 210.442576 
L 648.613636 211.896989 
L 655.407468 207.806616 
L 662.201299 200.768102 
L 668.99513 188.525839 
L 689.376623 181.456524 
L 696.170455 183.679544 
L 702.964286 175.349322 
L 709.758117 177.970042 
L 716.551948 173.142837 
L 736.933442 171.824373 
L 743.727273 178.916851 
L 750.521104 184.095125 
L 757.314935 184.362809 
L 764.108766 185.625689 
L 784.49026 178.121731 
L 791.284091 175.676747 
L 798.077922 173.620626 
L 804.871753 174.341034 
L 832.047078 159.362602 
L 838.840909 167.553568 
L 845.63474 169.360223 
L 852.428571 172.274948 
L 859.222403 167.423893 
L 879.603896 161.595306 
L 886.397727 171.503812 
L 893.191558 174.73458 
L 899.98539 173.047799 
L 906.779221 172.632841 
L 927.160714 170.56017 
L 933.954545 168.863746 
" clip-path="url(#peee9218375)" style="fill: none; stroke: #7f7f7f; stroke-width: 1.5; stroke-linecap: round"/>
   </g>
   <g id="line2d_37">
    <path d="M 173.045455 226.798488 
L 179.839286 223.98729 
L 186.633117 226.736312 
L 193.426948 232.771641 
L 213.808442 228.602988 
L 220.602273 226.778651 
L 227.396104 225.464704 
L 234.189935 216.419809 
L 240.983766 216.977867 
L 268.159091 214.466664 
L 274.952922 216.391562 
L 281.746753 217.847993 
L 288.540584 211.579756 
L 308.922078 195.353462 
L 315.715909 188.488409 
L 322.50974 193.684816 
L 329.303571 201.262135 
L 336.097403 194.869912 
L 356.478896 189.995396 
L 363.272727 197.515122 
L 370.066558 192.279897 
L 376.86039 186.681733 
L 383.654221 164.958534 
L 404.035714 174.103344 
L 410.829545 179.715237 
L 417.623377 166.688267 
L 424.417208 188.847825 
L 431.211039 203.870114 
L 451.592532 206.711976 
L 458.386364 206.11114 
L 465.180195 205.461148 
L 471.974026 199.659398 
L 478.767857 202.872883 
L 505.943182 206.242158 
L 512.737013 214.822271 
L 519.530844 216.690562 
L 526.324675 219.026554 
L 546.706169 223.983897 
L 553.5 221.739413 
L 560.293831 220.7 
L 567.087662 220.358282 
L 573.881494 215.489671 
L 594.262987 210.260283 
L 601.056818 205.258014 
L 607.850649 209.289516 
L 614.644481 208.176185 
L 621.438312 213.664399 
L 641.819805 218.245577 
L 648.613636 216.984618 
L 655.407468 209.300382 
L 662.201299 201.499396 
L 668.99513 188.342268 
L 689.376623 183.791318 
L 696.170455 184.931211 
L 702.964286 173.945355 
L 709.758117 177.992323 
L 716.551948 172.010631 
L 736.933442 171.96379 
L 743.727273 180.340397 
L 750.521104 185.553141 
L 757.314935 184.321632 
L 764.108766 185.956218 
L 784.49026 178.047982 
L 791.284091 174.940617 
L 798.077922 173.819037 
L 804.871753 174.318531 
L 832.047078 163.163787 
L 838.840909 168.017984 
L 845.63474 170.540773 
L 852.428571 173.486639 
L 859.222403 164.75508 
L 879.603896 160.529502 
L 886.397727 169.067511 
L 893.191558 173.300441 
L 899.98539 173.366714 
L 906.779221 170.944699 
L 927.160714 170.499434 
L 933.954545 167.873585 
" clip-path="url(#peee9218375)" style="fill: none; stroke: #bcbd22; stroke-width: 1.5; stroke-linecap: round"/>
   </g>
   <g id="line2d_38">
    <path d="M 458.386364 479.839483 
L 465.180195 479.896694 
L 471.974026 480.169105 
L 478.767857 480.203097 
L 505.943182 480.335063 
L 512.737013 480.379065 
L 519.530844 480.989158 
L 526.324675 481.035767 
L 546.706169 481.645561 
L 553.5 481.655524 
L 560.293831 482.087288 
L 567.087662 482.079314 
L 573.881494 481.799753 
L 594.262987 481.730312 
L 601.056818 481.604545 
L 607.850649 481.593225 
L 614.644481 481.529464 
L 621.438312 481.194123 
L 641.819805 481.21502 
L 648.613636 481.226905 
L 655.407468 481.769632 
L 662.201299 482.538317 
L 668.99513 483.380012 
L 689.376623 484.060438 
L 696.170455 484.847952 
L 702.964286 485.501541 
L 709.758117 486.254531 
L 716.551948 486.503125 
L 736.933442 487.272326 
L 743.727273 487.329045 
L 750.521104 487.748199 
L 757.314935 487.699489 
L 764.108766 487.581959 
L 784.49026 487.494856 
L 791.284091 487.096159 
L 798.077922 486.897732 
L 804.871753 487.013529 
L 832.047078 486.995559 
L 838.840909 487.082831 
L 845.63474 487.296888 
L 852.428571 486.868292 
L 859.222403 487.265074 
L 879.603896 487.893822 
L 886.397727 488.79446 
L 893.191558 489.274337 
L 899.98539 489.810706 
L 906.779221 489.957194 
L 927.160714 490.11278 
L 933.954545 490.107579 
" clip-path="url(#peee9218375)" style="fill: none; stroke: #17becf; stroke-width: 1.5; stroke-linecap: round"/>
   </g>
   <g id="line2d_39">
    <path d="M 458.386364 478.52834 
L 465.180195 478.430759 
L 471.974026 478.34652 
L 478.767857 478.61935 
L 505.943182 478.908095 
L 512.737013 479.438252 
L 519.530844 480.457019 
L 526.324675 480.805289 
L 546.706169 481.284601 
L 553.5 481.536993 
L 560.293831 481.631202 
L 567.087662 481.32005 
L 573.881494 480.886702 
L 594.262987 480.587927 
L 601.056818 480.374263 
L 607.850649 480.171479 
L 614.644481 479.827432 
L 621.438312 479.760598 
L 641.819805 480.601674 
L 648.613636 481.530109 
L 655.407468 482.689331 
L 662.201299 484.448793 
L 668.99513 485.337725 
L 689.376623 486.131165 
L 696.170455 486.71508 
L 702.964286 487.129483 
L 709.758117 487.344055 
L 716.551948 487.58158 
L 736.933442 488.165415 
L 743.727273 487.864579 
L 750.521104 487.964158 
L 757.314935 487.620557 
L 764.108766 487.155691 
L 784.49026 486.578054 
L 791.284091 485.961077 
L 798.077922 485.873359 
L 804.871753 486.508306 
L 832.047078 486.469043 
L 838.840909 486.659716 
L 845.63474 486.771749 
L 852.428571 488.114906 
L 859.222403 488.844544 
L 879.603896 489.744414 
L 886.397727 490.131721 
L 893.191558 490.292279 
L 899.98539 490.121306 
L 906.779221 489.917432 
L 927.160714 489.509763 
L 933.954545 489.575014 
" clip-path="url(#peee9218375)" style="fill: none; stroke: #1f77b4; stroke-width: 1.5; stroke-linecap: round"/>
   </g>
   <g id="line2d_40">
    <path d="M 173.045455 225.182345 
L 179.839286 228.634414 
L 186.633117 235.399099 
L 193.426948 230.552219 
L 213.808442 228.320575 
L 220.602273 226.786337 
L 227.396104 216.255744 
L 234.189935 217.47617 
L 240.983766 214.372789 
L 268.159091 216.604433 
L 274.952922 217.92949 
L 281.746753 210.502277 
L 288.540584 191.777391 
L 308.922078 185.047583 
L 315.715909 192.021476 
L 322.50974 200.669089 
L 329.303571 192.195808 
L 336.097403 186.791056 
L 356.478896 196.415036 
L 363.272727 189.720079 
L 370.066558 184.280451 
L 376.86039 158.581645 
L 383.654221 171.06492 
L 404.035714 177.167077 
L 410.829545 161.231732 
L 417.623377 189.266785 
L 424.417208 205.097525 
L 431.211039 207.189688 
L 451.592532 206.701518 
L 458.386364 206.875876 
L 465.180195 199.378935 
L 471.974026 203.981704 
L 478.767857 208.131179 
L 505.943182 216.987999 
L 512.737013 217.859736 
L 519.530844 220.405218 
L 526.324675 226.402771 
L 546.706169 223.787561 
L 553.5 223.090156 
L 560.293831 222.3579 
L 567.087662 216.081412 
L 573.881494 210.118737 
L 594.262987 204.679082 
L 601.056818 209.59569 
L 607.850649 207.921944 
L 614.644481 214.86096 
L 621.438312 220.614427 
L 641.819805 218.347906 
L 648.613636 209.316728 
L 655.407468 201.29674 
L 662.201299 185.535754 
L 668.99513 180.6889 
L 689.376623 182.536977 
L 696.170455 168.90303 
L 702.964286 174.551867 
L 709.758117 167.438493 
L 716.551948 168.135898 
L 736.933442 178.596737 
L 743.727273 184.524536 
L 750.521104 182.641582 
L 757.314935 184.664017 
L 764.108766 175.318999 
L 784.49026 172.145865 
L 791.284091 171.41361 
L 798.077922 172.006411 
L 804.871753 158.232956 
L 832.047078 165.032518 
L 838.840909 167.926663 
L 845.63474 171.06492 
L 852.428571 160.708685 
L 859.222403 156.280275 
L 879.603896 166.880595 
L 886.397727 171.41361 
L 893.191558 171.762326 
L 899.98539 168.693796 
L 906.779221 168.658919 
L 927.160714 165.625292 
L 933.954545 173.19196 
" clip-path="url(#peee9218375)" style="fill: none; stroke: #000000; stroke-width: 2; stroke-linecap: round"/>
   </g>
   <g id="patch_3">
    <path d="M 135 512.64 
L 135 69.12 
" style="fill: none; stroke: #cccccc; stroke-linejoin: miter; stroke-linecap: square"/>
   </g>
   <g id="patch_4">
    <path d="M 972 512.64 
L 972 69.12 
" style="fill: none; stroke: #cccccc; stroke-linejoin: miter; stroke-linecap: square"/>
   </g>
   <g id="patch_5">
    <path d="M 135 512.64 
L 972 512.64 
" style="fill: none; stroke: #cccccc; stroke-linejoin: miter; stroke-linecap: square"/>
   </g>
   <g id="patch_6">
    <path d="M 135 69.12 
L 972 69.12 
" style="fill: none; stroke: #cccccc; stroke-linejoin: miter; stroke-linecap: square"/>
   </g>
   <g id="text_17">
    <!-- Tahminler ve Gerçek Değerler -->
    <g style="fill: #262626" transform="translate(473.811563 63.12) scale(0.12 -0.12)">
     <defs>
      <path id="ArialMT-54" d="M 1659 0 
L 1659 4041 
L 150 4041 
L 150 4581 
L 3781 4581 
L 3781 4041 
L 2266 4041 
L 2266 0 
L 1659 0 
z
" transform="scale(0.015625)"/>
      <path id="ArialMT-68" d="M 422 0 
L 422 4581 
L 984 4581 
L 984 2938 
Q 1378 3394 1978 3394 
Q 2347 3394 2619 3248 
Q 2891 3103 3008 2847 
Q 3125 2591 3125 2103 
L 3125 0 
L 2563 0 
L 2563 2103 
Q 2563 2525 2380 2717 
Q 2197 2909 1863 2909 
Q 1613 2909 1392 2779 
Q 1172 2650 1078 2428 
Q 984 2206 984 1816 
L 984 0 
L 422 0 
z
" transform="scale(0.015625)"/>
      <path id="ArialMT-6d" d="M 422 0 
L 422 3319 
L 925 3319 
L 925 2853 
Q 1081 3097 1340 3245 
Q 1600 3394 1931 3394 
Q 2300 3394 2536 3241 
Q 2772 3088 2869 2813 
Q 3263 3394 3894 3394 
Q 4388 3394 4653 3120 
Q 4919 2847 4919 2278 
L 4919 0 
L 4359 0 
L 4359 2091 
Q 4359 2428 4304 2576 
Q 4250 2725 4106 2815 
Q 3963 2906 3769 2906 
Q 3419 2906 3187 2673 
Q 2956 2441 2956 1928 
L 2956 0 
L 2394 0 
L 2394 2156 
Q 2394 2531 2256 2718 
Q 2119 2906 1806 2906 
Q 1569 2906 1367 2781 
Q 1166 2656 1075 2415 
Q 984 2175 984 1722 
L 984 0 
L 422 0 
z
" transform="scale(0.015625)"/>
      <path id="ArialMT-69" d="M 425 3934 
L 425 4581 
L 988 4581 
L 988 3934 
L 425 3934 
z
M 425 0 
L 425 3319 
L 988 3319 
L 988 0 
L 425 0 
z
" transform="scale(0.015625)"/>
      <path id="ArialMT-6e" d="M 422 0 
L 422 3319 
L 928 3319 
L 928 2847 
Q 1294 3394 1984 3394 
Q 2284 3394 2536 3286 
Q 2788 3178 2913 3003 
Q 3038 2828 3088 2588 
Q 3119 2431 3119 2041 
L 3119 0 
L 2556 0 
L 2556 2019 
Q 2556 2363 2490 2533 
Q 2425 2703 2258 2804 
Q 2091 2906 1866 2906 
Q 1506 2906 1245 2678 
Q 984 2450 984 1813 
L 984 0 
L 422 0 
z
" transform="scale(0.015625)"/>
      <path id="ArialMT-72" d="M 416 0 
L 416 3319 
L 922 3319 
L 922 2816 
Q 1116 3169 1280 3281 
Q 1444 3394 1641 3394 
Q 1925 3394 2219 3213 
L 2025 2691 
Q 1819 2813 1613 2813 
Q 1428 2813 1281 2702 
Q 1134 2591 1072 2394 
Q 978 2094 978 1738 
L 978 0 
L 416 0 
z
" transform="scale(0.015625)"/>
      <path id="ArialMT-76" d="M 1344 0 
L 81 3319 
L 675 3319 
L 1388 1331 
Q 1503 1009 1600 663 
Q 1675 925 1809 1294 
L 2547 3319 
L 3125 3319 
L 1869 0 
L 1344 0 
z
" transform="scale(0.015625)"/>
      <path id="ArialMT-47" d="M 2638 1797 
L 2638 2334 
L 4578 2338 
L 4578 638 
Q 4131 281 3656 101 
Q 3181 -78 2681 -78 
Q 2006 -78 1454 211 
Q 903 500 622 1047 
Q 341 1594 341 2269 
Q 341 2938 620 3517 
Q 900 4097 1425 4378 
Q 1950 4659 2634 4659 
Q 3131 4659 3532 4498 
Q 3934 4338 4162 4050 
Q 4391 3763 4509 3300 
L 3963 3150 
Q 3859 3500 3706 3700 
Q 3553 3900 3268 4020 
Q 2984 4141 2638 4141 
Q 2222 4141 1919 4014 
Q 1616 3888 1430 3681 
Q 1244 3475 1141 3228 
Q 966 2803 966 2306 
Q 966 1694 1177 1281 
Q 1388 869 1791 669 
Q 2194 469 2647 469 
Q 3041 469 3416 620 
Q 3791 772 3984 944 
L 3984 1797 
L 2638 1797 
z
" transform="scale(0.015625)"/>
      <path id="ArialMT-e7" d="M 2588 1216 
L 3141 1144 
Q 3050 572 2676 248 
Q 2303 -75 1759 -75 
Q 1078 -75 664 370 
Q 250 816 250 1647 
Q 250 2184 428 2587 
Q 606 2991 970 3192 
Q 1334 3394 1763 3394 
Q 2303 3394 2647 3120 
Q 2991 2847 3088 2344 
L 2541 2259 
Q 2463 2594 2264 2762 
Q 2066 2931 1784 2931 
Q 1359 2931 1093 2626 
Q 828 2322 828 1663 
Q 828 994 1084 691 
Q 1341 388 1753 388 
Q 2084 388 2306 591 
Q 2528 794 2588 1216 
z
M 1283 -417 
L 1446 136 
L 1864 136 
L 1761 -199 
Q 2027 -230 2161 -362 
Q 2296 -495 2296 -658 
Q 2296 -892 2071 -1072 
Q 1846 -1252 1392 -1252 
Q 1136 -1252 942 -1214 
L 977 -849 
Q 1177 -861 1271 -861 
Q 1564 -861 1683 -780 
Q 1774 -717 1774 -627 
Q 1774 -570 1738 -526 
Q 1702 -483 1605 -451 
Q 1508 -420 1283 -417 
z
" transform="scale(0.015625)"/>
      <path id="ArialMT-6b" d="M 425 0 
L 425 4581 
L 988 4581 
L 988 1969 
L 2319 3319 
L 3047 3319 
L 1778 2088 
L 3175 0 
L 2481 0 
L 1384 1697 
L 988 1316 
L 988 0 
L 425 0 
z
" transform="scale(0.015625)"/>
      <path id="ArialMT-11f" d="M 319 -275 
L 866 -356 
Q 900 -609 1056 -725 
Q 1266 -881 1628 -881 
Q 2019 -881 2231 -725 
Q 2444 -569 2519 -288 
Q 2563 -116 2559 434 
Q 2191 0 1641 0 
Q 956 0 581 494 
Q 206 988 206 1678 
Q 206 2153 378 2554 
Q 550 2956 876 3175 
Q 1203 3394 1644 3394 
Q 2231 3394 2613 2919 
L 2613 3319 
L 3131 3319 
L 3131 450 
Q 3131 -325 2973 -648 
Q 2816 -972 2473 -1159 
Q 2131 -1347 1631 -1347 
Q 1038 -1347 672 -1080 
Q 306 -813 319 -275 
z
M 784 1719 
Q 784 1066 1043 766 
Q 1303 466 1694 466 
Q 2081 466 2343 764 
Q 2606 1063 2606 1700 
Q 2606 2309 2336 2618 
Q 2066 2928 1684 2928 
Q 1309 2928 1046 2623 
Q 784 2319 784 1719 
z
M 2318 4575 
L 2703 4575 
Q 2656 4184 2417 3975 
Q 2178 3766 1781 3766 
Q 1381 3766 1142 3973 
Q 903 4181 856 4575 
L 1240 4575 
Q 1284 4363 1413 4258 
Q 1543 4153 1762 4153 
Q 2015 4153 2145 4254 
Q 2275 4356 2318 4575 
z
" transform="scale(0.015625)"/>
     </defs>
     <use xlink:href="#ArialMT-54"/>
     <use xlink:href="#ArialMT-61" x="49.958984"/>
     <use xlink:href="#ArialMT-68" x="105.574219"/>
     <use xlink:href="#ArialMT-6d" x="161.189453"/>
     <use xlink:href="#ArialMT-69" x="244.490234"/>
     <use xlink:href="#ArialMT-6e" x="266.707031"/>
     <use xlink:href="#ArialMT-6c" x="322.322266"/>
     <use xlink:href="#ArialMT-65" x="344.539062"/>
     <use xlink:href="#ArialMT-72" x="400.154297"/>
     <use xlink:href="#ArialMT-20" x="433.455078"/>
     <use xlink:href="#ArialMT-76" x="461.238281"/>
     <use xlink:href="#ArialMT-65" x="511.238281"/>
     <use xlink:href="#ArialMT-20" x="566.853516"/>
     <use xlink:href="#ArialMT-47" x="594.636719"/>
     <use xlink:href="#ArialMT-65" x="672.419922"/>
     <use xlink:href="#ArialMT-72" x="728.035156"/>
     <use xlink:href="#ArialMT-e7" x="761.335938"/>
     <use xlink:href="#ArialMT-65" x="811.335938"/>
     <use xlink:href="#ArialMT-6b" x="866.951172"/>
     <use xlink:href="#ArialMT-20" x="916.951172"/>
     <use xlink:href="#ArialMT-44" x="944.734375"/>
     <use xlink:href="#ArialMT-65" x="1016.951172"/>
     <use xlink:href="#ArialMT-11f" x="1072.566406"/>
     <use xlink:href="#ArialMT-65" x="1128.181641"/>
     <use xlink:href="#ArialMT-72" x="1183.796875"/>
     <use xlink:href="#ArialMT-6c" x="1217.097656"/>
     <use xlink:href="#ArialMT-65" x="1239.314453"/>
     <use xlink:href="#ArialMT-72" x="1294.929688"/>
    </g>
   </g>
   <g id="legend_1">
    <g id="line2d_41">
     <path d="M 144 341.724375 
L 154 341.724375 
L 164 341.724375 
" style="fill: none; stroke: #1f77b4; stroke-width: 1.5; stroke-linecap: round"/>
    </g>
    <g id="text_18">
     <!-- Random Forest -->
     <g style="fill: #262626" transform="translate(172 345.224375) scale(0.1 -0.1)">
      <defs>
       <path id="ArialMT-52" d="M 503 0 
L 503 4581 
L 2534 4581 
Q 3147 4581 3465 4457 
Q 3784 4334 3975 4021 
Q 4166 3709 4166 3331 
Q 4166 2844 3850 2509 
Q 3534 2175 2875 2084 
Q 3116 1969 3241 1856 
Q 3506 1613 3744 1247 
L 4541 0 
L 3778 0 
L 3172 953 
Q 2906 1366 2734 1584 
Q 2563 1803 2427 1890 
Q 2291 1978 2150 2013 
Q 2047 2034 1813 2034 
L 1109 2034 
L 1109 0 
L 503 0 
z
M 1109 2559 
L 2413 2559 
Q 2828 2559 3062 2645 
Q 3297 2731 3419 2920 
Q 3541 3109 3541 3331 
Q 3541 3656 3305 3865 
Q 3069 4075 2559 4075 
L 1109 4075 
L 1109 2559 
z
" transform="scale(0.015625)"/>
       <path id="ArialMT-46" d="M 525 0 
L 525 4581 
L 3616 4581 
L 3616 4041 
L 1131 4041 
L 1131 2622 
L 3281 2622 
L 3281 2081 
L 1131 2081 
L 1131 0 
L 525 0 
z
" transform="scale(0.015625)"/>
      </defs>
      <use xlink:href="#ArialMT-52"/>
      <use xlink:href="#ArialMT-61" x="72.216797"/>
      <use xlink:href="#ArialMT-6e" x="127.832031"/>
      <use xlink:href="#ArialMT-64" x="183.447266"/>
      <use xlink:href="#ArialMT-6f" x="239.0625"/>
      <use xlink:href="#ArialMT-6d" x="294.677734"/>
      <use xlink:href="#ArialMT-20" x="377.978516"/>
      <use xlink:href="#ArialMT-46" x="405.761719"/>
      <use xlink:href="#ArialMT-6f" x="466.845703"/>
      <use xlink:href="#ArialMT-72" x="522.460938"/>
      <use xlink:href="#ArialMT-65" x="555.761719"/>
      <use xlink:href="#ArialMT-73" x="611.376953"/>
      <use xlink:href="#ArialMT-74" x="661.376953"/>
     </g>
    </g>
    <g id="line2d_42">
     <path d="M 144 355.991562 
L 154 355.991562 
L 164 355.991562 
" style="fill: none; stroke: #ff7f0e; stroke-width: 1.5; stroke-linecap: round"/>
    </g>
    <g id="text_19">
     <!-- Gradient Boosting -->
     <g style="fill: #262626" transform="translate(172 359.491562) scale(0.1 -0.1)">
      <defs>
       <path id="ArialMT-42" d="M 469 0 
L 469 4581 
L 2188 4581 
Q 2713 4581 3030 4442 
Q 3347 4303 3526 4014 
Q 3706 3725 3706 3409 
Q 3706 3116 3547 2856 
Q 3388 2597 3066 2438 
Q 3481 2316 3704 2022 
Q 3928 1728 3928 1328 
Q 3928 1006 3792 729 
Q 3656 453 3456 303 
Q 3256 153 2954 76 
Q 2653 0 2216 0 
L 469 0 
z
M 1075 2656 
L 2066 2656 
Q 2469 2656 2644 2709 
Q 2875 2778 2992 2937 
Q 3109 3097 3109 3338 
Q 3109 3566 3000 3739 
Q 2891 3913 2687 3977 
Q 2484 4041 1991 4041 
L 1075 4041 
L 1075 2656 
z
M 1075 541 
L 2216 541 
Q 2509 541 2628 563 
Q 2838 600 2978 687 
Q 3119 775 3209 942 
Q 3300 1109 3300 1328 
Q 3300 1584 3169 1773 
Q 3038 1963 2805 2039 
Q 2572 2116 2134 2116 
L 1075 2116 
L 1075 541 
z
" transform="scale(0.015625)"/>
       <path id="ArialMT-67" d="M 319 -275 
L 866 -356 
Q 900 -609 1056 -725 
Q 1266 -881 1628 -881 
Q 2019 -881 2231 -725 
Q 2444 -569 2519 -288 
Q 2563 -116 2559 434 
Q 2191 0 1641 0 
Q 956 0 581 494 
Q 206 988 206 1678 
Q 206 2153 378 2554 
Q 550 2956 876 3175 
Q 1203 3394 1644 3394 
Q 2231 3394 2613 2919 
L 2613 3319 
L 3131 3319 
L 3131 450 
Q 3131 -325 2973 -648 
Q 2816 -972 2473 -1159 
Q 2131 -1347 1631 -1347 
Q 1038 -1347 672 -1080 
Q 306 -813 319 -275 
z
M 784 1719 
Q 784 1066 1043 766 
Q 1303 466 1694 466 
Q 2081 466 2343 764 
Q 2606 1063 2606 1700 
Q 2606 2309 2336 2618 
Q 2066 2928 1684 2928 
Q 1309 2928 1046 2623 
Q 784 2319 784 1719 
z
" transform="scale(0.015625)"/>
      </defs>
      <use xlink:href="#ArialMT-47"/>
      <use xlink:href="#ArialMT-72" x="77.783203"/>
      <use xlink:href="#ArialMT-61" x="111.083984"/>
      <use xlink:href="#ArialMT-64" x="166.699219"/>
      <use xlink:href="#ArialMT-69" x="222.314453"/>
      <use xlink:href="#ArialMT-65" x="244.53125"/>
      <use xlink:href="#ArialMT-6e" x="300.146484"/>
      <use xlink:href="#ArialMT-74" x="355.761719"/>
      <use xlink:href="#ArialMT-20" x="383.544922"/>
      <use xlink:href="#ArialMT-42" x="411.328125"/>
      <use xlink:href="#ArialMT-6f" x="478.027344"/>
      <use xlink:href="#ArialMT-6f" x="533.642578"/>
      <use xlink:href="#ArialMT-73" x="589.257812"/>
      <use xlink:href="#ArialMT-74" x="639.257812"/>
      <use xlink:href="#ArialMT-69" x="667.041016"/>
      <use xlink:href="#ArialMT-6e" x="689.257812"/>
      <use xlink:href="#ArialMT-67" x="744.873047"/>
     </g>
    </g>
    <g id="line2d_43">
     <path d="M 144 370.254063 
L 154 370.254063 
L 164 370.254063 
" style="fill: none; stroke: #2ca02c; stroke-width: 1.5; stroke-linecap: round"/>
    </g>
    <g id="text_20">
     <!-- Linear Regression -->
     <g style="fill: #262626" transform="translate(172 373.754063) scale(0.1 -0.1)">
      <defs>
       <path id="ArialMT-4c" d="M 469 0 
L 469 4581 
L 1075 4581 
L 1075 541 
L 3331 541 
L 3331 0 
L 469 0 
z
" transform="scale(0.015625)"/>
      </defs>
      <use xlink:href="#ArialMT-4c"/>
      <use xlink:href="#ArialMT-69" x="55.615234"/>
      <use xlink:href="#ArialMT-6e" x="77.832031"/>
      <use xlink:href="#ArialMT-65" x="133.447266"/>
      <use xlink:href="#ArialMT-61" x="189.0625"/>
      <use xlink:href="#ArialMT-72" x="244.677734"/>
      <use xlink:href="#ArialMT-20" x="277.978516"/>
      <use xlink:href="#ArialMT-52" x="305.761719"/>
      <use xlink:href="#ArialMT-65" x="377.978516"/>
      <use xlink:href="#ArialMT-67" x="433.59375"/>
      <use xlink:href="#ArialMT-72" x="489.208984"/>
      <use xlink:href="#ArialMT-65" x="522.509766"/>
      <use xlink:href="#ArialMT-73" x="578.125"/>
      <use xlink:href="#ArialMT-73" x="628.125"/>
      <use xlink:href="#ArialMT-69" x="678.125"/>
      <use xlink:href="#ArialMT-6f" x="700.341797"/>
      <use xlink:href="#ArialMT-6e" x="755.957031"/>
     </g>
    </g>
    <g id="line2d_44">
     <path d="M 144 384.516563 
L 154 384.516563 
L 164 384.516563 
" style="fill: none; stroke: #d62728; stroke-width: 1.5; stroke-linecap: round"/>
    </g>
    <g id="text_21">
     <!-- Decision Tree -->
     <g style="fill: #262626" transform="translate(172 388.016563) scale(0.1 -0.1)">
      <defs>
       <path id="ArialMT-63" d="M 2588 1216 
L 3141 1144 
Q 3050 572 2676 248 
Q 2303 -75 1759 -75 
Q 1078 -75 664 370 
Q 250 816 250 1647 
Q 250 2184 428 2587 
Q 606 2991 970 3192 
Q 1334 3394 1763 3394 
Q 2303 3394 2647 3120 
Q 2991 2847 3088 2344 
L 2541 2259 
Q 2463 2594 2264 2762 
Q 2066 2931 1784 2931 
Q 1359 2931 1093 2626 
Q 828 2322 828 1663 
Q 828 994 1084 691 
Q 1341 388 1753 388 
Q 2084 388 2306 591 
Q 2528 794 2588 1216 
z
" transform="scale(0.015625)"/>
      </defs>
      <use xlink:href="#ArialMT-44"/>
      <use xlink:href="#ArialMT-65" x="72.216797"/>
      <use xlink:href="#ArialMT-63" x="127.832031"/>
      <use xlink:href="#ArialMT-69" x="177.832031"/>
      <use xlink:href="#ArialMT-73" x="200.048828"/>
      <use xlink:href="#ArialMT-69" x="250.048828"/>
      <use xlink:href="#ArialMT-6f" x="272.265625"/>
      <use xlink:href="#ArialMT-6e" x="327.880859"/>
      <use xlink:href="#ArialMT-20" x="383.496094"/>
      <use xlink:href="#ArialMT-54" x="409.529297"/>
      <use xlink:href="#ArialMT-72" x="466.863281"/>
      <use xlink:href="#ArialMT-65" x="500.164062"/>
      <use xlink:href="#ArialMT-65" x="555.779297"/>
     </g>
    </g>
    <g id="line2d_45">
     <path d="M 144 398.661875 
L 154 398.661875 
L 164 398.661875 
" style="fill: none; stroke: #9467bd; stroke-width: 1.5; stroke-linecap: round"/>
    </g>
    <g id="text_22">
     <!-- SVR -->
     <g style="fill: #262626" transform="translate(172 402.161875) scale(0.1 -0.1)">
      <defs>
       <path id="ArialMT-53" d="M 288 1472 
L 859 1522 
Q 900 1178 1048 958 
Q 1197 738 1509 602 
Q 1822 466 2213 466 
Q 2559 466 2825 569 
Q 3091 672 3220 851 
Q 3350 1031 3350 1244 
Q 3350 1459 3225 1620 
Q 3100 1781 2813 1891 
Q 2628 1963 1997 2114 
Q 1366 2266 1113 2400 
Q 784 2572 623 2826 
Q 463 3081 463 3397 
Q 463 3744 659 4045 
Q 856 4347 1234 4503 
Q 1613 4659 2075 4659 
Q 2584 4659 2973 4495 
Q 3363 4331 3572 4012 
Q 3781 3694 3797 3291 
L 3216 3247 
Q 3169 3681 2898 3903 
Q 2628 4125 2100 4125 
Q 1550 4125 1298 3923 
Q 1047 3722 1047 3438 
Q 1047 3191 1225 3031 
Q 1400 2872 2139 2705 
Q 2878 2538 3153 2413 
Q 3553 2228 3743 1945 
Q 3934 1663 3934 1294 
Q 3934 928 3725 604 
Q 3516 281 3123 101 
Q 2731 -78 2241 -78 
Q 1619 -78 1198 103 
Q 778 284 539 648 
Q 300 1013 288 1472 
z
" transform="scale(0.015625)"/>
       <path id="ArialMT-56" d="M 1803 0 
L 28 4581 
L 684 4581 
L 1875 1253 
Q 2019 853 2116 503 
Q 2222 878 2363 1253 
L 3600 4581 
L 4219 4581 
L 2425 0 
L 1803 0 
z
" transform="scale(0.015625)"/>
      </defs>
      <use xlink:href="#ArialMT-53"/>
      <use xlink:href="#ArialMT-56" x="66.699219"/>
      <use xlink:href="#ArialMT-52" x="133.398438"/>
     </g>
    </g>
    <g id="line2d_46">
     <path d="M 144 412.807187 
L 154 412.807187 
L 164 412.807187 
" style="fill: none; stroke: #8c564b; stroke-width: 1.5; stroke-linecap: round"/>
    </g>
    <g id="text_23">
     <!-- K-Nearest Neighbors -->
     <g style="fill: #262626" transform="translate(172 416.307187) scale(0.1 -0.1)">
      <defs>
       <path id="ArialMT-4b" d="M 469 0 
L 469 4581 
L 1075 4581 
L 1075 2309 
L 3350 4581 
L 4172 4581 
L 2250 2725 
L 4256 0 
L 3456 0 
L 1825 2319 
L 1075 1588 
L 1075 0 
L 469 0 
z
" transform="scale(0.015625)"/>
       <path id="ArialMT-4e" d="M 488 0 
L 488 4581 
L 1109 4581 
L 3516 984 
L 3516 4581 
L 4097 4581 
L 4097 0 
L 3475 0 
L 1069 3600 
L 1069 0 
L 488 0 
z
" transform="scale(0.015625)"/>
       <path id="ArialMT-62" d="M 941 0 
L 419 0 
L 419 4581 
L 981 4581 
L 981 2947 
Q 1338 3394 1891 3394 
Q 2197 3394 2470 3270 
Q 2744 3147 2920 2923 
Q 3097 2700 3197 2384 
Q 3297 2069 3297 1709 
Q 3297 856 2875 390 
Q 2453 -75 1863 -75 
Q 1275 -75 941 416 
L 941 0 
z
M 934 1684 
Q 934 1088 1097 822 
Q 1363 388 1816 388 
Q 2184 388 2453 708 
Q 2722 1028 2722 1663 
Q 2722 2313 2464 2622 
Q 2206 2931 1841 2931 
Q 1472 2931 1203 2611 
Q 934 2291 934 1684 
z
" transform="scale(0.015625)"/>
      </defs>
      <use xlink:href="#ArialMT-4b"/>
      <use xlink:href="#ArialMT-2d" x="66.699219"/>
      <use xlink:href="#ArialMT-4e" x="100"/>
      <use xlink:href="#ArialMT-65" x="172.216797"/>
      <use xlink:href="#ArialMT-61" x="227.832031"/>
      <use xlink:href="#ArialMT-72" x="283.447266"/>
      <use xlink:href="#ArialMT-65" x="316.748047"/>
      <use xlink:href="#ArialMT-73" x="372.363281"/>
      <use xlink:href="#ArialMT-74" x="422.363281"/>
      <use xlink:href="#ArialMT-20" x="450.146484"/>
      <use xlink:href="#ArialMT-4e" x="477.929688"/>
      <use xlink:href="#ArialMT-65" x="550.146484"/>
      <use xlink:href="#ArialMT-69" x="605.761719"/>
      <use xlink:href="#ArialMT-67" x="627.978516"/>
      <use xlink:href="#ArialMT-68" x="683.59375"/>
      <use xlink:href="#ArialMT-62" x="739.208984"/>
      <use xlink:href="#ArialMT-6f" x="794.824219"/>
      <use xlink:href="#ArialMT-72" x="850.439453"/>
      <use xlink:href="#ArialMT-73" x="883.740234"/>
     </g>
    </g>
    <g id="line2d_47">
     <path d="M 144 427.069687 
L 154 427.069687 
L 164 427.069687 
" style="fill: none; stroke: #e377c2; stroke-width: 1.5; stroke-linecap: round"/>
    </g>
    <g id="text_24">
     <!-- XGBoost -->
     <g style="fill: #262626" transform="translate(172 430.569687) scale(0.1 -0.1)">
      <defs>
       <path id="ArialMT-58" d="M 28 0 
L 1800 2388 
L 238 4581 
L 959 4581 
L 1791 3406 
Q 2050 3041 2159 2844 
Q 2313 3094 2522 3366 
L 3444 4581 
L 4103 4581 
L 2494 2422 
L 4228 0 
L 3478 0 
L 2325 1634 
Q 2228 1775 2125 1941 
Q 1972 1691 1906 1597 
L 756 0 
L 28 0 
z
" transform="scale(0.015625)"/>
      </defs>
      <use xlink:href="#ArialMT-58"/>
      <use xlink:href="#ArialMT-47" x="66.699219"/>
      <use xlink:href="#ArialMT-42" x="144.482422"/>
      <use xlink:href="#ArialMT-6f" x="211.181641"/>
      <use xlink:href="#ArialMT-6f" x="266.796875"/>
      <use xlink:href="#ArialMT-73" x="322.412109"/>
      <use xlink:href="#ArialMT-74" x="372.412109"/>
     </g>
    </g>
    <g id="line2d_48">
     <path d="M 144 441.215 
L 154 441.215 
L 164 441.215 
" style="fill: none; stroke: #7f7f7f; stroke-width: 1.5; stroke-linecap: round"/>
    </g>
    <g id="text_25">
     <!-- Ridge Regression -->
     <g style="fill: #262626" transform="translate(172 444.715) scale(0.1 -0.1)">
      <use xlink:href="#ArialMT-52"/>
      <use xlink:href="#ArialMT-69" x="72.216797"/>
      <use xlink:href="#ArialMT-64" x="94.433594"/>
      <use xlink:href="#ArialMT-67" x="150.048828"/>
      <use xlink:href="#ArialMT-65" x="205.664062"/>
      <use xlink:href="#ArialMT-20" x="261.279297"/>
      <use xlink:href="#ArialMT-52" x="289.0625"/>
      <use xlink:href="#ArialMT-65" x="361.279297"/>
      <use xlink:href="#ArialMT-67" x="416.894531"/>
      <use xlink:href="#ArialMT-72" x="472.509766"/>
      <use xlink:href="#ArialMT-65" x="505.810547"/>
      <use xlink:href="#ArialMT-73" x="561.425781"/>
      <use xlink:href="#ArialMT-73" x="611.425781"/>
      <use xlink:href="#ArialMT-69" x="661.425781"/>
      <use xlink:href="#ArialMT-6f" x="683.642578"/>
      <use xlink:href="#ArialMT-6e" x="739.257812"/>
     </g>
    </g>
    <g id="line2d_49">
     <path d="M 144 455.4775 
L 154 455.4775 
L 164 455.4775 
" style="fill: none; stroke: #bcbd22; stroke-width: 1.5; stroke-linecap: round"/>
    </g>
    <g id="text_26">
     <!-- ElasticNet -->
     <g style="fill: #262626" transform="translate(172 458.9775) scale(0.1 -0.1)">
      <defs>
       <path id="ArialMT-45" d="M 506 0 
L 506 4581 
L 3819 4581 
L 3819 4041 
L 1113 4041 
L 1113 2638 
L 3647 2638 
L 3647 2100 
L 1113 2100 
L 1113 541 
L 3925 541 
L 3925 0 
L 506 0 
z
" transform="scale(0.015625)"/>
      </defs>
      <use xlink:href="#ArialMT-45"/>
      <use xlink:href="#ArialMT-6c" x="66.699219"/>
      <use xlink:href="#ArialMT-61" x="88.916016"/>
      <use xlink:href="#ArialMT-73" x="144.53125"/>
      <use xlink:href="#ArialMT-74" x="194.53125"/>
      <use xlink:href="#ArialMT-69" x="222.314453"/>
      <use xlink:href="#ArialMT-63" x="244.53125"/>
      <use xlink:href="#ArialMT-4e" x="294.53125"/>
      <use xlink:href="#ArialMT-65" x="366.748047"/>
      <use xlink:href="#ArialMT-74" x="422.363281"/>
     </g>
    </g>
    <g id="line2d_50">
     <path d="M 144 469.622813 
L 154 469.622813 
L 164 469.622813 
" style="fill: none; stroke: #17becf; stroke-width: 1.5; stroke-linecap: round"/>
    </g>
    <g id="text_27">
     <!-- LSTM -->
     <g style="fill: #262626" transform="translate(172 473.122813) scale(0.1 -0.1)">
      <defs>
       <path id="ArialMT-4d" d="M 475 0 
L 475 4581 
L 1388 4581 
L 2472 1338 
Q 2622 884 2691 659 
Q 2769 909 2934 1394 
L 4031 4581 
L 4847 4581 
L 4847 0 
L 4263 0 
L 4263 3834 
L 2931 0 
L 2384 0 
L 1059 3900 
L 1059 0 
L 475 0 
z
" transform="scale(0.015625)"/>
      </defs>
      <use xlink:href="#ArialMT-4c"/>
      <use xlink:href="#ArialMT-53" x="55.615234"/>
      <use xlink:href="#ArialMT-54" x="122.314453"/>
      <use xlink:href="#ArialMT-4d" x="183.398438"/>
     </g>
    </g>
    <g id="line2d_51">
     <path d="M 144 483.768125 
L 154 483.768125 
L 164 483.768125 
" style="fill: none; stroke: #1f77b4; stroke-width: 1.5; stroke-linecap: round"/>
    </g>
    <g id="text_28">
     <!-- RNN -->
     <g style="fill: #262626" transform="translate(172 487.268125) scale(0.1 -0.1)">
      <use xlink:href="#ArialMT-52"/>
      <use xlink:href="#ArialMT-4e" x="72.216797"/>
      <use xlink:href="#ArialMT-4e" x="144.433594"/>
     </g>
    </g>
    <g id="line2d_52">
     <path d="M 144 498.035313 
L 154 498.035313 
L 164 498.035313 
" style="fill: none; stroke: #000000; stroke-width: 2; stroke-linecap: round"/>
    </g>
    <g id="text_29">
     <!-- Gerçek Değerler -->
     <g style="fill: #262626" transform="translate(172 501.535313) scale(0.1 -0.1)">
      <use xlink:href="#ArialMT-47"/>
      <use xlink:href="#ArialMT-65" x="77.783203"/>
      <use xlink:href="#ArialMT-72" x="133.398438"/>
      <use xlink:href="#ArialMT-e7" x="166.699219"/>
      <use xlink:href="#ArialMT-65" x="216.699219"/>
      <use xlink:href="#ArialMT-6b" x="272.314453"/>
      <use xlink:href="#ArialMT-20" x="322.314453"/>
      <use xlink:href="#ArialMT-44" x="350.097656"/>
      <use xlink:href="#ArialMT-65" x="422.314453"/>
      <use xlink:href="#ArialMT-11f" x="477.929688"/>
      <use xlink:href="#ArialMT-65" x="533.544922"/>
      <use xlink:href="#ArialMT-72" x="589.160156"/>
      <use xlink:href="#ArialMT-6c" x="622.460938"/>
      <use xlink:href="#ArialMT-65" x="644.677734"/>
      <use xlink:href="#ArialMT-72" x="700.292969"/>
     </g>
    </g>
   </g>
  </g>
 </g>
 <defs>
  <clipPath id="peee9218375">
   <rect x="135" y="69.12" width="837" height="443.52"/>
  </clipPath>
 </defs>
</svg>
