<?xml version="1.0" encoding="utf-8" standalone="no"?>
<!DOCTYPE svg PUBLIC "-//W3C//DTD SVG 1.1//EN"
  "http://www.w3.org/Graphics/SVG/1.1/DTD/svg11.dtd">
<svg xmlns:xlink="http://www.w3.org/1999/xlink" width="1080pt" height="576pt" viewBox="0 0 1080 576" xmlns="http://www.w3.org/2000/svg" version="1.1">
 <metadata>
  <rdf:RDF xmlns:dc="http://purl.org/dc/elements/1.1/" xmlns:cc="http://creativecommons.org/ns#" xmlns:rdf="http://www.w3.org/1999/02/22-rdf-syntax-ns#">
   <cc:Work>
    <dc:type rdf:resource="http://purl.org/dc/dcmitype/StillImage"/>
    <dc:date>2023-05-23T13:35:20.182017</dc:date>
    <dc:format>image/svg+xml</dc:format>
    <dc:creator>
     <cc:Agent>
      <dc:title>Matplotlib v3.7.1, https://matplotlib.org/</dc:title>
     </cc:Agent>
    </dc:creator>
   </cc:Work>
  </rdf:RDF>
 </metadata>
 <defs>
  <style type="text/css">*{stroke-linejoin: round; stroke-linecap: butt}</style>
 </defs>
 <g id="figure_1">
  <g id="patch_1">
   <path d="M 0 576 
L 1080 576 
L 1080 0 
L 0 0 
z
" style="fill: #ffffff"/>
  </g>
  <g id="axes_1">
   <g id="patch_2">
    <path d="M 135 512.64 
L 972 512.64 
L 972 69.12 
L 135 69.12 
z
" style="fill: #ffffff"/>
   </g>
   <g id="matplotlib.axis_1">
    <g id="xtick_1">
     <g id="line2d_1">
      <path d="M 159.457792 512.64 
L 159.457792 69.12 
" clip-path="url(#p81fe4162c1)" style="fill: none; stroke: #cccccc; stroke-width: 0.8; stroke-linecap: round"/>
     </g>
     <g id="line2d_2"/>
     <g id="text_1">
      <!-- 2023-01-01 -->
      <g style="fill: #262626" transform="translate(133.884355 523.297812) scale(0.1 -0.1)">
       <defs>
        <path id="ArialMT-32" d="M 3222 541 
L 3222 0 
L 194 0 
Q 188 203 259 391 
Q 375 700 629 1000 
Q 884 1300 1366 1694 
Q 2113 2306 2375 2664 
Q 2638 3022 2638 3341 
Q 2638 3675 2398 3904 
Q 2159 4134 1775 4134 
Q 1369 4134 1125 3890 
Q 881 3647 878 3216 
L 300 3275 
Q 359 3922 746 4261 
Q 1134 4600 1788 4600 
Q 2447 4600 2831 4234 
Q 3216 3869 3216 3328 
Q 3216 3053 3103 2787 
Q 2991 2522 2730 2228 
Q 2469 1934 1863 1422 
Q 1356 997 1212 845 
Q 1069 694 975 541 
L 3222 541 
z
" transform="scale(0.015625)"/>
        <path id="ArialMT-30" d="M 266 2259 
Q 266 3072 433 3567 
Q 600 4063 929 4331 
Q 1259 4600 1759 4600 
Q 2128 4600 2406 4451 
Q 2684 4303 2865 4023 
Q 3047 3744 3150 3342 
Q 3253 2941 3253 2259 
Q 3253 1453 3087 958 
Q 2922 463 2592 192 
Q 2263 -78 1759 -78 
Q 1097 -78 719 397 
Q 266 969 266 2259 
z
M 844 2259 
Q 844 1131 1108 757 
Q 1372 384 1759 384 
Q 2147 384 2411 759 
Q 2675 1134 2675 2259 
Q 2675 3391 2411 3762 
Q 2147 4134 1753 4134 
Q 1366 4134 1134 3806 
Q 844 3388 844 2259 
z
" transform="scale(0.015625)"/>
        <path id="ArialMT-33" d="M 269 1209 
L 831 1284 
Q 928 806 1161 595 
Q 1394 384 1728 384 
Q 2125 384 2398 659 
Q 2672 934 2672 1341 
Q 2672 1728 2419 1979 
Q 2166 2231 1775 2231 
Q 1616 2231 1378 2169 
L 1441 2663 
Q 1497 2656 1531 2656 
Q 1891 2656 2178 2843 
Q 2466 3031 2466 3422 
Q 2466 3731 2256 3934 
Q 2047 4138 1716 4138 
Q 1388 4138 1169 3931 
Q 950 3725 888 3313 
L 325 3413 
Q 428 3978 793 4289 
Q 1159 4600 1703 4600 
Q 2078 4600 2393 4439 
Q 2709 4278 2876 4000 
Q 3044 3722 3044 3409 
Q 3044 3113 2884 2869 
Q 2725 2625 2413 2481 
Q 2819 2388 3044 2092 
Q 3269 1797 3269 1353 
Q 3269 753 2831 336 
Q 2394 -81 1725 -81 
Q 1122 -81 723 278 
Q 325 638 269 1209 
z
" transform="scale(0.015625)"/>
        <path id="ArialMT-2d" d="M 203 1375 
L 203 1941 
L 1931 1941 
L 1931 1375 
L 203 1375 
z
" transform="scale(0.015625)"/>
        <path id="ArialMT-31" d="M 2384 0 
L 1822 0 
L 1822 3584 
Q 1619 3391 1289 3197 
Q 959 3003 697 2906 
L 697 3450 
Q 1169 3672 1522 3987 
Q 1875 4303 2022 4600 
L 2384 4600 
L 2384 0 
z
" transform="scale(0.015625)"/>
       </defs>
       <use xlink:href="#ArialMT-32"/>
       <use xlink:href="#ArialMT-30" x="55.615234"/>
       <use xlink:href="#ArialMT-32" x="111.230469"/>
       <use xlink:href="#ArialMT-33" x="166.845703"/>
       <use xlink:href="#ArialMT-2d" x="222.460938"/>
       <use xlink:href="#ArialMT-30" x="255.761719"/>
       <use xlink:href="#ArialMT-31" x="311.376953"/>
       <use xlink:href="#ArialMT-2d" x="366.992188"/>
       <use xlink:href="#ArialMT-30" x="400.292969"/>
       <use xlink:href="#ArialMT-31" x="455.908203"/>
      </g>
     </g>
    </g>
    <g id="xtick_2">
     <g id="line2d_3">
      <path d="M 254.571429 512.64 
L 254.571429 69.12 
" clip-path="url(#p81fe4162c1)" style="fill: none; stroke: #cccccc; stroke-width: 0.8; stroke-linecap: round"/>
     </g>
     <g id="line2d_4"/>
     <g id="text_2">
      <!-- 2023-01-15 -->
      <g style="fill: #262626" transform="translate(228.997991 523.297812) scale(0.1 -0.1)">
       <defs>
        <path id="ArialMT-35" d="M 266 1200 
L 856 1250 
Q 922 819 1161 601 
Q 1400 384 1738 384 
Q 2144 384 2425 690 
Q 2706 997 2706 1503 
Q 2706 1984 2436 2262 
Q 2166 2541 1728 2541 
Q 1456 2541 1237 2417 
Q 1019 2294 894 2097 
L 366 2166 
L 809 4519 
L 3088 4519 
L 3088 3981 
L 1259 3981 
L 1013 2750 
Q 1425 3038 1878 3038 
Q 2478 3038 2890 2622 
Q 3303 2206 3303 1553 
Q 3303 931 2941 478 
Q 2500 -78 1738 -78 
Q 1113 -78 717 272 
Q 322 622 266 1200 
z
" transform="scale(0.015625)"/>
       </defs>
       <use xlink:href="#ArialMT-32"/>
       <use xlink:href="#ArialMT-30" x="55.615234"/>
       <use xlink:href="#ArialMT-32" x="111.230469"/>
       <use xlink:href="#ArialMT-33" x="166.845703"/>
       <use xlink:href="#ArialMT-2d" x="222.460938"/>
       <use xlink:href="#ArialMT-30" x="255.761719"/>
       <use xlink:href="#ArialMT-31" x="311.376953"/>
       <use xlink:href="#ArialMT-2d" x="366.992188"/>
       <use xlink:href="#ArialMT-31" x="400.292969"/>
       <use xlink:href="#ArialMT-35" x="455.908203"/>
      </g>
     </g>
    </g>
    <g id="xtick_3">
     <g id="line2d_5">
      <path d="M 370.066558 512.64 
L 370.066558 69.12 
" clip-path="url(#p81fe4162c1)" style="fill: none; stroke: #cccccc; stroke-width: 0.8; stroke-linecap: round"/>
     </g>
     <g id="line2d_6"/>
     <g id="text_3">
      <!-- 2023-02-01 -->
      <g style="fill: #262626" transform="translate(344.493121 523.297812) scale(0.1 -0.1)">
       <use xlink:href="#ArialMT-32"/>
       <use xlink:href="#ArialMT-30" x="55.615234"/>
       <use xlink:href="#ArialMT-32" x="111.230469"/>
       <use xlink:href="#ArialMT-33" x="166.845703"/>
       <use xlink:href="#ArialMT-2d" x="222.460938"/>
       <use xlink:href="#ArialMT-30" x="255.761719"/>
       <use xlink:href="#ArialMT-32" x="311.376953"/>
       <use xlink:href="#ArialMT-2d" x="366.992188"/>
       <use xlink:href="#ArialMT-30" x="400.292969"/>
       <use xlink:href="#ArialMT-31" x="455.908203"/>
      </g>
     </g>
    </g>
    <g id="xtick_4">
     <g id="line2d_7">
      <path d="M 465.180195 512.64 
L 465.180195 69.12 
" clip-path="url(#p81fe4162c1)" style="fill: none; stroke: #cccccc; stroke-width: 0.8; stroke-linecap: round"/>
     </g>
     <g id="line2d_8"/>
     <g id="text_4">
      <!-- 2023-02-15 -->
      <g style="fill: #262626" transform="translate(439.606757 523.297812) scale(0.1 -0.1)">
       <use xlink:href="#ArialMT-32"/>
       <use xlink:href="#ArialMT-30" x="55.615234"/>
       <use xlink:href="#ArialMT-32" x="111.230469"/>
       <use xlink:href="#ArialMT-33" x="166.845703"/>
       <use xlink:href="#ArialMT-2d" x="222.460938"/>
       <use xlink:href="#ArialMT-30" x="255.761719"/>
       <use xlink:href="#ArialMT-32" x="311.376953"/>
       <use xlink:href="#ArialMT-2d" x="366.992188"/>
       <use xlink:href="#ArialMT-31" x="400.292969"/>
       <use xlink:href="#ArialMT-35" x="455.908203"/>
      </g>
     </g>
    </g>
    <g id="xtick_5">
     <g id="line2d_9">
      <path d="M 560.293831 512.64 
L 560.293831 69.12 
" clip-path="url(#p81fe4162c1)" style="fill: none; stroke: #cccccc; stroke-width: 0.8; stroke-linecap: round"/>
     </g>
     <g id="line2d_10"/>
     <g id="text_5">
      <!-- 2023-03-01 -->
      <g style="fill: #262626" transform="translate(534.720394 523.297812) scale(0.1 -0.1)">
       <use xlink:href="#ArialMT-32"/>
       <use xlink:href="#ArialMT-30" x="55.615234"/>
       <use xlink:href="#ArialMT-32" x="111.230469"/>
       <use xlink:href="#ArialMT-33" x="166.845703"/>
       <use xlink:href="#ArialMT-2d" x="222.460938"/>
       <use xlink:href="#ArialMT-30" x="255.761719"/>
       <use xlink:href="#ArialMT-33" x="311.376953"/>
       <use xlink:href="#ArialMT-2d" x="366.992188"/>
       <use xlink:href="#ArialMT-30" x="400.292969"/>
       <use xlink:href="#ArialMT-31" x="455.908203"/>
      </g>
     </g>
    </g>
    <g id="xtick_6">
     <g id="line2d_11">
      <path d="M 655.407468 512.64 
L 655.407468 69.12 
" clip-path="url(#p81fe4162c1)" style="fill: none; stroke: #cccccc; stroke-width: 0.8; stroke-linecap: round"/>
     </g>
     <g id="line2d_12"/>
     <g id="text_6">
      <!-- 2023-03-15 -->
      <g style="fill: #262626" transform="translate(629.83403 523.297812) scale(0.1 -0.1)">
       <use xlink:href="#ArialMT-32"/>
       <use xlink:href="#ArialMT-30" x="55.615234"/>
       <use xlink:href="#ArialMT-32" x="111.230469"/>
       <use xlink:href="#ArialMT-33" x="166.845703"/>
       <use xlink:href="#ArialMT-2d" x="222.460938"/>
       <use xlink:href="#ArialMT-30" x="255.761719"/>
       <use xlink:href="#ArialMT-33" x="311.376953"/>
       <use xlink:href="#ArialMT-2d" x="366.992188"/>
       <use xlink:href="#ArialMT-31" x="400.292969"/>
       <use xlink:href="#ArialMT-35" x="455.908203"/>
      </g>
     </g>
    </g>
    <g id="xtick_7">
     <g id="line2d_13">
      <path d="M 770.902597 512.64 
L 770.902597 69.12 
" clip-path="url(#p81fe4162c1)" style="fill: none; stroke: #cccccc; stroke-width: 0.8; stroke-linecap: round"/>
     </g>
     <g id="line2d_14"/>
     <g id="text_7">
      <!-- 2023-04-01 -->
      <g style="fill: #262626" transform="translate(745.32916 523.297812) scale(0.1 -0.1)">
       <defs>
        <path id="ArialMT-34" d="M 2069 0 
L 2069 1097 
L 81 1097 
L 81 1613 
L 2172 4581 
L 2631 4581 
L 2631 1613 
L 3250 1613 
L 3250 1097 
L 2631 1097 
L 2631 0 
L 2069 0 
z
M 2069 1613 
L 2069 3678 
L 634 1613 
L 2069 1613 
z
" transform="scale(0.015625)"/>
       </defs>
       <use xlink:href="#ArialMT-32"/>
       <use xlink:href="#ArialMT-30" x="55.615234"/>
       <use xlink:href="#ArialMT-32" x="111.230469"/>
       <use xlink:href="#ArialMT-33" x="166.845703"/>
       <use xlink:href="#ArialMT-2d" x="222.460938"/>
       <use xlink:href="#ArialMT-30" x="255.761719"/>
       <use xlink:href="#ArialMT-34" x="311.376953"/>
       <use xlink:href="#ArialMT-2d" x="366.992188"/>
       <use xlink:href="#ArialMT-30" x="400.292969"/>
       <use xlink:href="#ArialMT-31" x="455.908203"/>
      </g>
     </g>
    </g>
    <g id="xtick_8">
     <g id="line2d_15">
      <path d="M 866.016234 512.64 
L 866.016234 69.12 
" clip-path="url(#p81fe4162c1)" style="fill: none; stroke: #cccccc; stroke-width: 0.8; stroke-linecap: round"/>
     </g>
     <g id="line2d_16"/>
     <g id="text_8">
      <!-- 2023-04-15 -->
      <g style="fill: #262626" transform="translate(840.442796 523.297812) scale(0.1 -0.1)">
       <use xlink:href="#ArialMT-32"/>
       <use xlink:href="#ArialMT-30" x="55.615234"/>
       <use xlink:href="#ArialMT-32" x="111.230469"/>
       <use xlink:href="#ArialMT-33" x="166.845703"/>
       <use xlink:href="#ArialMT-2d" x="222.460938"/>
       <use xlink:href="#ArialMT-30" x="255.761719"/>
       <use xlink:href="#ArialMT-34" x="311.376953"/>
       <use xlink:href="#ArialMT-2d" x="366.992188"/>
       <use xlink:href="#ArialMT-31" x="400.292969"/>
       <use xlink:href="#ArialMT-35" x="455.908203"/>
      </g>
     </g>
    </g>
    <g id="text_9">
     <!-- Date -->
     <g style="fill: #262626" transform="translate(542.939062 536.443125) scale(0.1 -0.1)">
      <defs>
       <path id="ArialMT-44" d="M 494 0 
L 494 4581 
L 2072 4581 
Q 2606 4581 2888 4516 
Q 3281 4425 3559 4188 
Q 3922 3881 4101 3404 
Q 4281 2928 4281 2316 
Q 4281 1794 4159 1391 
Q 4038 988 3847 723 
Q 3656 459 3429 307 
Q 3203 156 2883 78 
Q 2563 0 2147 0 
L 494 0 
z
M 1100 541 
L 2078 541 
Q 2531 541 2789 625 
Q 3047 709 3200 863 
Q 3416 1078 3536 1442 
Q 3656 1806 3656 2325 
Q 3656 3044 3420 3430 
Q 3184 3816 2847 3947 
Q 2603 4041 2063 4041 
L 1100 4041 
L 1100 541 
z
" transform="scale(0.015625)"/>
       <path id="ArialMT-61" d="M 2588 409 
Q 2275 144 1986 34 
Q 1697 -75 1366 -75 
Q 819 -75 525 192 
Q 231 459 231 875 
Q 231 1119 342 1320 
Q 453 1522 633 1644 
Q 813 1766 1038 1828 
Q 1203 1872 1538 1913 
Q 2219 1994 2541 2106 
Q 2544 2222 2544 2253 
Q 2544 2597 2384 2738 
Q 2169 2928 1744 2928 
Q 1347 2928 1158 2789 
Q 969 2650 878 2297 
L 328 2372 
Q 403 2725 575 2942 
Q 747 3159 1072 3276 
Q 1397 3394 1825 3394 
Q 2250 3394 2515 3294 
Q 2781 3194 2906 3042 
Q 3031 2891 3081 2659 
Q 3109 2516 3109 2141 
L 3109 1391 
Q 3109 606 3145 398 
Q 3181 191 3288 0 
L 2700 0 
Q 2613 175 2588 409 
z
M 2541 1666 
Q 2234 1541 1622 1453 
Q 1275 1403 1131 1340 
Q 988 1278 909 1158 
Q 831 1038 831 891 
Q 831 666 1001 516 
Q 1172 366 1500 366 
Q 1825 366 2078 508 
Q 2331 650 2450 897 
Q 2541 1088 2541 1459 
L 2541 1666 
z
" transform="scale(0.015625)"/>
       <path id="ArialMT-74" d="M 1650 503 
L 1731 6 
Q 1494 -44 1306 -44 
Q 1000 -44 831 53 
Q 663 150 594 308 
Q 525 466 525 972 
L 525 2881 
L 113 2881 
L 113 3319 
L 525 3319 
L 525 4141 
L 1084 4478 
L 1084 3319 
L 1650 3319 
L 1650 2881 
L 1084 2881 
L 1084 941 
Q 1084 700 1114 631 
Q 1144 563 1211 522 
Q 1278 481 1403 481 
Q 1497 481 1650 503 
z
" transform="scale(0.015625)"/>
       <path id="ArialMT-65" d="M 2694 1069 
L 3275 997 
Q 3138 488 2766 206 
Q 2394 -75 1816 -75 
Q 1088 -75 661 373 
Q 234 822 234 1631 
Q 234 2469 665 2931 
Q 1097 3394 1784 3394 
Q 2450 3394 2872 2941 
Q 3294 2488 3294 1666 
Q 3294 1616 3291 1516 
L 816 1516 
Q 847 969 1125 678 
Q 1403 388 1819 388 
Q 2128 388 2347 550 
Q 2566 713 2694 1069 
z
M 847 1978 
L 2700 1978 
Q 2663 2397 2488 2606 
Q 2219 2931 1791 2931 
Q 1403 2931 1139 2672 
Q 875 2413 847 1978 
z
" transform="scale(0.015625)"/>
      </defs>
      <use xlink:href="#ArialMT-44"/>
      <use xlink:href="#ArialMT-61" x="72.216797"/>
      <use xlink:href="#ArialMT-74" x="127.832031"/>
      <use xlink:href="#ArialMT-65" x="155.615234"/>
     </g>
    </g>
   </g>
   <g id="matplotlib.axis_2">
    <g id="ytick_1">
     <g id="line2d_17">
      <path d="M 135 484.260162 
L 972 484.260162 
" clip-path="url(#p81fe4162c1)" style="fill: none; stroke: #cccccc; stroke-width: 0.8; stroke-linecap: round"/>
     </g>
     <g id="line2d_18"/>
     <g id="text_10">
      <!-- 8 -->
      <g style="fill: #262626" transform="translate(125.939063 487.839069) scale(0.1 -0.1)">
       <defs>
        <path id="ArialMT-38" d="M 1131 2484 
Q 781 2613 612 2850 
Q 444 3088 444 3419 
Q 444 3919 803 4259 
Q 1163 4600 1759 4600 
Q 2359 4600 2725 4251 
Q 3091 3903 3091 3403 
Q 3091 3084 2923 2848 
Q 2756 2613 2416 2484 
Q 2838 2347 3058 2040 
Q 3278 1734 3278 1309 
Q 3278 722 2862 322 
Q 2447 -78 1769 -78 
Q 1091 -78 675 323 
Q 259 725 259 1325 
Q 259 1772 486 2073 
Q 713 2375 1131 2484 
z
M 1019 3438 
Q 1019 3113 1228 2906 
Q 1438 2700 1772 2700 
Q 2097 2700 2305 2904 
Q 2513 3109 2513 3406 
Q 2513 3716 2298 3927 
Q 2084 4138 1766 4138 
Q 1444 4138 1231 3931 
Q 1019 3725 1019 3438 
z
M 838 1322 
Q 838 1081 952 856 
Q 1066 631 1291 507 
Q 1516 384 1775 384 
Q 2178 384 2440 643 
Q 2703 903 2703 1303 
Q 2703 1709 2433 1975 
Q 2163 2241 1756 2241 
Q 1359 2241 1098 1978 
Q 838 1716 838 1322 
z
" transform="scale(0.015625)"/>
       </defs>
       <use xlink:href="#ArialMT-38"/>
      </g>
     </g>
    </g>
    <g id="ytick_2">
     <g id="line2d_19">
      <path d="M 135 428.326183 
L 972 428.326183 
" clip-path="url(#p81fe4162c1)" style="fill: none; stroke: #cccccc; stroke-width: 0.8; stroke-linecap: round"/>
     </g>
     <g id="line2d_20"/>
     <g id="text_11">
      <!-- 10 -->
      <g style="fill: #262626" transform="translate(120.378125 431.90509) scale(0.1 -0.1)">
       <use xlink:href="#ArialMT-31"/>
       <use xlink:href="#ArialMT-30" x="55.615234"/>
      </g>
     </g>
    </g>
    <g id="ytick_3">
     <g id="line2d_21">
      <path d="M 135 372.392205 
L 972 372.392205 
" clip-path="url(#p81fe4162c1)" style="fill: none; stroke: #cccccc; stroke-width: 0.8; stroke-linecap: round"/>
     </g>
     <g id="line2d_22"/>
     <g id="text_12">
      <!-- 12 -->
      <g style="fill: #262626" transform="translate(120.378125 375.971111) scale(0.1 -0.1)">
       <use xlink:href="#ArialMT-31"/>
       <use xlink:href="#ArialMT-32" x="55.615234"/>
      </g>
     </g>
    </g>
    <g id="ytick_4">
     <g id="line2d_23">
      <path d="M 135 316.458226 
L 972 316.458226 
" clip-path="url(#p81fe4162c1)" style="fill: none; stroke: #cccccc; stroke-width: 0.8; stroke-linecap: round"/>
     </g>
     <g id="line2d_24"/>
     <g id="text_13">
      <!-- 14 -->
      <g style="fill: #262626" transform="translate(120.378125 320.037132) scale(0.1 -0.1)">
       <use xlink:href="#ArialMT-31"/>
       <use xlink:href="#ArialMT-34" x="55.615234"/>
      </g>
     </g>
    </g>
    <g id="ytick_5">
     <g id="line2d_25">
      <path d="M 135 260.524247 
L 972 260.524247 
" clip-path="url(#p81fe4162c1)" style="fill: none; stroke: #cccccc; stroke-width: 0.8; stroke-linecap: round"/>
     </g>
     <g id="line2d_26"/>
     <g id="text_14">
      <!-- 16 -->
      <g style="fill: #262626" transform="translate(120.378125 264.103153) scale(0.1 -0.1)">
       <defs>
        <path id="ArialMT-36" d="M 3184 3459 
L 2625 3416 
Q 2550 3747 2413 3897 
Q 2184 4138 1850 4138 
Q 1581 4138 1378 3988 
Q 1113 3794 959 3422 
Q 806 3050 800 2363 
Q 1003 2672 1297 2822 
Q 1591 2972 1913 2972 
Q 2475 2972 2870 2558 
Q 3266 2144 3266 1488 
Q 3266 1056 3080 686 
Q 2894 316 2569 119 
Q 2244 -78 1831 -78 
Q 1128 -78 684 439 
Q 241 956 241 2144 
Q 241 3472 731 4075 
Q 1159 4600 1884 4600 
Q 2425 4600 2770 4297 
Q 3116 3994 3184 3459 
z
M 888 1484 
Q 888 1194 1011 928 
Q 1134 663 1356 523 
Q 1578 384 1822 384 
Q 2178 384 2434 671 
Q 2691 959 2691 1453 
Q 2691 1928 2437 2201 
Q 2184 2475 1800 2475 
Q 1419 2475 1153 2201 
Q 888 1928 888 1484 
z
" transform="scale(0.015625)"/>
       </defs>
       <use xlink:href="#ArialMT-31"/>
       <use xlink:href="#ArialMT-36" x="55.615234"/>
      </g>
     </g>
    </g>
    <g id="ytick_6">
     <g id="line2d_27">
      <path d="M 135 204.590268 
L 972 204.590268 
" clip-path="url(#p81fe4162c1)" style="fill: none; stroke: #cccccc; stroke-width: 0.8; stroke-linecap: round"/>
     </g>
     <g id="line2d_28"/>
     <g id="text_15">
      <!-- 18 -->
      <g style="fill: #262626" transform="translate(120.378125 208.169174) scale(0.1 -0.1)">
       <use xlink:href="#ArialMT-31"/>
       <use xlink:href="#ArialMT-38" x="55.615234"/>
      </g>
     </g>
    </g>
    <g id="ytick_7">
     <g id="line2d_29">
      <path d="M 135 148.656289 
L 972 148.656289 
" clip-path="url(#p81fe4162c1)" style="fill: none; stroke: #cccccc; stroke-width: 0.8; stroke-linecap: round"/>
     </g>
     <g id="line2d_30"/>
     <g id="text_16">
      <!-- 20 -->
      <g style="fill: #262626" transform="translate(120.378125 152.235195) scale(0.1 -0.1)">
       <use xlink:href="#ArialMT-32"/>
       <use xlink:href="#ArialMT-30" x="55.615234"/>
      </g>
     </g>
    </g>
    <g id="ytick_8">
     <g id="line2d_31">
      <path d="M 135 92.72231 
L 972 92.72231 
" clip-path="url(#p81fe4162c1)" style="fill: none; stroke: #cccccc; stroke-width: 0.8; stroke-linecap: round"/>
     </g>
     <g id="line2d_32"/>
     <g id="text_17">
      <!-- 22 -->
      <g style="fill: #262626" transform="translate(120.378125 96.301216) scale(0.1 -0.1)">
       <use xlink:href="#ArialMT-32"/>
       <use xlink:href="#ArialMT-32" x="55.615234"/>
      </g>
     </g>
    </g>
    <g id="text_18">
     <!-- Adj Close -->
     <g style="fill: #262626" transform="translate(114.273438 312.278437) rotate(-90) scale(0.1 -0.1)">
      <defs>
       <path id="ArialMT-41" d="M -9 0 
L 1750 4581 
L 2403 4581 
L 4278 0 
L 3588 0 
L 3053 1388 
L 1138 1388 
L 634 0 
L -9 0 
z
M 1313 1881 
L 2866 1881 
L 2388 3150 
Q 2169 3728 2063 4100 
Q 1975 3659 1816 3225 
L 1313 1881 
z
" transform="scale(0.015625)"/>
       <path id="ArialMT-64" d="M 2575 0 
L 2575 419 
Q 2259 -75 1647 -75 
Q 1250 -75 917 144 
Q 584 363 401 755 
Q 219 1147 219 1656 
Q 219 2153 384 2558 
Q 550 2963 881 3178 
Q 1213 3394 1622 3394 
Q 1922 3394 2156 3267 
Q 2391 3141 2538 2938 
L 2538 4581 
L 3097 4581 
L 3097 0 
L 2575 0 
z
M 797 1656 
Q 797 1019 1065 703 
Q 1334 388 1700 388 
Q 2069 388 2326 689 
Q 2584 991 2584 1609 
Q 2584 2291 2321 2609 
Q 2059 2928 1675 2928 
Q 1300 2928 1048 2622 
Q 797 2316 797 1656 
z
" transform="scale(0.015625)"/>
       <path id="ArialMT-6a" d="M 419 3928 
L 419 4581 
L 981 4581 
L 981 3928 
L 419 3928 
z
M -294 -1288 
L -188 -809 
Q -19 -853 78 -853 
Q 250 -853 334 -739 
Q 419 -625 419 -169 
L 419 3319 
L 981 3319 
L 981 -181 
Q 981 -794 822 -1034 
Q 619 -1347 147 -1347 
Q -81 -1347 -294 -1288 
z
" transform="scale(0.015625)"/>
       <path id="ArialMT-20" transform="scale(0.015625)"/>
       <path id="ArialMT-43" d="M 3763 1606 
L 4369 1453 
Q 4178 706 3683 314 
Q 3188 -78 2472 -78 
Q 1731 -78 1267 223 
Q 803 525 561 1097 
Q 319 1669 319 2325 
Q 319 3041 592 3573 
Q 866 4106 1370 4382 
Q 1875 4659 2481 4659 
Q 3169 4659 3637 4309 
Q 4106 3959 4291 3325 
L 3694 3184 
Q 3534 3684 3231 3912 
Q 2928 4141 2469 4141 
Q 1941 4141 1586 3887 
Q 1231 3634 1087 3207 
Q 944 2781 944 2328 
Q 944 1744 1114 1308 
Q 1284 872 1643 656 
Q 2003 441 2422 441 
Q 2931 441 3284 734 
Q 3638 1028 3763 1606 
z
" transform="scale(0.015625)"/>
       <path id="ArialMT-6c" d="M 409 0 
L 409 4581 
L 972 4581 
L 972 0 
L 409 0 
z
" transform="scale(0.015625)"/>
       <path id="ArialMT-6f" d="M 213 1659 
Q 213 2581 725 3025 
Q 1153 3394 1769 3394 
Q 2453 3394 2887 2945 
Q 3322 2497 3322 1706 
Q 3322 1066 3130 698 
Q 2938 331 2570 128 
Q 2203 -75 1769 -75 
Q 1072 -75 642 372 
Q 213 819 213 1659 
z
M 791 1659 
Q 791 1022 1069 705 
Q 1347 388 1769 388 
Q 2188 388 2466 706 
Q 2744 1025 2744 1678 
Q 2744 2294 2464 2611 
Q 2184 2928 1769 2928 
Q 1347 2928 1069 2612 
Q 791 2297 791 1659 
z
" transform="scale(0.015625)"/>
       <path id="ArialMT-73" d="M 197 991 
L 753 1078 
Q 800 744 1014 566 
Q 1228 388 1613 388 
Q 2000 388 2187 545 
Q 2375 703 2375 916 
Q 2375 1106 2209 1216 
Q 2094 1291 1634 1406 
Q 1016 1563 777 1677 
Q 538 1791 414 1992 
Q 291 2194 291 2438 
Q 291 2659 392 2848 
Q 494 3038 669 3163 
Q 800 3259 1026 3326 
Q 1253 3394 1513 3394 
Q 1903 3394 2198 3281 
Q 2494 3169 2634 2976 
Q 2775 2784 2828 2463 
L 2278 2388 
Q 2241 2644 2061 2787 
Q 1881 2931 1553 2931 
Q 1166 2931 1000 2803 
Q 834 2675 834 2503 
Q 834 2394 903 2306 
Q 972 2216 1119 2156 
Q 1203 2125 1616 2013 
Q 2213 1853 2448 1751 
Q 2684 1650 2818 1456 
Q 2953 1263 2953 975 
Q 2953 694 2789 445 
Q 2625 197 2315 61 
Q 2006 -75 1616 -75 
Q 969 -75 630 194 
Q 291 463 197 991 
z
" transform="scale(0.015625)"/>
      </defs>
      <use xlink:href="#ArialMT-41"/>
      <use xlink:href="#ArialMT-64" x="66.699219"/>
      <use xlink:href="#ArialMT-6a" x="122.314453"/>
      <use xlink:href="#ArialMT-20" x="144.53125"/>
      <use xlink:href="#ArialMT-43" x="172.314453"/>
      <use xlink:href="#ArialMT-6c" x="244.53125"/>
      <use xlink:href="#ArialMT-6f" x="266.748047"/>
      <use xlink:href="#ArialMT-73" x="322.363281"/>
      <use xlink:href="#ArialMT-65" x="372.363281"/>
     </g>
    </g>
   </g>
   <g id="line2d_33">
    <path d="M 173.045455 353.727036 
L 179.839286 353.036252 
L 186.633117 321.931365 
L 193.426948 315.635994 
L 213.808442 318.533374 
L 220.602273 307.106064 
L 227.396104 294.13777 
L 234.189935 296.003169 
L 240.983766 219.566591 
L 268.159091 209.610342 
L 274.952922 200.263774 
L 281.746753 198.476686 
L 288.540584 199.631719 
L 308.922078 206.122858 
L 315.715909 217.558561 
L 322.50974 247.125263 
L 329.303571 209.009051 
L 336.097403 208.939134 
L 356.478896 206.145232 
L 363.272727 238.564568 
L 370.066558 217.72077 
L 376.86039 207.210774 
L 383.654221 202.274601 
L 404.035714 199.189844 
L 410.829545 195.238108 
L 417.623377 190.511687 
L 424.417208 190.486516 
L 431.211039 190.310325 
L 451.592532 195.484217 
L 458.386364 199.455528 
L 465.180195 202.948607 
L 471.974026 197.825055 
L 478.767857 195.249295 
L 505.943182 196.465859 
L 512.737013 241.243805 
L 519.530844 251.720241 
L 526.324675 257.590514 
L 546.706169 262.495922 
L 553.5 271.615956 
L 560.293831 272.259196 
L 567.087662 248.64667 
L 573.881494 226.177988 
L 594.262987 210.818518 
L 601.056818 215.489007 
L 607.850649 206.086504 
L 614.644481 215.782657 
L 621.438312 245.408091 
L 641.819805 268.864003 
L 648.613636 283.334123 
L 655.407468 302.085991 
L 662.201299 321.897806 
L 668.99513 321.324481 
L 689.376623 320.552592 
L 696.170455 323.771594 
L 702.964286 322.129931 
L 709.758117 321.537031 
L 716.551948 320.890993 
L 736.933442 326.338962 
L 743.727273 324.465175 
L 750.521104 324.056857 
L 757.314935 321.830683 
L 764.108766 316.094654 
L 784.49026 304.505135 
L 791.284091 317.993613 
L 798.077922 319.243737 
L 804.871753 317.870558 
L 832.047078 319.582137 
L 838.840909 315.75066 
L 845.63474 318.413117 
L 852.428571 345.784411 
L 859.222403 342.671684 
L 879.603896 347.613453 
L 886.397727 348.203554 
L 893.191558 348.897137 
L 899.98539 323.187083 
L 906.779221 348.59789 
L 927.160714 324.761624 
L 933.954545 344.713275 
" clip-path="url(#p81fe4162c1)" style="fill: none; stroke: #1f77b4; stroke-width: 1.5; stroke-linecap: round"/>
   </g>
   <g id="line2d_34">
    <path d="M 173.045455 349.205247 
L 179.839286 356.783329 
L 186.633117 330.251111 
L 193.426948 325.021088 
L 213.808442 318.130703 
L 220.602273 309.43853 
L 227.396104 302.780903 
L 234.189935 302.768985 
L 240.983766 265.906307 
L 268.159091 264.878742 
L 274.952922 241.955768 
L 281.746753 246.89317 
L 288.540584 258.955641 
L 308.922078 255.738041 
L 315.715909 260.016397 
L 322.50974 271.423577 
L 329.303571 258.073484 
L 336.097403 262.055727 
L 356.478896 247.422289 
L 363.272727 276.770492 
L 370.066558 265.01129 
L 376.86039 266.322354 
L 383.654221 236.316052 
L 404.035714 246.472599 
L 410.829545 247.835664 
L 417.623377 247.183308 
L 424.417208 239.670153 
L 431.211039 235.747523 
L 451.592532 255.165392 
L 458.386364 247.396435 
L 465.180195 235.902323 
L 471.974026 244.312856 
L 478.767857 233.593101 
L 505.943182 254.432429 
L 512.737013 259.718563 
L 519.530844 275.890136 
L 526.324675 272.375004 
L 546.706169 277.40718 
L 553.5 277.725988 
L 560.293831 274.417945 
L 567.087662 277.1899 
L 573.881494 266.889181 
L 594.262987 266.279708 
L 601.056818 266.400966 
L 607.850649 263.722297 
L 614.644481 245.071692 
L 621.438312 277.212232 
L 641.819805 286.681451 
L 648.613636 304.232871 
L 655.407468 307.482178 
L 662.201299 321.310508 
L 668.99513 320.89234 
L 689.376623 324.42327 
L 696.170455 326.630294 
L 702.964286 324.33206 
L 709.758117 324.42276 
L 716.551948 329.964734 
L 736.933442 328.648091 
L 743.727273 324.765501 
L 750.521104 321.334453 
L 757.314935 319.407867 
L 764.108766 320.880795 
L 784.49026 308.471361 
L 791.284091 323.878402 
L 798.077922 322.172238 
L 804.871753 325.493375 
L 832.047078 319.56439 
L 838.840909 320.098908 
L 845.63474 319.613423 
L 852.428571 346.620303 
L 859.222403 347.533128 
L 879.603896 355.547828 
L 886.397727 347.293879 
L 893.191558 341.208966 
L 899.98539 327.931134 
L 906.779221 338.618455 
L 927.160714 326.024531 
L 933.954545 338.999365 
" clip-path="url(#p81fe4162c1)" style="fill: none; stroke: #ff7f0e; stroke-width: 1.5; stroke-linecap: round"/>
   </g>
   <g id="line2d_35">
    <path d="M 173.045455 370.474802 
L 179.839286 369.749698 
L 186.633117 256.977272 
L 193.426948 371.294497 
L 213.808442 384.890259 
L 220.602273 336.885135 
L 227.396104 190.729804 
L 234.189935 317.750342 
L 240.983766 217.724421 
L 268.159091 286.113191 
L 274.952922 395.934036 
L 281.746753 327.882997 
L 288.540584 171.00377 
L 308.922078 274.139302 
L 315.715909 335.581438 
L 322.50974 259.429301 
L 329.303571 231.066604 
L 336.097403 220.95164 
L 356.478896 352.402869 
L 363.272727 322.985912 
L 370.066558 332.641691 
L 376.86039 156.487361 
L 383.654221 274.545797 
L 404.035714 126.2547 
L 410.829545 320.093462 
L 417.623377 89.28 
L 424.417208 170.379745 
L 431.211039 210.256877 
L 451.592532 313.520324 
L 458.386364 163.70902 
L 465.180195 301.34874 
L 471.974026 191.622029 
L 478.767857 241.271625 
L 505.943182 234.919326 
L 512.737013 218.043363 
L 519.530844 147.33147 
L 526.324675 251.404124 
L 546.706169 267.450052 
L 553.5 284.264456 
L 560.293831 193.704341 
L 567.087662 275.451661 
L 573.881494 328.183923 
L 594.262987 373.645816 
L 601.056818 243.206962 
L 607.850649 261.9377 
L 614.644481 165.885617 
L 621.438312 261.828822 
L 641.819805 270.187559 
L 648.613636 323.350035 
L 655.407468 286.473605 
L 662.201299 289.40772 
L 668.99513 273.692554 
L 689.376623 264.597218 
L 696.170455 364.917327 
L 702.964286 218.018934 
L 709.758117 334.546345 
L 716.551948 316.357322 
L 736.933442 359.706461 
L 743.727273 424.863527 
L 750.521104 389.970531 
L 757.314935 253.602617 
L 764.108766 275.249346 
L 784.49026 299.181622 
L 791.284091 318.025184 
L 798.077922 299.677475 
L 804.871753 294.52717 
L 832.047078 337.253175 
L 838.840909 194.463154 
L 845.63474 329.31936 
L 852.428571 292.631792 
L 859.222403 351.613958 
L 879.603896 439.573971 
L 886.397727 492.48 
L 893.191558 296.745626 
L 899.98539 307.931953 
L 906.779221 394.958442 
L 927.160714 352.691578 
L 933.954545 418.940676 
" clip-path="url(#p81fe4162c1)" style="fill: none; stroke: #2ca02c; stroke-width: 1.5; stroke-linecap: round"/>
   </g>
   <g id="line2d_36">
    <path d="M 173.045455 357.569708 
L 179.839286 371.273526 
L 186.633117 310.864833 
L 193.426948 317.297228 
L 213.808442 332.399401 
L 220.602273 274.507741 
L 227.396104 274.507741 
L 234.189935 274.507741 
L 240.983766 289.609915 
L 268.159091 289.609915 
L 274.952922 244.303395 
L 281.746753 239.549005 
L 288.540584 261.363249 
L 308.922078 239.549005 
L 315.715909 208.225953 
L 322.50974 289.609915 
L 329.303571 289.609915 
L 336.097403 289.609915 
L 356.478896 289.609915 
L 363.272727 244.303395 
L 370.066558 275.346744 
L 376.86039 274.787418 
L 383.654221 274.787418 
L 404.035714 244.303395 
L 410.829545 239.549005 
L 417.623377 239.549005 
L 424.417208 239.549005 
L 431.211039 261.363249 
L 451.592532 239.549005 
L 458.386364 239.549005 
L 465.180195 275.346744 
L 471.974026 244.303395 
L 478.767857 244.303395 
L 505.943182 244.303395 
L 512.737013 233.396286 
L 519.530844 208.225953 
L 526.324675 275.346744 
L 546.706169 208.225953 
L 553.5 275.346744 
L 560.293831 274.787418 
L 567.087662 274.787418 
L 573.881494 274.787418 
L 594.262987 275.346744 
L 601.056818 274.507741 
L 607.850649 274.787418 
L 614.644481 274.787418 
L 621.438312 274.787418 
L 641.819805 313.941192 
L 648.613636 313.941192 
L 655.407468 313.941192 
L 662.201299 328.763689 
L 668.99513 328.763689 
L 689.376623 328.763689 
L 696.170455 328.763689 
L 702.964286 328.763689 
L 709.758117 328.763689 
L 716.551948 328.763689 
L 736.933442 330.162044 
L 743.727273 330.162044 
L 750.521104 330.162044 
L 757.314935 315.619223 
L 764.108766 315.619223 
L 784.49026 288.770913 
L 791.284091 303.313733 
L 798.077922 325.407654 
L 804.871753 331.560399 
L 832.047078 331.560399 
L 838.840909 303.313733 
L 845.63474 337.99282 
L 852.428571 344.704891 
L 859.222403 335.755437 
L 879.603896 357.569708 
L 886.397727 352.535641 
L 893.191558 349.738931 
L 899.98539 337.99282 
L 906.779221 352.535641 
L 927.160714 327.645011 
L 933.954545 367.917491 
" clip-path="url(#p81fe4162c1)" style="fill: none; stroke: #d62728; stroke-width: 1.5; stroke-linecap: round"/>
   </g>
   <g id="line2d_37">
    <path d="M 173.045455 333.821255 
L 179.839286 334.035635 
L 186.633117 332.79556 
L 193.426948 330.995386 
L 213.808442 328.984254 
L 220.602273 326.533002 
L 227.396104 323.228396 
L 234.189935 320.017573 
L 240.983766 314.37384 
L 268.159091 308.978394 
L 274.952922 304.120205 
L 281.746753 300.688918 
L 288.540584 298.370565 
L 308.922078 296.134361 
L 315.715909 294.560373 
L 322.50974 293.386452 
L 329.303571 291.923513 
L 336.097403 290.076696 
L 356.478896 288.728899 
L 363.272727 288.446144 
L 370.066558 287.819239 
L 376.86039 286.034366 
L 383.654221 283.403558 
L 404.035714 280.989592 
L 410.829545 278.817586 
L 417.623377 276.619429 
L 424.417208 274.565751 
L 431.211039 273.090383 
L 451.592532 272.465941 
L 458.386364 271.551863 
L 465.180195 270.170056 
L 471.974026 269.086234 
L 478.767857 269.154612 
L 505.943182 269.443931 
L 512.737013 271.12484 
L 519.530844 272.977269 
L 526.324675 273.942483 
L 546.706169 275.589973 
L 553.5 276.843454 
L 560.293831 277.241754 
L 567.087662 277.449357 
L 573.881494 277.426934 
L 594.262987 276.931512 
L 601.056818 276.795197 
L 607.850649 276.213935 
L 614.644481 275.273458 
L 621.438312 275.803418 
L 641.819805 277.151641 
L 648.613636 279.544543 
L 655.407468 282.088142 
L 662.201299 286.01169 
L 668.99513 289.179328 
L 689.376623 292.27721 
L 696.170455 295.21373 
L 702.964286 297.138883 
L 709.758117 299.893212 
L 716.551948 302.716938 
L 736.933442 304.997091 
L 743.727273 306.393967 
L 750.521104 307.384969 
L 757.314935 307.596423 
L 764.108766 307.281028 
L 784.49026 306.559277 
L 791.284091 306.58112 
L 798.077922 307.049253 
L 804.871753 308.163976 
L 832.047078 308.978548 
L 838.840909 309.496041 
L 845.63474 309.800964 
L 852.428571 312.770645 
L 859.222403 315.574302 
L 879.603896 318.494805 
L 886.397727 320.48277 
L 893.191558 321.848408 
L 899.98539 322.40455 
L 906.779221 323.380881 
L 927.160714 324.026566 
L 933.954545 324.685786 
" clip-path="url(#p81fe4162c1)" style="fill: none; stroke: #9467bd; stroke-width: 1.5; stroke-linecap: round"/>
   </g>
   <g id="line2d_38">
    <path d="M 173.045455 355.723881 
L 179.839286 355.723881 
L 186.633117 355.723881 
L 193.426948 352.983118 
L 213.808442 334.804575 
L 220.602273 327.309421 
L 227.396104 322.275359 
L 234.189935 318.975254 
L 240.983766 317.465034 
L 268.159091 316.346355 
L 274.952922 312.598778 
L 281.746753 309.130872 
L 288.540584 317.017562 
L 308.922078 317.688769 
L 315.715909 321.436346 
L 322.50974 322.051618 
L 329.303571 321.883818 
L 336.097403 315.787013 
L 356.478896 313.605591 
L 363.272727 319.534596 
L 370.066558 318.248117 
L 376.86039 319.366795 
L 383.654221 247.49163 
L 404.035714 201.290162 
L 410.829545 201.290162 
L 417.623377 201.290162 
L 424.417208 186.635455 
L 431.211039 186.635455 
L 451.592532 186.635455 
L 458.386364 186.635455 
L 465.180195 173.490968 
L 471.974026 173.490968 
L 478.767857 173.490968 
L 505.943182 166.387361 
L 512.737013 336.314789 
L 519.530844 336.314789 
L 526.324675 336.314789 
L 546.706169 336.314789 
L 553.5 346.215106 
L 560.293831 346.215106 
L 567.087662 346.215106 
L 573.881494 346.215106 
L 594.262987 346.215106 
L 601.056818 346.215106 
L 607.850649 346.215106 
L 614.644481 306.334178 
L 621.438312 301.915394 
L 641.819805 301.915394 
L 648.613636 336.314789 
L 655.407468 336.314789 
L 662.201299 346.215106 
L 668.99513 347.781256 
L 689.376623 346.942243 
L 696.170455 348.788069 
L 702.964286 348.788069 
L 709.758117 339.055558 
L 716.551948 335.587647 
L 736.933442 333.014684 
L 743.727273 333.406225 
L 750.521104 335.08424 
L 757.314935 328.372164 
L 764.108766 326.806009 
L 784.49026 312.878449 
L 791.284091 312.878449 
L 798.077922 315.339542 
L 804.871753 316.793827 
L 832.047078 315.171741 
L 838.840909 319.646461 
L 845.63474 319.646461 
L 852.428571 336.985996 
L 859.222403 350.130484 
L 879.603896 358.184979 
L 886.397727 360.757937 
L 893.191558 361.596945 
L 899.98539 353.878061 
L 906.779221 355.108604 
L 927.160714 357.849373 
L 933.954545 358.073114 
" clip-path="url(#p81fe4162c1)" style="fill: none; stroke: #8c564b; stroke-width: 1.5; stroke-linecap: round"/>
   </g>
   <g id="line2d_39">
    <path d="M 173.045455 353.795838 
L 179.839286 359.325593 
L 186.633117 352.327711 
L 193.426948 335.458477 
L 213.808442 339.269927 
L 220.602273 333.377708 
L 227.396104 321.402543 
L 234.189935 308.312407 
L 240.983766 293.533544 
L 268.159091 281.390349 
L 274.952922 269.748817 
L 281.746753 271.754853 
L 288.540584 274.939685 
L 308.922078 274.147944 
L 315.715909 281.121848 
L 322.50974 279.321689 
L 329.303571 277.720152 
L 336.097403 277.917653 
L 356.478896 270.238317 
L 363.272727 272.348505 
L 370.066558 273.833782 
L 376.86039 278.639221 
L 383.654221 267.757077 
L 404.035714 260.959097 
L 410.829545 262.960146 
L 417.623377 266.346987 
L 424.417208 257.035521 
L 431.211039 258.113632 
L 451.592532 266.244008 
L 458.386364 266.774022 
L 465.180195 258.723981 
L 471.974026 258.574834 
L 478.767857 256.638437 
L 505.943182 266.294737 
L 512.737013 270.746087 
L 519.530844 272.925381 
L 526.324675 268.386975 
L 546.706169 271.962436 
L 553.5 274.918881 
L 560.293831 273.823353 
L 567.087662 274.871646 
L 573.881494 278.473325 
L 594.262987 279.715812 
L 601.056818 284.031752 
L 607.850649 280.110576 
L 614.644481 278.628126 
L 621.438312 284.067731 
L 641.819805 287.571126 
L 648.613636 316.214022 
L 655.407468 326.782751 
L 662.201299 341.309329 
L 668.99513 339.360716 
L 689.376623 340.599043 
L 696.170455 347.990514 
L 702.964286 346.250739 
L 709.758117 348.778068 
L 716.551948 352.092842 
L 736.933442 355.909333 
L 743.727273 351.521274 
L 750.521104 342.42542 
L 757.314935 339.832907 
L 764.108766 335.573831 
L 784.49026 332.545987 
L 791.284091 340.19129 
L 798.077922 345.787724 
L 804.871753 346.833269 
L 832.047078 344.67702 
L 838.840909 342.730434 
L 845.63474 343.018005 
L 852.428571 357.63844 
L 859.222403 358.410363 
L 879.603896 363.607286 
L 886.397727 357.221619 
L 893.191558 354.018891 
L 899.98539 351.078236 
L 906.779221 347.370004 
L 927.160714 346.380415 
L 933.954545 355.75984 
" clip-path="url(#p81fe4162c1)" style="fill: none; stroke: #e377c2; stroke-width: 1.5; stroke-linecap: round"/>
   </g>
   <g id="line2d_40">
    <path d="M 173.045455 357.106578 
L 179.839286 352.738986 
L 186.633117 333.076435 
L 193.426948 328.315161 
L 213.808442 317.963463 
L 220.602273 311.204167 
L 227.396104 293.291003 
L 234.189935 291.781937 
L 240.983766 261.068311 
L 268.159091 247.828792 
L 274.952922 242.814608 
L 281.746753 251.883139 
L 288.540584 257.675495 
L 308.922078 260.384482 
L 315.715909 265.268042 
L 322.50974 270.910223 
L 329.303571 259.750323 
L 336.097403 257.851267 
L 356.478896 259.411975 
L 363.272727 275.5092 
L 370.066558 270.801777 
L 376.86039 254.9101 
L 383.654221 247.373573 
L 404.035714 241.727485 
L 410.829545 240.489194 
L 417.623377 231.370087 
L 424.417208 236.993621 
L 431.211039 240.556839 
L 451.592532 246.217168 
L 458.386364 244.164771 
L 465.180195 233.528042 
L 471.974026 236.094082 
L 478.767857 244.077447 
L 505.943182 247.489217 
L 512.737013 268.844096 
L 519.530844 279.262286 
L 526.324675 275.344918 
L 546.706169 279.660379 
L 553.5 279.64541 
L 560.293831 270.920784 
L 567.087662 270.607474 
L 573.881494 268.790978 
L 594.262987 267.888276 
L 601.056818 267.252978 
L 607.850649 261.668152 
L 614.644481 256.62824 
L 621.438312 268.910588 
L 641.819805 281.720359 
L 648.613636 294.622999 
L 655.407468 302.595743 
L 662.201299 319.26955 
L 668.99513 321.233649 
L 689.376623 320.086829 
L 696.170455 324.704976 
L 702.964286 319.542919 
L 709.758117 328.518142 
L 716.551948 337.638173 
L 736.933442 336.898517 
L 743.727273 334.577935 
L 750.521104 324.618838 
L 757.314935 318.428977 
L 764.108766 308.591365 
L 784.49026 303.343691 
L 791.284091 313.182564 
L 798.077922 314.191034 
L 804.871753 324.405124 
L 832.047078 320.513255 
L 838.840909 318.88073 
L 845.63474 315.546881 
L 852.428571 343.522396 
L 859.222403 349.090062 
L 879.603896 357.321762 
L 886.397727 351.172644 
L 893.191558 342.612674 
L 899.98539 335.695087 
L 906.779221 342.594582 
L 927.160714 338.776557 
L 933.954545 342.504668 
" clip-path="url(#p81fe4162c1)" style="fill: none; stroke: #7f7f7f; stroke-width: 1.5; stroke-linecap: round"/>
   </g>
   <g id="line2d_41">
    <path d="M 173.045455 343.41624 
L 179.839286 342.336627 
L 186.633117 331.614421 
L 193.426948 321.514353 
L 213.808442 314.595508 
L 220.602273 306.479313 
L 227.396104 295.67837 
L 234.189935 288.822771 
L 240.983766 267.785803 
L 268.159091 255.521959 
L 274.952922 249.460803 
L 281.746753 252.5175 
L 288.540584 258.524901 
L 308.922078 260.595012 
L 315.715909 263.494272 
L 322.50974 266.65938 
L 329.303571 265.244054 
L 336.097403 260.135847 
L 356.478896 259.843688 
L 363.272727 265.64975 
L 370.066558 266.331876 
L 376.86039 259.703546 
L 383.654221 251.884115 
L 404.035714 248.87052 
L 410.829545 248.949787 
L 417.623377 248.578442 
L 424.417208 248.23082 
L 431.211039 251.862035 
L 451.592532 258.313843 
L 458.386364 258.542308 
L 465.180195 254.975122 
L 471.974026 253.068912 
L 478.767857 257.327642 
L 505.943182 259.848461 
L 512.737013 269.046184 
L 519.530844 274.968064 
L 526.324675 273.837069 
L 546.706169 276.768073 
L 553.5 277.389779 
L 560.293831 273.416424 
L 567.087662 270.728035 
L 573.881494 268.468683 
L 594.262987 264.613735 
L 601.056818 265.685871 
L 607.850649 263.415321 
L 614.644481 259.52993 
L 621.438312 266.292674 
L 641.819805 274.891497 
L 648.613636 286.338381 
L 655.407468 293.79378 
L 662.201299 306.802886 
L 668.99513 309.705433 
L 689.376623 312.394423 
L 696.170455 313.717323 
L 702.964286 309.362662 
L 709.758117 313.852729 
L 716.551948 318.443811 
L 736.933442 319.535246 
L 743.727273 317.102511 
L 750.521104 315.39671 
L 757.314935 310.209915 
L 764.108766 306.274496 
L 784.49026 301.082419 
L 791.284091 302.756394 
L 798.077922 306.907151 
L 804.871753 312.198526 
L 832.047078 313.124249 
L 838.840909 311.68734 
L 845.63474 308.888964 
L 852.428571 323.673979 
L 859.222403 331.583808 
L 879.603896 336.913968 
L 886.397727 335.242982 
L 893.191558 332.056032 
L 899.98539 326.435445 
L 906.779221 327.554215 
L 927.160714 327.307414 
L 933.954545 328.151302 
" clip-path="url(#p81fe4162c1)" style="fill: none; stroke: #bcbd22; stroke-width: 1.5; stroke-linecap: round"/>
   </g>
   <g id="line2d_42">
    <path d="M 458.386364 281.973706 
L 465.180195 278.934794 
L 471.974026 276.880456 
L 478.767857 279.983433 
L 505.943182 282.265598 
L 512.737013 285.515081 
L 519.530844 291.352651 
L 526.324675 291.386843 
L 546.706169 294.331553 
L 553.5 294.89888 
L 560.293831 294.760962 
L 567.087662 293.098027 
L 573.881494 291.908963 
L 594.262987 289.702144 
L 601.056818 288.81212 
L 607.850649 288.580639 
L 614.644481 285.527164 
L 621.438312 287.166334 
L 641.819805 293.098587 
L 648.613636 299.998211 
L 655.407468 305.743551 
L 662.201299 314.989965 
L 668.99513 320.171871 
L 689.376623 322.220368 
L 696.170455 324.514882 
L 702.964286 324.883161 
L 709.758117 326.268366 
L 716.551948 329.377292 
L 736.933442 331.870267 
L 743.727273 331.385995 
L 750.521104 330.542458 
L 757.314935 329.784377 
L 764.108766 327.2471 
L 784.49026 324.139055 
L 791.284091 324.707263 
L 798.077922 326.049181 
L 804.871753 328.228661 
L 832.047078 328.743099 
L 838.840909 328.766063 
L 845.63474 328.422669 
L 852.428571 337.348199 
L 859.222403 346.04817 
L 879.603896 348.629561 
L 886.397727 351.47852 
L 893.191558 351.817754 
L 899.98539 350.567452 
L 906.779221 350.845234 
L 927.160714 350.639545 
L 933.954545 350.543714 
" clip-path="url(#p81fe4162c1)" style="fill: none; stroke: #17becf; stroke-width: 1.5; stroke-linecap: round"/>
   </g>
   <g id="line2d_43">
    <path d="M 458.386364 247.18908 
L 465.180195 247.193935 
L 471.974026 246.24646 
L 478.767857 248.460133 
L 505.943182 250.382394 
L 512.737013 256.452111 
L 519.530844 260.929572 
L 526.324675 264.663408 
L 546.706169 268.688789 
L 553.5 271.362863 
L 560.293831 270.657565 
L 567.087662 269.858223 
L 573.881494 268.101965 
L 594.262987 265.051397 
L 601.056818 264.218236 
L 607.850649 261.528825 
L 614.644481 258.880488 
L 621.438312 261.424353 
L 641.819805 265.004562 
L 648.613636 273.778519 
L 655.407468 281.746466 
L 662.201299 294.53999 
L 668.99513 301.87009 
L 689.376623 309.668487 
L 696.170455 314.47294 
L 702.964286 315.117828 
L 709.758117 318.853477 
L 716.551948 321.041012 
L 736.933442 322.707388 
L 743.727273 323.385642 
L 750.521104 323.269488 
L 757.314935 320.83839 
L 764.108766 318.529207 
L 784.49026 313.283956 
L 791.284091 311.690073 
L 798.077922 311.792144 
L 804.871753 313.679413 
L 832.047078 314.315765 
L 838.840909 315.155194 
L 845.63474 315.008262 
L 852.428571 327.826883 
L 859.222403 335.161865 
L 879.603896 341.607969 
L 886.397727 343.956919 
L 893.191558 346.5166 
L 899.98539 344.853291 
L 906.779221 344.215978 
L 927.160714 341.733884 
L 933.954545 341.365899 
" clip-path="url(#p81fe4162c1)" style="fill: none; stroke: #1f77b4; stroke-width: 1.5; stroke-linecap: round"/>
   </g>
   <g id="line2d_44">
    <path d="M 173.045455 351.696639 
L 179.839286 327.924687 
L 186.633117 316.737902 
L 193.426948 311.424159 
L 213.808442 299.398372 
L 220.602273 283.17752 
L 227.396104 278.982456 
L 234.189935 237.311648 
L 240.983766 231.997905 
L 268.159091 230.3199 
L 274.952922 242.625391 
L 281.746753 252.693471 
L 288.540584 251.015466 
L 308.922078 255.769856 
L 315.715909 259.964894 
L 322.50974 253.252823 
L 329.303571 243.464366 
L 336.097403 248.498433 
L 356.478896 261.642925 
L 363.272727 256.608885 
L 370.066558 241.227009 
L 376.86039 230.879253 
L 383.654221 231.997905 
L 404.035714 234.794614 
L 410.829545 233.675962 
L 417.623377 233.396286 
L 424.417208 242.066038 
L 431.211039 252.693471 
L 451.592532 246.261076 
L 458.386364 238.430299 
L 465.180195 238.150677 
L 471.974026 249.617138 
L 478.767857 250.456113 
L 505.943182 269.194025 
L 512.737013 272.82971 
L 519.530844 264.159959 
L 526.324675 272.82971 
L 546.706169 270.87203 
L 553.5 261.083599 
L 560.293831 259.685218 
L 567.087662 257.168185 
L 573.881494 250.456113 
L 594.262987 257.168185 
L 601.056818 250.456113 
L 607.850649 244.023719 
L 614.644481 263.880282 
L 621.438312 275.62642 
L 641.819805 292.686274 
L 648.613636 298.000017 
L 655.407468 320.373614 
L 662.201299 313.10219 
L 668.99513 317.017578 
L 689.376623 317.576904 
L 696.170455 306.110443 
L 702.964286 321.492292 
L 709.758117 326.806009 
L 716.551948 324.288975 
L 736.933442 318.136257 
L 743.727273 317.017578 
L 750.521104 306.669769 
L 757.314935 303.313733 
L 764.108766 295.482984 
L 784.49026 304.712088 
L 791.284091 311.983512 
L 798.077922 319.534585 
L 804.871753 316.178549 
L 832.047078 312.263188 
L 838.840909 307.508798 
L 845.63474 344.425215 
L 852.428571 345.82357 
L 859.222403 350.298284 
L 879.603896 341.628506 
L 886.397727 336.314789 
L 893.191558 326.806009 
L 899.98539 335.475787 
L 906.779221 333.23843 
L 927.160714 335.475787 
L 933.954545 348.899929 
" clip-path="url(#p81fe4162c1)" style="fill: none; stroke: #000000; stroke-width: 2; stroke-linecap: round"/>
   </g>
   <g id="patch_3">
    <path d="M 135 512.64 
L 135 69.12 
" style="fill: none; stroke: #cccccc; stroke-linejoin: miter; stroke-linecap: square"/>
   </g>
   <g id="patch_4">
    <path d="M 972 512.64 
L 972 69.12 
" style="fill: none; stroke: #cccccc; stroke-linejoin: miter; stroke-linecap: square"/>
   </g>
   <g id="patch_5">
    <path d="M 135 512.64 
L 972 512.64 
" style="fill: none; stroke: #cccccc; stroke-linejoin: miter; stroke-linecap: square"/>
   </g>
   <g id="patch_6">
    <path d="M 135 69.12 
L 972 69.12 
" style="fill: none; stroke: #cccccc; stroke-linejoin: miter; stroke-linecap: square"/>
   </g>
   <g id="text_19">
    <!-- Tahminler ve Gerçek Değerler -->
    <g style="fill: #262626" transform="translate(473.811563 63.12) scale(0.12 -0.12)">
     <defs>
      <path id="ArialMT-54" d="M 1659 0 
L 1659 4041 
L 150 4041 
L 150 4581 
L 3781 4581 
L 3781 4041 
L 2266 4041 
L 2266 0 
L 1659 0 
z
" transform="scale(0.015625)"/>
      <path id="ArialMT-68" d="M 422 0 
L 422 4581 
L 984 4581 
L 984 2938 
Q 1378 3394 1978 3394 
Q 2347 3394 2619 3248 
Q 2891 3103 3008 2847 
Q 3125 2591 3125 2103 
L 3125 0 
L 2563 0 
L 2563 2103 
Q 2563 2525 2380 2717 
Q 2197 2909 1863 2909 
Q 1613 2909 1392 2779 
Q 1172 2650 1078 2428 
Q 984 2206 984 1816 
L 984 0 
L 422 0 
z
" transform="scale(0.015625)"/>
      <path id="ArialMT-6d" d="M 422 0 
L 422 3319 
L 925 3319 
L 925 2853 
Q 1081 3097 1340 3245 
Q 1600 3394 1931 3394 
Q 2300 3394 2536 3241 
Q 2772 3088 2869 2813 
Q 3263 3394 3894 3394 
Q 4388 3394 4653 3120 
Q 4919 2847 4919 2278 
L 4919 0 
L 4359 0 
L 4359 2091 
Q 4359 2428 4304 2576 
Q 4250 2725 4106 2815 
Q 3963 2906 3769 2906 
Q 3419 2906 3187 2673 
Q 2956 2441 2956 1928 
L 2956 0 
L 2394 0 
L 2394 2156 
Q 2394 2531 2256 2718 
Q 2119 2906 1806 2906 
Q 1569 2906 1367 2781 
Q 1166 2656 1075 2415 
Q 984 2175 984 1722 
L 984 0 
L 422 0 
z
" transform="scale(0.015625)"/>
      <path id="ArialMT-69" d="M 425 3934 
L 425 4581 
L 988 4581 
L 988 3934 
L 425 3934 
z
M 425 0 
L 425 3319 
L 988 3319 
L 988 0 
L 425 0 
z
" transform="scale(0.015625)"/>
      <path id="ArialMT-6e" d="M 422 0 
L 422 3319 
L 928 3319 
L 928 2847 
Q 1294 3394 1984 3394 
Q 2284 3394 2536 3286 
Q 2788 3178 2913 3003 
Q 3038 2828 3088 2588 
Q 3119 2431 3119 2041 
L 3119 0 
L 2556 0 
L 2556 2019 
Q 2556 2363 2490 2533 
Q 2425 2703 2258 2804 
Q 2091 2906 1866 2906 
Q 1506 2906 1245 2678 
Q 984 2450 984 1813 
L 984 0 
L 422 0 
z
" transform="scale(0.015625)"/>
      <path id="ArialMT-72" d="M 416 0 
L 416 3319 
L 922 3319 
L 922 2816 
Q 1116 3169 1280 3281 
Q 1444 3394 1641 3394 
Q 1925 3394 2219 3213 
L 2025 2691 
Q 1819 2813 1613 2813 
Q 1428 2813 1281 2702 
Q 1134 2591 1072 2394 
Q 978 2094 978 1738 
L 978 0 
L 416 0 
z
" transform="scale(0.015625)"/>
      <path id="ArialMT-76" d="M 1344 0 
L 81 3319 
L 675 3319 
L 1388 1331 
Q 1503 1009 1600 663 
Q 1675 925 1809 1294 
L 2547 3319 
L 3125 3319 
L 1869 0 
L 1344 0 
z
" transform="scale(0.015625)"/>
      <path id="ArialMT-47" d="M 2638 1797 
L 2638 2334 
L 4578 2338 
L 4578 638 
Q 4131 281 3656 101 
Q 3181 -78 2681 -78 
Q 2006 -78 1454 211 
Q 903 500 622 1047 
Q 341 1594 341 2269 
Q 341 2938 620 3517 
Q 900 4097 1425 4378 
Q 1950 4659 2634 4659 
Q 3131 4659 3532 4498 
Q 3934 4338 4162 4050 
Q 4391 3763 4509 3300 
L 3963 3150 
Q 3859 3500 3706 3700 
Q 3553 3900 3268 4020 
Q 2984 4141 2638 4141 
Q 2222 4141 1919 4014 
Q 1616 3888 1430 3681 
Q 1244 3475 1141 3228 
Q 966 2803 966 2306 
Q 966 1694 1177 1281 
Q 1388 869 1791 669 
Q 2194 469 2647 469 
Q 3041 469 3416 620 
Q 3791 772 3984 944 
L 3984 1797 
L 2638 1797 
z
" transform="scale(0.015625)"/>
      <path id="ArialMT-e7" d="M 2588 1216 
L 3141 1144 
Q 3050 572 2676 248 
Q 2303 -75 1759 -75 
Q 1078 -75 664 370 
Q 250 816 250 1647 
Q 250 2184 428 2587 
Q 606 2991 970 3192 
Q 1334 3394 1763 3394 
Q 2303 3394 2647 3120 
Q 2991 2847 3088 2344 
L 2541 2259 
Q 2463 2594 2264 2762 
Q 2066 2931 1784 2931 
Q 1359 2931 1093 2626 
Q 828 2322 828 1663 
Q 828 994 1084 691 
Q 1341 388 1753 388 
Q 2084 388 2306 591 
Q 2528 794 2588 1216 
z
M 1283 -417 
L 1446 136 
L 1864 136 
L 1761 -199 
Q 2027 -230 2161 -362 
Q 2296 -495 2296 -658 
Q 2296 -892 2071 -1072 
Q 1846 -1252 1392 -1252 
Q 1136 -1252 942 -1214 
L 977 -849 
Q 1177 -861 1271 -861 
Q 1564 -861 1683 -780 
Q 1774 -717 1774 -627 
Q 1774 -570 1738 -526 
Q 1702 -483 1605 -451 
Q 1508 -420 1283 -417 
z
" transform="scale(0.015625)"/>
      <path id="ArialMT-6b" d="M 425 0 
L 425 4581 
L 988 4581 
L 988 1969 
L 2319 3319 
L 3047 3319 
L 1778 2088 
L 3175 0 
L 2481 0 
L 1384 1697 
L 988 1316 
L 988 0 
L 425 0 
z
" transform="scale(0.015625)"/>
      <path id="ArialMT-11f" d="M 319 -275 
L 866 -356 
Q 900 -609 1056 -725 
Q 1266 -881 1628 -881 
Q 2019 -881 2231 -725 
Q 2444 -569 2519 -288 
Q 2563 -116 2559 434 
Q 2191 0 1641 0 
Q 956 0 581 494 
Q 206 988 206 1678 
Q 206 2153 378 2554 
Q 550 2956 876 3175 
Q 1203 3394 1644 3394 
Q 2231 3394 2613 2919 
L 2613 3319 
L 3131 3319 
L 3131 450 
Q 3131 -325 2973 -648 
Q 2816 -972 2473 -1159 
Q 2131 -1347 1631 -1347 
Q 1038 -1347 672 -1080 
Q 306 -813 319 -275 
z
M 784 1719 
Q 784 1066 1043 766 
Q 1303 466 1694 466 
Q 2081 466 2343 764 
Q 2606 1063 2606 1700 
Q 2606 2309 2336 2618 
Q 2066 2928 1684 2928 
Q 1309 2928 1046 2623 
Q 784 2319 784 1719 
z
M 2318 4575 
L 2703 4575 
Q 2656 4184 2417 3975 
Q 2178 3766 1781 3766 
Q 1381 3766 1142 3973 
Q 903 4181 856 4575 
L 1240 4575 
Q 1284 4363 1413 4258 
Q 1543 4153 1762 4153 
Q 2015 4153 2145 4254 
Q 2275 4356 2318 4575 
z
" transform="scale(0.015625)"/>
     </defs>
     <use xlink:href="#ArialMT-54"/>
     <use xlink:href="#ArialMT-61" x="49.958984"/>
     <use xlink:href="#ArialMT-68" x="105.574219"/>
     <use xlink:href="#ArialMT-6d" x="161.189453"/>
     <use xlink:href="#ArialMT-69" x="244.490234"/>
     <use xlink:href="#ArialMT-6e" x="266.707031"/>
     <use xlink:href="#ArialMT-6c" x="322.322266"/>
     <use xlink:href="#ArialMT-65" x="344.539062"/>
     <use xlink:href="#ArialMT-72" x="400.154297"/>
     <use xlink:href="#ArialMT-20" x="433.455078"/>
     <use xlink:href="#ArialMT-76" x="461.238281"/>
     <use xlink:href="#ArialMT-65" x="511.238281"/>
     <use xlink:href="#ArialMT-20" x="566.853516"/>
     <use xlink:href="#ArialMT-47" x="594.636719"/>
     <use xlink:href="#ArialMT-65" x="672.419922"/>
     <use xlink:href="#ArialMT-72" x="728.035156"/>
     <use xlink:href="#ArialMT-e7" x="761.335938"/>
     <use xlink:href="#ArialMT-65" x="811.335938"/>
     <use xlink:href="#ArialMT-6b" x="866.951172"/>
     <use xlink:href="#ArialMT-20" x="916.951172"/>
     <use xlink:href="#ArialMT-44" x="944.734375"/>
     <use xlink:href="#ArialMT-65" x="1016.951172"/>
     <use xlink:href="#ArialMT-11f" x="1072.566406"/>
     <use xlink:href="#ArialMT-65" x="1128.181641"/>
     <use xlink:href="#ArialMT-72" x="1183.796875"/>
     <use xlink:href="#ArialMT-6c" x="1217.097656"/>
     <use xlink:href="#ArialMT-65" x="1239.314453"/>
     <use xlink:href="#ArialMT-72" x="1294.929688"/>
    </g>
   </g>
   <g id="legend_1">
    <g id="line2d_45">
     <path d="M 841.63125 81.777813 
L 851.63125 81.777813 
L 861.63125 81.777813 
" style="fill: none; stroke: #1f77b4; stroke-width: 1.5; stroke-linecap: round"/>
    </g>
    <g id="text_20">
     <!-- Random Forest -->
     <g style="fill: #262626" transform="translate(869.63125 85.277813) scale(0.1 -0.1)">
      <defs>
       <path id="ArialMT-52" d="M 503 0 
L 503 4581 
L 2534 4581 
Q 3147 4581 3465 4457 
Q 3784 4334 3975 4021 
Q 4166 3709 4166 3331 
Q 4166 2844 3850 2509 
Q 3534 2175 2875 2084 
Q 3116 1969 3241 1856 
Q 3506 1613 3744 1247 
L 4541 0 
L 3778 0 
L 3172 953 
Q 2906 1366 2734 1584 
Q 2563 1803 2427 1890 
Q 2291 1978 2150 2013 
Q 2047 2034 1813 2034 
L 1109 2034 
L 1109 0 
L 503 0 
z
M 1109 2559 
L 2413 2559 
Q 2828 2559 3062 2645 
Q 3297 2731 3419 2920 
Q 3541 3109 3541 3331 
Q 3541 3656 3305 3865 
Q 3069 4075 2559 4075 
L 1109 4075 
L 1109 2559 
z
" transform="scale(0.015625)"/>
       <path id="ArialMT-46" d="M 525 0 
L 525 4581 
L 3616 4581 
L 3616 4041 
L 1131 4041 
L 1131 2622 
L 3281 2622 
L 3281 2081 
L 1131 2081 
L 1131 0 
L 525 0 
z
" transform="scale(0.015625)"/>
      </defs>
      <use xlink:href="#ArialMT-52"/>
      <use xlink:href="#ArialMT-61" x="72.216797"/>
      <use xlink:href="#ArialMT-6e" x="127.832031"/>
      <use xlink:href="#ArialMT-64" x="183.447266"/>
      <use xlink:href="#ArialMT-6f" x="239.0625"/>
      <use xlink:href="#ArialMT-6d" x="294.677734"/>
      <use xlink:href="#ArialMT-20" x="377.978516"/>
      <use xlink:href="#ArialMT-46" x="405.761719"/>
      <use xlink:href="#ArialMT-6f" x="466.845703"/>
      <use xlink:href="#ArialMT-72" x="522.460938"/>
      <use xlink:href="#ArialMT-65" x="555.761719"/>
      <use xlink:href="#ArialMT-73" x="611.376953"/>
      <use xlink:href="#ArialMT-74" x="661.376953"/>
     </g>
    </g>
    <g id="line2d_46">
     <path d="M 841.63125 96.045 
L 851.63125 96.045 
L 861.63125 96.045 
" style="fill: none; stroke: #ff7f0e; stroke-width: 1.5; stroke-linecap: round"/>
    </g>
    <g id="text_21">
     <!-- Gradient Boosting -->
     <g style="fill: #262626" transform="translate(869.63125 99.545) scale(0.1 -0.1)">
      <defs>
       <path id="ArialMT-42" d="M 469 0 
L 469 4581 
L 2188 4581 
Q 2713 4581 3030 4442 
Q 3347 4303 3526 4014 
Q 3706 3725 3706 3409 
Q 3706 3116 3547 2856 
Q 3388 2597 3066 2438 
Q 3481 2316 3704 2022 
Q 3928 1728 3928 1328 
Q 3928 1006 3792 729 
Q 3656 453 3456 303 
Q 3256 153 2954 76 
Q 2653 0 2216 0 
L 469 0 
z
M 1075 2656 
L 2066 2656 
Q 2469 2656 2644 2709 
Q 2875 2778 2992 2937 
Q 3109 3097 3109 3338 
Q 3109 3566 3000 3739 
Q 2891 3913 2687 3977 
Q 2484 4041 1991 4041 
L 1075 4041 
L 1075 2656 
z
M 1075 541 
L 2216 541 
Q 2509 541 2628 563 
Q 2838 600 2978 687 
Q 3119 775 3209 942 
Q 3300 1109 3300 1328 
Q 3300 1584 3169 1773 
Q 3038 1963 2805 2039 
Q 2572 2116 2134 2116 
L 1075 2116 
L 1075 541 
z
" transform="scale(0.015625)"/>
       <path id="ArialMT-67" d="M 319 -275 
L 866 -356 
Q 900 -609 1056 -725 
Q 1266 -881 1628 -881 
Q 2019 -881 2231 -725 
Q 2444 -569 2519 -288 
Q 2563 -116 2559 434 
Q 2191 0 1641 0 
Q 956 0 581 494 
Q 206 988 206 1678 
Q 206 2153 378 2554 
Q 550 2956 876 3175 
Q 1203 3394 1644 3394 
Q 2231 3394 2613 2919 
L 2613 3319 
L 3131 3319 
L 3131 450 
Q 3131 -325 2973 -648 
Q 2816 -972 2473 -1159 
Q 2131 -1347 1631 -1347 
Q 1038 -1347 672 -1080 
Q 306 -813 319 -275 
z
M 784 1719 
Q 784 1066 1043 766 
Q 1303 466 1694 466 
Q 2081 466 2343 764 
Q 2606 1063 2606 1700 
Q 2606 2309 2336 2618 
Q 2066 2928 1684 2928 
Q 1309 2928 1046 2623 
Q 784 2319 784 1719 
z
" transform="scale(0.015625)"/>
      </defs>
      <use xlink:href="#ArialMT-47"/>
      <use xlink:href="#ArialMT-72" x="77.783203"/>
      <use xlink:href="#ArialMT-61" x="111.083984"/>
      <use xlink:href="#ArialMT-64" x="166.699219"/>
      <use xlink:href="#ArialMT-69" x="222.314453"/>
      <use xlink:href="#ArialMT-65" x="244.53125"/>
      <use xlink:href="#ArialMT-6e" x="300.146484"/>
      <use xlink:href="#ArialMT-74" x="355.761719"/>
      <use xlink:href="#ArialMT-20" x="383.544922"/>
      <use xlink:href="#ArialMT-42" x="411.328125"/>
      <use xlink:href="#ArialMT-6f" x="478.027344"/>
      <use xlink:href="#ArialMT-6f" x="533.642578"/>
      <use xlink:href="#ArialMT-73" x="589.257812"/>
      <use xlink:href="#ArialMT-74" x="639.257812"/>
      <use xlink:href="#ArialMT-69" x="667.041016"/>
      <use xlink:href="#ArialMT-6e" x="689.257812"/>
      <use xlink:href="#ArialMT-67" x="744.873047"/>
     </g>
    </g>
    <g id="line2d_47">
     <path d="M 841.63125 110.3075 
L 851.63125 110.3075 
L 861.63125 110.3075 
" style="fill: none; stroke: #2ca02c; stroke-width: 1.5; stroke-linecap: round"/>
    </g>
    <g id="text_22">
     <!-- Linear Regression -->
     <g style="fill: #262626" transform="translate(869.63125 113.8075) scale(0.1 -0.1)">
      <defs>
       <path id="ArialMT-4c" d="M 469 0 
L 469 4581 
L 1075 4581 
L 1075 541 
L 3331 541 
L 3331 0 
L 469 0 
z
" transform="scale(0.015625)"/>
      </defs>
      <use xlink:href="#ArialMT-4c"/>
      <use xlink:href="#ArialMT-69" x="55.615234"/>
      <use xlink:href="#ArialMT-6e" x="77.832031"/>
      <use xlink:href="#ArialMT-65" x="133.447266"/>
      <use xlink:href="#ArialMT-61" x="189.0625"/>
      <use xlink:href="#ArialMT-72" x="244.677734"/>
      <use xlink:href="#ArialMT-20" x="277.978516"/>
      <use xlink:href="#ArialMT-52" x="305.761719"/>
      <use xlink:href="#ArialMT-65" x="377.978516"/>
      <use xlink:href="#ArialMT-67" x="433.59375"/>
      <use xlink:href="#ArialMT-72" x="489.208984"/>
      <use xlink:href="#ArialMT-65" x="522.509766"/>
      <use xlink:href="#ArialMT-73" x="578.125"/>
      <use xlink:href="#ArialMT-73" x="628.125"/>
      <use xlink:href="#ArialMT-69" x="678.125"/>
      <use xlink:href="#ArialMT-6f" x="700.341797"/>
      <use xlink:href="#ArialMT-6e" x="755.957031"/>
     </g>
    </g>
    <g id="line2d_48">
     <path d="M 841.63125 124.57 
L 851.63125 124.57 
L 861.63125 124.57 
" style="fill: none; stroke: #d62728; stroke-width: 1.5; stroke-linecap: round"/>
    </g>
    <g id="text_23">
     <!-- Decision Tree -->
     <g style="fill: #262626" transform="translate(869.63125 128.07) scale(0.1 -0.1)">
      <defs>
       <path id="ArialMT-63" d="M 2588 1216 
L 3141 1144 
Q 3050 572 2676 248 
Q 2303 -75 1759 -75 
Q 1078 -75 664 370 
Q 250 816 250 1647 
Q 250 2184 428 2587 
Q 606 2991 970 3192 
Q 1334 3394 1763 3394 
Q 2303 3394 2647 3120 
Q 2991 2847 3088 2344 
L 2541 2259 
Q 2463 2594 2264 2762 
Q 2066 2931 1784 2931 
Q 1359 2931 1093 2626 
Q 828 2322 828 1663 
Q 828 994 1084 691 
Q 1341 388 1753 388 
Q 2084 388 2306 591 
Q 2528 794 2588 1216 
z
" transform="scale(0.015625)"/>
      </defs>
      <use xlink:href="#ArialMT-44"/>
      <use xlink:href="#ArialMT-65" x="72.216797"/>
      <use xlink:href="#ArialMT-63" x="127.832031"/>
      <use xlink:href="#ArialMT-69" x="177.832031"/>
      <use xlink:href="#ArialMT-73" x="200.048828"/>
      <use xlink:href="#ArialMT-69" x="250.048828"/>
      <use xlink:href="#ArialMT-6f" x="272.265625"/>
      <use xlink:href="#ArialMT-6e" x="327.880859"/>
      <use xlink:href="#ArialMT-20" x="383.496094"/>
      <use xlink:href="#ArialMT-54" x="409.529297"/>
      <use xlink:href="#ArialMT-72" x="466.863281"/>
      <use xlink:href="#ArialMT-65" x="500.164062"/>
      <use xlink:href="#ArialMT-65" x="555.779297"/>
     </g>
    </g>
    <g id="line2d_49">
     <path d="M 841.63125 138.715313 
L 851.63125 138.715313 
L 861.63125 138.715313 
" style="fill: none; stroke: #9467bd; stroke-width: 1.5; stroke-linecap: round"/>
    </g>
    <g id="text_24">
     <!-- SVR -->
     <g style="fill: #262626" transform="translate(869.63125 142.215313) scale(0.1 -0.1)">
      <defs>
       <path id="ArialMT-53" d="M 288 1472 
L 859 1522 
Q 900 1178 1048 958 
Q 1197 738 1509 602 
Q 1822 466 2213 466 
Q 2559 466 2825 569 
Q 3091 672 3220 851 
Q 3350 1031 3350 1244 
Q 3350 1459 3225 1620 
Q 3100 1781 2813 1891 
Q 2628 1963 1997 2114 
Q 1366 2266 1113 2400 
Q 784 2572 623 2826 
Q 463 3081 463 3397 
Q 463 3744 659 4045 
Q 856 4347 1234 4503 
Q 1613 4659 2075 4659 
Q 2584 4659 2973 4495 
Q 3363 4331 3572 4012 
Q 3781 3694 3797 3291 
L 3216 3247 
Q 3169 3681 2898 3903 
Q 2628 4125 2100 4125 
Q 1550 4125 1298 3923 
Q 1047 3722 1047 3438 
Q 1047 3191 1225 3031 
Q 1400 2872 2139 2705 
Q 2878 2538 3153 2413 
Q 3553 2228 3743 1945 
Q 3934 1663 3934 1294 
Q 3934 928 3725 604 
Q 3516 281 3123 101 
Q 2731 -78 2241 -78 
Q 1619 -78 1198 103 
Q 778 284 539 648 
Q 300 1013 288 1472 
z
" transform="scale(0.015625)"/>
       <path id="ArialMT-56" d="M 1803 0 
L 28 4581 
L 684 4581 
L 1875 1253 
Q 2019 853 2116 503 
Q 2222 878 2363 1253 
L 3600 4581 
L 4219 4581 
L 2425 0 
L 1803 0 
z
" transform="scale(0.015625)"/>
      </defs>
      <use xlink:href="#ArialMT-53"/>
      <use xlink:href="#ArialMT-56" x="66.699219"/>
      <use xlink:href="#ArialMT-52" x="133.398438"/>
     </g>
    </g>
    <g id="line2d_50">
     <path d="M 841.63125 152.860625 
L 851.63125 152.860625 
L 861.63125 152.860625 
" style="fill: none; stroke: #8c564b; stroke-width: 1.5; stroke-linecap: round"/>
    </g>
    <g id="text_25">
     <!-- K-Nearest Neighbors -->
     <g style="fill: #262626" transform="translate(869.63125 156.360625) scale(0.1 -0.1)">
      <defs>
       <path id="ArialMT-4b" d="M 469 0 
L 469 4581 
L 1075 4581 
L 1075 2309 
L 3350 4581 
L 4172 4581 
L 2250 2725 
L 4256 0 
L 3456 0 
L 1825 2319 
L 1075 1588 
L 1075 0 
L 469 0 
z
" transform="scale(0.015625)"/>
       <path id="ArialMT-4e" d="M 488 0 
L 488 4581 
L 1109 4581 
L 3516 984 
L 3516 4581 
L 4097 4581 
L 4097 0 
L 3475 0 
L 1069 3600 
L 1069 0 
L 488 0 
z
" transform="scale(0.015625)"/>
       <path id="ArialMT-62" d="M 941 0 
L 419 0 
L 419 4581 
L 981 4581 
L 981 2947 
Q 1338 3394 1891 3394 
Q 2197 3394 2470 3270 
Q 2744 3147 2920 2923 
Q 3097 2700 3197 2384 
Q 3297 2069 3297 1709 
Q 3297 856 2875 390 
Q 2453 -75 1863 -75 
Q 1275 -75 941 416 
L 941 0 
z
M 934 1684 
Q 934 1088 1097 822 
Q 1363 388 1816 388 
Q 2184 388 2453 708 
Q 2722 1028 2722 1663 
Q 2722 2313 2464 2622 
Q 2206 2931 1841 2931 
Q 1472 2931 1203 2611 
Q 934 2291 934 1684 
z
" transform="scale(0.015625)"/>
      </defs>
      <use xlink:href="#ArialMT-4b"/>
      <use xlink:href="#ArialMT-2d" x="66.699219"/>
      <use xlink:href="#ArialMT-4e" x="100"/>
      <use xlink:href="#ArialMT-65" x="172.216797"/>
      <use xlink:href="#ArialMT-61" x="227.832031"/>
      <use xlink:href="#ArialMT-72" x="283.447266"/>
      <use xlink:href="#ArialMT-65" x="316.748047"/>
      <use xlink:href="#ArialMT-73" x="372.363281"/>
      <use xlink:href="#ArialMT-74" x="422.363281"/>
      <use xlink:href="#ArialMT-20" x="450.146484"/>
      <use xlink:href="#ArialMT-4e" x="477.929688"/>
      <use xlink:href="#ArialMT-65" x="550.146484"/>
      <use xlink:href="#ArialMT-69" x="605.761719"/>
      <use xlink:href="#ArialMT-67" x="627.978516"/>
      <use xlink:href="#ArialMT-68" x="683.59375"/>
      <use xlink:href="#ArialMT-62" x="739.208984"/>
      <use xlink:href="#ArialMT-6f" x="794.824219"/>
      <use xlink:href="#ArialMT-72" x="850.439453"/>
      <use xlink:href="#ArialMT-73" x="883.740234"/>
     </g>
    </g>
    <g id="line2d_51">
     <path d="M 841.63125 167.123125 
L 851.63125 167.123125 
L 861.63125 167.123125 
" style="fill: none; stroke: #e377c2; stroke-width: 1.5; stroke-linecap: round"/>
    </g>
    <g id="text_26">
     <!-- XGBoost -->
     <g style="fill: #262626" transform="translate(869.63125 170.623125) scale(0.1 -0.1)">
      <defs>
       <path id="ArialMT-58" d="M 28 0 
L 1800 2388 
L 238 4581 
L 959 4581 
L 1791 3406 
Q 2050 3041 2159 2844 
Q 2313 3094 2522 3366 
L 3444 4581 
L 4103 4581 
L 2494 2422 
L 4228 0 
L 3478 0 
L 2325 1634 
Q 2228 1775 2125 1941 
Q 1972 1691 1906 1597 
L 756 0 
L 28 0 
z
" transform="scale(0.015625)"/>
      </defs>
      <use xlink:href="#ArialMT-58"/>
      <use xlink:href="#ArialMT-47" x="66.699219"/>
      <use xlink:href="#ArialMT-42" x="144.482422"/>
      <use xlink:href="#ArialMT-6f" x="211.181641"/>
      <use xlink:href="#ArialMT-6f" x="266.796875"/>
      <use xlink:href="#ArialMT-73" x="322.412109"/>
      <use xlink:href="#ArialMT-74" x="372.412109"/>
     </g>
    </g>
    <g id="line2d_52">
     <path d="M 841.63125 181.268438 
L 851.63125 181.268438 
L 861.63125 181.268438 
" style="fill: none; stroke: #7f7f7f; stroke-width: 1.5; stroke-linecap: round"/>
    </g>
    <g id="text_27">
     <!-- Ridge Regression -->
     <g style="fill: #262626" transform="translate(869.63125 184.768438) scale(0.1 -0.1)">
      <use xlink:href="#ArialMT-52"/>
      <use xlink:href="#ArialMT-69" x="72.216797"/>
      <use xlink:href="#ArialMT-64" x="94.433594"/>
      <use xlink:href="#ArialMT-67" x="150.048828"/>
      <use xlink:href="#ArialMT-65" x="205.664062"/>
      <use xlink:href="#ArialMT-20" x="261.279297"/>
      <use xlink:href="#ArialMT-52" x="289.0625"/>
      <use xlink:href="#ArialMT-65" x="361.279297"/>
      <use xlink:href="#ArialMT-67" x="416.894531"/>
      <use xlink:href="#ArialMT-72" x="472.509766"/>
      <use xlink:href="#ArialMT-65" x="505.810547"/>
      <use xlink:href="#ArialMT-73" x="561.425781"/>
      <use xlink:href="#ArialMT-73" x="611.425781"/>
      <use xlink:href="#ArialMT-69" x="661.425781"/>
      <use xlink:href="#ArialMT-6f" x="683.642578"/>
      <use xlink:href="#ArialMT-6e" x="739.257812"/>
     </g>
    </g>
    <g id="line2d_53">
     <path d="M 841.63125 195.530938 
L 851.63125 195.530938 
L 861.63125 195.530938 
" style="fill: none; stroke: #bcbd22; stroke-width: 1.5; stroke-linecap: round"/>
    </g>
    <g id="text_28">
     <!-- ElasticNet -->
     <g style="fill: #262626" transform="translate(869.63125 199.030938) scale(0.1 -0.1)">
      <defs>
       <path id="ArialMT-45" d="M 506 0 
L 506 4581 
L 3819 4581 
L 3819 4041 
L 1113 4041 
L 1113 2638 
L 3647 2638 
L 3647 2100 
L 1113 2100 
L 1113 541 
L 3925 541 
L 3925 0 
L 506 0 
z
" transform="scale(0.015625)"/>
      </defs>
      <use xlink:href="#ArialMT-45"/>
      <use xlink:href="#ArialMT-6c" x="66.699219"/>
      <use xlink:href="#ArialMT-61" x="88.916016"/>
      <use xlink:href="#ArialMT-73" x="144.53125"/>
      <use xlink:href="#ArialMT-74" x="194.53125"/>
      <use xlink:href="#ArialMT-69" x="222.314453"/>
      <use xlink:href="#ArialMT-63" x="244.53125"/>
      <use xlink:href="#ArialMT-4e" x="294.53125"/>
      <use xlink:href="#ArialMT-65" x="366.748047"/>
      <use xlink:href="#ArialMT-74" x="422.363281"/>
     </g>
    </g>
    <g id="line2d_54">
     <path d="M 841.63125 209.67625 
L 851.63125 209.67625 
L 861.63125 209.67625 
" style="fill: none; stroke: #17becf; stroke-width: 1.5; stroke-linecap: round"/>
    </g>
    <g id="text_29">
     <!-- LSTM -->
     <g style="fill: #262626" transform="translate(869.63125 213.17625) scale(0.1 -0.1)">
      <defs>
       <path id="ArialMT-4d" d="M 475 0 
L 475 4581 
L 1388 4581 
L 2472 1338 
Q 2622 884 2691 659 
Q 2769 909 2934 1394 
L 4031 4581 
L 4847 4581 
L 4847 0 
L 4263 0 
L 4263 3834 
L 2931 0 
L 2384 0 
L 1059 3900 
L 1059 0 
L 475 0 
z
" transform="scale(0.015625)"/>
      </defs>
      <use xlink:href="#ArialMT-4c"/>
      <use xlink:href="#ArialMT-53" x="55.615234"/>
      <use xlink:href="#ArialMT-54" x="122.314453"/>
      <use xlink:href="#ArialMT-4d" x="183.398438"/>
     </g>
    </g>
    <g id="line2d_55">
     <path d="M 841.63125 223.821563 
L 851.63125 223.821563 
L 861.63125 223.821563 
" style="fill: none; stroke: #1f77b4; stroke-width: 1.5; stroke-linecap: round"/>
    </g>
    <g id="text_30">
     <!-- RNN -->
     <g style="fill: #262626" transform="translate(869.63125 227.321563) scale(0.1 -0.1)">
      <use xlink:href="#ArialMT-52"/>
      <use xlink:href="#ArialMT-4e" x="72.216797"/>
      <use xlink:href="#ArialMT-4e" x="144.433594"/>
     </g>
    </g>
    <g id="line2d_56">
     <path d="M 841.63125 238.08875 
L 851.63125 238.08875 
L 861.63125 238.08875 
" style="fill: none; stroke: #000000; stroke-width: 2; stroke-linecap: round"/>
    </g>
    <g id="text_31">
     <!-- Gerçek Değerler -->
     <g style="fill: #262626" transform="translate(869.63125 241.58875) scale(0.1 -0.1)">
      <use xlink:href="#ArialMT-47"/>
      <use xlink:href="#ArialMT-65" x="77.783203"/>
      <use xlink:href="#ArialMT-72" x="133.398438"/>
      <use xlink:href="#ArialMT-e7" x="166.699219"/>
      <use xlink:href="#ArialMT-65" x="216.699219"/>
      <use xlink:href="#ArialMT-6b" x="272.314453"/>
      <use xlink:href="#ArialMT-20" x="322.314453"/>
      <use xlink:href="#ArialMT-44" x="350.097656"/>
      <use xlink:href="#ArialMT-65" x="422.314453"/>
      <use xlink:href="#ArialMT-11f" x="477.929688"/>
      <use xlink:href="#ArialMT-65" x="533.544922"/>
      <use xlink:href="#ArialMT-72" x="589.160156"/>
      <use xlink:href="#ArialMT-6c" x="622.460938"/>
      <use xlink:href="#ArialMT-65" x="644.677734"/>
      <use xlink:href="#ArialMT-72" x="700.292969"/>
     </g>
    </g>
   </g>
  </g>
 </g>
 <defs>
  <clipPath id="p81fe4162c1">
   <rect x="135" y="69.12" width="837" height="443.52"/>
  </clipPath>
 </defs>
</svg>
