<?xml version="1.0" encoding="utf-8" standalone="no"?>
<!DOCTYPE svg PUBLIC "-//W3C//DTD SVG 1.1//EN"
  "http://www.w3.org/Graphics/SVG/1.1/DTD/svg11.dtd">
<svg xmlns:xlink="http://www.w3.org/1999/xlink" width="1080pt" height="576pt" viewBox="0 0 1080 576" xmlns="http://www.w3.org/2000/svg" version="1.1">
 <metadata>
  <rdf:RDF xmlns:dc="http://purl.org/dc/elements/1.1/" xmlns:cc="http://creativecommons.org/ns#" xmlns:rdf="http://www.w3.org/1999/02/22-rdf-syntax-ns#">
   <cc:Work>
    <dc:type rdf:resource="http://purl.org/dc/dcmitype/StillImage"/>
    <dc:date>2023-05-23T01:36:20.298374</dc:date>
    <dc:format>image/svg+xml</dc:format>
    <dc:creator>
     <cc:Agent>
      <dc:title>Matplotlib v3.7.1, https://matplotlib.org/</dc:title>
     </cc:Agent>
    </dc:creator>
   </cc:Work>
  </rdf:RDF>
 </metadata>
 <defs>
  <style type="text/css">*{stroke-linejoin: round; stroke-linecap: butt}</style>
 </defs>
 <g id="figure_1">
  <g id="patch_1">
   <path d="M 0 576 
L 1080 576 
L 1080 0 
L 0 0 
z
" style="fill: #ffffff"/>
  </g>
  <g id="axes_1">
   <g id="patch_2">
    <path d="M 135 512.64 
L 972 512.64 
L 972 69.12 
L 135 69.12 
z
" style="fill: #ffffff"/>
   </g>
   <g id="matplotlib.axis_1">
    <g id="xtick_1">
     <g id="line2d_1">
      <path d="M 159.457792 512.64 
L 159.457792 69.12 
" clip-path="url(#p543ffecf96)" style="fill: none; stroke: #cccccc; stroke-width: 0.8; stroke-linecap: round"/>
     </g>
     <g id="line2d_2"/>
     <g id="text_1">
      <!-- 2023-01-01 -->
      <g style="fill: #262626" transform="translate(133.884355 523.297812) scale(0.1 -0.1)">
       <defs>
        <path id="ArialMT-32" d="M 3222 541 
L 3222 0 
L 194 0 
Q 188 203 259 391 
Q 375 700 629 1000 
Q 884 1300 1366 1694 
Q 2113 2306 2375 2664 
Q 2638 3022 2638 3341 
Q 2638 3675 2398 3904 
Q 2159 4134 1775 4134 
Q 1369 4134 1125 3890 
Q 881 3647 878 3216 
L 300 3275 
Q 359 3922 746 4261 
Q 1134 4600 1788 4600 
Q 2447 4600 2831 4234 
Q 3216 3869 3216 3328 
Q 3216 3053 3103 2787 
Q 2991 2522 2730 2228 
Q 2469 1934 1863 1422 
Q 1356 997 1212 845 
Q 1069 694 975 541 
L 3222 541 
z
" transform="scale(0.015625)"/>
        <path id="ArialMT-30" d="M 266 2259 
Q 266 3072 433 3567 
Q 600 4063 929 4331 
Q 1259 4600 1759 4600 
Q 2128 4600 2406 4451 
Q 2684 4303 2865 4023 
Q 3047 3744 3150 3342 
Q 3253 2941 3253 2259 
Q 3253 1453 3087 958 
Q 2922 463 2592 192 
Q 2263 -78 1759 -78 
Q 1097 -78 719 397 
Q 266 969 266 2259 
z
M 844 2259 
Q 844 1131 1108 757 
Q 1372 384 1759 384 
Q 2147 384 2411 759 
Q 2675 1134 2675 2259 
Q 2675 3391 2411 3762 
Q 2147 4134 1753 4134 
Q 1366 4134 1134 3806 
Q 844 3388 844 2259 
z
" transform="scale(0.015625)"/>
        <path id="ArialMT-33" d="M 269 1209 
L 831 1284 
Q 928 806 1161 595 
Q 1394 384 1728 384 
Q 2125 384 2398 659 
Q 2672 934 2672 1341 
Q 2672 1728 2419 1979 
Q 2166 2231 1775 2231 
Q 1616 2231 1378 2169 
L 1441 2663 
Q 1497 2656 1531 2656 
Q 1891 2656 2178 2843 
Q 2466 3031 2466 3422 
Q 2466 3731 2256 3934 
Q 2047 4138 1716 4138 
Q 1388 4138 1169 3931 
Q 950 3725 888 3313 
L 325 3413 
Q 428 3978 793 4289 
Q 1159 4600 1703 4600 
Q 2078 4600 2393 4439 
Q 2709 4278 2876 4000 
Q 3044 3722 3044 3409 
Q 3044 3113 2884 2869 
Q 2725 2625 2413 2481 
Q 2819 2388 3044 2092 
Q 3269 1797 3269 1353 
Q 3269 753 2831 336 
Q 2394 -81 1725 -81 
Q 1122 -81 723 278 
Q 325 638 269 1209 
z
" transform="scale(0.015625)"/>
        <path id="ArialMT-2d" d="M 203 1375 
L 203 1941 
L 1931 1941 
L 1931 1375 
L 203 1375 
z
" transform="scale(0.015625)"/>
        <path id="ArialMT-31" d="M 2384 0 
L 1822 0 
L 1822 3584 
Q 1619 3391 1289 3197 
Q 959 3003 697 2906 
L 697 3450 
Q 1169 3672 1522 3987 
Q 1875 4303 2022 4600 
L 2384 4600 
L 2384 0 
z
" transform="scale(0.015625)"/>
       </defs>
       <use xlink:href="#ArialMT-32"/>
       <use xlink:href="#ArialMT-30" x="55.615234"/>
       <use xlink:href="#ArialMT-32" x="111.230469"/>
       <use xlink:href="#ArialMT-33" x="166.845703"/>
       <use xlink:href="#ArialMT-2d" x="222.460938"/>
       <use xlink:href="#ArialMT-30" x="255.761719"/>
       <use xlink:href="#ArialMT-31" x="311.376953"/>
       <use xlink:href="#ArialMT-2d" x="366.992188"/>
       <use xlink:href="#ArialMT-30" x="400.292969"/>
       <use xlink:href="#ArialMT-31" x="455.908203"/>
      </g>
     </g>
    </g>
    <g id="xtick_2">
     <g id="line2d_3">
      <path d="M 254.571429 512.64 
L 254.571429 69.12 
" clip-path="url(#p543ffecf96)" style="fill: none; stroke: #cccccc; stroke-width: 0.8; stroke-linecap: round"/>
     </g>
     <g id="line2d_4"/>
     <g id="text_2">
      <!-- 2023-01-15 -->
      <g style="fill: #262626" transform="translate(228.997991 523.297812) scale(0.1 -0.1)">
       <defs>
        <path id="ArialMT-35" d="M 266 1200 
L 856 1250 
Q 922 819 1161 601 
Q 1400 384 1738 384 
Q 2144 384 2425 690 
Q 2706 997 2706 1503 
Q 2706 1984 2436 2262 
Q 2166 2541 1728 2541 
Q 1456 2541 1237 2417 
Q 1019 2294 894 2097 
L 366 2166 
L 809 4519 
L 3088 4519 
L 3088 3981 
L 1259 3981 
L 1013 2750 
Q 1425 3038 1878 3038 
Q 2478 3038 2890 2622 
Q 3303 2206 3303 1553 
Q 3303 931 2941 478 
Q 2500 -78 1738 -78 
Q 1113 -78 717 272 
Q 322 622 266 1200 
z
" transform="scale(0.015625)"/>
       </defs>
       <use xlink:href="#ArialMT-32"/>
       <use xlink:href="#ArialMT-30" x="55.615234"/>
       <use xlink:href="#ArialMT-32" x="111.230469"/>
       <use xlink:href="#ArialMT-33" x="166.845703"/>
       <use xlink:href="#ArialMT-2d" x="222.460938"/>
       <use xlink:href="#ArialMT-30" x="255.761719"/>
       <use xlink:href="#ArialMT-31" x="311.376953"/>
       <use xlink:href="#ArialMT-2d" x="366.992188"/>
       <use xlink:href="#ArialMT-31" x="400.292969"/>
       <use xlink:href="#ArialMT-35" x="455.908203"/>
      </g>
     </g>
    </g>
    <g id="xtick_3">
     <g id="line2d_5">
      <path d="M 370.066558 512.64 
L 370.066558 69.12 
" clip-path="url(#p543ffecf96)" style="fill: none; stroke: #cccccc; stroke-width: 0.8; stroke-linecap: round"/>
     </g>
     <g id="line2d_6"/>
     <g id="text_3">
      <!-- 2023-02-01 -->
      <g style="fill: #262626" transform="translate(344.493121 523.297812) scale(0.1 -0.1)">
       <use xlink:href="#ArialMT-32"/>
       <use xlink:href="#ArialMT-30" x="55.615234"/>
       <use xlink:href="#ArialMT-32" x="111.230469"/>
       <use xlink:href="#ArialMT-33" x="166.845703"/>
       <use xlink:href="#ArialMT-2d" x="222.460938"/>
       <use xlink:href="#ArialMT-30" x="255.761719"/>
       <use xlink:href="#ArialMT-32" x="311.376953"/>
       <use xlink:href="#ArialMT-2d" x="366.992188"/>
       <use xlink:href="#ArialMT-30" x="400.292969"/>
       <use xlink:href="#ArialMT-31" x="455.908203"/>
      </g>
     </g>
    </g>
    <g id="xtick_4">
     <g id="line2d_7">
      <path d="M 465.180195 512.64 
L 465.180195 69.12 
" clip-path="url(#p543ffecf96)" style="fill: none; stroke: #cccccc; stroke-width: 0.8; stroke-linecap: round"/>
     </g>
     <g id="line2d_8"/>
     <g id="text_4">
      <!-- 2023-02-15 -->
      <g style="fill: #262626" transform="translate(439.606757 523.297812) scale(0.1 -0.1)">
       <use xlink:href="#ArialMT-32"/>
       <use xlink:href="#ArialMT-30" x="55.615234"/>
       <use xlink:href="#ArialMT-32" x="111.230469"/>
       <use xlink:href="#ArialMT-33" x="166.845703"/>
       <use xlink:href="#ArialMT-2d" x="222.460938"/>
       <use xlink:href="#ArialMT-30" x="255.761719"/>
       <use xlink:href="#ArialMT-32" x="311.376953"/>
       <use xlink:href="#ArialMT-2d" x="366.992188"/>
       <use xlink:href="#ArialMT-31" x="400.292969"/>
       <use xlink:href="#ArialMT-35" x="455.908203"/>
      </g>
     </g>
    </g>
    <g id="xtick_5">
     <g id="line2d_9">
      <path d="M 560.293831 512.64 
L 560.293831 69.12 
" clip-path="url(#p543ffecf96)" style="fill: none; stroke: #cccccc; stroke-width: 0.8; stroke-linecap: round"/>
     </g>
     <g id="line2d_10"/>
     <g id="text_5">
      <!-- 2023-03-01 -->
      <g style="fill: #262626" transform="translate(534.720394 523.297812) scale(0.1 -0.1)">
       <use xlink:href="#ArialMT-32"/>
       <use xlink:href="#ArialMT-30" x="55.615234"/>
       <use xlink:href="#ArialMT-32" x="111.230469"/>
       <use xlink:href="#ArialMT-33" x="166.845703"/>
       <use xlink:href="#ArialMT-2d" x="222.460938"/>
       <use xlink:href="#ArialMT-30" x="255.761719"/>
       <use xlink:href="#ArialMT-33" x="311.376953"/>
       <use xlink:href="#ArialMT-2d" x="366.992188"/>
       <use xlink:href="#ArialMT-30" x="400.292969"/>
       <use xlink:href="#ArialMT-31" x="455.908203"/>
      </g>
     </g>
    </g>
    <g id="xtick_6">
     <g id="line2d_11">
      <path d="M 655.407468 512.64 
L 655.407468 69.12 
" clip-path="url(#p543ffecf96)" style="fill: none; stroke: #cccccc; stroke-width: 0.8; stroke-linecap: round"/>
     </g>
     <g id="line2d_12"/>
     <g id="text_6">
      <!-- 2023-03-15 -->
      <g style="fill: #262626" transform="translate(629.83403 523.297812) scale(0.1 -0.1)">
       <use xlink:href="#ArialMT-32"/>
       <use xlink:href="#ArialMT-30" x="55.615234"/>
       <use xlink:href="#ArialMT-32" x="111.230469"/>
       <use xlink:href="#ArialMT-33" x="166.845703"/>
       <use xlink:href="#ArialMT-2d" x="222.460938"/>
       <use xlink:href="#ArialMT-30" x="255.761719"/>
       <use xlink:href="#ArialMT-33" x="311.376953"/>
       <use xlink:href="#ArialMT-2d" x="366.992188"/>
       <use xlink:href="#ArialMT-31" x="400.292969"/>
       <use xlink:href="#ArialMT-35" x="455.908203"/>
      </g>
     </g>
    </g>
    <g id="xtick_7">
     <g id="line2d_13">
      <path d="M 770.902597 512.64 
L 770.902597 69.12 
" clip-path="url(#p543ffecf96)" style="fill: none; stroke: #cccccc; stroke-width: 0.8; stroke-linecap: round"/>
     </g>
     <g id="line2d_14"/>
     <g id="text_7">
      <!-- 2023-04-01 -->
      <g style="fill: #262626" transform="translate(745.32916 523.297812) scale(0.1 -0.1)">
       <defs>
        <path id="ArialMT-34" d="M 2069 0 
L 2069 1097 
L 81 1097 
L 81 1613 
L 2172 4581 
L 2631 4581 
L 2631 1613 
L 3250 1613 
L 3250 1097 
L 2631 1097 
L 2631 0 
L 2069 0 
z
M 2069 1613 
L 2069 3678 
L 634 1613 
L 2069 1613 
z
" transform="scale(0.015625)"/>
       </defs>
       <use xlink:href="#ArialMT-32"/>
       <use xlink:href="#ArialMT-30" x="55.615234"/>
       <use xlink:href="#ArialMT-32" x="111.230469"/>
       <use xlink:href="#ArialMT-33" x="166.845703"/>
       <use xlink:href="#ArialMT-2d" x="222.460938"/>
       <use xlink:href="#ArialMT-30" x="255.761719"/>
       <use xlink:href="#ArialMT-34" x="311.376953"/>
       <use xlink:href="#ArialMT-2d" x="366.992188"/>
       <use xlink:href="#ArialMT-30" x="400.292969"/>
       <use xlink:href="#ArialMT-31" x="455.908203"/>
      </g>
     </g>
    </g>
    <g id="xtick_8">
     <g id="line2d_15">
      <path d="M 866.016234 512.64 
L 866.016234 69.12 
" clip-path="url(#p543ffecf96)" style="fill: none; stroke: #cccccc; stroke-width: 0.8; stroke-linecap: round"/>
     </g>
     <g id="line2d_16"/>
     <g id="text_8">
      <!-- 2023-04-15 -->
      <g style="fill: #262626" transform="translate(840.442796 523.297812) scale(0.1 -0.1)">
       <use xlink:href="#ArialMT-32"/>
       <use xlink:href="#ArialMT-30" x="55.615234"/>
       <use xlink:href="#ArialMT-32" x="111.230469"/>
       <use xlink:href="#ArialMT-33" x="166.845703"/>
       <use xlink:href="#ArialMT-2d" x="222.460938"/>
       <use xlink:href="#ArialMT-30" x="255.761719"/>
       <use xlink:href="#ArialMT-34" x="311.376953"/>
       <use xlink:href="#ArialMT-2d" x="366.992188"/>
       <use xlink:href="#ArialMT-31" x="400.292969"/>
       <use xlink:href="#ArialMT-35" x="455.908203"/>
      </g>
     </g>
    </g>
    <g id="text_9">
     <!-- Date -->
     <g style="fill: #262626" transform="translate(542.939062 536.443125) scale(0.1 -0.1)">
      <defs>
       <path id="ArialMT-44" d="M 494 0 
L 494 4581 
L 2072 4581 
Q 2606 4581 2888 4516 
Q 3281 4425 3559 4188 
Q 3922 3881 4101 3404 
Q 4281 2928 4281 2316 
Q 4281 1794 4159 1391 
Q 4038 988 3847 723 
Q 3656 459 3429 307 
Q 3203 156 2883 78 
Q 2563 0 2147 0 
L 494 0 
z
M 1100 541 
L 2078 541 
Q 2531 541 2789 625 
Q 3047 709 3200 863 
Q 3416 1078 3536 1442 
Q 3656 1806 3656 2325 
Q 3656 3044 3420 3430 
Q 3184 3816 2847 3947 
Q 2603 4041 2063 4041 
L 1100 4041 
L 1100 541 
z
" transform="scale(0.015625)"/>
       <path id="ArialMT-61" d="M 2588 409 
Q 2275 144 1986 34 
Q 1697 -75 1366 -75 
Q 819 -75 525 192 
Q 231 459 231 875 
Q 231 1119 342 1320 
Q 453 1522 633 1644 
Q 813 1766 1038 1828 
Q 1203 1872 1538 1913 
Q 2219 1994 2541 2106 
Q 2544 2222 2544 2253 
Q 2544 2597 2384 2738 
Q 2169 2928 1744 2928 
Q 1347 2928 1158 2789 
Q 969 2650 878 2297 
L 328 2372 
Q 403 2725 575 2942 
Q 747 3159 1072 3276 
Q 1397 3394 1825 3394 
Q 2250 3394 2515 3294 
Q 2781 3194 2906 3042 
Q 3031 2891 3081 2659 
Q 3109 2516 3109 2141 
L 3109 1391 
Q 3109 606 3145 398 
Q 3181 191 3288 0 
L 2700 0 
Q 2613 175 2588 409 
z
M 2541 1666 
Q 2234 1541 1622 1453 
Q 1275 1403 1131 1340 
Q 988 1278 909 1158 
Q 831 1038 831 891 
Q 831 666 1001 516 
Q 1172 366 1500 366 
Q 1825 366 2078 508 
Q 2331 650 2450 897 
Q 2541 1088 2541 1459 
L 2541 1666 
z
" transform="scale(0.015625)"/>
       <path id="ArialMT-74" d="M 1650 503 
L 1731 6 
Q 1494 -44 1306 -44 
Q 1000 -44 831 53 
Q 663 150 594 308 
Q 525 466 525 972 
L 525 2881 
L 113 2881 
L 113 3319 
L 525 3319 
L 525 4141 
L 1084 4478 
L 1084 3319 
L 1650 3319 
L 1650 2881 
L 1084 2881 
L 1084 941 
Q 1084 700 1114 631 
Q 1144 563 1211 522 
Q 1278 481 1403 481 
Q 1497 481 1650 503 
z
" transform="scale(0.015625)"/>
       <path id="ArialMT-65" d="M 2694 1069 
L 3275 997 
Q 3138 488 2766 206 
Q 2394 -75 1816 -75 
Q 1088 -75 661 373 
Q 234 822 234 1631 
Q 234 2469 665 2931 
Q 1097 3394 1784 3394 
Q 2450 3394 2872 2941 
Q 3294 2488 3294 1666 
Q 3294 1616 3291 1516 
L 816 1516 
Q 847 969 1125 678 
Q 1403 388 1819 388 
Q 2128 388 2347 550 
Q 2566 713 2694 1069 
z
M 847 1978 
L 2700 1978 
Q 2663 2397 2488 2606 
Q 2219 2931 1791 2931 
Q 1403 2931 1139 2672 
Q 875 2413 847 1978 
z
" transform="scale(0.015625)"/>
      </defs>
      <use xlink:href="#ArialMT-44"/>
      <use xlink:href="#ArialMT-61" x="72.216797"/>
      <use xlink:href="#ArialMT-74" x="127.832031"/>
      <use xlink:href="#ArialMT-65" x="155.615234"/>
     </g>
    </g>
   </g>
   <g id="matplotlib.axis_2">
    <g id="ytick_1">
     <g id="line2d_17">
      <path d="M 135 446.611382 
L 972 446.611382 
" clip-path="url(#p543ffecf96)" style="fill: none; stroke: #cccccc; stroke-width: 0.8; stroke-linecap: round"/>
     </g>
     <g id="line2d_18"/>
     <g id="text_10">
      <!-- 12 -->
      <g style="fill: #262626" transform="translate(120.378125 450.190289) scale(0.1 -0.1)">
       <use xlink:href="#ArialMT-31"/>
       <use xlink:href="#ArialMT-32" x="55.615234"/>
      </g>
     </g>
    </g>
    <g id="ytick_2">
     <g id="line2d_19">
      <path d="M 135 349.589557 
L 972 349.589557 
" clip-path="url(#p543ffecf96)" style="fill: none; stroke: #cccccc; stroke-width: 0.8; stroke-linecap: round"/>
     </g>
     <g id="line2d_20"/>
     <g id="text_11">
      <!-- 14 -->
      <g style="fill: #262626" transform="translate(120.378125 353.168463) scale(0.1 -0.1)">
       <use xlink:href="#ArialMT-31"/>
       <use xlink:href="#ArialMT-34" x="55.615234"/>
      </g>
     </g>
    </g>
    <g id="ytick_3">
     <g id="line2d_21">
      <path d="M 135 252.567731 
L 972 252.567731 
" clip-path="url(#p543ffecf96)" style="fill: none; stroke: #cccccc; stroke-width: 0.8; stroke-linecap: round"/>
     </g>
     <g id="line2d_22"/>
     <g id="text_12">
      <!-- 16 -->
      <g style="fill: #262626" transform="translate(120.378125 256.146638) scale(0.1 -0.1)">
       <defs>
        <path id="ArialMT-36" d="M 3184 3459 
L 2625 3416 
Q 2550 3747 2413 3897 
Q 2184 4138 1850 4138 
Q 1581 4138 1378 3988 
Q 1113 3794 959 3422 
Q 806 3050 800 2363 
Q 1003 2672 1297 2822 
Q 1591 2972 1913 2972 
Q 2475 2972 2870 2558 
Q 3266 2144 3266 1488 
Q 3266 1056 3080 686 
Q 2894 316 2569 119 
Q 2244 -78 1831 -78 
Q 1128 -78 684 439 
Q 241 956 241 2144 
Q 241 3472 731 4075 
Q 1159 4600 1884 4600 
Q 2425 4600 2770 4297 
Q 3116 3994 3184 3459 
z
M 888 1484 
Q 888 1194 1011 928 
Q 1134 663 1356 523 
Q 1578 384 1822 384 
Q 2178 384 2434 671 
Q 2691 959 2691 1453 
Q 2691 1928 2437 2201 
Q 2184 2475 1800 2475 
Q 1419 2475 1153 2201 
Q 888 1928 888 1484 
z
" transform="scale(0.015625)"/>
       </defs>
       <use xlink:href="#ArialMT-31"/>
       <use xlink:href="#ArialMT-36" x="55.615234"/>
      </g>
     </g>
    </g>
    <g id="ytick_4">
     <g id="line2d_23">
      <path d="M 135 155.545906 
L 972 155.545906 
" clip-path="url(#p543ffecf96)" style="fill: none; stroke: #cccccc; stroke-width: 0.8; stroke-linecap: round"/>
     </g>
     <g id="line2d_24"/>
     <g id="text_13">
      <!-- 18 -->
      <g style="fill: #262626" transform="translate(120.378125 159.124812) scale(0.1 -0.1)">
       <defs>
        <path id="ArialMT-38" d="M 1131 2484 
Q 781 2613 612 2850 
Q 444 3088 444 3419 
Q 444 3919 803 4259 
Q 1163 4600 1759 4600 
Q 2359 4600 2725 4251 
Q 3091 3903 3091 3403 
Q 3091 3084 2923 2848 
Q 2756 2613 2416 2484 
Q 2838 2347 3058 2040 
Q 3278 1734 3278 1309 
Q 3278 722 2862 322 
Q 2447 -78 1769 -78 
Q 1091 -78 675 323 
Q 259 725 259 1325 
Q 259 1772 486 2073 
Q 713 2375 1131 2484 
z
M 1019 3438 
Q 1019 3113 1228 2906 
Q 1438 2700 1772 2700 
Q 2097 2700 2305 2904 
Q 2513 3109 2513 3406 
Q 2513 3716 2298 3927 
Q 2084 4138 1766 4138 
Q 1444 4138 1231 3931 
Q 1019 3725 1019 3438 
z
M 838 1322 
Q 838 1081 952 856 
Q 1066 631 1291 507 
Q 1516 384 1775 384 
Q 2178 384 2440 643 
Q 2703 903 2703 1303 
Q 2703 1709 2433 1975 
Q 2163 2241 1756 2241 
Q 1359 2241 1098 1978 
Q 838 1716 838 1322 
z
" transform="scale(0.015625)"/>
       </defs>
       <use xlink:href="#ArialMT-31"/>
       <use xlink:href="#ArialMT-38" x="55.615234"/>
      </g>
     </g>
    </g>
    <g id="text_14">
     <!-- Adj Close -->
     <g style="fill: #262626" transform="translate(114.273438 312.278437) rotate(-90) scale(0.1 -0.1)">
      <defs>
       <path id="ArialMT-41" d="M -9 0 
L 1750 4581 
L 2403 4581 
L 4278 0 
L 3588 0 
L 3053 1388 
L 1138 1388 
L 634 0 
L -9 0 
z
M 1313 1881 
L 2866 1881 
L 2388 3150 
Q 2169 3728 2063 4100 
Q 1975 3659 1816 3225 
L 1313 1881 
z
" transform="scale(0.015625)"/>
       <path id="ArialMT-64" d="M 2575 0 
L 2575 419 
Q 2259 -75 1647 -75 
Q 1250 -75 917 144 
Q 584 363 401 755 
Q 219 1147 219 1656 
Q 219 2153 384 2558 
Q 550 2963 881 3178 
Q 1213 3394 1622 3394 
Q 1922 3394 2156 3267 
Q 2391 3141 2538 2938 
L 2538 4581 
L 3097 4581 
L 3097 0 
L 2575 0 
z
M 797 1656 
Q 797 1019 1065 703 
Q 1334 388 1700 388 
Q 2069 388 2326 689 
Q 2584 991 2584 1609 
Q 2584 2291 2321 2609 
Q 2059 2928 1675 2928 
Q 1300 2928 1048 2622 
Q 797 2316 797 1656 
z
" transform="scale(0.015625)"/>
       <path id="ArialMT-6a" d="M 419 3928 
L 419 4581 
L 981 4581 
L 981 3928 
L 419 3928 
z
M -294 -1288 
L -188 -809 
Q -19 -853 78 -853 
Q 250 -853 334 -739 
Q 419 -625 419 -169 
L 419 3319 
L 981 3319 
L 981 -181 
Q 981 -794 822 -1034 
Q 619 -1347 147 -1347 
Q -81 -1347 -294 -1288 
z
" transform="scale(0.015625)"/>
       <path id="ArialMT-20" transform="scale(0.015625)"/>
       <path id="ArialMT-43" d="M 3763 1606 
L 4369 1453 
Q 4178 706 3683 314 
Q 3188 -78 2472 -78 
Q 1731 -78 1267 223 
Q 803 525 561 1097 
Q 319 1669 319 2325 
Q 319 3041 592 3573 
Q 866 4106 1370 4382 
Q 1875 4659 2481 4659 
Q 3169 4659 3637 4309 
Q 4106 3959 4291 3325 
L 3694 3184 
Q 3534 3684 3231 3912 
Q 2928 4141 2469 4141 
Q 1941 4141 1586 3887 
Q 1231 3634 1087 3207 
Q 944 2781 944 2328 
Q 944 1744 1114 1308 
Q 1284 872 1643 656 
Q 2003 441 2422 441 
Q 2931 441 3284 734 
Q 3638 1028 3763 1606 
z
" transform="scale(0.015625)"/>
       <path id="ArialMT-6c" d="M 409 0 
L 409 4581 
L 972 4581 
L 972 0 
L 409 0 
z
" transform="scale(0.015625)"/>
       <path id="ArialMT-6f" d="M 213 1659 
Q 213 2581 725 3025 
Q 1153 3394 1769 3394 
Q 2453 3394 2887 2945 
Q 3322 2497 3322 1706 
Q 3322 1066 3130 698 
Q 2938 331 2570 128 
Q 2203 -75 1769 -75 
Q 1072 -75 642 372 
Q 213 819 213 1659 
z
M 791 1659 
Q 791 1022 1069 705 
Q 1347 388 1769 388 
Q 2188 388 2466 706 
Q 2744 1025 2744 1678 
Q 2744 2294 2464 2611 
Q 2184 2928 1769 2928 
Q 1347 2928 1069 2612 
Q 791 2297 791 1659 
z
" transform="scale(0.015625)"/>
       <path id="ArialMT-73" d="M 197 991 
L 753 1078 
Q 800 744 1014 566 
Q 1228 388 1613 388 
Q 2000 388 2187 545 
Q 2375 703 2375 916 
Q 2375 1106 2209 1216 
Q 2094 1291 1634 1406 
Q 1016 1563 777 1677 
Q 538 1791 414 1992 
Q 291 2194 291 2438 
Q 291 2659 392 2848 
Q 494 3038 669 3163 
Q 800 3259 1026 3326 
Q 1253 3394 1513 3394 
Q 1903 3394 2198 3281 
Q 2494 3169 2634 2976 
Q 2775 2784 2828 2463 
L 2278 2388 
Q 2241 2644 2061 2787 
Q 1881 2931 1553 2931 
Q 1166 2931 1000 2803 
Q 834 2675 834 2503 
Q 834 2394 903 2306 
Q 972 2216 1119 2156 
Q 1203 2125 1616 2013 
Q 2213 1853 2448 1751 
Q 2684 1650 2818 1456 
Q 2953 1263 2953 975 
Q 2953 694 2789 445 
Q 2625 197 2315 61 
Q 2006 -75 1616 -75 
Q 969 -75 630 194 
Q 291 463 197 991 
z
" transform="scale(0.015625)"/>
      </defs>
      <use xlink:href="#ArialMT-41"/>
      <use xlink:href="#ArialMT-64" x="66.699219"/>
      <use xlink:href="#ArialMT-6a" x="122.314453"/>
      <use xlink:href="#ArialMT-20" x="144.53125"/>
      <use xlink:href="#ArialMT-43" x="172.314453"/>
      <use xlink:href="#ArialMT-6c" x="244.53125"/>
      <use xlink:href="#ArialMT-6f" x="266.748047"/>
      <use xlink:href="#ArialMT-73" x="322.363281"/>
      <use xlink:href="#ArialMT-65" x="372.363281"/>
     </g>
    </g>
   </g>
   <g id="line2d_25">
    <path d="M 173.045455 417.145856 
L 179.839286 417.06824 
L 186.633117 356.478105 
L 193.426948 351.48148 
L 213.808442 350.831434 
L 220.602273 341.895725 
L 227.396104 316.621538 
L 234.189935 316.369282 
L 240.983766 176.570534 
L 268.159091 155.798161 
L 274.952922 131.79496 
L 281.746753 120.952773 
L 288.540584 124.125386 
L 308.922078 129.869078 
L 315.715909 139.21713 
L 322.50974 182.294825 
L 329.303571 144.892908 
L 336.097403 141.856127 
L 356.478896 133.487992 
L 363.272727 172.597492 
L 370.066558 154.347688 
L 376.86039 140.813142 
L 383.654221 136.553883 
L 404.035714 125.765055 
L 410.829545 123.941047 
L 417.623377 115.956153 
L 424.417208 113.739203 
L 431.211039 114.141841 
L 451.592532 119.769107 
L 458.386364 128.108132 
L 465.180195 128.753325 
L 471.974026 130.349338 
L 478.767857 124.324284 
L 505.943182 125.192627 
L 512.737013 182.081374 
L 519.530844 223.36901 
L 526.324675 213.307849 
L 546.706169 236.369938 
L 553.5 274.058067 
L 560.293831 255.750049 
L 567.087662 210.033361 
L 573.881494 170.627946 
L 594.262987 148.356588 
L 601.056818 148.851399 
L 607.850649 145.576912 
L 614.644481 143.364817 
L 621.438312 212.526825 
L 641.819805 254.668255 
L 648.613636 308.70456 
L 655.407468 322.040213 
L 662.201299 366.733312 
L 668.99513 361.503834 
L 689.376623 366.471354 
L 696.170455 365.321642 
L 702.964286 362.270307 
L 709.758117 366.81578 
L 716.551948 367.873317 
L 736.933442 370.992571 
L 743.727273 367.519187 
L 750.521104 364.234996 
L 757.314935 362.585626 
L 764.108766 354.523115 
L 784.49026 333.949637 
L 791.284091 358.554371 
L 798.077922 361.377705 
L 804.871753 364.564872 
L 832.047078 363.541293 
L 838.840909 361.465028 
L 845.63474 358.486458 
L 852.428571 405.052082 
L 859.222403 402.039554 
L 879.603896 412.818684 
L 886.397727 414.77367 
L 893.191558 406.759669 
L 899.98539 362.71176 
L 906.779221 405.183061 
L 927.160714 367.237824 
L 933.954545 398.037403 
" clip-path="url(#p543ffecf96)" style="fill: none; stroke: #1f77b4; stroke-width: 1.5; stroke-linecap: round"/>
   </g>
   <g id="line2d_26">
    <path d="M 173.045455 415.135083 
L 179.839286 417.577594 
L 186.633117 372.827332 
L 193.426948 364.928206 
L 213.808442 355.628237 
L 220.602273 339.125787 
L 227.396104 326.531292 
L 234.189935 324.432503 
L 240.983766 264.596268 
L 268.159091 247.393596 
L 274.952922 222.541056 
L 281.746753 234.826926 
L 288.540584 253.58565 
L 308.922078 251.987588 
L 315.715909 250.757666 
L 322.50974 271.064582 
L 329.303571 256.09801 
L 336.097403 255.916457 
L 356.478896 224.107784 
L 363.272727 280.128467 
L 370.066558 259.890867 
L 376.86039 260.457188 
L 383.654221 212.956507 
L 404.035714 212.623092 
L 410.829545 232.102863 
L 417.623377 217.665718 
L 424.417208 199.925043 
L 431.211039 211.762739 
L 451.592532 242.257521 
L 458.386364 233.488106 
L 465.180195 215.274267 
L 471.974026 222.288909 
L 478.767857 216.954769 
L 505.943182 253.004815 
L 512.737013 251.471819 
L 519.530844 268.573335 
L 526.324675 273.507525 
L 546.706169 262.995402 
L 553.5 266.820392 
L 560.293831 275.700924 
L 567.087662 274.738725 
L 573.881494 263.445662 
L 594.262987 262.788946 
L 601.056818 264.325344 
L 607.850649 263.910231 
L 614.644481 230.10113 
L 621.438312 274.738725 
L 641.819805 296.748967 
L 648.613636 330.442019 
L 655.407468 335.2612 
L 662.201299 362.843701 
L 668.99513 360.445458 
L 689.376623 365.852877 
L 696.170455 367.125757 
L 702.964286 364.18465 
L 709.758117 367.125757 
L 716.551948 375.467724 
L 736.933442 369.861249 
L 743.727273 364.45383 
L 750.521104 358.777231 
L 757.314935 358.777231 
L 764.108766 358.777231 
L 784.49026 337.237341 
L 791.284091 361.341973 
L 798.077922 360.36003 
L 804.871753 368.640291 
L 832.047078 356.057664 
L 838.840909 359.004252 
L 845.63474 357.9857 
L 852.428571 405.238899 
L 859.222403 405.808825 
L 879.603896 420.889404 
L 886.397727 403.47098 
L 893.191558 394.246904 
L 899.98539 370.763793 
L 906.779221 392.520189 
L 927.160714 370.107077 
L 933.954545 395.278665 
" clip-path="url(#p543ffecf96)" style="fill: none; stroke: #ff7f0e; stroke-width: 1.5; stroke-linecap: round"/>
   </g>
   <g id="line2d_27">
    <path d="M 173.045455 413.647893 
L 179.839286 406.903375 
L 186.633117 421.10604 
L 193.426948 411.574931 
L 213.808442 348.702355 
L 220.602273 371.180736 
L 227.396104 293.401811 
L 234.189935 301.598766 
L 240.983766 321.074494 
L 268.159091 242.448575 
L 274.952922 231.980194 
L 281.746753 287.985372 
L 288.540584 273.015438 
L 308.922078 286.92255 
L 315.715909 254.79911 
L 322.50974 257.29535 
L 329.303571 313.056198 
L 336.097403 332.790044 
L 356.478896 285.374904 
L 363.272727 331.497838 
L 370.066558 285.677424 
L 376.86039 181.257678 
L 383.654221 313.97466 
L 404.035714 159.493616 
L 410.829545 197.215638 
L 417.623377 188.87876 
L 424.417208 268.825894 
L 431.211039 226.827075 
L 451.592532 242.241937 
L 458.386364 260.389172 
L 465.180195 245.44636 
L 471.974026 216.482705 
L 478.767857 279.167265 
L 505.943182 285.931571 
L 512.737013 304.335467 
L 519.530844 296.137569 
L 526.324675 292.196045 
L 546.706169 194.684571 
L 553.5 202.897264 
L 560.293831 267.634836 
L 567.087662 260.839069 
L 573.881494 297.423926 
L 594.262987 288.450096 
L 601.056818 257.42723 
L 607.850649 258.820512 
L 614.644481 197.286189 
L 621.438312 223.223767 
L 641.819805 337.513005 
L 648.613636 331.959553 
L 655.407468 328.774804 
L 662.201299 400.174101 
L 668.99513 332.84409 
L 689.376623 303.196654 
L 696.170455 297.119071 
L 702.964286 361.159947 
L 709.758117 368.19145 
L 716.551948 444.35222 
L 736.933442 485.769206 
L 743.727273 411.024872 
L 750.521104 392.801244 
L 757.314935 358.173496 
L 764.108766 351.822143 
L 784.49026 323.848355 
L 791.284091 374.257311 
L 798.077922 317.545059 
L 804.871753 396.504847 
L 832.047078 318.081901 
L 838.840909 371.075669 
L 845.63474 320.311354 
L 852.428571 453.999305 
L 859.222403 461.927061 
L 879.603896 379.057318 
L 886.397727 406.34959 
L 893.191558 369.866922 
L 899.98539 429.994818 
L 906.779221 492.48 
L 927.160714 406.669356 
L 933.954545 336.590928 
" clip-path="url(#p543ffecf96)" style="fill: none; stroke: #2ca02c; stroke-width: 1.5; stroke-linecap: round"/>
   </g>
   <g id="line2d_28">
    <path d="M 173.045455 412.168632 
L 179.839286 453.402927 
L 186.633117 349.589557 
L 193.426948 377.240762 
L 213.808442 351.044871 
L 220.602273 382.576992 
L 227.396104 382.576992 
L 234.189935 315.146807 
L 240.983766 303.019079 
L 268.159091 303.019079 
L 274.952922 224.431406 
L 281.746753 224.431406 
L 288.540584 254.023046 
L 308.922078 303.019079 
L 315.715909 161.852284 
L 322.50974 303.019079 
L 329.303571 277.308308 
L 336.097403 277.308308 
L 356.478896 277.308308 
L 363.272727 277.308308 
L 370.066558 277.308308 
L 376.86039 277.308308 
L 383.654221 277.308308 
L 404.035714 224.431406 
L 410.829545 224.431406 
L 417.623377 224.431406 
L 424.417208 224.431406 
L 431.211039 254.023046 
L 451.592532 224.431406 
L 458.386364 277.308308 
L 465.180195 277.308308 
L 471.974026 277.308308 
L 478.767857 277.308308 
L 505.943182 277.308308 
L 512.737013 161.852284 
L 519.530844 161.852284 
L 526.324675 277.308308 
L 546.706169 161.852284 
L 553.5 277.308308 
L 560.293831 277.308308 
L 567.087662 277.308308 
L 573.881494 277.308308 
L 594.262987 277.308308 
L 601.056818 161.852284 
L 607.850649 277.308308 
L 614.644481 277.308308 
L 621.438312 277.308308 
L 641.819805 382.576992 
L 648.613636 382.576992 
L 655.407468 315.146807 
L 662.201299 382.091872 
L 668.99513 382.091872 
L 689.376623 382.091872 
L 696.170455 370.934338 
L 702.964286 370.934338 
L 709.758117 382.091872 
L 716.551948 382.091872 
L 736.933442 382.091872 
L 743.727273 373.359893 
L 750.521104 373.359893 
L 757.314935 372.389699 
L 764.108766 372.389699 
L 784.49026 315.146807 
L 791.284091 372.389699 
L 798.077922 381.121632 
L 804.871753 344.253373 
L 832.047078 351.044871 
L 838.840909 351.044871 
L 845.63474 351.044871 
L 852.428571 407.317523 
L 859.222403 393.24936 
L 879.603896 411.683512 
L 886.397727 412.168632 
L 893.191558 407.317523 
L 899.98539 336.491588 
L 906.779221 419.445251 
L 927.160714 336.491588 
L 933.954545 412.168632 
" clip-path="url(#p543ffecf96)" style="fill: none; stroke: #d62728; stroke-width: 1.5; stroke-linecap: round"/>
   </g>
   <g id="line2d_29">
    <path d="M 173.045455 379.676481 
L 179.839286 380.040932 
L 186.633117 377.876687 
L 193.426948 374.814212 
L 213.808442 371.404921 
L 220.602273 367.229392 
L 227.396104 361.461664 
L 234.189935 355.975532 
L 240.983766 346.311539 
L 268.159091 337.046396 
L 274.952922 328.727086 
L 281.746753 322.895345 
L 288.540584 318.987262 
L 308.922078 315.109773 
L 315.715909 312.451774 
L 322.50974 310.469199 
L 329.303571 307.988495 
L 336.097403 304.697163 
L 356.478896 302.36435 
L 363.272727 301.834013 
L 370.066558 300.72821 
L 376.86039 297.614929 
L 383.654221 293.016213 
L 404.035714 288.81443 
L 410.829545 285.032347 
L 417.623377 281.226863 
L 424.417208 277.610216 
L 431.211039 274.992942 
L 451.592532 273.871254 
L 458.386364 272.283213 
L 465.180195 269.946357 
L 471.974026 268.046729 
L 478.767857 268.178083 
L 505.943182 268.774186 
L 512.737013 271.71342 
L 519.530844 274.948399 
L 526.324675 276.635789 
L 546.706169 279.357114 
L 553.5 281.605762 
L 560.293831 282.313247 
L 567.087662 282.562462 
L 573.881494 282.46041 
L 594.262987 281.605157 
L 601.056818 281.390041 
L 607.850649 280.411017 
L 614.644481 278.729249 
L 621.438312 279.597699 
L 641.819805 282.009254 
L 648.613636 286.231183 
L 655.407468 290.619488 
L 662.201299 297.387067 
L 668.99513 302.830595 
L 689.376623 308.1907 
L 696.170455 313.257173 
L 702.964286 316.558737 
L 709.758117 321.303722 
L 716.551948 326.174188 
L 736.933442 330.140424 
L 743.727273 332.542391 
L 750.521104 334.208624 
L 757.314935 334.557009 
L 764.108766 334.005188 
L 784.49026 332.719335 
L 791.284091 332.731763 
L 798.077922 333.540787 
L 804.871753 335.487989 
L 832.047078 336.959222 
L 838.840909 337.920483 
L 845.63474 338.473624 
L 852.428571 343.702069 
L 859.222403 348.640598 
L 879.603896 353.691666 
L 886.397727 357.11393 
L 893.191558 359.430104 
L 899.98539 360.34461 
L 906.779221 362.0029 
L 927.160714 363.088262 
L 933.954545 364.10351 
" clip-path="url(#p543ffecf96)" style="fill: none; stroke: #9467bd; stroke-width: 1.5; stroke-linecap: round"/>
   </g>
   <g id="line2d_30">
    <path d="M 173.045455 417.698883 
L 179.839286 424.102322 
L 186.633117 424.102322 
L 193.426948 408.093724 
L 213.808442 378.016955 
L 220.602273 368.411796 
L 227.396104 359.679826 
L 234.189935 353.858513 
L 240.983766 351.335943 
L 268.159091 350.171683 
L 274.952922 352.209141 
L 281.746753 336.879694 
L 288.540584 343.186109 
L 308.922078 350.850832 
L 315.715909 350.850832 
L 322.50974 359.29173 
L 329.303571 359.000667 
L 336.097403 348.425287 
L 356.478896 355.119798 
L 363.272727 352.306165 
L 370.066558 352.694262 
L 376.86039 355.701933 
L 383.654221 304.862489 
L 404.035714 181.159662 
L 410.829545 124.40189 
L 417.623377 124.40189 
L 424.417208 124.40189 
L 431.211039 124.40189 
L 451.592532 101.601758 
L 458.386364 101.601758 
L 465.180195 101.601758 
L 471.974026 101.601758 
L 478.767857 89.28 
L 505.943182 89.28 
L 512.737013 144.3884 
L 519.530844 384.032307 
L 526.324675 384.032307 
L 546.706169 401.205174 
L 553.5 401.205174 
L 560.293831 401.205174 
L 567.087662 401.205174 
L 573.881494 401.205174 
L 594.262987 401.205174 
L 601.056818 401.205174 
L 607.850649 403.824768 
L 614.644481 324.363888 
L 621.438312 324.363888 
L 641.819805 324.363888 
L 648.613636 351.918078 
L 655.407468 384.032307 
L 662.201299 401.205174 
L 668.99513 403.921783 
L 689.376623 402.46645 
L 696.170455 405.668179 
L 702.964286 405.668179 
L 709.758117 388.786383 
L 716.551948 382.771022 
L 736.933442 378.308018 
L 743.727273 378.987177 
L 750.521104 381.897824 
L 757.314935 389.3685 
L 764.108766 378.793119 
L 784.49026 353.664465 
L 791.284091 347.649113 
L 798.077922 347.649113 
L 804.871753 350.171683 
L 832.047078 347.35805 
L 838.840909 355.119798 
L 845.63474 370.255207 
L 852.428571 385.196568 
L 859.222403 407.9967 
L 879.603896 424.490409 
L 886.397727 426.430843 
L 893.191558 430.990862 
L 899.98539 411.87757 
L 906.779221 420.900602 
L 927.160714 421.385713 
L 933.954545 421.773809 
" clip-path="url(#p543ffecf96)" style="fill: none; stroke: #8c564b; stroke-width: 1.5; stroke-linecap: round"/>
   </g>
   <g id="line2d_31">
    <path d="M 173.045455 419.032718 
L 179.839286 425.037226 
L 186.633117 407.089165 
L 193.426948 387.266041 
L 213.808442 387.058132 
L 220.602273 381.877348 
L 227.396104 365.72649 
L 234.189935 341.286765 
L 240.983766 311.055855 
L 268.159091 291.787801 
L 274.952922 274.951177 
L 281.746753 281.3802 
L 288.540584 284.985384 
L 308.922078 278.109316 
L 315.715909 289.686091 
L 322.50974 295.767304 
L 329.303571 287.21071 
L 336.097403 289.429698 
L 356.478896 263.254256 
L 363.272727 267.59864 
L 370.066558 274.626545 
L 376.86039 279.856323 
L 383.654221 273.303221 
L 404.035714 254.019252 
L 410.829545 267.655359 
L 417.623377 284.038738 
L 424.417208 264.513227 
L 431.211039 260.753476 
L 451.592532 274.575794 
L 458.386364 272.153616 
L 465.180195 259.6809 
L 471.974026 253.875372 
L 478.767857 257.704889 
L 505.943182 269.232671 
L 512.737013 272.509707 
L 519.530844 279.140255 
L 526.324675 270.029932 
L 546.706169 279.462573 
L 553.5 270.829922 
L 560.293831 286.122174 
L 567.087662 284.32858 
L 573.881494 286.343823 
L 594.262987 289.02924 
L 601.056818 296.216154 
L 607.850649 293.540127 
L 614.644481 282.705097 
L 621.438312 288.801207 
L 641.819805 305.451758 
L 648.613636 354.264726 
L 655.407468 379.532384 
L 662.201299 403.010704 
L 668.99513 400.539904 
L 689.376623 415.18849 
L 696.170455 416.747157 
L 702.964286 406.494539 
L 709.758117 404.88253 
L 716.551948 404.991342 
L 736.933442 411.635259 
L 743.727273 403.115723 
L 750.521104 399.853814 
L 757.314935 398.997105 
L 764.108766 386.52152 
L 784.49026 386.101817 
L 791.284091 401.057455 
L 798.077922 407.896558 
L 804.871753 409.849854 
L 832.047078 408.712972 
L 838.840909 402.918223 
L 845.63474 397.020816 
L 852.428571 423.118443 
L 859.222403 422.610052 
L 879.603896 433.670016 
L 886.397727 424.760246 
L 893.191558 421.259247 
L 899.98539 411.981404 
L 906.779221 412.316491 
L 927.160714 399.126134 
L 933.954545 411.212595 
" clip-path="url(#p543ffecf96)" style="fill: none; stroke: #e377c2; stroke-width: 1.5; stroke-linecap: round"/>
   </g>
   <g id="line2d_32">
    <path d="M 173.045455 423.717373 
L 179.839286 412.947637 
L 186.633117 379.319467 
L 193.426948 369.935338 
L 213.808442 349.530795 
L 220.602273 344.901723 
L 227.396104 311.186479 
L 234.189935 308.176292 
L 240.983766 255.44737 
L 268.159091 232.661133 
L 274.952922 224.411956 
L 281.746753 242.069726 
L 288.540584 253.815211 
L 308.922078 255.093317 
L 315.715909 265.548446 
L 322.50974 274.777969 
L 329.303571 256.397423 
L 336.097403 250.525535 
L 356.478896 253.902348 
L 363.272727 280.302988 
L 370.066558 272.845653 
L 376.86039 243.195043 
L 383.654221 229.862911 
L 404.035714 221.175316 
L 410.829545 219.544061 
L 417.623377 203.138557 
L 424.417208 211.615745 
L 431.211039 221.640455 
L 451.592532 230.759006 
L 458.386364 228.956804 
L 465.180195 214.479972 
L 471.974026 213.29387 
L 478.767857 228.122588 
L 505.943182 236.277127 
L 512.737013 268.59234 
L 519.530844 288.394906 
L 526.324675 277.14366 
L 546.706169 278.683459 
L 553.5 282.676032 
L 560.293831 273.77666 
L 567.087662 269.083576 
L 573.881494 263.427419 
L 594.262987 264.69443 
L 601.056818 265.931647 
L 607.850649 260.082081 
L 614.644481 248.053414 
L 621.438312 266.47287 
L 641.819805 291.748917 
L 648.613636 314.349638 
L 655.407468 328.082332 
L 662.201299 359.32656 
L 668.99513 357.757871 
L 689.376623 358.086074 
L 696.170455 363.634523 
L 702.964286 355.398513 
L 709.758117 374.460693 
L 716.551948 386.599353 
L 736.933442 384.921259 
L 743.727273 379.22677 
L 750.521104 362.95916 
L 757.314935 356.672774 
L 764.108766 337.941148 
L 784.49026 328.397213 
L 791.284091 345.142691 
L 798.077922 345.687403 
L 804.871753 364.928624 
L 832.047078 358.772967 
L 838.840909 356.965683 
L 845.63474 349.119933 
L 852.428571 399.840454 
L 859.222403 410.592369 
L 879.603896 422.892261 
L 886.397727 411.870861 
L 893.191558 395.355425 
L 899.98539 382.324318 
L 906.779221 397.688871 
L 927.160714 392.291377 
L 933.954545 393.948518 
" clip-path="url(#p543ffecf96)" style="fill: none; stroke: #7f7f7f; stroke-width: 1.5; stroke-linecap: round"/>
   </g>
   <g id="line2d_33">
    <path d="M 173.045455 396.309218 
L 179.839286 394.401045 
L 186.633117 375.685386 
L 193.426948 358.09225 
L 213.808442 346.077044 
L 220.602273 332.004422 
L 227.396104 313.280814 
L 234.189935 301.450051 
L 240.983766 264.859272 
L 268.159091 243.595866 
L 274.952922 233.180966 
L 281.746753 238.693894 
L 288.540584 249.364659 
L 308.922078 253.076453 
L 315.715909 258.164373 
L 322.50974 263.630432 
L 329.303571 261.092775 
L 336.097403 252.130973 
L 356.478896 251.601375 
L 363.272727 261.739236 
L 370.066558 262.945837 
L 376.86039 251.393149 
L 383.654221 237.742739 
L 404.035714 232.478072 
L 410.829545 232.649668 
L 417.623377 232.072734 
L 424.417208 231.538028 
L 431.211039 237.910223 
L 451.592532 249.169635 
L 458.386364 249.545588 
L 465.180195 243.287147 
L 471.974026 239.919725 
L 478.767857 247.323406 
L 505.943182 251.722904 
L 512.737013 267.790482 
L 519.530844 278.111902 
L 526.324675 276.076218 
L 546.706169 281.118713 
L 553.5 282.118516 
L 560.293831 275.136597 
L 567.087662 270.431314 
L 573.881494 266.491622 
L 594.262987 259.788561 
L 601.056818 261.699945 
L 607.850649 257.777391 
L 614.644481 251.031285 
L 621.438312 262.864715 
L 641.819805 277.880491 
L 648.613636 297.85751 
L 655.407468 310.823594 
L 662.201299 333.427061 
L 668.99513 338.350024 
L 689.376623 342.891615 
L 696.170455 345.081357 
L 702.964286 337.379034 
L 709.758117 345.182418 
L 716.551948 353.175012 
L 736.933442 355.080792 
L 743.727273 350.825521 
L 750.521104 347.813618 
L 757.314935 338.736295 
L 764.108766 331.868264 
L 784.49026 322.846098 
L 791.284091 325.824659 
L 798.077922 333.129867 
L 804.871753 342.403811 
L 832.047078 344.029976 
L 838.840909 341.484867 
L 845.63474 336.552377 
L 852.428571 362.322008 
L 859.222403 376.105112 
L 879.603896 385.379026 
L 886.397727 382.397015 
L 893.191558 376.715001 
L 899.98539 366.826442 
L 906.779221 368.749104 
L 927.160714 368.357695 
L 933.954545 369.876065 
" clip-path="url(#p543ffecf96)" style="fill: none; stroke: #bcbd22; stroke-width: 1.5; stroke-linecap: round"/>
   </g>
   <g id="line2d_34">
    <path d="M 465.180195 281.646632 
L 471.974026 279.783874 
L 478.767857 276.131084 
L 505.943182 275.048423 
L 512.737013 272.978589 
L 519.530844 275.408123 
L 526.324675 281.009212 
L 546.706169 283.408073 
L 553.5 288.218702 
L 560.293831 292.638959 
L 567.087662 294.128369 
L 573.881494 294.11685 
L 594.262987 294.377776 
L 601.056818 291.775587 
L 607.850649 291.637398 
L 614.644481 291.050266 
L 621.438312 287.256511 
L 641.819805 287.134375 
L 648.613636 289.249779 
L 655.407468 295.124055 
L 662.201299 300.566367 
L 668.99513 310.458036 
L 689.376623 319.169521 
L 696.170455 326.123959 
L 702.964286 331.763447 
L 709.758117 333.219548 
L 716.551948 336.064853 
L 736.933442 340.484277 
L 743.727273 345.366152 
L 750.521104 348.559544 
L 757.314935 351.960613 
L 764.108766 352.688247 
L 784.49026 352.675802 
L 791.284091 350.403334 
L 798.077922 349.428143 
L 804.871753 350.485914 
L 832.047078 354.58103 
L 838.840909 358.987084 
L 845.63474 361.987557 
L 852.428571 361.995052 
L 859.222403 363.971063 
L 879.603896 367.948346 
L 886.397727 375.43861 
L 893.191558 381.17997 
L 899.98539 385.978802 
L 906.779221 385.8872 
L 927.160714 386.941964 
L 933.954545 388.340513 
" clip-path="url(#p543ffecf96)" style="fill: none; stroke: #17becf; stroke-width: 1.5; stroke-linecap: round"/>
   </g>
   <g id="line2d_35">
    <path d="M 465.180195 221.767454 
L 471.974026 220.490949 
L 478.767857 222.362497 
L 505.943182 225.762965 
L 512.737013 232.896999 
L 519.530844 245.508645 
L 526.324675 250.795002 
L 546.706169 257.328211 
L 553.5 264.611676 
L 560.293831 264.962956 
L 567.087662 262.137637 
L 573.881494 258.852227 
L 594.262987 252.259523 
L 601.056818 247.054959 
L 607.850649 243.728791 
L 614.644481 237.651418 
L 621.438312 237.707489 
L 641.819805 246.314834 
L 648.613636 259.420113 
L 655.407468 274.560111 
L 662.201299 293.982685 
L 668.99513 313.323651 
L 689.376623 325.501899 
L 696.170455 337.078627 
L 702.964286 341.119985 
L 709.758117 344.81802 
L 716.551948 352.378883 
L 736.933442 355.267444 
L 743.727273 355.770514 
L 750.521104 355.744838 
L 757.314935 351.96945 
L 764.108766 344.036906 
L 784.49026 335.429191 
L 791.284091 329.454708 
L 798.077922 329.685563 
L 804.871753 334.150279 
L 832.047078 338.58423 
L 838.840909 340.5849 
L 845.63474 340.659847 
L 852.428571 343.390233 
L 859.222403 354.587507 
L 879.603896 366.054591 
L 886.397727 377.764374 
L 893.191558 383.896523 
L 899.98539 384.233785 
L 906.779221 382.387497 
L 927.160714 382.196289 
L 933.954545 380.044383 
" clip-path="url(#p543ffecf96)" style="fill: none; stroke: #1f77b4; stroke-width: 1.5; stroke-linecap: round"/>
   </g>
   <g id="line2d_36">
    <path d="M 173.045455 410.713318 
L 179.839286 369.479024 
L 186.633117 350.074677 
L 193.426948 340.857578 
L 213.808442 319.997917 
L 220.602273 291.861591 
L 227.396104 284.584926 
L 234.189935 212.303678 
L 240.983766 203.086578 
L 268.159091 200.175949 
L 274.952922 221.520777 
L 281.746753 238.984643 
L 288.540584 236.074014 
L 308.922078 244.320873 
L 315.715909 251.597491 
L 322.50974 239.954883 
L 329.303571 222.976045 
L 336.097403 231.708024 
L 356.478896 254.508166 
L 363.272727 245.776233 
L 370.066558 219.095176 
L 376.86039 201.14619 
L 383.654221 203.086578 
L 404.035714 207.937688 
L 410.829545 205.9973 
L 417.623377 205.512179 
L 424.417208 220.550536 
L 431.211039 238.984643 
L 451.592532 227.827155 
L 458.386364 214.244066 
L 465.180195 213.759038 
L 471.974026 233.648505 
L 478.767857 235.103773 
L 505.943182 267.606135 
L 512.737013 273.912513 
L 519.530844 258.874156 
L 526.324675 273.912513 
L 546.706169 270.516764 
L 553.5 253.537972 
L 560.293831 251.112371 
L 567.087662 246.746381 
L 573.881494 235.103773 
L 594.262987 246.746381 
L 601.056818 235.103773 
L 607.850649 223.946286 
L 614.644481 258.389035 
L 621.438312 278.763622 
L 641.819805 308.355263 
L 648.613636 317.572362 
L 655.407468 356.381101 
L 662.201299 343.768253 
L 668.99513 350.559797 
L 689.376623 351.529992 
L 696.170455 331.640525 
L 702.964286 358.321536 
L 709.758117 367.538589 
L 716.551948 363.172599 
L 736.933442 352.500232 
L 743.727273 350.559797 
L 750.521104 332.610719 
L 757.314935 326.789415 
L 764.108766 313.206372 
L 784.49026 329.21497 
L 791.284091 341.827818 
L 798.077922 354.925741 
L 804.871753 349.104437 
L 832.047078 342.312938 
L 838.840909 334.06608 
L 845.63474 398.10047 
L 852.428571 400.526024 
L 859.222403 408.287763 
L 879.603896 393.24936 
L 886.397727 384.032307 
L 893.191558 367.538589 
L 899.98539 382.576992 
L 906.779221 378.696123 
L 927.160714 382.576992 
L 933.954545 405.862208 
" clip-path="url(#p543ffecf96)" style="fill: none; stroke: #000000; stroke-width: 2; stroke-linecap: round"/>
   </g>
   <g id="patch_3">
    <path d="M 135 512.64 
L 135 69.12 
" style="fill: none; stroke: #cccccc; stroke-linejoin: miter; stroke-linecap: square"/>
   </g>
   <g id="patch_4">
    <path d="M 972 512.64 
L 972 69.12 
" style="fill: none; stroke: #cccccc; stroke-linejoin: miter; stroke-linecap: square"/>
   </g>
   <g id="patch_5">
    <path d="M 135 512.64 
L 972 512.64 
" style="fill: none; stroke: #cccccc; stroke-linejoin: miter; stroke-linecap: square"/>
   </g>
   <g id="patch_6">
    <path d="M 135 69.12 
L 972 69.12 
" style="fill: none; stroke: #cccccc; stroke-linejoin: miter; stroke-linecap: square"/>
   </g>
   <g id="text_15">
    <!-- Tahminler ve Gerçek Değerler -->
    <g style="fill: #262626" transform="translate(473.811563 63.12) scale(0.12 -0.12)">
     <defs>
      <path id="ArialMT-54" d="M 1659 0 
L 1659 4041 
L 150 4041 
L 150 4581 
L 3781 4581 
L 3781 4041 
L 2266 4041 
L 2266 0 
L 1659 0 
z
" transform="scale(0.015625)"/>
      <path id="ArialMT-68" d="M 422 0 
L 422 4581 
L 984 4581 
L 984 2938 
Q 1378 3394 1978 3394 
Q 2347 3394 2619 3248 
Q 2891 3103 3008 2847 
Q 3125 2591 3125 2103 
L 3125 0 
L 2563 0 
L 2563 2103 
Q 2563 2525 2380 2717 
Q 2197 2909 1863 2909 
Q 1613 2909 1392 2779 
Q 1172 2650 1078 2428 
Q 984 2206 984 1816 
L 984 0 
L 422 0 
z
" transform="scale(0.015625)"/>
      <path id="ArialMT-6d" d="M 422 0 
L 422 3319 
L 925 3319 
L 925 2853 
Q 1081 3097 1340 3245 
Q 1600 3394 1931 3394 
Q 2300 3394 2536 3241 
Q 2772 3088 2869 2813 
Q 3263 3394 3894 3394 
Q 4388 3394 4653 3120 
Q 4919 2847 4919 2278 
L 4919 0 
L 4359 0 
L 4359 2091 
Q 4359 2428 4304 2576 
Q 4250 2725 4106 2815 
Q 3963 2906 3769 2906 
Q 3419 2906 3187 2673 
Q 2956 2441 2956 1928 
L 2956 0 
L 2394 0 
L 2394 2156 
Q 2394 2531 2256 2718 
Q 2119 2906 1806 2906 
Q 1569 2906 1367 2781 
Q 1166 2656 1075 2415 
Q 984 2175 984 1722 
L 984 0 
L 422 0 
z
" transform="scale(0.015625)"/>
      <path id="ArialMT-69" d="M 425 3934 
L 425 4581 
L 988 4581 
L 988 3934 
L 425 3934 
z
M 425 0 
L 425 3319 
L 988 3319 
L 988 0 
L 425 0 
z
" transform="scale(0.015625)"/>
      <path id="ArialMT-6e" d="M 422 0 
L 422 3319 
L 928 3319 
L 928 2847 
Q 1294 3394 1984 3394 
Q 2284 3394 2536 3286 
Q 2788 3178 2913 3003 
Q 3038 2828 3088 2588 
Q 3119 2431 3119 2041 
L 3119 0 
L 2556 0 
L 2556 2019 
Q 2556 2363 2490 2533 
Q 2425 2703 2258 2804 
Q 2091 2906 1866 2906 
Q 1506 2906 1245 2678 
Q 984 2450 984 1813 
L 984 0 
L 422 0 
z
" transform="scale(0.015625)"/>
      <path id="ArialMT-72" d="M 416 0 
L 416 3319 
L 922 3319 
L 922 2816 
Q 1116 3169 1280 3281 
Q 1444 3394 1641 3394 
Q 1925 3394 2219 3213 
L 2025 2691 
Q 1819 2813 1613 2813 
Q 1428 2813 1281 2702 
Q 1134 2591 1072 2394 
Q 978 2094 978 1738 
L 978 0 
L 416 0 
z
" transform="scale(0.015625)"/>
      <path id="ArialMT-76" d="M 1344 0 
L 81 3319 
L 675 3319 
L 1388 1331 
Q 1503 1009 1600 663 
Q 1675 925 1809 1294 
L 2547 3319 
L 3125 3319 
L 1869 0 
L 1344 0 
z
" transform="scale(0.015625)"/>
      <path id="ArialMT-47" d="M 2638 1797 
L 2638 2334 
L 4578 2338 
L 4578 638 
Q 4131 281 3656 101 
Q 3181 -78 2681 -78 
Q 2006 -78 1454 211 
Q 903 500 622 1047 
Q 341 1594 341 2269 
Q 341 2938 620 3517 
Q 900 4097 1425 4378 
Q 1950 4659 2634 4659 
Q 3131 4659 3532 4498 
Q 3934 4338 4162 4050 
Q 4391 3763 4509 3300 
L 3963 3150 
Q 3859 3500 3706 3700 
Q 3553 3900 3268 4020 
Q 2984 4141 2638 4141 
Q 2222 4141 1919 4014 
Q 1616 3888 1430 3681 
Q 1244 3475 1141 3228 
Q 966 2803 966 2306 
Q 966 1694 1177 1281 
Q 1388 869 1791 669 
Q 2194 469 2647 469 
Q 3041 469 3416 620 
Q 3791 772 3984 944 
L 3984 1797 
L 2638 1797 
z
" transform="scale(0.015625)"/>
      <path id="ArialMT-e7" d="M 2588 1216 
L 3141 1144 
Q 3050 572 2676 248 
Q 2303 -75 1759 -75 
Q 1078 -75 664 370 
Q 250 816 250 1647 
Q 250 2184 428 2587 
Q 606 2991 970 3192 
Q 1334 3394 1763 3394 
Q 2303 3394 2647 3120 
Q 2991 2847 3088 2344 
L 2541 2259 
Q 2463 2594 2264 2762 
Q 2066 2931 1784 2931 
Q 1359 2931 1093 2626 
Q 828 2322 828 1663 
Q 828 994 1084 691 
Q 1341 388 1753 388 
Q 2084 388 2306 591 
Q 2528 794 2588 1216 
z
M 1283 -417 
L 1446 136 
L 1864 136 
L 1761 -199 
Q 2027 -230 2161 -362 
Q 2296 -495 2296 -658 
Q 2296 -892 2071 -1072 
Q 1846 -1252 1392 -1252 
Q 1136 -1252 942 -1214 
L 977 -849 
Q 1177 -861 1271 -861 
Q 1564 -861 1683 -780 
Q 1774 -717 1774 -627 
Q 1774 -570 1738 -526 
Q 1702 -483 1605 -451 
Q 1508 -420 1283 -417 
z
" transform="scale(0.015625)"/>
      <path id="ArialMT-6b" d="M 425 0 
L 425 4581 
L 988 4581 
L 988 1969 
L 2319 3319 
L 3047 3319 
L 1778 2088 
L 3175 0 
L 2481 0 
L 1384 1697 
L 988 1316 
L 988 0 
L 425 0 
z
" transform="scale(0.015625)"/>
      <path id="ArialMT-11f" d="M 319 -275 
L 866 -356 
Q 900 -609 1056 -725 
Q 1266 -881 1628 -881 
Q 2019 -881 2231 -725 
Q 2444 -569 2519 -288 
Q 2563 -116 2559 434 
Q 2191 0 1641 0 
Q 956 0 581 494 
Q 206 988 206 1678 
Q 206 2153 378 2554 
Q 550 2956 876 3175 
Q 1203 3394 1644 3394 
Q 2231 3394 2613 2919 
L 2613 3319 
L 3131 3319 
L 3131 450 
Q 3131 -325 2973 -648 
Q 2816 -972 2473 -1159 
Q 2131 -1347 1631 -1347 
Q 1038 -1347 672 -1080 
Q 306 -813 319 -275 
z
M 784 1719 
Q 784 1066 1043 766 
Q 1303 466 1694 466 
Q 2081 466 2343 764 
Q 2606 1063 2606 1700 
Q 2606 2309 2336 2618 
Q 2066 2928 1684 2928 
Q 1309 2928 1046 2623 
Q 784 2319 784 1719 
z
M 2318 4575 
L 2703 4575 
Q 2656 4184 2417 3975 
Q 2178 3766 1781 3766 
Q 1381 3766 1142 3973 
Q 903 4181 856 4575 
L 1240 4575 
Q 1284 4363 1413 4258 
Q 1543 4153 1762 4153 
Q 2015 4153 2145 4254 
Q 2275 4356 2318 4575 
z
" transform="scale(0.015625)"/>
     </defs>
     <use xlink:href="#ArialMT-54"/>
     <use xlink:href="#ArialMT-61" x="49.958984"/>
     <use xlink:href="#ArialMT-68" x="105.574219"/>
     <use xlink:href="#ArialMT-6d" x="161.189453"/>
     <use xlink:href="#ArialMT-69" x="244.490234"/>
     <use xlink:href="#ArialMT-6e" x="266.707031"/>
     <use xlink:href="#ArialMT-6c" x="322.322266"/>
     <use xlink:href="#ArialMT-65" x="344.539062"/>
     <use xlink:href="#ArialMT-72" x="400.154297"/>
     <use xlink:href="#ArialMT-20" x="433.455078"/>
     <use xlink:href="#ArialMT-76" x="461.238281"/>
     <use xlink:href="#ArialMT-65" x="511.238281"/>
     <use xlink:href="#ArialMT-20" x="566.853516"/>
     <use xlink:href="#ArialMT-47" x="594.636719"/>
     <use xlink:href="#ArialMT-65" x="672.419922"/>
     <use xlink:href="#ArialMT-72" x="728.035156"/>
     <use xlink:href="#ArialMT-e7" x="761.335938"/>
     <use xlink:href="#ArialMT-65" x="811.335938"/>
     <use xlink:href="#ArialMT-6b" x="866.951172"/>
     <use xlink:href="#ArialMT-20" x="916.951172"/>
     <use xlink:href="#ArialMT-44" x="944.734375"/>
     <use xlink:href="#ArialMT-65" x="1016.951172"/>
     <use xlink:href="#ArialMT-11f" x="1072.566406"/>
     <use xlink:href="#ArialMT-65" x="1128.181641"/>
     <use xlink:href="#ArialMT-72" x="1183.796875"/>
     <use xlink:href="#ArialMT-6c" x="1217.097656"/>
     <use xlink:href="#ArialMT-65" x="1239.314453"/>
     <use xlink:href="#ArialMT-72" x="1294.929688"/>
    </g>
   </g>
   <g id="legend_1">
    <g id="line2d_37">
     <path d="M 841.63125 81.777813 
L 851.63125 81.777813 
L 861.63125 81.777813 
" style="fill: none; stroke: #1f77b4; stroke-width: 1.5; stroke-linecap: round"/>
    </g>
    <g id="text_16">
     <!-- Random Forest -->
     <g style="fill: #262626" transform="translate(869.63125 85.277813) scale(0.1 -0.1)">
      <defs>
       <path id="ArialMT-52" d="M 503 0 
L 503 4581 
L 2534 4581 
Q 3147 4581 3465 4457 
Q 3784 4334 3975 4021 
Q 4166 3709 4166 3331 
Q 4166 2844 3850 2509 
Q 3534 2175 2875 2084 
Q 3116 1969 3241 1856 
Q 3506 1613 3744 1247 
L 4541 0 
L 3778 0 
L 3172 953 
Q 2906 1366 2734 1584 
Q 2563 1803 2427 1890 
Q 2291 1978 2150 2013 
Q 2047 2034 1813 2034 
L 1109 2034 
L 1109 0 
L 503 0 
z
M 1109 2559 
L 2413 2559 
Q 2828 2559 3062 2645 
Q 3297 2731 3419 2920 
Q 3541 3109 3541 3331 
Q 3541 3656 3305 3865 
Q 3069 4075 2559 4075 
L 1109 4075 
L 1109 2559 
z
" transform="scale(0.015625)"/>
       <path id="ArialMT-46" d="M 525 0 
L 525 4581 
L 3616 4581 
L 3616 4041 
L 1131 4041 
L 1131 2622 
L 3281 2622 
L 3281 2081 
L 1131 2081 
L 1131 0 
L 525 0 
z
" transform="scale(0.015625)"/>
      </defs>
      <use xlink:href="#ArialMT-52"/>
      <use xlink:href="#ArialMT-61" x="72.216797"/>
      <use xlink:href="#ArialMT-6e" x="127.832031"/>
      <use xlink:href="#ArialMT-64" x="183.447266"/>
      <use xlink:href="#ArialMT-6f" x="239.0625"/>
      <use xlink:href="#ArialMT-6d" x="294.677734"/>
      <use xlink:href="#ArialMT-20" x="377.978516"/>
      <use xlink:href="#ArialMT-46" x="405.761719"/>
      <use xlink:href="#ArialMT-6f" x="466.845703"/>
      <use xlink:href="#ArialMT-72" x="522.460938"/>
      <use xlink:href="#ArialMT-65" x="555.761719"/>
      <use xlink:href="#ArialMT-73" x="611.376953"/>
      <use xlink:href="#ArialMT-74" x="661.376953"/>
     </g>
    </g>
    <g id="line2d_38">
     <path d="M 841.63125 96.045 
L 851.63125 96.045 
L 861.63125 96.045 
" style="fill: none; stroke: #ff7f0e; stroke-width: 1.5; stroke-linecap: round"/>
    </g>
    <g id="text_17">
     <!-- Gradient Boosting -->
     <g style="fill: #262626" transform="translate(869.63125 99.545) scale(0.1 -0.1)">
      <defs>
       <path id="ArialMT-42" d="M 469 0 
L 469 4581 
L 2188 4581 
Q 2713 4581 3030 4442 
Q 3347 4303 3526 4014 
Q 3706 3725 3706 3409 
Q 3706 3116 3547 2856 
Q 3388 2597 3066 2438 
Q 3481 2316 3704 2022 
Q 3928 1728 3928 1328 
Q 3928 1006 3792 729 
Q 3656 453 3456 303 
Q 3256 153 2954 76 
Q 2653 0 2216 0 
L 469 0 
z
M 1075 2656 
L 2066 2656 
Q 2469 2656 2644 2709 
Q 2875 2778 2992 2937 
Q 3109 3097 3109 3338 
Q 3109 3566 3000 3739 
Q 2891 3913 2687 3977 
Q 2484 4041 1991 4041 
L 1075 4041 
L 1075 2656 
z
M 1075 541 
L 2216 541 
Q 2509 541 2628 563 
Q 2838 600 2978 687 
Q 3119 775 3209 942 
Q 3300 1109 3300 1328 
Q 3300 1584 3169 1773 
Q 3038 1963 2805 2039 
Q 2572 2116 2134 2116 
L 1075 2116 
L 1075 541 
z
" transform="scale(0.015625)"/>
       <path id="ArialMT-67" d="M 319 -275 
L 866 -356 
Q 900 -609 1056 -725 
Q 1266 -881 1628 -881 
Q 2019 -881 2231 -725 
Q 2444 -569 2519 -288 
Q 2563 -116 2559 434 
Q 2191 0 1641 0 
Q 956 0 581 494 
Q 206 988 206 1678 
Q 206 2153 378 2554 
Q 550 2956 876 3175 
Q 1203 3394 1644 3394 
Q 2231 3394 2613 2919 
L 2613 3319 
L 3131 3319 
L 3131 450 
Q 3131 -325 2973 -648 
Q 2816 -972 2473 -1159 
Q 2131 -1347 1631 -1347 
Q 1038 -1347 672 -1080 
Q 306 -813 319 -275 
z
M 784 1719 
Q 784 1066 1043 766 
Q 1303 466 1694 466 
Q 2081 466 2343 764 
Q 2606 1063 2606 1700 
Q 2606 2309 2336 2618 
Q 2066 2928 1684 2928 
Q 1309 2928 1046 2623 
Q 784 2319 784 1719 
z
" transform="scale(0.015625)"/>
      </defs>
      <use xlink:href="#ArialMT-47"/>
      <use xlink:href="#ArialMT-72" x="77.783203"/>
      <use xlink:href="#ArialMT-61" x="111.083984"/>
      <use xlink:href="#ArialMT-64" x="166.699219"/>
      <use xlink:href="#ArialMT-69" x="222.314453"/>
      <use xlink:href="#ArialMT-65" x="244.53125"/>
      <use xlink:href="#ArialMT-6e" x="300.146484"/>
      <use xlink:href="#ArialMT-74" x="355.761719"/>
      <use xlink:href="#ArialMT-20" x="383.544922"/>
      <use xlink:href="#ArialMT-42" x="411.328125"/>
      <use xlink:href="#ArialMT-6f" x="478.027344"/>
      <use xlink:href="#ArialMT-6f" x="533.642578"/>
      <use xlink:href="#ArialMT-73" x="589.257812"/>
      <use xlink:href="#ArialMT-74" x="639.257812"/>
      <use xlink:href="#ArialMT-69" x="667.041016"/>
      <use xlink:href="#ArialMT-6e" x="689.257812"/>
      <use xlink:href="#ArialMT-67" x="744.873047"/>
     </g>
    </g>
    <g id="line2d_39">
     <path d="M 841.63125 110.3075 
L 851.63125 110.3075 
L 861.63125 110.3075 
" style="fill: none; stroke: #2ca02c; stroke-width: 1.5; stroke-linecap: round"/>
    </g>
    <g id="text_18">
     <!-- Linear Regression -->
     <g style="fill: #262626" transform="translate(869.63125 113.8075) scale(0.1 -0.1)">
      <defs>
       <path id="ArialMT-4c" d="M 469 0 
L 469 4581 
L 1075 4581 
L 1075 541 
L 3331 541 
L 3331 0 
L 469 0 
z
" transform="scale(0.015625)"/>
      </defs>
      <use xlink:href="#ArialMT-4c"/>
      <use xlink:href="#ArialMT-69" x="55.615234"/>
      <use xlink:href="#ArialMT-6e" x="77.832031"/>
      <use xlink:href="#ArialMT-65" x="133.447266"/>
      <use xlink:href="#ArialMT-61" x="189.0625"/>
      <use xlink:href="#ArialMT-72" x="244.677734"/>
      <use xlink:href="#ArialMT-20" x="277.978516"/>
      <use xlink:href="#ArialMT-52" x="305.761719"/>
      <use xlink:href="#ArialMT-65" x="377.978516"/>
      <use xlink:href="#ArialMT-67" x="433.59375"/>
      <use xlink:href="#ArialMT-72" x="489.208984"/>
      <use xlink:href="#ArialMT-65" x="522.509766"/>
      <use xlink:href="#ArialMT-73" x="578.125"/>
      <use xlink:href="#ArialMT-73" x="628.125"/>
      <use xlink:href="#ArialMT-69" x="678.125"/>
      <use xlink:href="#ArialMT-6f" x="700.341797"/>
      <use xlink:href="#ArialMT-6e" x="755.957031"/>
     </g>
    </g>
    <g id="line2d_40">
     <path d="M 841.63125 124.57 
L 851.63125 124.57 
L 861.63125 124.57 
" style="fill: none; stroke: #d62728; stroke-width: 1.5; stroke-linecap: round"/>
    </g>
    <g id="text_19">
     <!-- Decision Tree -->
     <g style="fill: #262626" transform="translate(869.63125 128.07) scale(0.1 -0.1)">
      <defs>
       <path id="ArialMT-63" d="M 2588 1216 
L 3141 1144 
Q 3050 572 2676 248 
Q 2303 -75 1759 -75 
Q 1078 -75 664 370 
Q 250 816 250 1647 
Q 250 2184 428 2587 
Q 606 2991 970 3192 
Q 1334 3394 1763 3394 
Q 2303 3394 2647 3120 
Q 2991 2847 3088 2344 
L 2541 2259 
Q 2463 2594 2264 2762 
Q 2066 2931 1784 2931 
Q 1359 2931 1093 2626 
Q 828 2322 828 1663 
Q 828 994 1084 691 
Q 1341 388 1753 388 
Q 2084 388 2306 591 
Q 2528 794 2588 1216 
z
" transform="scale(0.015625)"/>
      </defs>
      <use xlink:href="#ArialMT-44"/>
      <use xlink:href="#ArialMT-65" x="72.216797"/>
      <use xlink:href="#ArialMT-63" x="127.832031"/>
      <use xlink:href="#ArialMT-69" x="177.832031"/>
      <use xlink:href="#ArialMT-73" x="200.048828"/>
      <use xlink:href="#ArialMT-69" x="250.048828"/>
      <use xlink:href="#ArialMT-6f" x="272.265625"/>
      <use xlink:href="#ArialMT-6e" x="327.880859"/>
      <use xlink:href="#ArialMT-20" x="383.496094"/>
      <use xlink:href="#ArialMT-54" x="409.529297"/>
      <use xlink:href="#ArialMT-72" x="466.863281"/>
      <use xlink:href="#ArialMT-65" x="500.164062"/>
      <use xlink:href="#ArialMT-65" x="555.779297"/>
     </g>
    </g>
    <g id="line2d_41">
     <path d="M 841.63125 138.715313 
L 851.63125 138.715313 
L 861.63125 138.715313 
" style="fill: none; stroke: #9467bd; stroke-width: 1.5; stroke-linecap: round"/>
    </g>
    <g id="text_20">
     <!-- SVR -->
     <g style="fill: #262626" transform="translate(869.63125 142.215313) scale(0.1 -0.1)">
      <defs>
       <path id="ArialMT-53" d="M 288 1472 
L 859 1522 
Q 900 1178 1048 958 
Q 1197 738 1509 602 
Q 1822 466 2213 466 
Q 2559 466 2825 569 
Q 3091 672 3220 851 
Q 3350 1031 3350 1244 
Q 3350 1459 3225 1620 
Q 3100 1781 2813 1891 
Q 2628 1963 1997 2114 
Q 1366 2266 1113 2400 
Q 784 2572 623 2826 
Q 463 3081 463 3397 
Q 463 3744 659 4045 
Q 856 4347 1234 4503 
Q 1613 4659 2075 4659 
Q 2584 4659 2973 4495 
Q 3363 4331 3572 4012 
Q 3781 3694 3797 3291 
L 3216 3247 
Q 3169 3681 2898 3903 
Q 2628 4125 2100 4125 
Q 1550 4125 1298 3923 
Q 1047 3722 1047 3438 
Q 1047 3191 1225 3031 
Q 1400 2872 2139 2705 
Q 2878 2538 3153 2413 
Q 3553 2228 3743 1945 
Q 3934 1663 3934 1294 
Q 3934 928 3725 604 
Q 3516 281 3123 101 
Q 2731 -78 2241 -78 
Q 1619 -78 1198 103 
Q 778 284 539 648 
Q 300 1013 288 1472 
z
" transform="scale(0.015625)"/>
       <path id="ArialMT-56" d="M 1803 0 
L 28 4581 
L 684 4581 
L 1875 1253 
Q 2019 853 2116 503 
Q 2222 878 2363 1253 
L 3600 4581 
L 4219 4581 
L 2425 0 
L 1803 0 
z
" transform="scale(0.015625)"/>
      </defs>
      <use xlink:href="#ArialMT-53"/>
      <use xlink:href="#ArialMT-56" x="66.699219"/>
      <use xlink:href="#ArialMT-52" x="133.398438"/>
     </g>
    </g>
    <g id="line2d_42">
     <path d="M 841.63125 152.860625 
L 851.63125 152.860625 
L 861.63125 152.860625 
" style="fill: none; stroke: #8c564b; stroke-width: 1.5; stroke-linecap: round"/>
    </g>
    <g id="text_21">
     <!-- K-Nearest Neighbors -->
     <g style="fill: #262626" transform="translate(869.63125 156.360625) scale(0.1 -0.1)">
      <defs>
       <path id="ArialMT-4b" d="M 469 0 
L 469 4581 
L 1075 4581 
L 1075 2309 
L 3350 4581 
L 4172 4581 
L 2250 2725 
L 4256 0 
L 3456 0 
L 1825 2319 
L 1075 1588 
L 1075 0 
L 469 0 
z
" transform="scale(0.015625)"/>
       <path id="ArialMT-4e" d="M 488 0 
L 488 4581 
L 1109 4581 
L 3516 984 
L 3516 4581 
L 4097 4581 
L 4097 0 
L 3475 0 
L 1069 3600 
L 1069 0 
L 488 0 
z
" transform="scale(0.015625)"/>
       <path id="ArialMT-62" d="M 941 0 
L 419 0 
L 419 4581 
L 981 4581 
L 981 2947 
Q 1338 3394 1891 3394 
Q 2197 3394 2470 3270 
Q 2744 3147 2920 2923 
Q 3097 2700 3197 2384 
Q 3297 2069 3297 1709 
Q 3297 856 2875 390 
Q 2453 -75 1863 -75 
Q 1275 -75 941 416 
L 941 0 
z
M 934 1684 
Q 934 1088 1097 822 
Q 1363 388 1816 388 
Q 2184 388 2453 708 
Q 2722 1028 2722 1663 
Q 2722 2313 2464 2622 
Q 2206 2931 1841 2931 
Q 1472 2931 1203 2611 
Q 934 2291 934 1684 
z
" transform="scale(0.015625)"/>
      </defs>
      <use xlink:href="#ArialMT-4b"/>
      <use xlink:href="#ArialMT-2d" x="66.699219"/>
      <use xlink:href="#ArialMT-4e" x="100"/>
      <use xlink:href="#ArialMT-65" x="172.216797"/>
      <use xlink:href="#ArialMT-61" x="227.832031"/>
      <use xlink:href="#ArialMT-72" x="283.447266"/>
      <use xlink:href="#ArialMT-65" x="316.748047"/>
      <use xlink:href="#ArialMT-73" x="372.363281"/>
      <use xlink:href="#ArialMT-74" x="422.363281"/>
      <use xlink:href="#ArialMT-20" x="450.146484"/>
      <use xlink:href="#ArialMT-4e" x="477.929688"/>
      <use xlink:href="#ArialMT-65" x="550.146484"/>
      <use xlink:href="#ArialMT-69" x="605.761719"/>
      <use xlink:href="#ArialMT-67" x="627.978516"/>
      <use xlink:href="#ArialMT-68" x="683.59375"/>
      <use xlink:href="#ArialMT-62" x="739.208984"/>
      <use xlink:href="#ArialMT-6f" x="794.824219"/>
      <use xlink:href="#ArialMT-72" x="850.439453"/>
      <use xlink:href="#ArialMT-73" x="883.740234"/>
     </g>
    </g>
    <g id="line2d_43">
     <path d="M 841.63125 167.123125 
L 851.63125 167.123125 
L 861.63125 167.123125 
" style="fill: none; stroke: #e377c2; stroke-width: 1.5; stroke-linecap: round"/>
    </g>
    <g id="text_22">
     <!-- XGBoost -->
     <g style="fill: #262626" transform="translate(869.63125 170.623125) scale(0.1 -0.1)">
      <defs>
       <path id="ArialMT-58" d="M 28 0 
L 1800 2388 
L 238 4581 
L 959 4581 
L 1791 3406 
Q 2050 3041 2159 2844 
Q 2313 3094 2522 3366 
L 3444 4581 
L 4103 4581 
L 2494 2422 
L 4228 0 
L 3478 0 
L 2325 1634 
Q 2228 1775 2125 1941 
Q 1972 1691 1906 1597 
L 756 0 
L 28 0 
z
" transform="scale(0.015625)"/>
      </defs>
      <use xlink:href="#ArialMT-58"/>
      <use xlink:href="#ArialMT-47" x="66.699219"/>
      <use xlink:href="#ArialMT-42" x="144.482422"/>
      <use xlink:href="#ArialMT-6f" x="211.181641"/>
      <use xlink:href="#ArialMT-6f" x="266.796875"/>
      <use xlink:href="#ArialMT-73" x="322.412109"/>
      <use xlink:href="#ArialMT-74" x="372.412109"/>
     </g>
    </g>
    <g id="line2d_44">
     <path d="M 841.63125 181.268438 
L 851.63125 181.268438 
L 861.63125 181.268438 
" style="fill: none; stroke: #7f7f7f; stroke-width: 1.5; stroke-linecap: round"/>
    </g>
    <g id="text_23">
     <!-- Ridge Regression -->
     <g style="fill: #262626" transform="translate(869.63125 184.768438) scale(0.1 -0.1)">
      <use xlink:href="#ArialMT-52"/>
      <use xlink:href="#ArialMT-69" x="72.216797"/>
      <use xlink:href="#ArialMT-64" x="94.433594"/>
      <use xlink:href="#ArialMT-67" x="150.048828"/>
      <use xlink:href="#ArialMT-65" x="205.664062"/>
      <use xlink:href="#ArialMT-20" x="261.279297"/>
      <use xlink:href="#ArialMT-52" x="289.0625"/>
      <use xlink:href="#ArialMT-65" x="361.279297"/>
      <use xlink:href="#ArialMT-67" x="416.894531"/>
      <use xlink:href="#ArialMT-72" x="472.509766"/>
      <use xlink:href="#ArialMT-65" x="505.810547"/>
      <use xlink:href="#ArialMT-73" x="561.425781"/>
      <use xlink:href="#ArialMT-73" x="611.425781"/>
      <use xlink:href="#ArialMT-69" x="661.425781"/>
      <use xlink:href="#ArialMT-6f" x="683.642578"/>
      <use xlink:href="#ArialMT-6e" x="739.257812"/>
     </g>
    </g>
    <g id="line2d_45">
     <path d="M 841.63125 195.530938 
L 851.63125 195.530938 
L 861.63125 195.530938 
" style="fill: none; stroke: #bcbd22; stroke-width: 1.5; stroke-linecap: round"/>
    </g>
    <g id="text_24">
     <!-- ElasticNet -->
     <g style="fill: #262626" transform="translate(869.63125 199.030938) scale(0.1 -0.1)">
      <defs>
       <path id="ArialMT-45" d="M 506 0 
L 506 4581 
L 3819 4581 
L 3819 4041 
L 1113 4041 
L 1113 2638 
L 3647 2638 
L 3647 2100 
L 1113 2100 
L 1113 541 
L 3925 541 
L 3925 0 
L 506 0 
z
" transform="scale(0.015625)"/>
      </defs>
      <use xlink:href="#ArialMT-45"/>
      <use xlink:href="#ArialMT-6c" x="66.699219"/>
      <use xlink:href="#ArialMT-61" x="88.916016"/>
      <use xlink:href="#ArialMT-73" x="144.53125"/>
      <use xlink:href="#ArialMT-74" x="194.53125"/>
      <use xlink:href="#ArialMT-69" x="222.314453"/>
      <use xlink:href="#ArialMT-63" x="244.53125"/>
      <use xlink:href="#ArialMT-4e" x="294.53125"/>
      <use xlink:href="#ArialMT-65" x="366.748047"/>
      <use xlink:href="#ArialMT-74" x="422.363281"/>
     </g>
    </g>
    <g id="line2d_46">
     <path d="M 841.63125 209.67625 
L 851.63125 209.67625 
L 861.63125 209.67625 
" style="fill: none; stroke: #17becf; stroke-width: 1.5; stroke-linecap: round"/>
    </g>
    <g id="text_25">
     <!-- LSTM -->
     <g style="fill: #262626" transform="translate(869.63125 213.17625) scale(0.1 -0.1)">
      <defs>
       <path id="ArialMT-4d" d="M 475 0 
L 475 4581 
L 1388 4581 
L 2472 1338 
Q 2622 884 2691 659 
Q 2769 909 2934 1394 
L 4031 4581 
L 4847 4581 
L 4847 0 
L 4263 0 
L 4263 3834 
L 2931 0 
L 2384 0 
L 1059 3900 
L 1059 0 
L 475 0 
z
" transform="scale(0.015625)"/>
      </defs>
      <use xlink:href="#ArialMT-4c"/>
      <use xlink:href="#ArialMT-53" x="55.615234"/>
      <use xlink:href="#ArialMT-54" x="122.314453"/>
      <use xlink:href="#ArialMT-4d" x="183.398438"/>
     </g>
    </g>
    <g id="line2d_47">
     <path d="M 841.63125 223.821563 
L 851.63125 223.821563 
L 861.63125 223.821563 
" style="fill: none; stroke: #1f77b4; stroke-width: 1.5; stroke-linecap: round"/>
    </g>
    <g id="text_26">
     <!-- RNN -->
     <g style="fill: #262626" transform="translate(869.63125 227.321563) scale(0.1 -0.1)">
      <use xlink:href="#ArialMT-52"/>
      <use xlink:href="#ArialMT-4e" x="72.216797"/>
      <use xlink:href="#ArialMT-4e" x="144.433594"/>
     </g>
    </g>
    <g id="line2d_48">
     <path d="M 841.63125 238.08875 
L 851.63125 238.08875 
L 861.63125 238.08875 
" style="fill: none; stroke: #000000; stroke-width: 2; stroke-linecap: round"/>
    </g>
    <g id="text_27">
     <!-- Gerçek Değerler -->
     <g style="fill: #262626" transform="translate(869.63125 241.58875) scale(0.1 -0.1)">
      <use xlink:href="#ArialMT-47"/>
      <use xlink:href="#ArialMT-65" x="77.783203"/>
      <use xlink:href="#ArialMT-72" x="133.398438"/>
      <use xlink:href="#ArialMT-e7" x="166.699219"/>
      <use xlink:href="#ArialMT-65" x="216.699219"/>
      <use xlink:href="#ArialMT-6b" x="272.314453"/>
      <use xlink:href="#ArialMT-20" x="322.314453"/>
      <use xlink:href="#ArialMT-44" x="350.097656"/>
      <use xlink:href="#ArialMT-65" x="422.314453"/>
      <use xlink:href="#ArialMT-11f" x="477.929688"/>
      <use xlink:href="#ArialMT-65" x="533.544922"/>
      <use xlink:href="#ArialMT-72" x="589.160156"/>
      <use xlink:href="#ArialMT-6c" x="622.460938"/>
      <use xlink:href="#ArialMT-65" x="644.677734"/>
      <use xlink:href="#ArialMT-72" x="700.292969"/>
     </g>
    </g>
   </g>
  </g>
 </g>
 <defs>
  <clipPath id="p543ffecf96">
   <rect x="135" y="69.12" width="837" height="443.52"/>
  </clipPath>
 </defs>
</svg>
