<?xml version="1.0" encoding="utf-8" standalone="no"?>
<!DOCTYPE svg PUBLIC "-//W3C//DTD SVG 1.1//EN"
  "http://www.w3.org/Graphics/SVG/1.1/DTD/svg11.dtd">
<svg xmlns:xlink="http://www.w3.org/1999/xlink" width="1080pt" height="576pt" viewBox="0 0 1080 576" xmlns="http://www.w3.org/2000/svg" version="1.1">
 <metadata>
  <rdf:RDF xmlns:dc="http://purl.org/dc/elements/1.1/" xmlns:cc="http://creativecommons.org/ns#" xmlns:rdf="http://www.w3.org/1999/02/22-rdf-syntax-ns#">
   <cc:Work>
    <dc:type rdf:resource="http://purl.org/dc/dcmitype/StillImage"/>
    <dc:date>2023-05-23T01:51:51.555014</dc:date>
    <dc:format>image/svg+xml</dc:format>
    <dc:creator>
     <cc:Agent>
      <dc:title>Matplotlib v3.7.1, https://matplotlib.org/</dc:title>
     </cc:Agent>
    </dc:creator>
   </cc:Work>
  </rdf:RDF>
 </metadata>
 <defs>
  <style type="text/css">*{stroke-linejoin: round; stroke-linecap: butt}</style>
 </defs>
 <g id="figure_1">
  <g id="patch_1">
   <path d="M 0 576 
L 1080 576 
L 1080 0 
L 0 0 
z
" style="fill: #ffffff"/>
  </g>
  <g id="axes_1">
   <g id="patch_2">
    <path d="M 135 512.64 
L 972 512.64 
L 972 69.12 
L 135 69.12 
z
" style="fill: #ffffff"/>
   </g>
   <g id="matplotlib.axis_1">
    <g id="xtick_1">
     <g id="line2d_1">
      <path d="M 159.457792 512.64 
L 159.457792 69.12 
" clip-path="url(#p8c3b6bb5bb)" style="fill: none; stroke: #cccccc; stroke-width: 0.8; stroke-linecap: round"/>
     </g>
     <g id="line2d_2"/>
     <g id="text_1">
      <!-- 2023-01-01 -->
      <g style="fill: #262626" transform="translate(133.884355 523.297812) scale(0.1 -0.1)">
       <defs>
        <path id="ArialMT-32" d="M 3222 541 
L 3222 0 
L 194 0 
Q 188 203 259 391 
Q 375 700 629 1000 
Q 884 1300 1366 1694 
Q 2113 2306 2375 2664 
Q 2638 3022 2638 3341 
Q 2638 3675 2398 3904 
Q 2159 4134 1775 4134 
Q 1369 4134 1125 3890 
Q 881 3647 878 3216 
L 300 3275 
Q 359 3922 746 4261 
Q 1134 4600 1788 4600 
Q 2447 4600 2831 4234 
Q 3216 3869 3216 3328 
Q 3216 3053 3103 2787 
Q 2991 2522 2730 2228 
Q 2469 1934 1863 1422 
Q 1356 997 1212 845 
Q 1069 694 975 541 
L 3222 541 
z
" transform="scale(0.015625)"/>
        <path id="ArialMT-30" d="M 266 2259 
Q 266 3072 433 3567 
Q 600 4063 929 4331 
Q 1259 4600 1759 4600 
Q 2128 4600 2406 4451 
Q 2684 4303 2865 4023 
Q 3047 3744 3150 3342 
Q 3253 2941 3253 2259 
Q 3253 1453 3087 958 
Q 2922 463 2592 192 
Q 2263 -78 1759 -78 
Q 1097 -78 719 397 
Q 266 969 266 2259 
z
M 844 2259 
Q 844 1131 1108 757 
Q 1372 384 1759 384 
Q 2147 384 2411 759 
Q 2675 1134 2675 2259 
Q 2675 3391 2411 3762 
Q 2147 4134 1753 4134 
Q 1366 4134 1134 3806 
Q 844 3388 844 2259 
z
" transform="scale(0.015625)"/>
        <path id="ArialMT-33" d="M 269 1209 
L 831 1284 
Q 928 806 1161 595 
Q 1394 384 1728 384 
Q 2125 384 2398 659 
Q 2672 934 2672 1341 
Q 2672 1728 2419 1979 
Q 2166 2231 1775 2231 
Q 1616 2231 1378 2169 
L 1441 2663 
Q 1497 2656 1531 2656 
Q 1891 2656 2178 2843 
Q 2466 3031 2466 3422 
Q 2466 3731 2256 3934 
Q 2047 4138 1716 4138 
Q 1388 4138 1169 3931 
Q 950 3725 888 3313 
L 325 3413 
Q 428 3978 793 4289 
Q 1159 4600 1703 4600 
Q 2078 4600 2393 4439 
Q 2709 4278 2876 4000 
Q 3044 3722 3044 3409 
Q 3044 3113 2884 2869 
Q 2725 2625 2413 2481 
Q 2819 2388 3044 2092 
Q 3269 1797 3269 1353 
Q 3269 753 2831 336 
Q 2394 -81 1725 -81 
Q 1122 -81 723 278 
Q 325 638 269 1209 
z
" transform="scale(0.015625)"/>
        <path id="ArialMT-2d" d="M 203 1375 
L 203 1941 
L 1931 1941 
L 1931 1375 
L 203 1375 
z
" transform="scale(0.015625)"/>
        <path id="ArialMT-31" d="M 2384 0 
L 1822 0 
L 1822 3584 
Q 1619 3391 1289 3197 
Q 959 3003 697 2906 
L 697 3450 
Q 1169 3672 1522 3987 
Q 1875 4303 2022 4600 
L 2384 4600 
L 2384 0 
z
" transform="scale(0.015625)"/>
       </defs>
       <use xlink:href="#ArialMT-32"/>
       <use xlink:href="#ArialMT-30" x="55.615234"/>
       <use xlink:href="#ArialMT-32" x="111.230469"/>
       <use xlink:href="#ArialMT-33" x="166.845703"/>
       <use xlink:href="#ArialMT-2d" x="222.460938"/>
       <use xlink:href="#ArialMT-30" x="255.761719"/>
       <use xlink:href="#ArialMT-31" x="311.376953"/>
       <use xlink:href="#ArialMT-2d" x="366.992188"/>
       <use xlink:href="#ArialMT-30" x="400.292969"/>
       <use xlink:href="#ArialMT-31" x="455.908203"/>
      </g>
     </g>
    </g>
    <g id="xtick_2">
     <g id="line2d_3">
      <path d="M 254.571429 512.64 
L 254.571429 69.12 
" clip-path="url(#p8c3b6bb5bb)" style="fill: none; stroke: #cccccc; stroke-width: 0.8; stroke-linecap: round"/>
     </g>
     <g id="line2d_4"/>
     <g id="text_2">
      <!-- 2023-01-15 -->
      <g style="fill: #262626" transform="translate(228.997991 523.297812) scale(0.1 -0.1)">
       <defs>
        <path id="ArialMT-35" d="M 266 1200 
L 856 1250 
Q 922 819 1161 601 
Q 1400 384 1738 384 
Q 2144 384 2425 690 
Q 2706 997 2706 1503 
Q 2706 1984 2436 2262 
Q 2166 2541 1728 2541 
Q 1456 2541 1237 2417 
Q 1019 2294 894 2097 
L 366 2166 
L 809 4519 
L 3088 4519 
L 3088 3981 
L 1259 3981 
L 1013 2750 
Q 1425 3038 1878 3038 
Q 2478 3038 2890 2622 
Q 3303 2206 3303 1553 
Q 3303 931 2941 478 
Q 2500 -78 1738 -78 
Q 1113 -78 717 272 
Q 322 622 266 1200 
z
" transform="scale(0.015625)"/>
       </defs>
       <use xlink:href="#ArialMT-32"/>
       <use xlink:href="#ArialMT-30" x="55.615234"/>
       <use xlink:href="#ArialMT-32" x="111.230469"/>
       <use xlink:href="#ArialMT-33" x="166.845703"/>
       <use xlink:href="#ArialMT-2d" x="222.460938"/>
       <use xlink:href="#ArialMT-30" x="255.761719"/>
       <use xlink:href="#ArialMT-31" x="311.376953"/>
       <use xlink:href="#ArialMT-2d" x="366.992188"/>
       <use xlink:href="#ArialMT-31" x="400.292969"/>
       <use xlink:href="#ArialMT-35" x="455.908203"/>
      </g>
     </g>
    </g>
    <g id="xtick_3">
     <g id="line2d_5">
      <path d="M 370.066558 512.64 
L 370.066558 69.12 
" clip-path="url(#p8c3b6bb5bb)" style="fill: none; stroke: #cccccc; stroke-width: 0.8; stroke-linecap: round"/>
     </g>
     <g id="line2d_6"/>
     <g id="text_3">
      <!-- 2023-02-01 -->
      <g style="fill: #262626" transform="translate(344.493121 523.297812) scale(0.1 -0.1)">
       <use xlink:href="#ArialMT-32"/>
       <use xlink:href="#ArialMT-30" x="55.615234"/>
       <use xlink:href="#ArialMT-32" x="111.230469"/>
       <use xlink:href="#ArialMT-33" x="166.845703"/>
       <use xlink:href="#ArialMT-2d" x="222.460938"/>
       <use xlink:href="#ArialMT-30" x="255.761719"/>
       <use xlink:href="#ArialMT-32" x="311.376953"/>
       <use xlink:href="#ArialMT-2d" x="366.992188"/>
       <use xlink:href="#ArialMT-30" x="400.292969"/>
       <use xlink:href="#ArialMT-31" x="455.908203"/>
      </g>
     </g>
    </g>
    <g id="xtick_4">
     <g id="line2d_7">
      <path d="M 465.180195 512.64 
L 465.180195 69.12 
" clip-path="url(#p8c3b6bb5bb)" style="fill: none; stroke: #cccccc; stroke-width: 0.8; stroke-linecap: round"/>
     </g>
     <g id="line2d_8"/>
     <g id="text_4">
      <!-- 2023-02-15 -->
      <g style="fill: #262626" transform="translate(439.606757 523.297812) scale(0.1 -0.1)">
       <use xlink:href="#ArialMT-32"/>
       <use xlink:href="#ArialMT-30" x="55.615234"/>
       <use xlink:href="#ArialMT-32" x="111.230469"/>
       <use xlink:href="#ArialMT-33" x="166.845703"/>
       <use xlink:href="#ArialMT-2d" x="222.460938"/>
       <use xlink:href="#ArialMT-30" x="255.761719"/>
       <use xlink:href="#ArialMT-32" x="311.376953"/>
       <use xlink:href="#ArialMT-2d" x="366.992188"/>
       <use xlink:href="#ArialMT-31" x="400.292969"/>
       <use xlink:href="#ArialMT-35" x="455.908203"/>
      </g>
     </g>
    </g>
    <g id="xtick_5">
     <g id="line2d_9">
      <path d="M 560.293831 512.64 
L 560.293831 69.12 
" clip-path="url(#p8c3b6bb5bb)" style="fill: none; stroke: #cccccc; stroke-width: 0.8; stroke-linecap: round"/>
     </g>
     <g id="line2d_10"/>
     <g id="text_5">
      <!-- 2023-03-01 -->
      <g style="fill: #262626" transform="translate(534.720394 523.297812) scale(0.1 -0.1)">
       <use xlink:href="#ArialMT-32"/>
       <use xlink:href="#ArialMT-30" x="55.615234"/>
       <use xlink:href="#ArialMT-32" x="111.230469"/>
       <use xlink:href="#ArialMT-33" x="166.845703"/>
       <use xlink:href="#ArialMT-2d" x="222.460938"/>
       <use xlink:href="#ArialMT-30" x="255.761719"/>
       <use xlink:href="#ArialMT-33" x="311.376953"/>
       <use xlink:href="#ArialMT-2d" x="366.992188"/>
       <use xlink:href="#ArialMT-30" x="400.292969"/>
       <use xlink:href="#ArialMT-31" x="455.908203"/>
      </g>
     </g>
    </g>
    <g id="xtick_6">
     <g id="line2d_11">
      <path d="M 655.407468 512.64 
L 655.407468 69.12 
" clip-path="url(#p8c3b6bb5bb)" style="fill: none; stroke: #cccccc; stroke-width: 0.8; stroke-linecap: round"/>
     </g>
     <g id="line2d_12"/>
     <g id="text_6">
      <!-- 2023-03-15 -->
      <g style="fill: #262626" transform="translate(629.83403 523.297812) scale(0.1 -0.1)">
       <use xlink:href="#ArialMT-32"/>
       <use xlink:href="#ArialMT-30" x="55.615234"/>
       <use xlink:href="#ArialMT-32" x="111.230469"/>
       <use xlink:href="#ArialMT-33" x="166.845703"/>
       <use xlink:href="#ArialMT-2d" x="222.460938"/>
       <use xlink:href="#ArialMT-30" x="255.761719"/>
       <use xlink:href="#ArialMT-33" x="311.376953"/>
       <use xlink:href="#ArialMT-2d" x="366.992188"/>
       <use xlink:href="#ArialMT-31" x="400.292969"/>
       <use xlink:href="#ArialMT-35" x="455.908203"/>
      </g>
     </g>
    </g>
    <g id="xtick_7">
     <g id="line2d_13">
      <path d="M 770.902597 512.64 
L 770.902597 69.12 
" clip-path="url(#p8c3b6bb5bb)" style="fill: none; stroke: #cccccc; stroke-width: 0.8; stroke-linecap: round"/>
     </g>
     <g id="line2d_14"/>
     <g id="text_7">
      <!-- 2023-04-01 -->
      <g style="fill: #262626" transform="translate(745.32916 523.297812) scale(0.1 -0.1)">
       <defs>
        <path id="ArialMT-34" d="M 2069 0 
L 2069 1097 
L 81 1097 
L 81 1613 
L 2172 4581 
L 2631 4581 
L 2631 1613 
L 3250 1613 
L 3250 1097 
L 2631 1097 
L 2631 0 
L 2069 0 
z
M 2069 1613 
L 2069 3678 
L 634 1613 
L 2069 1613 
z
" transform="scale(0.015625)"/>
       </defs>
       <use xlink:href="#ArialMT-32"/>
       <use xlink:href="#ArialMT-30" x="55.615234"/>
       <use xlink:href="#ArialMT-32" x="111.230469"/>
       <use xlink:href="#ArialMT-33" x="166.845703"/>
       <use xlink:href="#ArialMT-2d" x="222.460938"/>
       <use xlink:href="#ArialMT-30" x="255.761719"/>
       <use xlink:href="#ArialMT-34" x="311.376953"/>
       <use xlink:href="#ArialMT-2d" x="366.992188"/>
       <use xlink:href="#ArialMT-30" x="400.292969"/>
       <use xlink:href="#ArialMT-31" x="455.908203"/>
      </g>
     </g>
    </g>
    <g id="xtick_8">
     <g id="line2d_15">
      <path d="M 866.016234 512.64 
L 866.016234 69.12 
" clip-path="url(#p8c3b6bb5bb)" style="fill: none; stroke: #cccccc; stroke-width: 0.8; stroke-linecap: round"/>
     </g>
     <g id="line2d_16"/>
     <g id="text_8">
      <!-- 2023-04-15 -->
      <g style="fill: #262626" transform="translate(840.442796 523.297812) scale(0.1 -0.1)">
       <use xlink:href="#ArialMT-32"/>
       <use xlink:href="#ArialMT-30" x="55.615234"/>
       <use xlink:href="#ArialMT-32" x="111.230469"/>
       <use xlink:href="#ArialMT-33" x="166.845703"/>
       <use xlink:href="#ArialMT-2d" x="222.460938"/>
       <use xlink:href="#ArialMT-30" x="255.761719"/>
       <use xlink:href="#ArialMT-34" x="311.376953"/>
       <use xlink:href="#ArialMT-2d" x="366.992188"/>
       <use xlink:href="#ArialMT-31" x="400.292969"/>
       <use xlink:href="#ArialMT-35" x="455.908203"/>
      </g>
     </g>
    </g>
    <g id="text_9">
     <!-- Date -->
     <g style="fill: #262626" transform="translate(542.939062 536.443125) scale(0.1 -0.1)">
      <defs>
       <path id="ArialMT-44" d="M 494 0 
L 494 4581 
L 2072 4581 
Q 2606 4581 2888 4516 
Q 3281 4425 3559 4188 
Q 3922 3881 4101 3404 
Q 4281 2928 4281 2316 
Q 4281 1794 4159 1391 
Q 4038 988 3847 723 
Q 3656 459 3429 307 
Q 3203 156 2883 78 
Q 2563 0 2147 0 
L 494 0 
z
M 1100 541 
L 2078 541 
Q 2531 541 2789 625 
Q 3047 709 3200 863 
Q 3416 1078 3536 1442 
Q 3656 1806 3656 2325 
Q 3656 3044 3420 3430 
Q 3184 3816 2847 3947 
Q 2603 4041 2063 4041 
L 1100 4041 
L 1100 541 
z
" transform="scale(0.015625)"/>
       <path id="ArialMT-61" d="M 2588 409 
Q 2275 144 1986 34 
Q 1697 -75 1366 -75 
Q 819 -75 525 192 
Q 231 459 231 875 
Q 231 1119 342 1320 
Q 453 1522 633 1644 
Q 813 1766 1038 1828 
Q 1203 1872 1538 1913 
Q 2219 1994 2541 2106 
Q 2544 2222 2544 2253 
Q 2544 2597 2384 2738 
Q 2169 2928 1744 2928 
Q 1347 2928 1158 2789 
Q 969 2650 878 2297 
L 328 2372 
Q 403 2725 575 2942 
Q 747 3159 1072 3276 
Q 1397 3394 1825 3394 
Q 2250 3394 2515 3294 
Q 2781 3194 2906 3042 
Q 3031 2891 3081 2659 
Q 3109 2516 3109 2141 
L 3109 1391 
Q 3109 606 3145 398 
Q 3181 191 3288 0 
L 2700 0 
Q 2613 175 2588 409 
z
M 2541 1666 
Q 2234 1541 1622 1453 
Q 1275 1403 1131 1340 
Q 988 1278 909 1158 
Q 831 1038 831 891 
Q 831 666 1001 516 
Q 1172 366 1500 366 
Q 1825 366 2078 508 
Q 2331 650 2450 897 
Q 2541 1088 2541 1459 
L 2541 1666 
z
" transform="scale(0.015625)"/>
       <path id="ArialMT-74" d="M 1650 503 
L 1731 6 
Q 1494 -44 1306 -44 
Q 1000 -44 831 53 
Q 663 150 594 308 
Q 525 466 525 972 
L 525 2881 
L 113 2881 
L 113 3319 
L 525 3319 
L 525 4141 
L 1084 4478 
L 1084 3319 
L 1650 3319 
L 1650 2881 
L 1084 2881 
L 1084 941 
Q 1084 700 1114 631 
Q 1144 563 1211 522 
Q 1278 481 1403 481 
Q 1497 481 1650 503 
z
" transform="scale(0.015625)"/>
       <path id="ArialMT-65" d="M 2694 1069 
L 3275 997 
Q 3138 488 2766 206 
Q 2394 -75 1816 -75 
Q 1088 -75 661 373 
Q 234 822 234 1631 
Q 234 2469 665 2931 
Q 1097 3394 1784 3394 
Q 2450 3394 2872 2941 
Q 3294 2488 3294 1666 
Q 3294 1616 3291 1516 
L 816 1516 
Q 847 969 1125 678 
Q 1403 388 1819 388 
Q 2128 388 2347 550 
Q 2566 713 2694 1069 
z
M 847 1978 
L 2700 1978 
Q 2663 2397 2488 2606 
Q 2219 2931 1791 2931 
Q 1403 2931 1139 2672 
Q 875 2413 847 1978 
z
" transform="scale(0.015625)"/>
      </defs>
      <use xlink:href="#ArialMT-44"/>
      <use xlink:href="#ArialMT-61" x="72.216797"/>
      <use xlink:href="#ArialMT-74" x="127.832031"/>
      <use xlink:href="#ArialMT-65" x="155.615234"/>
     </g>
    </g>
   </g>
   <g id="matplotlib.axis_2">
    <g id="ytick_1">
     <g id="line2d_17">
      <path d="M 135 479.54522 
L 972 479.54522 
" clip-path="url(#p8c3b6bb5bb)" style="fill: none; stroke: #cccccc; stroke-width: 0.8; stroke-linecap: round"/>
     </g>
     <g id="line2d_18"/>
     <g id="text_10">
      <!-- 10 -->
      <g style="fill: #262626" transform="translate(120.378125 483.124126) scale(0.1 -0.1)">
       <use xlink:href="#ArialMT-31"/>
       <use xlink:href="#ArialMT-30" x="55.615234"/>
      </g>
     </g>
    </g>
    <g id="ytick_2">
     <g id="line2d_19">
      <path d="M 135 396.208637 
L 972 396.208637 
" clip-path="url(#p8c3b6bb5bb)" style="fill: none; stroke: #cccccc; stroke-width: 0.8; stroke-linecap: round"/>
     </g>
     <g id="line2d_20"/>
     <g id="text_11">
      <!-- 12 -->
      <g style="fill: #262626" transform="translate(120.378125 399.787543) scale(0.1 -0.1)">
       <use xlink:href="#ArialMT-31"/>
       <use xlink:href="#ArialMT-32" x="55.615234"/>
      </g>
     </g>
    </g>
    <g id="ytick_3">
     <g id="line2d_21">
      <path d="M 135 312.872053 
L 972 312.872053 
" clip-path="url(#p8c3b6bb5bb)" style="fill: none; stroke: #cccccc; stroke-width: 0.8; stroke-linecap: round"/>
     </g>
     <g id="line2d_22"/>
     <g id="text_12">
      <!-- 14 -->
      <g style="fill: #262626" transform="translate(120.378125 316.450959) scale(0.1 -0.1)">
       <use xlink:href="#ArialMT-31"/>
       <use xlink:href="#ArialMT-34" x="55.615234"/>
      </g>
     </g>
    </g>
    <g id="ytick_4">
     <g id="line2d_23">
      <path d="M 135 229.535469 
L 972 229.535469 
" clip-path="url(#p8c3b6bb5bb)" style="fill: none; stroke: #cccccc; stroke-width: 0.8; stroke-linecap: round"/>
     </g>
     <g id="line2d_24"/>
     <g id="text_13">
      <!-- 16 -->
      <g style="fill: #262626" transform="translate(120.378125 233.114376) scale(0.1 -0.1)">
       <defs>
        <path id="ArialMT-36" d="M 3184 3459 
L 2625 3416 
Q 2550 3747 2413 3897 
Q 2184 4138 1850 4138 
Q 1581 4138 1378 3988 
Q 1113 3794 959 3422 
Q 806 3050 800 2363 
Q 1003 2672 1297 2822 
Q 1591 2972 1913 2972 
Q 2475 2972 2870 2558 
Q 3266 2144 3266 1488 
Q 3266 1056 3080 686 
Q 2894 316 2569 119 
Q 2244 -78 1831 -78 
Q 1128 -78 684 439 
Q 241 956 241 2144 
Q 241 3472 731 4075 
Q 1159 4600 1884 4600 
Q 2425 4600 2770 4297 
Q 3116 3994 3184 3459 
z
M 888 1484 
Q 888 1194 1011 928 
Q 1134 663 1356 523 
Q 1578 384 1822 384 
Q 2178 384 2434 671 
Q 2691 959 2691 1453 
Q 2691 1928 2437 2201 
Q 2184 2475 1800 2475 
Q 1419 2475 1153 2201 
Q 888 1928 888 1484 
z
" transform="scale(0.015625)"/>
       </defs>
       <use xlink:href="#ArialMT-31"/>
       <use xlink:href="#ArialMT-36" x="55.615234"/>
      </g>
     </g>
    </g>
    <g id="ytick_5">
     <g id="line2d_25">
      <path d="M 135 146.198886 
L 972 146.198886 
" clip-path="url(#p8c3b6bb5bb)" style="fill: none; stroke: #cccccc; stroke-width: 0.8; stroke-linecap: round"/>
     </g>
     <g id="line2d_26"/>
     <g id="text_14">
      <!-- 18 -->
      <g style="fill: #262626" transform="translate(120.378125 149.777792) scale(0.1 -0.1)">
       <defs>
        <path id="ArialMT-38" d="M 1131 2484 
Q 781 2613 612 2850 
Q 444 3088 444 3419 
Q 444 3919 803 4259 
Q 1163 4600 1759 4600 
Q 2359 4600 2725 4251 
Q 3091 3903 3091 3403 
Q 3091 3084 2923 2848 
Q 2756 2613 2416 2484 
Q 2838 2347 3058 2040 
Q 3278 1734 3278 1309 
Q 3278 722 2862 322 
Q 2447 -78 1769 -78 
Q 1091 -78 675 323 
Q 259 725 259 1325 
Q 259 1772 486 2073 
Q 713 2375 1131 2484 
z
M 1019 3438 
Q 1019 3113 1228 2906 
Q 1438 2700 1772 2700 
Q 2097 2700 2305 2904 
Q 2513 3109 2513 3406 
Q 2513 3716 2298 3927 
Q 2084 4138 1766 4138 
Q 1444 4138 1231 3931 
Q 1019 3725 1019 3438 
z
M 838 1322 
Q 838 1081 952 856 
Q 1066 631 1291 507 
Q 1516 384 1775 384 
Q 2178 384 2440 643 
Q 2703 903 2703 1303 
Q 2703 1709 2433 1975 
Q 2163 2241 1756 2241 
Q 1359 2241 1098 1978 
Q 838 1716 838 1322 
z
" transform="scale(0.015625)"/>
       </defs>
       <use xlink:href="#ArialMT-31"/>
       <use xlink:href="#ArialMT-38" x="55.615234"/>
      </g>
     </g>
    </g>
    <g id="text_15">
     <!-- Adj Close -->
     <g style="fill: #262626" transform="translate(114.273438 312.278437) rotate(-90) scale(0.1 -0.1)">
      <defs>
       <path id="ArialMT-41" d="M -9 0 
L 1750 4581 
L 2403 4581 
L 4278 0 
L 3588 0 
L 3053 1388 
L 1138 1388 
L 634 0 
L -9 0 
z
M 1313 1881 
L 2866 1881 
L 2388 3150 
Q 2169 3728 2063 4100 
Q 1975 3659 1816 3225 
L 1313 1881 
z
" transform="scale(0.015625)"/>
       <path id="ArialMT-64" d="M 2575 0 
L 2575 419 
Q 2259 -75 1647 -75 
Q 1250 -75 917 144 
Q 584 363 401 755 
Q 219 1147 219 1656 
Q 219 2153 384 2558 
Q 550 2963 881 3178 
Q 1213 3394 1622 3394 
Q 1922 3394 2156 3267 
Q 2391 3141 2538 2938 
L 2538 4581 
L 3097 4581 
L 3097 0 
L 2575 0 
z
M 797 1656 
Q 797 1019 1065 703 
Q 1334 388 1700 388 
Q 2069 388 2326 689 
Q 2584 991 2584 1609 
Q 2584 2291 2321 2609 
Q 2059 2928 1675 2928 
Q 1300 2928 1048 2622 
Q 797 2316 797 1656 
z
" transform="scale(0.015625)"/>
       <path id="ArialMT-6a" d="M 419 3928 
L 419 4581 
L 981 4581 
L 981 3928 
L 419 3928 
z
M -294 -1288 
L -188 -809 
Q -19 -853 78 -853 
Q 250 -853 334 -739 
Q 419 -625 419 -169 
L 419 3319 
L 981 3319 
L 981 -181 
Q 981 -794 822 -1034 
Q 619 -1347 147 -1347 
Q -81 -1347 -294 -1288 
z
" transform="scale(0.015625)"/>
       <path id="ArialMT-20" transform="scale(0.015625)"/>
       <path id="ArialMT-43" d="M 3763 1606 
L 4369 1453 
Q 4178 706 3683 314 
Q 3188 -78 2472 -78 
Q 1731 -78 1267 223 
Q 803 525 561 1097 
Q 319 1669 319 2325 
Q 319 3041 592 3573 
Q 866 4106 1370 4382 
Q 1875 4659 2481 4659 
Q 3169 4659 3637 4309 
Q 4106 3959 4291 3325 
L 3694 3184 
Q 3534 3684 3231 3912 
Q 2928 4141 2469 4141 
Q 1941 4141 1586 3887 
Q 1231 3634 1087 3207 
Q 944 2781 944 2328 
Q 944 1744 1114 1308 
Q 1284 872 1643 656 
Q 2003 441 2422 441 
Q 2931 441 3284 734 
Q 3638 1028 3763 1606 
z
" transform="scale(0.015625)"/>
       <path id="ArialMT-6c" d="M 409 0 
L 409 4581 
L 972 4581 
L 972 0 
L 409 0 
z
" transform="scale(0.015625)"/>
       <path id="ArialMT-6f" d="M 213 1659 
Q 213 2581 725 3025 
Q 1153 3394 1769 3394 
Q 2453 3394 2887 2945 
Q 3322 2497 3322 1706 
Q 3322 1066 3130 698 
Q 2938 331 2570 128 
Q 2203 -75 1769 -75 
Q 1072 -75 642 372 
Q 213 819 213 1659 
z
M 791 1659 
Q 791 1022 1069 705 
Q 1347 388 1769 388 
Q 2188 388 2466 706 
Q 2744 1025 2744 1678 
Q 2744 2294 2464 2611 
Q 2184 2928 1769 2928 
Q 1347 2928 1069 2612 
Q 791 2297 791 1659 
z
" transform="scale(0.015625)"/>
       <path id="ArialMT-73" d="M 197 991 
L 753 1078 
Q 800 744 1014 566 
Q 1228 388 1613 388 
Q 2000 388 2187 545 
Q 2375 703 2375 916 
Q 2375 1106 2209 1216 
Q 2094 1291 1634 1406 
Q 1016 1563 777 1677 
Q 538 1791 414 1992 
Q 291 2194 291 2438 
Q 291 2659 392 2848 
Q 494 3038 669 3163 
Q 800 3259 1026 3326 
Q 1253 3394 1513 3394 
Q 1903 3394 2198 3281 
Q 2494 3169 2634 2976 
Q 2775 2784 2828 2463 
L 2278 2388 
Q 2241 2644 2061 2787 
Q 1881 2931 1553 2931 
Q 1166 2931 1000 2803 
Q 834 2675 834 2503 
Q 834 2394 903 2306 
Q 972 2216 1119 2156 
Q 1203 2125 1616 2013 
Q 2213 1853 2448 1751 
Q 2684 1650 2818 1456 
Q 2953 1263 2953 975 
Q 2953 694 2789 445 
Q 2625 197 2315 61 
Q 2006 -75 1616 -75 
Q 969 -75 630 194 
Q 291 463 197 991 
z
" transform="scale(0.015625)"/>
      </defs>
      <use xlink:href="#ArialMT-41"/>
      <use xlink:href="#ArialMT-64" x="66.699219"/>
      <use xlink:href="#ArialMT-6a" x="122.314453"/>
      <use xlink:href="#ArialMT-20" x="144.53125"/>
      <use xlink:href="#ArialMT-43" x="172.314453"/>
      <use xlink:href="#ArialMT-6c" x="244.53125"/>
      <use xlink:href="#ArialMT-6f" x="266.748047"/>
      <use xlink:href="#ArialMT-73" x="322.363281"/>
      <use xlink:href="#ArialMT-65" x="372.363281"/>
     </g>
    </g>
   </g>
   <g id="line2d_27">
    <path d="M 173.045455 368.836736 
L 179.839286 369.128416 
L 186.633117 319.793153 
L 193.426948 314.213769 
L 213.808442 315.20131 
L 220.602273 306.821818 
L 227.396104 283.762584 
L 234.189935 282.183356 
L 240.983766 154.682548 
L 268.159091 133.585889 
L 274.952922 118.343631 
L 281.746753 108.193239 
L 288.540584 111.501698 
L 308.922078 119.631181 
L 315.715909 133.827566 
L 322.50974 162.066173 
L 329.303571 126.073099 
L 336.097403 130.614939 
L 356.478896 125.085559 
L 363.272727 157.615995 
L 370.066558 136.740179 
L 376.86039 127.506487 
L 383.654221 125.235565 
L 404.035714 120.835393 
L 410.829545 118.981154 
L 417.623377 111.13502 
L 424.417208 107.722389 
L 431.211039 111.630869 
L 451.592532 119.531179 
L 458.386364 120.268708 
L 465.180195 116.935242 
L 471.974026 121.281243 
L 478.767857 121.039568 
L 505.943182 125.181396 
L 512.737013 166.966362 
L 519.530844 203.930304 
L 526.324675 198.525926 
L 546.706169 222.860211 
L 553.5 237.585786 
L 560.293831 224.968625 
L 567.087662 184.587884 
L 573.881494 146.961414 
L 594.262987 137.031861 
L 601.056818 135.969319 
L 607.850649 131.860824 
L 614.644481 125.843925 
L 621.438312 177.641781 
L 641.819805 228.043747 
L 648.613636 275.141416 
L 655.407468 289.441973 
L 662.201299 316.897208 
L 668.99513 318.272262 
L 689.376623 316.251347 
L 696.170455 323.75581 
L 702.964286 320.393178 
L 709.758117 319.418141 
L 716.551948 317.855579 
L 736.933442 325.126698 
L 743.727273 323.993319 
L 750.521104 320.634855 
L 757.314935 320.409845 
L 764.108766 315.063804 
L 784.49026 297.325613 
L 791.284091 315.076302 
L 798.077922 319.488975 
L 804.871753 318.409767 
L 832.047078 321.072369 
L 838.840909 315.717993 
L 845.63474 317.263889 
L 852.428571 358.290489 
L 859.222403 355.290373 
L 879.603896 360.365573 
L 886.397727 363.490693 
L 893.191558 358.773842 
L 899.98539 320.376509 
L 906.779221 361.198935 
L 927.160714 327.789299 
L 933.954545 358.207154 
" clip-path="url(#p8c3b6bb5bb)" style="fill: none; stroke: #1f77b4; stroke-width: 1.5; stroke-linecap: round"/>
   </g>
   <g id="line2d_28">
    <path d="M 173.045455 366.950342 
L 179.839286 369.989477 
L 186.633117 331.800897 
L 193.426948 323.990274 
L 213.808442 312.40293 
L 220.602273 305.250527 
L 227.396104 293.847319 
L 234.189935 293.484505 
L 240.983766 235.786608 
L 268.159091 224.307783 
L 274.952922 202.448631 
L 281.746753 212.031979 
L 288.540584 215.035448 
L 308.922078 229.017693 
L 315.715909 229.391843 
L 322.50974 250.740402 
L 329.303571 232.512118 
L 336.097403 229.493515 
L 356.478896 208.944544 
L 363.272727 247.240292 
L 370.066558 234.831065 
L 376.86039 234.082242 
L 383.654221 186.830798 
L 404.035714 193.479984 
L 410.829545 214.306027 
L 417.623377 197.219144 
L 424.417208 186.900208 
L 431.211039 173.397497 
L 451.592532 224.801413 
L 458.386364 220.294805 
L 465.180195 178.049507 
L 471.974026 204.002405 
L 478.767857 199.436167 
L 505.943182 228.363598 
L 512.737013 232.508883 
L 519.530844 247.006177 
L 526.324675 251.575616 
L 546.706169 234.247101 
L 553.5 239.933655 
L 560.293831 251.589732 
L 567.087662 248.024451 
L 573.881494 241.474674 
L 594.262987 242.66741 
L 601.056818 242.157972 
L 607.850649 238.020867 
L 614.644481 208.565368 
L 621.438312 250.149551 
L 641.819805 266.574798 
L 648.613636 297.340681 
L 655.407468 297.890963 
L 662.201299 320.776018 
L 668.99513 318.101726 
L 689.376623 322.258024 
L 696.170455 326.269219 
L 702.964286 323.210932 
L 709.758117 322.405986 
L 716.551948 331.416899 
L 736.933442 329.44515 
L 743.727273 324.830853 
L 750.521104 320.721736 
L 757.314935 318.56112 
L 764.108766 318.596635 
L 784.49026 300.6053 
L 791.284091 319.617315 
L 798.077922 316.570375 
L 804.871753 325.421136 
L 832.047078 313.807842 
L 838.840909 316.75734 
L 845.63474 313.763759 
L 852.428571 359.401499 
L 859.222403 356.240003 
L 879.603896 367.921708 
L 886.397727 358.100784 
L 893.191558 350.225686 
L 899.98539 329.950477 
L 906.779221 347.378624 
L 927.160714 330.063572 
L 933.954545 349.503424 
" clip-path="url(#p8c3b6bb5bb)" style="fill: none; stroke: #ff7f0e; stroke-width: 1.5; stroke-linecap: round"/>
   </g>
   <g id="line2d_29">
    <path d="M 173.045455 331.975539 
L 179.839286 374.382006 
L 186.633117 315.508197 
L 193.426948 396.031386 
L 213.808442 315.460087 
L 220.602273 360.740928 
L 227.396104 191.212978 
L 234.189935 269.567423 
L 240.983766 247.315574 
L 268.159091 227.603393 
L 274.952922 238.721341 
L 281.746753 182.007322 
L 288.540584 217.403254 
L 308.922078 207.521342 
L 315.715909 206.523194 
L 322.50974 218.49373 
L 329.303571 265.549085 
L 336.097403 328.060585 
L 356.478896 303.088851 
L 363.272727 343.823883 
L 370.066558 334.219709 
L 376.86039 214.293413 
L 383.654221 341.13012 
L 404.035714 249.339396 
L 410.829545 325.495381 
L 417.623377 238.20885 
L 424.417208 273.659346 
L 431.211039 160.929248 
L 451.592532 247.921962 
L 458.386364 129.528534 
L 465.180195 215.246324 
L 471.974026 255.284231 
L 478.767857 331.889379 
L 505.943182 262.098368 
L 512.737013 301.480312 
L 519.530844 235.315757 
L 526.324675 335.446581 
L 546.706169 148.347585 
L 553.5 295.429265 
L 560.293831 225.377354 
L 567.087662 282.872417 
L 573.881494 229.83836 
L 594.262987 345.607956 
L 601.056818 240.886465 
L 607.850649 277.644611 
L 614.644481 211.281118 
L 621.438312 198.952853 
L 641.819805 340.534339 
L 648.613636 321.197378 
L 655.407468 381.358991 
L 662.201299 283.939908 
L 668.99513 335.779834 
L 689.376623 272.747109 
L 696.170455 332.530361 
L 702.964286 313.982445 
L 709.758117 277.609339 
L 716.551948 354.204292 
L 736.933442 346.289729 
L 743.727273 408.251117 
L 750.521104 282.425673 
L 757.314935 381.93708 
L 764.108766 283.839659 
L 784.49026 326.65481 
L 791.284091 361.978358 
L 798.077922 322.072351 
L 804.871753 427.15672 
L 832.047078 298.150721 
L 838.840909 354.040188 
L 845.63474 315.460907 
L 852.428571 492.48 
L 859.222403 411.956708 
L 879.603896 389.181799 
L 886.397727 369.769861 
L 893.191558 279.376451 
L 899.98539 322.665095 
L 906.779221 421.951635 
L 927.160714 359.432902 
L 933.954545 410.685439 
" clip-path="url(#p8c3b6bb5bb)" style="fill: none; stroke: #2ca02c; stroke-width: 1.5; stroke-linecap: round"/>
   </g>
   <g id="line2d_30">
    <path d="M 173.045455 352.456922 
L 179.839286 382.874796 
L 186.633117 304.538403 
L 193.426948 314.122091 
L 213.808442 314.122091 
L 220.602273 309.1219 
L 227.396104 341.206504 
L 234.189935 341.206504 
L 240.983766 251.619653 
L 268.159091 251.619653 
L 274.952922 205.784556 
L 281.746753 205.784556 
L 288.540584 205.784556 
L 308.922078 205.784556 
L 315.715909 153.699191 
L 322.50974 250.786308 
L 329.303571 251.619653 
L 336.097403 272.870491 
L 356.478896 272.870491 
L 363.272727 205.784556 
L 370.066558 272.870491 
L 376.86039 272.870491 
L 383.654221 251.619653 
L 404.035714 205.784556 
L 410.829545 205.784556 
L 417.623377 205.784556 
L 424.417208 205.784556 
L 431.211039 205.784556 
L 451.592532 205.784556 
L 458.386364 205.784556 
L 465.180195 251.619653 
L 471.974026 205.784556 
L 478.767857 205.784556 
L 505.943182 205.784556 
L 512.737013 153.699191 
L 519.530844 153.699191 
L 526.324675 251.619653 
L 546.706169 168.699802 
L 553.5 251.619653 
L 560.293831 251.619653 
L 567.087662 251.619653 
L 573.881494 251.619653 
L 594.262987 272.870491 
L 601.056818 153.699191 
L 607.850649 251.619653 
L 614.644481 251.619653 
L 621.438312 251.619653 
L 641.819805 287.037717 
L 648.613636 287.037717 
L 655.407468 341.206504 
L 662.201299 340.789812 
L 668.99513 340.789812 
L 689.376623 340.789812 
L 696.170455 340.789812 
L 702.964286 353.290307 
L 709.758117 353.290307 
L 716.551948 340.789812 
L 736.933442 340.789812 
L 743.727273 340.789812 
L 750.521104 353.290307 
L 757.314935 317.455551 
L 764.108766 326.205894 
L 784.49026 287.037717 
L 791.284091 290.371177 
L 798.077922 326.205894 
L 804.871753 317.455551 
L 832.047078 336.622967 
L 838.840909 308.705208 
L 845.63474 336.622967 
L 852.428571 349.956847 
L 859.222403 317.872243 
L 879.603896 374.124453 
L 886.397727 389.541716 
L 893.191558 367.874185 
L 899.98539 311.622015 
L 906.779221 349.956847 
L 927.160714 311.622015 
L 933.954545 372.874376 
" clip-path="url(#p8c3b6bb5bb)" style="fill: none; stroke: #d62728; stroke-width: 1.5; stroke-linecap: round"/>
   </g>
   <g id="line2d_31">
    <path d="M 173.045455 338.049663 
L 179.839286 338.407035 
L 186.633117 336.68697 
L 193.426948 334.161318 
L 213.808442 331.407828 
L 220.602273 327.990534 
L 227.396104 323.248306 
L 234.189935 318.739733 
L 240.983766 310.773549 
L 268.159091 303.138292 
L 274.952922 296.235732 
L 281.746753 291.340003 
L 288.540584 288.017642 
L 308.922078 284.73466 
L 315.715909 282.442142 
L 322.50974 280.712382 
L 329.303571 278.543241 
L 336.097403 275.725486 
L 356.478896 273.704061 
L 363.272727 273.15633 
L 370.066558 272.186485 
L 376.86039 269.579458 
L 383.654221 265.72287 
L 404.035714 262.233805 
L 410.829545 259.112142 
L 417.623377 255.953896 
L 424.417208 252.963621 
L 431.211039 250.773143 
L 451.592532 249.792488 
L 458.386364 248.489183 
L 465.180195 246.510239 
L 471.974026 244.881897 
L 478.767857 244.935084 
L 505.943182 245.315945 
L 512.737013 247.709563 
L 519.530844 250.347241 
L 526.324675 251.690484 
L 546.706169 253.920523 
L 553.5 255.795356 
L 560.293831 256.382658 
L 567.087662 256.633541 
L 573.881494 256.584821 
L 594.262987 255.931689 
L 601.056818 255.799284 
L 607.850649 255.005818 
L 614.644481 253.6408 
L 621.438312 254.386002 
L 641.819805 256.385066 
L 648.613636 259.855884 
L 655.407468 263.456565 
L 662.201299 268.976639 
L 668.99513 273.481508 
L 689.376623 277.909581 
L 696.170455 282.074403 
L 702.964286 284.817327 
L 709.758117 288.726532 
L 716.551948 292.789595 
L 736.933442 296.146958 
L 743.727273 298.168844 
L 750.521104 299.637754 
L 757.314935 300.027584 
L 764.108766 299.648296 
L 784.49026 298.67479 
L 791.284091 298.759117 
L 798.077922 299.45847 
L 804.871753 301.066774 
L 832.047078 302.310715 
L 838.840909 303.093477 
L 845.63474 303.536935 
L 852.428571 307.825606 
L 859.222403 311.868291 
L 879.603896 316.036104 
L 886.397727 318.897649 
L 893.191558 320.835688 
L 899.98539 321.658633 
L 906.779221 323.084652 
L 927.160714 323.99122 
L 933.954545 324.894725 
" clip-path="url(#p8c3b6bb5bb)" style="fill: none; stroke: #9467bd; stroke-width: 1.5; stroke-linecap: round"/>
   </g>
   <g id="line2d_32">
    <path d="M 173.045455 371.374338 
L 179.839286 376.874552 
L 186.633117 376.874552 
L 193.426948 363.124019 
L 213.808442 337.289675 
L 220.602273 329.039355 
L 227.396104 321.539057 
L 234.189935 316.622198 
L 240.983766 314.372106 
L 268.159091 313.372068 
L 274.952922 317.205551 
L 281.746753 301.954957 
L 288.540584 307.371832 
L 308.922078 313.955422 
L 315.715909 313.955422 
L 322.50974 321.205703 
L 329.303571 320.955696 
L 336.097403 311.872007 
L 356.478896 317.622236 
L 363.272727 317.455567 
L 370.066558 315.538829 
L 376.86039 318.122259 
L 383.654221 274.453883 
L 404.035714 168.199739 
L 410.829545 119.447834 
L 417.623377 119.447834 
L 424.417208 119.447834 
L 431.211039 119.447834 
L 451.592532 99.863734 
L 458.386364 99.863734 
L 465.180195 99.863734 
L 471.974026 99.863734 
L 478.767857 89.28 
L 505.943182 89.28 
L 512.737013 136.615182 
L 519.530844 342.456542 
L 526.324675 342.456542 
L 546.706169 357.207121 
L 553.5 357.207121 
L 560.293831 357.207121 
L 567.087662 357.207121 
L 573.881494 357.207121 
L 594.262987 357.207121 
L 601.056818 357.207121 
L 607.850649 359.457212 
L 614.644481 291.204546 
L 621.438312 291.204546 
L 641.819805 291.204546 
L 648.613636 314.872129 
L 655.407468 342.456542 
L 662.201299 357.207121 
L 668.99513 359.540543 
L 689.376623 358.290489 
L 696.170455 361.040604 
L 702.964286 346.54004 
L 709.758117 346.54004 
L 716.551948 341.373165 
L 736.933442 337.539682 
L 743.727273 338.123044 
L 750.521104 340.623135 
L 757.314935 347.040048 
L 764.108766 337.956359 
L 784.49026 316.372182 
L 791.284091 311.205315 
L 798.077922 311.205315 
L 804.871753 313.372068 
L 832.047078 310.955307 
L 838.840909 317.622236 
L 845.63474 330.622746 
L 852.428571 343.45658 
L 859.222403 363.04068 
L 879.603896 377.207898 
L 886.397727 378.874628 
L 893.191558 382.458096 
L 899.98539 376.124521 
L 906.779221 374.124445 
L 927.160714 374.54113 
L 933.954545 372.957738 
" clip-path="url(#p8c3b6bb5bb)" style="fill: none; stroke: #8c564b; stroke-width: 1.5; stroke-linecap: round"/>
   </g>
   <g id="line2d_33">
    <path d="M 173.045455 375.658061 
L 179.839286 371.934692 
L 186.633117 365.2483 
L 193.426948 342.883208 
L 213.808442 343.96432 
L 220.602273 343.167772 
L 227.396104 325.752324 
L 234.189935 308.040551 
L 240.983766 276.461255 
L 268.159091 261.362412 
L 274.952922 247.859606 
L 281.746753 250.155308 
L 288.540584 257.893525 
L 308.922078 254.951683 
L 315.715909 260.990743 
L 322.50974 266.028962 
L 329.303571 254.842999 
L 336.097403 256.322444 
L 356.478896 245.114665 
L 363.272727 244.142634 
L 370.066558 253.291748 
L 376.86039 254.551084 
L 383.654221 248.215618 
L 404.035714 239.064597 
L 410.829545 247.569399 
L 417.623377 250.145294 
L 424.417208 236.302291 
L 431.211039 230.017014 
L 451.592532 240.897114 
L 458.386364 237.915136 
L 465.180195 234.767372 
L 471.974026 227.765142 
L 478.767857 225.323005 
L 505.943182 231.668882 
L 512.737013 236.505948 
L 519.530844 241.00095 
L 526.324675 239.529174 
L 546.706169 244.752493 
L 553.5 243.043601 
L 560.293831 252.807779 
L 567.087662 248.500659 
L 573.881494 247.143329 
L 594.262987 250.135201 
L 601.056818 257.85947 
L 607.850649 258.281844 
L 614.644481 250.191748 
L 621.438312 256.233749 
L 641.819805 265.271795 
L 648.613636 304.359065 
L 655.407468 328.739428 
L 662.201299 343.672087 
L 668.99513 350.224045 
L 689.376623 360.439806 
L 696.170455 364.435539 
L 702.964286 359.228075 
L 709.758117 362.710593 
L 716.551948 361.466118 
L 736.933442 367.495641 
L 743.727273 361.849709 
L 750.521104 355.974965 
L 757.314935 356.305029 
L 764.108766 337.901258 
L 784.49026 338.533251 
L 791.284091 348.607464 
L 798.077922 353.627285 
L 804.871753 356.642126 
L 832.047078 358.382093 
L 838.840909 358.189483 
L 845.63474 354.234283 
L 852.428571 374.599401 
L 859.222403 373.836392 
L 879.603896 384.154955 
L 886.397727 379.959499 
L 893.191558 376.245945 
L 899.98539 368.401508 
L 906.779221 359.968791 
L 927.160714 356.009299 
L 933.954545 365.39084 
" clip-path="url(#p8c3b6bb5bb)" style="fill: none; stroke: #e377c2; stroke-width: 1.5; stroke-linecap: round"/>
   </g>
   <g id="line2d_34">
    <path d="M 173.045455 373.800298 
L 179.839286 367.033939 
L 186.633117 336.744786 
L 193.426948 327.657682 
L 213.808442 314.408847 
L 220.602273 307.533515 
L 227.396104 278.768999 
L 234.189935 275.15841 
L 240.983766 231.000905 
L 268.159091 212.040641 
L 274.952922 205.578245 
L 281.746753 217.298595 
L 288.540584 227.370197 
L 308.922078 229.189661 
L 315.715909 238.836747 
L 322.50974 247.85926 
L 329.303571 232.755989 
L 336.097403 227.071471 
L 356.478896 231.947129 
L 363.272727 256.435535 
L 370.066558 250.847767 
L 376.86039 224.810407 
L 383.654221 212.436157 
L 404.035714 204.578827 
L 410.829545 202.827369 
L 417.623377 190.08482 
L 424.417208 196.571461 
L 431.211039 200.553592 
L 451.592532 210.125119 
L 458.386364 208.742325 
L 465.180195 191.766253 
L 471.974026 194.544751 
L 478.767857 207.215617 
L 505.943182 212.79537 
L 512.737013 244.269318 
L 519.530844 260.4826 
L 526.324675 252.931261 
L 546.706169 254.138462 
L 553.5 257.55166 
L 560.293831 246.980737 
L 567.087662 245.406742 
L 573.881494 241.764202 
L 594.262987 241.690263 
L 601.056818 241.619168 
L 607.850649 234.081376 
L 614.644481 225.932282 
L 621.438312 241.731591 
L 641.819805 262.835126 
L 648.613636 282.565444 
L 655.407468 294.808618 
L 662.201299 317.778094 
L 668.99513 320.436959 
L 689.376623 318.992878 
L 696.170455 326.238818 
L 702.964286 319.20589 
L 709.758117 331.849417 
L 716.551948 345.872561 
L 736.933442 344.104503 
L 743.727273 340.420291 
L 750.521104 325.806432 
L 757.314935 317.810902 
L 764.108766 302.436894 
L 784.49026 295.063371 
L 791.284091 308.43708 
L 798.077922 309.301704 
L 804.871753 323.365715 
L 832.047078 317.675283 
L 838.840909 316.00764 
L 845.63474 312.40588 
L 852.428571 354.11228 
L 859.222403 361.584189 
L 879.603896 375.494711 
L 886.397727 366.926986 
L 893.191558 352.874949 
L 899.98539 344.311706 
L 906.779221 353.68778 
L 927.160714 347.819657 
L 933.954545 352.382195 
" clip-path="url(#p8c3b6bb5bb)" style="fill: none; stroke: #7f7f7f; stroke-width: 1.5; stroke-linecap: round"/>
   </g>
   <g id="line2d_35">
    <path d="M 173.045455 353.001755 
L 179.839286 351.362736 
L 186.633117 335.286981 
L 193.426948 320.175413 
L 213.808442 309.854992 
L 220.602273 297.767359 
L 227.396104 281.684775 
L 234.189935 271.52278 
L 240.983766 240.093248 
L 268.159091 221.829114 
L 274.952922 212.88327 
L 281.746753 217.618582 
L 288.540584 226.784201 
L 308.922078 229.972435 
L 315.715909 234.342687 
L 322.50974 239.03774 
L 329.303571 236.858028 
L 336.097403 229.160317 
L 356.478896 228.705421 
L 363.272727 237.413304 
L 370.066558 238.44971 
L 376.86039 228.526565 
L 383.654221 216.80159 
L 404.035714 212.279521 
L 410.829545 212.426913 
L 417.623377 211.931358 
L 424.417208 211.472074 
L 431.211039 216.94545 
L 451.592532 226.616686 
L 458.386364 226.939609 
L 465.180195 221.563942 
L 471.974026 218.671505 
L 478.767857 225.030873 
L 505.943182 228.809807 
L 512.737013 242.611002 
L 519.530844 251.476553 
L 526.324675 249.728008 
L 546.706169 254.059243 
L 553.5 254.91802 
L 560.293831 248.920924 
L 567.087662 244.879336 
L 573.881494 241.495351 
L 594.262987 235.737777 
L 601.056818 237.379555 
L 607.850649 234.01029 
L 614.644481 228.215744 
L 621.438312 238.38003 
L 641.819805 251.277783 
L 648.613636 268.436978 
L 655.407468 279.574155 
L 662.201299 298.98933 
L 668.99513 303.217892 
L 689.376623 307.118878 
L 696.170455 308.999749 
L 702.964286 302.383863 
L 709.758117 309.086555 
L 716.551948 315.951768 
L 736.933442 317.588731 
L 743.727273 313.933681 
L 750.521104 311.346616 
L 757.314935 303.549679 
L 764.108766 297.650405 
L 784.49026 289.900845 
L 791.284091 292.459271 
L 798.077922 298.734056 
L 804.871753 306.69988 
L 832.047078 308.096669 
L 838.840909 305.910556 
L 845.63474 301.673809 
L 852.428571 323.80855 
L 859.222403 335.647503 
L 879.603896 343.613302 
L 886.397727 341.051913 
L 893.191558 336.171366 
L 899.98539 327.67762 
L 906.779221 329.329084 
L 927.160714 328.992885 
L 933.954545 330.297083 
" clip-path="url(#p8c3b6bb5bb)" style="fill: none; stroke: #bcbd22; stroke-width: 1.5; stroke-linecap: round"/>
   </g>
   <g id="line2d_36">
    <path d="M 465.180195 175.706164 
L 471.974026 174.30389 
L 478.767857 174.507587 
L 505.943182 174.731789 
L 512.737013 179.247851 
L 519.530844 182.855662 
L 526.324675 185.547115 
L 546.706169 190.00977 
L 553.5 195.561563 
L 560.293831 197.662192 
L 567.087662 197.915164 
L 573.881494 197.659172 
L 594.262987 194.099682 
L 601.056818 192.212844 
L 607.850649 188.926751 
L 614.644481 184.836918 
L 621.438312 183.438141 
L 641.819805 185.478925 
L 648.613636 190.325369 
L 655.407468 196.756405 
L 662.201299 208.499773 
L 668.99513 219.114184 
L 689.376623 231.581816 
L 696.170455 243.942871 
L 702.964286 251.275959 
L 709.758117 260.771946 
L 716.551948 267.794719 
L 736.933442 272.460276 
L 743.727273 274.116436 
L 750.521104 275.60967 
L 757.314935 273.045974 
L 764.108766 270.120107 
L 784.49026 265.97778 
L 791.284091 262.763891 
L 798.077922 262.315965 
L 804.871753 263.274445 
L 832.047078 265.727629 
L 838.840909 267.954506 
L 845.63474 270.223266 
L 852.428571 276.963146 
L 859.222403 288.802838 
L 879.603896 300.41972 
L 886.397727 309.031457 
L 893.191558 314.813094 
L 899.98539 317.410051 
L 906.779221 319.704601 
L 927.160714 319.8686 
L 933.954545 317.206831 
" clip-path="url(#p8c3b6bb5bb)" style="fill: none; stroke: #17becf; stroke-width: 1.5; stroke-linecap: round"/>
   </g>
   <g id="line2d_37">
    <path d="M 465.180195 234.147777 
L 471.974026 229.958838 
L 478.767857 236.311192 
L 505.943182 240.72338 
L 512.737013 244.11597 
L 519.530844 259.916665 
L 526.324675 266.438224 
L 546.706169 268.112067 
L 553.5 274.710241 
L 560.293831 277.513358 
L 567.087662 269.047817 
L 573.881494 266.669737 
L 594.262987 261.463267 
L 601.056818 255.042643 
L 607.850649 254.611883 
L 614.644481 250.894951 
L 621.438312 246.371259 
L 641.819805 259.260511 
L 648.613636 273.809937 
L 655.407468 288.603274 
L 662.201299 308.9976 
L 668.99513 329.959066 
L 689.376623 339.218572 
L 696.170455 341.570266 
L 702.964286 349.395151 
L 709.758117 340.915384 
L 716.551948 346.668251 
L 736.933442 356.294936 
L 743.727273 355.71492 
L 750.521104 352.747129 
L 757.314935 349.339994 
L 764.108766 340.971653 
L 784.49026 331.324145 
L 791.284091 327.367355 
L 798.077922 329.886028 
L 804.871753 336.087219 
L 832.047078 339.582254 
L 838.840909 341.131002 
L 845.63474 342.567689 
L 852.428571 337.660287 
L 859.222403 368.291434 
L 879.603896 380.202496 
L 886.397727 386.133867 
L 893.191558 383.839475 
L 899.98539 378.588181 
L 906.779221 375.516355 
L 927.160714 375.310036 
L 933.954545 375.206479 
" clip-path="url(#p8c3b6bb5bb)" style="fill: none; stroke: #1f77b4; stroke-width: 1.5; stroke-linecap: round"/>
   </g>
   <g id="line2d_38">
    <path d="M 173.045455 365.37411 
L 179.839286 329.956046 
L 186.633117 313.288745 
L 193.426948 305.371748 
L 213.808442 287.454409 
L 220.602273 263.286803 
L 227.396104 257.036536 
L 234.189935 194.95079 
L 240.983766 187.033793 
L 268.159091 184.533718 
L 274.952922 202.867788 
L 281.746753 217.868319 
L 288.540584 215.368244 
L 308.922078 222.451857 
L 315.715909 228.702085 
L 322.50974 218.701704 
L 329.303571 204.117786 
L 336.097403 211.618091 
L 356.478896 231.2022 
L 363.272727 223.701934 
L 370.066558 200.784326 
L 376.86039 185.367102 
L 383.654221 187.033793 
L 404.035714 191.200638 
L 410.829545 189.533948 
L 417.623377 189.117255 
L 424.417208 202.034403 
L 431.211039 217.868319 
L 451.592532 208.284631 
L 458.386364 196.617481 
L 465.180195 196.200868 
L 471.974026 213.284861 
L 478.767857 214.534859 
L 505.943182 242.452657 
L 512.737013 247.8695 
L 519.530844 234.952352 
L 526.324675 247.8695 
L 546.706169 244.952733 
L 553.5 230.368854 
L 560.293831 228.285392 
L 567.087662 224.535239 
L 573.881494 214.534859 
L 594.262987 224.535239 
L 601.056818 214.534859 
L 607.850649 204.951171 
L 614.644481 234.53566 
L 621.438312 252.036345 
L 641.819805 277.453989 
L 648.613636 285.370987 
L 655.407468 318.705628 
L 662.201299 307.871863 
L 668.99513 313.705438 
L 689.376623 314.538783 
L 696.170455 297.45479 
L 702.964286 320.372358 
L 709.758117 328.289316 
L 716.551948 324.539164 
L 736.933442 315.372168 
L 743.727273 313.705438 
L 750.521104 298.288135 
L 757.314935 293.287945 
L 764.108766 281.620834 
L 784.49026 295.371367 
L 791.284091 306.205133 
L 798.077922 317.455551 
L 804.871753 312.455361 
L 832.047078 306.621825 
L 838.840909 299.538212 
L 845.63474 354.540345 
L 852.428571 356.623767 
L 859.222403 363.290688 
L 879.603896 350.3735 
L 886.397727 342.456542 
L 893.191558 328.289316 
L 899.98539 341.206504 
L 906.779221 337.873044 
L 927.160714 341.206504 
L 933.954545 361.207265 
" clip-path="url(#p8c3b6bb5bb)" style="fill: none; stroke: #000000; stroke-width: 2; stroke-linecap: round"/>
   </g>
   <g id="patch_3">
    <path d="M 135 512.64 
L 135 69.12 
" style="fill: none; stroke: #cccccc; stroke-linejoin: miter; stroke-linecap: square"/>
   </g>
   <g id="patch_4">
    <path d="M 972 512.64 
L 972 69.12 
" style="fill: none; stroke: #cccccc; stroke-linejoin: miter; stroke-linecap: square"/>
   </g>
   <g id="patch_5">
    <path d="M 135 512.64 
L 972 512.64 
" style="fill: none; stroke: #cccccc; stroke-linejoin: miter; stroke-linecap: square"/>
   </g>
   <g id="patch_6">
    <path d="M 135 69.12 
L 972 69.12 
" style="fill: none; stroke: #cccccc; stroke-linejoin: miter; stroke-linecap: square"/>
   </g>
   <g id="text_16">
    <!-- Tahminler ve Gerçek Değerler -->
    <g style="fill: #262626" transform="translate(473.811563 63.12) scale(0.12 -0.12)">
     <defs>
      <path id="ArialMT-54" d="M 1659 0 
L 1659 4041 
L 150 4041 
L 150 4581 
L 3781 4581 
L 3781 4041 
L 2266 4041 
L 2266 0 
L 1659 0 
z
" transform="scale(0.015625)"/>
      <path id="ArialMT-68" d="M 422 0 
L 422 4581 
L 984 4581 
L 984 2938 
Q 1378 3394 1978 3394 
Q 2347 3394 2619 3248 
Q 2891 3103 3008 2847 
Q 3125 2591 3125 2103 
L 3125 0 
L 2563 0 
L 2563 2103 
Q 2563 2525 2380 2717 
Q 2197 2909 1863 2909 
Q 1613 2909 1392 2779 
Q 1172 2650 1078 2428 
Q 984 2206 984 1816 
L 984 0 
L 422 0 
z
" transform="scale(0.015625)"/>
      <path id="ArialMT-6d" d="M 422 0 
L 422 3319 
L 925 3319 
L 925 2853 
Q 1081 3097 1340 3245 
Q 1600 3394 1931 3394 
Q 2300 3394 2536 3241 
Q 2772 3088 2869 2813 
Q 3263 3394 3894 3394 
Q 4388 3394 4653 3120 
Q 4919 2847 4919 2278 
L 4919 0 
L 4359 0 
L 4359 2091 
Q 4359 2428 4304 2576 
Q 4250 2725 4106 2815 
Q 3963 2906 3769 2906 
Q 3419 2906 3187 2673 
Q 2956 2441 2956 1928 
L 2956 0 
L 2394 0 
L 2394 2156 
Q 2394 2531 2256 2718 
Q 2119 2906 1806 2906 
Q 1569 2906 1367 2781 
Q 1166 2656 1075 2415 
Q 984 2175 984 1722 
L 984 0 
L 422 0 
z
" transform="scale(0.015625)"/>
      <path id="ArialMT-69" d="M 425 3934 
L 425 4581 
L 988 4581 
L 988 3934 
L 425 3934 
z
M 425 0 
L 425 3319 
L 988 3319 
L 988 0 
L 425 0 
z
" transform="scale(0.015625)"/>
      <path id="ArialMT-6e" d="M 422 0 
L 422 3319 
L 928 3319 
L 928 2847 
Q 1294 3394 1984 3394 
Q 2284 3394 2536 3286 
Q 2788 3178 2913 3003 
Q 3038 2828 3088 2588 
Q 3119 2431 3119 2041 
L 3119 0 
L 2556 0 
L 2556 2019 
Q 2556 2363 2490 2533 
Q 2425 2703 2258 2804 
Q 2091 2906 1866 2906 
Q 1506 2906 1245 2678 
Q 984 2450 984 1813 
L 984 0 
L 422 0 
z
" transform="scale(0.015625)"/>
      <path id="ArialMT-72" d="M 416 0 
L 416 3319 
L 922 3319 
L 922 2816 
Q 1116 3169 1280 3281 
Q 1444 3394 1641 3394 
Q 1925 3394 2219 3213 
L 2025 2691 
Q 1819 2813 1613 2813 
Q 1428 2813 1281 2702 
Q 1134 2591 1072 2394 
Q 978 2094 978 1738 
L 978 0 
L 416 0 
z
" transform="scale(0.015625)"/>
      <path id="ArialMT-76" d="M 1344 0 
L 81 3319 
L 675 3319 
L 1388 1331 
Q 1503 1009 1600 663 
Q 1675 925 1809 1294 
L 2547 3319 
L 3125 3319 
L 1869 0 
L 1344 0 
z
" transform="scale(0.015625)"/>
      <path id="ArialMT-47" d="M 2638 1797 
L 2638 2334 
L 4578 2338 
L 4578 638 
Q 4131 281 3656 101 
Q 3181 -78 2681 -78 
Q 2006 -78 1454 211 
Q 903 500 622 1047 
Q 341 1594 341 2269 
Q 341 2938 620 3517 
Q 900 4097 1425 4378 
Q 1950 4659 2634 4659 
Q 3131 4659 3532 4498 
Q 3934 4338 4162 4050 
Q 4391 3763 4509 3300 
L 3963 3150 
Q 3859 3500 3706 3700 
Q 3553 3900 3268 4020 
Q 2984 4141 2638 4141 
Q 2222 4141 1919 4014 
Q 1616 3888 1430 3681 
Q 1244 3475 1141 3228 
Q 966 2803 966 2306 
Q 966 1694 1177 1281 
Q 1388 869 1791 669 
Q 2194 469 2647 469 
Q 3041 469 3416 620 
Q 3791 772 3984 944 
L 3984 1797 
L 2638 1797 
z
" transform="scale(0.015625)"/>
      <path id="ArialMT-e7" d="M 2588 1216 
L 3141 1144 
Q 3050 572 2676 248 
Q 2303 -75 1759 -75 
Q 1078 -75 664 370 
Q 250 816 250 1647 
Q 250 2184 428 2587 
Q 606 2991 970 3192 
Q 1334 3394 1763 3394 
Q 2303 3394 2647 3120 
Q 2991 2847 3088 2344 
L 2541 2259 
Q 2463 2594 2264 2762 
Q 2066 2931 1784 2931 
Q 1359 2931 1093 2626 
Q 828 2322 828 1663 
Q 828 994 1084 691 
Q 1341 388 1753 388 
Q 2084 388 2306 591 
Q 2528 794 2588 1216 
z
M 1283 -417 
L 1446 136 
L 1864 136 
L 1761 -199 
Q 2027 -230 2161 -362 
Q 2296 -495 2296 -658 
Q 2296 -892 2071 -1072 
Q 1846 -1252 1392 -1252 
Q 1136 -1252 942 -1214 
L 977 -849 
Q 1177 -861 1271 -861 
Q 1564 -861 1683 -780 
Q 1774 -717 1774 -627 
Q 1774 -570 1738 -526 
Q 1702 -483 1605 -451 
Q 1508 -420 1283 -417 
z
" transform="scale(0.015625)"/>
      <path id="ArialMT-6b" d="M 425 0 
L 425 4581 
L 988 4581 
L 988 1969 
L 2319 3319 
L 3047 3319 
L 1778 2088 
L 3175 0 
L 2481 0 
L 1384 1697 
L 988 1316 
L 988 0 
L 425 0 
z
" transform="scale(0.015625)"/>
      <path id="ArialMT-11f" d="M 319 -275 
L 866 -356 
Q 900 -609 1056 -725 
Q 1266 -881 1628 -881 
Q 2019 -881 2231 -725 
Q 2444 -569 2519 -288 
Q 2563 -116 2559 434 
Q 2191 0 1641 0 
Q 956 0 581 494 
Q 206 988 206 1678 
Q 206 2153 378 2554 
Q 550 2956 876 3175 
Q 1203 3394 1644 3394 
Q 2231 3394 2613 2919 
L 2613 3319 
L 3131 3319 
L 3131 450 
Q 3131 -325 2973 -648 
Q 2816 -972 2473 -1159 
Q 2131 -1347 1631 -1347 
Q 1038 -1347 672 -1080 
Q 306 -813 319 -275 
z
M 784 1719 
Q 784 1066 1043 766 
Q 1303 466 1694 466 
Q 2081 466 2343 764 
Q 2606 1063 2606 1700 
Q 2606 2309 2336 2618 
Q 2066 2928 1684 2928 
Q 1309 2928 1046 2623 
Q 784 2319 784 1719 
z
M 2318 4575 
L 2703 4575 
Q 2656 4184 2417 3975 
Q 2178 3766 1781 3766 
Q 1381 3766 1142 3973 
Q 903 4181 856 4575 
L 1240 4575 
Q 1284 4363 1413 4258 
Q 1543 4153 1762 4153 
Q 2015 4153 2145 4254 
Q 2275 4356 2318 4575 
z
" transform="scale(0.015625)"/>
     </defs>
     <use xlink:href="#ArialMT-54"/>
     <use xlink:href="#ArialMT-61" x="49.958984"/>
     <use xlink:href="#ArialMT-68" x="105.574219"/>
     <use xlink:href="#ArialMT-6d" x="161.189453"/>
     <use xlink:href="#ArialMT-69" x="244.490234"/>
     <use xlink:href="#ArialMT-6e" x="266.707031"/>
     <use xlink:href="#ArialMT-6c" x="322.322266"/>
     <use xlink:href="#ArialMT-65" x="344.539062"/>
     <use xlink:href="#ArialMT-72" x="400.154297"/>
     <use xlink:href="#ArialMT-20" x="433.455078"/>
     <use xlink:href="#ArialMT-76" x="461.238281"/>
     <use xlink:href="#ArialMT-65" x="511.238281"/>
     <use xlink:href="#ArialMT-20" x="566.853516"/>
     <use xlink:href="#ArialMT-47" x="594.636719"/>
     <use xlink:href="#ArialMT-65" x="672.419922"/>
     <use xlink:href="#ArialMT-72" x="728.035156"/>
     <use xlink:href="#ArialMT-e7" x="761.335938"/>
     <use xlink:href="#ArialMT-65" x="811.335938"/>
     <use xlink:href="#ArialMT-6b" x="866.951172"/>
     <use xlink:href="#ArialMT-20" x="916.951172"/>
     <use xlink:href="#ArialMT-44" x="944.734375"/>
     <use xlink:href="#ArialMT-65" x="1016.951172"/>
     <use xlink:href="#ArialMT-11f" x="1072.566406"/>
     <use xlink:href="#ArialMT-65" x="1128.181641"/>
     <use xlink:href="#ArialMT-72" x="1183.796875"/>
     <use xlink:href="#ArialMT-6c" x="1217.097656"/>
     <use xlink:href="#ArialMT-65" x="1239.314453"/>
     <use xlink:href="#ArialMT-72" x="1294.929688"/>
    </g>
   </g>
   <g id="legend_1">
    <g id="line2d_39">
     <path d="M 841.63125 81.777813 
L 851.63125 81.777813 
L 861.63125 81.777813 
" style="fill: none; stroke: #1f77b4; stroke-width: 1.5; stroke-linecap: round"/>
    </g>
    <g id="text_17">
     <!-- Random Forest -->
     <g style="fill: #262626" transform="translate(869.63125 85.277813) scale(0.1 -0.1)">
      <defs>
       <path id="ArialMT-52" d="M 503 0 
L 503 4581 
L 2534 4581 
Q 3147 4581 3465 4457 
Q 3784 4334 3975 4021 
Q 4166 3709 4166 3331 
Q 4166 2844 3850 2509 
Q 3534 2175 2875 2084 
Q 3116 1969 3241 1856 
Q 3506 1613 3744 1247 
L 4541 0 
L 3778 0 
L 3172 953 
Q 2906 1366 2734 1584 
Q 2563 1803 2427 1890 
Q 2291 1978 2150 2013 
Q 2047 2034 1813 2034 
L 1109 2034 
L 1109 0 
L 503 0 
z
M 1109 2559 
L 2413 2559 
Q 2828 2559 3062 2645 
Q 3297 2731 3419 2920 
Q 3541 3109 3541 3331 
Q 3541 3656 3305 3865 
Q 3069 4075 2559 4075 
L 1109 4075 
L 1109 2559 
z
" transform="scale(0.015625)"/>
       <path id="ArialMT-46" d="M 525 0 
L 525 4581 
L 3616 4581 
L 3616 4041 
L 1131 4041 
L 1131 2622 
L 3281 2622 
L 3281 2081 
L 1131 2081 
L 1131 0 
L 525 0 
z
" transform="scale(0.015625)"/>
      </defs>
      <use xlink:href="#ArialMT-52"/>
      <use xlink:href="#ArialMT-61" x="72.216797"/>
      <use xlink:href="#ArialMT-6e" x="127.832031"/>
      <use xlink:href="#ArialMT-64" x="183.447266"/>
      <use xlink:href="#ArialMT-6f" x="239.0625"/>
      <use xlink:href="#ArialMT-6d" x="294.677734"/>
      <use xlink:href="#ArialMT-20" x="377.978516"/>
      <use xlink:href="#ArialMT-46" x="405.761719"/>
      <use xlink:href="#ArialMT-6f" x="466.845703"/>
      <use xlink:href="#ArialMT-72" x="522.460938"/>
      <use xlink:href="#ArialMT-65" x="555.761719"/>
      <use xlink:href="#ArialMT-73" x="611.376953"/>
      <use xlink:href="#ArialMT-74" x="661.376953"/>
     </g>
    </g>
    <g id="line2d_40">
     <path d="M 841.63125 96.045 
L 851.63125 96.045 
L 861.63125 96.045 
" style="fill: none; stroke: #ff7f0e; stroke-width: 1.5; stroke-linecap: round"/>
    </g>
    <g id="text_18">
     <!-- Gradient Boosting -->
     <g style="fill: #262626" transform="translate(869.63125 99.545) scale(0.1 -0.1)">
      <defs>
       <path id="ArialMT-42" d="M 469 0 
L 469 4581 
L 2188 4581 
Q 2713 4581 3030 4442 
Q 3347 4303 3526 4014 
Q 3706 3725 3706 3409 
Q 3706 3116 3547 2856 
Q 3388 2597 3066 2438 
Q 3481 2316 3704 2022 
Q 3928 1728 3928 1328 
Q 3928 1006 3792 729 
Q 3656 453 3456 303 
Q 3256 153 2954 76 
Q 2653 0 2216 0 
L 469 0 
z
M 1075 2656 
L 2066 2656 
Q 2469 2656 2644 2709 
Q 2875 2778 2992 2937 
Q 3109 3097 3109 3338 
Q 3109 3566 3000 3739 
Q 2891 3913 2687 3977 
Q 2484 4041 1991 4041 
L 1075 4041 
L 1075 2656 
z
M 1075 541 
L 2216 541 
Q 2509 541 2628 563 
Q 2838 600 2978 687 
Q 3119 775 3209 942 
Q 3300 1109 3300 1328 
Q 3300 1584 3169 1773 
Q 3038 1963 2805 2039 
Q 2572 2116 2134 2116 
L 1075 2116 
L 1075 541 
z
" transform="scale(0.015625)"/>
       <path id="ArialMT-67" d="M 319 -275 
L 866 -356 
Q 900 -609 1056 -725 
Q 1266 -881 1628 -881 
Q 2019 -881 2231 -725 
Q 2444 -569 2519 -288 
Q 2563 -116 2559 434 
Q 2191 0 1641 0 
Q 956 0 581 494 
Q 206 988 206 1678 
Q 206 2153 378 2554 
Q 550 2956 876 3175 
Q 1203 3394 1644 3394 
Q 2231 3394 2613 2919 
L 2613 3319 
L 3131 3319 
L 3131 450 
Q 3131 -325 2973 -648 
Q 2816 -972 2473 -1159 
Q 2131 -1347 1631 -1347 
Q 1038 -1347 672 -1080 
Q 306 -813 319 -275 
z
M 784 1719 
Q 784 1066 1043 766 
Q 1303 466 1694 466 
Q 2081 466 2343 764 
Q 2606 1063 2606 1700 
Q 2606 2309 2336 2618 
Q 2066 2928 1684 2928 
Q 1309 2928 1046 2623 
Q 784 2319 784 1719 
z
" transform="scale(0.015625)"/>
      </defs>
      <use xlink:href="#ArialMT-47"/>
      <use xlink:href="#ArialMT-72" x="77.783203"/>
      <use xlink:href="#ArialMT-61" x="111.083984"/>
      <use xlink:href="#ArialMT-64" x="166.699219"/>
      <use xlink:href="#ArialMT-69" x="222.314453"/>
      <use xlink:href="#ArialMT-65" x="244.53125"/>
      <use xlink:href="#ArialMT-6e" x="300.146484"/>
      <use xlink:href="#ArialMT-74" x="355.761719"/>
      <use xlink:href="#ArialMT-20" x="383.544922"/>
      <use xlink:href="#ArialMT-42" x="411.328125"/>
      <use xlink:href="#ArialMT-6f" x="478.027344"/>
      <use xlink:href="#ArialMT-6f" x="533.642578"/>
      <use xlink:href="#ArialMT-73" x="589.257812"/>
      <use xlink:href="#ArialMT-74" x="639.257812"/>
      <use xlink:href="#ArialMT-69" x="667.041016"/>
      <use xlink:href="#ArialMT-6e" x="689.257812"/>
      <use xlink:href="#ArialMT-67" x="744.873047"/>
     </g>
    </g>
    <g id="line2d_41">
     <path d="M 841.63125 110.3075 
L 851.63125 110.3075 
L 861.63125 110.3075 
" style="fill: none; stroke: #2ca02c; stroke-width: 1.5; stroke-linecap: round"/>
    </g>
    <g id="text_19">
     <!-- Linear Regression -->
     <g style="fill: #262626" transform="translate(869.63125 113.8075) scale(0.1 -0.1)">
      <defs>
       <path id="ArialMT-4c" d="M 469 0 
L 469 4581 
L 1075 4581 
L 1075 541 
L 3331 541 
L 3331 0 
L 469 0 
z
" transform="scale(0.015625)"/>
      </defs>
      <use xlink:href="#ArialMT-4c"/>
      <use xlink:href="#ArialMT-69" x="55.615234"/>
      <use xlink:href="#ArialMT-6e" x="77.832031"/>
      <use xlink:href="#ArialMT-65" x="133.447266"/>
      <use xlink:href="#ArialMT-61" x="189.0625"/>
      <use xlink:href="#ArialMT-72" x="244.677734"/>
      <use xlink:href="#ArialMT-20" x="277.978516"/>
      <use xlink:href="#ArialMT-52" x="305.761719"/>
      <use xlink:href="#ArialMT-65" x="377.978516"/>
      <use xlink:href="#ArialMT-67" x="433.59375"/>
      <use xlink:href="#ArialMT-72" x="489.208984"/>
      <use xlink:href="#ArialMT-65" x="522.509766"/>
      <use xlink:href="#ArialMT-73" x="578.125"/>
      <use xlink:href="#ArialMT-73" x="628.125"/>
      <use xlink:href="#ArialMT-69" x="678.125"/>
      <use xlink:href="#ArialMT-6f" x="700.341797"/>
      <use xlink:href="#ArialMT-6e" x="755.957031"/>
     </g>
    </g>
    <g id="line2d_42">
     <path d="M 841.63125 124.57 
L 851.63125 124.57 
L 861.63125 124.57 
" style="fill: none; stroke: #d62728; stroke-width: 1.5; stroke-linecap: round"/>
    </g>
    <g id="text_20">
     <!-- Decision Tree -->
     <g style="fill: #262626" transform="translate(869.63125 128.07) scale(0.1 -0.1)">
      <defs>
       <path id="ArialMT-63" d="M 2588 1216 
L 3141 1144 
Q 3050 572 2676 248 
Q 2303 -75 1759 -75 
Q 1078 -75 664 370 
Q 250 816 250 1647 
Q 250 2184 428 2587 
Q 606 2991 970 3192 
Q 1334 3394 1763 3394 
Q 2303 3394 2647 3120 
Q 2991 2847 3088 2344 
L 2541 2259 
Q 2463 2594 2264 2762 
Q 2066 2931 1784 2931 
Q 1359 2931 1093 2626 
Q 828 2322 828 1663 
Q 828 994 1084 691 
Q 1341 388 1753 388 
Q 2084 388 2306 591 
Q 2528 794 2588 1216 
z
" transform="scale(0.015625)"/>
      </defs>
      <use xlink:href="#ArialMT-44"/>
      <use xlink:href="#ArialMT-65" x="72.216797"/>
      <use xlink:href="#ArialMT-63" x="127.832031"/>
      <use xlink:href="#ArialMT-69" x="177.832031"/>
      <use xlink:href="#ArialMT-73" x="200.048828"/>
      <use xlink:href="#ArialMT-69" x="250.048828"/>
      <use xlink:href="#ArialMT-6f" x="272.265625"/>
      <use xlink:href="#ArialMT-6e" x="327.880859"/>
      <use xlink:href="#ArialMT-20" x="383.496094"/>
      <use xlink:href="#ArialMT-54" x="409.529297"/>
      <use xlink:href="#ArialMT-72" x="466.863281"/>
      <use xlink:href="#ArialMT-65" x="500.164062"/>
      <use xlink:href="#ArialMT-65" x="555.779297"/>
     </g>
    </g>
    <g id="line2d_43">
     <path d="M 841.63125 138.715313 
L 851.63125 138.715313 
L 861.63125 138.715313 
" style="fill: none; stroke: #9467bd; stroke-width: 1.5; stroke-linecap: round"/>
    </g>
    <g id="text_21">
     <!-- SVR -->
     <g style="fill: #262626" transform="translate(869.63125 142.215313) scale(0.1 -0.1)">
      <defs>
       <path id="ArialMT-53" d="M 288 1472 
L 859 1522 
Q 900 1178 1048 958 
Q 1197 738 1509 602 
Q 1822 466 2213 466 
Q 2559 466 2825 569 
Q 3091 672 3220 851 
Q 3350 1031 3350 1244 
Q 3350 1459 3225 1620 
Q 3100 1781 2813 1891 
Q 2628 1963 1997 2114 
Q 1366 2266 1113 2400 
Q 784 2572 623 2826 
Q 463 3081 463 3397 
Q 463 3744 659 4045 
Q 856 4347 1234 4503 
Q 1613 4659 2075 4659 
Q 2584 4659 2973 4495 
Q 3363 4331 3572 4012 
Q 3781 3694 3797 3291 
L 3216 3247 
Q 3169 3681 2898 3903 
Q 2628 4125 2100 4125 
Q 1550 4125 1298 3923 
Q 1047 3722 1047 3438 
Q 1047 3191 1225 3031 
Q 1400 2872 2139 2705 
Q 2878 2538 3153 2413 
Q 3553 2228 3743 1945 
Q 3934 1663 3934 1294 
Q 3934 928 3725 604 
Q 3516 281 3123 101 
Q 2731 -78 2241 -78 
Q 1619 -78 1198 103 
Q 778 284 539 648 
Q 300 1013 288 1472 
z
" transform="scale(0.015625)"/>
       <path id="ArialMT-56" d="M 1803 0 
L 28 4581 
L 684 4581 
L 1875 1253 
Q 2019 853 2116 503 
Q 2222 878 2363 1253 
L 3600 4581 
L 4219 4581 
L 2425 0 
L 1803 0 
z
" transform="scale(0.015625)"/>
      </defs>
      <use xlink:href="#ArialMT-53"/>
      <use xlink:href="#ArialMT-56" x="66.699219"/>
      <use xlink:href="#ArialMT-52" x="133.398438"/>
     </g>
    </g>
    <g id="line2d_44">
     <path d="M 841.63125 152.860625 
L 851.63125 152.860625 
L 861.63125 152.860625 
" style="fill: none; stroke: #8c564b; stroke-width: 1.5; stroke-linecap: round"/>
    </g>
    <g id="text_22">
     <!-- K-Nearest Neighbors -->
     <g style="fill: #262626" transform="translate(869.63125 156.360625) scale(0.1 -0.1)">
      <defs>
       <path id="ArialMT-4b" d="M 469 0 
L 469 4581 
L 1075 4581 
L 1075 2309 
L 3350 4581 
L 4172 4581 
L 2250 2725 
L 4256 0 
L 3456 0 
L 1825 2319 
L 1075 1588 
L 1075 0 
L 469 0 
z
" transform="scale(0.015625)"/>
       <path id="ArialMT-4e" d="M 488 0 
L 488 4581 
L 1109 4581 
L 3516 984 
L 3516 4581 
L 4097 4581 
L 4097 0 
L 3475 0 
L 1069 3600 
L 1069 0 
L 488 0 
z
" transform="scale(0.015625)"/>
       <path id="ArialMT-62" d="M 941 0 
L 419 0 
L 419 4581 
L 981 4581 
L 981 2947 
Q 1338 3394 1891 3394 
Q 2197 3394 2470 3270 
Q 2744 3147 2920 2923 
Q 3097 2700 3197 2384 
Q 3297 2069 3297 1709 
Q 3297 856 2875 390 
Q 2453 -75 1863 -75 
Q 1275 -75 941 416 
L 941 0 
z
M 934 1684 
Q 934 1088 1097 822 
Q 1363 388 1816 388 
Q 2184 388 2453 708 
Q 2722 1028 2722 1663 
Q 2722 2313 2464 2622 
Q 2206 2931 1841 2931 
Q 1472 2931 1203 2611 
Q 934 2291 934 1684 
z
" transform="scale(0.015625)"/>
      </defs>
      <use xlink:href="#ArialMT-4b"/>
      <use xlink:href="#ArialMT-2d" x="66.699219"/>
      <use xlink:href="#ArialMT-4e" x="100"/>
      <use xlink:href="#ArialMT-65" x="172.216797"/>
      <use xlink:href="#ArialMT-61" x="227.832031"/>
      <use xlink:href="#ArialMT-72" x="283.447266"/>
      <use xlink:href="#ArialMT-65" x="316.748047"/>
      <use xlink:href="#ArialMT-73" x="372.363281"/>
      <use xlink:href="#ArialMT-74" x="422.363281"/>
      <use xlink:href="#ArialMT-20" x="450.146484"/>
      <use xlink:href="#ArialMT-4e" x="477.929688"/>
      <use xlink:href="#ArialMT-65" x="550.146484"/>
      <use xlink:href="#ArialMT-69" x="605.761719"/>
      <use xlink:href="#ArialMT-67" x="627.978516"/>
      <use xlink:href="#ArialMT-68" x="683.59375"/>
      <use xlink:href="#ArialMT-62" x="739.208984"/>
      <use xlink:href="#ArialMT-6f" x="794.824219"/>
      <use xlink:href="#ArialMT-72" x="850.439453"/>
      <use xlink:href="#ArialMT-73" x="883.740234"/>
     </g>
    </g>
    <g id="line2d_45">
     <path d="M 841.63125 167.123125 
L 851.63125 167.123125 
L 861.63125 167.123125 
" style="fill: none; stroke: #e377c2; stroke-width: 1.5; stroke-linecap: round"/>
    </g>
    <g id="text_23">
     <!-- XGBoost -->
     <g style="fill: #262626" transform="translate(869.63125 170.623125) scale(0.1 -0.1)">
      <defs>
       <path id="ArialMT-58" d="M 28 0 
L 1800 2388 
L 238 4581 
L 959 4581 
L 1791 3406 
Q 2050 3041 2159 2844 
Q 2313 3094 2522 3366 
L 3444 4581 
L 4103 4581 
L 2494 2422 
L 4228 0 
L 3478 0 
L 2325 1634 
Q 2228 1775 2125 1941 
Q 1972 1691 1906 1597 
L 756 0 
L 28 0 
z
" transform="scale(0.015625)"/>
      </defs>
      <use xlink:href="#ArialMT-58"/>
      <use xlink:href="#ArialMT-47" x="66.699219"/>
      <use xlink:href="#ArialMT-42" x="144.482422"/>
      <use xlink:href="#ArialMT-6f" x="211.181641"/>
      <use xlink:href="#ArialMT-6f" x="266.796875"/>
      <use xlink:href="#ArialMT-73" x="322.412109"/>
      <use xlink:href="#ArialMT-74" x="372.412109"/>
     </g>
    </g>
    <g id="line2d_46">
     <path d="M 841.63125 181.268438 
L 851.63125 181.268438 
L 861.63125 181.268438 
" style="fill: none; stroke: #7f7f7f; stroke-width: 1.5; stroke-linecap: round"/>
    </g>
    <g id="text_24">
     <!-- Ridge Regression -->
     <g style="fill: #262626" transform="translate(869.63125 184.768438) scale(0.1 -0.1)">
      <use xlink:href="#ArialMT-52"/>
      <use xlink:href="#ArialMT-69" x="72.216797"/>
      <use xlink:href="#ArialMT-64" x="94.433594"/>
      <use xlink:href="#ArialMT-67" x="150.048828"/>
      <use xlink:href="#ArialMT-65" x="205.664062"/>
      <use xlink:href="#ArialMT-20" x="261.279297"/>
      <use xlink:href="#ArialMT-52" x="289.0625"/>
      <use xlink:href="#ArialMT-65" x="361.279297"/>
      <use xlink:href="#ArialMT-67" x="416.894531"/>
      <use xlink:href="#ArialMT-72" x="472.509766"/>
      <use xlink:href="#ArialMT-65" x="505.810547"/>
      <use xlink:href="#ArialMT-73" x="561.425781"/>
      <use xlink:href="#ArialMT-73" x="611.425781"/>
      <use xlink:href="#ArialMT-69" x="661.425781"/>
      <use xlink:href="#ArialMT-6f" x="683.642578"/>
      <use xlink:href="#ArialMT-6e" x="739.257812"/>
     </g>
    </g>
    <g id="line2d_47">
     <path d="M 841.63125 195.530938 
L 851.63125 195.530938 
L 861.63125 195.530938 
" style="fill: none; stroke: #bcbd22; stroke-width: 1.5; stroke-linecap: round"/>
    </g>
    <g id="text_25">
     <!-- ElasticNet -->
     <g style="fill: #262626" transform="translate(869.63125 199.030938) scale(0.1 -0.1)">
      <defs>
       <path id="ArialMT-45" d="M 506 0 
L 506 4581 
L 3819 4581 
L 3819 4041 
L 1113 4041 
L 1113 2638 
L 3647 2638 
L 3647 2100 
L 1113 2100 
L 1113 541 
L 3925 541 
L 3925 0 
L 506 0 
z
" transform="scale(0.015625)"/>
      </defs>
      <use xlink:href="#ArialMT-45"/>
      <use xlink:href="#ArialMT-6c" x="66.699219"/>
      <use xlink:href="#ArialMT-61" x="88.916016"/>
      <use xlink:href="#ArialMT-73" x="144.53125"/>
      <use xlink:href="#ArialMT-74" x="194.53125"/>
      <use xlink:href="#ArialMT-69" x="222.314453"/>
      <use xlink:href="#ArialMT-63" x="244.53125"/>
      <use xlink:href="#ArialMT-4e" x="294.53125"/>
      <use xlink:href="#ArialMT-65" x="366.748047"/>
      <use xlink:href="#ArialMT-74" x="422.363281"/>
     </g>
    </g>
    <g id="line2d_48">
     <path d="M 841.63125 209.67625 
L 851.63125 209.67625 
L 861.63125 209.67625 
" style="fill: none; stroke: #17becf; stroke-width: 1.5; stroke-linecap: round"/>
    </g>
    <g id="text_26">
     <!-- LSTM -->
     <g style="fill: #262626" transform="translate(869.63125 213.17625) scale(0.1 -0.1)">
      <defs>
       <path id="ArialMT-4d" d="M 475 0 
L 475 4581 
L 1388 4581 
L 2472 1338 
Q 2622 884 2691 659 
Q 2769 909 2934 1394 
L 4031 4581 
L 4847 4581 
L 4847 0 
L 4263 0 
L 4263 3834 
L 2931 0 
L 2384 0 
L 1059 3900 
L 1059 0 
L 475 0 
z
" transform="scale(0.015625)"/>
      </defs>
      <use xlink:href="#ArialMT-4c"/>
      <use xlink:href="#ArialMT-53" x="55.615234"/>
      <use xlink:href="#ArialMT-54" x="122.314453"/>
      <use xlink:href="#ArialMT-4d" x="183.398438"/>
     </g>
    </g>
    <g id="line2d_49">
     <path d="M 841.63125 223.821563 
L 851.63125 223.821563 
L 861.63125 223.821563 
" style="fill: none; stroke: #1f77b4; stroke-width: 1.5; stroke-linecap: round"/>
    </g>
    <g id="text_27">
     <!-- RNN -->
     <g style="fill: #262626" transform="translate(869.63125 227.321563) scale(0.1 -0.1)">
      <use xlink:href="#ArialMT-52"/>
      <use xlink:href="#ArialMT-4e" x="72.216797"/>
      <use xlink:href="#ArialMT-4e" x="144.433594"/>
     </g>
    </g>
    <g id="line2d_50">
     <path d="M 841.63125 238.08875 
L 851.63125 238.08875 
L 861.63125 238.08875 
" style="fill: none; stroke: #000000; stroke-width: 2; stroke-linecap: round"/>
    </g>
    <g id="text_28">
     <!-- Gerçek Değerler -->
     <g style="fill: #262626" transform="translate(869.63125 241.58875) scale(0.1 -0.1)">
      <use xlink:href="#ArialMT-47"/>
      <use xlink:href="#ArialMT-65" x="77.783203"/>
      <use xlink:href="#ArialMT-72" x="133.398438"/>
      <use xlink:href="#ArialMT-e7" x="166.699219"/>
      <use xlink:href="#ArialMT-65" x="216.699219"/>
      <use xlink:href="#ArialMT-6b" x="272.314453"/>
      <use xlink:href="#ArialMT-20" x="322.314453"/>
      <use xlink:href="#ArialMT-44" x="350.097656"/>
      <use xlink:href="#ArialMT-65" x="422.314453"/>
      <use xlink:href="#ArialMT-11f" x="477.929688"/>
      <use xlink:href="#ArialMT-65" x="533.544922"/>
      <use xlink:href="#ArialMT-72" x="589.160156"/>
      <use xlink:href="#ArialMT-6c" x="622.460938"/>
      <use xlink:href="#ArialMT-65" x="644.677734"/>
      <use xlink:href="#ArialMT-72" x="700.292969"/>
     </g>
    </g>
   </g>
  </g>
 </g>
 <defs>
  <clipPath id="p8c3b6bb5bb">
   <rect x="135" y="69.12" width="837" height="443.52"/>
  </clipPath>
 </defs>
</svg>
