<?xml version="1.0" encoding="utf-8" standalone="no"?>
<!DOCTYPE svg PUBLIC "-//W3C//DTD SVG 1.1//EN"
  "http://www.w3.org/Graphics/SVG/1.1/DTD/svg11.dtd">
<svg xmlns:xlink="http://www.w3.org/1999/xlink" width="1080pt" height="576pt" viewBox="0 0 1080 576" xmlns="http://www.w3.org/2000/svg" version="1.1">
 <metadata>
  <rdf:RDF xmlns:dc="http://purl.org/dc/elements/1.1/" xmlns:cc="http://creativecommons.org/ns#" xmlns:rdf="http://www.w3.org/1999/02/22-rdf-syntax-ns#">
   <cc:Work>
    <dc:type rdf:resource="http://purl.org/dc/dcmitype/StillImage"/>
    <dc:date>2023-05-23T01:39:03.124592</dc:date>
    <dc:format>image/svg+xml</dc:format>
    <dc:creator>
     <cc:Agent>
      <dc:title>Matplotlib v3.7.1, https://matplotlib.org/</dc:title>
     </cc:Agent>
    </dc:creator>
   </cc:Work>
  </rdf:RDF>
 </metadata>
 <defs>
  <style type="text/css">*{stroke-linejoin: round; stroke-linecap: butt}</style>
 </defs>
 <g id="figure_1">
  <g id="patch_1">
   <path d="M 0 576 
L 1080 576 
L 1080 0 
L 0 0 
z
" style="fill: #ffffff"/>
  </g>
  <g id="axes_1">
   <g id="patch_2">
    <path d="M 135 512.64 
L 972 512.64 
L 972 69.12 
L 135 69.12 
z
" style="fill: #ffffff"/>
   </g>
   <g id="matplotlib.axis_1">
    <g id="xtick_1">
     <g id="line2d_1">
      <path d="M 159.457792 512.64 
L 159.457792 69.12 
" clip-path="url(#pc39d0d7f73)" style="fill: none; stroke: #cccccc; stroke-width: 0.8; stroke-linecap: round"/>
     </g>
     <g id="line2d_2"/>
     <g id="text_1">
      <!-- 2023-01-01 -->
      <g style="fill: #262626" transform="translate(133.884355 523.297812) scale(0.1 -0.1)">
       <defs>
        <path id="ArialMT-32" d="M 3222 541 
L 3222 0 
L 194 0 
Q 188 203 259 391 
Q 375 700 629 1000 
Q 884 1300 1366 1694 
Q 2113 2306 2375 2664 
Q 2638 3022 2638 3341 
Q 2638 3675 2398 3904 
Q 2159 4134 1775 4134 
Q 1369 4134 1125 3890 
Q 881 3647 878 3216 
L 300 3275 
Q 359 3922 746 4261 
Q 1134 4600 1788 4600 
Q 2447 4600 2831 4234 
Q 3216 3869 3216 3328 
Q 3216 3053 3103 2787 
Q 2991 2522 2730 2228 
Q 2469 1934 1863 1422 
Q 1356 997 1212 845 
Q 1069 694 975 541 
L 3222 541 
z
" transform="scale(0.015625)"/>
        <path id="ArialMT-30" d="M 266 2259 
Q 266 3072 433 3567 
Q 600 4063 929 4331 
Q 1259 4600 1759 4600 
Q 2128 4600 2406 4451 
Q 2684 4303 2865 4023 
Q 3047 3744 3150 3342 
Q 3253 2941 3253 2259 
Q 3253 1453 3087 958 
Q 2922 463 2592 192 
Q 2263 -78 1759 -78 
Q 1097 -78 719 397 
Q 266 969 266 2259 
z
M 844 2259 
Q 844 1131 1108 757 
Q 1372 384 1759 384 
Q 2147 384 2411 759 
Q 2675 1134 2675 2259 
Q 2675 3391 2411 3762 
Q 2147 4134 1753 4134 
Q 1366 4134 1134 3806 
Q 844 3388 844 2259 
z
" transform="scale(0.015625)"/>
        <path id="ArialMT-33" d="M 269 1209 
L 831 1284 
Q 928 806 1161 595 
Q 1394 384 1728 384 
Q 2125 384 2398 659 
Q 2672 934 2672 1341 
Q 2672 1728 2419 1979 
Q 2166 2231 1775 2231 
Q 1616 2231 1378 2169 
L 1441 2663 
Q 1497 2656 1531 2656 
Q 1891 2656 2178 2843 
Q 2466 3031 2466 3422 
Q 2466 3731 2256 3934 
Q 2047 4138 1716 4138 
Q 1388 4138 1169 3931 
Q 950 3725 888 3313 
L 325 3413 
Q 428 3978 793 4289 
Q 1159 4600 1703 4600 
Q 2078 4600 2393 4439 
Q 2709 4278 2876 4000 
Q 3044 3722 3044 3409 
Q 3044 3113 2884 2869 
Q 2725 2625 2413 2481 
Q 2819 2388 3044 2092 
Q 3269 1797 3269 1353 
Q 3269 753 2831 336 
Q 2394 -81 1725 -81 
Q 1122 -81 723 278 
Q 325 638 269 1209 
z
" transform="scale(0.015625)"/>
        <path id="ArialMT-2d" d="M 203 1375 
L 203 1941 
L 1931 1941 
L 1931 1375 
L 203 1375 
z
" transform="scale(0.015625)"/>
        <path id="ArialMT-31" d="M 2384 0 
L 1822 0 
L 1822 3584 
Q 1619 3391 1289 3197 
Q 959 3003 697 2906 
L 697 3450 
Q 1169 3672 1522 3987 
Q 1875 4303 2022 4600 
L 2384 4600 
L 2384 0 
z
" transform="scale(0.015625)"/>
       </defs>
       <use xlink:href="#ArialMT-32"/>
       <use xlink:href="#ArialMT-30" x="55.615234"/>
       <use xlink:href="#ArialMT-32" x="111.230469"/>
       <use xlink:href="#ArialMT-33" x="166.845703"/>
       <use xlink:href="#ArialMT-2d" x="222.460938"/>
       <use xlink:href="#ArialMT-30" x="255.761719"/>
       <use xlink:href="#ArialMT-31" x="311.376953"/>
       <use xlink:href="#ArialMT-2d" x="366.992188"/>
       <use xlink:href="#ArialMT-30" x="400.292969"/>
       <use xlink:href="#ArialMT-31" x="455.908203"/>
      </g>
     </g>
    </g>
    <g id="xtick_2">
     <g id="line2d_3">
      <path d="M 254.571429 512.64 
L 254.571429 69.12 
" clip-path="url(#pc39d0d7f73)" style="fill: none; stroke: #cccccc; stroke-width: 0.8; stroke-linecap: round"/>
     </g>
     <g id="line2d_4"/>
     <g id="text_2">
      <!-- 2023-01-15 -->
      <g style="fill: #262626" transform="translate(228.997991 523.297812) scale(0.1 -0.1)">
       <defs>
        <path id="ArialMT-35" d="M 266 1200 
L 856 1250 
Q 922 819 1161 601 
Q 1400 384 1738 384 
Q 2144 384 2425 690 
Q 2706 997 2706 1503 
Q 2706 1984 2436 2262 
Q 2166 2541 1728 2541 
Q 1456 2541 1237 2417 
Q 1019 2294 894 2097 
L 366 2166 
L 809 4519 
L 3088 4519 
L 3088 3981 
L 1259 3981 
L 1013 2750 
Q 1425 3038 1878 3038 
Q 2478 3038 2890 2622 
Q 3303 2206 3303 1553 
Q 3303 931 2941 478 
Q 2500 -78 1738 -78 
Q 1113 -78 717 272 
Q 322 622 266 1200 
z
" transform="scale(0.015625)"/>
       </defs>
       <use xlink:href="#ArialMT-32"/>
       <use xlink:href="#ArialMT-30" x="55.615234"/>
       <use xlink:href="#ArialMT-32" x="111.230469"/>
       <use xlink:href="#ArialMT-33" x="166.845703"/>
       <use xlink:href="#ArialMT-2d" x="222.460938"/>
       <use xlink:href="#ArialMT-30" x="255.761719"/>
       <use xlink:href="#ArialMT-31" x="311.376953"/>
       <use xlink:href="#ArialMT-2d" x="366.992188"/>
       <use xlink:href="#ArialMT-31" x="400.292969"/>
       <use xlink:href="#ArialMT-35" x="455.908203"/>
      </g>
     </g>
    </g>
    <g id="xtick_3">
     <g id="line2d_5">
      <path d="M 370.066558 512.64 
L 370.066558 69.12 
" clip-path="url(#pc39d0d7f73)" style="fill: none; stroke: #cccccc; stroke-width: 0.8; stroke-linecap: round"/>
     </g>
     <g id="line2d_6"/>
     <g id="text_3">
      <!-- 2023-02-01 -->
      <g style="fill: #262626" transform="translate(344.493121 523.297812) scale(0.1 -0.1)">
       <use xlink:href="#ArialMT-32"/>
       <use xlink:href="#ArialMT-30" x="55.615234"/>
       <use xlink:href="#ArialMT-32" x="111.230469"/>
       <use xlink:href="#ArialMT-33" x="166.845703"/>
       <use xlink:href="#ArialMT-2d" x="222.460938"/>
       <use xlink:href="#ArialMT-30" x="255.761719"/>
       <use xlink:href="#ArialMT-32" x="311.376953"/>
       <use xlink:href="#ArialMT-2d" x="366.992188"/>
       <use xlink:href="#ArialMT-30" x="400.292969"/>
       <use xlink:href="#ArialMT-31" x="455.908203"/>
      </g>
     </g>
    </g>
    <g id="xtick_4">
     <g id="line2d_7">
      <path d="M 465.180195 512.64 
L 465.180195 69.12 
" clip-path="url(#pc39d0d7f73)" style="fill: none; stroke: #cccccc; stroke-width: 0.8; stroke-linecap: round"/>
     </g>
     <g id="line2d_8"/>
     <g id="text_4">
      <!-- 2023-02-15 -->
      <g style="fill: #262626" transform="translate(439.606757 523.297812) scale(0.1 -0.1)">
       <use xlink:href="#ArialMT-32"/>
       <use xlink:href="#ArialMT-30" x="55.615234"/>
       <use xlink:href="#ArialMT-32" x="111.230469"/>
       <use xlink:href="#ArialMT-33" x="166.845703"/>
       <use xlink:href="#ArialMT-2d" x="222.460938"/>
       <use xlink:href="#ArialMT-30" x="255.761719"/>
       <use xlink:href="#ArialMT-32" x="311.376953"/>
       <use xlink:href="#ArialMT-2d" x="366.992188"/>
       <use xlink:href="#ArialMT-31" x="400.292969"/>
       <use xlink:href="#ArialMT-35" x="455.908203"/>
      </g>
     </g>
    </g>
    <g id="xtick_5">
     <g id="line2d_9">
      <path d="M 560.293831 512.64 
L 560.293831 69.12 
" clip-path="url(#pc39d0d7f73)" style="fill: none; stroke: #cccccc; stroke-width: 0.8; stroke-linecap: round"/>
     </g>
     <g id="line2d_10"/>
     <g id="text_5">
      <!-- 2023-03-01 -->
      <g style="fill: #262626" transform="translate(534.720394 523.297812) scale(0.1 -0.1)">
       <use xlink:href="#ArialMT-32"/>
       <use xlink:href="#ArialMT-30" x="55.615234"/>
       <use xlink:href="#ArialMT-32" x="111.230469"/>
       <use xlink:href="#ArialMT-33" x="166.845703"/>
       <use xlink:href="#ArialMT-2d" x="222.460938"/>
       <use xlink:href="#ArialMT-30" x="255.761719"/>
       <use xlink:href="#ArialMT-33" x="311.376953"/>
       <use xlink:href="#ArialMT-2d" x="366.992188"/>
       <use xlink:href="#ArialMT-30" x="400.292969"/>
       <use xlink:href="#ArialMT-31" x="455.908203"/>
      </g>
     </g>
    </g>
    <g id="xtick_6">
     <g id="line2d_11">
      <path d="M 655.407468 512.64 
L 655.407468 69.12 
" clip-path="url(#pc39d0d7f73)" style="fill: none; stroke: #cccccc; stroke-width: 0.8; stroke-linecap: round"/>
     </g>
     <g id="line2d_12"/>
     <g id="text_6">
      <!-- 2023-03-15 -->
      <g style="fill: #262626" transform="translate(629.83403 523.297812) scale(0.1 -0.1)">
       <use xlink:href="#ArialMT-32"/>
       <use xlink:href="#ArialMT-30" x="55.615234"/>
       <use xlink:href="#ArialMT-32" x="111.230469"/>
       <use xlink:href="#ArialMT-33" x="166.845703"/>
       <use xlink:href="#ArialMT-2d" x="222.460938"/>
       <use xlink:href="#ArialMT-30" x="255.761719"/>
       <use xlink:href="#ArialMT-33" x="311.376953"/>
       <use xlink:href="#ArialMT-2d" x="366.992188"/>
       <use xlink:href="#ArialMT-31" x="400.292969"/>
       <use xlink:href="#ArialMT-35" x="455.908203"/>
      </g>
     </g>
    </g>
    <g id="xtick_7">
     <g id="line2d_13">
      <path d="M 770.902597 512.64 
L 770.902597 69.12 
" clip-path="url(#pc39d0d7f73)" style="fill: none; stroke: #cccccc; stroke-width: 0.8; stroke-linecap: round"/>
     </g>
     <g id="line2d_14"/>
     <g id="text_7">
      <!-- 2023-04-01 -->
      <g style="fill: #262626" transform="translate(745.32916 523.297812) scale(0.1 -0.1)">
       <defs>
        <path id="ArialMT-34" d="M 2069 0 
L 2069 1097 
L 81 1097 
L 81 1613 
L 2172 4581 
L 2631 4581 
L 2631 1613 
L 3250 1613 
L 3250 1097 
L 2631 1097 
L 2631 0 
L 2069 0 
z
M 2069 1613 
L 2069 3678 
L 634 1613 
L 2069 1613 
z
" transform="scale(0.015625)"/>
       </defs>
       <use xlink:href="#ArialMT-32"/>
       <use xlink:href="#ArialMT-30" x="55.615234"/>
       <use xlink:href="#ArialMT-32" x="111.230469"/>
       <use xlink:href="#ArialMT-33" x="166.845703"/>
       <use xlink:href="#ArialMT-2d" x="222.460938"/>
       <use xlink:href="#ArialMT-30" x="255.761719"/>
       <use xlink:href="#ArialMT-34" x="311.376953"/>
       <use xlink:href="#ArialMT-2d" x="366.992188"/>
       <use xlink:href="#ArialMT-30" x="400.292969"/>
       <use xlink:href="#ArialMT-31" x="455.908203"/>
      </g>
     </g>
    </g>
    <g id="xtick_8">
     <g id="line2d_15">
      <path d="M 866.016234 512.64 
L 866.016234 69.12 
" clip-path="url(#pc39d0d7f73)" style="fill: none; stroke: #cccccc; stroke-width: 0.8; stroke-linecap: round"/>
     </g>
     <g id="line2d_16"/>
     <g id="text_8">
      <!-- 2023-04-15 -->
      <g style="fill: #262626" transform="translate(840.442796 523.297812) scale(0.1 -0.1)">
       <use xlink:href="#ArialMT-32"/>
       <use xlink:href="#ArialMT-30" x="55.615234"/>
       <use xlink:href="#ArialMT-32" x="111.230469"/>
       <use xlink:href="#ArialMT-33" x="166.845703"/>
       <use xlink:href="#ArialMT-2d" x="222.460938"/>
       <use xlink:href="#ArialMT-30" x="255.761719"/>
       <use xlink:href="#ArialMT-34" x="311.376953"/>
       <use xlink:href="#ArialMT-2d" x="366.992188"/>
       <use xlink:href="#ArialMT-31" x="400.292969"/>
       <use xlink:href="#ArialMT-35" x="455.908203"/>
      </g>
     </g>
    </g>
    <g id="text_9">
     <!-- Date -->
     <g style="fill: #262626" transform="translate(542.939062 536.443125) scale(0.1 -0.1)">
      <defs>
       <path id="ArialMT-44" d="M 494 0 
L 494 4581 
L 2072 4581 
Q 2606 4581 2888 4516 
Q 3281 4425 3559 4188 
Q 3922 3881 4101 3404 
Q 4281 2928 4281 2316 
Q 4281 1794 4159 1391 
Q 4038 988 3847 723 
Q 3656 459 3429 307 
Q 3203 156 2883 78 
Q 2563 0 2147 0 
L 494 0 
z
M 1100 541 
L 2078 541 
Q 2531 541 2789 625 
Q 3047 709 3200 863 
Q 3416 1078 3536 1442 
Q 3656 1806 3656 2325 
Q 3656 3044 3420 3430 
Q 3184 3816 2847 3947 
Q 2603 4041 2063 4041 
L 1100 4041 
L 1100 541 
z
" transform="scale(0.015625)"/>
       <path id="ArialMT-61" d="M 2588 409 
Q 2275 144 1986 34 
Q 1697 -75 1366 -75 
Q 819 -75 525 192 
Q 231 459 231 875 
Q 231 1119 342 1320 
Q 453 1522 633 1644 
Q 813 1766 1038 1828 
Q 1203 1872 1538 1913 
Q 2219 1994 2541 2106 
Q 2544 2222 2544 2253 
Q 2544 2597 2384 2738 
Q 2169 2928 1744 2928 
Q 1347 2928 1158 2789 
Q 969 2650 878 2297 
L 328 2372 
Q 403 2725 575 2942 
Q 747 3159 1072 3276 
Q 1397 3394 1825 3394 
Q 2250 3394 2515 3294 
Q 2781 3194 2906 3042 
Q 3031 2891 3081 2659 
Q 3109 2516 3109 2141 
L 3109 1391 
Q 3109 606 3145 398 
Q 3181 191 3288 0 
L 2700 0 
Q 2613 175 2588 409 
z
M 2541 1666 
Q 2234 1541 1622 1453 
Q 1275 1403 1131 1340 
Q 988 1278 909 1158 
Q 831 1038 831 891 
Q 831 666 1001 516 
Q 1172 366 1500 366 
Q 1825 366 2078 508 
Q 2331 650 2450 897 
Q 2541 1088 2541 1459 
L 2541 1666 
z
" transform="scale(0.015625)"/>
       <path id="ArialMT-74" d="M 1650 503 
L 1731 6 
Q 1494 -44 1306 -44 
Q 1000 -44 831 53 
Q 663 150 594 308 
Q 525 466 525 972 
L 525 2881 
L 113 2881 
L 113 3319 
L 525 3319 
L 525 4141 
L 1084 4478 
L 1084 3319 
L 1650 3319 
L 1650 2881 
L 1084 2881 
L 1084 941 
Q 1084 700 1114 631 
Q 1144 563 1211 522 
Q 1278 481 1403 481 
Q 1497 481 1650 503 
z
" transform="scale(0.015625)"/>
       <path id="ArialMT-65" d="M 2694 1069 
L 3275 997 
Q 3138 488 2766 206 
Q 2394 -75 1816 -75 
Q 1088 -75 661 373 
Q 234 822 234 1631 
Q 234 2469 665 2931 
Q 1097 3394 1784 3394 
Q 2450 3394 2872 2941 
Q 3294 2488 3294 1666 
Q 3294 1616 3291 1516 
L 816 1516 
Q 847 969 1125 678 
Q 1403 388 1819 388 
Q 2128 388 2347 550 
Q 2566 713 2694 1069 
z
M 847 1978 
L 2700 1978 
Q 2663 2397 2488 2606 
Q 2219 2931 1791 2931 
Q 1403 2931 1139 2672 
Q 875 2413 847 1978 
z
" transform="scale(0.015625)"/>
      </defs>
      <use xlink:href="#ArialMT-44"/>
      <use xlink:href="#ArialMT-61" x="72.216797"/>
      <use xlink:href="#ArialMT-74" x="127.832031"/>
      <use xlink:href="#ArialMT-65" x="155.615234"/>
     </g>
    </g>
   </g>
   <g id="matplotlib.axis_2">
    <g id="ytick_1">
     <g id="line2d_17">
      <path d="M 135 510.311121 
L 972 510.311121 
" clip-path="url(#pc39d0d7f73)" style="fill: none; stroke: #cccccc; stroke-width: 0.8; stroke-linecap: round"/>
     </g>
     <g id="line2d_18"/>
     <g id="text_10">
      <!-- 10 -->
      <g style="fill: #262626" transform="translate(120.378125 513.890027) scale(0.1 -0.1)">
       <use xlink:href="#ArialMT-31"/>
       <use xlink:href="#ArialMT-30" x="55.615234"/>
      </g>
     </g>
    </g>
    <g id="ytick_2">
     <g id="line2d_19">
      <path d="M 135 450.843448 
L 972 450.843448 
" clip-path="url(#pc39d0d7f73)" style="fill: none; stroke: #cccccc; stroke-width: 0.8; stroke-linecap: round"/>
     </g>
     <g id="line2d_20"/>
     <g id="text_11">
      <!-- 11 -->
      <g style="fill: #262626" transform="translate(121.115625 454.422354) scale(0.1 -0.1)">
       <use xlink:href="#ArialMT-31"/>
       <use xlink:href="#ArialMT-31" x="48.240234"/>
      </g>
     </g>
    </g>
    <g id="ytick_3">
     <g id="line2d_21">
      <path d="M 135 391.375775 
L 972 391.375775 
" clip-path="url(#pc39d0d7f73)" style="fill: none; stroke: #cccccc; stroke-width: 0.8; stroke-linecap: round"/>
     </g>
     <g id="line2d_22"/>
     <g id="text_12">
      <!-- 12 -->
      <g style="fill: #262626" transform="translate(120.378125 394.954681) scale(0.1 -0.1)">
       <use xlink:href="#ArialMT-31"/>
       <use xlink:href="#ArialMT-32" x="55.615234"/>
      </g>
     </g>
    </g>
    <g id="ytick_4">
     <g id="line2d_23">
      <path d="M 135 331.908102 
L 972 331.908102 
" clip-path="url(#pc39d0d7f73)" style="fill: none; stroke: #cccccc; stroke-width: 0.8; stroke-linecap: round"/>
     </g>
     <g id="line2d_24"/>
     <g id="text_13">
      <!-- 13 -->
      <g style="fill: #262626" transform="translate(120.378125 335.487008) scale(0.1 -0.1)">
       <use xlink:href="#ArialMT-31"/>
       <use xlink:href="#ArialMT-33" x="55.615234"/>
      </g>
     </g>
    </g>
    <g id="ytick_5">
     <g id="line2d_25">
      <path d="M 135 272.440428 
L 972 272.440428 
" clip-path="url(#pc39d0d7f73)" style="fill: none; stroke: #cccccc; stroke-width: 0.8; stroke-linecap: round"/>
     </g>
     <g id="line2d_26"/>
     <g id="text_14">
      <!-- 14 -->
      <g style="fill: #262626" transform="translate(120.378125 276.019335) scale(0.1 -0.1)">
       <use xlink:href="#ArialMT-31"/>
       <use xlink:href="#ArialMT-34" x="55.615234"/>
      </g>
     </g>
    </g>
    <g id="ytick_6">
     <g id="line2d_27">
      <path d="M 135 212.972755 
L 972 212.972755 
" clip-path="url(#pc39d0d7f73)" style="fill: none; stroke: #cccccc; stroke-width: 0.8; stroke-linecap: round"/>
     </g>
     <g id="line2d_28"/>
     <g id="text_15">
      <!-- 15 -->
      <g style="fill: #262626" transform="translate(120.378125 216.551662) scale(0.1 -0.1)">
       <use xlink:href="#ArialMT-31"/>
       <use xlink:href="#ArialMT-35" x="55.615234"/>
      </g>
     </g>
    </g>
    <g id="ytick_7">
     <g id="line2d_29">
      <path d="M 135 153.505082 
L 972 153.505082 
" clip-path="url(#pc39d0d7f73)" style="fill: none; stroke: #cccccc; stroke-width: 0.8; stroke-linecap: round"/>
     </g>
     <g id="line2d_30"/>
     <g id="text_16">
      <!-- 16 -->
      <g style="fill: #262626" transform="translate(120.378125 157.083989) scale(0.1 -0.1)">
       <defs>
        <path id="ArialMT-36" d="M 3184 3459 
L 2625 3416 
Q 2550 3747 2413 3897 
Q 2184 4138 1850 4138 
Q 1581 4138 1378 3988 
Q 1113 3794 959 3422 
Q 806 3050 800 2363 
Q 1003 2672 1297 2822 
Q 1591 2972 1913 2972 
Q 2475 2972 2870 2558 
Q 3266 2144 3266 1488 
Q 3266 1056 3080 686 
Q 2894 316 2569 119 
Q 2244 -78 1831 -78 
Q 1128 -78 684 439 
Q 241 956 241 2144 
Q 241 3472 731 4075 
Q 1159 4600 1884 4600 
Q 2425 4600 2770 4297 
Q 3116 3994 3184 3459 
z
M 888 1484 
Q 888 1194 1011 928 
Q 1134 663 1356 523 
Q 1578 384 1822 384 
Q 2178 384 2434 671 
Q 2691 959 2691 1453 
Q 2691 1928 2437 2201 
Q 2184 2475 1800 2475 
Q 1419 2475 1153 2201 
Q 888 1928 888 1484 
z
" transform="scale(0.015625)"/>
       </defs>
       <use xlink:href="#ArialMT-31"/>
       <use xlink:href="#ArialMT-36" x="55.615234"/>
      </g>
     </g>
    </g>
    <g id="ytick_8">
     <g id="line2d_31">
      <path d="M 135 94.037409 
L 972 94.037409 
" clip-path="url(#pc39d0d7f73)" style="fill: none; stroke: #cccccc; stroke-width: 0.8; stroke-linecap: round"/>
     </g>
     <g id="line2d_32"/>
     <g id="text_17">
      <!-- 17 -->
      <g style="fill: #262626" transform="translate(120.378125 97.616316) scale(0.1 -0.1)">
       <defs>
        <path id="ArialMT-37" d="M 303 3981 
L 303 4522 
L 3269 4522 
L 3269 4084 
Q 2831 3619 2401 2847 
Q 1972 2075 1738 1259 
Q 1569 684 1522 0 
L 944 0 
Q 953 541 1156 1306 
Q 1359 2072 1739 2783 
Q 2119 3494 2547 3981 
L 303 3981 
z
" transform="scale(0.015625)"/>
       </defs>
       <use xlink:href="#ArialMT-31"/>
       <use xlink:href="#ArialMT-37" x="55.615234"/>
      </g>
     </g>
    </g>
    <g id="text_18">
     <!-- Adj Close -->
     <g style="fill: #262626" transform="translate(114.273438 312.278437) rotate(-90) scale(0.1 -0.1)">
      <defs>
       <path id="ArialMT-41" d="M -9 0 
L 1750 4581 
L 2403 4581 
L 4278 0 
L 3588 0 
L 3053 1388 
L 1138 1388 
L 634 0 
L -9 0 
z
M 1313 1881 
L 2866 1881 
L 2388 3150 
Q 2169 3728 2063 4100 
Q 1975 3659 1816 3225 
L 1313 1881 
z
" transform="scale(0.015625)"/>
       <path id="ArialMT-64" d="M 2575 0 
L 2575 419 
Q 2259 -75 1647 -75 
Q 1250 -75 917 144 
Q 584 363 401 755 
Q 219 1147 219 1656 
Q 219 2153 384 2558 
Q 550 2963 881 3178 
Q 1213 3394 1622 3394 
Q 1922 3394 2156 3267 
Q 2391 3141 2538 2938 
L 2538 4581 
L 3097 4581 
L 3097 0 
L 2575 0 
z
M 797 1656 
Q 797 1019 1065 703 
Q 1334 388 1700 388 
Q 2069 388 2326 689 
Q 2584 991 2584 1609 
Q 2584 2291 2321 2609 
Q 2059 2928 1675 2928 
Q 1300 2928 1048 2622 
Q 797 2316 797 1656 
z
" transform="scale(0.015625)"/>
       <path id="ArialMT-6a" d="M 419 3928 
L 419 4581 
L 981 4581 
L 981 3928 
L 419 3928 
z
M -294 -1288 
L -188 -809 
Q -19 -853 78 -853 
Q 250 -853 334 -739 
Q 419 -625 419 -169 
L 419 3319 
L 981 3319 
L 981 -181 
Q 981 -794 822 -1034 
Q 619 -1347 147 -1347 
Q -81 -1347 -294 -1288 
z
" transform="scale(0.015625)"/>
       <path id="ArialMT-20" transform="scale(0.015625)"/>
       <path id="ArialMT-43" d="M 3763 1606 
L 4369 1453 
Q 4178 706 3683 314 
Q 3188 -78 2472 -78 
Q 1731 -78 1267 223 
Q 803 525 561 1097 
Q 319 1669 319 2325 
Q 319 3041 592 3573 
Q 866 4106 1370 4382 
Q 1875 4659 2481 4659 
Q 3169 4659 3637 4309 
Q 4106 3959 4291 3325 
L 3694 3184 
Q 3534 3684 3231 3912 
Q 2928 4141 2469 4141 
Q 1941 4141 1586 3887 
Q 1231 3634 1087 3207 
Q 944 2781 944 2328 
Q 944 1744 1114 1308 
Q 1284 872 1643 656 
Q 2003 441 2422 441 
Q 2931 441 3284 734 
Q 3638 1028 3763 1606 
z
" transform="scale(0.015625)"/>
       <path id="ArialMT-6c" d="M 409 0 
L 409 4581 
L 972 4581 
L 972 0 
L 409 0 
z
" transform="scale(0.015625)"/>
       <path id="ArialMT-6f" d="M 213 1659 
Q 213 2581 725 3025 
Q 1153 3394 1769 3394 
Q 2453 3394 2887 2945 
Q 3322 2497 3322 1706 
Q 3322 1066 3130 698 
Q 2938 331 2570 128 
Q 2203 -75 1769 -75 
Q 1072 -75 642 372 
Q 213 819 213 1659 
z
M 791 1659 
Q 791 1022 1069 705 
Q 1347 388 1769 388 
Q 2188 388 2466 706 
Q 2744 1025 2744 1678 
Q 2744 2294 2464 2611 
Q 2184 2928 1769 2928 
Q 1347 2928 1069 2612 
Q 791 2297 791 1659 
z
" transform="scale(0.015625)"/>
       <path id="ArialMT-73" d="M 197 991 
L 753 1078 
Q 800 744 1014 566 
Q 1228 388 1613 388 
Q 2000 388 2187 545 
Q 2375 703 2375 916 
Q 2375 1106 2209 1216 
Q 2094 1291 1634 1406 
Q 1016 1563 777 1677 
Q 538 1791 414 1992 
Q 291 2194 291 2438 
Q 291 2659 392 2848 
Q 494 3038 669 3163 
Q 800 3259 1026 3326 
Q 1253 3394 1513 3394 
Q 1903 3394 2198 3281 
Q 2494 3169 2634 2976 
Q 2775 2784 2828 2463 
L 2278 2388 
Q 2241 2644 2061 2787 
Q 1881 2931 1553 2931 
Q 1166 2931 1000 2803 
Q 834 2675 834 2503 
Q 834 2394 903 2306 
Q 972 2216 1119 2156 
Q 1203 2125 1616 2013 
Q 2213 1853 2448 1751 
Q 2684 1650 2818 1456 
Q 2953 1263 2953 975 
Q 2953 694 2789 445 
Q 2625 197 2315 61 
Q 2006 -75 1616 -75 
Q 969 -75 630 194 
Q 291 463 197 991 
z
" transform="scale(0.015625)"/>
      </defs>
      <use xlink:href="#ArialMT-41"/>
      <use xlink:href="#ArialMT-64" x="66.699219"/>
      <use xlink:href="#ArialMT-6a" x="122.314453"/>
      <use xlink:href="#ArialMT-20" x="144.53125"/>
      <use xlink:href="#ArialMT-43" x="172.314453"/>
      <use xlink:href="#ArialMT-6c" x="244.53125"/>
      <use xlink:href="#ArialMT-6f" x="266.748047"/>
      <use xlink:href="#ArialMT-73" x="322.363281"/>
      <use xlink:href="#ArialMT-65" x="372.363281"/>
     </g>
    </g>
   </g>
   <g id="line2d_33">
    <path d="M 173.045455 349.879234 
L 179.839286 353.792205 
L 186.633117 280.71238 
L 193.426948 279.86794 
L 213.808442 282.341794 
L 220.602273 267.718696 
L 227.396104 245.28749 
L 234.189935 229.831844 
L 240.983766 212.116424 
L 268.159091 211.735832 
L 274.952922 209.725825 
L 281.746753 208.881384 
L 288.540584 204.474829 
L 308.922078 205.771225 
L 315.715909 207.632562 
L 322.50974 209.327389 
L 329.303571 213.442553 
L 336.097403 199.265461 
L 356.478896 193.514938 
L 363.272727 206.99626 
L 370.066558 209.981537 
L 376.86039 200.746207 
L 383.654221 198.789724 
L 404.035714 193.568461 
L 410.829545 198.486437 
L 417.623377 198.83135 
L 424.417208 193.663607 
L 431.211039 189.774421 
L 451.592532 185.355975 
L 458.386364 182.501526 
L 465.180195 184.023898 
L 471.974026 180.592614 
L 478.767857 192.165023 
L 505.943182 187.395716 
L 512.737013 190.476141 
L 519.530844 187.38382 
L 526.324675 196.678615 
L 546.706169 183.9228 
L 553.5 190.43451 
L 560.293831 194.603193 
L 567.087662 187.015119 
L 573.881494 177.946301 
L 594.262987 183.345965 
L 601.056818 183.304339 
L 607.850649 183.904958 
L 614.644481 175.187001 
L 621.438312 172.017374 
L 641.819805 196.916485 
L 648.613636 244.240858 
L 655.407468 252.435499 
L 662.201299 281.205961 
L 668.99513 283.114874 
L 689.376623 283.882003 
L 696.170455 285.309231 
L 702.964286 285.88607 
L 709.758117 285.487633 
L 716.551948 285.4579 
L 736.933442 289.269777 
L 743.727273 288.175572 
L 750.521104 287.450067 
L 757.314935 290.363983 
L 764.108766 275.734936 
L 784.49026 246.780127 
L 791.284091 278.833199 
L 798.077922 280.629123 
L 804.871753 278.851038 
L 832.047078 285.142719 
L 838.840909 276.97186 
L 845.63474 281.420043 
L 852.428571 346.031674 
L 859.222403 341.535918 
L 879.603896 352.210366 
L 886.397727 354.143063 
L 893.191558 343.379414 
L 899.98539 286.938647 
L 906.779221 342.719321 
L 927.160714 301.686627 
L 933.954545 335.886487 
" clip-path="url(#pc39d0d7f73)" style="fill: none; stroke: #1f77b4; stroke-width: 1.5; stroke-linecap: round"/>
   </g>
   <g id="line2d_34">
    <path d="M 173.045455 356.462053 
L 179.839286 357.148389 
L 186.633117 306.966613 
L 193.426948 285.337215 
L 213.808442 282.575104 
L 220.602273 259.253748 
L 227.396104 246.321464 
L 234.189935 247.62277 
L 240.983766 236.133318 
L 268.159091 226.767854 
L 274.952922 224.718022 
L 281.746753 240.850494 
L 288.540584 234.468263 
L 308.922078 233.226371 
L 315.715909 231.493362 
L 322.50974 227.706571 
L 329.303571 228.976857 
L 336.097403 228.256624 
L 356.478896 220.929565 
L 363.272727 225.491149 
L 370.066558 222.669742 
L 376.86039 223.312411 
L 383.654221 222.685005 
L 404.035714 227.519867 
L 410.829545 223.829125 
L 417.623377 232.284189 
L 424.417208 225.202607 
L 431.211039 223.138844 
L 451.592532 224.850705 
L 458.386364 226.6209 
L 465.180195 219.184046 
L 471.974026 221.55068 
L 478.767857 223.720954 
L 505.943182 230.382888 
L 512.737013 225.597466 
L 519.530844 223.359758 
L 526.324675 232.228966 
L 546.706169 226.61168 
L 553.5 218.973351 
L 560.293831 218.108104 
L 567.087662 227.781823 
L 573.881494 227.358237 
L 594.262987 231.15229 
L 601.056818 230.095041 
L 607.850649 229.607008 
L 614.644481 228.005624 
L 621.438312 221.912254 
L 641.819805 222.088085 
L 648.613636 254.128305 
L 655.407468 267.699638 
L 662.201299 294.043574 
L 668.99513 288.350037 
L 689.376623 292.175287 
L 696.170455 292.294537 
L 702.964286 291.597094 
L 709.758117 293.693604 
L 716.551948 308.133862 
L 736.933442 299.129565 
L 743.727273 295.75637 
L 750.521104 289.46425 
L 757.314935 291.528013 
L 764.108766 288.765618 
L 784.49026 262.037513 
L 791.284091 279.843494 
L 798.077922 286.043068 
L 804.871753 295.120073 
L 832.047078 278.763981 
L 838.840909 279.624528 
L 845.63474 276.183666 
L 852.428571 343.902784 
L 859.222403 338.712776 
L 879.603896 364.332115 
L 886.397727 345.098115 
L 893.191558 337.23646 
L 899.98539 308.556061 
L 906.779221 331.930955 
L 927.160714 299.25955 
L 933.954545 333.999758 
" clip-path="url(#pc39d0d7f73)" style="fill: none; stroke: #ff7f0e; stroke-width: 1.5; stroke-linecap: round"/>
   </g>
   <g id="line2d_35">
    <path d="M 173.045455 381.369963 
L 179.839286 334.479207 
L 186.633117 308.326209 
L 193.426948 332.148039 
L 213.808442 302.254957 
L 220.602273 321.504222 
L 227.396104 231.854738 
L 234.189935 234.711504 
L 240.983766 229.380947 
L 268.159091 222.183928 
L 274.952922 217.357044 
L 281.746753 241.240557 
L 288.540584 149.217453 
L 308.922078 183.570321 
L 315.715909 308.133969 
L 322.50974 162.214329 
L 329.303571 250.041483 
L 336.097403 311.512096 
L 356.478896 337.717937 
L 363.272727 329.075078 
L 370.066558 252.288285 
L 376.86039 167.666307 
L 383.654221 137.739062 
L 404.035714 191.581919 
L 410.829545 110.111209 
L 417.623377 215.883391 
L 424.417208 152.324632 
L 431.211039 211.988711 
L 451.592532 301.471674 
L 458.386364 238.406882 
L 465.180195 224.619662 
L 471.974026 270.66302 
L 478.767857 224.026071 
L 505.943182 288.501787 
L 512.737013 286.687536 
L 519.530844 221.09097 
L 526.324675 234.139078 
L 546.706169 265.798601 
L 553.5 189.391986 
L 560.293831 228.671992 
L 567.087662 209.272696 
L 573.881494 176.329156 
L 594.262987 256.708962 
L 601.056818 269.755144 
L 607.850649 245.529079 
L 614.644481 287.559961 
L 621.438312 327.773255 
L 641.819805 262.7405 
L 648.613636 263.638869 
L 655.407468 247.324435 
L 662.201299 279.192509 
L 668.99513 353.486774 
L 689.376623 362.739162 
L 696.170455 381.831362 
L 702.964286 374.426657 
L 709.758117 366.154123 
L 716.551948 356.555527 
L 736.933442 349.867199 
L 743.727273 338.914651 
L 750.521104 343.746209 
L 757.314935 412.766638 
L 764.108766 386.077065 
L 784.49026 338.941247 
L 791.284091 326.13902 
L 798.077922 295.570206 
L 804.871753 295.426767 
L 832.047078 294.80616 
L 838.840909 339.090107 
L 845.63474 355.334721 
L 852.428571 492.48 
L 859.222403 449.287653 
L 879.603896 489.260058 
L 886.397727 401.358743 
L 893.191558 350.304904 
L 899.98539 339.540827 
L 906.779221 392.391778 
L 927.160714 397.194827 
L 933.954545 392.578665 
" clip-path="url(#pc39d0d7f73)" style="fill: none; stroke: #2ca02c; stroke-width: 1.5; stroke-linecap: round"/>
   </g>
   <g id="line2d_36">
    <path d="M 173.045455 349.153724 
L 179.839286 399.701269 
L 186.633117 297.416856 
L 193.426948 289.686051 
L 213.808442 289.686051 
L 220.602273 236.165168 
L 227.396104 236.165168 
L 234.189935 254.005425 
L 240.983766 193.348428 
L 268.159091 193.348428 
L 274.952922 135.664826 
L 281.746753 135.664826 
L 288.540584 135.664826 
L 308.922078 135.664826 
L 315.715909 183.238919 
L 322.50974 183.238919 
L 329.303571 185.022933 
L 336.097403 185.022933 
L 356.478896 185.022933 
L 363.272727 185.022933 
L 370.066558 185.022933 
L 376.86039 185.022933 
L 383.654221 185.022933 
L 404.035714 185.022933 
L 410.829545 135.664826 
L 417.623377 135.664826 
L 424.417208 135.664826 
L 431.211039 135.664826 
L 451.592532 135.664826 
L 458.386364 135.664826 
L 465.180195 185.022933 
L 471.974026 185.022933 
L 478.767857 185.022933 
L 505.943182 222.487574 
L 512.737013 222.487574 
L 519.530844 185.022933 
L 526.324675 185.022933 
L 546.706169 185.022933 
L 553.5 185.022933 
L 560.293831 185.022933 
L 567.087662 185.022933 
L 573.881494 185.022933 
L 594.262987 185.022933 
L 601.056818 185.022933 
L 607.850649 185.022933 
L 614.644481 185.022933 
L 621.438312 185.022933 
L 641.819805 222.487574 
L 648.613636 312.878464 
L 655.407468 312.878464 
L 662.201299 299.20087 
L 668.99513 297.416856 
L 689.376623 273.035119 
L 696.170455 273.035119 
L 702.964286 297.416856 
L 709.758117 259.952215 
L 716.551948 297.416856 
L 736.933442 297.416856 
L 743.727273 297.416856 
L 750.521104 297.416856 
L 757.314935 297.416856 
L 764.108766 289.686051 
L 784.49026 203.457937 
L 791.284091 297.416856 
L 798.077922 297.416856 
L 804.871753 297.416856 
L 832.047078 297.416856 
L 838.840909 297.416856 
L 845.63474 297.416856 
L 852.428571 339.638906 
L 859.222403 290.280742 
L 879.603896 348.559034 
L 886.397727 381.860956 
L 893.191558 334.881497 
L 899.98539 297.416856 
L 906.779221 381.860956 
L 927.160714 297.416856 
L 933.954545 381.860956 
" clip-path="url(#pc39d0d7f73)" style="fill: none; stroke: #d62728; stroke-width: 1.5; stroke-linecap: round"/>
   </g>
   <g id="line2d_37">
    <path d="M 173.045455 298.225016 
L 179.839286 297.670072 
L 186.633117 296.097926 
L 193.426948 294.121164 
L 213.808442 291.985689 
L 220.602273 289.67926 
L 227.396104 287.013929 
L 234.189935 284.346746 
L 240.983766 280.165802 
L 268.159091 276.488701 
L 274.952922 273.294751 
L 281.746753 271.135421 
L 288.540584 269.863594 
L 308.922078 268.894629 
L 315.715909 268.474329 
L 322.50974 268.331535 
L 329.303571 267.94987 
L 336.097403 267.288682 
L 356.478896 267.027768 
L 363.272727 267.370082 
L 370.066558 267.245756 
L 376.86039 266.204565 
L 383.654221 264.795134 
L 404.035714 263.514047 
L 410.829545 262.355588 
L 417.623377 260.970373 
L 424.417208 259.868763 
L 431.211039 259.160613 
L 451.592532 258.847329 
L 458.386364 258.303671 
L 465.180195 257.424813 
L 471.974026 256.86112 
L 478.767857 257.145022 
L 505.943182 257.730111 
L 512.737013 259.535729 
L 519.530844 261.825337 
L 526.324675 264.172996 
L 546.706169 266.968694 
L 553.5 269.808701 
L 560.293831 272.565242 
L 567.087662 275.138571 
L 573.881494 277.309736 
L 594.262987 279.030958 
L 601.056818 280.715163 
L 607.850649 281.384928 
L 614.644481 281.571806 
L 621.438312 282.175301 
L 641.819805 283.184051 
L 648.613636 284.551447 
L 655.407468 285.576305 
L 662.201299 287.115731 
L 668.99513 288.024569 
L 689.376623 288.634753 
L 696.170455 288.859152 
L 702.964286 288.419152 
L 709.758117 288.302129 
L 716.551948 288.215678 
L 736.933442 287.997324 
L 743.727273 287.174069 
L 750.521104 286.333045 
L 757.314935 285.191597 
L 764.108766 283.854842 
L 784.49026 282.343363 
L 791.284091 281.248873 
L 798.077922 280.35577 
L 804.871753 279.725078 
L 832.047078 278.976338 
L 838.840909 277.849117 
L 845.63474 277.047259 
L 852.428571 278.163465 
L 859.222403 279.484859 
L 879.603896 280.983693 
L 886.397727 281.857411 
L 893.191558 282.650056 
L 899.98539 282.91998 
L 906.779221 283.416165 
L 927.160714 283.75125 
L 933.954545 284.185605 
" clip-path="url(#pc39d0d7f73)" style="fill: none; stroke: #9467bd; stroke-width: 1.5; stroke-linecap: round"/>
   </g>
   <g id="line2d_38">
    <path d="M 173.045455 355.933047 
L 179.839286 355.933047 
L 186.633117 355.933047 
L 193.426948 355.933047 
L 213.808442 343.206968 
L 220.602273 311.45123 
L 227.396104 288.73457 
L 234.189935 280.884827 
L 240.983766 271.132132 
L 268.159091 278.862937 
L 274.952922 282.312061 
L 281.746753 279.814419 
L 288.540584 274.343392 
L 308.922078 277.197849 
L 315.715909 275.889564 
L 322.50974 274.224477 
L 329.303571 272.559378 
L 336.097403 253.529718 
L 356.478896 240.090011 
L 363.272727 235.808343 
L 370.066558 235.808343 
L 376.86039 234.500047 
L 383.654221 246.155717 
L 404.035714 256.027349 
L 410.829545 256.027349 
L 417.623377 265.898982 
L 424.417208 273.39191 
L 431.211039 273.39191 
L 451.592532 262.925599 
L 458.386364 265.542179 
L 465.180195 256.740955 
L 471.974026 261.974117 
L 478.767857 268.277687 
L 505.943182 268.277687 
L 512.737013 264.9475 
L 519.530844 262.687734 
L 526.324675 275.770626 
L 546.706169 299.676622 
L 553.5 316.327566 
L 560.293831 322.987951 
L 567.087662 322.987951 
L 573.881494 326.437075 
L 594.262987 326.437075 
L 601.056818 319.776691 
L 607.850649 308.239959 
L 614.644481 293.254114 
L 621.438312 275.651677 
L 641.819805 270.180651 
L 648.613636 268.515563 
L 655.407468 264.828562 
L 662.201299 270.061712 
L 668.99513 273.154034 
L 689.376623 269.70491 
L 696.170455 279.21974 
L 702.964286 297.773659 
L 709.758117 316.089701 
L 716.551948 344.039512 
L 736.933442 364.258519 
L 743.727273 364.258519 
L 750.521104 369.96741 
L 757.314935 364.496395 
L 764.108766 309.072514 
L 784.49026 290.994336 
L 791.284091 274.105516 
L 798.077922 274.700184 
L 804.871753 281.598433 
L 832.047078 285.166496 
L 838.840909 275.056998 
L 845.63474 267.207267 
L 852.428571 264.709624 
L 859.222403 253.529707 
L 879.603896 254.124386 
L 886.397727 251.032064 
L 893.191558 253.529707 
L 899.98539 256.859893 
L 906.779221 260.784759 
L 927.160714 285.642236 
L 933.954545 277.911443 
" clip-path="url(#pc39d0d7f73)" style="fill: none; stroke: #8c564b; stroke-width: 1.5; stroke-linecap: round"/>
   </g>
   <g id="line2d_39">
    <path d="M 173.045455 358.764161 
L 179.839286 362.424404 
L 186.633117 350.296884 
L 193.426948 313.739138 
L 213.808442 315.592058 
L 220.602273 288.329935 
L 227.396104 286.021327 
L 234.189935 281.888439 
L 240.983766 290.05355 
L 268.159091 285.149085 
L 274.952922 288.63505 
L 281.746753 288.770764 
L 288.540584 288.987293 
L 308.922078 269.760125 
L 315.715909 278.440188 
L 322.50974 282.231382 
L 329.303571 284.246104 
L 336.097403 282.359212 
L 356.478896 284.112148 
L 363.272727 276.902251 
L 370.066558 272.763805 
L 376.86039 271.83587 
L 383.654221 282.475133 
L 404.035714 278.157191 
L 410.829545 282.57421 
L 417.623377 286.903495 
L 424.417208 287.966293 
L 431.211039 275.526171 
L 451.592532 289.07015 
L 458.386364 283.40097 
L 465.180195 282.798793 
L 471.974026 282.896679 
L 478.767857 283.775728 
L 505.943182 279.046108 
L 512.737013 271.444268 
L 519.530844 272.152327 
L 526.324675 272.37708 
L 546.706169 273.443961 
L 553.5 275.808771 
L 560.293831 274.723912 
L 567.087662 273.125746 
L 573.881494 274.711946 
L 594.262987 279.206775 
L 601.056818 284.934257 
L 607.850649 285.324157 
L 614.644481 281.140908 
L 621.438312 284.621089 
L 641.819805 289.041567 
L 648.613636 301.341948 
L 655.407468 303.55369 
L 662.201299 322.607998 
L 668.99513 329.802299 
L 689.376623 335.859112 
L 696.170455 329.769689 
L 702.964286 332.14414 
L 709.758117 346.513631 
L 716.551948 347.924531 
L 736.933442 360.252475 
L 743.727273 344.245062 
L 750.521104 334.962482 
L 757.314935 324.910197 
L 764.108766 317.79569 
L 784.49026 316.219075 
L 791.284091 321.723051 
L 798.077922 325.069276 
L 804.871753 319.497074 
L 832.047078 306.832427 
L 838.840909 304.089059 
L 845.63474 303.51297 
L 852.428571 339.931204 
L 859.222403 358.117975 
L 879.603896 376.427587 
L 886.397727 360.672263 
L 893.191558 352.746537 
L 899.98539 349.116407 
L 906.779221 334.240869 
L 927.160714 337.50038 
L 933.954545 339.500924 
" clip-path="url(#pc39d0d7f73)" style="fill: none; stroke: #e377c2; stroke-width: 1.5; stroke-linecap: round"/>
   </g>
   <g id="line2d_40">
    <path d="M 173.045455 354.698201 
L 179.839286 345.853512 
L 186.633117 313.856272 
L 193.426948 304.415634 
L 213.808442 279.053426 
L 220.602273 263.610254 
L 227.396104 238.478929 
L 234.189935 219.358701 
L 240.983766 159.751455 
L 268.159091 142.887519 
L 274.952922 134.128448 
L 281.746753 150.838762 
L 288.540584 159.948217 
L 308.922078 161.965224 
L 315.715909 184.958916 
L 322.50974 191.273115 
L 329.303571 182.72216 
L 336.097403 170.854379 
L 356.478896 174.988015 
L 363.272727 190.529312 
L 370.066558 174.941195 
L 376.86039 150.789205 
L 383.654221 133.425953 
L 404.035714 134.537032 
L 410.829545 129.326291 
L 417.623377 119.106853 
L 424.417208 118.861118 
L 431.211039 131.42336 
L 451.592532 139.556231 
L 458.386364 139.108382 
L 465.180195 129.995905 
L 471.974026 123.114752 
L 478.767857 130.658012 
L 505.943182 143.793321 
L 512.737013 166.075835 
L 519.530844 169.394411 
L 526.324675 172.549885 
L 546.706169 192.092355 
L 553.5 192.553743 
L 560.293831 197.333234 
L 567.087662 191.854465 
L 573.881494 182.91083 
L 594.262987 192.756707 
L 601.056818 192.197884 
L 607.850649 178.176978 
L 614.644481 171.969791 
L 621.438312 183.791263 
L 641.819805 194.766919 
L 648.613636 222.115519 
L 655.407468 232.328185 
L 662.201299 275.501266 
L 668.99513 289.318777 
L 689.376623 292.687793 
L 696.170455 299.078201 
L 702.964286 298.074543 
L 709.758117 312.75604 
L 716.551948 320.526149 
L 736.933442 318.984032 
L 743.727273 307.291463 
L 750.521104 297.03001 
L 757.314935 301.776269 
L 764.108766 278.485601 
L 784.49026 251.270496 
L 791.284091 261.724955 
L 798.077922 266.458203 
L 804.871753 280.252986 
L 832.047078 269.452645 
L 838.840909 259.488704 
L 845.63474 253.960607 
L 852.428571 311.242858 
L 859.222403 321.109943 
L 879.603896 333.474973 
L 886.397727 327.708975 
L 893.191558 336.226792 
L 899.98539 322.077084 
L 906.779221 326.79228 
L 927.160714 322.462911 
L 933.954545 322.446138 
" clip-path="url(#pc39d0d7f73)" style="fill: none; stroke: #7f7f7f; stroke-width: 1.5; stroke-linecap: round"/>
   </g>
   <g id="line2d_41">
    <path d="M 173.045455 310.293674 
L 179.839286 308.989853 
L 186.633117 294.29498 
L 193.426948 281.445826 
L 213.808442 273.782926 
L 220.602273 264.335793 
L 227.396104 250.921074 
L 234.189935 243.712182 
L 240.983766 216.351062 
L 268.159091 201.937367 
L 274.952922 196.567721 
L 281.746753 203.573653 
L 288.540584 212.845654 
L 308.922078 215.455939 
L 315.715909 218.584913 
L 322.50974 222.419371 
L 329.303571 219.742455 
L 336.097403 212.090992 
L 356.478896 212.350983 
L 363.272727 220.93487 
L 370.066558 221.752068 
L 376.86039 212.055841 
L 383.654221 201.253973 
L 404.035714 198.221376 
L 410.829545 199.540843 
L 417.623377 199.278154 
L 424.417208 198.807259 
L 431.211039 203.818493 
L 451.592532 212.311139 
L 458.386364 211.499633 
L 465.180195 205.676228 
L 471.974026 202.348824 
L 478.767857 208.625317 
L 505.943182 212.104659 
L 512.737013 224.590467 
L 519.530844 231.940116 
L 526.324675 228.815425 
L 546.706169 232.087245 
L 553.5 232.703371 
L 560.293831 226.707482 
L 567.087662 222.999663 
L 573.881494 220.570863 
L 594.262987 215.977371 
L 601.056818 218.027658 
L 607.850649 215.053619 
L 614.644481 209.651991 
L 621.438312 219.5614 
L 641.819805 231.528833 
L 648.613636 246.18081 
L 655.407468 254.625437 
L 662.201299 270.782887 
L 668.99513 272.785745 
L 689.376623 274.555026 
L 696.170455 275.332354 
L 702.964286 268.788302 
L 709.758117 275.299467 
L 716.551948 281.846746 
L 736.933442 283.009445 
L 743.727273 279.023323 
L 750.521104 276.424393 
L 757.314935 269.623918 
L 764.108766 264.767623 
L 784.49026 258.329123 
L 791.284091 261.614245 
L 798.077922 267.901922 
L 804.871753 274.857698 
L 832.047078 275.38774 
L 838.840909 272.505045 
L 845.63474 268.279592 
L 852.428571 289.436396 
L 859.222403 299.889033 
L 879.603896 305.590176 
L 886.397727 301.700618 
L 893.191558 296.859418 
L 899.98539 289.03902 
L 906.779221 291.507803 
L 927.160714 291.841371 
L 933.954545 292.966853 
" clip-path="url(#pc39d0d7f73)" style="fill: none; stroke: #bcbd22; stroke-width: 1.5; stroke-linecap: round"/>
   </g>
   <g id="line2d_42">
    <path d="M 757.314935 297.772785 
L 764.108766 297.623744 
L 784.49026 303.732052 
L 791.284091 301.113509 
L 798.077922 297.282049 
L 804.871753 299.61907 
L 832.047078 308.047555 
L 838.840909 317.441689 
L 845.63474 321.511966 
L 852.428571 278.318993 
L 859.222403 277.033938 
L 879.603896 297.88122 
L 886.397727 315.482886 
L 893.191558 322.413189 
L 899.98539 322.074444 
L 906.779221 314.757473 
L 927.160714 320.766193 
L 933.954545 328.028663 
" clip-path="url(#pc39d0d7f73)" style="fill: none; stroke: #17becf; stroke-width: 1.5; stroke-linecap: round"/>
   </g>
   <g id="line2d_43">
    <path d="M 757.314935 311.261696 
L 764.108766 306.847286 
L 784.49026 299.979877 
L 791.284091 286.590157 
L 798.077922 277.007736 
L 804.871753 277.668781 
L 832.047078 285.543749 
L 838.840909 292.285652 
L 845.63474 294.709387 
L 852.428571 275.621109 
L 859.222403 291.536023 
L 879.603896 314.513494 
L 886.397727 332.002075 
L 893.191558 351.69304 
L 899.98539 351.476057 
L 906.779221 345.760768 
L 927.160714 343.765669 
L 933.954545 337.259634 
" clip-path="url(#pc39d0d7f73)" style="fill: none; stroke: #1f77b4; stroke-width: 1.5; stroke-linecap: round"/>
   </g>
   <g id="line2d_44">
    <path d="M 173.045455 347.36971 
L 179.839286 296.822165 
L 186.633117 273.035119 
L 193.426948 261.736229 
L 213.808442 236.165168 
L 220.602273 201.673922 
L 227.396104 192.753737 
L 234.189935 104.146918 
L 240.983766 92.848029 
L 268.159091 89.28 
L 274.952922 115.445808 
L 281.746753 136.854093 
L 288.540584 133.286064 
L 308.922078 143.395573 
L 315.715909 152.315702 
L 322.50974 138.043474 
L 329.303571 117.229766 
L 336.097403 127.933965 
L 356.478896 155.883787 
L 363.272727 145.179644 
L 370.066558 112.472356 
L 376.86039 90.469381 
L 383.654221 92.848029 
L 404.035714 98.794819 
L 410.829545 96.416171 
L 417.623377 95.82148 
L 424.417208 114.256427 
L 431.211039 136.854093 
L 451.592532 123.176555 
L 458.386364 106.525566 
L 465.180195 105.930989 
L 471.974026 130.312726 
L 478.767857 132.096684 
L 505.943182 171.940086 
L 512.737013 179.670834 
L 519.530844 161.235887 
L 526.324675 179.670834 
L 546.706169 175.508115 
L 553.5 154.694463 
L 560.293831 151.721011 
L 567.087662 146.368912 
L 573.881494 132.096684 
L 594.262987 146.368912 
L 601.056818 132.096684 
L 607.850649 118.419146 
L 614.644481 160.641196 
L 621.438312 185.617624 
L 641.819805 221.892884 
L 648.613636 233.191773 
L 655.407468 280.765923 
L 662.201299 265.304315 
L 668.99513 273.629809 
L 689.376623 274.819133 
L 696.170455 250.437396 
L 702.964286 283.144628 
L 709.758117 294.443461 
L 716.551948 289.091361 
L 736.933442 276.008514 
L 743.727273 273.629809 
L 750.521104 251.62672 
L 757.314935 244.490606 
L 764.108766 227.839674 
L 784.49026 247.464001 
L 791.284091 262.92561 
L 798.077922 278.981852 
L 804.871753 271.845738 
L 832.047078 263.5203 
L 838.840909 253.410791 
L 845.63474 331.908102 
L 852.428571 334.881497 
L 859.222403 344.396315 
L 879.603896 325.961312 
L 886.397727 314.662479 
L 893.191558 294.443461 
L 899.98539 312.878464 
L 906.779221 308.121055 
L 927.160714 312.878464 
L 933.954545 341.42292 
" clip-path="url(#pc39d0d7f73)" style="fill: none; stroke: #000000; stroke-width: 2; stroke-linecap: round"/>
   </g>
   <g id="patch_3">
    <path d="M 135 512.64 
L 135 69.12 
" style="fill: none; stroke: #cccccc; stroke-linejoin: miter; stroke-linecap: square"/>
   </g>
   <g id="patch_4">
    <path d="M 972 512.64 
L 972 69.12 
" style="fill: none; stroke: #cccccc; stroke-linejoin: miter; stroke-linecap: square"/>
   </g>
   <g id="patch_5">
    <path d="M 135 512.64 
L 972 512.64 
" style="fill: none; stroke: #cccccc; stroke-linejoin: miter; stroke-linecap: square"/>
   </g>
   <g id="patch_6">
    <path d="M 135 69.12 
L 972 69.12 
" style="fill: none; stroke: #cccccc; stroke-linejoin: miter; stroke-linecap: square"/>
   </g>
   <g id="text_19">
    <!-- Tahminler ve Gerçek Değerler -->
    <g style="fill: #262626" transform="translate(473.811563 63.12) scale(0.12 -0.12)">
     <defs>
      <path id="ArialMT-54" d="M 1659 0 
L 1659 4041 
L 150 4041 
L 150 4581 
L 3781 4581 
L 3781 4041 
L 2266 4041 
L 2266 0 
L 1659 0 
z
" transform="scale(0.015625)"/>
      <path id="ArialMT-68" d="M 422 0 
L 422 4581 
L 984 4581 
L 984 2938 
Q 1378 3394 1978 3394 
Q 2347 3394 2619 3248 
Q 2891 3103 3008 2847 
Q 3125 2591 3125 2103 
L 3125 0 
L 2563 0 
L 2563 2103 
Q 2563 2525 2380 2717 
Q 2197 2909 1863 2909 
Q 1613 2909 1392 2779 
Q 1172 2650 1078 2428 
Q 984 2206 984 1816 
L 984 0 
L 422 0 
z
" transform="scale(0.015625)"/>
      <path id="ArialMT-6d" d="M 422 0 
L 422 3319 
L 925 3319 
L 925 2853 
Q 1081 3097 1340 3245 
Q 1600 3394 1931 3394 
Q 2300 3394 2536 3241 
Q 2772 3088 2869 2813 
Q 3263 3394 3894 3394 
Q 4388 3394 4653 3120 
Q 4919 2847 4919 2278 
L 4919 0 
L 4359 0 
L 4359 2091 
Q 4359 2428 4304 2576 
Q 4250 2725 4106 2815 
Q 3963 2906 3769 2906 
Q 3419 2906 3187 2673 
Q 2956 2441 2956 1928 
L 2956 0 
L 2394 0 
L 2394 2156 
Q 2394 2531 2256 2718 
Q 2119 2906 1806 2906 
Q 1569 2906 1367 2781 
Q 1166 2656 1075 2415 
Q 984 2175 984 1722 
L 984 0 
L 422 0 
z
" transform="scale(0.015625)"/>
      <path id="ArialMT-69" d="M 425 3934 
L 425 4581 
L 988 4581 
L 988 3934 
L 425 3934 
z
M 425 0 
L 425 3319 
L 988 3319 
L 988 0 
L 425 0 
z
" transform="scale(0.015625)"/>
      <path id="ArialMT-6e" d="M 422 0 
L 422 3319 
L 928 3319 
L 928 2847 
Q 1294 3394 1984 3394 
Q 2284 3394 2536 3286 
Q 2788 3178 2913 3003 
Q 3038 2828 3088 2588 
Q 3119 2431 3119 2041 
L 3119 0 
L 2556 0 
L 2556 2019 
Q 2556 2363 2490 2533 
Q 2425 2703 2258 2804 
Q 2091 2906 1866 2906 
Q 1506 2906 1245 2678 
Q 984 2450 984 1813 
L 984 0 
L 422 0 
z
" transform="scale(0.015625)"/>
      <path id="ArialMT-72" d="M 416 0 
L 416 3319 
L 922 3319 
L 922 2816 
Q 1116 3169 1280 3281 
Q 1444 3394 1641 3394 
Q 1925 3394 2219 3213 
L 2025 2691 
Q 1819 2813 1613 2813 
Q 1428 2813 1281 2702 
Q 1134 2591 1072 2394 
Q 978 2094 978 1738 
L 978 0 
L 416 0 
z
" transform="scale(0.015625)"/>
      <path id="ArialMT-76" d="M 1344 0 
L 81 3319 
L 675 3319 
L 1388 1331 
Q 1503 1009 1600 663 
Q 1675 925 1809 1294 
L 2547 3319 
L 3125 3319 
L 1869 0 
L 1344 0 
z
" transform="scale(0.015625)"/>
      <path id="ArialMT-47" d="M 2638 1797 
L 2638 2334 
L 4578 2338 
L 4578 638 
Q 4131 281 3656 101 
Q 3181 -78 2681 -78 
Q 2006 -78 1454 211 
Q 903 500 622 1047 
Q 341 1594 341 2269 
Q 341 2938 620 3517 
Q 900 4097 1425 4378 
Q 1950 4659 2634 4659 
Q 3131 4659 3532 4498 
Q 3934 4338 4162 4050 
Q 4391 3763 4509 3300 
L 3963 3150 
Q 3859 3500 3706 3700 
Q 3553 3900 3268 4020 
Q 2984 4141 2638 4141 
Q 2222 4141 1919 4014 
Q 1616 3888 1430 3681 
Q 1244 3475 1141 3228 
Q 966 2803 966 2306 
Q 966 1694 1177 1281 
Q 1388 869 1791 669 
Q 2194 469 2647 469 
Q 3041 469 3416 620 
Q 3791 772 3984 944 
L 3984 1797 
L 2638 1797 
z
" transform="scale(0.015625)"/>
      <path id="ArialMT-e7" d="M 2588 1216 
L 3141 1144 
Q 3050 572 2676 248 
Q 2303 -75 1759 -75 
Q 1078 -75 664 370 
Q 250 816 250 1647 
Q 250 2184 428 2587 
Q 606 2991 970 3192 
Q 1334 3394 1763 3394 
Q 2303 3394 2647 3120 
Q 2991 2847 3088 2344 
L 2541 2259 
Q 2463 2594 2264 2762 
Q 2066 2931 1784 2931 
Q 1359 2931 1093 2626 
Q 828 2322 828 1663 
Q 828 994 1084 691 
Q 1341 388 1753 388 
Q 2084 388 2306 591 
Q 2528 794 2588 1216 
z
M 1283 -417 
L 1446 136 
L 1864 136 
L 1761 -199 
Q 2027 -230 2161 -362 
Q 2296 -495 2296 -658 
Q 2296 -892 2071 -1072 
Q 1846 -1252 1392 -1252 
Q 1136 -1252 942 -1214 
L 977 -849 
Q 1177 -861 1271 -861 
Q 1564 -861 1683 -780 
Q 1774 -717 1774 -627 
Q 1774 -570 1738 -526 
Q 1702 -483 1605 -451 
Q 1508 -420 1283 -417 
z
" transform="scale(0.015625)"/>
      <path id="ArialMT-6b" d="M 425 0 
L 425 4581 
L 988 4581 
L 988 1969 
L 2319 3319 
L 3047 3319 
L 1778 2088 
L 3175 0 
L 2481 0 
L 1384 1697 
L 988 1316 
L 988 0 
L 425 0 
z
" transform="scale(0.015625)"/>
      <path id="ArialMT-11f" d="M 319 -275 
L 866 -356 
Q 900 -609 1056 -725 
Q 1266 -881 1628 -881 
Q 2019 -881 2231 -725 
Q 2444 -569 2519 -288 
Q 2563 -116 2559 434 
Q 2191 0 1641 0 
Q 956 0 581 494 
Q 206 988 206 1678 
Q 206 2153 378 2554 
Q 550 2956 876 3175 
Q 1203 3394 1644 3394 
Q 2231 3394 2613 2919 
L 2613 3319 
L 3131 3319 
L 3131 450 
Q 3131 -325 2973 -648 
Q 2816 -972 2473 -1159 
Q 2131 -1347 1631 -1347 
Q 1038 -1347 672 -1080 
Q 306 -813 319 -275 
z
M 784 1719 
Q 784 1066 1043 766 
Q 1303 466 1694 466 
Q 2081 466 2343 764 
Q 2606 1063 2606 1700 
Q 2606 2309 2336 2618 
Q 2066 2928 1684 2928 
Q 1309 2928 1046 2623 
Q 784 2319 784 1719 
z
M 2318 4575 
L 2703 4575 
Q 2656 4184 2417 3975 
Q 2178 3766 1781 3766 
Q 1381 3766 1142 3973 
Q 903 4181 856 4575 
L 1240 4575 
Q 1284 4363 1413 4258 
Q 1543 4153 1762 4153 
Q 2015 4153 2145 4254 
Q 2275 4356 2318 4575 
z
" transform="scale(0.015625)"/>
     </defs>
     <use xlink:href="#ArialMT-54"/>
     <use xlink:href="#ArialMT-61" x="49.958984"/>
     <use xlink:href="#ArialMT-68" x="105.574219"/>
     <use xlink:href="#ArialMT-6d" x="161.189453"/>
     <use xlink:href="#ArialMT-69" x="244.490234"/>
     <use xlink:href="#ArialMT-6e" x="266.707031"/>
     <use xlink:href="#ArialMT-6c" x="322.322266"/>
     <use xlink:href="#ArialMT-65" x="344.539062"/>
     <use xlink:href="#ArialMT-72" x="400.154297"/>
     <use xlink:href="#ArialMT-20" x="433.455078"/>
     <use xlink:href="#ArialMT-76" x="461.238281"/>
     <use xlink:href="#ArialMT-65" x="511.238281"/>
     <use xlink:href="#ArialMT-20" x="566.853516"/>
     <use xlink:href="#ArialMT-47" x="594.636719"/>
     <use xlink:href="#ArialMT-65" x="672.419922"/>
     <use xlink:href="#ArialMT-72" x="728.035156"/>
     <use xlink:href="#ArialMT-e7" x="761.335938"/>
     <use xlink:href="#ArialMT-65" x="811.335938"/>
     <use xlink:href="#ArialMT-6b" x="866.951172"/>
     <use xlink:href="#ArialMT-20" x="916.951172"/>
     <use xlink:href="#ArialMT-44" x="944.734375"/>
     <use xlink:href="#ArialMT-65" x="1016.951172"/>
     <use xlink:href="#ArialMT-11f" x="1072.566406"/>
     <use xlink:href="#ArialMT-65" x="1128.181641"/>
     <use xlink:href="#ArialMT-72" x="1183.796875"/>
     <use xlink:href="#ArialMT-6c" x="1217.097656"/>
     <use xlink:href="#ArialMT-65" x="1239.314453"/>
     <use xlink:href="#ArialMT-72" x="1294.929688"/>
    </g>
   </g>
   <g id="legend_1">
    <g id="line2d_45">
     <path d="M 841.63125 81.777813 
L 851.63125 81.777813 
L 861.63125 81.777813 
" style="fill: none; stroke: #1f77b4; stroke-width: 1.5; stroke-linecap: round"/>
    </g>
    <g id="text_20">
     <!-- Random Forest -->
     <g style="fill: #262626" transform="translate(869.63125 85.277813) scale(0.1 -0.1)">
      <defs>
       <path id="ArialMT-52" d="M 503 0 
L 503 4581 
L 2534 4581 
Q 3147 4581 3465 4457 
Q 3784 4334 3975 4021 
Q 4166 3709 4166 3331 
Q 4166 2844 3850 2509 
Q 3534 2175 2875 2084 
Q 3116 1969 3241 1856 
Q 3506 1613 3744 1247 
L 4541 0 
L 3778 0 
L 3172 953 
Q 2906 1366 2734 1584 
Q 2563 1803 2427 1890 
Q 2291 1978 2150 2013 
Q 2047 2034 1813 2034 
L 1109 2034 
L 1109 0 
L 503 0 
z
M 1109 2559 
L 2413 2559 
Q 2828 2559 3062 2645 
Q 3297 2731 3419 2920 
Q 3541 3109 3541 3331 
Q 3541 3656 3305 3865 
Q 3069 4075 2559 4075 
L 1109 4075 
L 1109 2559 
z
" transform="scale(0.015625)"/>
       <path id="ArialMT-46" d="M 525 0 
L 525 4581 
L 3616 4581 
L 3616 4041 
L 1131 4041 
L 1131 2622 
L 3281 2622 
L 3281 2081 
L 1131 2081 
L 1131 0 
L 525 0 
z
" transform="scale(0.015625)"/>
      </defs>
      <use xlink:href="#ArialMT-52"/>
      <use xlink:href="#ArialMT-61" x="72.216797"/>
      <use xlink:href="#ArialMT-6e" x="127.832031"/>
      <use xlink:href="#ArialMT-64" x="183.447266"/>
      <use xlink:href="#ArialMT-6f" x="239.0625"/>
      <use xlink:href="#ArialMT-6d" x="294.677734"/>
      <use xlink:href="#ArialMT-20" x="377.978516"/>
      <use xlink:href="#ArialMT-46" x="405.761719"/>
      <use xlink:href="#ArialMT-6f" x="466.845703"/>
      <use xlink:href="#ArialMT-72" x="522.460938"/>
      <use xlink:href="#ArialMT-65" x="555.761719"/>
      <use xlink:href="#ArialMT-73" x="611.376953"/>
      <use xlink:href="#ArialMT-74" x="661.376953"/>
     </g>
    </g>
    <g id="line2d_46">
     <path d="M 841.63125 96.045 
L 851.63125 96.045 
L 861.63125 96.045 
" style="fill: none; stroke: #ff7f0e; stroke-width: 1.5; stroke-linecap: round"/>
    </g>
    <g id="text_21">
     <!-- Gradient Boosting -->
     <g style="fill: #262626" transform="translate(869.63125 99.545) scale(0.1 -0.1)">
      <defs>
       <path id="ArialMT-42" d="M 469 0 
L 469 4581 
L 2188 4581 
Q 2713 4581 3030 4442 
Q 3347 4303 3526 4014 
Q 3706 3725 3706 3409 
Q 3706 3116 3547 2856 
Q 3388 2597 3066 2438 
Q 3481 2316 3704 2022 
Q 3928 1728 3928 1328 
Q 3928 1006 3792 729 
Q 3656 453 3456 303 
Q 3256 153 2954 76 
Q 2653 0 2216 0 
L 469 0 
z
M 1075 2656 
L 2066 2656 
Q 2469 2656 2644 2709 
Q 2875 2778 2992 2937 
Q 3109 3097 3109 3338 
Q 3109 3566 3000 3739 
Q 2891 3913 2687 3977 
Q 2484 4041 1991 4041 
L 1075 4041 
L 1075 2656 
z
M 1075 541 
L 2216 541 
Q 2509 541 2628 563 
Q 2838 600 2978 687 
Q 3119 775 3209 942 
Q 3300 1109 3300 1328 
Q 3300 1584 3169 1773 
Q 3038 1963 2805 2039 
Q 2572 2116 2134 2116 
L 1075 2116 
L 1075 541 
z
" transform="scale(0.015625)"/>
       <path id="ArialMT-67" d="M 319 -275 
L 866 -356 
Q 900 -609 1056 -725 
Q 1266 -881 1628 -881 
Q 2019 -881 2231 -725 
Q 2444 -569 2519 -288 
Q 2563 -116 2559 434 
Q 2191 0 1641 0 
Q 956 0 581 494 
Q 206 988 206 1678 
Q 206 2153 378 2554 
Q 550 2956 876 3175 
Q 1203 3394 1644 3394 
Q 2231 3394 2613 2919 
L 2613 3319 
L 3131 3319 
L 3131 450 
Q 3131 -325 2973 -648 
Q 2816 -972 2473 -1159 
Q 2131 -1347 1631 -1347 
Q 1038 -1347 672 -1080 
Q 306 -813 319 -275 
z
M 784 1719 
Q 784 1066 1043 766 
Q 1303 466 1694 466 
Q 2081 466 2343 764 
Q 2606 1063 2606 1700 
Q 2606 2309 2336 2618 
Q 2066 2928 1684 2928 
Q 1309 2928 1046 2623 
Q 784 2319 784 1719 
z
" transform="scale(0.015625)"/>
      </defs>
      <use xlink:href="#ArialMT-47"/>
      <use xlink:href="#ArialMT-72" x="77.783203"/>
      <use xlink:href="#ArialMT-61" x="111.083984"/>
      <use xlink:href="#ArialMT-64" x="166.699219"/>
      <use xlink:href="#ArialMT-69" x="222.314453"/>
      <use xlink:href="#ArialMT-65" x="244.53125"/>
      <use xlink:href="#ArialMT-6e" x="300.146484"/>
      <use xlink:href="#ArialMT-74" x="355.761719"/>
      <use xlink:href="#ArialMT-20" x="383.544922"/>
      <use xlink:href="#ArialMT-42" x="411.328125"/>
      <use xlink:href="#ArialMT-6f" x="478.027344"/>
      <use xlink:href="#ArialMT-6f" x="533.642578"/>
      <use xlink:href="#ArialMT-73" x="589.257812"/>
      <use xlink:href="#ArialMT-74" x="639.257812"/>
      <use xlink:href="#ArialMT-69" x="667.041016"/>
      <use xlink:href="#ArialMT-6e" x="689.257812"/>
      <use xlink:href="#ArialMT-67" x="744.873047"/>
     </g>
    </g>
    <g id="line2d_47">
     <path d="M 841.63125 110.3075 
L 851.63125 110.3075 
L 861.63125 110.3075 
" style="fill: none; stroke: #2ca02c; stroke-width: 1.5; stroke-linecap: round"/>
    </g>
    <g id="text_22">
     <!-- Linear Regression -->
     <g style="fill: #262626" transform="translate(869.63125 113.8075) scale(0.1 -0.1)">
      <defs>
       <path id="ArialMT-4c" d="M 469 0 
L 469 4581 
L 1075 4581 
L 1075 541 
L 3331 541 
L 3331 0 
L 469 0 
z
" transform="scale(0.015625)"/>
      </defs>
      <use xlink:href="#ArialMT-4c"/>
      <use xlink:href="#ArialMT-69" x="55.615234"/>
      <use xlink:href="#ArialMT-6e" x="77.832031"/>
      <use xlink:href="#ArialMT-65" x="133.447266"/>
      <use xlink:href="#ArialMT-61" x="189.0625"/>
      <use xlink:href="#ArialMT-72" x="244.677734"/>
      <use xlink:href="#ArialMT-20" x="277.978516"/>
      <use xlink:href="#ArialMT-52" x="305.761719"/>
      <use xlink:href="#ArialMT-65" x="377.978516"/>
      <use xlink:href="#ArialMT-67" x="433.59375"/>
      <use xlink:href="#ArialMT-72" x="489.208984"/>
      <use xlink:href="#ArialMT-65" x="522.509766"/>
      <use xlink:href="#ArialMT-73" x="578.125"/>
      <use xlink:href="#ArialMT-73" x="628.125"/>
      <use xlink:href="#ArialMT-69" x="678.125"/>
      <use xlink:href="#ArialMT-6f" x="700.341797"/>
      <use xlink:href="#ArialMT-6e" x="755.957031"/>
     </g>
    </g>
    <g id="line2d_48">
     <path d="M 841.63125 124.57 
L 851.63125 124.57 
L 861.63125 124.57 
" style="fill: none; stroke: #d62728; stroke-width: 1.5; stroke-linecap: round"/>
    </g>
    <g id="text_23">
     <!-- Decision Tree -->
     <g style="fill: #262626" transform="translate(869.63125 128.07) scale(0.1 -0.1)">
      <defs>
       <path id="ArialMT-63" d="M 2588 1216 
L 3141 1144 
Q 3050 572 2676 248 
Q 2303 -75 1759 -75 
Q 1078 -75 664 370 
Q 250 816 250 1647 
Q 250 2184 428 2587 
Q 606 2991 970 3192 
Q 1334 3394 1763 3394 
Q 2303 3394 2647 3120 
Q 2991 2847 3088 2344 
L 2541 2259 
Q 2463 2594 2264 2762 
Q 2066 2931 1784 2931 
Q 1359 2931 1093 2626 
Q 828 2322 828 1663 
Q 828 994 1084 691 
Q 1341 388 1753 388 
Q 2084 388 2306 591 
Q 2528 794 2588 1216 
z
" transform="scale(0.015625)"/>
      </defs>
      <use xlink:href="#ArialMT-44"/>
      <use xlink:href="#ArialMT-65" x="72.216797"/>
      <use xlink:href="#ArialMT-63" x="127.832031"/>
      <use xlink:href="#ArialMT-69" x="177.832031"/>
      <use xlink:href="#ArialMT-73" x="200.048828"/>
      <use xlink:href="#ArialMT-69" x="250.048828"/>
      <use xlink:href="#ArialMT-6f" x="272.265625"/>
      <use xlink:href="#ArialMT-6e" x="327.880859"/>
      <use xlink:href="#ArialMT-20" x="383.496094"/>
      <use xlink:href="#ArialMT-54" x="409.529297"/>
      <use xlink:href="#ArialMT-72" x="466.863281"/>
      <use xlink:href="#ArialMT-65" x="500.164062"/>
      <use xlink:href="#ArialMT-65" x="555.779297"/>
     </g>
    </g>
    <g id="line2d_49">
     <path d="M 841.63125 138.715313 
L 851.63125 138.715313 
L 861.63125 138.715313 
" style="fill: none; stroke: #9467bd; stroke-width: 1.5; stroke-linecap: round"/>
    </g>
    <g id="text_24">
     <!-- SVR -->
     <g style="fill: #262626" transform="translate(869.63125 142.215313) scale(0.1 -0.1)">
      <defs>
       <path id="ArialMT-53" d="M 288 1472 
L 859 1522 
Q 900 1178 1048 958 
Q 1197 738 1509 602 
Q 1822 466 2213 466 
Q 2559 466 2825 569 
Q 3091 672 3220 851 
Q 3350 1031 3350 1244 
Q 3350 1459 3225 1620 
Q 3100 1781 2813 1891 
Q 2628 1963 1997 2114 
Q 1366 2266 1113 2400 
Q 784 2572 623 2826 
Q 463 3081 463 3397 
Q 463 3744 659 4045 
Q 856 4347 1234 4503 
Q 1613 4659 2075 4659 
Q 2584 4659 2973 4495 
Q 3363 4331 3572 4012 
Q 3781 3694 3797 3291 
L 3216 3247 
Q 3169 3681 2898 3903 
Q 2628 4125 2100 4125 
Q 1550 4125 1298 3923 
Q 1047 3722 1047 3438 
Q 1047 3191 1225 3031 
Q 1400 2872 2139 2705 
Q 2878 2538 3153 2413 
Q 3553 2228 3743 1945 
Q 3934 1663 3934 1294 
Q 3934 928 3725 604 
Q 3516 281 3123 101 
Q 2731 -78 2241 -78 
Q 1619 -78 1198 103 
Q 778 284 539 648 
Q 300 1013 288 1472 
z
" transform="scale(0.015625)"/>
       <path id="ArialMT-56" d="M 1803 0 
L 28 4581 
L 684 4581 
L 1875 1253 
Q 2019 853 2116 503 
Q 2222 878 2363 1253 
L 3600 4581 
L 4219 4581 
L 2425 0 
L 1803 0 
z
" transform="scale(0.015625)"/>
      </defs>
      <use xlink:href="#ArialMT-53"/>
      <use xlink:href="#ArialMT-56" x="66.699219"/>
      <use xlink:href="#ArialMT-52" x="133.398438"/>
     </g>
    </g>
    <g id="line2d_50">
     <path d="M 841.63125 152.860625 
L 851.63125 152.860625 
L 861.63125 152.860625 
" style="fill: none; stroke: #8c564b; stroke-width: 1.5; stroke-linecap: round"/>
    </g>
    <g id="text_25">
     <!-- K-Nearest Neighbors -->
     <g style="fill: #262626" transform="translate(869.63125 156.360625) scale(0.1 -0.1)">
      <defs>
       <path id="ArialMT-4b" d="M 469 0 
L 469 4581 
L 1075 4581 
L 1075 2309 
L 3350 4581 
L 4172 4581 
L 2250 2725 
L 4256 0 
L 3456 0 
L 1825 2319 
L 1075 1588 
L 1075 0 
L 469 0 
z
" transform="scale(0.015625)"/>
       <path id="ArialMT-4e" d="M 488 0 
L 488 4581 
L 1109 4581 
L 3516 984 
L 3516 4581 
L 4097 4581 
L 4097 0 
L 3475 0 
L 1069 3600 
L 1069 0 
L 488 0 
z
" transform="scale(0.015625)"/>
       <path id="ArialMT-62" d="M 941 0 
L 419 0 
L 419 4581 
L 981 4581 
L 981 2947 
Q 1338 3394 1891 3394 
Q 2197 3394 2470 3270 
Q 2744 3147 2920 2923 
Q 3097 2700 3197 2384 
Q 3297 2069 3297 1709 
Q 3297 856 2875 390 
Q 2453 -75 1863 -75 
Q 1275 -75 941 416 
L 941 0 
z
M 934 1684 
Q 934 1088 1097 822 
Q 1363 388 1816 388 
Q 2184 388 2453 708 
Q 2722 1028 2722 1663 
Q 2722 2313 2464 2622 
Q 2206 2931 1841 2931 
Q 1472 2931 1203 2611 
Q 934 2291 934 1684 
z
" transform="scale(0.015625)"/>
      </defs>
      <use xlink:href="#ArialMT-4b"/>
      <use xlink:href="#ArialMT-2d" x="66.699219"/>
      <use xlink:href="#ArialMT-4e" x="100"/>
      <use xlink:href="#ArialMT-65" x="172.216797"/>
      <use xlink:href="#ArialMT-61" x="227.832031"/>
      <use xlink:href="#ArialMT-72" x="283.447266"/>
      <use xlink:href="#ArialMT-65" x="316.748047"/>
      <use xlink:href="#ArialMT-73" x="372.363281"/>
      <use xlink:href="#ArialMT-74" x="422.363281"/>
      <use xlink:href="#ArialMT-20" x="450.146484"/>
      <use xlink:href="#ArialMT-4e" x="477.929688"/>
      <use xlink:href="#ArialMT-65" x="550.146484"/>
      <use xlink:href="#ArialMT-69" x="605.761719"/>
      <use xlink:href="#ArialMT-67" x="627.978516"/>
      <use xlink:href="#ArialMT-68" x="683.59375"/>
      <use xlink:href="#ArialMT-62" x="739.208984"/>
      <use xlink:href="#ArialMT-6f" x="794.824219"/>
      <use xlink:href="#ArialMT-72" x="850.439453"/>
      <use xlink:href="#ArialMT-73" x="883.740234"/>
     </g>
    </g>
    <g id="line2d_51">
     <path d="M 841.63125 167.123125 
L 851.63125 167.123125 
L 861.63125 167.123125 
" style="fill: none; stroke: #e377c2; stroke-width: 1.5; stroke-linecap: round"/>
    </g>
    <g id="text_26">
     <!-- XGBoost -->
     <g style="fill: #262626" transform="translate(869.63125 170.623125) scale(0.1 -0.1)">
      <defs>
       <path id="ArialMT-58" d="M 28 0 
L 1800 2388 
L 238 4581 
L 959 4581 
L 1791 3406 
Q 2050 3041 2159 2844 
Q 2313 3094 2522 3366 
L 3444 4581 
L 4103 4581 
L 2494 2422 
L 4228 0 
L 3478 0 
L 2325 1634 
Q 2228 1775 2125 1941 
Q 1972 1691 1906 1597 
L 756 0 
L 28 0 
z
" transform="scale(0.015625)"/>
      </defs>
      <use xlink:href="#ArialMT-58"/>
      <use xlink:href="#ArialMT-47" x="66.699219"/>
      <use xlink:href="#ArialMT-42" x="144.482422"/>
      <use xlink:href="#ArialMT-6f" x="211.181641"/>
      <use xlink:href="#ArialMT-6f" x="266.796875"/>
      <use xlink:href="#ArialMT-73" x="322.412109"/>
      <use xlink:href="#ArialMT-74" x="372.412109"/>
     </g>
    </g>
    <g id="line2d_52">
     <path d="M 841.63125 181.268438 
L 851.63125 181.268438 
L 861.63125 181.268438 
" style="fill: none; stroke: #7f7f7f; stroke-width: 1.5; stroke-linecap: round"/>
    </g>
    <g id="text_27">
     <!-- Ridge Regression -->
     <g style="fill: #262626" transform="translate(869.63125 184.768438) scale(0.1 -0.1)">
      <use xlink:href="#ArialMT-52"/>
      <use xlink:href="#ArialMT-69" x="72.216797"/>
      <use xlink:href="#ArialMT-64" x="94.433594"/>
      <use xlink:href="#ArialMT-67" x="150.048828"/>
      <use xlink:href="#ArialMT-65" x="205.664062"/>
      <use xlink:href="#ArialMT-20" x="261.279297"/>
      <use xlink:href="#ArialMT-52" x="289.0625"/>
      <use xlink:href="#ArialMT-65" x="361.279297"/>
      <use xlink:href="#ArialMT-67" x="416.894531"/>
      <use xlink:href="#ArialMT-72" x="472.509766"/>
      <use xlink:href="#ArialMT-65" x="505.810547"/>
      <use xlink:href="#ArialMT-73" x="561.425781"/>
      <use xlink:href="#ArialMT-73" x="611.425781"/>
      <use xlink:href="#ArialMT-69" x="661.425781"/>
      <use xlink:href="#ArialMT-6f" x="683.642578"/>
      <use xlink:href="#ArialMT-6e" x="739.257812"/>
     </g>
    </g>
    <g id="line2d_53">
     <path d="M 841.63125 195.530938 
L 851.63125 195.530938 
L 861.63125 195.530938 
" style="fill: none; stroke: #bcbd22; stroke-width: 1.5; stroke-linecap: round"/>
    </g>
    <g id="text_28">
     <!-- ElasticNet -->
     <g style="fill: #262626" transform="translate(869.63125 199.030938) scale(0.1 -0.1)">
      <defs>
       <path id="ArialMT-45" d="M 506 0 
L 506 4581 
L 3819 4581 
L 3819 4041 
L 1113 4041 
L 1113 2638 
L 3647 2638 
L 3647 2100 
L 1113 2100 
L 1113 541 
L 3925 541 
L 3925 0 
L 506 0 
z
" transform="scale(0.015625)"/>
      </defs>
      <use xlink:href="#ArialMT-45"/>
      <use xlink:href="#ArialMT-6c" x="66.699219"/>
      <use xlink:href="#ArialMT-61" x="88.916016"/>
      <use xlink:href="#ArialMT-73" x="144.53125"/>
      <use xlink:href="#ArialMT-74" x="194.53125"/>
      <use xlink:href="#ArialMT-69" x="222.314453"/>
      <use xlink:href="#ArialMT-63" x="244.53125"/>
      <use xlink:href="#ArialMT-4e" x="294.53125"/>
      <use xlink:href="#ArialMT-65" x="366.748047"/>
      <use xlink:href="#ArialMT-74" x="422.363281"/>
     </g>
    </g>
    <g id="line2d_54">
     <path d="M 841.63125 209.67625 
L 851.63125 209.67625 
L 861.63125 209.67625 
" style="fill: none; stroke: #17becf; stroke-width: 1.5; stroke-linecap: round"/>
    </g>
    <g id="text_29">
     <!-- LSTM -->
     <g style="fill: #262626" transform="translate(869.63125 213.17625) scale(0.1 -0.1)">
      <defs>
       <path id="ArialMT-4d" d="M 475 0 
L 475 4581 
L 1388 4581 
L 2472 1338 
Q 2622 884 2691 659 
Q 2769 909 2934 1394 
L 4031 4581 
L 4847 4581 
L 4847 0 
L 4263 0 
L 4263 3834 
L 2931 0 
L 2384 0 
L 1059 3900 
L 1059 0 
L 475 0 
z
" transform="scale(0.015625)"/>
      </defs>
      <use xlink:href="#ArialMT-4c"/>
      <use xlink:href="#ArialMT-53" x="55.615234"/>
      <use xlink:href="#ArialMT-54" x="122.314453"/>
      <use xlink:href="#ArialMT-4d" x="183.398438"/>
     </g>
    </g>
    <g id="line2d_55">
     <path d="M 841.63125 223.821563 
L 851.63125 223.821563 
L 861.63125 223.821563 
" style="fill: none; stroke: #1f77b4; stroke-width: 1.5; stroke-linecap: round"/>
    </g>
    <g id="text_30">
     <!-- RNN -->
     <g style="fill: #262626" transform="translate(869.63125 227.321563) scale(0.1 -0.1)">
      <use xlink:href="#ArialMT-52"/>
      <use xlink:href="#ArialMT-4e" x="72.216797"/>
      <use xlink:href="#ArialMT-4e" x="144.433594"/>
     </g>
    </g>
    <g id="line2d_56">
     <path d="M 841.63125 238.08875 
L 851.63125 238.08875 
L 861.63125 238.08875 
" style="fill: none; stroke: #000000; stroke-width: 2; stroke-linecap: round"/>
    </g>
    <g id="text_31">
     <!-- Gerçek Değerler -->
     <g style="fill: #262626" transform="translate(869.63125 241.58875) scale(0.1 -0.1)">
      <use xlink:href="#ArialMT-47"/>
      <use xlink:href="#ArialMT-65" x="77.783203"/>
      <use xlink:href="#ArialMT-72" x="133.398438"/>
      <use xlink:href="#ArialMT-e7" x="166.699219"/>
      <use xlink:href="#ArialMT-65" x="216.699219"/>
      <use xlink:href="#ArialMT-6b" x="272.314453"/>
      <use xlink:href="#ArialMT-20" x="322.314453"/>
      <use xlink:href="#ArialMT-44" x="350.097656"/>
      <use xlink:href="#ArialMT-65" x="422.314453"/>
      <use xlink:href="#ArialMT-11f" x="477.929688"/>
      <use xlink:href="#ArialMT-65" x="533.544922"/>
      <use xlink:href="#ArialMT-72" x="589.160156"/>
      <use xlink:href="#ArialMT-6c" x="622.460938"/>
      <use xlink:href="#ArialMT-65" x="644.677734"/>
      <use xlink:href="#ArialMT-72" x="700.292969"/>
     </g>
    </g>
   </g>
  </g>
 </g>
 <defs>
  <clipPath id="pc39d0d7f73">
   <rect x="135" y="69.12" width="837" height="443.52"/>
  </clipPath>
 </defs>
</svg>
