<?xml version="1.0" encoding="utf-8" standalone="no"?>
<!DOCTYPE svg PUBLIC "-//W3C//DTD SVG 1.1//EN"
  "http://www.w3.org/Graphics/SVG/1.1/DTD/svg11.dtd">
<svg xmlns:xlink="http://www.w3.org/1999/xlink" width="1080pt" height="576pt" viewBox="0 0 1080 576" xmlns="http://www.w3.org/2000/svg" version="1.1">
 <metadata>
  <rdf:RDF xmlns:dc="http://purl.org/dc/elements/1.1/" xmlns:cc="http://creativecommons.org/ns#" xmlns:rdf="http://www.w3.org/1999/02/22-rdf-syntax-ns#">
   <cc:Work>
    <dc:type rdf:resource="http://purl.org/dc/dcmitype/StillImage"/>
    <dc:date>2023-05-20T18:27:06.966489</dc:date>
    <dc:format>image/svg+xml</dc:format>
    <dc:creator>
     <cc:Agent>
      <dc:title>Matplotlib v3.7.1, https://matplotlib.org/</dc:title>
     </cc:Agent>
    </dc:creator>
   </cc:Work>
  </rdf:RDF>
 </metadata>
 <defs>
  <style type="text/css">*{stroke-linejoin: round; stroke-linecap: butt}</style>
 </defs>
 <g id="figure_1">
  <g id="patch_1">
   <path d="M 0 576 
L 1080 576 
L 1080 0 
L 0 0 
z
" style="fill: #ffffff"/>
  </g>
  <g id="axes_1">
   <g id="patch_2">
    <path d="M 135 512.64 
L 972 512.64 
L 972 69.12 
L 135 69.12 
z
" style="fill: #ffffff"/>
   </g>
   <g id="matplotlib.axis_1">
    <g id="xtick_1">
     <g id="line2d_1">
      <defs>
       <path id="m3246c7cb41" d="M 0 0 
L 0 3.5 
" style="stroke: #000000; stroke-width: 0.8"/>
      </defs>
      <g>
       <use xlink:href="#m3246c7cb41" x="173.045455" y="512.64" style="stroke: #000000; stroke-width: 0.8"/>
      </g>
     </g>
     <g id="text_1">
      <!-- 2023-02-01 -->
      <g transform="translate(143.987642 527.238438) scale(0.1 -0.1)">
       <defs>
        <path id="DejaVuSans-32" d="M 1228 531 
L 3431 531 
L 3431 0 
L 469 0 
L 469 531 
Q 828 903 1448 1529 
Q 2069 2156 2228 2338 
Q 2531 2678 2651 2914 
Q 2772 3150 2772 3378 
Q 2772 3750 2511 3984 
Q 2250 4219 1831 4219 
Q 1534 4219 1204 4116 
Q 875 4013 500 3803 
L 500 4441 
Q 881 4594 1212 4672 
Q 1544 4750 1819 4750 
Q 2544 4750 2975 4387 
Q 3406 4025 3406 3419 
Q 3406 3131 3298 2873 
Q 3191 2616 2906 2266 
Q 2828 2175 2409 1742 
Q 1991 1309 1228 531 
z
" transform="scale(0.015625)"/>
        <path id="DejaVuSans-30" d="M 2034 4250 
Q 1547 4250 1301 3770 
Q 1056 3291 1056 2328 
Q 1056 1369 1301 889 
Q 1547 409 2034 409 
Q 2525 409 2770 889 
Q 3016 1369 3016 2328 
Q 3016 3291 2770 3770 
Q 2525 4250 2034 4250 
z
M 2034 4750 
Q 2819 4750 3233 4129 
Q 3647 3509 3647 2328 
Q 3647 1150 3233 529 
Q 2819 -91 2034 -91 
Q 1250 -91 836 529 
Q 422 1150 422 2328 
Q 422 3509 836 4129 
Q 1250 4750 2034 4750 
z
" transform="scale(0.015625)"/>
        <path id="DejaVuSans-33" d="M 2597 2516 
Q 3050 2419 3304 2112 
Q 3559 1806 3559 1356 
Q 3559 666 3084 287 
Q 2609 -91 1734 -91 
Q 1441 -91 1130 -33 
Q 819 25 488 141 
L 488 750 
Q 750 597 1062 519 
Q 1375 441 1716 441 
Q 2309 441 2620 675 
Q 2931 909 2931 1356 
Q 2931 1769 2642 2001 
Q 2353 2234 1838 2234 
L 1294 2234 
L 1294 2753 
L 1863 2753 
Q 2328 2753 2575 2939 
Q 2822 3125 2822 3475 
Q 2822 3834 2567 4026 
Q 2313 4219 1838 4219 
Q 1578 4219 1281 4162 
Q 984 4106 628 3988 
L 628 4550 
Q 988 4650 1302 4700 
Q 1616 4750 1894 4750 
Q 2613 4750 3031 4423 
Q 3450 4097 3450 3541 
Q 3450 3153 3228 2886 
Q 3006 2619 2597 2516 
z
" transform="scale(0.015625)"/>
        <path id="DejaVuSans-2d" d="M 313 2009 
L 1997 2009 
L 1997 1497 
L 313 1497 
L 313 2009 
z
" transform="scale(0.015625)"/>
        <path id="DejaVuSans-31" d="M 794 531 
L 1825 531 
L 1825 4091 
L 703 3866 
L 703 4441 
L 1819 4666 
L 2450 4666 
L 2450 531 
L 3481 531 
L 3481 0 
L 794 0 
L 794 531 
z
" transform="scale(0.015625)"/>
       </defs>
       <use xlink:href="#DejaVuSans-32"/>
       <use xlink:href="#DejaVuSans-30" x="63.623047"/>
       <use xlink:href="#DejaVuSans-32" x="127.246094"/>
       <use xlink:href="#DejaVuSans-33" x="190.869141"/>
       <use xlink:href="#DejaVuSans-2d" x="254.492188"/>
       <use xlink:href="#DejaVuSans-30" x="290.576172"/>
       <use xlink:href="#DejaVuSans-32" x="354.199219"/>
       <use xlink:href="#DejaVuSans-2d" x="417.822266"/>
       <use xlink:href="#DejaVuSans-30" x="453.90625"/>
       <use xlink:href="#DejaVuSans-31" x="517.529297"/>
      </g>
     </g>
    </g>
    <g id="xtick_2">
     <g id="line2d_2">
      <g>
       <use xlink:href="#m3246c7cb41" x="301.391566" y="512.64" style="stroke: #000000; stroke-width: 0.8"/>
      </g>
     </g>
     <g id="text_2">
      <!-- 2023-02-15 -->
      <g transform="translate(272.333754 527.238438) scale(0.1 -0.1)">
       <defs>
        <path id="DejaVuSans-35" d="M 691 4666 
L 3169 4666 
L 3169 4134 
L 1269 4134 
L 1269 2991 
Q 1406 3038 1543 3061 
Q 1681 3084 1819 3084 
Q 2600 3084 3056 2656 
Q 3513 2228 3513 1497 
Q 3513 744 3044 326 
Q 2575 -91 1722 -91 
Q 1428 -91 1123 -41 
Q 819 9 494 109 
L 494 744 
Q 775 591 1075 516 
Q 1375 441 1709 441 
Q 2250 441 2565 725 
Q 2881 1009 2881 1497 
Q 2881 1984 2565 2268 
Q 2250 2553 1709 2553 
Q 1456 2553 1204 2497 
Q 953 2441 691 2322 
L 691 4666 
z
" transform="scale(0.015625)"/>
       </defs>
       <use xlink:href="#DejaVuSans-32"/>
       <use xlink:href="#DejaVuSans-30" x="63.623047"/>
       <use xlink:href="#DejaVuSans-32" x="127.246094"/>
       <use xlink:href="#DejaVuSans-33" x="190.869141"/>
       <use xlink:href="#DejaVuSans-2d" x="254.492188"/>
       <use xlink:href="#DejaVuSans-30" x="290.576172"/>
       <use xlink:href="#DejaVuSans-32" x="354.199219"/>
       <use xlink:href="#DejaVuSans-2d" x="417.822266"/>
       <use xlink:href="#DejaVuSans-31" x="453.90625"/>
       <use xlink:href="#DejaVuSans-35" x="517.529297"/>
      </g>
     </g>
    </g>
    <g id="xtick_3">
     <g id="line2d_3">
      <g>
       <use xlink:href="#m3246c7cb41" x="429.737678" y="512.64" style="stroke: #000000; stroke-width: 0.8"/>
      </g>
     </g>
     <g id="text_3">
      <!-- 2023-03-01 -->
      <g transform="translate(400.679865 527.238438) scale(0.1 -0.1)">
       <use xlink:href="#DejaVuSans-32"/>
       <use xlink:href="#DejaVuSans-30" x="63.623047"/>
       <use xlink:href="#DejaVuSans-32" x="127.246094"/>
       <use xlink:href="#DejaVuSans-33" x="190.869141"/>
       <use xlink:href="#DejaVuSans-2d" x="254.492188"/>
       <use xlink:href="#DejaVuSans-30" x="290.576172"/>
       <use xlink:href="#DejaVuSans-33" x="354.199219"/>
       <use xlink:href="#DejaVuSans-2d" x="417.822266"/>
       <use xlink:href="#DejaVuSans-30" x="453.90625"/>
       <use xlink:href="#DejaVuSans-31" x="517.529297"/>
      </g>
     </g>
    </g>
    <g id="xtick_4">
     <g id="line2d_4">
      <g>
       <use xlink:href="#m3246c7cb41" x="558.08379" y="512.64" style="stroke: #000000; stroke-width: 0.8"/>
      </g>
     </g>
     <g id="text_4">
      <!-- 2023-03-15 -->
      <g transform="translate(529.025977 527.238438) scale(0.1 -0.1)">
       <use xlink:href="#DejaVuSans-32"/>
       <use xlink:href="#DejaVuSans-30" x="63.623047"/>
       <use xlink:href="#DejaVuSans-32" x="127.246094"/>
       <use xlink:href="#DejaVuSans-33" x="190.869141"/>
       <use xlink:href="#DejaVuSans-2d" x="254.492188"/>
       <use xlink:href="#DejaVuSans-30" x="290.576172"/>
       <use xlink:href="#DejaVuSans-33" x="354.199219"/>
       <use xlink:href="#DejaVuSans-2d" x="417.822266"/>
       <use xlink:href="#DejaVuSans-31" x="453.90625"/>
       <use xlink:href="#DejaVuSans-35" x="517.529297"/>
      </g>
     </g>
    </g>
    <g id="xtick_5">
     <g id="line2d_5">
      <g>
       <use xlink:href="#m3246c7cb41" x="713.93264" y="512.64" style="stroke: #000000; stroke-width: 0.8"/>
      </g>
     </g>
     <g id="text_5">
      <!-- 2023-04-01 -->
      <g transform="translate(684.874827 527.238438) scale(0.1 -0.1)">
       <defs>
        <path id="DejaVuSans-34" d="M 2419 4116 
L 825 1625 
L 2419 1625 
L 2419 4116 
z
M 2253 4666 
L 3047 4666 
L 3047 1625 
L 3713 1625 
L 3713 1100 
L 3047 1100 
L 3047 0 
L 2419 0 
L 2419 1100 
L 313 1100 
L 313 1709 
L 2253 4666 
z
" transform="scale(0.015625)"/>
       </defs>
       <use xlink:href="#DejaVuSans-32"/>
       <use xlink:href="#DejaVuSans-30" x="63.623047"/>
       <use xlink:href="#DejaVuSans-32" x="127.246094"/>
       <use xlink:href="#DejaVuSans-33" x="190.869141"/>
       <use xlink:href="#DejaVuSans-2d" x="254.492188"/>
       <use xlink:href="#DejaVuSans-30" x="290.576172"/>
       <use xlink:href="#DejaVuSans-34" x="354.199219"/>
       <use xlink:href="#DejaVuSans-2d" x="417.822266"/>
       <use xlink:href="#DejaVuSans-30" x="453.90625"/>
       <use xlink:href="#DejaVuSans-31" x="517.529297"/>
      </g>
     </g>
    </g>
    <g id="xtick_6">
     <g id="line2d_6">
      <g>
       <use xlink:href="#m3246c7cb41" x="842.278751" y="512.64" style="stroke: #000000; stroke-width: 0.8"/>
      </g>
     </g>
     <g id="text_6">
      <!-- 2023-04-15 -->
      <g transform="translate(813.220939 527.238438) scale(0.1 -0.1)">
       <use xlink:href="#DejaVuSans-32"/>
       <use xlink:href="#DejaVuSans-30" x="63.623047"/>
       <use xlink:href="#DejaVuSans-32" x="127.246094"/>
       <use xlink:href="#DejaVuSans-33" x="190.869141"/>
       <use xlink:href="#DejaVuSans-2d" x="254.492188"/>
       <use xlink:href="#DejaVuSans-30" x="290.576172"/>
       <use xlink:href="#DejaVuSans-34" x="354.199219"/>
       <use xlink:href="#DejaVuSans-2d" x="417.822266"/>
       <use xlink:href="#DejaVuSans-31" x="453.90625"/>
       <use xlink:href="#DejaVuSans-35" x="517.529297"/>
      </g>
     </g>
    </g>
    <g id="text_7">
     <!-- Date -->
     <g transform="translate(541.549219 540.916563) scale(0.1 -0.1)">
      <defs>
       <path id="DejaVuSans-44" d="M 1259 4147 
L 1259 519 
L 2022 519 
Q 2988 519 3436 956 
Q 3884 1394 3884 2338 
Q 3884 3275 3436 3711 
Q 2988 4147 2022 4147 
L 1259 4147 
z
M 628 4666 
L 1925 4666 
Q 3281 4666 3915 4102 
Q 4550 3538 4550 2338 
Q 4550 1131 3912 565 
Q 3275 0 1925 0 
L 628 0 
L 628 4666 
z
" transform="scale(0.015625)"/>
       <path id="DejaVuSans-61" d="M 2194 1759 
Q 1497 1759 1228 1600 
Q 959 1441 959 1056 
Q 959 750 1161 570 
Q 1363 391 1709 391 
Q 2188 391 2477 730 
Q 2766 1069 2766 1631 
L 2766 1759 
L 2194 1759 
z
M 3341 1997 
L 3341 0 
L 2766 0 
L 2766 531 
Q 2569 213 2275 61 
Q 1981 -91 1556 -91 
Q 1019 -91 701 211 
Q 384 513 384 1019 
Q 384 1609 779 1909 
Q 1175 2209 1959 2209 
L 2766 2209 
L 2766 2266 
Q 2766 2663 2505 2880 
Q 2244 3097 1772 3097 
Q 1472 3097 1187 3025 
Q 903 2953 641 2809 
L 641 3341 
Q 956 3463 1253 3523 
Q 1550 3584 1831 3584 
Q 2591 3584 2966 3190 
Q 3341 2797 3341 1997 
z
" transform="scale(0.015625)"/>
       <path id="DejaVuSans-74" d="M 1172 4494 
L 1172 3500 
L 2356 3500 
L 2356 3053 
L 1172 3053 
L 1172 1153 
Q 1172 725 1289 603 
Q 1406 481 1766 481 
L 2356 481 
L 2356 0 
L 1766 0 
Q 1100 0 847 248 
Q 594 497 594 1153 
L 594 3053 
L 172 3053 
L 172 3500 
L 594 3500 
L 594 4494 
L 1172 4494 
z
" transform="scale(0.015625)"/>
       <path id="DejaVuSans-65" d="M 3597 1894 
L 3597 1613 
L 953 1613 
Q 991 1019 1311 708 
Q 1631 397 2203 397 
Q 2534 397 2845 478 
Q 3156 559 3463 722 
L 3463 178 
Q 3153 47 2828 -22 
Q 2503 -91 2169 -91 
Q 1331 -91 842 396 
Q 353 884 353 1716 
Q 353 2575 817 3079 
Q 1281 3584 2069 3584 
Q 2775 3584 3186 3129 
Q 3597 2675 3597 1894 
z
M 3022 2063 
Q 3016 2534 2758 2815 
Q 2500 3097 2075 3097 
Q 1594 3097 1305 2825 
Q 1016 2553 972 2059 
L 3022 2063 
z
" transform="scale(0.015625)"/>
      </defs>
      <use xlink:href="#DejaVuSans-44"/>
      <use xlink:href="#DejaVuSans-61" x="77.001953"/>
      <use xlink:href="#DejaVuSans-74" x="138.28125"/>
      <use xlink:href="#DejaVuSans-65" x="177.490234"/>
     </g>
    </g>
   </g>
   <g id="matplotlib.axis_2">
    <g id="ytick_1">
     <g id="line2d_7">
      <defs>
       <path id="m123b6d3da1" d="M 0 0 
L -3.5 0 
" style="stroke: #000000; stroke-width: 0.8"/>
      </defs>
      <g>
       <use xlink:href="#m123b6d3da1" x="135" y="468.479799" style="stroke: #000000; stroke-width: 0.8"/>
      </g>
     </g>
     <g id="text_8">
      <!-- 6 -->
      <g transform="translate(121.6375 472.279017) scale(0.1 -0.1)">
       <defs>
        <path id="DejaVuSans-36" d="M 2113 2584 
Q 1688 2584 1439 2293 
Q 1191 2003 1191 1497 
Q 1191 994 1439 701 
Q 1688 409 2113 409 
Q 2538 409 2786 701 
Q 3034 994 3034 1497 
Q 3034 2003 2786 2293 
Q 2538 2584 2113 2584 
z
M 3366 4563 
L 3366 3988 
Q 3128 4100 2886 4159 
Q 2644 4219 2406 4219 
Q 1781 4219 1451 3797 
Q 1122 3375 1075 2522 
Q 1259 2794 1537 2939 
Q 1816 3084 2150 3084 
Q 2853 3084 3261 2657 
Q 3669 2231 3669 1497 
Q 3669 778 3244 343 
Q 2819 -91 2113 -91 
Q 1303 -91 875 529 
Q 447 1150 447 2328 
Q 447 3434 972 4092 
Q 1497 4750 2381 4750 
Q 2619 4750 2861 4703 
Q 3103 4656 3366 4563 
z
" transform="scale(0.015625)"/>
       </defs>
       <use xlink:href="#DejaVuSans-36"/>
      </g>
     </g>
    </g>
    <g id="ytick_2">
     <g id="line2d_8">
      <g>
       <use xlink:href="#m123b6d3da1" x="135" y="411.195669" style="stroke: #000000; stroke-width: 0.8"/>
      </g>
     </g>
     <g id="text_9">
      <!-- 8 -->
      <g transform="translate(121.6375 414.994887) scale(0.1 -0.1)">
       <defs>
        <path id="DejaVuSans-38" d="M 2034 2216 
Q 1584 2216 1326 1975 
Q 1069 1734 1069 1313 
Q 1069 891 1326 650 
Q 1584 409 2034 409 
Q 2484 409 2743 651 
Q 3003 894 3003 1313 
Q 3003 1734 2745 1975 
Q 2488 2216 2034 2216 
z
M 1403 2484 
Q 997 2584 770 2862 
Q 544 3141 544 3541 
Q 544 4100 942 4425 
Q 1341 4750 2034 4750 
Q 2731 4750 3128 4425 
Q 3525 4100 3525 3541 
Q 3525 3141 3298 2862 
Q 3072 2584 2669 2484 
Q 3125 2378 3379 2068 
Q 3634 1759 3634 1313 
Q 3634 634 3220 271 
Q 2806 -91 2034 -91 
Q 1263 -91 848 271 
Q 434 634 434 1313 
Q 434 1759 690 2068 
Q 947 2378 1403 2484 
z
M 1172 3481 
Q 1172 3119 1398 2916 
Q 1625 2713 2034 2713 
Q 2441 2713 2670 2916 
Q 2900 3119 2900 3481 
Q 2900 3844 2670 4047 
Q 2441 4250 2034 4250 
Q 1625 4250 1398 4047 
Q 1172 3844 1172 3481 
z
" transform="scale(0.015625)"/>
       </defs>
       <use xlink:href="#DejaVuSans-38"/>
      </g>
     </g>
    </g>
    <g id="ytick_3">
     <g id="line2d_9">
      <g>
       <use xlink:href="#m123b6d3da1" x="135" y="353.911539" style="stroke: #000000; stroke-width: 0.8"/>
      </g>
     </g>
     <g id="text_10">
      <!-- 10 -->
      <g transform="translate(115.275 357.710758) scale(0.1 -0.1)">
       <use xlink:href="#DejaVuSans-31"/>
       <use xlink:href="#DejaVuSans-30" x="63.623047"/>
      </g>
     </g>
    </g>
    <g id="ytick_4">
     <g id="line2d_10">
      <g>
       <use xlink:href="#m123b6d3da1" x="135" y="296.627409" style="stroke: #000000; stroke-width: 0.8"/>
      </g>
     </g>
     <g id="text_11">
      <!-- 12 -->
      <g transform="translate(115.275 300.426628) scale(0.1 -0.1)">
       <use xlink:href="#DejaVuSans-31"/>
       <use xlink:href="#DejaVuSans-32" x="63.623047"/>
      </g>
     </g>
    </g>
    <g id="ytick_5">
     <g id="line2d_11">
      <g>
       <use xlink:href="#m123b6d3da1" x="135" y="239.343279" style="stroke: #000000; stroke-width: 0.8"/>
      </g>
     </g>
     <g id="text_12">
      <!-- 14 -->
      <g transform="translate(115.275 243.142498) scale(0.1 -0.1)">
       <use xlink:href="#DejaVuSans-31"/>
       <use xlink:href="#DejaVuSans-34" x="63.623047"/>
      </g>
     </g>
    </g>
    <g id="ytick_6">
     <g id="line2d_12">
      <g>
       <use xlink:href="#m123b6d3da1" x="135" y="182.059149" style="stroke: #000000; stroke-width: 0.8"/>
      </g>
     </g>
     <g id="text_13">
      <!-- 16 -->
      <g transform="translate(115.275 185.858368) scale(0.1 -0.1)">
       <use xlink:href="#DejaVuSans-31"/>
       <use xlink:href="#DejaVuSans-36" x="63.623047"/>
      </g>
     </g>
    </g>
    <g id="ytick_7">
     <g id="line2d_13">
      <g>
       <use xlink:href="#m123b6d3da1" x="135" y="124.77502" style="stroke: #000000; stroke-width: 0.8"/>
      </g>
     </g>
     <g id="text_14">
      <!-- 18 -->
      <g transform="translate(115.275 128.574238) scale(0.1 -0.1)">
       <use xlink:href="#DejaVuSans-31"/>
       <use xlink:href="#DejaVuSans-38" x="63.623047"/>
      </g>
     </g>
    </g>
    <g id="text_15">
     <!-- Adj Close -->
     <g transform="translate(109.195312 313.98625) rotate(-90) scale(0.1 -0.1)">
      <defs>
       <path id="DejaVuSans-41" d="M 2188 4044 
L 1331 1722 
L 3047 1722 
L 2188 4044 
z
M 1831 4666 
L 2547 4666 
L 4325 0 
L 3669 0 
L 3244 1197 
L 1141 1197 
L 716 0 
L 50 0 
L 1831 4666 
z
" transform="scale(0.015625)"/>
       <path id="DejaVuSans-64" d="M 2906 2969 
L 2906 4863 
L 3481 4863 
L 3481 0 
L 2906 0 
L 2906 525 
Q 2725 213 2448 61 
Q 2172 -91 1784 -91 
Q 1150 -91 751 415 
Q 353 922 353 1747 
Q 353 2572 751 3078 
Q 1150 3584 1784 3584 
Q 2172 3584 2448 3432 
Q 2725 3281 2906 2969 
z
M 947 1747 
Q 947 1113 1208 752 
Q 1469 391 1925 391 
Q 2381 391 2643 752 
Q 2906 1113 2906 1747 
Q 2906 2381 2643 2742 
Q 2381 3103 1925 3103 
Q 1469 3103 1208 2742 
Q 947 2381 947 1747 
z
" transform="scale(0.015625)"/>
       <path id="DejaVuSans-6a" d="M 603 3500 
L 1178 3500 
L 1178 -63 
Q 1178 -731 923 -1031 
Q 669 -1331 103 -1331 
L -116 -1331 
L -116 -844 
L 38 -844 
Q 366 -844 484 -692 
Q 603 -541 603 -63 
L 603 3500 
z
M 603 4863 
L 1178 4863 
L 1178 4134 
L 603 4134 
L 603 4863 
z
" transform="scale(0.015625)"/>
       <path id="DejaVuSans-20" transform="scale(0.015625)"/>
       <path id="DejaVuSans-43" d="M 4122 4306 
L 4122 3641 
Q 3803 3938 3442 4084 
Q 3081 4231 2675 4231 
Q 1875 4231 1450 3742 
Q 1025 3253 1025 2328 
Q 1025 1406 1450 917 
Q 1875 428 2675 428 
Q 3081 428 3442 575 
Q 3803 722 4122 1019 
L 4122 359 
Q 3791 134 3420 21 
Q 3050 -91 2638 -91 
Q 1578 -91 968 557 
Q 359 1206 359 2328 
Q 359 3453 968 4101 
Q 1578 4750 2638 4750 
Q 3056 4750 3426 4639 
Q 3797 4528 4122 4306 
z
" transform="scale(0.015625)"/>
       <path id="DejaVuSans-6c" d="M 603 4863 
L 1178 4863 
L 1178 0 
L 603 0 
L 603 4863 
z
" transform="scale(0.015625)"/>
       <path id="DejaVuSans-6f" d="M 1959 3097 
Q 1497 3097 1228 2736 
Q 959 2375 959 1747 
Q 959 1119 1226 758 
Q 1494 397 1959 397 
Q 2419 397 2687 759 
Q 2956 1122 2956 1747 
Q 2956 2369 2687 2733 
Q 2419 3097 1959 3097 
z
M 1959 3584 
Q 2709 3584 3137 3096 
Q 3566 2609 3566 1747 
Q 3566 888 3137 398 
Q 2709 -91 1959 -91 
Q 1206 -91 779 398 
Q 353 888 353 1747 
Q 353 2609 779 3096 
Q 1206 3584 1959 3584 
z
" transform="scale(0.015625)"/>
       <path id="DejaVuSans-73" d="M 2834 3397 
L 2834 2853 
Q 2591 2978 2328 3040 
Q 2066 3103 1784 3103 
Q 1356 3103 1142 2972 
Q 928 2841 928 2578 
Q 928 2378 1081 2264 
Q 1234 2150 1697 2047 
L 1894 2003 
Q 2506 1872 2764 1633 
Q 3022 1394 3022 966 
Q 3022 478 2636 193 
Q 2250 -91 1575 -91 
Q 1294 -91 989 -36 
Q 684 19 347 128 
L 347 722 
Q 666 556 975 473 
Q 1284 391 1588 391 
Q 1994 391 2212 530 
Q 2431 669 2431 922 
Q 2431 1156 2273 1281 
Q 2116 1406 1581 1522 
L 1381 1569 
Q 847 1681 609 1914 
Q 372 2147 372 2553 
Q 372 3047 722 3315 
Q 1072 3584 1716 3584 
Q 2034 3584 2315 3537 
Q 2597 3491 2834 3397 
z
" transform="scale(0.015625)"/>
      </defs>
      <use xlink:href="#DejaVuSans-41"/>
      <use xlink:href="#DejaVuSans-64" x="66.658203"/>
      <use xlink:href="#DejaVuSans-6a" x="130.134766"/>
      <use xlink:href="#DejaVuSans-20" x="157.917969"/>
      <use xlink:href="#DejaVuSans-43" x="189.705078"/>
      <use xlink:href="#DejaVuSans-6c" x="259.529297"/>
      <use xlink:href="#DejaVuSans-6f" x="287.3125"/>
      <use xlink:href="#DejaVuSans-73" x="348.494141"/>
      <use xlink:href="#DejaVuSans-65" x="400.59375"/>
     </g>
    </g>
   </g>
   <g id="line2d_14">
    <path d="M 173.045455 177.93959 
L 182.213034 177.914799 
L 191.380613 177.909196 
L 218.883352 177.907929 
L 228.050931 177.907643 
L 237.21851 177.907578 
L 246.38609 177.907564 
L 255.553669 177.90756 
L 283.056407 177.90756 
L 292.223987 177.907559 
L 301.391566 177.907559 
L 310.559146 177.907559 
L 319.726725 177.907559 
L 356.397043 177.907559 
L 365.564622 177.907559 
L 374.732202 177.907559 
L 383.899781 177.907559 
L 411.402519 177.907559 
L 420.570099 177.907559 
L 429.737678 177.907559 
L 438.905257 177.907559 
L 448.072837 177.907559 
L 475.575575 177.907559 
L 484.743154 177.907559 
L 493.910734 177.907559 
L 503.078313 177.907559 
L 512.245893 177.907559 
L 539.748631 177.907559 
L 548.91621 177.907559 
L 558.08379 177.907559 
L 567.251369 177.907559 
L 576.418949 177.907559 
L 603.921687 177.907559 
L 613.089266 177.907559 
L 622.256846 177.907559 
L 631.424425 177.907559 
L 640.592004 177.907559 
L 668.094743 177.907559 
L 677.262322 177.907559 
L 686.429901 177.907559 
L 695.597481 177.907559 
L 704.76506 177.907559 
L 732.267798 177.907559 
L 741.435378 177.907559 
L 750.602957 177.907559 
L 759.770537 177.907559 
L 796.440854 177.907559 
L 805.608434 177.907559 
L 814.776013 177.907559 
L 823.943593 177.907559 
L 833.111172 177.907559 
L 860.61391 177.907559 
L 869.78149 177.907559 
L 878.949069 177.907559 
L 888.116648 177.907559 
L 897.284228 177.907559 
L 924.786966 177.907559 
L 933.954545 177.907559 
" clip-path="url(#p01ce1c2d25)" style="fill: none; stroke: #1f77b4; stroke-width: 1.5; stroke-linecap: square"/>
   </g>
   <g id="line2d_15">
    <path d="M 173.045455 178.456077 
L 182.213034 175.139569 
L 191.380613 172.139704 
L 218.883352 170.240298 
L 228.050931 168.567374 
L 237.21851 169.727859 
L 246.38609 168.551725 
L 255.553669 172.516444 
L 283.056407 173.255137 
L 292.223987 168.93039 
L 301.391566 170.67771 
L 310.559146 178.024362 
L 319.726725 178.431161 
L 356.397043 175.114653 
L 365.564622 172.114789 
L 374.732202 170.215383 
L 383.899781 168.542458 
L 411.402519 169.702943 
L 420.570099 168.52681 
L 429.737678 172.491529 
L 438.905257 173.230221 
L 448.072837 168.905474 
L 475.575575 170.652795 
L 484.743154 177.999447 
L 493.910734 178.406245 
L 503.078313 175.089737 
L 512.245893 172.089873 
L 539.748631 170.190467 
L 548.91621 168.517542 
L 558.08379 169.678027 
L 567.251369 168.501894 
L 576.418949 172.466613 
L 603.921687 173.205306 
L 613.089266 168.880558 
L 622.256846 170.627879 
L 631.424425 177.974531 
L 640.592004 178.38133 
L 668.094743 175.064822 
L 677.262322 172.064957 
L 686.429901 170.165551 
L 695.597481 168.492627 
L 704.76506 169.653112 
L 732.267798 168.476979 
L 741.435378 172.441697 
L 750.602957 173.18039 
L 759.770537 168.855643 
L 796.440854 170.602963 
L 805.608434 177.949615 
L 814.776013 178.356414 
L 823.943593 175.039906 
L 833.111172 172.040042 
L 860.61391 170.140636 
L 869.78149 168.467711 
L 878.949069 169.628196 
L 888.116648 168.452063 
L 897.284228 172.416782 
L 924.786966 173.155474 
L 933.954545 168.830727 
" clip-path="url(#p01ce1c2d25)" style="fill: none; stroke: #ff7f0e; stroke-width: 1.5; stroke-linecap: square"/>
   </g>
   <g id="line2d_16">
    <path d="M 173.045455 239.864565 
L 182.213034 203.835709 
L 191.380613 218.337187 
L 218.883352 198.88636 
L 228.050931 221.797153 
L 237.21851 201.656059 
L 246.38609 227.869271 
L 255.553669 220.287706 
L 283.056407 265.192744 
L 292.223987 187.544115 
L 301.391566 258.713908 
L 310.559146 196.59213 
L 319.726725 233.314122 
L 356.397043 243.046699 
L 365.564622 219.502919 
L 374.732202 199.59668 
L 383.899781 185.218378 
L 411.402519 154.548448 
L 420.570099 241.445605 
L 429.737678 241.832275 
L 438.905257 209.314941 
L 448.072837 247.116732 
L 475.575575 257.662745 
L 484.743154 210.397612 
L 493.910734 226.23954 
L 503.078313 234.330916 
L 512.245893 227.986704 
L 539.748631 205.413882 
L 548.91621 216.630119 
L 558.08379 203.285783 
L 567.251369 219.058967 
L 576.418949 167.242604 
L 603.921687 201.515707 
L 613.089266 220.622828 
L 622.256846 227.995292 
L 631.424425 218.526233 
L 640.592004 224.70718 
L 668.094743 222.954284 
L 677.262322 239.990583 
L 686.429901 213.720083 
L 695.597481 226.878254 
L 704.76506 247.910123 
L 732.267798 248.554569 
L 741.435378 183.187645 
L 750.602957 211.726606 
L 759.770537 235.127164 
L 796.440854 212.133327 
L 805.608434 165.549866 
L 814.776013 221.960405 
L 823.943593 239.964818 
L 833.111172 223.464114 
L 860.61391 206.834537 
L 869.78149 236.387418 
L 878.949069 253.438043 
L 888.116648 222.561896 
L 897.284228 188.706972 
L 924.786966 243.954645 
L 933.954545 146.537277 
" clip-path="url(#p01ce1c2d25)" style="fill: none; stroke: #2ca02c; stroke-width: 1.5; stroke-linecap: square"/>
   </g>
   <g id="line2d_17">
    <path d="M 173.045455 217.114165 
L 182.213034 214.087617 
L 191.380613 223.192217 
L 218.883352 208.992186 
L 228.050931 220.409391 
L 237.21851 219.743122 
L 246.38609 219.743122 
L 255.553669 216.870443 
L 283.056407 229.65252 
L 292.223987 220.607243 
L 301.391566 235.612072 
L 310.559146 199.149262 
L 319.726725 214.154091 
L 356.397043 235.612072 
L 365.564622 214.647691 
L 374.732202 228.485501 
L 383.899781 214.154091 
L 411.402519 222.209596 
L 420.570099 214.647691 
L 429.737678 224.992422 
L 438.905257 224.992422 
L 448.072837 229.65252 
L 475.575575 223.997015 
L 484.743154 214.154091 
L 493.910734 222.525948 
L 503.078313 214.647691 
L 512.245893 224.992422 
L 539.748631 214.087617 
L 548.91621 219.743122 
L 558.08379 214.647691 
L 567.251369 214.087617 
L 576.418949 208.992186 
L 603.921687 220.607243 
L 613.089266 229.65252 
L 622.256846 220.607243 
L 631.424425 220.409391 
L 640.592004 220.607243 
L 668.094743 217.114165 
L 677.262322 220.607243 
L 686.429901 216.870443 
L 695.597481 232.118994 
L 704.76506 235.612072 
L 732.267798 224.992422 
L 741.435378 194.936389 
L 750.602957 220.607243 
L 759.770537 228.485501 
L 796.440854 220.607243 
L 805.608434 176.662928 
L 814.776013 222.209596 
L 823.943593 219.743122 
L 833.111172 225.702675 
L 860.61391 222.209596 
L 869.78149 223.997015 
L 878.949069 225.702675 
L 888.116648 223.997015 
L 897.284228 220.409391 
L 924.786966 220.607243 
L 933.954545 142.076575 
" clip-path="url(#p01ce1c2d25)" style="fill: none; stroke: #d62728; stroke-width: 1.5; stroke-linecap: square"/>
   </g>
   <g id="line2d_18">
    <path d="M 173.045455 202.573304 
L 182.213034 242.186907 
L 191.380613 218.821306 
L 218.883352 205.435336 
L 228.050931 228.20448 
L 237.21851 226.801239 
L 246.38609 226.817985 
L 255.553669 216.177208 
L 283.056407 225.169626 
L 292.223987 206.150203 
L 301.391566 221.436368 
L 310.559146 205.0993 
L 319.726725 224.972564 
L 356.397043 226.0995 
L 365.564622 209.998546 
L 374.732202 218.445634 
L 383.899781 218.902955 
L 411.402519 227.189552 
L 420.570099 205.371418 
L 429.737678 214.722727 
L 438.905257 213.374437 
L 448.072837 219.050629 
L 475.575575 220.826436 
L 484.743154 220.444641 
L 493.910734 212.88681 
L 503.078313 203.86678 
L 512.245893 214.759667 
L 539.748631 226.889198 
L 548.91621 242.139537 
L 558.08379 200.674196 
L 567.251369 236.120144 
L 576.418949 203.930645 
L 603.921687 204.44135 
L 613.089266 219.062434 
L 622.256846 210.727873 
L 631.424425 228.267158 
L 640.592004 210.5372 
L 668.094743 200.987713 
L 677.262322 210.885927 
L 686.429901 217.706221 
L 695.597481 222.494385 
L 704.76506 220.128142 
L 732.267798 216.259523 
L 741.435378 193.765007 
L 750.602957 201.642411 
L 759.770537 217.169548 
L 796.440854 203.109551 
L 805.608434 184.195895 
L 814.776013 233.121482 
L 823.943593 235.812957 
L 833.111172 242.5303 
L 860.61391 233.19216 
L 869.78149 223.859864 
L 878.949069 236.715913 
L 888.116648 225.39488 
L 897.284228 227.92802 
L 924.786966 208.957571 
L 933.954545 89.28 
" clip-path="url(#p01ce1c2d25)" style="fill: none; stroke: #9467bd; stroke-width: 1.5; stroke-linecap: square"/>
   </g>
   <g id="line2d_19">
    <path d="M 173.045455 221.43492 
L 182.213034 253.752548 
L 191.380613 233.816334 
L 218.883352 223.929756 
L 228.050931 241.262684 
L 237.21851 241.329855 
L 246.38609 241.329054 
L 255.553669 232.626985 
L 283.056407 240.09204 
L 292.223987 223.895536 
L 301.391566 236.322991 
L 310.559146 223.945841 
L 319.726725 240.101473 
L 356.397043 240.047528 
L 365.564622 227.659076 
L 374.732202 233.834317 
L 383.899781 235.128344 
L 411.402519 241.311267 
L 420.570099 223.932815 
L 429.737678 231.380691 
L 438.905257 230.129313 
L 448.072837 235.121275 
L 475.575575 236.352188 
L 484.743154 236.370464 
L 493.910734 230.152655 
L 503.078313 222.688922 
L 512.245893 231.378922 
L 539.748631 241.325645 
L 548.91621 253.754815 
L 558.08379 220.20991 
L 567.251369 248.779282 
L 576.418949 222.685865 
L 603.921687 222.661418 
L 613.089266 235.12071 
L 622.256846 227.624164 
L 631.424425 241.259683 
L 640.592004 227.633291 
L 668.094743 220.194902 
L 677.262322 227.616598 
L 686.429901 233.869712 
L 695.597481 237.588264 
L 704.76506 235.069695 
L 732.267798 232.623045 
L 741.435378 213.961051 
L 750.602957 220.163562 
L 759.770537 232.579483 
L 796.440854 221.409251 
L 805.608434 206.523602 
L 814.776013 246.290987 
L 823.943593 248.793987 
L 833.111172 253.73611 
L 860.61391 246.287604 
L 869.78149 238.838818 
L 878.949069 248.750763 
L 888.116648 240.081258 
L 897.284228 241.275917 
L 924.786966 226.392987 
L 933.954545 129.480161 
" clip-path="url(#p01ce1c2d25)" style="fill: none; stroke: #8c564b; stroke-width: 1.5; stroke-linecap: square"/>
   </g>
   <g id="line2d_20">
    <path d="M 173.045455 258.533465 
L 182.213034 242.493897 
L 191.380613 169.743053 
L 218.883352 151.125721 
L 228.050931 233.901299 
L 237.21851 121.051575 
L 246.38609 276.291542 
L 255.553669 236.479062 
L 283.056407 291.471829 
L 292.223987 178.049278 
L 301.391566 262.256937 
L 310.559146 181.486295 
L 319.726725 182.918404 
L 356.397043 166.306036 
L 365.564622 238.770425 
L 374.732202 169.743053 
L 383.899781 163.728245 
L 411.402519 108.735478 
L 420.570099 239.343279 
L 429.737678 246.503795 
L 438.905257 196.380182 
L 448.072837 196.666609 
L 475.575575 276.291542 
L 484.743154 182.918404 
L 493.910734 236.192662 
L 503.078313 239.343279 
L 512.245893 156.567729 
L 539.748631 217.288876 
L 548.91621 242.493897 
L 558.08379 190.365347 
L 567.251369 240.488961 
L 576.418949 151.125721 
L 603.921687 227.31361 
L 613.089266 196.666609 
L 622.256846 178.049278 
L 631.424425 233.901299 
L 640.592004 240.202534 
L 668.094743 227.027183 
L 677.262322 225.881501 
L 686.429901 236.479062 
L 695.597481 221.298775 
L 704.76506 236.192662 
L 732.267798 246.503795 
L 741.435378 205.259234 
L 750.602957 236.765489 
L 759.770537 239.343279 
L 796.440854 240.775388 
L 805.608434 117.900931 
L 814.776013 210.12836 
L 823.943593 231.323509 
L 833.111172 214.138259 
L 860.61391 208.696278 
L 869.78149 276.291542 
L 878.949069 242.207497 
L 888.116648 166.306036 
L 897.284228 165.733181 
L 924.786966 273.427324 
L 933.954545 149.69364 
" clip-path="url(#p01ce1c2d25)" style="fill: none; stroke: #e377c2; stroke-width: 1.5; stroke-linecap: square"/>
   </g>
   <g id="line2d_21">
    <path d="M 173.045455 238.71315 
L 182.213034 230.75066 
L 191.380613 223.704709 
L 218.883352 200.218214 
L 228.050931 211.102207 
L 237.21851 219.637541 
L 246.38609 212.706161 
L 255.553669 188.360406 
L 283.056407 243.353167 
L 292.223987 173.466541 
L 301.391566 261.225815 
L 310.559146 213.679992 
L 319.726725 192.65671 
L 356.397043 238.942292 
L 365.564622 214.25283 
L 374.732202 247.935893 
L 383.899781 218.148152 
L 411.402519 202.16588 
L 420.570099 221.814339 
L 429.737678 213.508141 
L 438.905257 221.012364 
L 448.072837 239.343274 
L 475.575575 257.903336 
L 484.743154 201.077479 
L 493.910734 256.070246 
L 503.078313 196.380176 
L 512.245893 234.531422 
L 539.748631 214.310121 
L 548.91621 197.640429 
L 558.08379 231.438069 
L 567.251369 213.221714 
L 576.418949 201.879453 
L 603.921687 211.445909 
L 613.089266 228.11559 
L 622.256846 202.223166 
L 631.424425 203.82712 
L 640.592004 225.595085 
L 668.094743 234.531406 
L 677.262322 230.120531 
L 686.429901 248.050464 
L 695.597481 206.175768 
L 704.76506 251.659365 
L 732.267798 240.660817 
L 741.435378 193.745117 
L 750.602957 209.670109 
L 759.770537 255.898389 
L 796.440854 175.872475 
L 805.608434 160.348464 
L 814.776013 231.323503 
L 823.943593 224.277552 
L 833.111172 239.114143 
L 860.61391 216.200491 
L 869.78149 239.400565 
L 878.949069 258.189763 
L 888.116648 239.400565 
L 897.284228 240.374395 
L 924.786966 219.981243 
L 933.954545 140.241739 
" clip-path="url(#p01ce1c2d25)" style="fill: none; stroke: #7f7f7f; stroke-width: 1.5; stroke-linecap: square"/>
   </g>
   <g id="line2d_22">
    <path d="M 173.045455 212.391452 
L 182.213034 207.299024 
L 191.380613 225.321649 
L 218.883352 193.082035 
L 228.050931 219.693597 
L 237.21851 217.595489 
L 246.38609 217.595489 
L 255.553669 204.056737 
L 283.056407 237.060739 
L 292.223987 216.881606 
L 301.391566 240.626356 
L 310.559146 191.351918 
L 319.726725 215.096667 
L 356.397043 238.761465 
L 365.564622 212.248839 
L 374.732202 225.991417 
L 383.899781 214.707426 
L 411.402519 213.907036 
L 420.570099 212.248839 
L 429.737678 225.884779 
L 438.905257 219.979096 
L 448.072837 236.671497 
L 475.575575 216.826785 
L 484.743154 215.096667 
L 493.910734 224.699163 
L 503.078313 212.248839 
L 512.245893 225.268985 
L 539.748631 198.428685 
L 548.91621 226.465828 
L 558.08379 217.147056 
L 567.251369 207.299024 
L 576.418949 193.082035 
L 603.921687 216.881606 
L 613.089266 236.671497 
L 622.256846 216.881606 
L 631.424425 219.693597 
L 640.592004 216.881606 
L 668.094743 218.12535 
L 677.262322 215.016716 
L 686.429901 204.056737 
L 695.597481 232.305135 
L 704.76506 238.372224 
L 732.267798 225.884779 
L 741.435378 196.328092 
L 750.602957 218.847782 
L 759.770537 225.991417 
L 796.440854 218.847782 
L 805.608434 168.695023 
L 814.776013 221.446605 
L 823.943593 221.120188 
L 833.111172 234.322253 
L 860.61391 215.712707 
L 869.78149 216.826785 
L 878.949069 231.098595 
L 888.116648 216.826785 
L 897.284228 219.693597 
L 924.786966 220.105265 
L 933.954545 158.614075 
" clip-path="url(#p01ce1c2d25)" style="fill: none; stroke: #bcbd22; stroke-width: 1.5; stroke-linecap: square"/>
   </g>
   <g id="line2d_23">
    <path d="M 173.045455 202.577764 
L 182.213034 242.174451 
L 191.380613 218.819377 
L 218.883352 205.438474 
L 228.050931 228.198675 
L 237.21851 226.795272 
L 246.38609 226.81202 
L 255.553669 216.175801 
L 283.056407 225.164298 
L 292.223987 206.153423 
L 301.391566 221.433088 
L 310.559146 205.102399 
L 319.726725 224.967212 
L 356.397043 226.094279 
L 365.564622 209.999731 
L 374.732202 218.443662 
L 383.899781 218.900209 
L 411.402519 227.18363 
L 420.570099 205.374548 
L 429.737678 214.721978 
L 438.905257 213.374359 
L 448.072837 219.0479 
L 475.575575 220.823086 
L 484.743154 220.441247 
L 493.910734 212.886675 
L 503.078313 203.870564 
L 512.245893 214.758922 
L 539.748631 226.883242 
L 548.91621 242.127076 
L 558.08379 200.679264 
L 567.251369 236.110294 
L 576.418949 203.934436 
L 603.921687 204.4452 
L 613.089266 219.059707 
L 622.256846 210.729142 
L 631.424425 228.26136 
L 640.592004 210.538447 
L 668.094743 200.992817 
L 677.262322 210.887215 
L 686.429901 217.704163 
L 695.597481 222.490401 
L 704.76506 220.125537 
L 732.267798 216.258125 
L 741.435378 193.77341 
L 750.602957 201.64759 
L 759.770537 217.168255 
L 796.440854 203.114074 
L 805.608434 184.208152 
L 814.776013 233.112939 
L 823.943593 235.803071 
L 833.111172 242.517884 
L 860.61391 233.183624 
L 869.78149 223.85521 
L 878.949069 236.706132 
L 888.116648 225.389577 
L 897.284228 227.922184 
L 924.786966 208.959463 
L 933.954545 89.332544 
" clip-path="url(#p01ce1c2d25)" style="fill: none; stroke: #17becf; stroke-width: 1.5; stroke-linecap: square"/>
   </g>
   <g id="line2d_24">
    <path d="M 173.045455 203.619996 
L 182.213034 239.450615 
L 191.380613 218.274888 
L 218.883352 206.2163 
L 228.050931 226.752097 
L 237.21851 225.540367 
L 246.38609 225.554828 
L 255.553669 215.929213 
L 283.056407 224.068995 
L 292.223987 206.833604 
L 301.391566 220.657929 
L 310.559146 205.926126 
L 319.726725 223.898827 
L 356.397043 224.871962 
L 365.564622 210.344048 
L 374.732202 217.950487 
L 383.899781 218.407832 
L 411.402519 225.875684 
L 420.570099 206.161106 
L 429.737678 214.610798 
L 438.905257 213.384082 
L 448.072837 218.535352 
L 475.575575 220.131239 
L 484.743154 219.801551 
L 493.910734 212.963004 
L 503.078313 204.79938 
L 512.245893 214.642697 
L 539.748631 225.616322 
L 548.91621 239.40971 
L 558.08379 201.917636 
L 567.251369 233.962078 
L 576.418949 204.854528 
L 603.921687 205.295534 
L 613.089266 218.545546 
L 622.256846 210.973838 
L 631.424425 226.80622 
L 640.592004 210.809188 
L 668.094743 202.188365 
L 677.262322 211.110322 
L 686.429901 217.311988 
L 695.597481 221.633988 
L 704.76506 219.465808 
L 732.267798 216.000294 
L 741.435378 195.639207 
L 750.602957 202.753711 
L 759.770537 216.78612 
L 796.440854 204.083057 
L 805.608434 187.001437 
L 814.776013 231.24779 
L 823.943593 233.696814 
L 833.111172 239.747142 
L 860.61391 231.308821 
L 869.78149 222.875547 
L 878.949069 234.476537 
L 888.116648 224.263506 
L 897.284228 226.513368 
L 924.786966 209.382705 
L 933.954545 101.168286 
" clip-path="url(#p01ce1c2d25)" style="fill: none; stroke: #1f77b4; stroke-width: 1.5; stroke-linecap: square"/>
   </g>
   <g id="line2d_25">
    <path d="M 173.045455 212.803665 
L 182.213034 213.055512 
L 191.380613 213.882561 
L 218.883352 213.07119 
L 228.050931 214.991012 
L 237.21851 213.248685 
L 246.38609 213.202877 
L 255.553669 213.0129 
L 283.056407 213.521072 
L 292.223987 212.880776 
L 301.391566 212.841633 
L 310.559146 214.013155 
L 319.726725 214.116325 
L 356.397043 212.885283 
L 365.564622 213.144341 
L 374.732202 212.896756 
L 383.899781 213.917798 
L 411.402519 212.750428 
L 420.570099 213.236857 
L 429.737678 212.880585 
L 438.905257 212.765424 
L 448.072837 213.508206 
L 475.575575 212.907818 
L 484.743154 213.883026 
L 493.910734 213.614271 
L 503.078313 213.165974 
L 512.245893 212.838328 
L 539.748631 213.023853 
L 548.91621 213.176436 
L 558.08379 213.5273 
L 567.251369 212.93415 
L 576.418949 213.013118 
L 603.921687 212.798749 
L 613.089266 213.476903 
L 622.256846 212.862093 
L 631.424425 215.330485 
L 640.592004 212.782523 
L 668.094743 212.842426 
L 677.262322 213.02022 
L 686.429901 213.017052 
L 695.597481 212.778863 
L 704.76506 213.094326 
L 732.267798 212.872418 
L 741.435378 212.83322 
L 750.602957 212.968786 
L 759.770537 213.370428 
L 796.440854 212.90342 
L 805.608434 212.835788 
L 814.776013 212.842863 
L 823.943593 213.713972 
L 833.111172 212.740895 
L 860.61391 212.784108 
L 869.78149 212.956494 
L 878.949069 212.810631 
L 888.116648 212.948928 
L 897.284228 213.484797 
L 924.786966 212.774274 
L 933.954545 492.48 
" clip-path="url(#p01ce1c2d25)" style="fill: none; stroke: #ff7f0e; stroke-width: 1.5; stroke-linecap: square"/>
   </g>
   <g id="line2d_26">
    <path d="M 237.21851 202.70488 
L 246.38609 190.345516 
L 255.553669 183.754932 
L 283.056407 231.402805 
L 292.223987 155.073205 
L 301.391566 217.441295 
L 310.559146 205.073436 
L 319.726725 233.247837 
L 356.397043 209.717949 
L 365.564622 226.172736 
L 374.732202 203.078142 
L 383.899781 228.663855 
L 411.402519 203.925378 
L 420.570099 214.086934 
L 429.737678 246.398796 
L 438.905257 199.817472 
L 448.072837 239.748609 
L 475.575575 216.684445 
L 484.743154 235.928469 
L 493.910734 220.360389 
L 503.078313 226.231136 
L 512.245893 224.098802 
L 539.748631 217.965829 
L 548.91621 213.352537 
L 558.08379 198.412324 
L 567.251369 241.294131 
L 576.418949 173.431534 
L 603.921687 222.558634 
L 613.089266 196.080807 
L 622.256846 210.897392 
L 631.424425 249.546764 
L 640.592004 223.0865 
L 668.094743 232.034878 
L 677.262322 240.500488 
L 686.429901 204.81233 
L 695.597481 195.767365 
L 704.76506 231.181497 
L 732.267798 242.104873 
L 741.435378 205.172536 
L 750.602957 240.539139 
L 759.770537 232.754033 
L 796.440854 212.287408 
L 805.608434 268.436646 
L 814.776013 263.399586 
L 823.943593 165.258006 
L 833.111172 185.607722 
L 860.61391 199.453415 
L 869.78149 203.451814 
L 878.949069 198.348761 
L 888.116648 196.708074 
L 897.284228 197.901748 
L 924.786966 209.28361 
L 933.954545 218.519699 
" clip-path="url(#p01ce1c2d25)" style="fill: none; stroke: #2ca02c; stroke-width: 1.5; stroke-linecap: square"/>
   </g>
   <g id="line2d_27">
    <path d="M 173.045455 162.296109 
L 182.213034 151.698576 
L 191.380613 152.84423 
L 218.883352 155.708447 
L 228.050931 154.562793 
L 237.21851 154.276366 
L 246.38609 163.155391 
L 255.553669 174.039352 
L 283.056407 167.45169 
L 292.223987 159.431892 
L 301.391566 159.145519 
L 310.559146 170.888762 
L 319.726725 171.747989 
L 356.397043 190.938202 
L 365.564622 194.661646 
L 374.732202 185.782621 
L 383.899781 194.661646 
L 411.402519 192.65671 
L 420.570099 182.632004 
L 429.737678 181.199868 
L 438.905257 178.622078 
L 448.072837 171.747989 
L 475.575575 178.622078 
L 484.743154 171.747989 
L 493.910734 165.160327 
L 503.078313 185.496194 
L 512.245893 197.525863 
L 539.748631 214.997513 
L 548.91621 220.439521 
L 558.08379 243.353178 
L 567.251369 235.906235 
L 576.418949 239.916134 
L 603.921687 240.488961 
L 613.089266 228.745718 
L 622.256846 244.49886 
L 631.424425 249.94084 
L 640.592004 247.36305 
L 668.094743 241.061815 
L 677.262322 239.916134 
L 686.429901 229.318546 
L 695.597481 225.881501 
L 704.76506 217.861731 
L 732.267798 227.31361 
L 741.435378 234.760553 
L 750.602957 242.493897 
L 759.770537 239.056852 
L 796.440854 235.04698 
L 805.608434 230.177827 
L 814.776013 267.985344 
L 823.943593 269.417453 
L 833.111172 274.000179 
L 860.61391 265.121127 
L 869.78149 259.679146 
L 878.949069 249.94084 
L 888.116648 258.819892 
L 897.284228 256.528529 
L 924.786966 258.819892 
L 933.954545 272.56807 
" clip-path="url(#p01ce1c2d25)" style="fill: none; stroke: #000000; stroke-width: 2; stroke-linecap: square"/>
   </g>
   <g id="patch_3">
    <path d="M 135 512.64 
L 135 69.12 
" style="fill: none; stroke: #000000; stroke-width: 0.8; stroke-linejoin: miter; stroke-linecap: square"/>
   </g>
   <g id="patch_4">
    <path d="M 972 512.64 
L 972 69.12 
" style="fill: none; stroke: #000000; stroke-width: 0.8; stroke-linejoin: miter; stroke-linecap: square"/>
   </g>
   <g id="patch_5">
    <path d="M 135 512.64 
L 972 512.64 
" style="fill: none; stroke: #000000; stroke-width: 0.8; stroke-linejoin: miter; stroke-linecap: square"/>
   </g>
   <g id="patch_6">
    <path d="M 135 69.12 
L 972 69.12 
" style="fill: none; stroke: #000000; stroke-width: 0.8; stroke-linejoin: miter; stroke-linecap: square"/>
   </g>
   <g id="text_16">
    <!-- Tahminler ve Gerçek Değerler -->
    <g transform="translate(464.000625 63.12) scale(0.12 -0.12)">
     <defs>
      <path id="DejaVuSans-54" d="M -19 4666 
L 3928 4666 
L 3928 4134 
L 2272 4134 
L 2272 0 
L 1638 0 
L 1638 4134 
L -19 4134 
L -19 4666 
z
" transform="scale(0.015625)"/>
      <path id="DejaVuSans-68" d="M 3513 2113 
L 3513 0 
L 2938 0 
L 2938 2094 
Q 2938 2591 2744 2837 
Q 2550 3084 2163 3084 
Q 1697 3084 1428 2787 
Q 1159 2491 1159 1978 
L 1159 0 
L 581 0 
L 581 4863 
L 1159 4863 
L 1159 2956 
Q 1366 3272 1645 3428 
Q 1925 3584 2291 3584 
Q 2894 3584 3203 3211 
Q 3513 2838 3513 2113 
z
" transform="scale(0.015625)"/>
      <path id="DejaVuSans-6d" d="M 3328 2828 
Q 3544 3216 3844 3400 
Q 4144 3584 4550 3584 
Q 5097 3584 5394 3201 
Q 5691 2819 5691 2113 
L 5691 0 
L 5113 0 
L 5113 2094 
Q 5113 2597 4934 2840 
Q 4756 3084 4391 3084 
Q 3944 3084 3684 2787 
Q 3425 2491 3425 1978 
L 3425 0 
L 2847 0 
L 2847 2094 
Q 2847 2600 2669 2842 
Q 2491 3084 2119 3084 
Q 1678 3084 1418 2786 
Q 1159 2488 1159 1978 
L 1159 0 
L 581 0 
L 581 3500 
L 1159 3500 
L 1159 2956 
Q 1356 3278 1631 3431 
Q 1906 3584 2284 3584 
Q 2666 3584 2933 3390 
Q 3200 3197 3328 2828 
z
" transform="scale(0.015625)"/>
      <path id="DejaVuSans-69" d="M 603 3500 
L 1178 3500 
L 1178 0 
L 603 0 
L 603 3500 
z
M 603 4863 
L 1178 4863 
L 1178 4134 
L 603 4134 
L 603 4863 
z
" transform="scale(0.015625)"/>
      <path id="DejaVuSans-6e" d="M 3513 2113 
L 3513 0 
L 2938 0 
L 2938 2094 
Q 2938 2591 2744 2837 
Q 2550 3084 2163 3084 
Q 1697 3084 1428 2787 
Q 1159 2491 1159 1978 
L 1159 0 
L 581 0 
L 581 3500 
L 1159 3500 
L 1159 2956 
Q 1366 3272 1645 3428 
Q 1925 3584 2291 3584 
Q 2894 3584 3203 3211 
Q 3513 2838 3513 2113 
z
" transform="scale(0.015625)"/>
      <path id="DejaVuSans-72" d="M 2631 2963 
Q 2534 3019 2420 3045 
Q 2306 3072 2169 3072 
Q 1681 3072 1420 2755 
Q 1159 2438 1159 1844 
L 1159 0 
L 581 0 
L 581 3500 
L 1159 3500 
L 1159 2956 
Q 1341 3275 1631 3429 
Q 1922 3584 2338 3584 
Q 2397 3584 2469 3576 
Q 2541 3569 2628 3553 
L 2631 2963 
z
" transform="scale(0.015625)"/>
      <path id="DejaVuSans-76" d="M 191 3500 
L 800 3500 
L 1894 563 
L 2988 3500 
L 3597 3500 
L 2284 0 
L 1503 0 
L 191 3500 
z
" transform="scale(0.015625)"/>
      <path id="DejaVuSans-47" d="M 3809 666 
L 3809 1919 
L 2778 1919 
L 2778 2438 
L 4434 2438 
L 4434 434 
Q 4069 175 3628 42 
Q 3188 -91 2688 -91 
Q 1594 -91 976 548 
Q 359 1188 359 2328 
Q 359 3472 976 4111 
Q 1594 4750 2688 4750 
Q 3144 4750 3555 4637 
Q 3966 4525 4313 4306 
L 4313 3634 
Q 3963 3931 3569 4081 
Q 3175 4231 2741 4231 
Q 1884 4231 1454 3753 
Q 1025 3275 1025 2328 
Q 1025 1384 1454 906 
Q 1884 428 2741 428 
Q 3075 428 3337 486 
Q 3600 544 3809 666 
z
" transform="scale(0.015625)"/>
      <path id="DejaVuSans-e7" d="M 3122 3366 
L 3122 2828 
Q 2878 2963 2633 3030 
Q 2388 3097 2138 3097 
Q 1578 3097 1268 2742 
Q 959 2388 959 1747 
Q 959 1106 1268 751 
Q 1578 397 2138 397 
Q 2388 397 2633 464 
Q 2878 531 3122 666 
L 3122 134 
Q 2881 22 2623 -34 
Q 2366 -91 2075 -91 
Q 1284 -91 818 406 
Q 353 903 353 1747 
Q 353 2603 823 3093 
Q 1294 3584 2113 3584 
Q 2378 3584 2631 3529 
Q 2884 3475 3122 3366 
z
M 2311 0 
Q 2482 -194 2566 -358 
Q 2651 -522 2651 -672 
Q 2651 -950 2463 -1092 
Q 2276 -1234 1907 -1234 
Q 1764 -1234 1628 -1215 
Q 1492 -1197 1357 -1159 
L 1357 -750 
Q 1464 -803 1579 -826 
Q 1695 -850 1842 -850 
Q 2026 -850 2120 -775 
Q 2214 -700 2214 -556 
Q 2214 -463 2146 -327 
Q 2079 -191 1939 0 
L 2311 0 
z
" transform="scale(0.015625)"/>
      <path id="DejaVuSans-6b" d="M 581 4863 
L 1159 4863 
L 1159 1991 
L 2875 3500 
L 3609 3500 
L 1753 1863 
L 3688 0 
L 2938 0 
L 1159 1709 
L 1159 0 
L 581 0 
L 581 4863 
z
" transform="scale(0.015625)"/>
      <path id="DejaVuSans-11f" d="M 2906 1791 
Q 2906 2416 2648 2759 
Q 2391 3103 1925 3103 
Q 1463 3103 1205 2759 
Q 947 2416 947 1791 
Q 947 1169 1205 825 
Q 1463 481 1925 481 
Q 2391 481 2648 825 
Q 2906 1169 2906 1791 
z
M 3481 434 
Q 3481 -459 3084 -895 
Q 2688 -1331 1869 -1331 
Q 1566 -1331 1297 -1286 
Q 1028 -1241 775 -1147 
L 775 -588 
Q 1028 -725 1275 -790 
Q 1522 -856 1778 -856 
Q 2344 -856 2625 -561 
Q 2906 -266 2906 331 
L 2906 616 
Q 2728 306 2450 153 
Q 2172 0 1784 0 
Q 1141 0 747 490 
Q 353 981 353 1791 
Q 353 2603 747 3093 
Q 1141 3584 1784 3584 
Q 2172 3584 2450 3431 
Q 2728 3278 2906 2969 
L 2906 3500 
L 3481 3500 
L 3481 434 
z
M 1054 5025 
L 1423 5025 
Q 1457 4791 1608 4673 
Q 1760 4556 2032 4556 
Q 2301 4556 2451 4672 
Q 2601 4788 2641 5025 
L 3010 5025 
Q 2979 4578 2732 4353 
Q 2485 4128 2032 4128 
Q 1579 4128 1332 4353 
Q 1085 4578 1054 5025 
z
" transform="scale(0.015625)"/>
     </defs>
     <use xlink:href="#DejaVuSans-54"/>
     <use xlink:href="#DejaVuSans-61" x="44.583984"/>
     <use xlink:href="#DejaVuSans-68" x="105.863281"/>
     <use xlink:href="#DejaVuSans-6d" x="169.242188"/>
     <use xlink:href="#DejaVuSans-69" x="266.654297"/>
     <use xlink:href="#DejaVuSans-6e" x="294.4375"/>
     <use xlink:href="#DejaVuSans-6c" x="357.816406"/>
     <use xlink:href="#DejaVuSans-65" x="385.599609"/>
     <use xlink:href="#DejaVuSans-72" x="447.123047"/>
     <use xlink:href="#DejaVuSans-20" x="488.236328"/>
     <use xlink:href="#DejaVuSans-76" x="520.023438"/>
     <use xlink:href="#DejaVuSans-65" x="579.203125"/>
     <use xlink:href="#DejaVuSans-20" x="640.726562"/>
     <use xlink:href="#DejaVuSans-47" x="672.513672"/>
     <use xlink:href="#DejaVuSans-65" x="750.003906"/>
     <use xlink:href="#DejaVuSans-72" x="811.527344"/>
     <use xlink:href="#DejaVuSans-e7" x="850.390625"/>
     <use xlink:href="#DejaVuSans-65" x="905.371094"/>
     <use xlink:href="#DejaVuSans-6b" x="966.894531"/>
     <use xlink:href="#DejaVuSans-20" x="1024.804688"/>
     <use xlink:href="#DejaVuSans-44" x="1056.591797"/>
     <use xlink:href="#DejaVuSans-65" x="1133.59375"/>
     <use xlink:href="#DejaVuSans-11f" x="1195.117188"/>
     <use xlink:href="#DejaVuSans-65" x="1258.59375"/>
     <use xlink:href="#DejaVuSans-72" x="1320.117188"/>
     <use xlink:href="#DejaVuSans-6c" x="1361.230469"/>
     <use xlink:href="#DejaVuSans-65" x="1389.013672"/>
     <use xlink:href="#DejaVuSans-72" x="1450.537109"/>
    </g>
   </g>
   <g id="legend_1">
    <g id="patch_7">
     <path d="M 142 507.64 
L 306.448438 507.64 
Q 308.448438 507.64 308.448438 505.64 
L 308.448438 300.893125 
Q 308.448438 298.893125 306.448438 298.893125 
L 142 298.893125 
Q 140 298.893125 140 300.893125 
L 140 505.64 
Q 140 507.64 142 507.64 
z
" style="fill: #ffffff; opacity: 0.8; stroke: #cccccc; stroke-linejoin: miter"/>
    </g>
    <g id="line2d_28">
     <path d="M 144 306.991563 
L 154 306.991563 
L 164 306.991563 
" style="fill: none; stroke: #1f77b4; stroke-width: 1.5; stroke-linecap: square"/>
    </g>
    <g id="text_17">
     <!-- ARIMA -->
     <g transform="translate(172 310.491563) scale(0.1 -0.1)">
      <defs>
       <path id="DejaVuSans-52" d="M 2841 2188 
Q 3044 2119 3236 1894 
Q 3428 1669 3622 1275 
L 4263 0 
L 3584 0 
L 2988 1197 
Q 2756 1666 2539 1819 
Q 2322 1972 1947 1972 
L 1259 1972 
L 1259 0 
L 628 0 
L 628 4666 
L 2053 4666 
Q 2853 4666 3247 4331 
Q 3641 3997 3641 3322 
Q 3641 2881 3436 2590 
Q 3231 2300 2841 2188 
z
M 1259 4147 
L 1259 2491 
L 2053 2491 
Q 2509 2491 2742 2702 
Q 2975 2913 2975 3322 
Q 2975 3731 2742 3939 
Q 2509 4147 2053 4147 
L 1259 4147 
z
" transform="scale(0.015625)"/>
       <path id="DejaVuSans-49" d="M 628 4666 
L 1259 4666 
L 1259 0 
L 628 0 
L 628 4666 
z
" transform="scale(0.015625)"/>
       <path id="DejaVuSans-4d" d="M 628 4666 
L 1569 4666 
L 2759 1491 
L 3956 4666 
L 4897 4666 
L 4897 0 
L 4281 0 
L 4281 4097 
L 3078 897 
L 2444 897 
L 1241 4097 
L 1241 0 
L 628 0 
L 628 4666 
z
" transform="scale(0.015625)"/>
      </defs>
      <use xlink:href="#DejaVuSans-41"/>
      <use xlink:href="#DejaVuSans-52" x="68.408203"/>
      <use xlink:href="#DejaVuSans-49" x="137.890625"/>
      <use xlink:href="#DejaVuSans-4d" x="167.382812"/>
      <use xlink:href="#DejaVuSans-41" x="253.662109"/>
     </g>
    </g>
    <g id="line2d_29">
     <path d="M 144 321.669688 
L 154 321.669688 
L 164 321.669688 
" style="fill: none; stroke: #ff7f0e; stroke-width: 1.5; stroke-linecap: square"/>
    </g>
    <g id="text_18">
     <!-- ETS -->
     <g transform="translate(172 325.169688) scale(0.1 -0.1)">
      <defs>
       <path id="DejaVuSans-45" d="M 628 4666 
L 3578 4666 
L 3578 4134 
L 1259 4134 
L 1259 2753 
L 3481 2753 
L 3481 2222 
L 1259 2222 
L 1259 531 
L 3634 531 
L 3634 0 
L 628 0 
L 628 4666 
z
" transform="scale(0.015625)"/>
       <path id="DejaVuSans-53" d="M 3425 4513 
L 3425 3897 
Q 3066 4069 2747 4153 
Q 2428 4238 2131 4238 
Q 1616 4238 1336 4038 
Q 1056 3838 1056 3469 
Q 1056 3159 1242 3001 
Q 1428 2844 1947 2747 
L 2328 2669 
Q 3034 2534 3370 2195 
Q 3706 1856 3706 1288 
Q 3706 609 3251 259 
Q 2797 -91 1919 -91 
Q 1588 -91 1214 -16 
Q 841 59 441 206 
L 441 856 
Q 825 641 1194 531 
Q 1563 422 1919 422 
Q 2459 422 2753 634 
Q 3047 847 3047 1241 
Q 3047 1584 2836 1778 
Q 2625 1972 2144 2069 
L 1759 2144 
Q 1053 2284 737 2584 
Q 422 2884 422 3419 
Q 422 4038 858 4394 
Q 1294 4750 2059 4750 
Q 2388 4750 2728 4690 
Q 3069 4631 3425 4513 
z
" transform="scale(0.015625)"/>
      </defs>
      <use xlink:href="#DejaVuSans-45"/>
      <use xlink:href="#DejaVuSans-54" x="63.183594"/>
      <use xlink:href="#DejaVuSans-53" x="124.267578"/>
     </g>
    </g>
    <g id="line2d_30">
     <path d="M 144 336.347813 
L 154 336.347813 
L 164 336.347813 
" style="fill: none; stroke: #2ca02c; stroke-width: 1.5; stroke-linecap: square"/>
    </g>
    <g id="text_19">
     <!-- Random Forest -->
     <g transform="translate(172 339.847813) scale(0.1 -0.1)">
      <defs>
       <path id="DejaVuSans-46" d="M 628 4666 
L 3309 4666 
L 3309 4134 
L 1259 4134 
L 1259 2759 
L 3109 2759 
L 3109 2228 
L 1259 2228 
L 1259 0 
L 628 0 
L 628 4666 
z
" transform="scale(0.015625)"/>
      </defs>
      <use xlink:href="#DejaVuSans-52"/>
      <use xlink:href="#DejaVuSans-61" x="67.232422"/>
      <use xlink:href="#DejaVuSans-6e" x="128.511719"/>
      <use xlink:href="#DejaVuSans-64" x="191.890625"/>
      <use xlink:href="#DejaVuSans-6f" x="255.367188"/>
      <use xlink:href="#DejaVuSans-6d" x="316.548828"/>
      <use xlink:href="#DejaVuSans-20" x="413.960938"/>
      <use xlink:href="#DejaVuSans-46" x="445.748047"/>
      <use xlink:href="#DejaVuSans-6f" x="499.642578"/>
      <use xlink:href="#DejaVuSans-72" x="560.824219"/>
      <use xlink:href="#DejaVuSans-65" x="599.6875"/>
      <use xlink:href="#DejaVuSans-73" x="661.210938"/>
      <use xlink:href="#DejaVuSans-74" x="713.310547"/>
     </g>
    </g>
    <g id="line2d_31">
     <path d="M 144 351.025938 
L 154 351.025938 
L 164 351.025938 
" style="fill: none; stroke: #d62728; stroke-width: 1.5; stroke-linecap: square"/>
    </g>
    <g id="text_20">
     <!-- Gradient Boosting -->
     <g transform="translate(172 354.525938) scale(0.1 -0.1)">
      <defs>
       <path id="DejaVuSans-42" d="M 1259 2228 
L 1259 519 
L 2272 519 
Q 2781 519 3026 730 
Q 3272 941 3272 1375 
Q 3272 1813 3026 2020 
Q 2781 2228 2272 2228 
L 1259 2228 
z
M 1259 4147 
L 1259 2741 
L 2194 2741 
Q 2656 2741 2882 2914 
Q 3109 3088 3109 3444 
Q 3109 3797 2882 3972 
Q 2656 4147 2194 4147 
L 1259 4147 
z
M 628 4666 
L 2241 4666 
Q 2963 4666 3353 4366 
Q 3744 4066 3744 3513 
Q 3744 3084 3544 2831 
Q 3344 2578 2956 2516 
Q 3422 2416 3680 2098 
Q 3938 1781 3938 1306 
Q 3938 681 3513 340 
Q 3088 0 2303 0 
L 628 0 
L 628 4666 
z
" transform="scale(0.015625)"/>
       <path id="DejaVuSans-67" d="M 2906 1791 
Q 2906 2416 2648 2759 
Q 2391 3103 1925 3103 
Q 1463 3103 1205 2759 
Q 947 2416 947 1791 
Q 947 1169 1205 825 
Q 1463 481 1925 481 
Q 2391 481 2648 825 
Q 2906 1169 2906 1791 
z
M 3481 434 
Q 3481 -459 3084 -895 
Q 2688 -1331 1869 -1331 
Q 1566 -1331 1297 -1286 
Q 1028 -1241 775 -1147 
L 775 -588 
Q 1028 -725 1275 -790 
Q 1522 -856 1778 -856 
Q 2344 -856 2625 -561 
Q 2906 -266 2906 331 
L 2906 616 
Q 2728 306 2450 153 
Q 2172 0 1784 0 
Q 1141 0 747 490 
Q 353 981 353 1791 
Q 353 2603 747 3093 
Q 1141 3584 1784 3584 
Q 2172 3584 2450 3431 
Q 2728 3278 2906 2969 
L 2906 3500 
L 3481 3500 
L 3481 434 
z
" transform="scale(0.015625)"/>
      </defs>
      <use xlink:href="#DejaVuSans-47"/>
      <use xlink:href="#DejaVuSans-72" x="77.490234"/>
      <use xlink:href="#DejaVuSans-61" x="118.603516"/>
      <use xlink:href="#DejaVuSans-64" x="179.882812"/>
      <use xlink:href="#DejaVuSans-69" x="243.359375"/>
      <use xlink:href="#DejaVuSans-65" x="271.142578"/>
      <use xlink:href="#DejaVuSans-6e" x="332.666016"/>
      <use xlink:href="#DejaVuSans-74" x="396.044922"/>
      <use xlink:href="#DejaVuSans-20" x="435.253906"/>
      <use xlink:href="#DejaVuSans-42" x="467.041016"/>
      <use xlink:href="#DejaVuSans-6f" x="535.644531"/>
      <use xlink:href="#DejaVuSans-6f" x="596.826172"/>
      <use xlink:href="#DejaVuSans-73" x="658.007812"/>
      <use xlink:href="#DejaVuSans-74" x="710.107422"/>
      <use xlink:href="#DejaVuSans-69" x="749.316406"/>
      <use xlink:href="#DejaVuSans-6e" x="777.099609"/>
      <use xlink:href="#DejaVuSans-67" x="840.478516"/>
     </g>
    </g>
    <g id="line2d_32">
     <path d="M 144 365.704063 
L 154 365.704063 
L 164 365.704063 
" style="fill: none; stroke: #9467bd; stroke-width: 1.5; stroke-linecap: square"/>
    </g>
    <g id="text_21">
     <!-- Linear Regression -->
     <g transform="translate(172 369.204063) scale(0.1 -0.1)">
      <defs>
       <path id="DejaVuSans-4c" d="M 628 4666 
L 1259 4666 
L 1259 531 
L 3531 531 
L 3531 0 
L 628 0 
L 628 4666 
z
" transform="scale(0.015625)"/>
      </defs>
      <use xlink:href="#DejaVuSans-4c"/>
      <use xlink:href="#DejaVuSans-69" x="55.712891"/>
      <use xlink:href="#DejaVuSans-6e" x="83.496094"/>
      <use xlink:href="#DejaVuSans-65" x="146.875"/>
      <use xlink:href="#DejaVuSans-61" x="208.398438"/>
      <use xlink:href="#DejaVuSans-72" x="269.677734"/>
      <use xlink:href="#DejaVuSans-20" x="310.791016"/>
      <use xlink:href="#DejaVuSans-52" x="342.578125"/>
      <use xlink:href="#DejaVuSans-65" x="407.560547"/>
      <use xlink:href="#DejaVuSans-67" x="469.083984"/>
      <use xlink:href="#DejaVuSans-72" x="532.560547"/>
      <use xlink:href="#DejaVuSans-65" x="571.423828"/>
      <use xlink:href="#DejaVuSans-73" x="632.947266"/>
      <use xlink:href="#DejaVuSans-73" x="685.046875"/>
      <use xlink:href="#DejaVuSans-69" x="737.146484"/>
      <use xlink:href="#DejaVuSans-6f" x="764.929688"/>
      <use xlink:href="#DejaVuSans-6e" x="826.111328"/>
     </g>
    </g>
    <g id="line2d_33">
     <path d="M 144 380.382188 
L 154 380.382188 
L 164 380.382188 
" style="fill: none; stroke: #8c564b; stroke-width: 1.5; stroke-linecap: square"/>
    </g>
    <g id="text_22">
     <!-- Support Vector Regression -->
     <g transform="translate(172 383.882188) scale(0.1 -0.1)">
      <defs>
       <path id="DejaVuSans-75" d="M 544 1381 
L 544 3500 
L 1119 3500 
L 1119 1403 
Q 1119 906 1312 657 
Q 1506 409 1894 409 
Q 2359 409 2629 706 
Q 2900 1003 2900 1516 
L 2900 3500 
L 3475 3500 
L 3475 0 
L 2900 0 
L 2900 538 
Q 2691 219 2414 64 
Q 2138 -91 1772 -91 
Q 1169 -91 856 284 
Q 544 659 544 1381 
z
M 1991 3584 
L 1991 3584 
z
" transform="scale(0.015625)"/>
       <path id="DejaVuSans-70" d="M 1159 525 
L 1159 -1331 
L 581 -1331 
L 581 3500 
L 1159 3500 
L 1159 2969 
Q 1341 3281 1617 3432 
Q 1894 3584 2278 3584 
Q 2916 3584 3314 3078 
Q 3713 2572 3713 1747 
Q 3713 922 3314 415 
Q 2916 -91 2278 -91 
Q 1894 -91 1617 61 
Q 1341 213 1159 525 
z
M 3116 1747 
Q 3116 2381 2855 2742 
Q 2594 3103 2138 3103 
Q 1681 3103 1420 2742 
Q 1159 2381 1159 1747 
Q 1159 1113 1420 752 
Q 1681 391 2138 391 
Q 2594 391 2855 752 
Q 3116 1113 3116 1747 
z
" transform="scale(0.015625)"/>
       <path id="DejaVuSans-56" d="M 1831 0 
L 50 4666 
L 709 4666 
L 2188 738 
L 3669 4666 
L 4325 4666 
L 2547 0 
L 1831 0 
z
" transform="scale(0.015625)"/>
       <path id="DejaVuSans-63" d="M 3122 3366 
L 3122 2828 
Q 2878 2963 2633 3030 
Q 2388 3097 2138 3097 
Q 1578 3097 1268 2742 
Q 959 2388 959 1747 
Q 959 1106 1268 751 
Q 1578 397 2138 397 
Q 2388 397 2633 464 
Q 2878 531 3122 666 
L 3122 134 
Q 2881 22 2623 -34 
Q 2366 -91 2075 -91 
Q 1284 -91 818 406 
Q 353 903 353 1747 
Q 353 2603 823 3093 
Q 1294 3584 2113 3584 
Q 2378 3584 2631 3529 
Q 2884 3475 3122 3366 
z
" transform="scale(0.015625)"/>
      </defs>
      <use xlink:href="#DejaVuSans-53"/>
      <use xlink:href="#DejaVuSans-75" x="63.476562"/>
      <use xlink:href="#DejaVuSans-70" x="126.855469"/>
      <use xlink:href="#DejaVuSans-70" x="190.332031"/>
      <use xlink:href="#DejaVuSans-6f" x="253.808594"/>
      <use xlink:href="#DejaVuSans-72" x="314.990234"/>
      <use xlink:href="#DejaVuSans-74" x="356.103516"/>
      <use xlink:href="#DejaVuSans-20" x="395.3125"/>
      <use xlink:href="#DejaVuSans-56" x="427.099609"/>
      <use xlink:href="#DejaVuSans-65" x="487.757812"/>
      <use xlink:href="#DejaVuSans-63" x="549.28125"/>
      <use xlink:href="#DejaVuSans-74" x="604.261719"/>
      <use xlink:href="#DejaVuSans-6f" x="643.470703"/>
      <use xlink:href="#DejaVuSans-72" x="704.652344"/>
      <use xlink:href="#DejaVuSans-20" x="745.765625"/>
      <use xlink:href="#DejaVuSans-52" x="777.552734"/>
      <use xlink:href="#DejaVuSans-65" x="842.535156"/>
      <use xlink:href="#DejaVuSans-67" x="904.058594"/>
      <use xlink:href="#DejaVuSans-72" x="967.535156"/>
      <use xlink:href="#DejaVuSans-65" x="1006.398438"/>
      <use xlink:href="#DejaVuSans-73" x="1067.921875"/>
      <use xlink:href="#DejaVuSans-73" x="1120.021484"/>
      <use xlink:href="#DejaVuSans-69" x="1172.121094"/>
      <use xlink:href="#DejaVuSans-6f" x="1199.904297"/>
      <use xlink:href="#DejaVuSans-6e" x="1261.085938"/>
     </g>
    </g>
    <g id="line2d_34">
     <path d="M 144 395.060313 
L 154 395.060313 
L 164 395.060313 
" style="fill: none; stroke: #e377c2; stroke-width: 1.5; stroke-linecap: square"/>
    </g>
    <g id="text_23">
     <!-- Decision Tree -->
     <g transform="translate(172 398.560313) scale(0.1 -0.1)">
      <use xlink:href="#DejaVuSans-44"/>
      <use xlink:href="#DejaVuSans-65" x="77.001953"/>
      <use xlink:href="#DejaVuSans-63" x="138.525391"/>
      <use xlink:href="#DejaVuSans-69" x="193.505859"/>
      <use xlink:href="#DejaVuSans-73" x="221.289062"/>
      <use xlink:href="#DejaVuSans-69" x="273.388672"/>
      <use xlink:href="#DejaVuSans-6f" x="301.171875"/>
      <use xlink:href="#DejaVuSans-6e" x="362.353516"/>
      <use xlink:href="#DejaVuSans-20" x="425.732422"/>
      <use xlink:href="#DejaVuSans-54" x="457.519531"/>
      <use xlink:href="#DejaVuSans-72" x="503.853516"/>
      <use xlink:href="#DejaVuSans-65" x="542.716797"/>
      <use xlink:href="#DejaVuSans-65" x="604.240234"/>
     </g>
    </g>
    <g id="line2d_35">
     <path d="M 144 409.738438 
L 154 409.738438 
L 164 409.738438 
" style="fill: none; stroke: #7f7f7f; stroke-width: 1.5; stroke-linecap: square"/>
    </g>
    <g id="text_24">
     <!-- K-Nearest Neighbors -->
     <g transform="translate(172 413.238438) scale(0.1 -0.1)">
      <defs>
       <path id="DejaVuSans-4b" d="M 628 4666 
L 1259 4666 
L 1259 2694 
L 3353 4666 
L 4166 4666 
L 1850 2491 
L 4331 0 
L 3500 0 
L 1259 2247 
L 1259 0 
L 628 0 
L 628 4666 
z
" transform="scale(0.015625)"/>
       <path id="DejaVuSans-4e" d="M 628 4666 
L 1478 4666 
L 3547 763 
L 3547 4666 
L 4159 4666 
L 4159 0 
L 3309 0 
L 1241 3903 
L 1241 0 
L 628 0 
L 628 4666 
z
" transform="scale(0.015625)"/>
       <path id="DejaVuSans-62" d="M 3116 1747 
Q 3116 2381 2855 2742 
Q 2594 3103 2138 3103 
Q 1681 3103 1420 2742 
Q 1159 2381 1159 1747 
Q 1159 1113 1420 752 
Q 1681 391 2138 391 
Q 2594 391 2855 752 
Q 3116 1113 3116 1747 
z
M 1159 2969 
Q 1341 3281 1617 3432 
Q 1894 3584 2278 3584 
Q 2916 3584 3314 3078 
Q 3713 2572 3713 1747 
Q 3713 922 3314 415 
Q 2916 -91 2278 -91 
Q 1894 -91 1617 61 
Q 1341 213 1159 525 
L 1159 0 
L 581 0 
L 581 4863 
L 1159 4863 
L 1159 2969 
z
" transform="scale(0.015625)"/>
      </defs>
      <use xlink:href="#DejaVuSans-4b"/>
      <use xlink:href="#DejaVuSans-2d" x="55.076172"/>
      <use xlink:href="#DejaVuSans-4e" x="91.160156"/>
      <use xlink:href="#DejaVuSans-65" x="165.964844"/>
      <use xlink:href="#DejaVuSans-61" x="227.488281"/>
      <use xlink:href="#DejaVuSans-72" x="288.767578"/>
      <use xlink:href="#DejaVuSans-65" x="327.630859"/>
      <use xlink:href="#DejaVuSans-73" x="389.154297"/>
      <use xlink:href="#DejaVuSans-74" x="441.253906"/>
      <use xlink:href="#DejaVuSans-20" x="480.462891"/>
      <use xlink:href="#DejaVuSans-4e" x="512.25"/>
      <use xlink:href="#DejaVuSans-65" x="587.054688"/>
      <use xlink:href="#DejaVuSans-69" x="648.578125"/>
      <use xlink:href="#DejaVuSans-67" x="676.361328"/>
      <use xlink:href="#DejaVuSans-68" x="739.837891"/>
      <use xlink:href="#DejaVuSans-62" x="803.216797"/>
      <use xlink:href="#DejaVuSans-6f" x="866.693359"/>
      <use xlink:href="#DejaVuSans-72" x="927.875"/>
      <use xlink:href="#DejaVuSans-73" x="968.988281"/>
     </g>
    </g>
    <g id="line2d_36">
     <path d="M 144 424.416563 
L 154 424.416563 
L 164 424.416563 
" style="fill: none; stroke: #bcbd22; stroke-width: 1.5; stroke-linecap: square"/>
    </g>
    <g id="text_25">
     <!-- XGBoost -->
     <g transform="translate(172 427.916563) scale(0.1 -0.1)">
      <defs>
       <path id="DejaVuSans-58" d="M 403 4666 
L 1081 4666 
L 2241 2931 
L 3406 4666 
L 4084 4666 
L 2584 2425 
L 4184 0 
L 3506 0 
L 2194 1984 
L 872 0 
L 191 0 
L 1856 2491 
L 403 4666 
z
" transform="scale(0.015625)"/>
      </defs>
      <use xlink:href="#DejaVuSans-58"/>
      <use xlink:href="#DejaVuSans-47" x="68.505859"/>
      <use xlink:href="#DejaVuSans-42" x="145.996094"/>
      <use xlink:href="#DejaVuSans-6f" x="214.599609"/>
      <use xlink:href="#DejaVuSans-6f" x="275.78125"/>
      <use xlink:href="#DejaVuSans-73" x="336.962891"/>
      <use xlink:href="#DejaVuSans-74" x="389.0625"/>
     </g>
    </g>
    <g id="line2d_37">
     <path d="M 144 439.094688 
L 154 439.094688 
L 164 439.094688 
" style="fill: none; stroke: #17becf; stroke-width: 1.5; stroke-linecap: square"/>
    </g>
    <g id="text_26">
     <!-- Ridge Regression -->
     <g transform="translate(172 442.594688) scale(0.1 -0.1)">
      <use xlink:href="#DejaVuSans-52"/>
      <use xlink:href="#DejaVuSans-69" x="69.482422"/>
      <use xlink:href="#DejaVuSans-64" x="97.265625"/>
      <use xlink:href="#DejaVuSans-67" x="160.742188"/>
      <use xlink:href="#DejaVuSans-65" x="224.21875"/>
      <use xlink:href="#DejaVuSans-20" x="285.742188"/>
      <use xlink:href="#DejaVuSans-52" x="317.529297"/>
      <use xlink:href="#DejaVuSans-65" x="382.511719"/>
      <use xlink:href="#DejaVuSans-67" x="444.035156"/>
      <use xlink:href="#DejaVuSans-72" x="507.511719"/>
      <use xlink:href="#DejaVuSans-65" x="546.375"/>
      <use xlink:href="#DejaVuSans-73" x="607.898438"/>
      <use xlink:href="#DejaVuSans-73" x="659.998047"/>
      <use xlink:href="#DejaVuSans-69" x="712.097656"/>
      <use xlink:href="#DejaVuSans-6f" x="739.880859"/>
      <use xlink:href="#DejaVuSans-6e" x="801.0625"/>
     </g>
    </g>
    <g id="line2d_38">
     <path d="M 144 453.772812 
L 154 453.772812 
L 164 453.772812 
" style="fill: none; stroke: #1f77b4; stroke-width: 1.5; stroke-linecap: square"/>
    </g>
    <g id="text_27">
     <!-- ElasticNet -->
     <g transform="translate(172 457.272812) scale(0.1 -0.1)">
      <use xlink:href="#DejaVuSans-45"/>
      <use xlink:href="#DejaVuSans-6c" x="63.183594"/>
      <use xlink:href="#DejaVuSans-61" x="90.966797"/>
      <use xlink:href="#DejaVuSans-73" x="152.246094"/>
      <use xlink:href="#DejaVuSans-74" x="204.345703"/>
      <use xlink:href="#DejaVuSans-69" x="243.554688"/>
      <use xlink:href="#DejaVuSans-63" x="271.337891"/>
      <use xlink:href="#DejaVuSans-4e" x="326.318359"/>
      <use xlink:href="#DejaVuSans-65" x="401.123047"/>
      <use xlink:href="#DejaVuSans-74" x="462.646484"/>
     </g>
    </g>
    <g id="line2d_39">
     <path d="M 144 468.450938 
L 154 468.450938 
L 164 468.450938 
" style="fill: none; stroke: #ff7f0e; stroke-width: 1.5; stroke-linecap: square"/>
    </g>
    <g id="text_28">
     <!-- RNN -->
     <g transform="translate(172 471.950938) scale(0.1 -0.1)">
      <use xlink:href="#DejaVuSans-52"/>
      <use xlink:href="#DejaVuSans-4e" x="69.482422"/>
      <use xlink:href="#DejaVuSans-4e" x="144.287109"/>
     </g>
    </g>
    <g id="line2d_40">
     <path d="M 144 483.129063 
L 154 483.129063 
L 164 483.129063 
" style="fill: none; stroke: #2ca02c; stroke-width: 1.5; stroke-linecap: square"/>
    </g>
    <g id="text_29">
     <!-- LSTM -->
     <g transform="translate(172 486.629063) scale(0.1 -0.1)">
      <use xlink:href="#DejaVuSans-4c"/>
      <use xlink:href="#DejaVuSans-53" x="55.712891"/>
      <use xlink:href="#DejaVuSans-54" x="119.189453"/>
      <use xlink:href="#DejaVuSans-4d" x="180.273438"/>
     </g>
    </g>
    <g id="line2d_41">
     <path d="M 144 498.060313 
L 154 498.060313 
L 164 498.060313 
" style="fill: none; stroke: #000000; stroke-width: 2; stroke-linecap: square"/>
    </g>
    <g id="text_30">
     <!-- Gerçek Değerler -->
     <g transform="translate(172 501.560313) scale(0.1 -0.1)">
      <use xlink:href="#DejaVuSans-47"/>
      <use xlink:href="#DejaVuSans-65" x="77.490234"/>
      <use xlink:href="#DejaVuSans-72" x="139.013672"/>
      <use xlink:href="#DejaVuSans-e7" x="177.876953"/>
      <use xlink:href="#DejaVuSans-65" x="232.857422"/>
      <use xlink:href="#DejaVuSans-6b" x="294.380859"/>
      <use xlink:href="#DejaVuSans-20" x="352.291016"/>
      <use xlink:href="#DejaVuSans-44" x="384.078125"/>
      <use xlink:href="#DejaVuSans-65" x="461.080078"/>
      <use xlink:href="#DejaVuSans-11f" x="522.603516"/>
      <use xlink:href="#DejaVuSans-65" x="586.080078"/>
      <use xlink:href="#DejaVuSans-72" x="647.603516"/>
      <use xlink:href="#DejaVuSans-6c" x="688.716797"/>
      <use xlink:href="#DejaVuSans-65" x="716.5"/>
      <use xlink:href="#DejaVuSans-72" x="778.023438"/>
     </g>
    </g>
   </g>
  </g>
 </g>
 <defs>
  <clipPath id="p01ce1c2d25">
   <rect x="135" y="69.12" width="837" height="443.52"/>
  </clipPath>
 </defs>
</svg>
