<?xml version="1.0" encoding="utf-8" standalone="no"?>
<!DOCTYPE svg PUBLIC "-//W3C//DTD SVG 1.1//EN"
  "http://www.w3.org/Graphics/SVG/1.1/DTD/svg11.dtd">
<svg xmlns:xlink="http://www.w3.org/1999/xlink" width="1080pt" height="576pt" viewBox="0 0 1080 576" xmlns="http://www.w3.org/2000/svg" version="1.1">
 <metadata>
  <rdf:RDF xmlns:dc="http://purl.org/dc/elements/1.1/" xmlns:cc="http://creativecommons.org/ns#" xmlns:rdf="http://www.w3.org/1999/02/22-rdf-syntax-ns#">
   <cc:Work>
    <dc:type rdf:resource="http://purl.org/dc/dcmitype/StillImage"/>
    <dc:date>2023-05-23T02:04:23.059152</dc:date>
    <dc:format>image/svg+xml</dc:format>
    <dc:creator>
     <cc:Agent>
      <dc:title>Matplotlib v3.7.1, https://matplotlib.org/</dc:title>
     </cc:Agent>
    </dc:creator>
   </cc:Work>
  </rdf:RDF>
 </metadata>
 <defs>
  <style type="text/css">*{stroke-linejoin: round; stroke-linecap: butt}</style>
 </defs>
 <g id="figure_1">
  <g id="patch_1">
   <path d="M 0 576 
L 1080 576 
L 1080 0 
L 0 0 
z
" style="fill: #ffffff"/>
  </g>
  <g id="axes_1">
   <g id="patch_2">
    <path d="M 135 512.64 
L 972 512.64 
L 972 69.12 
L 135 69.12 
z
" style="fill: #ffffff"/>
   </g>
   <g id="matplotlib.axis_1">
    <g id="xtick_1">
     <g id="line2d_1">
      <path d="M 159.457792 512.64 
L 159.457792 69.12 
" clip-path="url(#p6b9e762ca5)" style="fill: none; stroke: #cccccc; stroke-width: 0.8; stroke-linecap: round"/>
     </g>
     <g id="line2d_2"/>
     <g id="text_1">
      <!-- 2023-01-01 -->
      <g style="fill: #262626" transform="translate(133.884355 523.297812) scale(0.1 -0.1)">
       <defs>
        <path id="ArialMT-32" d="M 3222 541 
L 3222 0 
L 194 0 
Q 188 203 259 391 
Q 375 700 629 1000 
Q 884 1300 1366 1694 
Q 2113 2306 2375 2664 
Q 2638 3022 2638 3341 
Q 2638 3675 2398 3904 
Q 2159 4134 1775 4134 
Q 1369 4134 1125 3890 
Q 881 3647 878 3216 
L 300 3275 
Q 359 3922 746 4261 
Q 1134 4600 1788 4600 
Q 2447 4600 2831 4234 
Q 3216 3869 3216 3328 
Q 3216 3053 3103 2787 
Q 2991 2522 2730 2228 
Q 2469 1934 1863 1422 
Q 1356 997 1212 845 
Q 1069 694 975 541 
L 3222 541 
z
" transform="scale(0.015625)"/>
        <path id="ArialMT-30" d="M 266 2259 
Q 266 3072 433 3567 
Q 600 4063 929 4331 
Q 1259 4600 1759 4600 
Q 2128 4600 2406 4451 
Q 2684 4303 2865 4023 
Q 3047 3744 3150 3342 
Q 3253 2941 3253 2259 
Q 3253 1453 3087 958 
Q 2922 463 2592 192 
Q 2263 -78 1759 -78 
Q 1097 -78 719 397 
Q 266 969 266 2259 
z
M 844 2259 
Q 844 1131 1108 757 
Q 1372 384 1759 384 
Q 2147 384 2411 759 
Q 2675 1134 2675 2259 
Q 2675 3391 2411 3762 
Q 2147 4134 1753 4134 
Q 1366 4134 1134 3806 
Q 844 3388 844 2259 
z
" transform="scale(0.015625)"/>
        <path id="ArialMT-33" d="M 269 1209 
L 831 1284 
Q 928 806 1161 595 
Q 1394 384 1728 384 
Q 2125 384 2398 659 
Q 2672 934 2672 1341 
Q 2672 1728 2419 1979 
Q 2166 2231 1775 2231 
Q 1616 2231 1378 2169 
L 1441 2663 
Q 1497 2656 1531 2656 
Q 1891 2656 2178 2843 
Q 2466 3031 2466 3422 
Q 2466 3731 2256 3934 
Q 2047 4138 1716 4138 
Q 1388 4138 1169 3931 
Q 950 3725 888 3313 
L 325 3413 
Q 428 3978 793 4289 
Q 1159 4600 1703 4600 
Q 2078 4600 2393 4439 
Q 2709 4278 2876 4000 
Q 3044 3722 3044 3409 
Q 3044 3113 2884 2869 
Q 2725 2625 2413 2481 
Q 2819 2388 3044 2092 
Q 3269 1797 3269 1353 
Q 3269 753 2831 336 
Q 2394 -81 1725 -81 
Q 1122 -81 723 278 
Q 325 638 269 1209 
z
" transform="scale(0.015625)"/>
        <path id="ArialMT-2d" d="M 203 1375 
L 203 1941 
L 1931 1941 
L 1931 1375 
L 203 1375 
z
" transform="scale(0.015625)"/>
        <path id="ArialMT-31" d="M 2384 0 
L 1822 0 
L 1822 3584 
Q 1619 3391 1289 3197 
Q 959 3003 697 2906 
L 697 3450 
Q 1169 3672 1522 3987 
Q 1875 4303 2022 4600 
L 2384 4600 
L 2384 0 
z
" transform="scale(0.015625)"/>
       </defs>
       <use xlink:href="#ArialMT-32"/>
       <use xlink:href="#ArialMT-30" x="55.615234"/>
       <use xlink:href="#ArialMT-32" x="111.230469"/>
       <use xlink:href="#ArialMT-33" x="166.845703"/>
       <use xlink:href="#ArialMT-2d" x="222.460938"/>
       <use xlink:href="#ArialMT-30" x="255.761719"/>
       <use xlink:href="#ArialMT-31" x="311.376953"/>
       <use xlink:href="#ArialMT-2d" x="366.992188"/>
       <use xlink:href="#ArialMT-30" x="400.292969"/>
       <use xlink:href="#ArialMT-31" x="455.908203"/>
      </g>
     </g>
    </g>
    <g id="xtick_2">
     <g id="line2d_3">
      <path d="M 254.571429 512.64 
L 254.571429 69.12 
" clip-path="url(#p6b9e762ca5)" style="fill: none; stroke: #cccccc; stroke-width: 0.8; stroke-linecap: round"/>
     </g>
     <g id="line2d_4"/>
     <g id="text_2">
      <!-- 2023-01-15 -->
      <g style="fill: #262626" transform="translate(228.997991 523.297812) scale(0.1 -0.1)">
       <defs>
        <path id="ArialMT-35" d="M 266 1200 
L 856 1250 
Q 922 819 1161 601 
Q 1400 384 1738 384 
Q 2144 384 2425 690 
Q 2706 997 2706 1503 
Q 2706 1984 2436 2262 
Q 2166 2541 1728 2541 
Q 1456 2541 1237 2417 
Q 1019 2294 894 2097 
L 366 2166 
L 809 4519 
L 3088 4519 
L 3088 3981 
L 1259 3981 
L 1013 2750 
Q 1425 3038 1878 3038 
Q 2478 3038 2890 2622 
Q 3303 2206 3303 1553 
Q 3303 931 2941 478 
Q 2500 -78 1738 -78 
Q 1113 -78 717 272 
Q 322 622 266 1200 
z
" transform="scale(0.015625)"/>
       </defs>
       <use xlink:href="#ArialMT-32"/>
       <use xlink:href="#ArialMT-30" x="55.615234"/>
       <use xlink:href="#ArialMT-32" x="111.230469"/>
       <use xlink:href="#ArialMT-33" x="166.845703"/>
       <use xlink:href="#ArialMT-2d" x="222.460938"/>
       <use xlink:href="#ArialMT-30" x="255.761719"/>
       <use xlink:href="#ArialMT-31" x="311.376953"/>
       <use xlink:href="#ArialMT-2d" x="366.992188"/>
       <use xlink:href="#ArialMT-31" x="400.292969"/>
       <use xlink:href="#ArialMT-35" x="455.908203"/>
      </g>
     </g>
    </g>
    <g id="xtick_3">
     <g id="line2d_5">
      <path d="M 370.066558 512.64 
L 370.066558 69.12 
" clip-path="url(#p6b9e762ca5)" style="fill: none; stroke: #cccccc; stroke-width: 0.8; stroke-linecap: round"/>
     </g>
     <g id="line2d_6"/>
     <g id="text_3">
      <!-- 2023-02-01 -->
      <g style="fill: #262626" transform="translate(344.493121 523.297812) scale(0.1 -0.1)">
       <use xlink:href="#ArialMT-32"/>
       <use xlink:href="#ArialMT-30" x="55.615234"/>
       <use xlink:href="#ArialMT-32" x="111.230469"/>
       <use xlink:href="#ArialMT-33" x="166.845703"/>
       <use xlink:href="#ArialMT-2d" x="222.460938"/>
       <use xlink:href="#ArialMT-30" x="255.761719"/>
       <use xlink:href="#ArialMT-32" x="311.376953"/>
       <use xlink:href="#ArialMT-2d" x="366.992188"/>
       <use xlink:href="#ArialMT-30" x="400.292969"/>
       <use xlink:href="#ArialMT-31" x="455.908203"/>
      </g>
     </g>
    </g>
    <g id="xtick_4">
     <g id="line2d_7">
      <path d="M 465.180195 512.64 
L 465.180195 69.12 
" clip-path="url(#p6b9e762ca5)" style="fill: none; stroke: #cccccc; stroke-width: 0.8; stroke-linecap: round"/>
     </g>
     <g id="line2d_8"/>
     <g id="text_4">
      <!-- 2023-02-15 -->
      <g style="fill: #262626" transform="translate(439.606757 523.297812) scale(0.1 -0.1)">
       <use xlink:href="#ArialMT-32"/>
       <use xlink:href="#ArialMT-30" x="55.615234"/>
       <use xlink:href="#ArialMT-32" x="111.230469"/>
       <use xlink:href="#ArialMT-33" x="166.845703"/>
       <use xlink:href="#ArialMT-2d" x="222.460938"/>
       <use xlink:href="#ArialMT-30" x="255.761719"/>
       <use xlink:href="#ArialMT-32" x="311.376953"/>
       <use xlink:href="#ArialMT-2d" x="366.992188"/>
       <use xlink:href="#ArialMT-31" x="400.292969"/>
       <use xlink:href="#ArialMT-35" x="455.908203"/>
      </g>
     </g>
    </g>
    <g id="xtick_5">
     <g id="line2d_9">
      <path d="M 560.293831 512.64 
L 560.293831 69.12 
" clip-path="url(#p6b9e762ca5)" style="fill: none; stroke: #cccccc; stroke-width: 0.8; stroke-linecap: round"/>
     </g>
     <g id="line2d_10"/>
     <g id="text_5">
      <!-- 2023-03-01 -->
      <g style="fill: #262626" transform="translate(534.720394 523.297812) scale(0.1 -0.1)">
       <use xlink:href="#ArialMT-32"/>
       <use xlink:href="#ArialMT-30" x="55.615234"/>
       <use xlink:href="#ArialMT-32" x="111.230469"/>
       <use xlink:href="#ArialMT-33" x="166.845703"/>
       <use xlink:href="#ArialMT-2d" x="222.460938"/>
       <use xlink:href="#ArialMT-30" x="255.761719"/>
       <use xlink:href="#ArialMT-33" x="311.376953"/>
       <use xlink:href="#ArialMT-2d" x="366.992188"/>
       <use xlink:href="#ArialMT-30" x="400.292969"/>
       <use xlink:href="#ArialMT-31" x="455.908203"/>
      </g>
     </g>
    </g>
    <g id="xtick_6">
     <g id="line2d_11">
      <path d="M 655.407468 512.64 
L 655.407468 69.12 
" clip-path="url(#p6b9e762ca5)" style="fill: none; stroke: #cccccc; stroke-width: 0.8; stroke-linecap: round"/>
     </g>
     <g id="line2d_12"/>
     <g id="text_6">
      <!-- 2023-03-15 -->
      <g style="fill: #262626" transform="translate(629.83403 523.297812) scale(0.1 -0.1)">
       <use xlink:href="#ArialMT-32"/>
       <use xlink:href="#ArialMT-30" x="55.615234"/>
       <use xlink:href="#ArialMT-32" x="111.230469"/>
       <use xlink:href="#ArialMT-33" x="166.845703"/>
       <use xlink:href="#ArialMT-2d" x="222.460938"/>
       <use xlink:href="#ArialMT-30" x="255.761719"/>
       <use xlink:href="#ArialMT-33" x="311.376953"/>
       <use xlink:href="#ArialMT-2d" x="366.992188"/>
       <use xlink:href="#ArialMT-31" x="400.292969"/>
       <use xlink:href="#ArialMT-35" x="455.908203"/>
      </g>
     </g>
    </g>
    <g id="xtick_7">
     <g id="line2d_13">
      <path d="M 770.902597 512.64 
L 770.902597 69.12 
" clip-path="url(#p6b9e762ca5)" style="fill: none; stroke: #cccccc; stroke-width: 0.8; stroke-linecap: round"/>
     </g>
     <g id="line2d_14"/>
     <g id="text_7">
      <!-- 2023-04-01 -->
      <g style="fill: #262626" transform="translate(745.32916 523.297812) scale(0.1 -0.1)">
       <defs>
        <path id="ArialMT-34" d="M 2069 0 
L 2069 1097 
L 81 1097 
L 81 1613 
L 2172 4581 
L 2631 4581 
L 2631 1613 
L 3250 1613 
L 3250 1097 
L 2631 1097 
L 2631 0 
L 2069 0 
z
M 2069 1613 
L 2069 3678 
L 634 1613 
L 2069 1613 
z
" transform="scale(0.015625)"/>
       </defs>
       <use xlink:href="#ArialMT-32"/>
       <use xlink:href="#ArialMT-30" x="55.615234"/>
       <use xlink:href="#ArialMT-32" x="111.230469"/>
       <use xlink:href="#ArialMT-33" x="166.845703"/>
       <use xlink:href="#ArialMT-2d" x="222.460938"/>
       <use xlink:href="#ArialMT-30" x="255.761719"/>
       <use xlink:href="#ArialMT-34" x="311.376953"/>
       <use xlink:href="#ArialMT-2d" x="366.992188"/>
       <use xlink:href="#ArialMT-30" x="400.292969"/>
       <use xlink:href="#ArialMT-31" x="455.908203"/>
      </g>
     </g>
    </g>
    <g id="xtick_8">
     <g id="line2d_15">
      <path d="M 866.016234 512.64 
L 866.016234 69.12 
" clip-path="url(#p6b9e762ca5)" style="fill: none; stroke: #cccccc; stroke-width: 0.8; stroke-linecap: round"/>
     </g>
     <g id="line2d_16"/>
     <g id="text_8">
      <!-- 2023-04-15 -->
      <g style="fill: #262626" transform="translate(840.442796 523.297812) scale(0.1 -0.1)">
       <use xlink:href="#ArialMT-32"/>
       <use xlink:href="#ArialMT-30" x="55.615234"/>
       <use xlink:href="#ArialMT-32" x="111.230469"/>
       <use xlink:href="#ArialMT-33" x="166.845703"/>
       <use xlink:href="#ArialMT-2d" x="222.460938"/>
       <use xlink:href="#ArialMT-30" x="255.761719"/>
       <use xlink:href="#ArialMT-34" x="311.376953"/>
       <use xlink:href="#ArialMT-2d" x="366.992188"/>
       <use xlink:href="#ArialMT-31" x="400.292969"/>
       <use xlink:href="#ArialMT-35" x="455.908203"/>
      </g>
     </g>
    </g>
    <g id="text_9">
     <!-- Date -->
     <g style="fill: #262626" transform="translate(542.939062 536.443125) scale(0.1 -0.1)">
      <defs>
       <path id="ArialMT-44" d="M 494 0 
L 494 4581 
L 2072 4581 
Q 2606 4581 2888 4516 
Q 3281 4425 3559 4188 
Q 3922 3881 4101 3404 
Q 4281 2928 4281 2316 
Q 4281 1794 4159 1391 
Q 4038 988 3847 723 
Q 3656 459 3429 307 
Q 3203 156 2883 78 
Q 2563 0 2147 0 
L 494 0 
z
M 1100 541 
L 2078 541 
Q 2531 541 2789 625 
Q 3047 709 3200 863 
Q 3416 1078 3536 1442 
Q 3656 1806 3656 2325 
Q 3656 3044 3420 3430 
Q 3184 3816 2847 3947 
Q 2603 4041 2063 4041 
L 1100 4041 
L 1100 541 
z
" transform="scale(0.015625)"/>
       <path id="ArialMT-61" d="M 2588 409 
Q 2275 144 1986 34 
Q 1697 -75 1366 -75 
Q 819 -75 525 192 
Q 231 459 231 875 
Q 231 1119 342 1320 
Q 453 1522 633 1644 
Q 813 1766 1038 1828 
Q 1203 1872 1538 1913 
Q 2219 1994 2541 2106 
Q 2544 2222 2544 2253 
Q 2544 2597 2384 2738 
Q 2169 2928 1744 2928 
Q 1347 2928 1158 2789 
Q 969 2650 878 2297 
L 328 2372 
Q 403 2725 575 2942 
Q 747 3159 1072 3276 
Q 1397 3394 1825 3394 
Q 2250 3394 2515 3294 
Q 2781 3194 2906 3042 
Q 3031 2891 3081 2659 
Q 3109 2516 3109 2141 
L 3109 1391 
Q 3109 606 3145 398 
Q 3181 191 3288 0 
L 2700 0 
Q 2613 175 2588 409 
z
M 2541 1666 
Q 2234 1541 1622 1453 
Q 1275 1403 1131 1340 
Q 988 1278 909 1158 
Q 831 1038 831 891 
Q 831 666 1001 516 
Q 1172 366 1500 366 
Q 1825 366 2078 508 
Q 2331 650 2450 897 
Q 2541 1088 2541 1459 
L 2541 1666 
z
" transform="scale(0.015625)"/>
       <path id="ArialMT-74" d="M 1650 503 
L 1731 6 
Q 1494 -44 1306 -44 
Q 1000 -44 831 53 
Q 663 150 594 308 
Q 525 466 525 972 
L 525 2881 
L 113 2881 
L 113 3319 
L 525 3319 
L 525 4141 
L 1084 4478 
L 1084 3319 
L 1650 3319 
L 1650 2881 
L 1084 2881 
L 1084 941 
Q 1084 700 1114 631 
Q 1144 563 1211 522 
Q 1278 481 1403 481 
Q 1497 481 1650 503 
z
" transform="scale(0.015625)"/>
       <path id="ArialMT-65" d="M 2694 1069 
L 3275 997 
Q 3138 488 2766 206 
Q 2394 -75 1816 -75 
Q 1088 -75 661 373 
Q 234 822 234 1631 
Q 234 2469 665 2931 
Q 1097 3394 1784 3394 
Q 2450 3394 2872 2941 
Q 3294 2488 3294 1666 
Q 3294 1616 3291 1516 
L 816 1516 
Q 847 969 1125 678 
Q 1403 388 1819 388 
Q 2128 388 2347 550 
Q 2566 713 2694 1069 
z
M 847 1978 
L 2700 1978 
Q 2663 2397 2488 2606 
Q 2219 2931 1791 2931 
Q 1403 2931 1139 2672 
Q 875 2413 847 1978 
z
" transform="scale(0.015625)"/>
      </defs>
      <use xlink:href="#ArialMT-44"/>
      <use xlink:href="#ArialMT-61" x="72.216797"/>
      <use xlink:href="#ArialMT-74" x="127.832031"/>
      <use xlink:href="#ArialMT-65" x="155.615234"/>
     </g>
    </g>
   </g>
   <g id="matplotlib.axis_2">
    <g id="ytick_1">
     <g id="line2d_17">
      <path d="M 135 501.525785 
L 972 501.525785 
" clip-path="url(#p6b9e762ca5)" style="fill: none; stroke: #cccccc; stroke-width: 0.8; stroke-linecap: round"/>
     </g>
     <g id="line2d_18"/>
     <g id="text_10">
      <!-- 11 -->
      <g style="fill: #262626" transform="translate(121.115625 505.104692) scale(0.1 -0.1)">
       <use xlink:href="#ArialMT-31"/>
       <use xlink:href="#ArialMT-31" x="48.240234"/>
      </g>
     </g>
    </g>
    <g id="ytick_2">
     <g id="line2d_19">
      <path d="M 135 444.842605 
L 972 444.842605 
" clip-path="url(#p6b9e762ca5)" style="fill: none; stroke: #cccccc; stroke-width: 0.8; stroke-linecap: round"/>
     </g>
     <g id="line2d_20"/>
     <g id="text_11">
      <!-- 12 -->
      <g style="fill: #262626" transform="translate(120.378125 448.421511) scale(0.1 -0.1)">
       <use xlink:href="#ArialMT-31"/>
       <use xlink:href="#ArialMT-32" x="55.615234"/>
      </g>
     </g>
    </g>
    <g id="ytick_3">
     <g id="line2d_21">
      <path d="M 135 388.159424 
L 972 388.159424 
" clip-path="url(#p6b9e762ca5)" style="fill: none; stroke: #cccccc; stroke-width: 0.8; stroke-linecap: round"/>
     </g>
     <g id="line2d_22"/>
     <g id="text_12">
      <!-- 13 -->
      <g style="fill: #262626" transform="translate(120.378125 391.73833) scale(0.1 -0.1)">
       <use xlink:href="#ArialMT-31"/>
       <use xlink:href="#ArialMT-33" x="55.615234"/>
      </g>
     </g>
    </g>
    <g id="ytick_4">
     <g id="line2d_23">
      <path d="M 135 331.476244 
L 972 331.476244 
" clip-path="url(#p6b9e762ca5)" style="fill: none; stroke: #cccccc; stroke-width: 0.8; stroke-linecap: round"/>
     </g>
     <g id="line2d_24"/>
     <g id="text_13">
      <!-- 14 -->
      <g style="fill: #262626" transform="translate(120.378125 335.05515) scale(0.1 -0.1)">
       <use xlink:href="#ArialMT-31"/>
       <use xlink:href="#ArialMT-34" x="55.615234"/>
      </g>
     </g>
    </g>
    <g id="ytick_5">
     <g id="line2d_25">
      <path d="M 135 274.793063 
L 972 274.793063 
" clip-path="url(#p6b9e762ca5)" style="fill: none; stroke: #cccccc; stroke-width: 0.8; stroke-linecap: round"/>
     </g>
     <g id="line2d_26"/>
     <g id="text_14">
      <!-- 15 -->
      <g style="fill: #262626" transform="translate(120.378125 278.371969) scale(0.1 -0.1)">
       <use xlink:href="#ArialMT-31"/>
       <use xlink:href="#ArialMT-35" x="55.615234"/>
      </g>
     </g>
    </g>
    <g id="ytick_6">
     <g id="line2d_27">
      <path d="M 135 218.109882 
L 972 218.109882 
" clip-path="url(#p6b9e762ca5)" style="fill: none; stroke: #cccccc; stroke-width: 0.8; stroke-linecap: round"/>
     </g>
     <g id="line2d_28"/>
     <g id="text_15">
      <!-- 16 -->
      <g style="fill: #262626" transform="translate(120.378125 221.688789) scale(0.1 -0.1)">
       <defs>
        <path id="ArialMT-36" d="M 3184 3459 
L 2625 3416 
Q 2550 3747 2413 3897 
Q 2184 4138 1850 4138 
Q 1581 4138 1378 3988 
Q 1113 3794 959 3422 
Q 806 3050 800 2363 
Q 1003 2672 1297 2822 
Q 1591 2972 1913 2972 
Q 2475 2972 2870 2558 
Q 3266 2144 3266 1488 
Q 3266 1056 3080 686 
Q 2894 316 2569 119 
Q 2244 -78 1831 -78 
Q 1128 -78 684 439 
Q 241 956 241 2144 
Q 241 3472 731 4075 
Q 1159 4600 1884 4600 
Q 2425 4600 2770 4297 
Q 3116 3994 3184 3459 
z
M 888 1484 
Q 888 1194 1011 928 
Q 1134 663 1356 523 
Q 1578 384 1822 384 
Q 2178 384 2434 671 
Q 2691 959 2691 1453 
Q 2691 1928 2437 2201 
Q 2184 2475 1800 2475 
Q 1419 2475 1153 2201 
Q 888 1928 888 1484 
z
" transform="scale(0.015625)"/>
       </defs>
       <use xlink:href="#ArialMT-31"/>
       <use xlink:href="#ArialMT-36" x="55.615234"/>
      </g>
     </g>
    </g>
    <g id="ytick_7">
     <g id="line2d_29">
      <path d="M 135 161.426702 
L 972 161.426702 
" clip-path="url(#p6b9e762ca5)" style="fill: none; stroke: #cccccc; stroke-width: 0.8; stroke-linecap: round"/>
     </g>
     <g id="line2d_30"/>
     <g id="text_16">
      <!-- 17 -->
      <g style="fill: #262626" transform="translate(120.378125 165.005608) scale(0.1 -0.1)">
       <defs>
        <path id="ArialMT-37" d="M 303 3981 
L 303 4522 
L 3269 4522 
L 3269 4084 
Q 2831 3619 2401 2847 
Q 1972 2075 1738 1259 
Q 1569 684 1522 0 
L 944 0 
Q 953 541 1156 1306 
Q 1359 2072 1739 2783 
Q 2119 3494 2547 3981 
L 303 3981 
z
" transform="scale(0.015625)"/>
       </defs>
       <use xlink:href="#ArialMT-31"/>
       <use xlink:href="#ArialMT-37" x="55.615234"/>
      </g>
     </g>
    </g>
    <g id="ytick_8">
     <g id="line2d_31">
      <path d="M 135 104.743521 
L 972 104.743521 
" clip-path="url(#p6b9e762ca5)" style="fill: none; stroke: #cccccc; stroke-width: 0.8; stroke-linecap: round"/>
     </g>
     <g id="line2d_32"/>
     <g id="text_17">
      <!-- 18 -->
      <g style="fill: #262626" transform="translate(120.378125 108.322428) scale(0.1 -0.1)">
       <defs>
        <path id="ArialMT-38" d="M 1131 2484 
Q 781 2613 612 2850 
Q 444 3088 444 3419 
Q 444 3919 803 4259 
Q 1163 4600 1759 4600 
Q 2359 4600 2725 4251 
Q 3091 3903 3091 3403 
Q 3091 3084 2923 2848 
Q 2756 2613 2416 2484 
Q 2838 2347 3058 2040 
Q 3278 1734 3278 1309 
Q 3278 722 2862 322 
Q 2447 -78 1769 -78 
Q 1091 -78 675 323 
Q 259 725 259 1325 
Q 259 1772 486 2073 
Q 713 2375 1131 2484 
z
M 1019 3438 
Q 1019 3113 1228 2906 
Q 1438 2700 1772 2700 
Q 2097 2700 2305 2904 
Q 2513 3109 2513 3406 
Q 2513 3716 2298 3927 
Q 2084 4138 1766 4138 
Q 1444 4138 1231 3931 
Q 1019 3725 1019 3438 
z
M 838 1322 
Q 838 1081 952 856 
Q 1066 631 1291 507 
Q 1516 384 1775 384 
Q 2178 384 2440 643 
Q 2703 903 2703 1303 
Q 2703 1709 2433 1975 
Q 2163 2241 1756 2241 
Q 1359 2241 1098 1978 
Q 838 1716 838 1322 
z
" transform="scale(0.015625)"/>
       </defs>
       <use xlink:href="#ArialMT-31"/>
       <use xlink:href="#ArialMT-38" x="55.615234"/>
      </g>
     </g>
    </g>
    <g id="text_18">
     <!-- Adj Close -->
     <g style="fill: #262626" transform="translate(114.273438 312.278437) rotate(-90) scale(0.1 -0.1)">
      <defs>
       <path id="ArialMT-41" d="M -9 0 
L 1750 4581 
L 2403 4581 
L 4278 0 
L 3588 0 
L 3053 1388 
L 1138 1388 
L 634 0 
L -9 0 
z
M 1313 1881 
L 2866 1881 
L 2388 3150 
Q 2169 3728 2063 4100 
Q 1975 3659 1816 3225 
L 1313 1881 
z
" transform="scale(0.015625)"/>
       <path id="ArialMT-64" d="M 2575 0 
L 2575 419 
Q 2259 -75 1647 -75 
Q 1250 -75 917 144 
Q 584 363 401 755 
Q 219 1147 219 1656 
Q 219 2153 384 2558 
Q 550 2963 881 3178 
Q 1213 3394 1622 3394 
Q 1922 3394 2156 3267 
Q 2391 3141 2538 2938 
L 2538 4581 
L 3097 4581 
L 3097 0 
L 2575 0 
z
M 797 1656 
Q 797 1019 1065 703 
Q 1334 388 1700 388 
Q 2069 388 2326 689 
Q 2584 991 2584 1609 
Q 2584 2291 2321 2609 
Q 2059 2928 1675 2928 
Q 1300 2928 1048 2622 
Q 797 2316 797 1656 
z
" transform="scale(0.015625)"/>
       <path id="ArialMT-6a" d="M 419 3928 
L 419 4581 
L 981 4581 
L 981 3928 
L 419 3928 
z
M -294 -1288 
L -188 -809 
Q -19 -853 78 -853 
Q 250 -853 334 -739 
Q 419 -625 419 -169 
L 419 3319 
L 981 3319 
L 981 -181 
Q 981 -794 822 -1034 
Q 619 -1347 147 -1347 
Q -81 -1347 -294 -1288 
z
" transform="scale(0.015625)"/>
       <path id="ArialMT-20" transform="scale(0.015625)"/>
       <path id="ArialMT-43" d="M 3763 1606 
L 4369 1453 
Q 4178 706 3683 314 
Q 3188 -78 2472 -78 
Q 1731 -78 1267 223 
Q 803 525 561 1097 
Q 319 1669 319 2325 
Q 319 3041 592 3573 
Q 866 4106 1370 4382 
Q 1875 4659 2481 4659 
Q 3169 4659 3637 4309 
Q 4106 3959 4291 3325 
L 3694 3184 
Q 3534 3684 3231 3912 
Q 2928 4141 2469 4141 
Q 1941 4141 1586 3887 
Q 1231 3634 1087 3207 
Q 944 2781 944 2328 
Q 944 1744 1114 1308 
Q 1284 872 1643 656 
Q 2003 441 2422 441 
Q 2931 441 3284 734 
Q 3638 1028 3763 1606 
z
" transform="scale(0.015625)"/>
       <path id="ArialMT-6c" d="M 409 0 
L 409 4581 
L 972 4581 
L 972 0 
L 409 0 
z
" transform="scale(0.015625)"/>
       <path id="ArialMT-6f" d="M 213 1659 
Q 213 2581 725 3025 
Q 1153 3394 1769 3394 
Q 2453 3394 2887 2945 
Q 3322 2497 3322 1706 
Q 3322 1066 3130 698 
Q 2938 331 2570 128 
Q 2203 -75 1769 -75 
Q 1072 -75 642 372 
Q 213 819 213 1659 
z
M 791 1659 
Q 791 1022 1069 705 
Q 1347 388 1769 388 
Q 2188 388 2466 706 
Q 2744 1025 2744 1678 
Q 2744 2294 2464 2611 
Q 2184 2928 1769 2928 
Q 1347 2928 1069 2612 
Q 791 2297 791 1659 
z
" transform="scale(0.015625)"/>
       <path id="ArialMT-73" d="M 197 991 
L 753 1078 
Q 800 744 1014 566 
Q 1228 388 1613 388 
Q 2000 388 2187 545 
Q 2375 703 2375 916 
Q 2375 1106 2209 1216 
Q 2094 1291 1634 1406 
Q 1016 1563 777 1677 
Q 538 1791 414 1992 
Q 291 2194 291 2438 
Q 291 2659 392 2848 
Q 494 3038 669 3163 
Q 800 3259 1026 3326 
Q 1253 3394 1513 3394 
Q 1903 3394 2198 3281 
Q 2494 3169 2634 2976 
Q 2775 2784 2828 2463 
L 2278 2388 
Q 2241 2644 2061 2787 
Q 1881 2931 1553 2931 
Q 1166 2931 1000 2803 
Q 834 2675 834 2503 
Q 834 2394 903 2306 
Q 972 2216 1119 2156 
Q 1203 2125 1616 2013 
Q 2213 1853 2448 1751 
Q 2684 1650 2818 1456 
Q 2953 1263 2953 975 
Q 2953 694 2789 445 
Q 2625 197 2315 61 
Q 2006 -75 1616 -75 
Q 969 -75 630 194 
Q 291 463 197 991 
z
" transform="scale(0.015625)"/>
      </defs>
      <use xlink:href="#ArialMT-41"/>
      <use xlink:href="#ArialMT-64" x="66.699219"/>
      <use xlink:href="#ArialMT-6a" x="122.314453"/>
      <use xlink:href="#ArialMT-20" x="144.53125"/>
      <use xlink:href="#ArialMT-43" x="172.314453"/>
      <use xlink:href="#ArialMT-6c" x="244.53125"/>
      <use xlink:href="#ArialMT-6f" x="266.748047"/>
      <use xlink:href="#ArialMT-73" x="322.363281"/>
      <use xlink:href="#ArialMT-65" x="372.363281"/>
     </g>
    </g>
   </g>
   <g id="line2d_33">
    <path d="M 173.045455 415.526073 
L 179.839286 414.704166 
L 186.633117 343.595101 
L 193.426948 331.453569 
L 213.808442 330.807383 
L 220.602273 311.376392 
L 227.396104 284.786309 
L 234.189935 275.223859 
L 240.983766 203.100187 
L 268.159091 184.564783 
L 274.952922 121.873183 
L 281.746753 176.255024 
L 288.540584 177.944192 
L 308.922078 216.29035 
L 315.715909 213.671593 
L 322.50974 220.037111 
L 329.303571 181.736301 
L 336.097403 215.264398 
L 356.478896 172.706664 
L 363.272727 220.156148 
L 370.066558 209.511046 
L 376.86039 208.213008 
L 383.654221 140.958416 
L 404.035714 161.846176 
L 410.829545 184.287039 
L 417.623377 166.040726 
L 424.417208 161.55709 
L 431.211039 173.307506 
L 451.592532 216.029615 
L 458.386364 213.195454 
L 465.180195 197.244809 
L 471.974026 183.90726 
L 478.767857 188.810353 
L 505.943182 218.999811 
L 512.737013 215.615836 
L 519.530844 230.245757 
L 526.324675 212.010787 
L 546.706169 234.383627 
L 553.5 224.055958 
L 560.293831 219.266224 
L 567.087662 216.228007 
L 573.881494 209.091597 
L 594.262987 219.424934 
L 601.056818 214.958299 
L 607.850649 218.024863 
L 614.644481 217.395678 
L 621.438312 237.478527 
L 641.819805 251.03148 
L 648.613636 289.133907 
L 655.407468 300.402527 
L 662.201299 347.18315 
L 668.99513 326.193371 
L 689.376623 334.134679 
L 696.170455 333.199414 
L 702.964286 323.546267 
L 709.758117 324.521214 
L 716.551948 344.275309 
L 736.933442 334.718514 
L 743.727273 329.339283 
L 750.521104 311.41039 
L 757.314935 322.180198 
L 764.108766 328.239633 
L 784.49026 302.681186 
L 791.284091 322.474954 
L 798.077922 334.219707 
L 804.871753 326.454107 
L 832.047078 315.740984 
L 838.840909 319.606781 
L 845.63474 337.218251 
L 852.428571 396.582542 
L 859.222403 387.824989 
L 879.603896 407.290005 
L 886.397727 394.530609 
L 893.191558 377.724044 
L 899.98539 344.020224 
L 906.779221 396.486183 
L 927.160714 343.748149 
L 933.954545 380.881302 
" clip-path="url(#p6b9e762ca5)" style="fill: none; stroke: #1f77b4; stroke-width: 1.5; stroke-linecap: round"/>
   </g>
   <g id="line2d_34">
    <path d="M 173.045455 404.550603 
L 179.839286 399.711691 
L 186.633117 350.858388 
L 193.426948 327.245355 
L 213.808442 325.326849 
L 220.602273 320.883189 
L 227.396104 278.843261 
L 234.189935 270.112634 
L 240.983766 191.863692 
L 268.159091 175.830686 
L 274.952922 142.562827 
L 281.746753 172.495247 
L 288.540584 197.078877 
L 308.922078 196.978837 
L 315.715909 196.978837 
L 322.50974 232.322207 
L 329.303571 195.636925 
L 336.097403 203.665668 
L 356.478896 171.71195 
L 363.272727 230.880256 
L 370.066558 196.978837 
L 376.86039 196.978837 
L 383.654221 150.8943 
L 404.035714 143.876969 
L 410.829545 169.879622 
L 417.623377 169.879622 
L 424.417208 154.984631 
L 431.211039 169.879622 
L 451.592532 196.978837 
L 458.386364 196.978837 
L 465.180195 171.71195 
L 471.974026 171.71195 
L 478.767857 171.71195 
L 505.943182 200.683289 
L 512.737013 232.222167 
L 519.530844 232.222167 
L 526.324675 232.222167 
L 546.706169 235.92662 
L 553.5 232.222167 
L 560.293831 232.222167 
L 567.087662 196.978837 
L 573.881494 196.978837 
L 594.262987 200.683289 
L 601.056818 196.978837 
L 607.850649 196.978837 
L 614.644481 200.683289 
L 621.438312 232.222167 
L 641.819805 273.817086 
L 648.613636 292.766017 
L 655.407468 309.307082 
L 662.201299 336.618556 
L 668.99513 328.639728 
L 689.376623 325.326849 
L 696.170455 334.002932 
L 702.964286 325.326849 
L 709.758117 334.002932 
L 716.551948 341.345902 
L 736.933442 341.734914 
L 743.727273 334.002932 
L 750.521104 325.326849 
L 757.314935 325.326849 
L 764.108766 325.326849 
L 784.49026 311.849626 
L 791.284091 325.326849 
L 798.077922 325.326849 
L 804.871753 334.002932 
L 832.047078 325.326849 
L 838.840909 325.326849 
L 845.63474 323.984937 
L 852.428571 377.709899 
L 859.222403 386.890809 
L 879.603896 404.366482 
L 886.397727 383.516857 
L 893.191558 376.456368 
L 899.98539 351.555643 
L 906.779221 380.16082 
L 927.160714 348.242764 
L 933.954545 376.456368 
" clip-path="url(#p6b9e762ca5)" style="fill: none; stroke: #ff7f0e; stroke-width: 1.5; stroke-linecap: round"/>
   </g>
   <g id="line2d_35">
    <path d="M 173.045455 399.007217 
L 179.839286 391.569913 
L 186.633117 346.881779 
L 193.426948 327.779253 
L 213.808442 319.878674 
L 220.602273 292.582038 
L 227.396104 259.479375 
L 234.189935 259.550811 
L 240.983766 175.171847 
L 268.159091 170.902992 
L 274.952922 162.181983 
L 281.746753 188.589431 
L 288.540584 208.916703 
L 308.922078 203.625168 
L 315.715909 213.54499 
L 322.50974 222.322228 
L 329.303571 201.889397 
L 336.097403 189.071285 
L 356.478896 202.444262 
L 363.272727 219.084227 
L 370.066558 214.681734 
L 376.86039 181.468994 
L 383.654221 173.738622 
L 404.035714 170.919618 
L 410.829545 173.352798 
L 417.623377 174.217386 
L 424.417208 174.65181 
L 431.211039 191.921883 
L 451.592532 210.071431 
L 458.386364 200.022537 
L 465.180195 178.655964 
L 471.974026 183.688968 
L 478.767857 202.149761 
L 505.943182 207.568128 
L 512.737013 242.798835 
L 519.530844 247.10352 
L 526.324675 231.328189 
L 546.706169 249.441901 
L 553.5 248.297211 
L 560.293831 222.947456 
L 567.087662 222.969441 
L 573.881494 217.277633 
L 594.262987 206.468492 
L 601.056818 220.341446 
L 607.850649 207.052142 
L 614.644481 192.457903 
L 621.438312 227.951386 
L 641.819805 250.544975 
L 648.613636 288.602621 
L 655.407468 301.869226 
L 662.201299 332.673073 
L 668.99513 329.925495 
L 689.376623 329.086228 
L 696.170455 331.731981 
L 702.964286 314.394017 
L 709.758117 340.402622 
L 716.551948 354.149587 
L 736.933442 345.478222 
L 743.727273 331.715396 
L 750.521104 333.283024 
L 757.314935 314.070339 
L 764.108766 310.294221 
L 784.49026 293.801699 
L 791.284091 310.417195 
L 798.077922 317.672445 
L 804.871753 334.197729 
L 832.047078 332.963533 
L 838.840909 321.170601 
L 845.63474 307.364446 
L 852.428571 384.334346 
L 859.222403 391.887198 
L 879.603896 404.243516 
L 886.397727 384.749043 
L 893.191558 371.648966 
L 899.98539 355.960212 
L 906.779221 372.340027 
L 927.160714 367.574085 
L 933.954545 366.064734 
" clip-path="url(#p6b9e762ca5)" style="fill: none; stroke: #2ca02c; stroke-width: 1.5; stroke-linecap: round"/>
   </g>
   <g id="line2d_36">
    <path d="M 173.045455 414.800534 
L 179.839286 417.634704 
L 186.633117 320.139618 
L 193.426948 320.706463 
L 213.808442 345.647039 
L 220.602273 349.614844 
L 227.396104 283.862363 
L 234.189935 246.451473 
L 240.983766 219.810363 
L 268.159091 197.137058 
L 274.952922 97.374755 
L 281.746753 175.597497 
L 288.540584 147.822751 
L 308.922078 248.151953 
L 315.715909 248.151953 
L 322.50974 248.151953 
L 329.303571 177.298031 
L 336.097403 219.810363 
L 356.478896 163.127236 
L 363.272727 248.151953 
L 370.066558 248.151953 
L 376.86039 246.451473 
L 383.654221 167.661886 
L 404.035714 114.946511 
L 410.829545 203.372242 
L 417.623377 114.946511 
L 424.417208 114.946511 
L 431.211039 203.372242 
L 451.592532 248.151953 
L 458.386364 246.451473 
L 465.180195 163.127236 
L 471.974026 203.372242 
L 478.767857 163.127236 
L 505.943182 248.151953 
L 512.737013 248.151953 
L 519.530844 277.060388 
L 526.324675 277.060388 
L 546.706169 277.060388 
L 553.5 277.060388 
L 560.293831 277.060388 
L 567.087662 277.060388 
L 573.881494 277.060388 
L 594.262987 248.151953 
L 601.056818 248.151953 
L 607.850649 248.151953 
L 614.644481 246.451473 
L 621.438312 248.151953 
L 641.819805 291.231183 
L 648.613636 292.931663 
L 655.407468 283.862363 
L 662.201299 375.122319 
L 668.99513 332.043088 
L 689.376623 345.080194 
L 696.170455 331.476244 
L 702.964286 346.213884 
L 709.758117 331.476244 
L 716.551948 354.149494 
L 736.933442 307.669303 
L 743.727273 307.669303 
L 750.521104 307.669303 
L 757.314935 346.213884 
L 764.108766 341.112389 
L 784.49026 321.840099 
L 791.284091 346.213884 
L 798.077922 355.283184 
L 804.871753 332.609933 
L 832.047078 307.102459 
L 838.840909 307.102459 
L 845.63474 317.305448 
L 852.428571 435.773304 
L 859.222403 385.892099 
L 879.603896 417.634704 
L 886.397727 388.726269 
L 893.191558 398.929205 
L 899.98539 320.139618 
L 906.779221 435.773304 
L 927.160714 320.139618 
L 933.954545 392.12723 
" clip-path="url(#p6b9e762ca5)" style="fill: none; stroke: #d62728; stroke-width: 1.5; stroke-linecap: round"/>
   </g>
   <g id="line2d_37">
    <path d="M 173.045455 390.997454 
L 179.839286 389.630577 
L 186.633117 350.623332 
L 193.426948 330.893539 
L 213.808442 320.951151 
L 220.602273 299.103221 
L 227.396104 269.537038 
L 234.189935 261.453918 
L 240.983766 184.34435 
L 268.159091 175.29922 
L 274.952922 171.241237 
L 281.746753 192.340878 
L 288.540584 212.354411 
L 308.922078 209.10503 
L 315.715909 217.582314 
L 322.50974 225.640219 
L 329.303571 213.045676 
L 336.097403 195.571614 
L 356.478896 204.127636 
L 363.272727 228.09309 
L 370.066558 219.573116 
L 376.86039 191.776453 
L 383.654221 172.742138 
L 404.035714 174.303466 
L 410.829545 179.352257 
L 417.623377 177.640334 
L 424.417208 176.499265 
L 431.211039 192.325284 
L 451.592532 212.233255 
L 458.386364 200.875143 
L 465.180195 186.337478 
L 471.974026 185.874601 
L 478.767857 206.280851 
L 505.943182 208.30331 
L 512.737013 242.671003 
L 519.530844 249.67144 
L 526.324675 233.768006 
L 546.706169 250.051916 
L 553.5 246.205717 
L 560.293831 228.408663 
L 567.087662 225.645736 
L 573.881494 220.980163 
L 594.262987 208.377919 
L 601.056818 220.292178 
L 607.850649 208.235309 
L 614.644481 196.751312 
L 621.438312 232.115249 
L 641.819805 254.669173 
L 648.613636 286.543472 
L 655.407468 296.132138 
L 662.201299 336.223411 
L 668.99513 324.638601 
L 689.376623 330.899009 
L 696.170455 331.628575 
L 702.964286 311.469495 
L 709.758117 338.207467 
L 716.551948 347.831366 
L 736.933442 344.148863 
L 743.727273 332.902503 
L 750.521104 331.059318 
L 757.314935 312.679977 
L 764.108766 306.1544 
L 784.49026 292.234183 
L 791.284091 308.814425 
L 798.077922 321.414025 
L 804.871753 335.201253 
L 832.047078 329.520713 
L 838.840909 322.592511 
L 845.63474 313.693107 
L 852.428571 376.389561 
L 859.222403 380.285417 
L 879.603896 387.728466 
L 886.397727 373.86998 
L 893.191558 364.869429 
L 899.98539 348.821958 
L 906.779221 362.962437 
L 927.160714 359.594315 
L 933.954545 363.026745 
" clip-path="url(#p6b9e762ca5)" style="fill: none; stroke: #9467bd; stroke-width: 1.5; stroke-linecap: round"/>
   </g>
   <g id="line2d_38">
    <path d="M 173.045455 414.120331 
L 179.839286 413.440128 
L 186.633117 352.902501 
L 193.426948 327.621786 
L 213.808442 329.775752 
L 220.602273 307.215849 
L 227.396104 273.092572 
L 234.189935 261.189102 
L 240.983766 197.590588 
L 268.159091 159.952949 
L 274.952922 110.978684 
L 281.746753 181.379195 
L 288.540584 176.504427 
L 308.922078 190.448484 
L 315.715909 196.230182 
L 322.50974 201.671762 
L 329.303571 202.011858 
L 336.097403 183.419793 
L 356.478896 176.957914 
L 363.272727 210.514346 
L 370.066558 193.169285 
L 376.86039 167.095042 
L 383.654221 196.570278 
L 404.035714 110.978684 
L 410.829545 184.780188 
L 417.623377 159.612853 
L 424.417208 167.548507 
L 431.211039 185.46038 
L 451.592532 193.169285 
L 458.386364 186.140572 
L 465.180195 170.04257 
L 471.974026 180.245516 
L 478.767857 178.431667 
L 505.943182 190.448484 
L 512.737013 252.459898 
L 519.530844 242.143561 
L 526.324675 213.688612 
L 546.706169 256.314356 
L 553.5 242.143561 
L 560.293831 199.857902 
L 567.087662 205.412851 
L 573.881494 193.169285 
L 594.262987 173.103434 
L 601.056818 205.412851 
L 607.850649 180.925719 
L 614.644481 177.751464 
L 621.438312 229.899984 
L 641.819805 256.314356 
L 648.613636 289.757419 
L 655.407468 300.413863 
L 662.201299 336.917824 
L 668.99513 313.337632 
L 689.376623 334.537119 
L 696.170455 325.241092 
L 702.964286 323.087146 
L 709.758117 336.804466 
L 716.551948 343.152976 
L 736.933442 343.379714 
L 743.727273 319.459405 
L 750.521104 313.564349 
L 757.314935 326.37477 
L 764.108766 305.401989 
L 784.49026 300.867317 
L 791.284091 323.087146 
L 798.077922 330.796041 
L 804.871753 318.552475 
L 832.047078 315.831674 
L 838.840909 330.00248 
L 845.63474 334.650509 
L 852.428571 368.43368 
L 859.222403 393.487635 
L 879.603896 407.431703 
L 886.397727 381.130711 
L 893.191558 347.914353 
L 899.98539 355.509911 
L 906.779221 343.379703 
L 927.160714 345.873766 
L 933.954545 347.914353 
" clip-path="url(#p6b9e762ca5)" style="fill: none; stroke: #8c564b; stroke-width: 1.5; stroke-linecap: round"/>
   </g>
   <g id="line2d_39">
    <path d="M 173.045455 389.519398 
L 179.839286 383.824624 
L 186.633117 361.429012 
L 193.426948 337.834787 
L 213.808442 335.929105 
L 220.602273 320.120914 
L 227.396104 312.985244 
L 234.189935 279.930993 
L 240.983766 215.683899 
L 268.159091 204.34322 
L 274.952922 179.086787 
L 281.746753 175.397053 
L 288.540584 212.435488 
L 308.922078 212.435488 
L 315.715909 212.435488 
L 322.50974 227.460821 
L 329.303571 215.683899 
L 336.097403 213.552853 
L 356.478896 191.545155 
L 363.272727 227.460821 
L 370.066558 212.435488 
L 376.86039 212.435488 
L 383.654221 173.516291 
L 404.035714 172.398927 
L 410.829545 184.729828 
L 417.623377 179.086787 
L 424.417208 173.002314 
L 431.211039 175.397053 
L 451.592532 225.36729 
L 458.386364 225.36729 
L 465.180195 188.296744 
L 471.974026 201.228546 
L 478.767857 201.228546 
L 505.943182 212.435488 
L 512.737013 228.43169 
L 519.530844 235.351564 
L 526.324675 228.43169 
L 546.706169 235.351564 
L 553.5 248.282988 
L 560.293831 241.363114 
L 567.087662 225.36729 
L 573.881494 228.615431 
L 594.262987 225.36729 
L 601.056818 225.36729 
L 607.850649 212.435488 
L 614.644481 225.36729 
L 621.438312 227.460821 
L 641.819805 237.700137 
L 648.613636 313.316236 
L 655.407468 318.747697 
L 662.201299 341.263749 
L 668.99513 337.046415 
L 689.376623 335.929105 
L 696.170455 340.671119 
L 702.964286 335.929105 
L 709.758117 340.671119 
L 716.551948 341.263749 
L 736.933442 354.643362 
L 743.727273 353.602542 
L 750.521104 348.860529 
L 757.314935 348.860529 
L 764.108766 347.471418 
L 784.49026 342.774975 
L 791.284091 348.047777 
L 798.077922 348.047777 
L 804.871753 340.671119 
L 832.047078 348.860529 
L 838.840909 335.929105 
L 845.63474 335.929105 
L 852.428571 372.886671 
L 859.222403 375.29887 
L 879.603896 384.941934 
L 886.397727 375.304384 
L 893.191558 374.181559 
L 899.98539 362.540808 
L 906.779221 367.401478 
L 927.160714 374.354921 
L 933.954545 373.082413 
" clip-path="url(#p6b9e762ca5)" style="fill: none; stroke: #e377c2; stroke-width: 1.5; stroke-linecap: round"/>
   </g>
   <g id="line2d_40">
    <path d="M 173.045455 399.021803 
L 179.839286 396.818826 
L 186.633117 352.340887 
L 193.426948 330.922001 
L 213.808442 320.509221 
L 220.602273 296.710373 
L 227.396104 265.731751 
L 234.189935 258.305076 
L 240.983766 178.132703 
L 268.159091 169.306352 
L 274.952922 164.176067 
L 281.746753 187.042793 
L 288.540584 207.272034 
L 308.922078 203.875593 
L 315.715909 212.848778 
L 322.50974 220.812697 
L 329.303571 207.682613 
L 336.097403 190.622742 
L 356.478896 199.476792 
L 363.272727 222.953635 
L 370.066558 215.074155 
L 376.86039 185.704858 
L 383.654221 166.624281 
L 404.035714 168.05199 
L 410.829545 172.685107 
L 417.623377 171.91543 
L 424.417208 170.851172 
L 431.211039 187.192824 
L 451.592532 207.863901 
L 458.386364 195.985682 
L 465.180195 180.298398 
L 471.974026 180.182558 
L 478.767857 201.192422 
L 505.943182 203.61966 
L 512.737013 239.400085 
L 519.530844 246.027095 
L 526.324675 229.939861 
L 546.706169 246.529876 
L 553.5 243.121631 
L 560.293831 223.907074 
L 567.087662 221.448083 
L 573.881494 216.871713 
L 594.262987 203.502394 
L 601.056818 216.216411 
L 607.850649 203.684029 
L 614.644481 191.199055 
L 621.438312 227.8771 
L 641.819805 251.124838 
L 648.613636 284.594223 
L 655.407468 295.225742 
L 662.201299 336.687887 
L 668.99513 325.161104 
L 689.376623 330.855531 
L 696.170455 331.893886 
L 702.964286 310.683933 
L 709.758117 339.283388 
L 716.551948 350.386902 
L 736.933442 345.546092 
L 743.727273 333.219793 
L 750.521104 331.532348 
L 757.314935 312.048459 
L 764.108766 305.462755 
L 784.49026 290.550158 
L 791.284091 307.857674 
L 798.077922 320.671955 
L 804.871753 335.659408 
L 832.047078 330.146527 
L 838.840909 322.08447 
L 845.63474 312.072553 
L 852.428571 382.405539 
L 859.222403 387.084562 
L 879.603896 396.358436 
L 886.397727 379.803443 
L 893.191558 369.122687 
L 899.98539 351.578421 
L 906.779221 366.947564 
L 927.160714 363.557608 
L 933.954545 366.640307 
" clip-path="url(#p6b9e762ca5)" style="fill: none; stroke: #7f7f7f; stroke-width: 1.5; stroke-linecap: round"/>
   </g>
   <g id="line2d_41">
    <path d="M 173.045455 373.429919 
L 179.839286 372.593525 
L 186.633117 337.045896 
L 193.426948 320.317623 
L 213.808442 312.371663 
L 220.602273 294.38878 
L 227.396104 270.132765 
L 234.189935 263.859632 
L 240.983766 201.546766 
L 268.159091 193.600807 
L 274.952922 191.091586 
L 281.746753 209.492726 
L 288.540584 224.548131 
L 308.922078 222.03891 
L 315.715909 229.148436 
L 322.50974 235.421529 
L 329.303571 225.384565 
L 336.097403 210.747296 
L 356.478896 218.275039 
L 363.272727 237.93079 
L 370.066558 230.403087 
L 376.86039 207.401642 
L 383.654221 191.928019 
L 404.035714 193.600807 
L 410.829545 197.782895 
L 417.623377 196.110108 
L 424.417208 195.691891 
L 431.211039 208.656292 
L 451.592532 224.548131 
L 458.386364 214.929385 
L 465.180195 203.219554 
L 471.974026 202.801417 
L 478.767857 219.947906 
L 505.943182 221.202477 
L 512.737013 249.222404 
L 519.530844 254.659062 
L 526.324675 241.694661 
L 546.706169 254.659062 
L 553.5 251.731625 
L 560.293831 237.094396 
L 567.087662 235.003312 
L 573.881494 231.239441 
L 594.262987 221.202477 
L 601.056818 231.239441 
L 607.850649 221.202477 
L 614.644481 211.58373 
L 621.438312 241.276444 
L 641.819805 258.841151 
L 648.613636 284.351777 
L 655.407468 292.297736 
L 662.201299 325.754322 
L 668.99513 314.880924 
L 689.376623 320.73584 
L 696.170455 321.572233 
L 702.964286 304.425744 
L 709.758117 327.427149 
L 716.551948 335.373069 
L 736.933442 331.609197 
L 743.727273 322.408667 
L 750.521104 320.73584 
L 757.314935 305.262138 
L 764.108766 300.243656 
L 784.49026 288.533865 
L 791.284091 302.3347 
L 798.077922 313.208097 
L 804.871753 324.499671 
L 832.047078 319.481189 
L 838.840909 313.626314 
L 845.63474 306.516788 
L 852.428571 361.720128 
L 859.222403 363.811172 
L 879.603896 370.502481 
L 886.397727 357.53804 
L 893.191558 349.59212 
L 899.98539 335.373069 
L 906.779221 348.33751 
L 927.160714 344.991855 
L 933.954545 348.33751 
" clip-path="url(#p6b9e762ca5)" style="fill: none; stroke: #bcbd22; stroke-width: 1.5; stroke-linecap: round"/>
   </g>
   <g id="line2d_42">
    <path d="M 179.839286 492.48 
L 186.633117 413.494726 
L 193.426948 388.103042 
L 213.808442 359.924705 
L 220.602273 339.033832 
L 227.396104 301.067448 
L 234.189935 274.550724 
L 240.983766 89.28 
L 268.159091 121.803571 
L 274.952922 132.540322 
L 281.746753 136.587916 
L 288.540584 218.934148 
L 308.922078 210.283467 
L 315.715909 211.010322 
L 322.50974 247.087132 
L 329.303571 187.612487 
L 336.097403 143.196528 
L 356.478896 168.929746 
L 363.272727 239.229851 
L 370.066558 209.582669 
L 376.86039 180.328267 
L 383.654221 140.072233 
L 404.035714 134.088955 
L 410.829545 169.920508 
L 417.623377 136.714518 
L 424.417208 121.90682 
L 431.211039 172.246053 
L 451.592532 197.558921 
L 458.386364 196.287926 
L 465.180195 169.724388 
L 471.974026 175.394025 
L 478.767857 200.417795 
L 505.943182 204.608857 
L 512.737013 238.06497 
L 519.530844 264.89993 
L 526.324675 229.60722 
L 546.706169 275.423101 
L 553.5 254.29751 
L 560.293831 247.06259 
L 567.087662 237.630025 
L 573.881494 213.530905 
L 594.262987 216.798128 
L 601.056818 216.772937 
L 607.850649 195.485283 
L 614.644481 205.236787 
L 621.438312 234.750393 
L 641.819805 274.358929 
L 648.613636 308.281556 
L 655.407468 305.699618 
L 662.201299 374.172802 
L 668.99513 374.003116 
L 689.376623 387.868542 
L 696.170455 379.208077 
L 702.964286 362.494697 
L 709.758117 391.842726 
L 716.551948 395.802423 
L 736.933442 419.88073 
L 743.727273 395.355045 
L 750.521104 396.040275 
L 757.314935 360.421275 
L 764.108766 341.230288 
L 784.49026 334.162188 
L 791.284091 359.186823 
L 798.077922 377.141413 
L 804.871753 398.534208 
L 832.047078 382.897163 
L 838.840909 380.801578 
L 845.63474 372.707309 
L 852.428571 400.139115 
L 859.222403 442.075682 
L 879.603896 459.287633 
L 886.397727 444.253326 
L 893.191558 439.947717 
L 899.98539 398.771303 
L 906.779221 441.477971 
L 927.160714 425.498148 
L 933.954545 436.490158 
" clip-path="url(#p6b9e762ca5)" style="fill: none; stroke: #17becf; stroke-width: 1.5; stroke-linecap: round"/>
   </g>
   <g id="line2d_43">
    <path d="M 179.839286 450.451481 
L 186.633117 393.334005 
L 193.426948 375.358603 
L 213.808442 357.308927 
L 220.602273 345.150955 
L 227.396104 319.111881 
L 234.189935 299.418809 
L 240.983766 183.35007 
L 268.159091 196.036884 
L 274.952922 207.882999 
L 281.746753 211.499648 
L 288.540584 264.336328 
L 308.922078 258.116766 
L 315.715909 259.242509 
L 322.50974 283.123454 
L 329.303571 245.670291 
L 336.097403 211.247741 
L 356.478896 229.495538 
L 363.272727 280.463457 
L 370.066558 256.09124 
L 376.86039 236.402816 
L 383.654221 208.460764 
L 404.035714 205.778441 
L 410.829545 231.484792 
L 417.623377 204.885739 
L 424.417208 196.199488 
L 431.211039 230.322344 
L 451.592532 246.553209 
L 458.386364 244.687908 
L 465.180195 228.857229 
L 471.974026 231.406895 
L 478.767857 250.802004 
L 505.943182 251.937531 
L 512.737013 274.046964 
L 519.530844 293.596893 
L 526.324675 268.312512 
L 546.706169 299.329128 
L 553.5 283.512613 
L 560.293831 279.733575 
L 567.087662 272.666773 
L 573.881494 255.530611 
L 594.262987 259.541338 
L 601.056818 259.558042 
L 607.850649 244.992088 
L 614.644481 251.654649 
L 621.438312 274.338117 
L 641.819805 299.98733 
L 648.613636 322.072004 
L 655.407468 318.50725 
L 662.201299 369.574419 
L 668.99513 361.964233 
L 689.376623 377.393265 
L 696.170455 371.398636 
L 702.964286 356.981177 
L 709.758117 378.802539 
L 716.551948 379.109476 
L 736.933442 396.44565 
L 743.727273 380.592917 
L 750.521104 379.503446 
L 757.314935 354.382914 
L 764.108766 341.513926 
L 784.49026 336.59028 
L 791.284091 354.528166 
L 798.077922 369.565013 
L 804.871753 383.452926 
L 832.047078 369.859949 
L 838.840909 370.76649 
L 845.63474 367.220764 
L 852.428571 393.902958 
L 859.222403 413.581867 
L 879.603896 421.520396 
L 886.397727 410.95798 
L 893.191558 409.347397 
L 899.98539 379.267864 
L 906.779221 411.87944 
L 927.160714 397.49247 
L 933.954545 408.947373 
" clip-path="url(#p6b9e762ca5)" style="fill: none; stroke: #1f77b4; stroke-width: 1.5; stroke-linecap: round"/>
   </g>
   <g id="line2d_44">
    <path d="M 173.045455 402.897064 
L 179.839286 354.716339 
L 186.633117 332.043088 
L 193.426948 321.273254 
L 213.808442 296.899523 
L 220.602273 264.023282 
L 227.396104 255.520773 
L 234.189935 171.062847 
L 240.983766 160.293012 
L 268.159091 156.892052 
L 274.952922 181.832681 
L 281.746753 202.238553 
L 288.540584 198.837592 
L 308.922078 208.473737 
L 315.715909 216.976193 
L 322.50974 203.372242 
L 329.303571 183.533108 
L 336.097403 193.736097 
L 356.478896 220.377207 
L 363.272727 210.174272 
L 370.066558 178.998458 
L 376.86039 158.025741 
L 383.654221 160.293012 
L 404.035714 165.961352 
L 410.829545 163.694081 
L 417.623377 163.127236 
L 424.417208 180.698992 
L 431.211039 202.238553 
L 451.592532 189.201447 
L 458.386364 173.330118 
L 465.180195 172.763381 
L 471.974026 196.003477 
L 478.767857 197.703903 
L 505.943182 235.681692 
L 512.737013 243.050458 
L 519.530844 225.478702 
L 526.324675 243.050458 
L 546.706169 239.082653 
L 553.5 219.243572 
L 560.293831 216.409348 
L 567.087662 211.307853 
L 573.881494 197.703903 
L 594.262987 211.307853 
L 601.056818 197.703903 
L 607.850649 184.666797 
L 614.644481 224.911858 
L 621.438312 248.718798 
L 641.819805 283.295518 
L 648.613636 294.065353 
L 655.407468 339.411908 
L 662.201299 324.674268 
L 668.99513 332.609933 
L 689.376623 333.743569 
L 696.170455 310.503473 
L 702.964286 341.679233 
L 709.758117 352.449014 
L 716.551948 347.347519 
L 736.933442 334.877258 
L 743.727273 332.609933 
L 750.521104 311.637109 
L 757.314935 304.835134 
L 764.108766 288.963858 
L 784.49026 307.669303 
L 791.284091 322.406943 
L 798.077922 337.711374 
L 804.871753 330.909399 
L 832.047078 322.973788 
L 838.840909 313.337643 
L 845.63474 388.159424 
L 852.428571 390.993594 
L 859.222403 400.062894 
L 879.603896 382.491084 
L 886.397727 371.721304 
L 893.191558 352.449014 
L 899.98539 370.020824 
L 906.779221 365.486174 
L 927.160714 370.020824 
L 933.954545 397.228724 
" clip-path="url(#p6b9e762ca5)" style="fill: none; stroke: #000000; stroke-width: 2; stroke-linecap: round"/>
   </g>
   <g id="patch_3">
    <path d="M 135 512.64 
L 135 69.12 
" style="fill: none; stroke: #cccccc; stroke-linejoin: miter; stroke-linecap: square"/>
   </g>
   <g id="patch_4">
    <path d="M 972 512.64 
L 972 69.12 
" style="fill: none; stroke: #cccccc; stroke-linejoin: miter; stroke-linecap: square"/>
   </g>
   <g id="patch_5">
    <path d="M 135 512.64 
L 972 512.64 
" style="fill: none; stroke: #cccccc; stroke-linejoin: miter; stroke-linecap: square"/>
   </g>
   <g id="patch_6">
    <path d="M 135 69.12 
L 972 69.12 
" style="fill: none; stroke: #cccccc; stroke-linejoin: miter; stroke-linecap: square"/>
   </g>
   <g id="text_19">
    <!-- Tahminler ve Gerçek Değerler -->
    <g style="fill: #262626" transform="translate(473.811563 63.12) scale(0.12 -0.12)">
     <defs>
      <path id="ArialMT-54" d="M 1659 0 
L 1659 4041 
L 150 4041 
L 150 4581 
L 3781 4581 
L 3781 4041 
L 2266 4041 
L 2266 0 
L 1659 0 
z
" transform="scale(0.015625)"/>
      <path id="ArialMT-68" d="M 422 0 
L 422 4581 
L 984 4581 
L 984 2938 
Q 1378 3394 1978 3394 
Q 2347 3394 2619 3248 
Q 2891 3103 3008 2847 
Q 3125 2591 3125 2103 
L 3125 0 
L 2563 0 
L 2563 2103 
Q 2563 2525 2380 2717 
Q 2197 2909 1863 2909 
Q 1613 2909 1392 2779 
Q 1172 2650 1078 2428 
Q 984 2206 984 1816 
L 984 0 
L 422 0 
z
" transform="scale(0.015625)"/>
      <path id="ArialMT-6d" d="M 422 0 
L 422 3319 
L 925 3319 
L 925 2853 
Q 1081 3097 1340 3245 
Q 1600 3394 1931 3394 
Q 2300 3394 2536 3241 
Q 2772 3088 2869 2813 
Q 3263 3394 3894 3394 
Q 4388 3394 4653 3120 
Q 4919 2847 4919 2278 
L 4919 0 
L 4359 0 
L 4359 2091 
Q 4359 2428 4304 2576 
Q 4250 2725 4106 2815 
Q 3963 2906 3769 2906 
Q 3419 2906 3187 2673 
Q 2956 2441 2956 1928 
L 2956 0 
L 2394 0 
L 2394 2156 
Q 2394 2531 2256 2718 
Q 2119 2906 1806 2906 
Q 1569 2906 1367 2781 
Q 1166 2656 1075 2415 
Q 984 2175 984 1722 
L 984 0 
L 422 0 
z
" transform="scale(0.015625)"/>
      <path id="ArialMT-69" d="M 425 3934 
L 425 4581 
L 988 4581 
L 988 3934 
L 425 3934 
z
M 425 0 
L 425 3319 
L 988 3319 
L 988 0 
L 425 0 
z
" transform="scale(0.015625)"/>
      <path id="ArialMT-6e" d="M 422 0 
L 422 3319 
L 928 3319 
L 928 2847 
Q 1294 3394 1984 3394 
Q 2284 3394 2536 3286 
Q 2788 3178 2913 3003 
Q 3038 2828 3088 2588 
Q 3119 2431 3119 2041 
L 3119 0 
L 2556 0 
L 2556 2019 
Q 2556 2363 2490 2533 
Q 2425 2703 2258 2804 
Q 2091 2906 1866 2906 
Q 1506 2906 1245 2678 
Q 984 2450 984 1813 
L 984 0 
L 422 0 
z
" transform="scale(0.015625)"/>
      <path id="ArialMT-72" d="M 416 0 
L 416 3319 
L 922 3319 
L 922 2816 
Q 1116 3169 1280 3281 
Q 1444 3394 1641 3394 
Q 1925 3394 2219 3213 
L 2025 2691 
Q 1819 2813 1613 2813 
Q 1428 2813 1281 2702 
Q 1134 2591 1072 2394 
Q 978 2094 978 1738 
L 978 0 
L 416 0 
z
" transform="scale(0.015625)"/>
      <path id="ArialMT-76" d="M 1344 0 
L 81 3319 
L 675 3319 
L 1388 1331 
Q 1503 1009 1600 663 
Q 1675 925 1809 1294 
L 2547 3319 
L 3125 3319 
L 1869 0 
L 1344 0 
z
" transform="scale(0.015625)"/>
      <path id="ArialMT-47" d="M 2638 1797 
L 2638 2334 
L 4578 2338 
L 4578 638 
Q 4131 281 3656 101 
Q 3181 -78 2681 -78 
Q 2006 -78 1454 211 
Q 903 500 622 1047 
Q 341 1594 341 2269 
Q 341 2938 620 3517 
Q 900 4097 1425 4378 
Q 1950 4659 2634 4659 
Q 3131 4659 3532 4498 
Q 3934 4338 4162 4050 
Q 4391 3763 4509 3300 
L 3963 3150 
Q 3859 3500 3706 3700 
Q 3553 3900 3268 4020 
Q 2984 4141 2638 4141 
Q 2222 4141 1919 4014 
Q 1616 3888 1430 3681 
Q 1244 3475 1141 3228 
Q 966 2803 966 2306 
Q 966 1694 1177 1281 
Q 1388 869 1791 669 
Q 2194 469 2647 469 
Q 3041 469 3416 620 
Q 3791 772 3984 944 
L 3984 1797 
L 2638 1797 
z
" transform="scale(0.015625)"/>
      <path id="ArialMT-e7" d="M 2588 1216 
L 3141 1144 
Q 3050 572 2676 248 
Q 2303 -75 1759 -75 
Q 1078 -75 664 370 
Q 250 816 250 1647 
Q 250 2184 428 2587 
Q 606 2991 970 3192 
Q 1334 3394 1763 3394 
Q 2303 3394 2647 3120 
Q 2991 2847 3088 2344 
L 2541 2259 
Q 2463 2594 2264 2762 
Q 2066 2931 1784 2931 
Q 1359 2931 1093 2626 
Q 828 2322 828 1663 
Q 828 994 1084 691 
Q 1341 388 1753 388 
Q 2084 388 2306 591 
Q 2528 794 2588 1216 
z
M 1283 -417 
L 1446 136 
L 1864 136 
L 1761 -199 
Q 2027 -230 2161 -362 
Q 2296 -495 2296 -658 
Q 2296 -892 2071 -1072 
Q 1846 -1252 1392 -1252 
Q 1136 -1252 942 -1214 
L 977 -849 
Q 1177 -861 1271 -861 
Q 1564 -861 1683 -780 
Q 1774 -717 1774 -627 
Q 1774 -570 1738 -526 
Q 1702 -483 1605 -451 
Q 1508 -420 1283 -417 
z
" transform="scale(0.015625)"/>
      <path id="ArialMT-6b" d="M 425 0 
L 425 4581 
L 988 4581 
L 988 1969 
L 2319 3319 
L 3047 3319 
L 1778 2088 
L 3175 0 
L 2481 0 
L 1384 1697 
L 988 1316 
L 988 0 
L 425 0 
z
" transform="scale(0.015625)"/>
      <path id="ArialMT-11f" d="M 319 -275 
L 866 -356 
Q 900 -609 1056 -725 
Q 1266 -881 1628 -881 
Q 2019 -881 2231 -725 
Q 2444 -569 2519 -288 
Q 2563 -116 2559 434 
Q 2191 0 1641 0 
Q 956 0 581 494 
Q 206 988 206 1678 
Q 206 2153 378 2554 
Q 550 2956 876 3175 
Q 1203 3394 1644 3394 
Q 2231 3394 2613 2919 
L 2613 3319 
L 3131 3319 
L 3131 450 
Q 3131 -325 2973 -648 
Q 2816 -972 2473 -1159 
Q 2131 -1347 1631 -1347 
Q 1038 -1347 672 -1080 
Q 306 -813 319 -275 
z
M 784 1719 
Q 784 1066 1043 766 
Q 1303 466 1694 466 
Q 2081 466 2343 764 
Q 2606 1063 2606 1700 
Q 2606 2309 2336 2618 
Q 2066 2928 1684 2928 
Q 1309 2928 1046 2623 
Q 784 2319 784 1719 
z
M 2318 4575 
L 2703 4575 
Q 2656 4184 2417 3975 
Q 2178 3766 1781 3766 
Q 1381 3766 1142 3973 
Q 903 4181 856 4575 
L 1240 4575 
Q 1284 4363 1413 4258 
Q 1543 4153 1762 4153 
Q 2015 4153 2145 4254 
Q 2275 4356 2318 4575 
z
" transform="scale(0.015625)"/>
     </defs>
     <use xlink:href="#ArialMT-54"/>
     <use xlink:href="#ArialMT-61" x="49.958984"/>
     <use xlink:href="#ArialMT-68" x="105.574219"/>
     <use xlink:href="#ArialMT-6d" x="161.189453"/>
     <use xlink:href="#ArialMT-69" x="244.490234"/>
     <use xlink:href="#ArialMT-6e" x="266.707031"/>
     <use xlink:href="#ArialMT-6c" x="322.322266"/>
     <use xlink:href="#ArialMT-65" x="344.539062"/>
     <use xlink:href="#ArialMT-72" x="400.154297"/>
     <use xlink:href="#ArialMT-20" x="433.455078"/>
     <use xlink:href="#ArialMT-76" x="461.238281"/>
     <use xlink:href="#ArialMT-65" x="511.238281"/>
     <use xlink:href="#ArialMT-20" x="566.853516"/>
     <use xlink:href="#ArialMT-47" x="594.636719"/>
     <use xlink:href="#ArialMT-65" x="672.419922"/>
     <use xlink:href="#ArialMT-72" x="728.035156"/>
     <use xlink:href="#ArialMT-e7" x="761.335938"/>
     <use xlink:href="#ArialMT-65" x="811.335938"/>
     <use xlink:href="#ArialMT-6b" x="866.951172"/>
     <use xlink:href="#ArialMT-20" x="916.951172"/>
     <use xlink:href="#ArialMT-44" x="944.734375"/>
     <use xlink:href="#ArialMT-65" x="1016.951172"/>
     <use xlink:href="#ArialMT-11f" x="1072.566406"/>
     <use xlink:href="#ArialMT-65" x="1128.181641"/>
     <use xlink:href="#ArialMT-72" x="1183.796875"/>
     <use xlink:href="#ArialMT-6c" x="1217.097656"/>
     <use xlink:href="#ArialMT-65" x="1239.314453"/>
     <use xlink:href="#ArialMT-72" x="1294.929688"/>
    </g>
   </g>
   <g id="legend_1">
    <g id="line2d_45">
     <path d="M 841.63125 81.777813 
L 851.63125 81.777813 
L 861.63125 81.777813 
" style="fill: none; stroke: #1f77b4; stroke-width: 1.5; stroke-linecap: round"/>
    </g>
    <g id="text_20">
     <!-- Random Forest -->
     <g style="fill: #262626" transform="translate(869.63125 85.277813) scale(0.1 -0.1)">
      <defs>
       <path id="ArialMT-52" d="M 503 0 
L 503 4581 
L 2534 4581 
Q 3147 4581 3465 4457 
Q 3784 4334 3975 4021 
Q 4166 3709 4166 3331 
Q 4166 2844 3850 2509 
Q 3534 2175 2875 2084 
Q 3116 1969 3241 1856 
Q 3506 1613 3744 1247 
L 4541 0 
L 3778 0 
L 3172 953 
Q 2906 1366 2734 1584 
Q 2563 1803 2427 1890 
Q 2291 1978 2150 2013 
Q 2047 2034 1813 2034 
L 1109 2034 
L 1109 0 
L 503 0 
z
M 1109 2559 
L 2413 2559 
Q 2828 2559 3062 2645 
Q 3297 2731 3419 2920 
Q 3541 3109 3541 3331 
Q 3541 3656 3305 3865 
Q 3069 4075 2559 4075 
L 1109 4075 
L 1109 2559 
z
" transform="scale(0.015625)"/>
       <path id="ArialMT-46" d="M 525 0 
L 525 4581 
L 3616 4581 
L 3616 4041 
L 1131 4041 
L 1131 2622 
L 3281 2622 
L 3281 2081 
L 1131 2081 
L 1131 0 
L 525 0 
z
" transform="scale(0.015625)"/>
      </defs>
      <use xlink:href="#ArialMT-52"/>
      <use xlink:href="#ArialMT-61" x="72.216797"/>
      <use xlink:href="#ArialMT-6e" x="127.832031"/>
      <use xlink:href="#ArialMT-64" x="183.447266"/>
      <use xlink:href="#ArialMT-6f" x="239.0625"/>
      <use xlink:href="#ArialMT-6d" x="294.677734"/>
      <use xlink:href="#ArialMT-20" x="377.978516"/>
      <use xlink:href="#ArialMT-46" x="405.761719"/>
      <use xlink:href="#ArialMT-6f" x="466.845703"/>
      <use xlink:href="#ArialMT-72" x="522.460938"/>
      <use xlink:href="#ArialMT-65" x="555.761719"/>
      <use xlink:href="#ArialMT-73" x="611.376953"/>
      <use xlink:href="#ArialMT-74" x="661.376953"/>
     </g>
    </g>
    <g id="line2d_46">
     <path d="M 841.63125 96.045 
L 851.63125 96.045 
L 861.63125 96.045 
" style="fill: none; stroke: #ff7f0e; stroke-width: 1.5; stroke-linecap: round"/>
    </g>
    <g id="text_21">
     <!-- Gradient Boosting -->
     <g style="fill: #262626" transform="translate(869.63125 99.545) scale(0.1 -0.1)">
      <defs>
       <path id="ArialMT-42" d="M 469 0 
L 469 4581 
L 2188 4581 
Q 2713 4581 3030 4442 
Q 3347 4303 3526 4014 
Q 3706 3725 3706 3409 
Q 3706 3116 3547 2856 
Q 3388 2597 3066 2438 
Q 3481 2316 3704 2022 
Q 3928 1728 3928 1328 
Q 3928 1006 3792 729 
Q 3656 453 3456 303 
Q 3256 153 2954 76 
Q 2653 0 2216 0 
L 469 0 
z
M 1075 2656 
L 2066 2656 
Q 2469 2656 2644 2709 
Q 2875 2778 2992 2937 
Q 3109 3097 3109 3338 
Q 3109 3566 3000 3739 
Q 2891 3913 2687 3977 
Q 2484 4041 1991 4041 
L 1075 4041 
L 1075 2656 
z
M 1075 541 
L 2216 541 
Q 2509 541 2628 563 
Q 2838 600 2978 687 
Q 3119 775 3209 942 
Q 3300 1109 3300 1328 
Q 3300 1584 3169 1773 
Q 3038 1963 2805 2039 
Q 2572 2116 2134 2116 
L 1075 2116 
L 1075 541 
z
" transform="scale(0.015625)"/>
       <path id="ArialMT-67" d="M 319 -275 
L 866 -356 
Q 900 -609 1056 -725 
Q 1266 -881 1628 -881 
Q 2019 -881 2231 -725 
Q 2444 -569 2519 -288 
Q 2563 -116 2559 434 
Q 2191 0 1641 0 
Q 956 0 581 494 
Q 206 988 206 1678 
Q 206 2153 378 2554 
Q 550 2956 876 3175 
Q 1203 3394 1644 3394 
Q 2231 3394 2613 2919 
L 2613 3319 
L 3131 3319 
L 3131 450 
Q 3131 -325 2973 -648 
Q 2816 -972 2473 -1159 
Q 2131 -1347 1631 -1347 
Q 1038 -1347 672 -1080 
Q 306 -813 319 -275 
z
M 784 1719 
Q 784 1066 1043 766 
Q 1303 466 1694 466 
Q 2081 466 2343 764 
Q 2606 1063 2606 1700 
Q 2606 2309 2336 2618 
Q 2066 2928 1684 2928 
Q 1309 2928 1046 2623 
Q 784 2319 784 1719 
z
" transform="scale(0.015625)"/>
      </defs>
      <use xlink:href="#ArialMT-47"/>
      <use xlink:href="#ArialMT-72" x="77.783203"/>
      <use xlink:href="#ArialMT-61" x="111.083984"/>
      <use xlink:href="#ArialMT-64" x="166.699219"/>
      <use xlink:href="#ArialMT-69" x="222.314453"/>
      <use xlink:href="#ArialMT-65" x="244.53125"/>
      <use xlink:href="#ArialMT-6e" x="300.146484"/>
      <use xlink:href="#ArialMT-74" x="355.761719"/>
      <use xlink:href="#ArialMT-20" x="383.544922"/>
      <use xlink:href="#ArialMT-42" x="411.328125"/>
      <use xlink:href="#ArialMT-6f" x="478.027344"/>
      <use xlink:href="#ArialMT-6f" x="533.642578"/>
      <use xlink:href="#ArialMT-73" x="589.257812"/>
      <use xlink:href="#ArialMT-74" x="639.257812"/>
      <use xlink:href="#ArialMT-69" x="667.041016"/>
      <use xlink:href="#ArialMT-6e" x="689.257812"/>
      <use xlink:href="#ArialMT-67" x="744.873047"/>
     </g>
    </g>
    <g id="line2d_47">
     <path d="M 841.63125 110.3075 
L 851.63125 110.3075 
L 861.63125 110.3075 
" style="fill: none; stroke: #2ca02c; stroke-width: 1.5; stroke-linecap: round"/>
    </g>
    <g id="text_22">
     <!-- Linear Regression -->
     <g style="fill: #262626" transform="translate(869.63125 113.8075) scale(0.1 -0.1)">
      <defs>
       <path id="ArialMT-4c" d="M 469 0 
L 469 4581 
L 1075 4581 
L 1075 541 
L 3331 541 
L 3331 0 
L 469 0 
z
" transform="scale(0.015625)"/>
      </defs>
      <use xlink:href="#ArialMT-4c"/>
      <use xlink:href="#ArialMT-69" x="55.615234"/>
      <use xlink:href="#ArialMT-6e" x="77.832031"/>
      <use xlink:href="#ArialMT-65" x="133.447266"/>
      <use xlink:href="#ArialMT-61" x="189.0625"/>
      <use xlink:href="#ArialMT-72" x="244.677734"/>
      <use xlink:href="#ArialMT-20" x="277.978516"/>
      <use xlink:href="#ArialMT-52" x="305.761719"/>
      <use xlink:href="#ArialMT-65" x="377.978516"/>
      <use xlink:href="#ArialMT-67" x="433.59375"/>
      <use xlink:href="#ArialMT-72" x="489.208984"/>
      <use xlink:href="#ArialMT-65" x="522.509766"/>
      <use xlink:href="#ArialMT-73" x="578.125"/>
      <use xlink:href="#ArialMT-73" x="628.125"/>
      <use xlink:href="#ArialMT-69" x="678.125"/>
      <use xlink:href="#ArialMT-6f" x="700.341797"/>
      <use xlink:href="#ArialMT-6e" x="755.957031"/>
     </g>
    </g>
    <g id="line2d_48">
     <path d="M 841.63125 124.57 
L 851.63125 124.57 
L 861.63125 124.57 
" style="fill: none; stroke: #d62728; stroke-width: 1.5; stroke-linecap: round"/>
    </g>
    <g id="text_23">
     <!-- Decision Tree -->
     <g style="fill: #262626" transform="translate(869.63125 128.07) scale(0.1 -0.1)">
      <defs>
       <path id="ArialMT-63" d="M 2588 1216 
L 3141 1144 
Q 3050 572 2676 248 
Q 2303 -75 1759 -75 
Q 1078 -75 664 370 
Q 250 816 250 1647 
Q 250 2184 428 2587 
Q 606 2991 970 3192 
Q 1334 3394 1763 3394 
Q 2303 3394 2647 3120 
Q 2991 2847 3088 2344 
L 2541 2259 
Q 2463 2594 2264 2762 
Q 2066 2931 1784 2931 
Q 1359 2931 1093 2626 
Q 828 2322 828 1663 
Q 828 994 1084 691 
Q 1341 388 1753 388 
Q 2084 388 2306 591 
Q 2528 794 2588 1216 
z
" transform="scale(0.015625)"/>
      </defs>
      <use xlink:href="#ArialMT-44"/>
      <use xlink:href="#ArialMT-65" x="72.216797"/>
      <use xlink:href="#ArialMT-63" x="127.832031"/>
      <use xlink:href="#ArialMT-69" x="177.832031"/>
      <use xlink:href="#ArialMT-73" x="200.048828"/>
      <use xlink:href="#ArialMT-69" x="250.048828"/>
      <use xlink:href="#ArialMT-6f" x="272.265625"/>
      <use xlink:href="#ArialMT-6e" x="327.880859"/>
      <use xlink:href="#ArialMT-20" x="383.496094"/>
      <use xlink:href="#ArialMT-54" x="409.529297"/>
      <use xlink:href="#ArialMT-72" x="466.863281"/>
      <use xlink:href="#ArialMT-65" x="500.164062"/>
      <use xlink:href="#ArialMT-65" x="555.779297"/>
     </g>
    </g>
    <g id="line2d_49">
     <path d="M 841.63125 138.715313 
L 851.63125 138.715313 
L 861.63125 138.715313 
" style="fill: none; stroke: #9467bd; stroke-width: 1.5; stroke-linecap: round"/>
    </g>
    <g id="text_24">
     <!-- SVR -->
     <g style="fill: #262626" transform="translate(869.63125 142.215313) scale(0.1 -0.1)">
      <defs>
       <path id="ArialMT-53" d="M 288 1472 
L 859 1522 
Q 900 1178 1048 958 
Q 1197 738 1509 602 
Q 1822 466 2213 466 
Q 2559 466 2825 569 
Q 3091 672 3220 851 
Q 3350 1031 3350 1244 
Q 3350 1459 3225 1620 
Q 3100 1781 2813 1891 
Q 2628 1963 1997 2114 
Q 1366 2266 1113 2400 
Q 784 2572 623 2826 
Q 463 3081 463 3397 
Q 463 3744 659 4045 
Q 856 4347 1234 4503 
Q 1613 4659 2075 4659 
Q 2584 4659 2973 4495 
Q 3363 4331 3572 4012 
Q 3781 3694 3797 3291 
L 3216 3247 
Q 3169 3681 2898 3903 
Q 2628 4125 2100 4125 
Q 1550 4125 1298 3923 
Q 1047 3722 1047 3438 
Q 1047 3191 1225 3031 
Q 1400 2872 2139 2705 
Q 2878 2538 3153 2413 
Q 3553 2228 3743 1945 
Q 3934 1663 3934 1294 
Q 3934 928 3725 604 
Q 3516 281 3123 101 
Q 2731 -78 2241 -78 
Q 1619 -78 1198 103 
Q 778 284 539 648 
Q 300 1013 288 1472 
z
" transform="scale(0.015625)"/>
       <path id="ArialMT-56" d="M 1803 0 
L 28 4581 
L 684 4581 
L 1875 1253 
Q 2019 853 2116 503 
Q 2222 878 2363 1253 
L 3600 4581 
L 4219 4581 
L 2425 0 
L 1803 0 
z
" transform="scale(0.015625)"/>
      </defs>
      <use xlink:href="#ArialMT-53"/>
      <use xlink:href="#ArialMT-56" x="66.699219"/>
      <use xlink:href="#ArialMT-52" x="133.398438"/>
     </g>
    </g>
    <g id="line2d_50">
     <path d="M 841.63125 152.860625 
L 851.63125 152.860625 
L 861.63125 152.860625 
" style="fill: none; stroke: #8c564b; stroke-width: 1.5; stroke-linecap: round"/>
    </g>
    <g id="text_25">
     <!-- K-Nearest Neighbors -->
     <g style="fill: #262626" transform="translate(869.63125 156.360625) scale(0.1 -0.1)">
      <defs>
       <path id="ArialMT-4b" d="M 469 0 
L 469 4581 
L 1075 4581 
L 1075 2309 
L 3350 4581 
L 4172 4581 
L 2250 2725 
L 4256 0 
L 3456 0 
L 1825 2319 
L 1075 1588 
L 1075 0 
L 469 0 
z
" transform="scale(0.015625)"/>
       <path id="ArialMT-4e" d="M 488 0 
L 488 4581 
L 1109 4581 
L 3516 984 
L 3516 4581 
L 4097 4581 
L 4097 0 
L 3475 0 
L 1069 3600 
L 1069 0 
L 488 0 
z
" transform="scale(0.015625)"/>
       <path id="ArialMT-62" d="M 941 0 
L 419 0 
L 419 4581 
L 981 4581 
L 981 2947 
Q 1338 3394 1891 3394 
Q 2197 3394 2470 3270 
Q 2744 3147 2920 2923 
Q 3097 2700 3197 2384 
Q 3297 2069 3297 1709 
Q 3297 856 2875 390 
Q 2453 -75 1863 -75 
Q 1275 -75 941 416 
L 941 0 
z
M 934 1684 
Q 934 1088 1097 822 
Q 1363 388 1816 388 
Q 2184 388 2453 708 
Q 2722 1028 2722 1663 
Q 2722 2313 2464 2622 
Q 2206 2931 1841 2931 
Q 1472 2931 1203 2611 
Q 934 2291 934 1684 
z
" transform="scale(0.015625)"/>
      </defs>
      <use xlink:href="#ArialMT-4b"/>
      <use xlink:href="#ArialMT-2d" x="66.699219"/>
      <use xlink:href="#ArialMT-4e" x="100"/>
      <use xlink:href="#ArialMT-65" x="172.216797"/>
      <use xlink:href="#ArialMT-61" x="227.832031"/>
      <use xlink:href="#ArialMT-72" x="283.447266"/>
      <use xlink:href="#ArialMT-65" x="316.748047"/>
      <use xlink:href="#ArialMT-73" x="372.363281"/>
      <use xlink:href="#ArialMT-74" x="422.363281"/>
      <use xlink:href="#ArialMT-20" x="450.146484"/>
      <use xlink:href="#ArialMT-4e" x="477.929688"/>
      <use xlink:href="#ArialMT-65" x="550.146484"/>
      <use xlink:href="#ArialMT-69" x="605.761719"/>
      <use xlink:href="#ArialMT-67" x="627.978516"/>
      <use xlink:href="#ArialMT-68" x="683.59375"/>
      <use xlink:href="#ArialMT-62" x="739.208984"/>
      <use xlink:href="#ArialMT-6f" x="794.824219"/>
      <use xlink:href="#ArialMT-72" x="850.439453"/>
      <use xlink:href="#ArialMT-73" x="883.740234"/>
     </g>
    </g>
    <g id="line2d_51">
     <path d="M 841.63125 167.123125 
L 851.63125 167.123125 
L 861.63125 167.123125 
" style="fill: none; stroke: #e377c2; stroke-width: 1.5; stroke-linecap: round"/>
    </g>
    <g id="text_26">
     <!-- XGBoost -->
     <g style="fill: #262626" transform="translate(869.63125 170.623125) scale(0.1 -0.1)">
      <defs>
       <path id="ArialMT-58" d="M 28 0 
L 1800 2388 
L 238 4581 
L 959 4581 
L 1791 3406 
Q 2050 3041 2159 2844 
Q 2313 3094 2522 3366 
L 3444 4581 
L 4103 4581 
L 2494 2422 
L 4228 0 
L 3478 0 
L 2325 1634 
Q 2228 1775 2125 1941 
Q 1972 1691 1906 1597 
L 756 0 
L 28 0 
z
" transform="scale(0.015625)"/>
      </defs>
      <use xlink:href="#ArialMT-58"/>
      <use xlink:href="#ArialMT-47" x="66.699219"/>
      <use xlink:href="#ArialMT-42" x="144.482422"/>
      <use xlink:href="#ArialMT-6f" x="211.181641"/>
      <use xlink:href="#ArialMT-6f" x="266.796875"/>
      <use xlink:href="#ArialMT-73" x="322.412109"/>
      <use xlink:href="#ArialMT-74" x="372.412109"/>
     </g>
    </g>
    <g id="line2d_52">
     <path d="M 841.63125 181.268438 
L 851.63125 181.268438 
L 861.63125 181.268438 
" style="fill: none; stroke: #7f7f7f; stroke-width: 1.5; stroke-linecap: round"/>
    </g>
    <g id="text_27">
     <!-- Ridge Regression -->
     <g style="fill: #262626" transform="translate(869.63125 184.768438) scale(0.1 -0.1)">
      <use xlink:href="#ArialMT-52"/>
      <use xlink:href="#ArialMT-69" x="72.216797"/>
      <use xlink:href="#ArialMT-64" x="94.433594"/>
      <use xlink:href="#ArialMT-67" x="150.048828"/>
      <use xlink:href="#ArialMT-65" x="205.664062"/>
      <use xlink:href="#ArialMT-20" x="261.279297"/>
      <use xlink:href="#ArialMT-52" x="289.0625"/>
      <use xlink:href="#ArialMT-65" x="361.279297"/>
      <use xlink:href="#ArialMT-67" x="416.894531"/>
      <use xlink:href="#ArialMT-72" x="472.509766"/>
      <use xlink:href="#ArialMT-65" x="505.810547"/>
      <use xlink:href="#ArialMT-73" x="561.425781"/>
      <use xlink:href="#ArialMT-73" x="611.425781"/>
      <use xlink:href="#ArialMT-69" x="661.425781"/>
      <use xlink:href="#ArialMT-6f" x="683.642578"/>
      <use xlink:href="#ArialMT-6e" x="739.257812"/>
     </g>
    </g>
    <g id="line2d_53">
     <path d="M 841.63125 195.530938 
L 851.63125 195.530938 
L 861.63125 195.530938 
" style="fill: none; stroke: #bcbd22; stroke-width: 1.5; stroke-linecap: round"/>
    </g>
    <g id="text_28">
     <!-- ElasticNet -->
     <g style="fill: #262626" transform="translate(869.63125 199.030938) scale(0.1 -0.1)">
      <defs>
       <path id="ArialMT-45" d="M 506 0 
L 506 4581 
L 3819 4581 
L 3819 4041 
L 1113 4041 
L 1113 2638 
L 3647 2638 
L 3647 2100 
L 1113 2100 
L 1113 541 
L 3925 541 
L 3925 0 
L 506 0 
z
" transform="scale(0.015625)"/>
      </defs>
      <use xlink:href="#ArialMT-45"/>
      <use xlink:href="#ArialMT-6c" x="66.699219"/>
      <use xlink:href="#ArialMT-61" x="88.916016"/>
      <use xlink:href="#ArialMT-73" x="144.53125"/>
      <use xlink:href="#ArialMT-74" x="194.53125"/>
      <use xlink:href="#ArialMT-69" x="222.314453"/>
      <use xlink:href="#ArialMT-63" x="244.53125"/>
      <use xlink:href="#ArialMT-4e" x="294.53125"/>
      <use xlink:href="#ArialMT-65" x="366.748047"/>
      <use xlink:href="#ArialMT-74" x="422.363281"/>
     </g>
    </g>
    <g id="line2d_54">
     <path d="M 841.63125 209.67625 
L 851.63125 209.67625 
L 861.63125 209.67625 
" style="fill: none; stroke: #17becf; stroke-width: 1.5; stroke-linecap: round"/>
    </g>
    <g id="text_29">
     <!-- LSTM -->
     <g style="fill: #262626" transform="translate(869.63125 213.17625) scale(0.1 -0.1)">
      <defs>
       <path id="ArialMT-4d" d="M 475 0 
L 475 4581 
L 1388 4581 
L 2472 1338 
Q 2622 884 2691 659 
Q 2769 909 2934 1394 
L 4031 4581 
L 4847 4581 
L 4847 0 
L 4263 0 
L 4263 3834 
L 2931 0 
L 2384 0 
L 1059 3900 
L 1059 0 
L 475 0 
z
" transform="scale(0.015625)"/>
      </defs>
      <use xlink:href="#ArialMT-4c"/>
      <use xlink:href="#ArialMT-53" x="55.615234"/>
      <use xlink:href="#ArialMT-54" x="122.314453"/>
      <use xlink:href="#ArialMT-4d" x="183.398438"/>
     </g>
    </g>
    <g id="line2d_55">
     <path d="M 841.63125 223.821563 
L 851.63125 223.821563 
L 861.63125 223.821563 
" style="fill: none; stroke: #1f77b4; stroke-width: 1.5; stroke-linecap: round"/>
    </g>
    <g id="text_30">
     <!-- RNN -->
     <g style="fill: #262626" transform="translate(869.63125 227.321563) scale(0.1 -0.1)">
      <use xlink:href="#ArialMT-52"/>
      <use xlink:href="#ArialMT-4e" x="72.216797"/>
      <use xlink:href="#ArialMT-4e" x="144.433594"/>
     </g>
    </g>
    <g id="line2d_56">
     <path d="M 841.63125 238.08875 
L 851.63125 238.08875 
L 861.63125 238.08875 
" style="fill: none; stroke: #000000; stroke-width: 2; stroke-linecap: round"/>
    </g>
    <g id="text_31">
     <!-- Gerçek Değerler -->
     <g style="fill: #262626" transform="translate(869.63125 241.58875) scale(0.1 -0.1)">
      <use xlink:href="#ArialMT-47"/>
      <use xlink:href="#ArialMT-65" x="77.783203"/>
      <use xlink:href="#ArialMT-72" x="133.398438"/>
      <use xlink:href="#ArialMT-e7" x="166.699219"/>
      <use xlink:href="#ArialMT-65" x="216.699219"/>
      <use xlink:href="#ArialMT-6b" x="272.314453"/>
      <use xlink:href="#ArialMT-20" x="322.314453"/>
      <use xlink:href="#ArialMT-44" x="350.097656"/>
      <use xlink:href="#ArialMT-65" x="422.314453"/>
      <use xlink:href="#ArialMT-11f" x="477.929688"/>
      <use xlink:href="#ArialMT-65" x="533.544922"/>
      <use xlink:href="#ArialMT-72" x="589.160156"/>
      <use xlink:href="#ArialMT-6c" x="622.460938"/>
      <use xlink:href="#ArialMT-65" x="644.677734"/>
      <use xlink:href="#ArialMT-72" x="700.292969"/>
     </g>
    </g>
   </g>
  </g>
 </g>
 <defs>
  <clipPath id="p6b9e762ca5">
   <rect x="135" y="69.12" width="837" height="443.52"/>
  </clipPath>
 </defs>
</svg>
