<?xml version="1.0" encoding="utf-8" standalone="no"?>
<!DOCTYPE svg PUBLIC "-//W3C//DTD SVG 1.1//EN"
  "http://www.w3.org/Graphics/SVG/1.1/DTD/svg11.dtd">
<svg xmlns:xlink="http://www.w3.org/1999/xlink" width="1080pt" height="576pt" viewBox="0 0 1080 576" xmlns="http://www.w3.org/2000/svg" version="1.1">
 <metadata>
  <rdf:RDF xmlns:dc="http://purl.org/dc/elements/1.1/" xmlns:cc="http://creativecommons.org/ns#" xmlns:rdf="http://www.w3.org/1999/02/22-rdf-syntax-ns#">
   <cc:Work>
    <dc:type rdf:resource="http://purl.org/dc/dcmitype/StillImage"/>
    <dc:date>2023-05-23T02:06:04.735811</dc:date>
    <dc:format>image/svg+xml</dc:format>
    <dc:creator>
     <cc:Agent>
      <dc:title>Matplotlib v3.7.1, https://matplotlib.org/</dc:title>
     </cc:Agent>
    </dc:creator>
   </cc:Work>
  </rdf:RDF>
 </metadata>
 <defs>
  <style type="text/css">*{stroke-linejoin: round; stroke-linecap: butt}</style>
 </defs>
 <g id="figure_1">
  <g id="patch_1">
   <path d="M 0 576 
L 1080 576 
L 1080 0 
L 0 0 
z
" style="fill: #ffffff"/>
  </g>
  <g id="axes_1">
   <g id="patch_2">
    <path d="M 135 512.64 
L 972 512.64 
L 972 69.12 
L 135 69.12 
z
" style="fill: #ffffff"/>
   </g>
   <g id="matplotlib.axis_1">
    <g id="xtick_1">
     <g id="line2d_1">
      <path d="M 159.457792 512.64 
L 159.457792 69.12 
" clip-path="url(#pbd52661cda)" style="fill: none; stroke: #cccccc; stroke-width: 0.8; stroke-linecap: round"/>
     </g>
     <g id="line2d_2"/>
     <g id="text_1">
      <!-- 2023-01-01 -->
      <g style="fill: #262626" transform="translate(133.884355 523.297812) scale(0.1 -0.1)">
       <defs>
        <path id="ArialMT-32" d="M 3222 541 
L 3222 0 
L 194 0 
Q 188 203 259 391 
Q 375 700 629 1000 
Q 884 1300 1366 1694 
Q 2113 2306 2375 2664 
Q 2638 3022 2638 3341 
Q 2638 3675 2398 3904 
Q 2159 4134 1775 4134 
Q 1369 4134 1125 3890 
Q 881 3647 878 3216 
L 300 3275 
Q 359 3922 746 4261 
Q 1134 4600 1788 4600 
Q 2447 4600 2831 4234 
Q 3216 3869 3216 3328 
Q 3216 3053 3103 2787 
Q 2991 2522 2730 2228 
Q 2469 1934 1863 1422 
Q 1356 997 1212 845 
Q 1069 694 975 541 
L 3222 541 
z
" transform="scale(0.015625)"/>
        <path id="ArialMT-30" d="M 266 2259 
Q 266 3072 433 3567 
Q 600 4063 929 4331 
Q 1259 4600 1759 4600 
Q 2128 4600 2406 4451 
Q 2684 4303 2865 4023 
Q 3047 3744 3150 3342 
Q 3253 2941 3253 2259 
Q 3253 1453 3087 958 
Q 2922 463 2592 192 
Q 2263 -78 1759 -78 
Q 1097 -78 719 397 
Q 266 969 266 2259 
z
M 844 2259 
Q 844 1131 1108 757 
Q 1372 384 1759 384 
Q 2147 384 2411 759 
Q 2675 1134 2675 2259 
Q 2675 3391 2411 3762 
Q 2147 4134 1753 4134 
Q 1366 4134 1134 3806 
Q 844 3388 844 2259 
z
" transform="scale(0.015625)"/>
        <path id="ArialMT-33" d="M 269 1209 
L 831 1284 
Q 928 806 1161 595 
Q 1394 384 1728 384 
Q 2125 384 2398 659 
Q 2672 934 2672 1341 
Q 2672 1728 2419 1979 
Q 2166 2231 1775 2231 
Q 1616 2231 1378 2169 
L 1441 2663 
Q 1497 2656 1531 2656 
Q 1891 2656 2178 2843 
Q 2466 3031 2466 3422 
Q 2466 3731 2256 3934 
Q 2047 4138 1716 4138 
Q 1388 4138 1169 3931 
Q 950 3725 888 3313 
L 325 3413 
Q 428 3978 793 4289 
Q 1159 4600 1703 4600 
Q 2078 4600 2393 4439 
Q 2709 4278 2876 4000 
Q 3044 3722 3044 3409 
Q 3044 3113 2884 2869 
Q 2725 2625 2413 2481 
Q 2819 2388 3044 2092 
Q 3269 1797 3269 1353 
Q 3269 753 2831 336 
Q 2394 -81 1725 -81 
Q 1122 -81 723 278 
Q 325 638 269 1209 
z
" transform="scale(0.015625)"/>
        <path id="ArialMT-2d" d="M 203 1375 
L 203 1941 
L 1931 1941 
L 1931 1375 
L 203 1375 
z
" transform="scale(0.015625)"/>
        <path id="ArialMT-31" d="M 2384 0 
L 1822 0 
L 1822 3584 
Q 1619 3391 1289 3197 
Q 959 3003 697 2906 
L 697 3450 
Q 1169 3672 1522 3987 
Q 1875 4303 2022 4600 
L 2384 4600 
L 2384 0 
z
" transform="scale(0.015625)"/>
       </defs>
       <use xlink:href="#ArialMT-32"/>
       <use xlink:href="#ArialMT-30" x="55.615234"/>
       <use xlink:href="#ArialMT-32" x="111.230469"/>
       <use xlink:href="#ArialMT-33" x="166.845703"/>
       <use xlink:href="#ArialMT-2d" x="222.460938"/>
       <use xlink:href="#ArialMT-30" x="255.761719"/>
       <use xlink:href="#ArialMT-31" x="311.376953"/>
       <use xlink:href="#ArialMT-2d" x="366.992188"/>
       <use xlink:href="#ArialMT-30" x="400.292969"/>
       <use xlink:href="#ArialMT-31" x="455.908203"/>
      </g>
     </g>
    </g>
    <g id="xtick_2">
     <g id="line2d_3">
      <path d="M 254.571429 512.64 
L 254.571429 69.12 
" clip-path="url(#pbd52661cda)" style="fill: none; stroke: #cccccc; stroke-width: 0.8; stroke-linecap: round"/>
     </g>
     <g id="line2d_4"/>
     <g id="text_2">
      <!-- 2023-01-15 -->
      <g style="fill: #262626" transform="translate(228.997991 523.297812) scale(0.1 -0.1)">
       <defs>
        <path id="ArialMT-35" d="M 266 1200 
L 856 1250 
Q 922 819 1161 601 
Q 1400 384 1738 384 
Q 2144 384 2425 690 
Q 2706 997 2706 1503 
Q 2706 1984 2436 2262 
Q 2166 2541 1728 2541 
Q 1456 2541 1237 2417 
Q 1019 2294 894 2097 
L 366 2166 
L 809 4519 
L 3088 4519 
L 3088 3981 
L 1259 3981 
L 1013 2750 
Q 1425 3038 1878 3038 
Q 2478 3038 2890 2622 
Q 3303 2206 3303 1553 
Q 3303 931 2941 478 
Q 2500 -78 1738 -78 
Q 1113 -78 717 272 
Q 322 622 266 1200 
z
" transform="scale(0.015625)"/>
       </defs>
       <use xlink:href="#ArialMT-32"/>
       <use xlink:href="#ArialMT-30" x="55.615234"/>
       <use xlink:href="#ArialMT-32" x="111.230469"/>
       <use xlink:href="#ArialMT-33" x="166.845703"/>
       <use xlink:href="#ArialMT-2d" x="222.460938"/>
       <use xlink:href="#ArialMT-30" x="255.761719"/>
       <use xlink:href="#ArialMT-31" x="311.376953"/>
       <use xlink:href="#ArialMT-2d" x="366.992188"/>
       <use xlink:href="#ArialMT-31" x="400.292969"/>
       <use xlink:href="#ArialMT-35" x="455.908203"/>
      </g>
     </g>
    </g>
    <g id="xtick_3">
     <g id="line2d_5">
      <path d="M 370.066558 512.64 
L 370.066558 69.12 
" clip-path="url(#pbd52661cda)" style="fill: none; stroke: #cccccc; stroke-width: 0.8; stroke-linecap: round"/>
     </g>
     <g id="line2d_6"/>
     <g id="text_3">
      <!-- 2023-02-01 -->
      <g style="fill: #262626" transform="translate(344.493121 523.297812) scale(0.1 -0.1)">
       <use xlink:href="#ArialMT-32"/>
       <use xlink:href="#ArialMT-30" x="55.615234"/>
       <use xlink:href="#ArialMT-32" x="111.230469"/>
       <use xlink:href="#ArialMT-33" x="166.845703"/>
       <use xlink:href="#ArialMT-2d" x="222.460938"/>
       <use xlink:href="#ArialMT-30" x="255.761719"/>
       <use xlink:href="#ArialMT-32" x="311.376953"/>
       <use xlink:href="#ArialMT-2d" x="366.992188"/>
       <use xlink:href="#ArialMT-30" x="400.292969"/>
       <use xlink:href="#ArialMT-31" x="455.908203"/>
      </g>
     </g>
    </g>
    <g id="xtick_4">
     <g id="line2d_7">
      <path d="M 465.180195 512.64 
L 465.180195 69.12 
" clip-path="url(#pbd52661cda)" style="fill: none; stroke: #cccccc; stroke-width: 0.8; stroke-linecap: round"/>
     </g>
     <g id="line2d_8"/>
     <g id="text_4">
      <!-- 2023-02-15 -->
      <g style="fill: #262626" transform="translate(439.606757 523.297812) scale(0.1 -0.1)">
       <use xlink:href="#ArialMT-32"/>
       <use xlink:href="#ArialMT-30" x="55.615234"/>
       <use xlink:href="#ArialMT-32" x="111.230469"/>
       <use xlink:href="#ArialMT-33" x="166.845703"/>
       <use xlink:href="#ArialMT-2d" x="222.460938"/>
       <use xlink:href="#ArialMT-30" x="255.761719"/>
       <use xlink:href="#ArialMT-32" x="311.376953"/>
       <use xlink:href="#ArialMT-2d" x="366.992188"/>
       <use xlink:href="#ArialMT-31" x="400.292969"/>
       <use xlink:href="#ArialMT-35" x="455.908203"/>
      </g>
     </g>
    </g>
    <g id="xtick_5">
     <g id="line2d_9">
      <path d="M 560.293831 512.64 
L 560.293831 69.12 
" clip-path="url(#pbd52661cda)" style="fill: none; stroke: #cccccc; stroke-width: 0.8; stroke-linecap: round"/>
     </g>
     <g id="line2d_10"/>
     <g id="text_5">
      <!-- 2023-03-01 -->
      <g style="fill: #262626" transform="translate(534.720394 523.297812) scale(0.1 -0.1)">
       <use xlink:href="#ArialMT-32"/>
       <use xlink:href="#ArialMT-30" x="55.615234"/>
       <use xlink:href="#ArialMT-32" x="111.230469"/>
       <use xlink:href="#ArialMT-33" x="166.845703"/>
       <use xlink:href="#ArialMT-2d" x="222.460938"/>
       <use xlink:href="#ArialMT-30" x="255.761719"/>
       <use xlink:href="#ArialMT-33" x="311.376953"/>
       <use xlink:href="#ArialMT-2d" x="366.992188"/>
       <use xlink:href="#ArialMT-30" x="400.292969"/>
       <use xlink:href="#ArialMT-31" x="455.908203"/>
      </g>
     </g>
    </g>
    <g id="xtick_6">
     <g id="line2d_11">
      <path d="M 655.407468 512.64 
L 655.407468 69.12 
" clip-path="url(#pbd52661cda)" style="fill: none; stroke: #cccccc; stroke-width: 0.8; stroke-linecap: round"/>
     </g>
     <g id="line2d_12"/>
     <g id="text_6">
      <!-- 2023-03-15 -->
      <g style="fill: #262626" transform="translate(629.83403 523.297812) scale(0.1 -0.1)">
       <use xlink:href="#ArialMT-32"/>
       <use xlink:href="#ArialMT-30" x="55.615234"/>
       <use xlink:href="#ArialMT-32" x="111.230469"/>
       <use xlink:href="#ArialMT-33" x="166.845703"/>
       <use xlink:href="#ArialMT-2d" x="222.460938"/>
       <use xlink:href="#ArialMT-30" x="255.761719"/>
       <use xlink:href="#ArialMT-33" x="311.376953"/>
       <use xlink:href="#ArialMT-2d" x="366.992188"/>
       <use xlink:href="#ArialMT-31" x="400.292969"/>
       <use xlink:href="#ArialMT-35" x="455.908203"/>
      </g>
     </g>
    </g>
    <g id="xtick_7">
     <g id="line2d_13">
      <path d="M 770.902597 512.64 
L 770.902597 69.12 
" clip-path="url(#pbd52661cda)" style="fill: none; stroke: #cccccc; stroke-width: 0.8; stroke-linecap: round"/>
     </g>
     <g id="line2d_14"/>
     <g id="text_7">
      <!-- 2023-04-01 -->
      <g style="fill: #262626" transform="translate(745.32916 523.297812) scale(0.1 -0.1)">
       <defs>
        <path id="ArialMT-34" d="M 2069 0 
L 2069 1097 
L 81 1097 
L 81 1613 
L 2172 4581 
L 2631 4581 
L 2631 1613 
L 3250 1613 
L 3250 1097 
L 2631 1097 
L 2631 0 
L 2069 0 
z
M 2069 1613 
L 2069 3678 
L 634 1613 
L 2069 1613 
z
" transform="scale(0.015625)"/>
       </defs>
       <use xlink:href="#ArialMT-32"/>
       <use xlink:href="#ArialMT-30" x="55.615234"/>
       <use xlink:href="#ArialMT-32" x="111.230469"/>
       <use xlink:href="#ArialMT-33" x="166.845703"/>
       <use xlink:href="#ArialMT-2d" x="222.460938"/>
       <use xlink:href="#ArialMT-30" x="255.761719"/>
       <use xlink:href="#ArialMT-34" x="311.376953"/>
       <use xlink:href="#ArialMT-2d" x="366.992188"/>
       <use xlink:href="#ArialMT-30" x="400.292969"/>
       <use xlink:href="#ArialMT-31" x="455.908203"/>
      </g>
     </g>
    </g>
    <g id="xtick_8">
     <g id="line2d_15">
      <path d="M 866.016234 512.64 
L 866.016234 69.12 
" clip-path="url(#pbd52661cda)" style="fill: none; stroke: #cccccc; stroke-width: 0.8; stroke-linecap: round"/>
     </g>
     <g id="line2d_16"/>
     <g id="text_8">
      <!-- 2023-04-15 -->
      <g style="fill: #262626" transform="translate(840.442796 523.297812) scale(0.1 -0.1)">
       <use xlink:href="#ArialMT-32"/>
       <use xlink:href="#ArialMT-30" x="55.615234"/>
       <use xlink:href="#ArialMT-32" x="111.230469"/>
       <use xlink:href="#ArialMT-33" x="166.845703"/>
       <use xlink:href="#ArialMT-2d" x="222.460938"/>
       <use xlink:href="#ArialMT-30" x="255.761719"/>
       <use xlink:href="#ArialMT-34" x="311.376953"/>
       <use xlink:href="#ArialMT-2d" x="366.992188"/>
       <use xlink:href="#ArialMT-31" x="400.292969"/>
       <use xlink:href="#ArialMT-35" x="455.908203"/>
      </g>
     </g>
    </g>
    <g id="text_9">
     <!-- Date -->
     <g style="fill: #262626" transform="translate(542.939062 536.443125) scale(0.1 -0.1)">
      <defs>
       <path id="ArialMT-44" d="M 494 0 
L 494 4581 
L 2072 4581 
Q 2606 4581 2888 4516 
Q 3281 4425 3559 4188 
Q 3922 3881 4101 3404 
Q 4281 2928 4281 2316 
Q 4281 1794 4159 1391 
Q 4038 988 3847 723 
Q 3656 459 3429 307 
Q 3203 156 2883 78 
Q 2563 0 2147 0 
L 494 0 
z
M 1100 541 
L 2078 541 
Q 2531 541 2789 625 
Q 3047 709 3200 863 
Q 3416 1078 3536 1442 
Q 3656 1806 3656 2325 
Q 3656 3044 3420 3430 
Q 3184 3816 2847 3947 
Q 2603 4041 2063 4041 
L 1100 4041 
L 1100 541 
z
" transform="scale(0.015625)"/>
       <path id="ArialMT-61" d="M 2588 409 
Q 2275 144 1986 34 
Q 1697 -75 1366 -75 
Q 819 -75 525 192 
Q 231 459 231 875 
Q 231 1119 342 1320 
Q 453 1522 633 1644 
Q 813 1766 1038 1828 
Q 1203 1872 1538 1913 
Q 2219 1994 2541 2106 
Q 2544 2222 2544 2253 
Q 2544 2597 2384 2738 
Q 2169 2928 1744 2928 
Q 1347 2928 1158 2789 
Q 969 2650 878 2297 
L 328 2372 
Q 403 2725 575 2942 
Q 747 3159 1072 3276 
Q 1397 3394 1825 3394 
Q 2250 3394 2515 3294 
Q 2781 3194 2906 3042 
Q 3031 2891 3081 2659 
Q 3109 2516 3109 2141 
L 3109 1391 
Q 3109 606 3145 398 
Q 3181 191 3288 0 
L 2700 0 
Q 2613 175 2588 409 
z
M 2541 1666 
Q 2234 1541 1622 1453 
Q 1275 1403 1131 1340 
Q 988 1278 909 1158 
Q 831 1038 831 891 
Q 831 666 1001 516 
Q 1172 366 1500 366 
Q 1825 366 2078 508 
Q 2331 650 2450 897 
Q 2541 1088 2541 1459 
L 2541 1666 
z
" transform="scale(0.015625)"/>
       <path id="ArialMT-74" d="M 1650 503 
L 1731 6 
Q 1494 -44 1306 -44 
Q 1000 -44 831 53 
Q 663 150 594 308 
Q 525 466 525 972 
L 525 2881 
L 113 2881 
L 113 3319 
L 525 3319 
L 525 4141 
L 1084 4478 
L 1084 3319 
L 1650 3319 
L 1650 2881 
L 1084 2881 
L 1084 941 
Q 1084 700 1114 631 
Q 1144 563 1211 522 
Q 1278 481 1403 481 
Q 1497 481 1650 503 
z
" transform="scale(0.015625)"/>
       <path id="ArialMT-65" d="M 2694 1069 
L 3275 997 
Q 3138 488 2766 206 
Q 2394 -75 1816 -75 
Q 1088 -75 661 373 
Q 234 822 234 1631 
Q 234 2469 665 2931 
Q 1097 3394 1784 3394 
Q 2450 3394 2872 2941 
Q 3294 2488 3294 1666 
Q 3294 1616 3291 1516 
L 816 1516 
Q 847 969 1125 678 
Q 1403 388 1819 388 
Q 2128 388 2347 550 
Q 2566 713 2694 1069 
z
M 847 1978 
L 2700 1978 
Q 2663 2397 2488 2606 
Q 2219 2931 1791 2931 
Q 1403 2931 1139 2672 
Q 875 2413 847 1978 
z
" transform="scale(0.015625)"/>
      </defs>
      <use xlink:href="#ArialMT-44"/>
      <use xlink:href="#ArialMT-61" x="72.216797"/>
      <use xlink:href="#ArialMT-74" x="127.832031"/>
      <use xlink:href="#ArialMT-65" x="155.615234"/>
     </g>
    </g>
   </g>
   <g id="matplotlib.axis_2">
    <g id="ytick_1">
     <g id="line2d_17">
      <path d="M 135 505.941951 
L 972 505.941951 
" clip-path="url(#pbd52661cda)" style="fill: none; stroke: #cccccc; stroke-width: 0.8; stroke-linecap: round"/>
     </g>
     <g id="line2d_18"/>
     <g id="text_10">
      <!-- 11 -->
      <g style="fill: #262626" transform="translate(121.115625 509.520857) scale(0.1 -0.1)">
       <use xlink:href="#ArialMT-31"/>
       <use xlink:href="#ArialMT-31" x="48.240234"/>
      </g>
     </g>
    </g>
    <g id="ytick_2">
     <g id="line2d_19">
      <path d="M 135 447.74894 
L 972 447.74894 
" clip-path="url(#pbd52661cda)" style="fill: none; stroke: #cccccc; stroke-width: 0.8; stroke-linecap: round"/>
     </g>
     <g id="line2d_20"/>
     <g id="text_11">
      <!-- 12 -->
      <g style="fill: #262626" transform="translate(120.378125 451.327846) scale(0.1 -0.1)">
       <use xlink:href="#ArialMT-31"/>
       <use xlink:href="#ArialMT-32" x="55.615234"/>
      </g>
     </g>
    </g>
    <g id="ytick_3">
     <g id="line2d_21">
      <path d="M 135 389.555929 
L 972 389.555929 
" clip-path="url(#pbd52661cda)" style="fill: none; stroke: #cccccc; stroke-width: 0.8; stroke-linecap: round"/>
     </g>
     <g id="line2d_22"/>
     <g id="text_12">
      <!-- 13 -->
      <g style="fill: #262626" transform="translate(120.378125 393.134835) scale(0.1 -0.1)">
       <use xlink:href="#ArialMT-31"/>
       <use xlink:href="#ArialMT-33" x="55.615234"/>
      </g>
     </g>
    </g>
    <g id="ytick_4">
     <g id="line2d_23">
      <path d="M 135 331.362918 
L 972 331.362918 
" clip-path="url(#pbd52661cda)" style="fill: none; stroke: #cccccc; stroke-width: 0.8; stroke-linecap: round"/>
     </g>
     <g id="line2d_24"/>
     <g id="text_13">
      <!-- 14 -->
      <g style="fill: #262626" transform="translate(120.378125 334.941824) scale(0.1 -0.1)">
       <use xlink:href="#ArialMT-31"/>
       <use xlink:href="#ArialMT-34" x="55.615234"/>
      </g>
     </g>
    </g>
    <g id="ytick_5">
     <g id="line2d_25">
      <path d="M 135 273.169906 
L 972 273.169906 
" clip-path="url(#pbd52661cda)" style="fill: none; stroke: #cccccc; stroke-width: 0.8; stroke-linecap: round"/>
     </g>
     <g id="line2d_26"/>
     <g id="text_14">
      <!-- 15 -->
      <g style="fill: #262626" transform="translate(120.378125 276.748813) scale(0.1 -0.1)">
       <use xlink:href="#ArialMT-31"/>
       <use xlink:href="#ArialMT-35" x="55.615234"/>
      </g>
     </g>
    </g>
    <g id="ytick_6">
     <g id="line2d_27">
      <path d="M 135 214.976895 
L 972 214.976895 
" clip-path="url(#pbd52661cda)" style="fill: none; stroke: #cccccc; stroke-width: 0.8; stroke-linecap: round"/>
     </g>
     <g id="line2d_28"/>
     <g id="text_15">
      <!-- 16 -->
      <g style="fill: #262626" transform="translate(120.378125 218.555801) scale(0.1 -0.1)">
       <defs>
        <path id="ArialMT-36" d="M 3184 3459 
L 2625 3416 
Q 2550 3747 2413 3897 
Q 2184 4138 1850 4138 
Q 1581 4138 1378 3988 
Q 1113 3794 959 3422 
Q 806 3050 800 2363 
Q 1003 2672 1297 2822 
Q 1591 2972 1913 2972 
Q 2475 2972 2870 2558 
Q 3266 2144 3266 1488 
Q 3266 1056 3080 686 
Q 2894 316 2569 119 
Q 2244 -78 1831 -78 
Q 1128 -78 684 439 
Q 241 956 241 2144 
Q 241 3472 731 4075 
Q 1159 4600 1884 4600 
Q 2425 4600 2770 4297 
Q 3116 3994 3184 3459 
z
M 888 1484 
Q 888 1194 1011 928 
Q 1134 663 1356 523 
Q 1578 384 1822 384 
Q 2178 384 2434 671 
Q 2691 959 2691 1453 
Q 2691 1928 2437 2201 
Q 2184 2475 1800 2475 
Q 1419 2475 1153 2201 
Q 888 1928 888 1484 
z
" transform="scale(0.015625)"/>
       </defs>
       <use xlink:href="#ArialMT-31"/>
       <use xlink:href="#ArialMT-36" x="55.615234"/>
      </g>
     </g>
    </g>
    <g id="ytick_7">
     <g id="line2d_29">
      <path d="M 135 156.783884 
L 972 156.783884 
" clip-path="url(#pbd52661cda)" style="fill: none; stroke: #cccccc; stroke-width: 0.8; stroke-linecap: round"/>
     </g>
     <g id="line2d_30"/>
     <g id="text_16">
      <!-- 17 -->
      <g style="fill: #262626" transform="translate(120.378125 160.36279) scale(0.1 -0.1)">
       <defs>
        <path id="ArialMT-37" d="M 303 3981 
L 303 4522 
L 3269 4522 
L 3269 4084 
Q 2831 3619 2401 2847 
Q 1972 2075 1738 1259 
Q 1569 684 1522 0 
L 944 0 
Q 953 541 1156 1306 
Q 1359 2072 1739 2783 
Q 2119 3494 2547 3981 
L 303 3981 
z
" transform="scale(0.015625)"/>
       </defs>
       <use xlink:href="#ArialMT-31"/>
       <use xlink:href="#ArialMT-37" x="55.615234"/>
      </g>
     </g>
    </g>
    <g id="ytick_8">
     <g id="line2d_31">
      <path d="M 135 98.590873 
L 972 98.590873 
" clip-path="url(#pbd52661cda)" style="fill: none; stroke: #cccccc; stroke-width: 0.8; stroke-linecap: round"/>
     </g>
     <g id="line2d_32"/>
     <g id="text_17">
      <!-- 18 -->
      <g style="fill: #262626" transform="translate(120.378125 102.169779) scale(0.1 -0.1)">
       <defs>
        <path id="ArialMT-38" d="M 1131 2484 
Q 781 2613 612 2850 
Q 444 3088 444 3419 
Q 444 3919 803 4259 
Q 1163 4600 1759 4600 
Q 2359 4600 2725 4251 
Q 3091 3903 3091 3403 
Q 3091 3084 2923 2848 
Q 2756 2613 2416 2484 
Q 2838 2347 3058 2040 
Q 3278 1734 3278 1309 
Q 3278 722 2862 322 
Q 2447 -78 1769 -78 
Q 1091 -78 675 323 
Q 259 725 259 1325 
Q 259 1772 486 2073 
Q 713 2375 1131 2484 
z
M 1019 3438 
Q 1019 3113 1228 2906 
Q 1438 2700 1772 2700 
Q 2097 2700 2305 2904 
Q 2513 3109 2513 3406 
Q 2513 3716 2298 3927 
Q 2084 4138 1766 4138 
Q 1444 4138 1231 3931 
Q 1019 3725 1019 3438 
z
M 838 1322 
Q 838 1081 952 856 
Q 1066 631 1291 507 
Q 1516 384 1775 384 
Q 2178 384 2440 643 
Q 2703 903 2703 1303 
Q 2703 1709 2433 1975 
Q 2163 2241 1756 2241 
Q 1359 2241 1098 1978 
Q 838 1716 838 1322 
z
" transform="scale(0.015625)"/>
       </defs>
       <use xlink:href="#ArialMT-31"/>
       <use xlink:href="#ArialMT-38" x="55.615234"/>
      </g>
     </g>
    </g>
    <g id="text_18">
     <!-- Adj Close -->
     <g style="fill: #262626" transform="translate(114.273438 312.278437) rotate(-90) scale(0.1 -0.1)">
      <defs>
       <path id="ArialMT-41" d="M -9 0 
L 1750 4581 
L 2403 4581 
L 4278 0 
L 3588 0 
L 3053 1388 
L 1138 1388 
L 634 0 
L -9 0 
z
M 1313 1881 
L 2866 1881 
L 2388 3150 
Q 2169 3728 2063 4100 
Q 1975 3659 1816 3225 
L 1313 1881 
z
" transform="scale(0.015625)"/>
       <path id="ArialMT-64" d="M 2575 0 
L 2575 419 
Q 2259 -75 1647 -75 
Q 1250 -75 917 144 
Q 584 363 401 755 
Q 219 1147 219 1656 
Q 219 2153 384 2558 
Q 550 2963 881 3178 
Q 1213 3394 1622 3394 
Q 1922 3394 2156 3267 
Q 2391 3141 2538 2938 
L 2538 4581 
L 3097 4581 
L 3097 0 
L 2575 0 
z
M 797 1656 
Q 797 1019 1065 703 
Q 1334 388 1700 388 
Q 2069 388 2326 689 
Q 2584 991 2584 1609 
Q 2584 2291 2321 2609 
Q 2059 2928 1675 2928 
Q 1300 2928 1048 2622 
Q 797 2316 797 1656 
z
" transform="scale(0.015625)"/>
       <path id="ArialMT-6a" d="M 419 3928 
L 419 4581 
L 981 4581 
L 981 3928 
L 419 3928 
z
M -294 -1288 
L -188 -809 
Q -19 -853 78 -853 
Q 250 -853 334 -739 
Q 419 -625 419 -169 
L 419 3319 
L 981 3319 
L 981 -181 
Q 981 -794 822 -1034 
Q 619 -1347 147 -1347 
Q -81 -1347 -294 -1288 
z
" transform="scale(0.015625)"/>
       <path id="ArialMT-20" transform="scale(0.015625)"/>
       <path id="ArialMT-43" d="M 3763 1606 
L 4369 1453 
Q 4178 706 3683 314 
Q 3188 -78 2472 -78 
Q 1731 -78 1267 223 
Q 803 525 561 1097 
Q 319 1669 319 2325 
Q 319 3041 592 3573 
Q 866 4106 1370 4382 
Q 1875 4659 2481 4659 
Q 3169 4659 3637 4309 
Q 4106 3959 4291 3325 
L 3694 3184 
Q 3534 3684 3231 3912 
Q 2928 4141 2469 4141 
Q 1941 4141 1586 3887 
Q 1231 3634 1087 3207 
Q 944 2781 944 2328 
Q 944 1744 1114 1308 
Q 1284 872 1643 656 
Q 2003 441 2422 441 
Q 2931 441 3284 734 
Q 3638 1028 3763 1606 
z
" transform="scale(0.015625)"/>
       <path id="ArialMT-6c" d="M 409 0 
L 409 4581 
L 972 4581 
L 972 0 
L 409 0 
z
" transform="scale(0.015625)"/>
       <path id="ArialMT-6f" d="M 213 1659 
Q 213 2581 725 3025 
Q 1153 3394 1769 3394 
Q 2453 3394 2887 2945 
Q 3322 2497 3322 1706 
Q 3322 1066 3130 698 
Q 2938 331 2570 128 
Q 2203 -75 1769 -75 
Q 1072 -75 642 372 
Q 213 819 213 1659 
z
M 791 1659 
Q 791 1022 1069 705 
Q 1347 388 1769 388 
Q 2188 388 2466 706 
Q 2744 1025 2744 1678 
Q 2744 2294 2464 2611 
Q 2184 2928 1769 2928 
Q 1347 2928 1069 2612 
Q 791 2297 791 1659 
z
" transform="scale(0.015625)"/>
       <path id="ArialMT-73" d="M 197 991 
L 753 1078 
Q 800 744 1014 566 
Q 1228 388 1613 388 
Q 2000 388 2187 545 
Q 2375 703 2375 916 
Q 2375 1106 2209 1216 
Q 2094 1291 1634 1406 
Q 1016 1563 777 1677 
Q 538 1791 414 1992 
Q 291 2194 291 2438 
Q 291 2659 392 2848 
Q 494 3038 669 3163 
Q 800 3259 1026 3326 
Q 1253 3394 1513 3394 
Q 1903 3394 2198 3281 
Q 2494 3169 2634 2976 
Q 2775 2784 2828 2463 
L 2278 2388 
Q 2241 2644 2061 2787 
Q 1881 2931 1553 2931 
Q 1166 2931 1000 2803 
Q 834 2675 834 2503 
Q 834 2394 903 2306 
Q 972 2216 1119 2156 
Q 1203 2125 1616 2013 
Q 2213 1853 2448 1751 
Q 2684 1650 2818 1456 
Q 2953 1263 2953 975 
Q 2953 694 2789 445 
Q 2625 197 2315 61 
Q 2006 -75 1616 -75 
Q 969 -75 630 194 
Q 291 463 197 991 
z
" transform="scale(0.015625)"/>
      </defs>
      <use xlink:href="#ArialMT-41"/>
      <use xlink:href="#ArialMT-64" x="66.699219"/>
      <use xlink:href="#ArialMT-6a" x="122.314453"/>
      <use xlink:href="#ArialMT-20" x="144.53125"/>
      <use xlink:href="#ArialMT-43" x="172.314453"/>
      <use xlink:href="#ArialMT-6c" x="244.53125"/>
      <use xlink:href="#ArialMT-6f" x="266.748047"/>
      <use xlink:href="#ArialMT-73" x="322.363281"/>
      <use xlink:href="#ArialMT-65" x="372.363281"/>
     </g>
    </g>
   </g>
   <g id="line2d_33">
    <path d="M 173.045455 417.197617 
L 179.839286 419.75229 
L 186.633117 341.005497 
L 193.426948 328.505636 
L 213.808442 328.464904 
L 220.602273 309.41252 
L 227.396104 277.022286 
L 234.189935 269.381543 
L 240.983766 197.879801 
L 268.159091 178.676106 
L 274.952922 118.830413 
L 281.746753 168.306105 
L 288.540584 182.889283 
L 308.922078 213.556987 
L 315.715909 208.622226 
L 322.50974 219.597426 
L 329.303571 177.413326 
L 336.097403 210.52514 
L 356.478896 167.916217 
L 363.272727 217.589769 
L 370.066558 205.625282 
L 376.86039 204.507988 
L 383.654221 128.606849 
L 404.035714 152.396152 
L 410.829545 177.576262 
L 417.623377 169.010254 
L 424.417208 157.167975 
L 431.211039 163.068745 
L 451.592532 212.701557 
L 458.386364 209.116868 
L 465.180195 194.004145 
L 471.974026 174.24762 
L 478.767857 189.913175 
L 505.943182 215.622846 
L 512.737013 219.399575 
L 519.530844 234.163137 
L 526.324675 215.081656 
L 546.706169 229.449506 
L 553.5 230.520257 
L 560.293831 220.877671 
L 567.087662 214.249491 
L 573.881494 207.149945 
L 594.262987 213.504621 
L 601.056818 214.651022 
L 607.850649 212.655004 
L 614.644481 208.814264 
L 621.438312 239.476158 
L 641.819805 252.325174 
L 648.613636 283.970527 
L 655.407468 300.055081 
L 662.201299 347.808259 
L 668.99513 326.497977 
L 689.376623 334.924325 
L 696.170455 333.050514 
L 702.964286 330.164141 
L 709.758117 323.634884 
L 716.551948 343.071355 
L 736.933442 333.062154 
L 743.727273 320.271328 
L 750.521104 309.482337 
L 757.314935 323.047132 
L 764.108766 324.094611 
L 784.49026 300.171459 
L 791.284091 322.18006 
L 798.077922 324.629987 
L 804.871753 324.950044 
L 832.047078 311.012818 
L 838.840909 316.09307 
L 845.63474 340.464302 
L 852.428571 390.091295 
L 859.222403 383.189603 
L 879.603896 407.368816 
L 886.397727 385.622072 
L 893.191558 366.779181 
L 899.98539 332.561694 
L 906.779221 375.775822 
L 927.160714 331.880833 
L 933.954545 371.795425 
" clip-path="url(#pbd52661cda)" style="fill: none; stroke: #1f77b4; stroke-width: 1.5; stroke-linecap: round"/>
   </g>
   <g id="line2d_34">
    <path d="M 173.045455 404.368478 
L 179.839286 400.635103 
L 186.633117 349.853758 
L 193.426948 326.192981 
L 213.808442 325.082456 
L 220.602273 320.374654 
L 227.396104 277.449398 
L 234.189935 267.583633 
L 240.983766 188.627446 
L 268.159091 168.651122 
L 274.952922 136.382034 
L 281.746753 166.771354 
L 288.540584 200.55759 
L 308.922078 192.501822 
L 315.715909 192.501822 
L 322.50974 228.683905 
L 329.303571 191.147903 
L 336.097403 197.227525 
L 356.478896 166.561919 
L 363.272727 227.329986 
L 370.066558 168.940099 
L 376.86039 192.501822 
L 383.654221 142.072177 
L 404.035714 137.985516 
L 410.829545 166.132312 
L 417.623377 164.680784 
L 424.417208 149.389046 
L 431.211039 164.680784 
L 451.592532 192.501822 
L 458.386364 192.501822 
L 465.180195 166.561919 
L 471.974026 166.561919 
L 478.767857 166.561919 
L 505.943182 192.501822 
L 512.737013 228.683905 
L 519.530844 233.450445 
L 526.324675 228.683905 
L 546.706169 228.683905 
L 553.5 228.683905 
L 560.293831 228.683905 
L 567.087662 192.501822 
L 573.881494 168.940099 
L 594.262987 192.501822 
L 601.056818 192.501822 
L 607.850649 192.501822 
L 614.644481 192.501822 
L 621.438312 228.683905 
L 641.819805 267.583633 
L 648.613636 291.719269 
L 655.407468 307.340212 
L 662.201299 344.135974 
L 668.99513 327.717589 
L 689.376623 325.082456 
L 696.170455 333.989638 
L 702.964286 325.082456 
L 709.758117 333.989638 
L 716.551948 341.781358 
L 736.933442 341.081994 
L 743.727273 310.427914 
L 750.521104 325.082456 
L 757.314935 325.082456 
L 764.108766 325.082456 
L 784.49026 310.144673 
L 791.284091 301.520733 
L 798.077922 301.520733 
L 804.871753 333.989638 
L 832.047078 301.520733 
L 838.840909 301.520733 
L 845.63474 323.728537 
L 852.428571 377.703765 
L 859.222403 362.742121 
L 879.603896 381.062432 
L 886.397727 360.651551 
L 893.191558 354.168985 
L 899.98539 340.665935 
L 906.779221 354.168985 
L 927.160714 324.201466 
L 933.954545 354.168985 
" clip-path="url(#pbd52661cda)" style="fill: none; stroke: #ff7f0e; stroke-width: 1.5; stroke-linecap: round"/>
   </g>
   <g id="line2d_35">
    <path d="M 173.045455 397.570008 
L 179.839286 392.944273 
L 186.633117 344.323858 
L 193.426948 328.406382 
L 213.808442 316.171248 
L 220.602273 287.614417 
L 227.396104 253.7474 
L 234.189935 255.836646 
L 240.983766 168.244426 
L 268.159091 162.706479 
L 274.952922 157.289857 
L 281.746753 185.786767 
L 288.540584 208.713589 
L 308.922078 200.523773 
L 315.715909 207.395358 
L 322.50974 218.349216 
L 329.303571 196.732106 
L 336.097403 180.769392 
L 356.478896 197.439198 
L 363.272727 216.312984 
L 370.066558 206.792126 
L 376.86039 175.455467 
L 383.654221 171.801556 
L 404.035714 165.124266 
L 410.829545 170.974488 
L 417.623377 169.719914 
L 424.417208 168.023067 
L 431.211039 185.452915 
L 451.592532 204.105808 
L 458.386364 195.41272 
L 465.180195 171.396037 
L 471.974026 178.447882 
L 478.767857 199.769342 
L 505.943182 204.594428 
L 512.737013 237.704255 
L 519.530844 247.155805 
L 526.324675 225.944748 
L 546.706169 246.832008 
L 553.5 244.798274 
L 560.293831 218.505386 
L 567.087662 218.368761 
L 573.881494 209.372322 
L 594.262987 198.778373 
L 601.056818 214.916309 
L 607.850649 202.38716 
L 614.644481 188.425731 
L 621.438312 222.011202 
L 641.819805 248.367132 
L 648.613636 286.366262 
L 655.407468 299.148729 
L 662.201299 335.234902 
L 668.99513 330.522315 
L 689.376623 324.984904 
L 696.170455 328.453351 
L 702.964286 312.657547 
L 709.758117 339.80588 
L 716.551948 350.961391 
L 736.933442 346.585794 
L 743.727273 326.346141 
L 750.521104 331.087437 
L 757.314935 311.078634 
L 764.108766 305.953534 
L 784.49026 291.187728 
L 791.284091 304.310923 
L 798.077922 310.377126 
L 804.871753 333.1979 
L 832.047078 328.250584 
L 838.840909 315.484161 
L 845.63474 304.832195 
L 852.428571 384.314771 
L 859.222403 389.097433 
L 879.603896 401.477292 
L 886.397727 381.85903 
L 893.191558 368.086277 
L 899.98539 352.499797 
L 906.779221 368.784555 
L 927.160714 361.544085 
L 933.954545 359.692373 
" clip-path="url(#pbd52661cda)" style="fill: none; stroke: #2ca02c; stroke-width: 1.5; stroke-linecap: round"/>
   </g>
   <g id="line2d_36">
    <path d="M 173.045455 416.906659 
L 179.839286 419.816321 
L 186.633117 319.724326 
L 193.426948 330.199031 
L 213.808442 324.961706 
L 220.602273 331.362918 
L 227.396104 295.283257 
L 234.189935 253.966217 
L 240.983766 297.029032 
L 268.159091 216.72267 
L 274.952922 139.326025 
L 281.746753 171.332137 
L 288.540584 174.823686 
L 308.922078 245.819176 
L 315.715909 245.819176 
L 322.50974 245.819176 
L 329.303571 171.332137 
L 336.097403 297.029032 
L 356.478896 158.529714 
L 363.272727 245.819176 
L 370.066558 245.819176 
L 376.86039 245.819176 
L 383.654221 109.065633 
L 404.035714 158.529714 
L 410.829545 89.28 
L 417.623377 109.065633 
L 424.417208 158.529714 
L 431.211039 158.529714 
L 451.592532 245.819176 
L 458.386364 245.819176 
L 465.180195 158.529714 
L 471.974026 158.529714 
L 478.767857 89.28 
L 505.943182 245.819176 
L 512.737013 245.819176 
L 519.530844 275.497625 
L 526.324675 275.497625 
L 546.706169 275.497625 
L 553.5 275.497625 
L 560.293831 275.497625 
L 567.087662 275.497625 
L 573.881494 275.497625 
L 594.262987 245.819176 
L 601.056818 245.819176 
L 607.850649 245.819176 
L 614.644481 245.819176 
L 621.438312 244.073401 
L 641.819805 290.045877 
L 648.613636 291.791652 
L 655.407468 282.480779 
L 662.201299 376.171563 
L 668.99513 304.012187 
L 689.376623 345.91117 
L 696.170455 332.526804 
L 702.964286 277.243399 
L 709.758117 323.215876 
L 716.551948 360.459423 
L 736.933442 370.352239 
L 743.727273 364.532916 
L 750.521104 277.243399 
L 757.314935 277.243399 
L 764.108766 362.787141 
L 784.49026 321.470101 
L 791.284091 362.787141 
L 798.077922 331.362918 
L 804.871753 364.532916 
L 832.047078 362.787141 
L 838.840909 324.961706 
L 845.63474 346.493114 
L 852.428571 406.4319 
L 859.222403 406.4319 
L 879.603896 419.816321 
L 886.397727 415.160829 
L 893.191558 390.137872 
L 899.98539 319.724326 
L 906.779221 390.137872 
L 927.160714 333.108692 
L 933.954545 390.137872 
" clip-path="url(#pbd52661cda)" style="fill: none; stroke: #d62728; stroke-width: 1.5; stroke-linecap: round"/>
   </g>
   <g id="line2d_37">
    <path d="M 173.045455 392.03108 
L 179.839286 391.134398 
L 186.633117 350.775783 
L 193.426948 330.969229 
L 213.808442 320.186408 
L 220.602273 297.683312 
L 227.396104 267.410961 
L 234.189935 259.322377 
L 240.983766 180.200516 
L 268.159091 170.799942 
L 274.952922 167.072438 
L 281.746753 188.969782 
L 288.540584 209.499497 
L 308.922078 205.90999 
L 315.715909 214.185673 
L 322.50974 222.557778 
L 329.303571 209.84748 
L 336.097403 191.643876 
L 356.478896 200.634568 
L 363.272727 225.427696 
L 370.066558 216.079416 
L 376.86039 187.963432 
L 383.654221 168.786028 
L 404.035714 170.037319 
L 410.829545 175.569555 
L 417.623377 173.716352 
L 424.417208 172.264977 
L 431.211039 188.336429 
L 451.592532 208.818359 
L 458.386364 197.263234 
L 465.180195 182.229863 
L 471.974026 181.867384 
L 478.767857 203.16041 
L 505.943182 205.04636 
L 512.737013 240.005497 
L 519.530844 247.782136 
L 526.324675 230.87169 
L 546.706169 247.735838 
L 553.5 243.745245 
L 560.293831 225.491576 
L 567.087662 222.636459 
L 573.881494 217.564715 
L 594.262987 204.510697 
L 601.056818 217.052744 
L 607.850649 204.841059 
L 614.644481 193.130498 
L 621.438312 229.155195 
L 641.819805 252.672001 
L 648.613636 285.114903 
L 655.407468 294.895892 
L 662.201299 336.721864 
L 668.99513 324.446812 
L 689.376623 330.259365 
L 696.170455 331.124778 
L 702.964286 310.642795 
L 709.758117 338.265296 
L 716.551948 347.735987 
L 736.933442 344.492457 
L 743.727273 332.160023 
L 750.521104 330.665558 
L 757.314935 311.800005 
L 764.108766 304.910364 
L 784.49026 290.906308 
L 791.284091 307.360947 
L 798.077922 320.192706 
L 804.871753 335.13813 
L 832.047078 328.746997 
L 838.840909 321.528026 
L 845.63474 312.972231 
L 852.428571 377.235025 
L 859.222403 380.786953 
L 879.603896 388.394619 
L 886.397727 374.265845 
L 893.191558 364.997603 
L 899.98539 348.621254 
L 906.779221 362.954451 
L 927.160714 359.224738 
L 933.954545 362.721473 
" clip-path="url(#pbd52661cda)" style="fill: none; stroke: #9467bd; stroke-width: 1.5; stroke-linecap: round"/>
   </g>
   <g id="line2d_38">
    <path d="M 173.045455 422.609561 
L 179.839286 415.626395 
L 186.633117 346.958657 
L 193.426948 325.427217 
L 213.808442 344.165384 
L 220.602273 318.67685 
L 227.396104 284.808509 
L 234.189935 272.238819 
L 240.983766 184.949336 
L 268.159091 141.537332 
L 274.952922 106.854292 
L 281.746753 196.820682 
L 288.540584 180.643021 
L 308.922078 176.802283 
L 315.715909 193.911042 
L 322.50974 192.5144 
L 329.303571 192.5144 
L 336.097403 178.66448 
L 356.478896 169.819139 
L 363.272727 207.179042 
L 370.066558 202.989149 
L 376.86039 162.603207 
L 383.654221 147.007479 
L 404.035714 106.854292 
L 410.829545 180.759421 
L 417.623377 170.401072 
L 424.417208 127.803767 
L 431.211039 182.27244 
L 451.592532 176.918672 
L 458.386364 174.707353 
L 465.180195 165.629247 
L 471.974026 182.737984 
L 478.767857 176.802283 
L 505.943182 176.802283 
L 512.737013 239.650742 
L 519.530844 239.650742 
L 526.324675 236.391936 
L 546.706169 239.650742 
L 553.5 239.650742 
L 560.293831 192.5144 
L 567.087662 192.5144 
L 573.881494 202.989149 
L 594.262987 172.72879 
L 601.056818 189.371973 
L 607.850649 178.897235 
L 614.644481 180.177499 
L 621.438312 236.391936 
L 641.819805 239.650742 
L 648.613636 288.532858 
L 655.407468 295.399646 
L 662.201299 354.523722 
L 668.99513 313.672237 
L 689.376623 336.25112 
L 696.170455 330.082664 
L 702.964286 334.621734 
L 709.758117 335.320044 
L 716.551948 343.699852 
L 736.933442 336.483909 
L 743.727273 333.225092 
L 750.521104 316.581887 
L 757.314935 346.027559 
L 764.108766 313.323093 
L 784.49026 287.136227 
L 791.284091 317.047442 
L 798.077922 344.165384 
L 804.871753 326.125549 
L 832.047078 323.681431 
L 838.840909 344.165384 
L 845.63474 336.833064 
L 852.428571 367.3262 
L 859.222403 385.01687 
L 879.603896 408.526841 
L 886.397727 375.938752 
L 893.191558 363.252685 
L 899.98539 341.6049 
L 906.779221 374.192977 
L 927.160714 360.110279 
L 933.954545 378.382881 
" clip-path="url(#pbd52661cda)" style="fill: none; stroke: #8c564b; stroke-width: 1.5; stroke-linecap: round"/>
   </g>
   <g id="line2d_39">
    <path d="M 173.045455 391.038147 
L 179.839286 385.122092 
L 186.633117 361.848684 
L 193.426948 338.20905 
L 213.808442 336.059921 
L 220.602273 320.128679 
L 227.396104 312.930195 
L 234.189935 278.668068 
L 240.983766 209.366574 
L 268.159091 200.743089 
L 274.952922 175.108276 
L 281.746753 171.48542 
L 288.540584 209.366574 
L 308.922078 209.366574 
L 315.715909 209.366574 
L 322.50974 224.765821 
L 329.303571 209.366574 
L 336.097403 210.512924 
L 356.478896 184.877778 
L 363.272727 224.765821 
L 370.066558 209.366574 
L 376.86039 209.366574 
L 383.654221 168.94154 
L 404.035714 167.795191 
L 410.829545 181.196317 
L 417.623377 175.108276 
L 424.417208 165.397379 
L 431.211039 171.48542 
L 451.592532 222.639502 
L 458.386364 222.639502 
L 465.180195 184.877778 
L 471.974026 198.150483 
L 478.767857 198.150483 
L 505.943182 209.366574 
L 512.737013 225.761995 
L 519.530844 232.866189 
L 526.324675 225.761995 
L 546.706169 232.866189 
L 553.5 246.139172 
L 560.293831 239.034978 
L 567.087662 222.639502 
L 573.881494 222.639502 
L 594.262987 222.639502 
L 601.056818 222.639502 
L 607.850649 209.366574 
L 614.644481 222.639502 
L 621.438312 224.765821 
L 641.819805 235.27732 
L 648.613636 312.941572 
L 655.407468 318.516985 
L 662.201299 341.572345 
L 668.99513 337.390966 
L 689.376623 336.244671 
L 696.170455 340.779402 
L 702.964286 336.059921 
L 709.758117 340.779402 
L 716.551948 341.572345 
L 736.933442 355.007935 
L 743.727273 354.237135 
L 750.521104 349.332904 
L 757.314935 349.332904 
L 764.108766 348.316307 
L 784.49026 343.505312 
L 791.284091 348.618822 
L 798.077922 348.618822 
L 804.871753 340.964152 
L 832.047078 349.332904 
L 838.840909 336.059921 
L 845.63474 336.059921 
L 852.428571 373.796228 
L 859.222403 376.167955 
L 879.603896 386.268387 
L 886.397727 376.182773 
L 893.191558 375.021661 
L 899.98539 362.980161 
L 906.779221 368.19573 
L 927.160714 375.106849 
L 933.954545 374.006118 
" clip-path="url(#pbd52661cda)" style="fill: none; stroke: #e377c2; stroke-width: 1.5; stroke-linecap: round"/>
   </g>
   <g id="line2d_40">
    <path d="M 173.045455 399.80469 
L 179.839286 398.584947 
L 186.633117 351.913638 
L 193.426948 331.059852 
L 213.808442 318.934473 
L 220.602273 294.473773 
L 227.396104 262.797913 
L 234.189935 255.600036 
L 240.983766 172.667621 
L 268.159091 163.713743 
L 274.952922 159.334408 
L 281.746753 183.322052 
L 288.540584 205.034553 
L 308.922078 200.516155 
L 315.715909 208.566214 
L 322.50974 217.560872 
L 329.303571 203.453138 
L 336.097403 185.488576 
L 356.478896 195.042488 
L 363.272727 220.115342 
L 370.066558 210.237183 
L 376.86039 181.212487 
L 383.654221 162.758078 
L 404.035714 162.840922 
L 410.829545 168.910957 
L 417.623377 167.349784 
L 424.417208 165.491142 
L 431.211039 182.488927 
L 451.592532 203.486868 
L 458.386364 191.933829 
L 465.180195 175.196912 
L 471.974026 175.629174 
L 478.767857 197.854523 
L 505.943182 200.258598 
L 512.737013 236.038225 
L 519.530844 244.315068 
L 526.324675 226.240015 
L 546.706169 244.129682 
L 553.5 240.183252 
L 560.293831 220.560676 
L 567.087662 217.948689 
L 573.881494 212.117858 
L 594.262987 198.849121 
L 601.056818 212.285534 
L 607.850649 199.650147 
L 614.644481 187.420153 
L 621.438312 224.227838 
L 641.819805 249.276703 
L 648.613636 282.925408 
L 655.407468 293.563334 
L 662.201299 337.574367 
L 668.99513 325.126415 
L 689.376623 329.636309 
L 696.170455 330.686671 
L 702.964286 309.626528 
L 709.758117 339.226123 
L 716.551948 349.679938 
L 736.933442 346.185247 
L 743.727273 331.613743 
L 750.521104 330.748502 
L 757.314935 310.65611 
L 764.108766 303.354237 
L 784.49026 288.839211 
L 791.284091 305.537794 
L 798.077922 318.362997 
L 804.871753 335.451236 
L 832.047078 328.491758 
L 838.840909 320.109989 
L 845.63474 310.936429 
L 852.428571 383.227358 
L 859.222403 387.132248 
L 879.603896 396.48286 
L 886.397727 379.626155 
L 893.191558 368.729237 
L 899.98539 350.680919 
L 906.779221 366.493327 
L 927.160714 362.157962 
L 933.954545 365.419669 
" clip-path="url(#pbd52661cda)" style="fill: none; stroke: #7f7f7f; stroke-width: 1.5; stroke-linecap: round"/>
   </g>
   <g id="line2d_41">
    <path d="M 173.045455 374.434084 
L 179.839286 373.575412 
L 186.633117 337.080925 
L 193.426948 319.907072 
L 213.808442 311.749462 
L 220.602273 293.287581 
L 227.396104 268.385475 
L 234.189935 261.94525 
L 240.983766 197.972599 
L 268.159091 189.814988 
L 274.952922 187.238931 
L 281.746753 206.130209 
L 288.540584 221.586635 
L 308.922078 219.010578 
L 315.715909 226.309475 
L 322.50974 232.74966 
L 329.303571 222.445349 
L 336.097403 207.418197 
L 356.478896 215.146451 
L 363.272727 235.325758 
L 370.066558 227.597545 
L 376.86039 203.983427 
L 383.654221 188.097644 
L 404.035714 189.814988 
L 410.829545 194.108472 
L 417.623377 192.391128 
L 424.417208 191.961771 
L 431.211039 205.271496 
L 451.592532 221.586635 
L 458.386364 211.711681 
L 465.180195 199.689943 
L 471.974026 199.260668 
L 478.767857 216.863877 
L 505.943182 218.151865 
L 512.737013 246.918139 
L 519.530844 252.49961 
L 526.324675 239.189885 
L 546.706169 252.49961 
L 553.5 249.494196 
L 560.293831 234.467086 
L 567.087662 232.320303 
L 573.881494 228.456176 
L 594.262987 218.151865 
L 601.056818 228.456176 
L 607.850649 218.151865 
L 614.644481 208.27691 
L 621.438312 238.760529 
L 641.819805 256.793094 
L 648.613636 282.983229 
L 655.407468 291.140839 
L 662.201299 325.488585 
L 668.99513 314.32556 
L 689.376623 320.336429 
L 696.170455 321.195101 
L 702.964286 303.591892 
L 709.758117 327.20597 
L 716.551948 335.363539 
L 736.933442 331.499412 
L 743.727273 322.053814 
L 750.521104 320.336429 
L 757.314935 304.450565 
L 764.108766 299.298409 
L 784.49026 287.276712 
L 791.284091 301.445151 
L 798.077922 312.608175 
L 804.871753 324.200515 
L 832.047078 319.048359 
L 838.840909 313.037532 
L 845.63474 305.738634 
L 852.428571 362.412387 
L 859.222403 364.559129 
L 879.603896 371.42867 
L 886.397727 358.118904 
L 893.191558 349.961334 
L 899.98539 335.363539 
L 906.779221 348.673306 
L 927.160714 345.238535 
L 933.954545 348.673306 
" clip-path="url(#pbd52661cda)" style="fill: none; stroke: #bcbd22; stroke-width: 1.5; stroke-linecap: round"/>
   </g>
   <g id="line2d_42">
    <path d="M 179.839286 492.48 
L 186.633117 412.514668 
L 193.426948 397.017747 
L 213.808442 355.79988 
L 220.602273 326.516349 
L 227.396104 288.576701 
L 234.189935 270.459313 
L 240.983766 110.00076 
L 268.159091 117.513191 
L 274.952922 143.745932 
L 281.746753 161.052283 
L 288.540584 213.469814 
L 308.922078 207.905334 
L 315.715909 202.452403 
L 322.50974 224.465637 
L 329.303571 207.302412 
L 336.097403 150.008233 
L 356.478896 181.725094 
L 363.272727 239.831529 
L 370.066558 204.104776 
L 376.86039 179.326062 
L 383.654221 142.187793 
L 404.035714 141.941607 
L 410.829545 170.703132 
L 417.623377 154.935273 
L 424.417208 137.359649 
L 431.211039 161.01732 
L 451.592532 199.844701 
L 458.386364 187.951433 
L 465.180195 166.277898 
L 471.974026 167.390616 
L 478.767857 208.943575 
L 505.943182 199.313482 
L 512.737013 233.825014 
L 519.530844 274.083945 
L 526.324675 226.756283 
L 546.706169 262.061147 
L 553.5 250.560133 
L 560.293831 237.733625 
L 567.087662 229.407327 
L 573.881494 210.935369 
L 594.262987 187.09822 
L 601.056818 208.895736 
L 607.850649 196.116179 
L 614.644481 193.622801 
L 621.438312 225.165456 
L 641.819805 268.601434 
L 648.613636 300.621809 
L 655.407468 302.628476 
L 662.201299 398.519611 
L 668.99513 373.835686 
L 689.376623 369.024247 
L 696.170455 371.780293 
L 702.964286 350.898813 
L 709.758117 392.234667 
L 716.551948 387.823529 
L 736.933442 416.639663 
L 743.727273 376.157688 
L 750.521104 385.220766 
L 757.314935 352.322815 
L 764.108766 331.641846 
L 784.49026 325.654311 
L 791.284091 332.44034 
L 798.077922 353.112484 
L 804.871753 395.520266 
L 832.047078 367.836219 
L 838.840909 358.812045 
L 845.63474 367.757413 
L 852.428571 393.041318 
L 859.222403 421.353649 
L 879.603896 441.292675 
L 886.397727 428.504627 
L 893.191558 417.742502 
L 899.98539 387.090577 
L 906.779221 408.326074 
L 927.160714 402.126872 
L 933.954545 407.751734 
" clip-path="url(#pbd52661cda)" style="fill: none; stroke: #17becf; stroke-width: 1.5; stroke-linecap: round"/>
   </g>
   <g id="line2d_43">
    <path d="M 179.839286 429.539982 
L 186.633117 381.971018 
L 193.426948 352.249503 
L 213.808442 338.999773 
L 220.602273 317.077499 
L 227.396104 283.932364 
L 234.189935 264.490647 
L 240.983766 175.391201 
L 268.159091 158.804314 
L 274.952922 158.378873 
L 281.746753 171.542693 
L 288.540584 200.290454 
L 308.922078 201.399177 
L 315.715909 212.002135 
L 322.50974 221.434547 
L 329.303571 214.569213 
L 336.097403 181.926771 
L 356.478896 192.747944 
L 363.272727 226.861672 
L 370.066558 217.290073 
L 376.86039 186.367544 
L 383.654221 149.406644 
L 404.035714 158.284306 
L 410.829545 165.164402 
L 417.623377 158.597754 
L 424.417208 155.502343 
L 431.211039 173.600418 
L 451.592532 203.029795 
L 458.386364 188.581659 
L 465.180195 177.232486 
L 471.974026 171.154435 
L 478.767857 196.360366 
L 505.943182 195.359641 
L 512.737013 235.042067 
L 519.530844 247.460505 
L 526.324675 230.250163 
L 546.706169 247.629827 
L 553.5 240.286384 
L 560.293831 227.671098 
L 567.087662 220.301073 
L 573.881494 217.269484 
L 594.262987 198.566157 
L 601.056818 209.329835 
L 607.850649 197.622594 
L 614.644481 185.780495 
L 621.438312 224.993914 
L 641.819805 249.682279 
L 648.613636 288.246825 
L 655.407468 294.490147 
L 662.201299 352.99139 
L 668.99513 335.178071 
L 689.376623 351.105429 
L 696.170455 351.24001 
L 702.964286 321.941827 
L 709.758117 352.722894 
L 716.551948 363.130891 
L 736.933442 365.155372 
L 743.727273 354.265327 
L 750.521104 348.740195 
L 757.314935 324.968754 
L 764.108766 314.591448 
L 784.49026 299.140367 
L 791.284091 319.884325 
L 798.077922 339.676562 
L 804.871753 354.23153 
L 832.047078 346.241656 
L 838.840909 342.531781 
L 845.63474 333.830045 
L 852.428571 399.47161 
L 859.222403 406.61282 
L 879.603896 414.371604 
L 886.397727 400.543704 
L 893.191558 390.19176 
L 899.98539 368.684993 
L 906.779221 385.210832 
L 927.160714 383.283748 
L 933.954545 391.121893 
" clip-path="url(#pbd52661cda)" style="fill: none; stroke: #1f77b4; stroke-width: 1.5; stroke-linecap: round"/>
   </g>
   <g id="line2d_44">
    <path d="M 173.045455 404.686125 
L 179.839286 355.222043 
L 186.633117 331.944861 
L 193.426948 320.888158 
L 213.808442 295.865201 
L 220.602273 262.113259 
L 227.396104 253.384274 
L 234.189935 166.6767 
L 240.983766 155.619997 
L 268.159091 152.128448 
L 274.952922 177.733404 
L 281.746753 198.682812 
L 288.540584 195.191263 
L 308.922078 205.084079 
L 315.715909 213.813008 
L 322.50974 199.846699 
L 329.303571 179.479123 
L 336.097403 189.953883 
L 356.478896 217.304613 
L 363.272727 206.829909 
L 370.066558 174.823686 
L 376.86039 153.292334 
L 383.654221 155.619997 
L 404.035714 161.439321 
L 410.829545 159.111658 
L 417.623377 158.529714 
L 424.417208 176.569517 
L 431.211039 198.682812 
L 451.592532 185.298446 
L 458.386364 169.004363 
L 465.180195 168.422531 
L 471.974026 192.281656 
L 478.767857 194.027376 
L 505.943182 233.016753 
L 512.737013 240.581796 
L 519.530844 222.541993 
L 526.324675 240.581796 
L 546.706169 236.508303 
L 553.5 216.140782 
L 560.293831 213.231065 
L 567.087662 207.993685 
L 573.881494 194.027376 
L 594.262987 207.993685 
L 601.056818 194.027376 
L 607.850649 180.64301 
L 614.644481 221.96005 
L 621.438312 246.401119 
L 641.819805 281.898836 
L 648.613636 292.955539 
L 655.407468 339.509959 
L 662.201299 324.379763 
L 668.99513 332.526804 
L 689.376623 333.690636 
L 696.170455 309.83151 
L 702.964286 341.837677 
L 709.758117 352.894325 
L 716.551948 347.656945 
L 736.933442 334.854523 
L 743.727273 332.526804 
L 750.521104 310.995341 
L 757.314935 304.012187 
L 764.108766 287.718159 
L 784.49026 306.921848 
L 791.284091 322.052045 
L 798.077922 337.764129 
L 804.871753 330.780974 
L 832.047078 322.633988 
L 838.840909 312.741172 
L 845.63474 389.555929 
L 852.428571 392.46559 
L 859.222403 401.776463 
L 879.603896 383.736605 
L 886.397727 372.679958 
L 893.191558 352.894325 
L 899.98539 370.934183 
L 906.779221 366.278746 
L 927.160714 370.934183 
L 933.954545 398.866802 
" clip-path="url(#pbd52661cda)" style="fill: none; stroke: #000000; stroke-width: 2; stroke-linecap: round"/>
   </g>
   <g id="patch_3">
    <path d="M 135 512.64 
L 135 69.12 
" style="fill: none; stroke: #cccccc; stroke-linejoin: miter; stroke-linecap: square"/>
   </g>
   <g id="patch_4">
    <path d="M 972 512.64 
L 972 69.12 
" style="fill: none; stroke: #cccccc; stroke-linejoin: miter; stroke-linecap: square"/>
   </g>
   <g id="patch_5">
    <path d="M 135 512.64 
L 972 512.64 
" style="fill: none; stroke: #cccccc; stroke-linejoin: miter; stroke-linecap: square"/>
   </g>
   <g id="patch_6">
    <path d="M 135 69.12 
L 972 69.12 
" style="fill: none; stroke: #cccccc; stroke-linejoin: miter; stroke-linecap: square"/>
   </g>
   <g id="text_19">
    <!-- Tahminler ve Gerçek Değerler -->
    <g style="fill: #262626" transform="translate(473.811563 63.12) scale(0.12 -0.12)">
     <defs>
      <path id="ArialMT-54" d="M 1659 0 
L 1659 4041 
L 150 4041 
L 150 4581 
L 3781 4581 
L 3781 4041 
L 2266 4041 
L 2266 0 
L 1659 0 
z
" transform="scale(0.015625)"/>
      <path id="ArialMT-68" d="M 422 0 
L 422 4581 
L 984 4581 
L 984 2938 
Q 1378 3394 1978 3394 
Q 2347 3394 2619 3248 
Q 2891 3103 3008 2847 
Q 3125 2591 3125 2103 
L 3125 0 
L 2563 0 
L 2563 2103 
Q 2563 2525 2380 2717 
Q 2197 2909 1863 2909 
Q 1613 2909 1392 2779 
Q 1172 2650 1078 2428 
Q 984 2206 984 1816 
L 984 0 
L 422 0 
z
" transform="scale(0.015625)"/>
      <path id="ArialMT-6d" d="M 422 0 
L 422 3319 
L 925 3319 
L 925 2853 
Q 1081 3097 1340 3245 
Q 1600 3394 1931 3394 
Q 2300 3394 2536 3241 
Q 2772 3088 2869 2813 
Q 3263 3394 3894 3394 
Q 4388 3394 4653 3120 
Q 4919 2847 4919 2278 
L 4919 0 
L 4359 0 
L 4359 2091 
Q 4359 2428 4304 2576 
Q 4250 2725 4106 2815 
Q 3963 2906 3769 2906 
Q 3419 2906 3187 2673 
Q 2956 2441 2956 1928 
L 2956 0 
L 2394 0 
L 2394 2156 
Q 2394 2531 2256 2718 
Q 2119 2906 1806 2906 
Q 1569 2906 1367 2781 
Q 1166 2656 1075 2415 
Q 984 2175 984 1722 
L 984 0 
L 422 0 
z
" transform="scale(0.015625)"/>
      <path id="ArialMT-69" d="M 425 3934 
L 425 4581 
L 988 4581 
L 988 3934 
L 425 3934 
z
M 425 0 
L 425 3319 
L 988 3319 
L 988 0 
L 425 0 
z
" transform="scale(0.015625)"/>
      <path id="ArialMT-6e" d="M 422 0 
L 422 3319 
L 928 3319 
L 928 2847 
Q 1294 3394 1984 3394 
Q 2284 3394 2536 3286 
Q 2788 3178 2913 3003 
Q 3038 2828 3088 2588 
Q 3119 2431 3119 2041 
L 3119 0 
L 2556 0 
L 2556 2019 
Q 2556 2363 2490 2533 
Q 2425 2703 2258 2804 
Q 2091 2906 1866 2906 
Q 1506 2906 1245 2678 
Q 984 2450 984 1813 
L 984 0 
L 422 0 
z
" transform="scale(0.015625)"/>
      <path id="ArialMT-72" d="M 416 0 
L 416 3319 
L 922 3319 
L 922 2816 
Q 1116 3169 1280 3281 
Q 1444 3394 1641 3394 
Q 1925 3394 2219 3213 
L 2025 2691 
Q 1819 2813 1613 2813 
Q 1428 2813 1281 2702 
Q 1134 2591 1072 2394 
Q 978 2094 978 1738 
L 978 0 
L 416 0 
z
" transform="scale(0.015625)"/>
      <path id="ArialMT-76" d="M 1344 0 
L 81 3319 
L 675 3319 
L 1388 1331 
Q 1503 1009 1600 663 
Q 1675 925 1809 1294 
L 2547 3319 
L 3125 3319 
L 1869 0 
L 1344 0 
z
" transform="scale(0.015625)"/>
      <path id="ArialMT-47" d="M 2638 1797 
L 2638 2334 
L 4578 2338 
L 4578 638 
Q 4131 281 3656 101 
Q 3181 -78 2681 -78 
Q 2006 -78 1454 211 
Q 903 500 622 1047 
Q 341 1594 341 2269 
Q 341 2938 620 3517 
Q 900 4097 1425 4378 
Q 1950 4659 2634 4659 
Q 3131 4659 3532 4498 
Q 3934 4338 4162 4050 
Q 4391 3763 4509 3300 
L 3963 3150 
Q 3859 3500 3706 3700 
Q 3553 3900 3268 4020 
Q 2984 4141 2638 4141 
Q 2222 4141 1919 4014 
Q 1616 3888 1430 3681 
Q 1244 3475 1141 3228 
Q 966 2803 966 2306 
Q 966 1694 1177 1281 
Q 1388 869 1791 669 
Q 2194 469 2647 469 
Q 3041 469 3416 620 
Q 3791 772 3984 944 
L 3984 1797 
L 2638 1797 
z
" transform="scale(0.015625)"/>
      <path id="ArialMT-e7" d="M 2588 1216 
L 3141 1144 
Q 3050 572 2676 248 
Q 2303 -75 1759 -75 
Q 1078 -75 664 370 
Q 250 816 250 1647 
Q 250 2184 428 2587 
Q 606 2991 970 3192 
Q 1334 3394 1763 3394 
Q 2303 3394 2647 3120 
Q 2991 2847 3088 2344 
L 2541 2259 
Q 2463 2594 2264 2762 
Q 2066 2931 1784 2931 
Q 1359 2931 1093 2626 
Q 828 2322 828 1663 
Q 828 994 1084 691 
Q 1341 388 1753 388 
Q 2084 388 2306 591 
Q 2528 794 2588 1216 
z
M 1283 -417 
L 1446 136 
L 1864 136 
L 1761 -199 
Q 2027 -230 2161 -362 
Q 2296 -495 2296 -658 
Q 2296 -892 2071 -1072 
Q 1846 -1252 1392 -1252 
Q 1136 -1252 942 -1214 
L 977 -849 
Q 1177 -861 1271 -861 
Q 1564 -861 1683 -780 
Q 1774 -717 1774 -627 
Q 1774 -570 1738 -526 
Q 1702 -483 1605 -451 
Q 1508 -420 1283 -417 
z
" transform="scale(0.015625)"/>
      <path id="ArialMT-6b" d="M 425 0 
L 425 4581 
L 988 4581 
L 988 1969 
L 2319 3319 
L 3047 3319 
L 1778 2088 
L 3175 0 
L 2481 0 
L 1384 1697 
L 988 1316 
L 988 0 
L 425 0 
z
" transform="scale(0.015625)"/>
      <path id="ArialMT-11f" d="M 319 -275 
L 866 -356 
Q 900 -609 1056 -725 
Q 1266 -881 1628 -881 
Q 2019 -881 2231 -725 
Q 2444 -569 2519 -288 
Q 2563 -116 2559 434 
Q 2191 0 1641 0 
Q 956 0 581 494 
Q 206 988 206 1678 
Q 206 2153 378 2554 
Q 550 2956 876 3175 
Q 1203 3394 1644 3394 
Q 2231 3394 2613 2919 
L 2613 3319 
L 3131 3319 
L 3131 450 
Q 3131 -325 2973 -648 
Q 2816 -972 2473 -1159 
Q 2131 -1347 1631 -1347 
Q 1038 -1347 672 -1080 
Q 306 -813 319 -275 
z
M 784 1719 
Q 784 1066 1043 766 
Q 1303 466 1694 466 
Q 2081 466 2343 764 
Q 2606 1063 2606 1700 
Q 2606 2309 2336 2618 
Q 2066 2928 1684 2928 
Q 1309 2928 1046 2623 
Q 784 2319 784 1719 
z
M 2318 4575 
L 2703 4575 
Q 2656 4184 2417 3975 
Q 2178 3766 1781 3766 
Q 1381 3766 1142 3973 
Q 903 4181 856 4575 
L 1240 4575 
Q 1284 4363 1413 4258 
Q 1543 4153 1762 4153 
Q 2015 4153 2145 4254 
Q 2275 4356 2318 4575 
z
" transform="scale(0.015625)"/>
     </defs>
     <use xlink:href="#ArialMT-54"/>
     <use xlink:href="#ArialMT-61" x="49.958984"/>
     <use xlink:href="#ArialMT-68" x="105.574219"/>
     <use xlink:href="#ArialMT-6d" x="161.189453"/>
     <use xlink:href="#ArialMT-69" x="244.490234"/>
     <use xlink:href="#ArialMT-6e" x="266.707031"/>
     <use xlink:href="#ArialMT-6c" x="322.322266"/>
     <use xlink:href="#ArialMT-65" x="344.539062"/>
     <use xlink:href="#ArialMT-72" x="400.154297"/>
     <use xlink:href="#ArialMT-20" x="433.455078"/>
     <use xlink:href="#ArialMT-76" x="461.238281"/>
     <use xlink:href="#ArialMT-65" x="511.238281"/>
     <use xlink:href="#ArialMT-20" x="566.853516"/>
     <use xlink:href="#ArialMT-47" x="594.636719"/>
     <use xlink:href="#ArialMT-65" x="672.419922"/>
     <use xlink:href="#ArialMT-72" x="728.035156"/>
     <use xlink:href="#ArialMT-e7" x="761.335938"/>
     <use xlink:href="#ArialMT-65" x="811.335938"/>
     <use xlink:href="#ArialMT-6b" x="866.951172"/>
     <use xlink:href="#ArialMT-20" x="916.951172"/>
     <use xlink:href="#ArialMT-44" x="944.734375"/>
     <use xlink:href="#ArialMT-65" x="1016.951172"/>
     <use xlink:href="#ArialMT-11f" x="1072.566406"/>
     <use xlink:href="#ArialMT-65" x="1128.181641"/>
     <use xlink:href="#ArialMT-72" x="1183.796875"/>
     <use xlink:href="#ArialMT-6c" x="1217.097656"/>
     <use xlink:href="#ArialMT-65" x="1239.314453"/>
     <use xlink:href="#ArialMT-72" x="1294.929688"/>
    </g>
   </g>
   <g id="legend_1">
    <g id="line2d_45">
     <path d="M 841.63125 81.777813 
L 851.63125 81.777813 
L 861.63125 81.777813 
" style="fill: none; stroke: #1f77b4; stroke-width: 1.5; stroke-linecap: round"/>
    </g>
    <g id="text_20">
     <!-- Random Forest -->
     <g style="fill: #262626" transform="translate(869.63125 85.277813) scale(0.1 -0.1)">
      <defs>
       <path id="ArialMT-52" d="M 503 0 
L 503 4581 
L 2534 4581 
Q 3147 4581 3465 4457 
Q 3784 4334 3975 4021 
Q 4166 3709 4166 3331 
Q 4166 2844 3850 2509 
Q 3534 2175 2875 2084 
Q 3116 1969 3241 1856 
Q 3506 1613 3744 1247 
L 4541 0 
L 3778 0 
L 3172 953 
Q 2906 1366 2734 1584 
Q 2563 1803 2427 1890 
Q 2291 1978 2150 2013 
Q 2047 2034 1813 2034 
L 1109 2034 
L 1109 0 
L 503 0 
z
M 1109 2559 
L 2413 2559 
Q 2828 2559 3062 2645 
Q 3297 2731 3419 2920 
Q 3541 3109 3541 3331 
Q 3541 3656 3305 3865 
Q 3069 4075 2559 4075 
L 1109 4075 
L 1109 2559 
z
" transform="scale(0.015625)"/>
       <path id="ArialMT-46" d="M 525 0 
L 525 4581 
L 3616 4581 
L 3616 4041 
L 1131 4041 
L 1131 2622 
L 3281 2622 
L 3281 2081 
L 1131 2081 
L 1131 0 
L 525 0 
z
" transform="scale(0.015625)"/>
      </defs>
      <use xlink:href="#ArialMT-52"/>
      <use xlink:href="#ArialMT-61" x="72.216797"/>
      <use xlink:href="#ArialMT-6e" x="127.832031"/>
      <use xlink:href="#ArialMT-64" x="183.447266"/>
      <use xlink:href="#ArialMT-6f" x="239.0625"/>
      <use xlink:href="#ArialMT-6d" x="294.677734"/>
      <use xlink:href="#ArialMT-20" x="377.978516"/>
      <use xlink:href="#ArialMT-46" x="405.761719"/>
      <use xlink:href="#ArialMT-6f" x="466.845703"/>
      <use xlink:href="#ArialMT-72" x="522.460938"/>
      <use xlink:href="#ArialMT-65" x="555.761719"/>
      <use xlink:href="#ArialMT-73" x="611.376953"/>
      <use xlink:href="#ArialMT-74" x="661.376953"/>
     </g>
    </g>
    <g id="line2d_46">
     <path d="M 841.63125 96.045 
L 851.63125 96.045 
L 861.63125 96.045 
" style="fill: none; stroke: #ff7f0e; stroke-width: 1.5; stroke-linecap: round"/>
    </g>
    <g id="text_21">
     <!-- Gradient Boosting -->
     <g style="fill: #262626" transform="translate(869.63125 99.545) scale(0.1 -0.1)">
      <defs>
       <path id="ArialMT-42" d="M 469 0 
L 469 4581 
L 2188 4581 
Q 2713 4581 3030 4442 
Q 3347 4303 3526 4014 
Q 3706 3725 3706 3409 
Q 3706 3116 3547 2856 
Q 3388 2597 3066 2438 
Q 3481 2316 3704 2022 
Q 3928 1728 3928 1328 
Q 3928 1006 3792 729 
Q 3656 453 3456 303 
Q 3256 153 2954 76 
Q 2653 0 2216 0 
L 469 0 
z
M 1075 2656 
L 2066 2656 
Q 2469 2656 2644 2709 
Q 2875 2778 2992 2937 
Q 3109 3097 3109 3338 
Q 3109 3566 3000 3739 
Q 2891 3913 2687 3977 
Q 2484 4041 1991 4041 
L 1075 4041 
L 1075 2656 
z
M 1075 541 
L 2216 541 
Q 2509 541 2628 563 
Q 2838 600 2978 687 
Q 3119 775 3209 942 
Q 3300 1109 3300 1328 
Q 3300 1584 3169 1773 
Q 3038 1963 2805 2039 
Q 2572 2116 2134 2116 
L 1075 2116 
L 1075 541 
z
" transform="scale(0.015625)"/>
       <path id="ArialMT-67" d="M 319 -275 
L 866 -356 
Q 900 -609 1056 -725 
Q 1266 -881 1628 -881 
Q 2019 -881 2231 -725 
Q 2444 -569 2519 -288 
Q 2563 -116 2559 434 
Q 2191 0 1641 0 
Q 956 0 581 494 
Q 206 988 206 1678 
Q 206 2153 378 2554 
Q 550 2956 876 3175 
Q 1203 3394 1644 3394 
Q 2231 3394 2613 2919 
L 2613 3319 
L 3131 3319 
L 3131 450 
Q 3131 -325 2973 -648 
Q 2816 -972 2473 -1159 
Q 2131 -1347 1631 -1347 
Q 1038 -1347 672 -1080 
Q 306 -813 319 -275 
z
M 784 1719 
Q 784 1066 1043 766 
Q 1303 466 1694 466 
Q 2081 466 2343 764 
Q 2606 1063 2606 1700 
Q 2606 2309 2336 2618 
Q 2066 2928 1684 2928 
Q 1309 2928 1046 2623 
Q 784 2319 784 1719 
z
" transform="scale(0.015625)"/>
      </defs>
      <use xlink:href="#ArialMT-47"/>
      <use xlink:href="#ArialMT-72" x="77.783203"/>
      <use xlink:href="#ArialMT-61" x="111.083984"/>
      <use xlink:href="#ArialMT-64" x="166.699219"/>
      <use xlink:href="#ArialMT-69" x="222.314453"/>
      <use xlink:href="#ArialMT-65" x="244.53125"/>
      <use xlink:href="#ArialMT-6e" x="300.146484"/>
      <use xlink:href="#ArialMT-74" x="355.761719"/>
      <use xlink:href="#ArialMT-20" x="383.544922"/>
      <use xlink:href="#ArialMT-42" x="411.328125"/>
      <use xlink:href="#ArialMT-6f" x="478.027344"/>
      <use xlink:href="#ArialMT-6f" x="533.642578"/>
      <use xlink:href="#ArialMT-73" x="589.257812"/>
      <use xlink:href="#ArialMT-74" x="639.257812"/>
      <use xlink:href="#ArialMT-69" x="667.041016"/>
      <use xlink:href="#ArialMT-6e" x="689.257812"/>
      <use xlink:href="#ArialMT-67" x="744.873047"/>
     </g>
    </g>
    <g id="line2d_47">
     <path d="M 841.63125 110.3075 
L 851.63125 110.3075 
L 861.63125 110.3075 
" style="fill: none; stroke: #2ca02c; stroke-width: 1.5; stroke-linecap: round"/>
    </g>
    <g id="text_22">
     <!-- Linear Regression -->
     <g style="fill: #262626" transform="translate(869.63125 113.8075) scale(0.1 -0.1)">
      <defs>
       <path id="ArialMT-4c" d="M 469 0 
L 469 4581 
L 1075 4581 
L 1075 541 
L 3331 541 
L 3331 0 
L 469 0 
z
" transform="scale(0.015625)"/>
      </defs>
      <use xlink:href="#ArialMT-4c"/>
      <use xlink:href="#ArialMT-69" x="55.615234"/>
      <use xlink:href="#ArialMT-6e" x="77.832031"/>
      <use xlink:href="#ArialMT-65" x="133.447266"/>
      <use xlink:href="#ArialMT-61" x="189.0625"/>
      <use xlink:href="#ArialMT-72" x="244.677734"/>
      <use xlink:href="#ArialMT-20" x="277.978516"/>
      <use xlink:href="#ArialMT-52" x="305.761719"/>
      <use xlink:href="#ArialMT-65" x="377.978516"/>
      <use xlink:href="#ArialMT-67" x="433.59375"/>
      <use xlink:href="#ArialMT-72" x="489.208984"/>
      <use xlink:href="#ArialMT-65" x="522.509766"/>
      <use xlink:href="#ArialMT-73" x="578.125"/>
      <use xlink:href="#ArialMT-73" x="628.125"/>
      <use xlink:href="#ArialMT-69" x="678.125"/>
      <use xlink:href="#ArialMT-6f" x="700.341797"/>
      <use xlink:href="#ArialMT-6e" x="755.957031"/>
     </g>
    </g>
    <g id="line2d_48">
     <path d="M 841.63125 124.57 
L 851.63125 124.57 
L 861.63125 124.57 
" style="fill: none; stroke: #d62728; stroke-width: 1.5; stroke-linecap: round"/>
    </g>
    <g id="text_23">
     <!-- Decision Tree -->
     <g style="fill: #262626" transform="translate(869.63125 128.07) scale(0.1 -0.1)">
      <defs>
       <path id="ArialMT-63" d="M 2588 1216 
L 3141 1144 
Q 3050 572 2676 248 
Q 2303 -75 1759 -75 
Q 1078 -75 664 370 
Q 250 816 250 1647 
Q 250 2184 428 2587 
Q 606 2991 970 3192 
Q 1334 3394 1763 3394 
Q 2303 3394 2647 3120 
Q 2991 2847 3088 2344 
L 2541 2259 
Q 2463 2594 2264 2762 
Q 2066 2931 1784 2931 
Q 1359 2931 1093 2626 
Q 828 2322 828 1663 
Q 828 994 1084 691 
Q 1341 388 1753 388 
Q 2084 388 2306 591 
Q 2528 794 2588 1216 
z
" transform="scale(0.015625)"/>
      </defs>
      <use xlink:href="#ArialMT-44"/>
      <use xlink:href="#ArialMT-65" x="72.216797"/>
      <use xlink:href="#ArialMT-63" x="127.832031"/>
      <use xlink:href="#ArialMT-69" x="177.832031"/>
      <use xlink:href="#ArialMT-73" x="200.048828"/>
      <use xlink:href="#ArialMT-69" x="250.048828"/>
      <use xlink:href="#ArialMT-6f" x="272.265625"/>
      <use xlink:href="#ArialMT-6e" x="327.880859"/>
      <use xlink:href="#ArialMT-20" x="383.496094"/>
      <use xlink:href="#ArialMT-54" x="409.529297"/>
      <use xlink:href="#ArialMT-72" x="466.863281"/>
      <use xlink:href="#ArialMT-65" x="500.164062"/>
      <use xlink:href="#ArialMT-65" x="555.779297"/>
     </g>
    </g>
    <g id="line2d_49">
     <path d="M 841.63125 138.715313 
L 851.63125 138.715313 
L 861.63125 138.715313 
" style="fill: none; stroke: #9467bd; stroke-width: 1.5; stroke-linecap: round"/>
    </g>
    <g id="text_24">
     <!-- SVR -->
     <g style="fill: #262626" transform="translate(869.63125 142.215313) scale(0.1 -0.1)">
      <defs>
       <path id="ArialMT-53" d="M 288 1472 
L 859 1522 
Q 900 1178 1048 958 
Q 1197 738 1509 602 
Q 1822 466 2213 466 
Q 2559 466 2825 569 
Q 3091 672 3220 851 
Q 3350 1031 3350 1244 
Q 3350 1459 3225 1620 
Q 3100 1781 2813 1891 
Q 2628 1963 1997 2114 
Q 1366 2266 1113 2400 
Q 784 2572 623 2826 
Q 463 3081 463 3397 
Q 463 3744 659 4045 
Q 856 4347 1234 4503 
Q 1613 4659 2075 4659 
Q 2584 4659 2973 4495 
Q 3363 4331 3572 4012 
Q 3781 3694 3797 3291 
L 3216 3247 
Q 3169 3681 2898 3903 
Q 2628 4125 2100 4125 
Q 1550 4125 1298 3923 
Q 1047 3722 1047 3438 
Q 1047 3191 1225 3031 
Q 1400 2872 2139 2705 
Q 2878 2538 3153 2413 
Q 3553 2228 3743 1945 
Q 3934 1663 3934 1294 
Q 3934 928 3725 604 
Q 3516 281 3123 101 
Q 2731 -78 2241 -78 
Q 1619 -78 1198 103 
Q 778 284 539 648 
Q 300 1013 288 1472 
z
" transform="scale(0.015625)"/>
       <path id="ArialMT-56" d="M 1803 0 
L 28 4581 
L 684 4581 
L 1875 1253 
Q 2019 853 2116 503 
Q 2222 878 2363 1253 
L 3600 4581 
L 4219 4581 
L 2425 0 
L 1803 0 
z
" transform="scale(0.015625)"/>
      </defs>
      <use xlink:href="#ArialMT-53"/>
      <use xlink:href="#ArialMT-56" x="66.699219"/>
      <use xlink:href="#ArialMT-52" x="133.398438"/>
     </g>
    </g>
    <g id="line2d_50">
     <path d="M 841.63125 152.860625 
L 851.63125 152.860625 
L 861.63125 152.860625 
" style="fill: none; stroke: #8c564b; stroke-width: 1.5; stroke-linecap: round"/>
    </g>
    <g id="text_25">
     <!-- K-Nearest Neighbors -->
     <g style="fill: #262626" transform="translate(869.63125 156.360625) scale(0.1 -0.1)">
      <defs>
       <path id="ArialMT-4b" d="M 469 0 
L 469 4581 
L 1075 4581 
L 1075 2309 
L 3350 4581 
L 4172 4581 
L 2250 2725 
L 4256 0 
L 3456 0 
L 1825 2319 
L 1075 1588 
L 1075 0 
L 469 0 
z
" transform="scale(0.015625)"/>
       <path id="ArialMT-4e" d="M 488 0 
L 488 4581 
L 1109 4581 
L 3516 984 
L 3516 4581 
L 4097 4581 
L 4097 0 
L 3475 0 
L 1069 3600 
L 1069 0 
L 488 0 
z
" transform="scale(0.015625)"/>
       <path id="ArialMT-62" d="M 941 0 
L 419 0 
L 419 4581 
L 981 4581 
L 981 2947 
Q 1338 3394 1891 3394 
Q 2197 3394 2470 3270 
Q 2744 3147 2920 2923 
Q 3097 2700 3197 2384 
Q 3297 2069 3297 1709 
Q 3297 856 2875 390 
Q 2453 -75 1863 -75 
Q 1275 -75 941 416 
L 941 0 
z
M 934 1684 
Q 934 1088 1097 822 
Q 1363 388 1816 388 
Q 2184 388 2453 708 
Q 2722 1028 2722 1663 
Q 2722 2313 2464 2622 
Q 2206 2931 1841 2931 
Q 1472 2931 1203 2611 
Q 934 2291 934 1684 
z
" transform="scale(0.015625)"/>
      </defs>
      <use xlink:href="#ArialMT-4b"/>
      <use xlink:href="#ArialMT-2d" x="66.699219"/>
      <use xlink:href="#ArialMT-4e" x="100"/>
      <use xlink:href="#ArialMT-65" x="172.216797"/>
      <use xlink:href="#ArialMT-61" x="227.832031"/>
      <use xlink:href="#ArialMT-72" x="283.447266"/>
      <use xlink:href="#ArialMT-65" x="316.748047"/>
      <use xlink:href="#ArialMT-73" x="372.363281"/>
      <use xlink:href="#ArialMT-74" x="422.363281"/>
      <use xlink:href="#ArialMT-20" x="450.146484"/>
      <use xlink:href="#ArialMT-4e" x="477.929688"/>
      <use xlink:href="#ArialMT-65" x="550.146484"/>
      <use xlink:href="#ArialMT-69" x="605.761719"/>
      <use xlink:href="#ArialMT-67" x="627.978516"/>
      <use xlink:href="#ArialMT-68" x="683.59375"/>
      <use xlink:href="#ArialMT-62" x="739.208984"/>
      <use xlink:href="#ArialMT-6f" x="794.824219"/>
      <use xlink:href="#ArialMT-72" x="850.439453"/>
      <use xlink:href="#ArialMT-73" x="883.740234"/>
     </g>
    </g>
    <g id="line2d_51">
     <path d="M 841.63125 167.123125 
L 851.63125 167.123125 
L 861.63125 167.123125 
" style="fill: none; stroke: #e377c2; stroke-width: 1.5; stroke-linecap: round"/>
    </g>
    <g id="text_26">
     <!-- XGBoost -->
     <g style="fill: #262626" transform="translate(869.63125 170.623125) scale(0.1 -0.1)">
      <defs>
       <path id="ArialMT-58" d="M 28 0 
L 1800 2388 
L 238 4581 
L 959 4581 
L 1791 3406 
Q 2050 3041 2159 2844 
Q 2313 3094 2522 3366 
L 3444 4581 
L 4103 4581 
L 2494 2422 
L 4228 0 
L 3478 0 
L 2325 1634 
Q 2228 1775 2125 1941 
Q 1972 1691 1906 1597 
L 756 0 
L 28 0 
z
" transform="scale(0.015625)"/>
      </defs>
      <use xlink:href="#ArialMT-58"/>
      <use xlink:href="#ArialMT-47" x="66.699219"/>
      <use xlink:href="#ArialMT-42" x="144.482422"/>
      <use xlink:href="#ArialMT-6f" x="211.181641"/>
      <use xlink:href="#ArialMT-6f" x="266.796875"/>
      <use xlink:href="#ArialMT-73" x="322.412109"/>
      <use xlink:href="#ArialMT-74" x="372.412109"/>
     </g>
    </g>
    <g id="line2d_52">
     <path d="M 841.63125 181.268438 
L 851.63125 181.268438 
L 861.63125 181.268438 
" style="fill: none; stroke: #7f7f7f; stroke-width: 1.5; stroke-linecap: round"/>
    </g>
    <g id="text_27">
     <!-- Ridge Regression -->
     <g style="fill: #262626" transform="translate(869.63125 184.768438) scale(0.1 -0.1)">
      <use xlink:href="#ArialMT-52"/>
      <use xlink:href="#ArialMT-69" x="72.216797"/>
      <use xlink:href="#ArialMT-64" x="94.433594"/>
      <use xlink:href="#ArialMT-67" x="150.048828"/>
      <use xlink:href="#ArialMT-65" x="205.664062"/>
      <use xlink:href="#ArialMT-20" x="261.279297"/>
      <use xlink:href="#ArialMT-52" x="289.0625"/>
      <use xlink:href="#ArialMT-65" x="361.279297"/>
      <use xlink:href="#ArialMT-67" x="416.894531"/>
      <use xlink:href="#ArialMT-72" x="472.509766"/>
      <use xlink:href="#ArialMT-65" x="505.810547"/>
      <use xlink:href="#ArialMT-73" x="561.425781"/>
      <use xlink:href="#ArialMT-73" x="611.425781"/>
      <use xlink:href="#ArialMT-69" x="661.425781"/>
      <use xlink:href="#ArialMT-6f" x="683.642578"/>
      <use xlink:href="#ArialMT-6e" x="739.257812"/>
     </g>
    </g>
    <g id="line2d_53">
     <path d="M 841.63125 195.530938 
L 851.63125 195.530938 
L 861.63125 195.530938 
" style="fill: none; stroke: #bcbd22; stroke-width: 1.5; stroke-linecap: round"/>
    </g>
    <g id="text_28">
     <!-- ElasticNet -->
     <g style="fill: #262626" transform="translate(869.63125 199.030938) scale(0.1 -0.1)">
      <defs>
       <path id="ArialMT-45" d="M 506 0 
L 506 4581 
L 3819 4581 
L 3819 4041 
L 1113 4041 
L 1113 2638 
L 3647 2638 
L 3647 2100 
L 1113 2100 
L 1113 541 
L 3925 541 
L 3925 0 
L 506 0 
z
" transform="scale(0.015625)"/>
      </defs>
      <use xlink:href="#ArialMT-45"/>
      <use xlink:href="#ArialMT-6c" x="66.699219"/>
      <use xlink:href="#ArialMT-61" x="88.916016"/>
      <use xlink:href="#ArialMT-73" x="144.53125"/>
      <use xlink:href="#ArialMT-74" x="194.53125"/>
      <use xlink:href="#ArialMT-69" x="222.314453"/>
      <use xlink:href="#ArialMT-63" x="244.53125"/>
      <use xlink:href="#ArialMT-4e" x="294.53125"/>
      <use xlink:href="#ArialMT-65" x="366.748047"/>
      <use xlink:href="#ArialMT-74" x="422.363281"/>
     </g>
    </g>
    <g id="line2d_54">
     <path d="M 841.63125 209.67625 
L 851.63125 209.67625 
L 861.63125 209.67625 
" style="fill: none; stroke: #17becf; stroke-width: 1.5; stroke-linecap: round"/>
    </g>
    <g id="text_29">
     <!-- LSTM -->
     <g style="fill: #262626" transform="translate(869.63125 213.17625) scale(0.1 -0.1)">
      <defs>
       <path id="ArialMT-4d" d="M 475 0 
L 475 4581 
L 1388 4581 
L 2472 1338 
Q 2622 884 2691 659 
Q 2769 909 2934 1394 
L 4031 4581 
L 4847 4581 
L 4847 0 
L 4263 0 
L 4263 3834 
L 2931 0 
L 2384 0 
L 1059 3900 
L 1059 0 
L 475 0 
z
" transform="scale(0.015625)"/>
      </defs>
      <use xlink:href="#ArialMT-4c"/>
      <use xlink:href="#ArialMT-53" x="55.615234"/>
      <use xlink:href="#ArialMT-54" x="122.314453"/>
      <use xlink:href="#ArialMT-4d" x="183.398438"/>
     </g>
    </g>
    <g id="line2d_55">
     <path d="M 841.63125 223.821563 
L 851.63125 223.821563 
L 861.63125 223.821563 
" style="fill: none; stroke: #1f77b4; stroke-width: 1.5; stroke-linecap: round"/>
    </g>
    <g id="text_30">
     <!-- RNN -->
     <g style="fill: #262626" transform="translate(869.63125 227.321563) scale(0.1 -0.1)">
      <use xlink:href="#ArialMT-52"/>
      <use xlink:href="#ArialMT-4e" x="72.216797"/>
      <use xlink:href="#ArialMT-4e" x="144.433594"/>
     </g>
    </g>
    <g id="line2d_56">
     <path d="M 841.63125 238.08875 
L 851.63125 238.08875 
L 861.63125 238.08875 
" style="fill: none; stroke: #000000; stroke-width: 2; stroke-linecap: round"/>
    </g>
    <g id="text_31">
     <!-- Gerçek Değerler -->
     <g style="fill: #262626" transform="translate(869.63125 241.58875) scale(0.1 -0.1)">
      <use xlink:href="#ArialMT-47"/>
      <use xlink:href="#ArialMT-65" x="77.783203"/>
      <use xlink:href="#ArialMT-72" x="133.398438"/>
      <use xlink:href="#ArialMT-e7" x="166.699219"/>
      <use xlink:href="#ArialMT-65" x="216.699219"/>
      <use xlink:href="#ArialMT-6b" x="272.314453"/>
      <use xlink:href="#ArialMT-20" x="322.314453"/>
      <use xlink:href="#ArialMT-44" x="350.097656"/>
      <use xlink:href="#ArialMT-65" x="422.314453"/>
      <use xlink:href="#ArialMT-11f" x="477.929688"/>
      <use xlink:href="#ArialMT-65" x="533.544922"/>
      <use xlink:href="#ArialMT-72" x="589.160156"/>
      <use xlink:href="#ArialMT-6c" x="622.460938"/>
      <use xlink:href="#ArialMT-65" x="644.677734"/>
      <use xlink:href="#ArialMT-72" x="700.292969"/>
     </g>
    </g>
   </g>
  </g>
 </g>
 <defs>
  <clipPath id="pbd52661cda">
   <rect x="135" y="69.12" width="837" height="443.52"/>
  </clipPath>
 </defs>
</svg>
