<?xml version="1.0" encoding="utf-8" standalone="no"?>
<!DOCTYPE svg PUBLIC "-//W3C//DTD SVG 1.1//EN"
  "http://www.w3.org/Graphics/SVG/1.1/DTD/svg11.dtd">
<svg xmlns:xlink="http://www.w3.org/1999/xlink" width="1080pt" height="576pt" viewBox="0 0 1080 576" xmlns="http://www.w3.org/2000/svg" version="1.1">
 <metadata>
  <rdf:RDF xmlns:dc="http://purl.org/dc/elements/1.1/" xmlns:cc="http://creativecommons.org/ns#" xmlns:rdf="http://www.w3.org/1999/02/22-rdf-syntax-ns#">
   <cc:Work>
    <dc:type rdf:resource="http://purl.org/dc/dcmitype/StillImage"/>
    <dc:date>2023-05-20T18:27:33.760534</dc:date>
    <dc:format>image/svg+xml</dc:format>
    <dc:creator>
     <cc:Agent>
      <dc:title>Matplotlib v3.7.1, https://matplotlib.org/</dc:title>
     </cc:Agent>
    </dc:creator>
   </cc:Work>
  </rdf:RDF>
 </metadata>
 <defs>
  <style type="text/css">*{stroke-linejoin: round; stroke-linecap: butt}</style>
 </defs>
 <g id="figure_1">
  <g id="patch_1">
   <path d="M 0 576 
L 1080 576 
L 1080 0 
L 0 0 
z
" style="fill: #ffffff"/>
  </g>
  <g id="axes_1">
   <g id="patch_2">
    <path d="M 135 512.64 
L 972 512.64 
L 972 69.12 
L 135 69.12 
z
" style="fill: #ffffff"/>
   </g>
   <g id="matplotlib.axis_1">
    <g id="xtick_1">
     <g id="line2d_1">
      <defs>
       <path id="mc09e7ece61" d="M 0 0 
L 0 3.5 
" style="stroke: #000000; stroke-width: 0.8"/>
      </defs>
      <g>
       <use xlink:href="#mc09e7ece61" x="173.045455" y="512.64" style="stroke: #000000; stroke-width: 0.8"/>
      </g>
     </g>
     <g id="text_1">
      <!-- 2023-02-01 -->
      <g transform="translate(143.987642 527.238438) scale(0.1 -0.1)">
       <defs>
        <path id="DejaVuSans-32" d="M 1228 531 
L 3431 531 
L 3431 0 
L 469 0 
L 469 531 
Q 828 903 1448 1529 
Q 2069 2156 2228 2338 
Q 2531 2678 2651 2914 
Q 2772 3150 2772 3378 
Q 2772 3750 2511 3984 
Q 2250 4219 1831 4219 
Q 1534 4219 1204 4116 
Q 875 4013 500 3803 
L 500 4441 
Q 881 4594 1212 4672 
Q 1544 4750 1819 4750 
Q 2544 4750 2975 4387 
Q 3406 4025 3406 3419 
Q 3406 3131 3298 2873 
Q 3191 2616 2906 2266 
Q 2828 2175 2409 1742 
Q 1991 1309 1228 531 
z
" transform="scale(0.015625)"/>
        <path id="DejaVuSans-30" d="M 2034 4250 
Q 1547 4250 1301 3770 
Q 1056 3291 1056 2328 
Q 1056 1369 1301 889 
Q 1547 409 2034 409 
Q 2525 409 2770 889 
Q 3016 1369 3016 2328 
Q 3016 3291 2770 3770 
Q 2525 4250 2034 4250 
z
M 2034 4750 
Q 2819 4750 3233 4129 
Q 3647 3509 3647 2328 
Q 3647 1150 3233 529 
Q 2819 -91 2034 -91 
Q 1250 -91 836 529 
Q 422 1150 422 2328 
Q 422 3509 836 4129 
Q 1250 4750 2034 4750 
z
" transform="scale(0.015625)"/>
        <path id="DejaVuSans-33" d="M 2597 2516 
Q 3050 2419 3304 2112 
Q 3559 1806 3559 1356 
Q 3559 666 3084 287 
Q 2609 -91 1734 -91 
Q 1441 -91 1130 -33 
Q 819 25 488 141 
L 488 750 
Q 750 597 1062 519 
Q 1375 441 1716 441 
Q 2309 441 2620 675 
Q 2931 909 2931 1356 
Q 2931 1769 2642 2001 
Q 2353 2234 1838 2234 
L 1294 2234 
L 1294 2753 
L 1863 2753 
Q 2328 2753 2575 2939 
Q 2822 3125 2822 3475 
Q 2822 3834 2567 4026 
Q 2313 4219 1838 4219 
Q 1578 4219 1281 4162 
Q 984 4106 628 3988 
L 628 4550 
Q 988 4650 1302 4700 
Q 1616 4750 1894 4750 
Q 2613 4750 3031 4423 
Q 3450 4097 3450 3541 
Q 3450 3153 3228 2886 
Q 3006 2619 2597 2516 
z
" transform="scale(0.015625)"/>
        <path id="DejaVuSans-2d" d="M 313 2009 
L 1997 2009 
L 1997 1497 
L 313 1497 
L 313 2009 
z
" transform="scale(0.015625)"/>
        <path id="DejaVuSans-31" d="M 794 531 
L 1825 531 
L 1825 4091 
L 703 3866 
L 703 4441 
L 1819 4666 
L 2450 4666 
L 2450 531 
L 3481 531 
L 3481 0 
L 794 0 
L 794 531 
z
" transform="scale(0.015625)"/>
       </defs>
       <use xlink:href="#DejaVuSans-32"/>
       <use xlink:href="#DejaVuSans-30" x="63.623047"/>
       <use xlink:href="#DejaVuSans-32" x="127.246094"/>
       <use xlink:href="#DejaVuSans-33" x="190.869141"/>
       <use xlink:href="#DejaVuSans-2d" x="254.492188"/>
       <use xlink:href="#DejaVuSans-30" x="290.576172"/>
       <use xlink:href="#DejaVuSans-32" x="354.199219"/>
       <use xlink:href="#DejaVuSans-2d" x="417.822266"/>
       <use xlink:href="#DejaVuSans-30" x="453.90625"/>
       <use xlink:href="#DejaVuSans-31" x="517.529297"/>
      </g>
     </g>
    </g>
    <g id="xtick_2">
     <g id="line2d_2">
      <g>
       <use xlink:href="#mc09e7ece61" x="301.391566" y="512.64" style="stroke: #000000; stroke-width: 0.8"/>
      </g>
     </g>
     <g id="text_2">
      <!-- 2023-02-15 -->
      <g transform="translate(272.333754 527.238438) scale(0.1 -0.1)">
       <defs>
        <path id="DejaVuSans-35" d="M 691 4666 
L 3169 4666 
L 3169 4134 
L 1269 4134 
L 1269 2991 
Q 1406 3038 1543 3061 
Q 1681 3084 1819 3084 
Q 2600 3084 3056 2656 
Q 3513 2228 3513 1497 
Q 3513 744 3044 326 
Q 2575 -91 1722 -91 
Q 1428 -91 1123 -41 
Q 819 9 494 109 
L 494 744 
Q 775 591 1075 516 
Q 1375 441 1709 441 
Q 2250 441 2565 725 
Q 2881 1009 2881 1497 
Q 2881 1984 2565 2268 
Q 2250 2553 1709 2553 
Q 1456 2553 1204 2497 
Q 953 2441 691 2322 
L 691 4666 
z
" transform="scale(0.015625)"/>
       </defs>
       <use xlink:href="#DejaVuSans-32"/>
       <use xlink:href="#DejaVuSans-30" x="63.623047"/>
       <use xlink:href="#DejaVuSans-32" x="127.246094"/>
       <use xlink:href="#DejaVuSans-33" x="190.869141"/>
       <use xlink:href="#DejaVuSans-2d" x="254.492188"/>
       <use xlink:href="#DejaVuSans-30" x="290.576172"/>
       <use xlink:href="#DejaVuSans-32" x="354.199219"/>
       <use xlink:href="#DejaVuSans-2d" x="417.822266"/>
       <use xlink:href="#DejaVuSans-31" x="453.90625"/>
       <use xlink:href="#DejaVuSans-35" x="517.529297"/>
      </g>
     </g>
    </g>
    <g id="xtick_3">
     <g id="line2d_3">
      <g>
       <use xlink:href="#mc09e7ece61" x="429.737678" y="512.64" style="stroke: #000000; stroke-width: 0.8"/>
      </g>
     </g>
     <g id="text_3">
      <!-- 2023-03-01 -->
      <g transform="translate(400.679865 527.238438) scale(0.1 -0.1)">
       <use xlink:href="#DejaVuSans-32"/>
       <use xlink:href="#DejaVuSans-30" x="63.623047"/>
       <use xlink:href="#DejaVuSans-32" x="127.246094"/>
       <use xlink:href="#DejaVuSans-33" x="190.869141"/>
       <use xlink:href="#DejaVuSans-2d" x="254.492188"/>
       <use xlink:href="#DejaVuSans-30" x="290.576172"/>
       <use xlink:href="#DejaVuSans-33" x="354.199219"/>
       <use xlink:href="#DejaVuSans-2d" x="417.822266"/>
       <use xlink:href="#DejaVuSans-30" x="453.90625"/>
       <use xlink:href="#DejaVuSans-31" x="517.529297"/>
      </g>
     </g>
    </g>
    <g id="xtick_4">
     <g id="line2d_4">
      <g>
       <use xlink:href="#mc09e7ece61" x="558.08379" y="512.64" style="stroke: #000000; stroke-width: 0.8"/>
      </g>
     </g>
     <g id="text_4">
      <!-- 2023-03-15 -->
      <g transform="translate(529.025977 527.238438) scale(0.1 -0.1)">
       <use xlink:href="#DejaVuSans-32"/>
       <use xlink:href="#DejaVuSans-30" x="63.623047"/>
       <use xlink:href="#DejaVuSans-32" x="127.246094"/>
       <use xlink:href="#DejaVuSans-33" x="190.869141"/>
       <use xlink:href="#DejaVuSans-2d" x="254.492188"/>
       <use xlink:href="#DejaVuSans-30" x="290.576172"/>
       <use xlink:href="#DejaVuSans-33" x="354.199219"/>
       <use xlink:href="#DejaVuSans-2d" x="417.822266"/>
       <use xlink:href="#DejaVuSans-31" x="453.90625"/>
       <use xlink:href="#DejaVuSans-35" x="517.529297"/>
      </g>
     </g>
    </g>
    <g id="xtick_5">
     <g id="line2d_5">
      <g>
       <use xlink:href="#mc09e7ece61" x="713.93264" y="512.64" style="stroke: #000000; stroke-width: 0.8"/>
      </g>
     </g>
     <g id="text_5">
      <!-- 2023-04-01 -->
      <g transform="translate(684.874827 527.238438) scale(0.1 -0.1)">
       <defs>
        <path id="DejaVuSans-34" d="M 2419 4116 
L 825 1625 
L 2419 1625 
L 2419 4116 
z
M 2253 4666 
L 3047 4666 
L 3047 1625 
L 3713 1625 
L 3713 1100 
L 3047 1100 
L 3047 0 
L 2419 0 
L 2419 1100 
L 313 1100 
L 313 1709 
L 2253 4666 
z
" transform="scale(0.015625)"/>
       </defs>
       <use xlink:href="#DejaVuSans-32"/>
       <use xlink:href="#DejaVuSans-30" x="63.623047"/>
       <use xlink:href="#DejaVuSans-32" x="127.246094"/>
       <use xlink:href="#DejaVuSans-33" x="190.869141"/>
       <use xlink:href="#DejaVuSans-2d" x="254.492188"/>
       <use xlink:href="#DejaVuSans-30" x="290.576172"/>
       <use xlink:href="#DejaVuSans-34" x="354.199219"/>
       <use xlink:href="#DejaVuSans-2d" x="417.822266"/>
       <use xlink:href="#DejaVuSans-30" x="453.90625"/>
       <use xlink:href="#DejaVuSans-31" x="517.529297"/>
      </g>
     </g>
    </g>
    <g id="xtick_6">
     <g id="line2d_6">
      <g>
       <use xlink:href="#mc09e7ece61" x="842.278751" y="512.64" style="stroke: #000000; stroke-width: 0.8"/>
      </g>
     </g>
     <g id="text_6">
      <!-- 2023-04-15 -->
      <g transform="translate(813.220939 527.238438) scale(0.1 -0.1)">
       <use xlink:href="#DejaVuSans-32"/>
       <use xlink:href="#DejaVuSans-30" x="63.623047"/>
       <use xlink:href="#DejaVuSans-32" x="127.246094"/>
       <use xlink:href="#DejaVuSans-33" x="190.869141"/>
       <use xlink:href="#DejaVuSans-2d" x="254.492188"/>
       <use xlink:href="#DejaVuSans-30" x="290.576172"/>
       <use xlink:href="#DejaVuSans-34" x="354.199219"/>
       <use xlink:href="#DejaVuSans-2d" x="417.822266"/>
       <use xlink:href="#DejaVuSans-31" x="453.90625"/>
       <use xlink:href="#DejaVuSans-35" x="517.529297"/>
      </g>
     </g>
    </g>
    <g id="text_7">
     <!-- Date -->
     <g transform="translate(541.549219 540.916563) scale(0.1 -0.1)">
      <defs>
       <path id="DejaVuSans-44" d="M 1259 4147 
L 1259 519 
L 2022 519 
Q 2988 519 3436 956 
Q 3884 1394 3884 2338 
Q 3884 3275 3436 3711 
Q 2988 4147 2022 4147 
L 1259 4147 
z
M 628 4666 
L 1925 4666 
Q 3281 4666 3915 4102 
Q 4550 3538 4550 2338 
Q 4550 1131 3912 565 
Q 3275 0 1925 0 
L 628 0 
L 628 4666 
z
" transform="scale(0.015625)"/>
       <path id="DejaVuSans-61" d="M 2194 1759 
Q 1497 1759 1228 1600 
Q 959 1441 959 1056 
Q 959 750 1161 570 
Q 1363 391 1709 391 
Q 2188 391 2477 730 
Q 2766 1069 2766 1631 
L 2766 1759 
L 2194 1759 
z
M 3341 1997 
L 3341 0 
L 2766 0 
L 2766 531 
Q 2569 213 2275 61 
Q 1981 -91 1556 -91 
Q 1019 -91 701 211 
Q 384 513 384 1019 
Q 384 1609 779 1909 
Q 1175 2209 1959 2209 
L 2766 2209 
L 2766 2266 
Q 2766 2663 2505 2880 
Q 2244 3097 1772 3097 
Q 1472 3097 1187 3025 
Q 903 2953 641 2809 
L 641 3341 
Q 956 3463 1253 3523 
Q 1550 3584 1831 3584 
Q 2591 3584 2966 3190 
Q 3341 2797 3341 1997 
z
" transform="scale(0.015625)"/>
       <path id="DejaVuSans-74" d="M 1172 4494 
L 1172 3500 
L 2356 3500 
L 2356 3053 
L 1172 3053 
L 1172 1153 
Q 1172 725 1289 603 
Q 1406 481 1766 481 
L 2356 481 
L 2356 0 
L 1766 0 
Q 1100 0 847 248 
Q 594 497 594 1153 
L 594 3053 
L 172 3053 
L 172 3500 
L 594 3500 
L 594 4494 
L 1172 4494 
z
" transform="scale(0.015625)"/>
       <path id="DejaVuSans-65" d="M 3597 1894 
L 3597 1613 
L 953 1613 
Q 991 1019 1311 708 
Q 1631 397 2203 397 
Q 2534 397 2845 478 
Q 3156 559 3463 722 
L 3463 178 
Q 3153 47 2828 -22 
Q 2503 -91 2169 -91 
Q 1331 -91 842 396 
Q 353 884 353 1716 
Q 353 2575 817 3079 
Q 1281 3584 2069 3584 
Q 2775 3584 3186 3129 
Q 3597 2675 3597 1894 
z
M 3022 2063 
Q 3016 2534 2758 2815 
Q 2500 3097 2075 3097 
Q 1594 3097 1305 2825 
Q 1016 2553 972 2059 
L 3022 2063 
z
" transform="scale(0.015625)"/>
      </defs>
      <use xlink:href="#DejaVuSans-44"/>
      <use xlink:href="#DejaVuSans-61" x="77.001953"/>
      <use xlink:href="#DejaVuSans-74" x="138.28125"/>
      <use xlink:href="#DejaVuSans-65" x="177.490234"/>
     </g>
    </g>
   </g>
   <g id="matplotlib.axis_2">
    <g id="ytick_1">
     <g id="line2d_7">
      <defs>
       <path id="m070b868378" d="M 0 0 
L -3.5 0 
" style="stroke: #000000; stroke-width: 0.8"/>
      </defs>
      <g>
       <use xlink:href="#m070b868378" x="135" y="500.844596" style="stroke: #000000; stroke-width: 0.8"/>
      </g>
     </g>
     <g id="text_8">
      <!-- 0.0 -->
      <g transform="translate(112.096875 504.643814) scale(0.1 -0.1)">
       <defs>
        <path id="DejaVuSans-2e" d="M 684 794 
L 1344 794 
L 1344 0 
L 684 0 
L 684 794 
z
" transform="scale(0.015625)"/>
       </defs>
       <use xlink:href="#DejaVuSans-30"/>
       <use xlink:href="#DejaVuSans-2e" x="63.623047"/>
       <use xlink:href="#DejaVuSans-30" x="95.410156"/>
      </g>
     </g>
    </g>
    <g id="ytick_2">
     <g id="line2d_8">
      <g>
       <use xlink:href="#m070b868378" x="135" y="447.330283" style="stroke: #000000; stroke-width: 0.8"/>
      </g>
     </g>
     <g id="text_9">
      <!-- 2.5 -->
      <g transform="translate(112.096875 451.129502) scale(0.1 -0.1)">
       <use xlink:href="#DejaVuSans-32"/>
       <use xlink:href="#DejaVuSans-2e" x="63.623047"/>
       <use xlink:href="#DejaVuSans-35" x="95.410156"/>
      </g>
     </g>
    </g>
    <g id="ytick_3">
     <g id="line2d_9">
      <g>
       <use xlink:href="#m070b868378" x="135" y="393.815971" style="stroke: #000000; stroke-width: 0.8"/>
      </g>
     </g>
     <g id="text_10">
      <!-- 5.0 -->
      <g transform="translate(112.096875 397.615189) scale(0.1 -0.1)">
       <use xlink:href="#DejaVuSans-35"/>
       <use xlink:href="#DejaVuSans-2e" x="63.623047"/>
       <use xlink:href="#DejaVuSans-30" x="95.410156"/>
      </g>
     </g>
    </g>
    <g id="ytick_4">
     <g id="line2d_10">
      <g>
       <use xlink:href="#m070b868378" x="135" y="340.301658" style="stroke: #000000; stroke-width: 0.8"/>
      </g>
     </g>
     <g id="text_11">
      <!-- 7.5 -->
      <g transform="translate(112.096875 344.100877) scale(0.1 -0.1)">
       <defs>
        <path id="DejaVuSans-37" d="M 525 4666 
L 3525 4666 
L 3525 4397 
L 1831 0 
L 1172 0 
L 2766 4134 
L 525 4134 
L 525 4666 
z
" transform="scale(0.015625)"/>
       </defs>
       <use xlink:href="#DejaVuSans-37"/>
       <use xlink:href="#DejaVuSans-2e" x="63.623047"/>
       <use xlink:href="#DejaVuSans-35" x="95.410156"/>
      </g>
     </g>
    </g>
    <g id="ytick_5">
     <g id="line2d_11">
      <g>
       <use xlink:href="#m070b868378" x="135" y="286.787346" style="stroke: #000000; stroke-width: 0.8"/>
      </g>
     </g>
     <g id="text_12">
      <!-- 10.0 -->
      <g transform="translate(105.734375 290.586564) scale(0.1 -0.1)">
       <use xlink:href="#DejaVuSans-31"/>
       <use xlink:href="#DejaVuSans-30" x="63.623047"/>
       <use xlink:href="#DejaVuSans-2e" x="127.246094"/>
       <use xlink:href="#DejaVuSans-30" x="159.033203"/>
      </g>
     </g>
    </g>
    <g id="ytick_6">
     <g id="line2d_12">
      <g>
       <use xlink:href="#m070b868378" x="135" y="233.273033" style="stroke: #000000; stroke-width: 0.8"/>
      </g>
     </g>
     <g id="text_13">
      <!-- 12.5 -->
      <g transform="translate(105.734375 237.072252) scale(0.1 -0.1)">
       <use xlink:href="#DejaVuSans-31"/>
       <use xlink:href="#DejaVuSans-32" x="63.623047"/>
       <use xlink:href="#DejaVuSans-2e" x="127.246094"/>
       <use xlink:href="#DejaVuSans-35" x="159.033203"/>
      </g>
     </g>
    </g>
    <g id="ytick_7">
     <g id="line2d_13">
      <g>
       <use xlink:href="#m070b868378" x="135" y="179.75872" style="stroke: #000000; stroke-width: 0.8"/>
      </g>
     </g>
     <g id="text_14">
      <!-- 15.0 -->
      <g transform="translate(105.734375 183.557939) scale(0.1 -0.1)">
       <use xlink:href="#DejaVuSans-31"/>
       <use xlink:href="#DejaVuSans-35" x="63.623047"/>
       <use xlink:href="#DejaVuSans-2e" x="127.246094"/>
       <use xlink:href="#DejaVuSans-30" x="159.033203"/>
      </g>
     </g>
    </g>
    <g id="ytick_8">
     <g id="line2d_14">
      <g>
       <use xlink:href="#m070b868378" x="135" y="126.244408" style="stroke: #000000; stroke-width: 0.8"/>
      </g>
     </g>
     <g id="text_15">
      <!-- 17.5 -->
      <g transform="translate(105.734375 130.043627) scale(0.1 -0.1)">
       <use xlink:href="#DejaVuSans-31"/>
       <use xlink:href="#DejaVuSans-37" x="63.623047"/>
       <use xlink:href="#DejaVuSans-2e" x="127.246094"/>
       <use xlink:href="#DejaVuSans-35" x="159.033203"/>
      </g>
     </g>
    </g>
    <g id="ytick_9">
     <g id="line2d_15">
      <g>
       <use xlink:href="#m070b868378" x="135" y="72.730095" style="stroke: #000000; stroke-width: 0.8"/>
      </g>
     </g>
     <g id="text_16">
      <!-- 20.0 -->
      <g transform="translate(105.734375 76.529314) scale(0.1 -0.1)">
       <use xlink:href="#DejaVuSans-32"/>
       <use xlink:href="#DejaVuSans-30" x="63.623047"/>
       <use xlink:href="#DejaVuSans-2e" x="127.246094"/>
       <use xlink:href="#DejaVuSans-30" x="159.033203"/>
      </g>
     </g>
    </g>
    <g id="text_17">
     <!-- Adj Close -->
     <g transform="translate(99.654687 313.98625) rotate(-90) scale(0.1 -0.1)">
      <defs>
       <path id="DejaVuSans-41" d="M 2188 4044 
L 1331 1722 
L 3047 1722 
L 2188 4044 
z
M 1831 4666 
L 2547 4666 
L 4325 0 
L 3669 0 
L 3244 1197 
L 1141 1197 
L 716 0 
L 50 0 
L 1831 4666 
z
" transform="scale(0.015625)"/>
       <path id="DejaVuSans-64" d="M 2906 2969 
L 2906 4863 
L 3481 4863 
L 3481 0 
L 2906 0 
L 2906 525 
Q 2725 213 2448 61 
Q 2172 -91 1784 -91 
Q 1150 -91 751 415 
Q 353 922 353 1747 
Q 353 2572 751 3078 
Q 1150 3584 1784 3584 
Q 2172 3584 2448 3432 
Q 2725 3281 2906 2969 
z
M 947 1747 
Q 947 1113 1208 752 
Q 1469 391 1925 391 
Q 2381 391 2643 752 
Q 2906 1113 2906 1747 
Q 2906 2381 2643 2742 
Q 2381 3103 1925 3103 
Q 1469 3103 1208 2742 
Q 947 2381 947 1747 
z
" transform="scale(0.015625)"/>
       <path id="DejaVuSans-6a" d="M 603 3500 
L 1178 3500 
L 1178 -63 
Q 1178 -731 923 -1031 
Q 669 -1331 103 -1331 
L -116 -1331 
L -116 -844 
L 38 -844 
Q 366 -844 484 -692 
Q 603 -541 603 -63 
L 603 3500 
z
M 603 4863 
L 1178 4863 
L 1178 4134 
L 603 4134 
L 603 4863 
z
" transform="scale(0.015625)"/>
       <path id="DejaVuSans-20" transform="scale(0.015625)"/>
       <path id="DejaVuSans-43" d="M 4122 4306 
L 4122 3641 
Q 3803 3938 3442 4084 
Q 3081 4231 2675 4231 
Q 1875 4231 1450 3742 
Q 1025 3253 1025 2328 
Q 1025 1406 1450 917 
Q 1875 428 2675 428 
Q 3081 428 3442 575 
Q 3803 722 4122 1019 
L 4122 359 
Q 3791 134 3420 21 
Q 3050 -91 2638 -91 
Q 1578 -91 968 557 
Q 359 1206 359 2328 
Q 359 3453 968 4101 
Q 1578 4750 2638 4750 
Q 3056 4750 3426 4639 
Q 3797 4528 4122 4306 
z
" transform="scale(0.015625)"/>
       <path id="DejaVuSans-6c" d="M 603 4863 
L 1178 4863 
L 1178 0 
L 603 0 
L 603 4863 
z
" transform="scale(0.015625)"/>
       <path id="DejaVuSans-6f" d="M 1959 3097 
Q 1497 3097 1228 2736 
Q 959 2375 959 1747 
Q 959 1119 1226 758 
Q 1494 397 1959 397 
Q 2419 397 2687 759 
Q 2956 1122 2956 1747 
Q 2956 2369 2687 2733 
Q 2419 3097 1959 3097 
z
M 1959 3584 
Q 2709 3584 3137 3096 
Q 3566 2609 3566 1747 
Q 3566 888 3137 398 
Q 2709 -91 1959 -91 
Q 1206 -91 779 398 
Q 353 888 353 1747 
Q 353 2609 779 3096 
Q 1206 3584 1959 3584 
z
" transform="scale(0.015625)"/>
       <path id="DejaVuSans-73" d="M 2834 3397 
L 2834 2853 
Q 2591 2978 2328 3040 
Q 2066 3103 1784 3103 
Q 1356 3103 1142 2972 
Q 928 2841 928 2578 
Q 928 2378 1081 2264 
Q 1234 2150 1697 2047 
L 1894 2003 
Q 2506 1872 2764 1633 
Q 3022 1394 3022 966 
Q 3022 478 2636 193 
Q 2250 -91 1575 -91 
Q 1294 -91 989 -36 
Q 684 19 347 128 
L 347 722 
Q 666 556 975 473 
Q 1284 391 1588 391 
Q 1994 391 2212 530 
Q 2431 669 2431 922 
Q 2431 1156 2273 1281 
Q 2116 1406 1581 1522 
L 1381 1569 
Q 847 1681 609 1914 
Q 372 2147 372 2553 
Q 372 3047 722 3315 
Q 1072 3584 1716 3584 
Q 2034 3584 2315 3537 
Q 2597 3491 2834 3397 
z
" transform="scale(0.015625)"/>
      </defs>
      <use xlink:href="#DejaVuSans-41"/>
      <use xlink:href="#DejaVuSans-64" x="66.658203"/>
      <use xlink:href="#DejaVuSans-6a" x="130.134766"/>
      <use xlink:href="#DejaVuSans-20" x="157.917969"/>
      <use xlink:href="#DejaVuSans-43" x="189.705078"/>
      <use xlink:href="#DejaVuSans-6c" x="259.529297"/>
      <use xlink:href="#DejaVuSans-6f" x="287.3125"/>
      <use xlink:href="#DejaVuSans-73" x="348.494141"/>
      <use xlink:href="#DejaVuSans-65" x="400.59375"/>
     </g>
    </g>
   </g>
   <g id="line2d_16">
    <path d="M 173.045455 155.274231 
L 182.213034 155.255704 
L 191.380613 155.251516 
L 218.883352 155.25057 
L 228.050931 155.250356 
L 237.21851 155.250308 
L 246.38609 155.250297 
L 255.553669 155.250294 
L 283.056407 155.250294 
L 292.223987 155.250293 
L 301.391566 155.250293 
L 310.559146 155.250293 
L 319.726725 155.250293 
L 356.397043 155.250293 
L 365.564622 155.250293 
L 374.732202 155.250293 
L 383.899781 155.250293 
L 411.402519 155.250293 
L 420.570099 155.250293 
L 429.737678 155.250293 
L 438.905257 155.250293 
L 448.072837 155.250293 
L 475.575575 155.250293 
L 484.743154 155.250293 
L 493.910734 155.250293 
L 503.078313 155.250293 
L 512.245893 155.250293 
L 539.748631 155.250293 
L 548.91621 155.250293 
L 558.08379 155.250293 
L 567.251369 155.250293 
L 576.418949 155.250293 
L 603.921687 155.250293 
L 613.089266 155.250293 
L 622.256846 155.250293 
L 631.424425 155.250293 
L 640.592004 155.250293 
L 668.094743 155.250293 
L 677.262322 155.250293 
L 686.429901 155.250293 
L 695.597481 155.250293 
L 704.76506 155.250293 
L 732.267798 155.250293 
L 741.435378 155.250293 
L 750.602957 155.250293 
L 759.770537 155.250293 
L 796.440854 155.250293 
L 805.608434 155.250293 
L 814.776013 155.250293 
L 823.943593 155.250293 
L 833.111172 155.250293 
L 860.61391 155.250293 
L 869.78149 155.250293 
L 878.949069 155.250293 
L 888.116648 155.250293 
L 897.284228 155.250293 
L 924.786966 155.250293 
L 933.954545 155.250293 
" clip-path="url(#p2d78f5912e)" style="fill: none; stroke: #1f77b4; stroke-width: 1.5; stroke-linecap: square"/>
   </g>
   <g id="line2d_17">
    <path d="M 173.045455 155.660229 
L 182.213034 153.181628 
L 191.380613 150.939671 
L 218.883352 149.520145 
L 228.050931 148.26988 
L 237.21851 149.137172 
L 246.38609 148.258185 
L 255.553669 151.221229 
L 283.056407 151.773293 
L 292.223987 148.541181 
L 301.391566 149.847046 
L 310.559146 155.337586 
L 319.726725 155.641608 
L 356.397043 153.163007 
L 365.564622 150.92105 
L 374.732202 149.501524 
L 383.899781 148.251259 
L 411.402519 149.118551 
L 420.570099 148.239565 
L 429.737678 151.202608 
L 438.905257 151.754672 
L 448.072837 148.52256 
L 475.575575 149.828425 
L 484.743154 155.318966 
L 493.910734 155.622988 
L 503.078313 153.144386 
L 512.245893 150.90243 
L 539.748631 149.482903 
L 548.91621 148.232639 
L 558.08379 149.09993 
L 567.251369 148.220944 
L 576.418949 151.183987 
L 603.921687 151.736051 
L 613.089266 148.50394 
L 622.256846 149.809804 
L 631.424425 155.300345 
L 640.592004 155.604367 
L 668.094743 153.125766 
L 677.262322 150.883809 
L 686.429901 149.464283 
L 695.597481 148.214018 
L 704.76506 149.08131 
L 732.267798 148.202323 
L 741.435378 151.165366 
L 750.602957 151.717431 
L 759.770537 148.485319 
L 796.440854 149.791184 
L 805.608434 155.281724 
L 814.776013 155.585746 
L 823.943593 153.107145 
L 833.111172 150.865188 
L 860.61391 149.445662 
L 869.78149 148.195397 
L 878.949069 149.062689 
L 888.116648 148.183702 
L 897.284228 151.146746 
L 924.786966 151.69881 
L 933.954545 148.466698 
" clip-path="url(#p2d78f5912e)" style="fill: none; stroke: #ff7f0e; stroke-width: 1.5; stroke-linecap: square"/>
   </g>
   <g id="line2d_18">
    <path d="M 173.045455 183.185778 
L 182.213034 149.767162 
L 191.380613 180.199682 
L 218.883352 172.992372 
L 228.050931 164.873177 
L 237.21851 197.058829 
L 246.38609 201.678186 
L 255.553669 172.187519 
L 283.056407 212.543727 
L 292.223987 166.853211 
L 301.391566 217.115991 
L 310.559146 164.933114 
L 319.726725 186.278904 
L 356.397043 188.590729 
L 365.564622 184.733413 
L 374.732202 204.717795 
L 383.899781 123.746358 
L 411.402519 191.557557 
L 420.570099 200.916135 
L 429.737678 207.88156 
L 438.905257 178.72696 
L 448.072837 123.746358 
L 475.575575 193.683148 
L 484.743154 199.822307 
L 493.910734 125.769207 
L 503.078313 154.392941 
L 512.245893 129.254058 
L 539.748631 198.767006 
L 548.91621 171.222114 
L 558.08379 179.172203 
L 567.251369 199.317132 
L 576.418949 207.190152 
L 603.921687 168.786148 
L 613.089266 219.873053 
L 622.256846 194.440907 
L 631.424425 202.110576 
L 640.592004 201.720995 
L 668.094743 194.764134 
L 677.262322 165.825742 
L 686.429901 194.303912 
L 695.597481 193.74094 
L 704.76506 208.48306 
L 732.267798 214.037846 
L 741.435378 187.120152 
L 750.602957 124.232271 
L 759.770537 205.681051 
L 796.440854 162.261679 
L 805.608434 151.460355 
L 814.776013 144.683304 
L 823.943593 199.952885 
L 833.111172 171.108664 
L 860.61391 220.438157 
L 869.78149 215.005384 
L 878.949069 202.911156 
L 888.116648 120.880127 
L 897.284228 207.757405 
L 924.786966 180.407317 
L 933.954545 129.239072 
" clip-path="url(#p2d78f5912e)" style="fill: none; stroke: #2ca02c; stroke-width: 1.5; stroke-linecap: square"/>
   </g>
   <g id="line2d_19">
    <path d="M 173.045455 187.767326 
L 182.213034 149.105906 
L 191.380613 184.97662 
L 218.883352 173.120625 
L 228.050931 185.147384 
L 237.21851 190.686033 
L 246.38609 195.741353 
L 255.553669 184.97662 
L 283.056407 198.202003 
L 292.223987 187.767326 
L 301.391566 198.202003 
L 310.559146 187.767326 
L 319.726725 171.67916 
L 356.397043 195.489692 
L 365.564622 190.479637 
L 374.732202 192.858278 
L 383.899781 151.566556 
L 411.402519 193.029042 
L 420.570099 190.479637 
L 429.737678 195.570589 
L 438.905257 184.97662 
L 448.072837 151.566556 
L 475.575575 195.489692 
L 484.743154 195.489692 
L 493.910734 148.935142 
L 503.078313 187.767326 
L 512.245893 148.935142 
L 539.748631 195.741353 
L 548.91621 193.029042 
L 558.08379 179.885667 
L 567.251369 195.741353 
L 576.418949 190.479637 
L 603.921687 187.767326 
L 613.089266 198.202003 
L 622.256846 187.767326 
L 631.424425 193.029042 
L 640.592004 190.479637 
L 668.094743 187.767326 
L 677.262322 187.767326 
L 686.429901 192.858278 
L 695.597481 187.608034 
L 704.76506 195.489692 
L 732.267798 195.570589 
L 741.435378 171.962287 
L 750.602957 187.767326 
L 759.770537 192.858278 
L 796.440854 187.767326 
L 805.608434 157.388351 
L 814.776013 149.105906 
L 823.943593 195.741353 
L 833.111172 193.029042 
L 860.61391 193.029042 
L 869.78149 198.202003 
L 878.949069 193.029042 
L 888.116648 151.566556 
L 897.284228 193.029042 
L 924.786966 187.767326 
L 933.954545 128.305573 
" clip-path="url(#p2d78f5912e)" style="fill: none; stroke: #d62728; stroke-width: 1.5; stroke-linecap: square"/>
   </g>
   <g id="line2d_20">
    <path d="M 173.045455 174.72691 
L 182.213034 197.615244 
L 191.380613 190.27891 
L 218.883352 171.663278 
L 228.050931 198.112108 
L 237.21851 201.124708 
L 246.38609 190.081505 
L 255.553669 189.33503 
L 283.056407 188.255022 
L 292.223987 178.902933 
L 301.391566 185.395504 
L 310.559146 177.036647 
L 319.726725 186.317704 
L 356.397043 192.299572 
L 365.564622 178.379196 
L 374.732202 187.780676 
L 383.899781 180.404169 
L 411.402519 192.380386 
L 420.570099 174.157565 
L 429.737678 181.743166 
L 438.905257 189.125263 
L 448.072837 180.195005 
L 475.575575 187.650541 
L 484.743154 189.361491 
L 493.910734 176.098225 
L 503.078313 174.830029 
L 512.245893 177.169642 
L 539.748631 189.319126 
L 548.91621 203.722599 
L 558.08379 176.106715 
L 567.251369 196.624655 
L 576.418949 172.921995 
L 603.921687 177.683456 
L 613.089266 183.700998 
L 622.256846 180.18143 
L 631.424425 194.351119 
L 640.592004 175.87614 
L 668.094743 173.871338 
L 677.262322 179.286795 
L 686.429901 186.189941 
L 695.597481 192.04622 
L 704.76506 185.798463 
L 732.267798 182.368861 
L 741.435378 168.496059 
L 750.602957 172.591215 
L 759.770537 186.675536 
L 796.440854 174.218856 
L 805.608434 161.443699 
L 814.776013 191.112763 
L 823.943593 195.778453 
L 833.111172 203.403984 
L 860.61391 197.036179 
L 869.78149 187.402782 
L 878.949069 200.598401 
L 888.116648 184.203179 
L 897.284228 194.552382 
L 924.786966 177.981858 
L 933.954545 89.418788 
" clip-path="url(#p2d78f5912e)" style="fill: none; stroke: #9467bd; stroke-width: 1.5; stroke-linecap: square"/>
   </g>
   <g id="line2d_21">
    <path d="M 173.045455 186.97202 
L 182.213034 200.421095 
L 191.380613 202.809617 
L 218.883352 180.382941 
L 228.050931 209.944936 
L 237.21851 214.705639 
L 246.38609 197.254466 
L 255.553669 202.191904 
L 283.056407 195.242007 
L 292.223987 191.823506 
L 301.391566 193.344814 
L 310.559146 188.874282 
L 319.726725 192.180533 
L 356.397043 201.633463 
L 365.564622 188.374264 
L 374.732202 198.861749 
L 383.899781 186.331055 
L 411.402519 200.887304 
L 420.570099 184.324572 
L 429.737678 191.068623 
L 438.905257 203.608151 
L 448.072837 186.000521 
L 475.575575 196.908368 
L 484.743154 199.61212 
L 493.910734 183.021995 
L 503.078313 186.26111 
L 512.245893 183.841249 
L 539.748631 196.049706 
L 548.91621 210.072327 
L 558.08379 190.026343 
L 567.251369 202.351169 
L 576.418949 183.245913 
L 603.921687 190.770276 
L 613.089266 191.540915 
L 622.256846 191.222269 
L 631.424425 204.001582 
L 640.592004 184.418774 
L 668.094743 186.493857 
L 677.262322 189.808509 
L 686.429901 196.347968 
L 695.597481 202.980834 
L 704.76506 194.855462 
L 732.267798 191.18352 
L 741.435378 182.368833 
L 750.602957 184.470927 
L 759.770537 197.989202 
L 796.440854 186.169161 
L 805.608434 176.467442 
L 814.776013 195.388659 
L 823.943593 201.013946 
L 833.111172 209.56883 
L 860.61391 204.749219 
L 869.78149 194.769111 
L 878.949069 208.630735 
L 888.116648 188.839026 
L 897.284228 204.319631 
L 924.786966 188.620231 
L 933.954545 116.828813 
" clip-path="url(#p2d78f5912e)" style="fill: none; stroke: #8c564b; stroke-width: 1.5; stroke-linecap: square"/>
   </g>
   <g id="line2d_22">
    <path d="M 173.045455 154.714021 
L 182.213034 211.653246 
L 191.380613 144.653344 
L 218.883352 195.813014 
L 228.050931 146.151739 
L 237.21851 207.586167 
L 246.38609 197.097367 
L 255.553669 201.378508 
L 283.056407 210.582955 
L 292.223987 201.59257 
L 301.391566 238.624464 
L 310.559146 154.714021 
L 319.726725 215.934387 
L 356.397043 114.471275 
L 365.564622 174.407289 
L 374.732202 220.42959 
L 383.899781 142.298702 
L 411.402519 182.755529 
L 420.570099 228.563768 
L 429.737678 192.174039 
L 438.905257 219.787424 
L 448.072837 142.298702 
L 475.575575 231.98868 
L 484.743154 196.669242 
L 493.910734 146.579863 
L 503.078313 155.142145 
L 512.245893 146.579863 
L 539.748631 178.260326 
L 548.91621 136.519146 
L 558.08379 204.375296 
L 567.251369 215.720345 
L 576.418949 228.563768 
L 603.921687 201.59257 
L 613.089266 232.630867 
L 622.256846 201.806611 
L 631.424425 195.170848 
L 640.592004 200.522279 
L 668.094743 192.174039 
L 677.262322 174.407289 
L 686.429901 189.605355 
L 695.597481 169.26992 
L 704.76506 243.119667 
L 732.267798 210.797018 
L 741.435378 209.726727 
L 750.602957 127.100657 
L 759.770537 220.42959 
L 796.440854 201.806611 
L 805.608434 228.135664 
L 814.776013 112.758819 
L 823.943593 178.260326 
L 833.111172 136.519146 
L 860.61391 175.263517 
L 869.78149 211.653246 
L 878.949069 207.372105 
L 888.116648 158.995161 
L 897.284228 220.42959 
L 924.786966 151.931294 
L 933.954545 134.164544 
" clip-path="url(#p2d78f5912e)" style="fill: none; stroke: #e377c2; stroke-width: 1.5; stroke-linecap: square"/>
   </g>
   <g id="line2d_23">
    <path d="M 173.045455 185.923567 
L 182.213034 188.32101 
L 191.380613 175.049463 
L 218.883352 176.462237 
L 228.050931 189.605351 
L 237.21851 189.605351 
L 246.38609 187.978519 
L 255.553669 211.995745 
L 283.056407 206.601502 
L 292.223987 162.505711 
L 301.391566 217.30436 
L 310.559146 161.649479 
L 319.726725 206.601502 
L 356.397043 206.601502 
L 365.564622 175.006651 
L 374.732202 184.853285 
L 383.899781 200.565084 
L 411.402519 183.911428 
L 420.570099 161.649479 
L 429.737678 208.057087 
L 438.905257 185.067343 
L 448.072837 200.565084 
L 475.575575 216.276886 
L 484.743154 214.735675 
L 493.910734 185.752326 
L 503.078313 197.054546 
L 512.245893 186.522933 
L 539.748631 187.978519 
L 548.91621 186.651362 
L 558.08379 184.339548 
L 567.251369 200.094159 
L 576.418949 197.43985 
L 603.921687 155.613061 
L 613.089266 203.90438 
L 622.256846 175.734446 
L 631.424425 189.605351 
L 640.592004 149.276973 
L 668.094743 187.978523 
L 677.262322 175.006651 
L 686.429901 179.887158 
L 695.597481 215.37785 
L 704.76506 209.341432 
L 732.267798 211.995745 
L 741.435378 168.114001 
L 750.602957 187.978523 
L 759.770537 211.995745 
L 796.440854 185.923567 
L 805.608434 139.301901 
L 814.776013 181.385552 
L 823.943593 200.094159 
L 833.111172 189.305672 
L 860.61391 195.941443 
L 869.78149 196.754863 
L 878.949069 203.219397 
L 888.116648 206.601502 
L 897.284228 189.605351 
L 924.786966 202.620039 
L 933.954545 133.051437 
" clip-path="url(#p2d78f5912e)" style="fill: none; stroke: #7f7f7f; stroke-width: 1.5; stroke-linecap: square"/>
   </g>
   <g id="line2d_24">
    <path d="M 173.045455 190.747625 
L 182.213034 153.118741 
L 191.380613 181.37323 
L 218.883352 170.216909 
L 228.050931 180.013202 
L 237.21851 197.620723 
L 246.38609 193.535026 
L 255.553669 181.37323 
L 283.056407 203.793984 
L 292.223987 189.091287 
L 301.391566 203.793984 
L 310.559146 189.091287 
L 319.726725 173.724826 
L 356.397043 202.891927 
L 365.564622 192.695844 
L 374.732202 193.992996 
L 383.899781 156.756205 
L 411.402519 178.083846 
L 420.570099 189.993345 
L 429.737678 197.597553 
L 438.905257 183.733609 
L 448.072837 156.756205 
L 475.575575 188.342805 
L 484.743154 202.891927 
L 493.910734 148.860688 
L 503.078313 173.767328 
L 512.245893 148.860688 
L 539.748631 193.535026 
L 548.91621 183.702049 
L 558.08379 178.127859 
L 567.251369 199.153229 
L 576.418949 189.993345 
L 603.921687 189.091287 
L 613.089266 202.790754 
L 622.256846 189.091287 
L 631.424425 192.632968 
L 640.592004 194.839242 
L 668.094743 190.747625 
L 677.262322 173.767328 
L 686.429901 193.992996 
L 695.597481 190.272161 
L 704.76506 186.564737 
L 732.267798 196.5508 
L 741.435378 172.896953 
L 750.602957 175.423666 
L 759.770537 193.992996 
L 796.440854 176.198503 
L 805.608434 156.824266 
L 814.776013 147.500661 
L 823.943593 197.82568 
L 833.111172 182.927212 
L 860.61391 178.083846 
L 869.78149 203.793984 
L 878.949069 198.251171 
L 888.116648 157.759435 
L 897.284228 192.632968 
L 924.786966 173.767328 
L 933.954545 132.235331 
" clip-path="url(#p2d78f5912e)" style="fill: none; stroke: #bcbd22; stroke-width: 1.5; stroke-linecap: square"/>
   </g>
   <g id="line2d_25">
    <path d="M 173.045455 174.507023 
L 182.213034 199.130332 
L 191.380613 189.046484 
L 218.883352 172.777657 
L 228.050931 196.645026 
L 237.21851 198.907762 
L 246.38609 190.613313 
L 255.553669 188.051695 
L 283.056407 188.955609 
L 292.223987 178.215295 
L 301.391566 185.950302 
L 310.559146 176.813545 
L 319.726725 187.500507 
L 356.397043 191.993433 
L 365.564622 178.67947 
L 374.732202 187.170084 
L 383.899781 181.915507 
L 411.402519 192.339982 
L 420.570099 174.651093 
L 429.737678 182.063666 
L 438.905257 187.322442 
L 448.072837 181.758406 
L 475.575575 187.64404 
L 484.743154 188.929119 
L 493.910734 177.537953 
L 503.078313 174.870325 
L 512.245893 178.628534 
L 539.748631 190.040698 
L 548.91621 203.717511 
L 558.08379 175.257533 
L 567.251369 197.242911 
L 576.418949 173.437218 
L 603.921687 177.013507 
L 613.089266 184.391725 
L 622.256846 180.033112 
L 631.424425 193.820181 
L 640.592004 176.799448 
L 668.094743 173.578561 
L 677.262322 179.361159 
L 686.429901 185.975297 
L 695.597481 191.231444 
L 704.76506 185.967111 
L 732.267798 182.81947 
L 741.435378 168.11199 
L 750.602957 172.617073 
L 759.770537 186.054174 
L 796.440854 174.125428 
L 805.608434 161.099929 
L 814.776013 192.531281 
L 823.943593 196.607337 
L 833.111172 203.478202 
L 860.61391 196.980304 
L 869.78149 188.02965 
L 878.949069 200.227555 
L 888.116648 185.912307 
L 897.284228 193.971348 
L 924.786966 178.095184 
L 933.954545 89.28 
" clip-path="url(#p2d78f5912e)" style="fill: none; stroke: #17becf; stroke-width: 1.5; stroke-linecap: square"/>
   </g>
   <g id="line2d_26">
    <path d="M 173.045455 174.592615 
L 182.213034 201.632419 
L 191.380613 184.992539 
L 218.883352 176.6726 
L 228.050931 191.232494 
L 237.21851 191.232494 
L 246.38609 191.232494 
L 255.553669 183.952547 
L 283.056407 190.192502 
L 292.223987 176.6726 
L 301.391566 187.072524 
L 310.559146 176.6726 
L 319.726725 190.192502 
L 356.397043 190.192502 
L 365.564622 179.792577 
L 374.732202 184.992539 
L 383.899781 186.032532 
L 411.402519 191.232494 
L 420.570099 176.6726 
L 429.737678 182.912555 
L 438.905257 181.872562 
L 448.072837 186.032532 
L 475.575575 187.072524 
L 484.743154 187.072524 
L 493.910734 181.872562 
L 503.078313 175.632607 
L 512.245893 182.912555 
L 539.748631 191.232494 
L 548.91621 201.632419 
L 558.08379 173.552622 
L 567.251369 197.472449 
L 576.418949 175.632607 
L 603.921687 175.632607 
L 613.089266 186.032532 
L 622.256846 179.792577 
L 631.424425 191.232494 
L 640.592004 179.792577 
L 668.094743 173.552622 
L 677.262322 179.792577 
L 686.429901 184.992539 
L 695.597481 188.112517 
L 704.76506 186.032532 
L 732.267798 183.952547 
L 741.435378 168.35266 
L 750.602957 173.552622 
L 759.770537 183.952547 
L 796.440854 174.592615 
L 805.608434 162.112705 
L 814.776013 195.392464 
L 823.943593 197.472449 
L 833.111172 201.632419 
L 860.61391 195.392464 
L 869.78149 189.152509 
L 878.949069 197.472449 
L 888.116648 190.192502 
L 897.284228 191.232494 
L 924.786966 178.752585 
L 933.954545 97.633171 
" clip-path="url(#p2d78f5912e)" style="fill: none; stroke: #1f77b4; stroke-width: 1.5; stroke-linecap: square"/>
   </g>
   <g id="line2d_27">
    <path d="M 173.045455 181.917817 
L 182.213034 181.685566 
L 191.380613 182.123754 
L 218.883352 181.741623 
L 228.050931 182.182649 
L 237.21851 182.414369 
L 246.38609 181.780307 
L 255.553669 182.138044 
L 283.056407 181.7612 
L 292.223987 182.005842 
L 301.391566 181.78143 
L 310.559146 181.914101 
L 319.726725 181.71584 
L 356.397043 181.912407 
L 365.564622 181.824728 
L 374.732202 181.977712 
L 383.899781 181.699998 
L 411.402519 181.864271 
L 420.570099 181.804845 
L 429.737678 181.817196 
L 438.905257 182.287495 
L 448.072837 181.697467 
L 475.575575 181.862147 
L 484.743154 181.939313 
L 493.910734 181.710001 
L 503.078313 181.871538 
L 512.245893 181.707286 
L 539.748631 181.757913 
L 548.91621 181.853349 
L 558.08379 182.048018 
L 567.251369 181.765487 
L 576.418949 181.804396 
L 603.921687 182.004046 
L 613.089266 181.766671 
L 622.256846 181.895402 
L 631.424425 181.956032 
L 640.592004 181.751891 
L 668.094743 181.933474 
L 677.262322 181.858391 
L 686.429901 181.900261 
L 695.597481 182.019601 
L 704.76506 181.835487 
L 732.267798 181.798292 
L 741.435378 181.965279 
L 750.602957 181.878581 
L 759.770537 181.98106 
L 796.440854 181.89579 
L 805.608434 181.983591 
L 814.776013 181.695262 
L 823.943593 181.741908 
L 833.111172 181.840284 
L 860.61391 181.864332 
L 869.78149 181.770631 
L 878.949069 181.920899 
L 888.116648 181.686341 
L 897.284228 181.966423 
L 924.786966 181.854084 
L 933.954545 492.48 
" clip-path="url(#p2d78f5912e)" style="fill: none; stroke: #ff7f0e; stroke-width: 1.5; stroke-linecap: square"/>
   </g>
   <g id="line2d_28">
    <path d="M 237.21851 175.060867 
L 246.38609 164.852903 
L 255.553669 177.484305 
L 283.056407 177.789659 
L 292.223987 168.193342 
L 301.391566 171.489177 
L 310.559146 173.566821 
L 319.726725 179.766682 
L 356.397043 177.752403 
L 365.564622 183.078072 
L 374.732202 179.699642 
L 383.899781 180.901073 
L 411.402519 174.912028 
L 420.570099 175.771175 
L 429.737678 182.673056 
L 438.905257 178.096013 
L 448.072837 177.305845 
L 475.575575 179.745451 
L 484.743154 185.939617 
L 493.910734 180.532027 
L 503.078313 181.57484 
L 512.245893 178.519299 
L 539.748631 179.666061 
L 548.91621 180.336153 
L 558.08379 177.345469 
L 567.251369 179.374201 
L 576.418949 165.840863 
L 603.921687 165.653544 
L 613.089266 166.97209 
L 622.256846 182.897489 
L 631.424425 176.50351 
L 640.592004 187.229481 
L 668.094743 186.736379 
L 677.262322 179.739919 
L 686.429901 182.093521 
L 695.597481 179.685352 
L 704.76506 187.287172 
L 732.267798 188.318042 
L 741.435378 182.208901 
L 750.602957 175.92524 
L 759.770537 175.099102 
L 796.440854 180.369816 
L 805.608434 187.192716 
L 814.776013 186.92376 
L 823.943593 182.083865 
L 833.111172 178.412758 
L 860.61391 178.684143 
L 869.78149 173.841145 
L 878.949069 154.499918 
L 888.116648 151.077414 
L 897.284228 156.207189 
L 924.786966 161.548801 
L 933.954545 167.58786 
" clip-path="url(#p2d78f5912e)" style="fill: none; stroke: #2ca02c; stroke-width: 1.5; stroke-linecap: square"/>
   </g>
   <g id="line2d_29">
    <path d="M 173.045455 143.583034 
L 182.213034 135.662938 
L 191.380613 136.519146 
L 218.883352 138.659727 
L 228.050931 137.803519 
L 237.21851 137.589457 
L 246.38609 144.22522 
L 255.553669 152.359378 
L 283.056407 147.436071 
L 292.223987 141.442453 
L 301.391566 141.228432 
L 310.559146 150.004776 
L 319.726725 150.646921 
L 356.397043 164.988779 
L 365.564622 167.771505 
L 374.732202 161.135742 
L 383.899781 167.771505 
L 411.402519 166.273111 
L 420.570099 158.78112 
L 429.737678 157.710809 
L 438.905257 155.78429 
L 448.072837 150.646921 
L 475.575575 155.78429 
L 484.743154 150.646921 
L 493.910734 145.723614 
L 503.078313 160.92168 
L 512.245893 169.912086 
L 539.748631 182.969571 
L 548.91621 187.03667 
L 558.08379 204.161254 
L 567.251369 198.595761 
L 576.418949 201.59257 
L 603.921687 202.020674 
L 613.089266 193.24433 
L 622.256846 205.017482 
L 631.424425 209.084561 
L 640.592004 207.158043 
L 668.094743 202.448798 
L 677.262322 201.59257 
L 686.429901 193.672434 
L 695.597481 191.103749 
L 704.76506 185.110152 
L 732.267798 192.174039 
L 741.435378 197.739533 
L 750.602957 203.519068 
L 759.770537 200.950383 
L 796.440854 197.953595 
L 805.608434 194.31462 
L 814.776013 222.57017 
L 823.943593 223.640461 
L 833.111172 227.065374 
L 860.61391 220.42959 
L 869.78149 216.362511 
L 878.949069 209.084561 
L 888.116648 215.720345 
L 897.284228 214.007889 
L 924.786966 215.720345 
L 933.954545 225.995083 
" clip-path="url(#p2d78f5912e)" style="fill: none; stroke: #000000; stroke-width: 2; stroke-linecap: square"/>
   </g>
   <g id="patch_3">
    <path d="M 135 512.64 
L 135 69.12 
" style="fill: none; stroke: #000000; stroke-width: 0.8; stroke-linejoin: miter; stroke-linecap: square"/>
   </g>
   <g id="patch_4">
    <path d="M 972 512.64 
L 972 69.12 
" style="fill: none; stroke: #000000; stroke-width: 0.8; stroke-linejoin: miter; stroke-linecap: square"/>
   </g>
   <g id="patch_5">
    <path d="M 135 512.64 
L 972 512.64 
" style="fill: none; stroke: #000000; stroke-width: 0.8; stroke-linejoin: miter; stroke-linecap: square"/>
   </g>
   <g id="patch_6">
    <path d="M 135 69.12 
L 972 69.12 
" style="fill: none; stroke: #000000; stroke-width: 0.8; stroke-linejoin: miter; stroke-linecap: square"/>
   </g>
   <g id="text_18">
    <!-- Tahminler ve Gerçek Değerler -->
    <g transform="translate(464.000625 63.12) scale(0.12 -0.12)">
     <defs>
      <path id="DejaVuSans-54" d="M -19 4666 
L 3928 4666 
L 3928 4134 
L 2272 4134 
L 2272 0 
L 1638 0 
L 1638 4134 
L -19 4134 
L -19 4666 
z
" transform="scale(0.015625)"/>
      <path id="DejaVuSans-68" d="M 3513 2113 
L 3513 0 
L 2938 0 
L 2938 2094 
Q 2938 2591 2744 2837 
Q 2550 3084 2163 3084 
Q 1697 3084 1428 2787 
Q 1159 2491 1159 1978 
L 1159 0 
L 581 0 
L 581 4863 
L 1159 4863 
L 1159 2956 
Q 1366 3272 1645 3428 
Q 1925 3584 2291 3584 
Q 2894 3584 3203 3211 
Q 3513 2838 3513 2113 
z
" transform="scale(0.015625)"/>
      <path id="DejaVuSans-6d" d="M 3328 2828 
Q 3544 3216 3844 3400 
Q 4144 3584 4550 3584 
Q 5097 3584 5394 3201 
Q 5691 2819 5691 2113 
L 5691 0 
L 5113 0 
L 5113 2094 
Q 5113 2597 4934 2840 
Q 4756 3084 4391 3084 
Q 3944 3084 3684 2787 
Q 3425 2491 3425 1978 
L 3425 0 
L 2847 0 
L 2847 2094 
Q 2847 2600 2669 2842 
Q 2491 3084 2119 3084 
Q 1678 3084 1418 2786 
Q 1159 2488 1159 1978 
L 1159 0 
L 581 0 
L 581 3500 
L 1159 3500 
L 1159 2956 
Q 1356 3278 1631 3431 
Q 1906 3584 2284 3584 
Q 2666 3584 2933 3390 
Q 3200 3197 3328 2828 
z
" transform="scale(0.015625)"/>
      <path id="DejaVuSans-69" d="M 603 3500 
L 1178 3500 
L 1178 0 
L 603 0 
L 603 3500 
z
M 603 4863 
L 1178 4863 
L 1178 4134 
L 603 4134 
L 603 4863 
z
" transform="scale(0.015625)"/>
      <path id="DejaVuSans-6e" d="M 3513 2113 
L 3513 0 
L 2938 0 
L 2938 2094 
Q 2938 2591 2744 2837 
Q 2550 3084 2163 3084 
Q 1697 3084 1428 2787 
Q 1159 2491 1159 1978 
L 1159 0 
L 581 0 
L 581 3500 
L 1159 3500 
L 1159 2956 
Q 1366 3272 1645 3428 
Q 1925 3584 2291 3584 
Q 2894 3584 3203 3211 
Q 3513 2838 3513 2113 
z
" transform="scale(0.015625)"/>
      <path id="DejaVuSans-72" d="M 2631 2963 
Q 2534 3019 2420 3045 
Q 2306 3072 2169 3072 
Q 1681 3072 1420 2755 
Q 1159 2438 1159 1844 
L 1159 0 
L 581 0 
L 581 3500 
L 1159 3500 
L 1159 2956 
Q 1341 3275 1631 3429 
Q 1922 3584 2338 3584 
Q 2397 3584 2469 3576 
Q 2541 3569 2628 3553 
L 2631 2963 
z
" transform="scale(0.015625)"/>
      <path id="DejaVuSans-76" d="M 191 3500 
L 800 3500 
L 1894 563 
L 2988 3500 
L 3597 3500 
L 2284 0 
L 1503 0 
L 191 3500 
z
" transform="scale(0.015625)"/>
      <path id="DejaVuSans-47" d="M 3809 666 
L 3809 1919 
L 2778 1919 
L 2778 2438 
L 4434 2438 
L 4434 434 
Q 4069 175 3628 42 
Q 3188 -91 2688 -91 
Q 1594 -91 976 548 
Q 359 1188 359 2328 
Q 359 3472 976 4111 
Q 1594 4750 2688 4750 
Q 3144 4750 3555 4637 
Q 3966 4525 4313 4306 
L 4313 3634 
Q 3963 3931 3569 4081 
Q 3175 4231 2741 4231 
Q 1884 4231 1454 3753 
Q 1025 3275 1025 2328 
Q 1025 1384 1454 906 
Q 1884 428 2741 428 
Q 3075 428 3337 486 
Q 3600 544 3809 666 
z
" transform="scale(0.015625)"/>
      <path id="DejaVuSans-e7" d="M 3122 3366 
L 3122 2828 
Q 2878 2963 2633 3030 
Q 2388 3097 2138 3097 
Q 1578 3097 1268 2742 
Q 959 2388 959 1747 
Q 959 1106 1268 751 
Q 1578 397 2138 397 
Q 2388 397 2633 464 
Q 2878 531 3122 666 
L 3122 134 
Q 2881 22 2623 -34 
Q 2366 -91 2075 -91 
Q 1284 -91 818 406 
Q 353 903 353 1747 
Q 353 2603 823 3093 
Q 1294 3584 2113 3584 
Q 2378 3584 2631 3529 
Q 2884 3475 3122 3366 
z
M 2311 0 
Q 2482 -194 2566 -358 
Q 2651 -522 2651 -672 
Q 2651 -950 2463 -1092 
Q 2276 -1234 1907 -1234 
Q 1764 -1234 1628 -1215 
Q 1492 -1197 1357 -1159 
L 1357 -750 
Q 1464 -803 1579 -826 
Q 1695 -850 1842 -850 
Q 2026 -850 2120 -775 
Q 2214 -700 2214 -556 
Q 2214 -463 2146 -327 
Q 2079 -191 1939 0 
L 2311 0 
z
" transform="scale(0.015625)"/>
      <path id="DejaVuSans-6b" d="M 581 4863 
L 1159 4863 
L 1159 1991 
L 2875 3500 
L 3609 3500 
L 1753 1863 
L 3688 0 
L 2938 0 
L 1159 1709 
L 1159 0 
L 581 0 
L 581 4863 
z
" transform="scale(0.015625)"/>
      <path id="DejaVuSans-11f" d="M 2906 1791 
Q 2906 2416 2648 2759 
Q 2391 3103 1925 3103 
Q 1463 3103 1205 2759 
Q 947 2416 947 1791 
Q 947 1169 1205 825 
Q 1463 481 1925 481 
Q 2391 481 2648 825 
Q 2906 1169 2906 1791 
z
M 3481 434 
Q 3481 -459 3084 -895 
Q 2688 -1331 1869 -1331 
Q 1566 -1331 1297 -1286 
Q 1028 -1241 775 -1147 
L 775 -588 
Q 1028 -725 1275 -790 
Q 1522 -856 1778 -856 
Q 2344 -856 2625 -561 
Q 2906 -266 2906 331 
L 2906 616 
Q 2728 306 2450 153 
Q 2172 0 1784 0 
Q 1141 0 747 490 
Q 353 981 353 1791 
Q 353 2603 747 3093 
Q 1141 3584 1784 3584 
Q 2172 3584 2450 3431 
Q 2728 3278 2906 2969 
L 2906 3500 
L 3481 3500 
L 3481 434 
z
M 1054 5025 
L 1423 5025 
Q 1457 4791 1608 4673 
Q 1760 4556 2032 4556 
Q 2301 4556 2451 4672 
Q 2601 4788 2641 5025 
L 3010 5025 
Q 2979 4578 2732 4353 
Q 2485 4128 2032 4128 
Q 1579 4128 1332 4353 
Q 1085 4578 1054 5025 
z
" transform="scale(0.015625)"/>
     </defs>
     <use xlink:href="#DejaVuSans-54"/>
     <use xlink:href="#DejaVuSans-61" x="44.583984"/>
     <use xlink:href="#DejaVuSans-68" x="105.863281"/>
     <use xlink:href="#DejaVuSans-6d" x="169.242188"/>
     <use xlink:href="#DejaVuSans-69" x="266.654297"/>
     <use xlink:href="#DejaVuSans-6e" x="294.4375"/>
     <use xlink:href="#DejaVuSans-6c" x="357.816406"/>
     <use xlink:href="#DejaVuSans-65" x="385.599609"/>
     <use xlink:href="#DejaVuSans-72" x="447.123047"/>
     <use xlink:href="#DejaVuSans-20" x="488.236328"/>
     <use xlink:href="#DejaVuSans-76" x="520.023438"/>
     <use xlink:href="#DejaVuSans-65" x="579.203125"/>
     <use xlink:href="#DejaVuSans-20" x="640.726562"/>
     <use xlink:href="#DejaVuSans-47" x="672.513672"/>
     <use xlink:href="#DejaVuSans-65" x="750.003906"/>
     <use xlink:href="#DejaVuSans-72" x="811.527344"/>
     <use xlink:href="#DejaVuSans-e7" x="850.390625"/>
     <use xlink:href="#DejaVuSans-65" x="905.371094"/>
     <use xlink:href="#DejaVuSans-6b" x="966.894531"/>
     <use xlink:href="#DejaVuSans-20" x="1024.804688"/>
     <use xlink:href="#DejaVuSans-44" x="1056.591797"/>
     <use xlink:href="#DejaVuSans-65" x="1133.59375"/>
     <use xlink:href="#DejaVuSans-11f" x="1195.117188"/>
     <use xlink:href="#DejaVuSans-65" x="1258.59375"/>
     <use xlink:href="#DejaVuSans-72" x="1320.117188"/>
     <use xlink:href="#DejaVuSans-6c" x="1361.230469"/>
     <use xlink:href="#DejaVuSans-65" x="1389.013672"/>
     <use xlink:href="#DejaVuSans-72" x="1450.537109"/>
    </g>
   </g>
   <g id="legend_1">
    <g id="patch_7">
     <path d="M 142 507.64 
L 306.448438 507.64 
Q 308.448438 507.64 308.448438 505.64 
L 308.448438 300.893125 
Q 308.448438 298.893125 306.448438 298.893125 
L 142 298.893125 
Q 140 298.893125 140 300.893125 
L 140 505.64 
Q 140 507.64 142 507.64 
z
" style="fill: #ffffff; opacity: 0.8; stroke: #cccccc; stroke-linejoin: miter"/>
    </g>
    <g id="line2d_30">
     <path d="M 144 306.991563 
L 154 306.991563 
L 164 306.991563 
" style="fill: none; stroke: #1f77b4; stroke-width: 1.5; stroke-linecap: square"/>
    </g>
    <g id="text_19">
     <!-- ARIMA -->
     <g transform="translate(172 310.491563) scale(0.1 -0.1)">
      <defs>
       <path id="DejaVuSans-52" d="M 2841 2188 
Q 3044 2119 3236 1894 
Q 3428 1669 3622 1275 
L 4263 0 
L 3584 0 
L 2988 1197 
Q 2756 1666 2539 1819 
Q 2322 1972 1947 1972 
L 1259 1972 
L 1259 0 
L 628 0 
L 628 4666 
L 2053 4666 
Q 2853 4666 3247 4331 
Q 3641 3997 3641 3322 
Q 3641 2881 3436 2590 
Q 3231 2300 2841 2188 
z
M 1259 4147 
L 1259 2491 
L 2053 2491 
Q 2509 2491 2742 2702 
Q 2975 2913 2975 3322 
Q 2975 3731 2742 3939 
Q 2509 4147 2053 4147 
L 1259 4147 
z
" transform="scale(0.015625)"/>
       <path id="DejaVuSans-49" d="M 628 4666 
L 1259 4666 
L 1259 0 
L 628 0 
L 628 4666 
z
" transform="scale(0.015625)"/>
       <path id="DejaVuSans-4d" d="M 628 4666 
L 1569 4666 
L 2759 1491 
L 3956 4666 
L 4897 4666 
L 4897 0 
L 4281 0 
L 4281 4097 
L 3078 897 
L 2444 897 
L 1241 4097 
L 1241 0 
L 628 0 
L 628 4666 
z
" transform="scale(0.015625)"/>
      </defs>
      <use xlink:href="#DejaVuSans-41"/>
      <use xlink:href="#DejaVuSans-52" x="68.408203"/>
      <use xlink:href="#DejaVuSans-49" x="137.890625"/>
      <use xlink:href="#DejaVuSans-4d" x="167.382812"/>
      <use xlink:href="#DejaVuSans-41" x="253.662109"/>
     </g>
    </g>
    <g id="line2d_31">
     <path d="M 144 321.669688 
L 154 321.669688 
L 164 321.669688 
" style="fill: none; stroke: #ff7f0e; stroke-width: 1.5; stroke-linecap: square"/>
    </g>
    <g id="text_20">
     <!-- ETS -->
     <g transform="translate(172 325.169688) scale(0.1 -0.1)">
      <defs>
       <path id="DejaVuSans-45" d="M 628 4666 
L 3578 4666 
L 3578 4134 
L 1259 4134 
L 1259 2753 
L 3481 2753 
L 3481 2222 
L 1259 2222 
L 1259 531 
L 3634 531 
L 3634 0 
L 628 0 
L 628 4666 
z
" transform="scale(0.015625)"/>
       <path id="DejaVuSans-53" d="M 3425 4513 
L 3425 3897 
Q 3066 4069 2747 4153 
Q 2428 4238 2131 4238 
Q 1616 4238 1336 4038 
Q 1056 3838 1056 3469 
Q 1056 3159 1242 3001 
Q 1428 2844 1947 2747 
L 2328 2669 
Q 3034 2534 3370 2195 
Q 3706 1856 3706 1288 
Q 3706 609 3251 259 
Q 2797 -91 1919 -91 
Q 1588 -91 1214 -16 
Q 841 59 441 206 
L 441 856 
Q 825 641 1194 531 
Q 1563 422 1919 422 
Q 2459 422 2753 634 
Q 3047 847 3047 1241 
Q 3047 1584 2836 1778 
Q 2625 1972 2144 2069 
L 1759 2144 
Q 1053 2284 737 2584 
Q 422 2884 422 3419 
Q 422 4038 858 4394 
Q 1294 4750 2059 4750 
Q 2388 4750 2728 4690 
Q 3069 4631 3425 4513 
z
" transform="scale(0.015625)"/>
      </defs>
      <use xlink:href="#DejaVuSans-45"/>
      <use xlink:href="#DejaVuSans-54" x="63.183594"/>
      <use xlink:href="#DejaVuSans-53" x="124.267578"/>
     </g>
    </g>
    <g id="line2d_32">
     <path d="M 144 336.347813 
L 154 336.347813 
L 164 336.347813 
" style="fill: none; stroke: #2ca02c; stroke-width: 1.5; stroke-linecap: square"/>
    </g>
    <g id="text_21">
     <!-- Random Forest -->
     <g transform="translate(172 339.847813) scale(0.1 -0.1)">
      <defs>
       <path id="DejaVuSans-46" d="M 628 4666 
L 3309 4666 
L 3309 4134 
L 1259 4134 
L 1259 2759 
L 3109 2759 
L 3109 2228 
L 1259 2228 
L 1259 0 
L 628 0 
L 628 4666 
z
" transform="scale(0.015625)"/>
      </defs>
      <use xlink:href="#DejaVuSans-52"/>
      <use xlink:href="#DejaVuSans-61" x="67.232422"/>
      <use xlink:href="#DejaVuSans-6e" x="128.511719"/>
      <use xlink:href="#DejaVuSans-64" x="191.890625"/>
      <use xlink:href="#DejaVuSans-6f" x="255.367188"/>
      <use xlink:href="#DejaVuSans-6d" x="316.548828"/>
      <use xlink:href="#DejaVuSans-20" x="413.960938"/>
      <use xlink:href="#DejaVuSans-46" x="445.748047"/>
      <use xlink:href="#DejaVuSans-6f" x="499.642578"/>
      <use xlink:href="#DejaVuSans-72" x="560.824219"/>
      <use xlink:href="#DejaVuSans-65" x="599.6875"/>
      <use xlink:href="#DejaVuSans-73" x="661.210938"/>
      <use xlink:href="#DejaVuSans-74" x="713.310547"/>
     </g>
    </g>
    <g id="line2d_33">
     <path d="M 144 351.025938 
L 154 351.025938 
L 164 351.025938 
" style="fill: none; stroke: #d62728; stroke-width: 1.5; stroke-linecap: square"/>
    </g>
    <g id="text_22">
     <!-- Gradient Boosting -->
     <g transform="translate(172 354.525938) scale(0.1 -0.1)">
      <defs>
       <path id="DejaVuSans-42" d="M 1259 2228 
L 1259 519 
L 2272 519 
Q 2781 519 3026 730 
Q 3272 941 3272 1375 
Q 3272 1813 3026 2020 
Q 2781 2228 2272 2228 
L 1259 2228 
z
M 1259 4147 
L 1259 2741 
L 2194 2741 
Q 2656 2741 2882 2914 
Q 3109 3088 3109 3444 
Q 3109 3797 2882 3972 
Q 2656 4147 2194 4147 
L 1259 4147 
z
M 628 4666 
L 2241 4666 
Q 2963 4666 3353 4366 
Q 3744 4066 3744 3513 
Q 3744 3084 3544 2831 
Q 3344 2578 2956 2516 
Q 3422 2416 3680 2098 
Q 3938 1781 3938 1306 
Q 3938 681 3513 340 
Q 3088 0 2303 0 
L 628 0 
L 628 4666 
z
" transform="scale(0.015625)"/>
       <path id="DejaVuSans-67" d="M 2906 1791 
Q 2906 2416 2648 2759 
Q 2391 3103 1925 3103 
Q 1463 3103 1205 2759 
Q 947 2416 947 1791 
Q 947 1169 1205 825 
Q 1463 481 1925 481 
Q 2391 481 2648 825 
Q 2906 1169 2906 1791 
z
M 3481 434 
Q 3481 -459 3084 -895 
Q 2688 -1331 1869 -1331 
Q 1566 -1331 1297 -1286 
Q 1028 -1241 775 -1147 
L 775 -588 
Q 1028 -725 1275 -790 
Q 1522 -856 1778 -856 
Q 2344 -856 2625 -561 
Q 2906 -266 2906 331 
L 2906 616 
Q 2728 306 2450 153 
Q 2172 0 1784 0 
Q 1141 0 747 490 
Q 353 981 353 1791 
Q 353 2603 747 3093 
Q 1141 3584 1784 3584 
Q 2172 3584 2450 3431 
Q 2728 3278 2906 2969 
L 2906 3500 
L 3481 3500 
L 3481 434 
z
" transform="scale(0.015625)"/>
      </defs>
      <use xlink:href="#DejaVuSans-47"/>
      <use xlink:href="#DejaVuSans-72" x="77.490234"/>
      <use xlink:href="#DejaVuSans-61" x="118.603516"/>
      <use xlink:href="#DejaVuSans-64" x="179.882812"/>
      <use xlink:href="#DejaVuSans-69" x="243.359375"/>
      <use xlink:href="#DejaVuSans-65" x="271.142578"/>
      <use xlink:href="#DejaVuSans-6e" x="332.666016"/>
      <use xlink:href="#DejaVuSans-74" x="396.044922"/>
      <use xlink:href="#DejaVuSans-20" x="435.253906"/>
      <use xlink:href="#DejaVuSans-42" x="467.041016"/>
      <use xlink:href="#DejaVuSans-6f" x="535.644531"/>
      <use xlink:href="#DejaVuSans-6f" x="596.826172"/>
      <use xlink:href="#DejaVuSans-73" x="658.007812"/>
      <use xlink:href="#DejaVuSans-74" x="710.107422"/>
      <use xlink:href="#DejaVuSans-69" x="749.316406"/>
      <use xlink:href="#DejaVuSans-6e" x="777.099609"/>
      <use xlink:href="#DejaVuSans-67" x="840.478516"/>
     </g>
    </g>
    <g id="line2d_34">
     <path d="M 144 365.704063 
L 154 365.704063 
L 164 365.704063 
" style="fill: none; stroke: #9467bd; stroke-width: 1.5; stroke-linecap: square"/>
    </g>
    <g id="text_23">
     <!-- Linear Regression -->
     <g transform="translate(172 369.204063) scale(0.1 -0.1)">
      <defs>
       <path id="DejaVuSans-4c" d="M 628 4666 
L 1259 4666 
L 1259 531 
L 3531 531 
L 3531 0 
L 628 0 
L 628 4666 
z
" transform="scale(0.015625)"/>
      </defs>
      <use xlink:href="#DejaVuSans-4c"/>
      <use xlink:href="#DejaVuSans-69" x="55.712891"/>
      <use xlink:href="#DejaVuSans-6e" x="83.496094"/>
      <use xlink:href="#DejaVuSans-65" x="146.875"/>
      <use xlink:href="#DejaVuSans-61" x="208.398438"/>
      <use xlink:href="#DejaVuSans-72" x="269.677734"/>
      <use xlink:href="#DejaVuSans-20" x="310.791016"/>
      <use xlink:href="#DejaVuSans-52" x="342.578125"/>
      <use xlink:href="#DejaVuSans-65" x="407.560547"/>
      <use xlink:href="#DejaVuSans-67" x="469.083984"/>
      <use xlink:href="#DejaVuSans-72" x="532.560547"/>
      <use xlink:href="#DejaVuSans-65" x="571.423828"/>
      <use xlink:href="#DejaVuSans-73" x="632.947266"/>
      <use xlink:href="#DejaVuSans-73" x="685.046875"/>
      <use xlink:href="#DejaVuSans-69" x="737.146484"/>
      <use xlink:href="#DejaVuSans-6f" x="764.929688"/>
      <use xlink:href="#DejaVuSans-6e" x="826.111328"/>
     </g>
    </g>
    <g id="line2d_35">
     <path d="M 144 380.382188 
L 154 380.382188 
L 164 380.382188 
" style="fill: none; stroke: #8c564b; stroke-width: 1.5; stroke-linecap: square"/>
    </g>
    <g id="text_24">
     <!-- Support Vector Regression -->
     <g transform="translate(172 383.882188) scale(0.1 -0.1)">
      <defs>
       <path id="DejaVuSans-75" d="M 544 1381 
L 544 3500 
L 1119 3500 
L 1119 1403 
Q 1119 906 1312 657 
Q 1506 409 1894 409 
Q 2359 409 2629 706 
Q 2900 1003 2900 1516 
L 2900 3500 
L 3475 3500 
L 3475 0 
L 2900 0 
L 2900 538 
Q 2691 219 2414 64 
Q 2138 -91 1772 -91 
Q 1169 -91 856 284 
Q 544 659 544 1381 
z
M 1991 3584 
L 1991 3584 
z
" transform="scale(0.015625)"/>
       <path id="DejaVuSans-70" d="M 1159 525 
L 1159 -1331 
L 581 -1331 
L 581 3500 
L 1159 3500 
L 1159 2969 
Q 1341 3281 1617 3432 
Q 1894 3584 2278 3584 
Q 2916 3584 3314 3078 
Q 3713 2572 3713 1747 
Q 3713 922 3314 415 
Q 2916 -91 2278 -91 
Q 1894 -91 1617 61 
Q 1341 213 1159 525 
z
M 3116 1747 
Q 3116 2381 2855 2742 
Q 2594 3103 2138 3103 
Q 1681 3103 1420 2742 
Q 1159 2381 1159 1747 
Q 1159 1113 1420 752 
Q 1681 391 2138 391 
Q 2594 391 2855 752 
Q 3116 1113 3116 1747 
z
" transform="scale(0.015625)"/>
       <path id="DejaVuSans-56" d="M 1831 0 
L 50 4666 
L 709 4666 
L 2188 738 
L 3669 4666 
L 4325 4666 
L 2547 0 
L 1831 0 
z
" transform="scale(0.015625)"/>
       <path id="DejaVuSans-63" d="M 3122 3366 
L 3122 2828 
Q 2878 2963 2633 3030 
Q 2388 3097 2138 3097 
Q 1578 3097 1268 2742 
Q 959 2388 959 1747 
Q 959 1106 1268 751 
Q 1578 397 2138 397 
Q 2388 397 2633 464 
Q 2878 531 3122 666 
L 3122 134 
Q 2881 22 2623 -34 
Q 2366 -91 2075 -91 
Q 1284 -91 818 406 
Q 353 903 353 1747 
Q 353 2603 823 3093 
Q 1294 3584 2113 3584 
Q 2378 3584 2631 3529 
Q 2884 3475 3122 3366 
z
" transform="scale(0.015625)"/>
      </defs>
      <use xlink:href="#DejaVuSans-53"/>
      <use xlink:href="#DejaVuSans-75" x="63.476562"/>
      <use xlink:href="#DejaVuSans-70" x="126.855469"/>
      <use xlink:href="#DejaVuSans-70" x="190.332031"/>
      <use xlink:href="#DejaVuSans-6f" x="253.808594"/>
      <use xlink:href="#DejaVuSans-72" x="314.990234"/>
      <use xlink:href="#DejaVuSans-74" x="356.103516"/>
      <use xlink:href="#DejaVuSans-20" x="395.3125"/>
      <use xlink:href="#DejaVuSans-56" x="427.099609"/>
      <use xlink:href="#DejaVuSans-65" x="487.757812"/>
      <use xlink:href="#DejaVuSans-63" x="549.28125"/>
      <use xlink:href="#DejaVuSans-74" x="604.261719"/>
      <use xlink:href="#DejaVuSans-6f" x="643.470703"/>
      <use xlink:href="#DejaVuSans-72" x="704.652344"/>
      <use xlink:href="#DejaVuSans-20" x="745.765625"/>
      <use xlink:href="#DejaVuSans-52" x="777.552734"/>
      <use xlink:href="#DejaVuSans-65" x="842.535156"/>
      <use xlink:href="#DejaVuSans-67" x="904.058594"/>
      <use xlink:href="#DejaVuSans-72" x="967.535156"/>
      <use xlink:href="#DejaVuSans-65" x="1006.398438"/>
      <use xlink:href="#DejaVuSans-73" x="1067.921875"/>
      <use xlink:href="#DejaVuSans-73" x="1120.021484"/>
      <use xlink:href="#DejaVuSans-69" x="1172.121094"/>
      <use xlink:href="#DejaVuSans-6f" x="1199.904297"/>
      <use xlink:href="#DejaVuSans-6e" x="1261.085938"/>
     </g>
    </g>
    <g id="line2d_36">
     <path d="M 144 395.060313 
L 154 395.060313 
L 164 395.060313 
" style="fill: none; stroke: #e377c2; stroke-width: 1.5; stroke-linecap: square"/>
    </g>
    <g id="text_25">
     <!-- Decision Tree -->
     <g transform="translate(172 398.560313) scale(0.1 -0.1)">
      <use xlink:href="#DejaVuSans-44"/>
      <use xlink:href="#DejaVuSans-65" x="77.001953"/>
      <use xlink:href="#DejaVuSans-63" x="138.525391"/>
      <use xlink:href="#DejaVuSans-69" x="193.505859"/>
      <use xlink:href="#DejaVuSans-73" x="221.289062"/>
      <use xlink:href="#DejaVuSans-69" x="273.388672"/>
      <use xlink:href="#DejaVuSans-6f" x="301.171875"/>
      <use xlink:href="#DejaVuSans-6e" x="362.353516"/>
      <use xlink:href="#DejaVuSans-20" x="425.732422"/>
      <use xlink:href="#DejaVuSans-54" x="457.519531"/>
      <use xlink:href="#DejaVuSans-72" x="503.853516"/>
      <use xlink:href="#DejaVuSans-65" x="542.716797"/>
      <use xlink:href="#DejaVuSans-65" x="604.240234"/>
     </g>
    </g>
    <g id="line2d_37">
     <path d="M 144 409.738438 
L 154 409.738438 
L 164 409.738438 
" style="fill: none; stroke: #7f7f7f; stroke-width: 1.5; stroke-linecap: square"/>
    </g>
    <g id="text_26">
     <!-- K-Nearest Neighbors -->
     <g transform="translate(172 413.238438) scale(0.1 -0.1)">
      <defs>
       <path id="DejaVuSans-4b" d="M 628 4666 
L 1259 4666 
L 1259 2694 
L 3353 4666 
L 4166 4666 
L 1850 2491 
L 4331 0 
L 3500 0 
L 1259 2247 
L 1259 0 
L 628 0 
L 628 4666 
z
" transform="scale(0.015625)"/>
       <path id="DejaVuSans-4e" d="M 628 4666 
L 1478 4666 
L 3547 763 
L 3547 4666 
L 4159 4666 
L 4159 0 
L 3309 0 
L 1241 3903 
L 1241 0 
L 628 0 
L 628 4666 
z
" transform="scale(0.015625)"/>
       <path id="DejaVuSans-62" d="M 3116 1747 
Q 3116 2381 2855 2742 
Q 2594 3103 2138 3103 
Q 1681 3103 1420 2742 
Q 1159 2381 1159 1747 
Q 1159 1113 1420 752 
Q 1681 391 2138 391 
Q 2594 391 2855 752 
Q 3116 1113 3116 1747 
z
M 1159 2969 
Q 1341 3281 1617 3432 
Q 1894 3584 2278 3584 
Q 2916 3584 3314 3078 
Q 3713 2572 3713 1747 
Q 3713 922 3314 415 
Q 2916 -91 2278 -91 
Q 1894 -91 1617 61 
Q 1341 213 1159 525 
L 1159 0 
L 581 0 
L 581 4863 
L 1159 4863 
L 1159 2969 
z
" transform="scale(0.015625)"/>
      </defs>
      <use xlink:href="#DejaVuSans-4b"/>
      <use xlink:href="#DejaVuSans-2d" x="55.076172"/>
      <use xlink:href="#DejaVuSans-4e" x="91.160156"/>
      <use xlink:href="#DejaVuSans-65" x="165.964844"/>
      <use xlink:href="#DejaVuSans-61" x="227.488281"/>
      <use xlink:href="#DejaVuSans-72" x="288.767578"/>
      <use xlink:href="#DejaVuSans-65" x="327.630859"/>
      <use xlink:href="#DejaVuSans-73" x="389.154297"/>
      <use xlink:href="#DejaVuSans-74" x="441.253906"/>
      <use xlink:href="#DejaVuSans-20" x="480.462891"/>
      <use xlink:href="#DejaVuSans-4e" x="512.25"/>
      <use xlink:href="#DejaVuSans-65" x="587.054688"/>
      <use xlink:href="#DejaVuSans-69" x="648.578125"/>
      <use xlink:href="#DejaVuSans-67" x="676.361328"/>
      <use xlink:href="#DejaVuSans-68" x="739.837891"/>
      <use xlink:href="#DejaVuSans-62" x="803.216797"/>
      <use xlink:href="#DejaVuSans-6f" x="866.693359"/>
      <use xlink:href="#DejaVuSans-72" x="927.875"/>
      <use xlink:href="#DejaVuSans-73" x="968.988281"/>
     </g>
    </g>
    <g id="line2d_38">
     <path d="M 144 424.416563 
L 154 424.416563 
L 164 424.416563 
" style="fill: none; stroke: #bcbd22; stroke-width: 1.5; stroke-linecap: square"/>
    </g>
    <g id="text_27">
     <!-- XGBoost -->
     <g transform="translate(172 427.916563) scale(0.1 -0.1)">
      <defs>
       <path id="DejaVuSans-58" d="M 403 4666 
L 1081 4666 
L 2241 2931 
L 3406 4666 
L 4084 4666 
L 2584 2425 
L 4184 0 
L 3506 0 
L 2194 1984 
L 872 0 
L 191 0 
L 1856 2491 
L 403 4666 
z
" transform="scale(0.015625)"/>
      </defs>
      <use xlink:href="#DejaVuSans-58"/>
      <use xlink:href="#DejaVuSans-47" x="68.505859"/>
      <use xlink:href="#DejaVuSans-42" x="145.996094"/>
      <use xlink:href="#DejaVuSans-6f" x="214.599609"/>
      <use xlink:href="#DejaVuSans-6f" x="275.78125"/>
      <use xlink:href="#DejaVuSans-73" x="336.962891"/>
      <use xlink:href="#DejaVuSans-74" x="389.0625"/>
     </g>
    </g>
    <g id="line2d_39">
     <path d="M 144 439.094688 
L 154 439.094688 
L 164 439.094688 
" style="fill: none; stroke: #17becf; stroke-width: 1.5; stroke-linecap: square"/>
    </g>
    <g id="text_28">
     <!-- Ridge Regression -->
     <g transform="translate(172 442.594688) scale(0.1 -0.1)">
      <use xlink:href="#DejaVuSans-52"/>
      <use xlink:href="#DejaVuSans-69" x="69.482422"/>
      <use xlink:href="#DejaVuSans-64" x="97.265625"/>
      <use xlink:href="#DejaVuSans-67" x="160.742188"/>
      <use xlink:href="#DejaVuSans-65" x="224.21875"/>
      <use xlink:href="#DejaVuSans-20" x="285.742188"/>
      <use xlink:href="#DejaVuSans-52" x="317.529297"/>
      <use xlink:href="#DejaVuSans-65" x="382.511719"/>
      <use xlink:href="#DejaVuSans-67" x="444.035156"/>
      <use xlink:href="#DejaVuSans-72" x="507.511719"/>
      <use xlink:href="#DejaVuSans-65" x="546.375"/>
      <use xlink:href="#DejaVuSans-73" x="607.898438"/>
      <use xlink:href="#DejaVuSans-73" x="659.998047"/>
      <use xlink:href="#DejaVuSans-69" x="712.097656"/>
      <use xlink:href="#DejaVuSans-6f" x="739.880859"/>
      <use xlink:href="#DejaVuSans-6e" x="801.0625"/>
     </g>
    </g>
    <g id="line2d_40">
     <path d="M 144 453.772812 
L 154 453.772812 
L 164 453.772812 
" style="fill: none; stroke: #1f77b4; stroke-width: 1.5; stroke-linecap: square"/>
    </g>
    <g id="text_29">
     <!-- ElasticNet -->
     <g transform="translate(172 457.272812) scale(0.1 -0.1)">
      <use xlink:href="#DejaVuSans-45"/>
      <use xlink:href="#DejaVuSans-6c" x="63.183594"/>
      <use xlink:href="#DejaVuSans-61" x="90.966797"/>
      <use xlink:href="#DejaVuSans-73" x="152.246094"/>
      <use xlink:href="#DejaVuSans-74" x="204.345703"/>
      <use xlink:href="#DejaVuSans-69" x="243.554688"/>
      <use xlink:href="#DejaVuSans-63" x="271.337891"/>
      <use xlink:href="#DejaVuSans-4e" x="326.318359"/>
      <use xlink:href="#DejaVuSans-65" x="401.123047"/>
      <use xlink:href="#DejaVuSans-74" x="462.646484"/>
     </g>
    </g>
    <g id="line2d_41">
     <path d="M 144 468.450938 
L 154 468.450938 
L 164 468.450938 
" style="fill: none; stroke: #ff7f0e; stroke-width: 1.5; stroke-linecap: square"/>
    </g>
    <g id="text_30">
     <!-- RNN -->
     <g transform="translate(172 471.950938) scale(0.1 -0.1)">
      <use xlink:href="#DejaVuSans-52"/>
      <use xlink:href="#DejaVuSans-4e" x="69.482422"/>
      <use xlink:href="#DejaVuSans-4e" x="144.287109"/>
     </g>
    </g>
    <g id="line2d_42">
     <path d="M 144 483.129063 
L 154 483.129063 
L 164 483.129063 
" style="fill: none; stroke: #2ca02c; stroke-width: 1.5; stroke-linecap: square"/>
    </g>
    <g id="text_31">
     <!-- LSTM -->
     <g transform="translate(172 486.629063) scale(0.1 -0.1)">
      <use xlink:href="#DejaVuSans-4c"/>
      <use xlink:href="#DejaVuSans-53" x="55.712891"/>
      <use xlink:href="#DejaVuSans-54" x="119.189453"/>
      <use xlink:href="#DejaVuSans-4d" x="180.273438"/>
     </g>
    </g>
    <g id="line2d_43">
     <path d="M 144 498.060313 
L 154 498.060313 
L 164 498.060313 
" style="fill: none; stroke: #000000; stroke-width: 2; stroke-linecap: square"/>
    </g>
    <g id="text_32">
     <!-- Gerçek Değerler -->
     <g transform="translate(172 501.560313) scale(0.1 -0.1)">
      <use xlink:href="#DejaVuSans-47"/>
      <use xlink:href="#DejaVuSans-65" x="77.490234"/>
      <use xlink:href="#DejaVuSans-72" x="139.013672"/>
      <use xlink:href="#DejaVuSans-e7" x="177.876953"/>
      <use xlink:href="#DejaVuSans-65" x="232.857422"/>
      <use xlink:href="#DejaVuSans-6b" x="294.380859"/>
      <use xlink:href="#DejaVuSans-20" x="352.291016"/>
      <use xlink:href="#DejaVuSans-44" x="384.078125"/>
      <use xlink:href="#DejaVuSans-65" x="461.080078"/>
      <use xlink:href="#DejaVuSans-11f" x="522.603516"/>
      <use xlink:href="#DejaVuSans-65" x="586.080078"/>
      <use xlink:href="#DejaVuSans-72" x="647.603516"/>
      <use xlink:href="#DejaVuSans-6c" x="688.716797"/>
      <use xlink:href="#DejaVuSans-65" x="716.5"/>
      <use xlink:href="#DejaVuSans-72" x="778.023438"/>
     </g>
    </g>
   </g>
  </g>
 </g>
 <defs>
  <clipPath id="p2d78f5912e">
   <rect x="135" y="69.12" width="837" height="443.52"/>
  </clipPath>
 </defs>
</svg>
