<?xml version="1.0" encoding="utf-8" standalone="no"?>
<!DOCTYPE svg PUBLIC "-//W3C//DTD SVG 1.1//EN"
  "http://www.w3.org/Graphics/SVG/1.1/DTD/svg11.dtd">
<svg xmlns:xlink="http://www.w3.org/1999/xlink" width="1080pt" height="576pt" viewBox="0 0 1080 576" xmlns="http://www.w3.org/2000/svg" version="1.1">
 <metadata>
  <rdf:RDF xmlns:dc="http://purl.org/dc/elements/1.1/" xmlns:cc="http://creativecommons.org/ns#" xmlns:rdf="http://www.w3.org/1999/02/22-rdf-syntax-ns#">
   <cc:Work>
    <dc:type rdf:resource="http://purl.org/dc/dcmitype/StillImage"/>
    <dc:date>2023-05-20T18:29:45.005151</dc:date>
    <dc:format>image/svg+xml</dc:format>
    <dc:creator>
     <cc:Agent>
      <dc:title>Matplotlib v3.7.1, https://matplotlib.org/</dc:title>
     </cc:Agent>
    </dc:creator>
   </cc:Work>
  </rdf:RDF>
 </metadata>
 <defs>
  <style type="text/css">*{stroke-linejoin: round; stroke-linecap: butt}</style>
 </defs>
 <g id="figure_1">
  <g id="patch_1">
   <path d="M 0 576 
L 1080 576 
L 1080 0 
L 0 0 
z
" style="fill: #ffffff"/>
  </g>
  <g id="axes_1">
   <g id="patch_2">
    <path d="M 135 512.64 
L 972 512.64 
L 972 69.12 
L 135 69.12 
z
" style="fill: #ffffff"/>
   </g>
   <g id="matplotlib.axis_1">
    <g id="xtick_1">
     <g id="line2d_1">
      <defs>
       <path id="m176cda52f9" d="M 0 0 
L 0 3.5 
" style="stroke: #000000; stroke-width: 0.8"/>
      </defs>
      <g>
       <use xlink:href="#m176cda52f9" x="173.045455" y="512.64" style="stroke: #000000; stroke-width: 0.8"/>
      </g>
     </g>
     <g id="text_1">
      <!-- 2023-02-01 -->
      <g transform="translate(143.987642 527.238438) scale(0.1 -0.1)">
       <defs>
        <path id="DejaVuSans-32" d="M 1228 531 
L 3431 531 
L 3431 0 
L 469 0 
L 469 531 
Q 828 903 1448 1529 
Q 2069 2156 2228 2338 
Q 2531 2678 2651 2914 
Q 2772 3150 2772 3378 
Q 2772 3750 2511 3984 
Q 2250 4219 1831 4219 
Q 1534 4219 1204 4116 
Q 875 4013 500 3803 
L 500 4441 
Q 881 4594 1212 4672 
Q 1544 4750 1819 4750 
Q 2544 4750 2975 4387 
Q 3406 4025 3406 3419 
Q 3406 3131 3298 2873 
Q 3191 2616 2906 2266 
Q 2828 2175 2409 1742 
Q 1991 1309 1228 531 
z
" transform="scale(0.015625)"/>
        <path id="DejaVuSans-30" d="M 2034 4250 
Q 1547 4250 1301 3770 
Q 1056 3291 1056 2328 
Q 1056 1369 1301 889 
Q 1547 409 2034 409 
Q 2525 409 2770 889 
Q 3016 1369 3016 2328 
Q 3016 3291 2770 3770 
Q 2525 4250 2034 4250 
z
M 2034 4750 
Q 2819 4750 3233 4129 
Q 3647 3509 3647 2328 
Q 3647 1150 3233 529 
Q 2819 -91 2034 -91 
Q 1250 -91 836 529 
Q 422 1150 422 2328 
Q 422 3509 836 4129 
Q 1250 4750 2034 4750 
z
" transform="scale(0.015625)"/>
        <path id="DejaVuSans-33" d="M 2597 2516 
Q 3050 2419 3304 2112 
Q 3559 1806 3559 1356 
Q 3559 666 3084 287 
Q 2609 -91 1734 -91 
Q 1441 -91 1130 -33 
Q 819 25 488 141 
L 488 750 
Q 750 597 1062 519 
Q 1375 441 1716 441 
Q 2309 441 2620 675 
Q 2931 909 2931 1356 
Q 2931 1769 2642 2001 
Q 2353 2234 1838 2234 
L 1294 2234 
L 1294 2753 
L 1863 2753 
Q 2328 2753 2575 2939 
Q 2822 3125 2822 3475 
Q 2822 3834 2567 4026 
Q 2313 4219 1838 4219 
Q 1578 4219 1281 4162 
Q 984 4106 628 3988 
L 628 4550 
Q 988 4650 1302 4700 
Q 1616 4750 1894 4750 
Q 2613 4750 3031 4423 
Q 3450 4097 3450 3541 
Q 3450 3153 3228 2886 
Q 3006 2619 2597 2516 
z
" transform="scale(0.015625)"/>
        <path id="DejaVuSans-2d" d="M 313 2009 
L 1997 2009 
L 1997 1497 
L 313 1497 
L 313 2009 
z
" transform="scale(0.015625)"/>
        <path id="DejaVuSans-31" d="M 794 531 
L 1825 531 
L 1825 4091 
L 703 3866 
L 703 4441 
L 1819 4666 
L 2450 4666 
L 2450 531 
L 3481 531 
L 3481 0 
L 794 0 
L 794 531 
z
" transform="scale(0.015625)"/>
       </defs>
       <use xlink:href="#DejaVuSans-32"/>
       <use xlink:href="#DejaVuSans-30" x="63.623047"/>
       <use xlink:href="#DejaVuSans-32" x="127.246094"/>
       <use xlink:href="#DejaVuSans-33" x="190.869141"/>
       <use xlink:href="#DejaVuSans-2d" x="254.492188"/>
       <use xlink:href="#DejaVuSans-30" x="290.576172"/>
       <use xlink:href="#DejaVuSans-32" x="354.199219"/>
       <use xlink:href="#DejaVuSans-2d" x="417.822266"/>
       <use xlink:href="#DejaVuSans-30" x="453.90625"/>
       <use xlink:href="#DejaVuSans-31" x="517.529297"/>
      </g>
     </g>
    </g>
    <g id="xtick_2">
     <g id="line2d_2">
      <g>
       <use xlink:href="#m176cda52f9" x="301.391566" y="512.64" style="stroke: #000000; stroke-width: 0.8"/>
      </g>
     </g>
     <g id="text_2">
      <!-- 2023-02-15 -->
      <g transform="translate(272.333754 527.238438) scale(0.1 -0.1)">
       <defs>
        <path id="DejaVuSans-35" d="M 691 4666 
L 3169 4666 
L 3169 4134 
L 1269 4134 
L 1269 2991 
Q 1406 3038 1543 3061 
Q 1681 3084 1819 3084 
Q 2600 3084 3056 2656 
Q 3513 2228 3513 1497 
Q 3513 744 3044 326 
Q 2575 -91 1722 -91 
Q 1428 -91 1123 -41 
Q 819 9 494 109 
L 494 744 
Q 775 591 1075 516 
Q 1375 441 1709 441 
Q 2250 441 2565 725 
Q 2881 1009 2881 1497 
Q 2881 1984 2565 2268 
Q 2250 2553 1709 2553 
Q 1456 2553 1204 2497 
Q 953 2441 691 2322 
L 691 4666 
z
" transform="scale(0.015625)"/>
       </defs>
       <use xlink:href="#DejaVuSans-32"/>
       <use xlink:href="#DejaVuSans-30" x="63.623047"/>
       <use xlink:href="#DejaVuSans-32" x="127.246094"/>
       <use xlink:href="#DejaVuSans-33" x="190.869141"/>
       <use xlink:href="#DejaVuSans-2d" x="254.492188"/>
       <use xlink:href="#DejaVuSans-30" x="290.576172"/>
       <use xlink:href="#DejaVuSans-32" x="354.199219"/>
       <use xlink:href="#DejaVuSans-2d" x="417.822266"/>
       <use xlink:href="#DejaVuSans-31" x="453.90625"/>
       <use xlink:href="#DejaVuSans-35" x="517.529297"/>
      </g>
     </g>
    </g>
    <g id="xtick_3">
     <g id="line2d_3">
      <g>
       <use xlink:href="#m176cda52f9" x="429.737678" y="512.64" style="stroke: #000000; stroke-width: 0.8"/>
      </g>
     </g>
     <g id="text_3">
      <!-- 2023-03-01 -->
      <g transform="translate(400.679865 527.238438) scale(0.1 -0.1)">
       <use xlink:href="#DejaVuSans-32"/>
       <use xlink:href="#DejaVuSans-30" x="63.623047"/>
       <use xlink:href="#DejaVuSans-32" x="127.246094"/>
       <use xlink:href="#DejaVuSans-33" x="190.869141"/>
       <use xlink:href="#DejaVuSans-2d" x="254.492188"/>
       <use xlink:href="#DejaVuSans-30" x="290.576172"/>
       <use xlink:href="#DejaVuSans-33" x="354.199219"/>
       <use xlink:href="#DejaVuSans-2d" x="417.822266"/>
       <use xlink:href="#DejaVuSans-30" x="453.90625"/>
       <use xlink:href="#DejaVuSans-31" x="517.529297"/>
      </g>
     </g>
    </g>
    <g id="xtick_4">
     <g id="line2d_4">
      <g>
       <use xlink:href="#m176cda52f9" x="558.08379" y="512.64" style="stroke: #000000; stroke-width: 0.8"/>
      </g>
     </g>
     <g id="text_4">
      <!-- 2023-03-15 -->
      <g transform="translate(529.025977 527.238438) scale(0.1 -0.1)">
       <use xlink:href="#DejaVuSans-32"/>
       <use xlink:href="#DejaVuSans-30" x="63.623047"/>
       <use xlink:href="#DejaVuSans-32" x="127.246094"/>
       <use xlink:href="#DejaVuSans-33" x="190.869141"/>
       <use xlink:href="#DejaVuSans-2d" x="254.492188"/>
       <use xlink:href="#DejaVuSans-30" x="290.576172"/>
       <use xlink:href="#DejaVuSans-33" x="354.199219"/>
       <use xlink:href="#DejaVuSans-2d" x="417.822266"/>
       <use xlink:href="#DejaVuSans-31" x="453.90625"/>
       <use xlink:href="#DejaVuSans-35" x="517.529297"/>
      </g>
     </g>
    </g>
    <g id="xtick_5">
     <g id="line2d_5">
      <g>
       <use xlink:href="#m176cda52f9" x="713.93264" y="512.64" style="stroke: #000000; stroke-width: 0.8"/>
      </g>
     </g>
     <g id="text_5">
      <!-- 2023-04-01 -->
      <g transform="translate(684.874827 527.238438) scale(0.1 -0.1)">
       <defs>
        <path id="DejaVuSans-34" d="M 2419 4116 
L 825 1625 
L 2419 1625 
L 2419 4116 
z
M 2253 4666 
L 3047 4666 
L 3047 1625 
L 3713 1625 
L 3713 1100 
L 3047 1100 
L 3047 0 
L 2419 0 
L 2419 1100 
L 313 1100 
L 313 1709 
L 2253 4666 
z
" transform="scale(0.015625)"/>
       </defs>
       <use xlink:href="#DejaVuSans-32"/>
       <use xlink:href="#DejaVuSans-30" x="63.623047"/>
       <use xlink:href="#DejaVuSans-32" x="127.246094"/>
       <use xlink:href="#DejaVuSans-33" x="190.869141"/>
       <use xlink:href="#DejaVuSans-2d" x="254.492188"/>
       <use xlink:href="#DejaVuSans-30" x="290.576172"/>
       <use xlink:href="#DejaVuSans-34" x="354.199219"/>
       <use xlink:href="#DejaVuSans-2d" x="417.822266"/>
       <use xlink:href="#DejaVuSans-30" x="453.90625"/>
       <use xlink:href="#DejaVuSans-31" x="517.529297"/>
      </g>
     </g>
    </g>
    <g id="xtick_6">
     <g id="line2d_6">
      <g>
       <use xlink:href="#m176cda52f9" x="842.278751" y="512.64" style="stroke: #000000; stroke-width: 0.8"/>
      </g>
     </g>
     <g id="text_6">
      <!-- 2023-04-15 -->
      <g transform="translate(813.220939 527.238438) scale(0.1 -0.1)">
       <use xlink:href="#DejaVuSans-32"/>
       <use xlink:href="#DejaVuSans-30" x="63.623047"/>
       <use xlink:href="#DejaVuSans-32" x="127.246094"/>
       <use xlink:href="#DejaVuSans-33" x="190.869141"/>
       <use xlink:href="#DejaVuSans-2d" x="254.492188"/>
       <use xlink:href="#DejaVuSans-30" x="290.576172"/>
       <use xlink:href="#DejaVuSans-34" x="354.199219"/>
       <use xlink:href="#DejaVuSans-2d" x="417.822266"/>
       <use xlink:href="#DejaVuSans-31" x="453.90625"/>
       <use xlink:href="#DejaVuSans-35" x="517.529297"/>
      </g>
     </g>
    </g>
    <g id="text_7">
     <!-- Date -->
     <g transform="translate(541.549219 540.916563) scale(0.1 -0.1)">
      <defs>
       <path id="DejaVuSans-44" d="M 1259 4147 
L 1259 519 
L 2022 519 
Q 2988 519 3436 956 
Q 3884 1394 3884 2338 
Q 3884 3275 3436 3711 
Q 2988 4147 2022 4147 
L 1259 4147 
z
M 628 4666 
L 1925 4666 
Q 3281 4666 3915 4102 
Q 4550 3538 4550 2338 
Q 4550 1131 3912 565 
Q 3275 0 1925 0 
L 628 0 
L 628 4666 
z
" transform="scale(0.015625)"/>
       <path id="DejaVuSans-61" d="M 2194 1759 
Q 1497 1759 1228 1600 
Q 959 1441 959 1056 
Q 959 750 1161 570 
Q 1363 391 1709 391 
Q 2188 391 2477 730 
Q 2766 1069 2766 1631 
L 2766 1759 
L 2194 1759 
z
M 3341 1997 
L 3341 0 
L 2766 0 
L 2766 531 
Q 2569 213 2275 61 
Q 1981 -91 1556 -91 
Q 1019 -91 701 211 
Q 384 513 384 1019 
Q 384 1609 779 1909 
Q 1175 2209 1959 2209 
L 2766 2209 
L 2766 2266 
Q 2766 2663 2505 2880 
Q 2244 3097 1772 3097 
Q 1472 3097 1187 3025 
Q 903 2953 641 2809 
L 641 3341 
Q 956 3463 1253 3523 
Q 1550 3584 1831 3584 
Q 2591 3584 2966 3190 
Q 3341 2797 3341 1997 
z
" transform="scale(0.015625)"/>
       <path id="DejaVuSans-74" d="M 1172 4494 
L 1172 3500 
L 2356 3500 
L 2356 3053 
L 1172 3053 
L 1172 1153 
Q 1172 725 1289 603 
Q 1406 481 1766 481 
L 2356 481 
L 2356 0 
L 1766 0 
Q 1100 0 847 248 
Q 594 497 594 1153 
L 594 3053 
L 172 3053 
L 172 3500 
L 594 3500 
L 594 4494 
L 1172 4494 
z
" transform="scale(0.015625)"/>
       <path id="DejaVuSans-65" d="M 3597 1894 
L 3597 1613 
L 953 1613 
Q 991 1019 1311 708 
Q 1631 397 2203 397 
Q 2534 397 2845 478 
Q 3156 559 3463 722 
L 3463 178 
Q 3153 47 2828 -22 
Q 2503 -91 2169 -91 
Q 1331 -91 842 396 
Q 353 884 353 1716 
Q 353 2575 817 3079 
Q 1281 3584 2069 3584 
Q 2775 3584 3186 3129 
Q 3597 2675 3597 1894 
z
M 3022 2063 
Q 3016 2534 2758 2815 
Q 2500 3097 2075 3097 
Q 1594 3097 1305 2825 
Q 1016 2553 972 2059 
L 3022 2063 
z
" transform="scale(0.015625)"/>
      </defs>
      <use xlink:href="#DejaVuSans-44"/>
      <use xlink:href="#DejaVuSans-61" x="77.001953"/>
      <use xlink:href="#DejaVuSans-74" x="138.28125"/>
      <use xlink:href="#DejaVuSans-65" x="177.490234"/>
     </g>
    </g>
   </g>
   <g id="matplotlib.axis_2">
    <g id="ytick_1">
     <g id="line2d_7">
      <defs>
       <path id="m9acea10375" d="M 0 0 
L -3.5 0 
" style="stroke: #000000; stroke-width: 0.8"/>
      </defs>
      <g>
       <use xlink:href="#m9acea10375" x="135" y="467.411999" style="stroke: #000000; stroke-width: 0.8"/>
      </g>
     </g>
     <g id="text_8">
      <!-- 2.5 -->
      <g transform="translate(112.096875 471.211218) scale(0.1 -0.1)">
       <defs>
        <path id="DejaVuSans-2e" d="M 684 794 
L 1344 794 
L 1344 0 
L 684 0 
L 684 794 
z
" transform="scale(0.015625)"/>
       </defs>
       <use xlink:href="#DejaVuSans-32"/>
       <use xlink:href="#DejaVuSans-2e" x="63.623047"/>
       <use xlink:href="#DejaVuSans-35" x="95.410156"/>
      </g>
     </g>
    </g>
    <g id="ytick_2">
     <g id="line2d_8">
      <g>
       <use xlink:href="#m9acea10375" x="135" y="414.063803" style="stroke: #000000; stroke-width: 0.8"/>
      </g>
     </g>
     <g id="text_9">
      <!-- 5.0 -->
      <g transform="translate(112.096875 417.863021) scale(0.1 -0.1)">
       <use xlink:href="#DejaVuSans-35"/>
       <use xlink:href="#DejaVuSans-2e" x="63.623047"/>
       <use xlink:href="#DejaVuSans-30" x="95.410156"/>
      </g>
     </g>
    </g>
    <g id="ytick_3">
     <g id="line2d_9">
      <g>
       <use xlink:href="#m9acea10375" x="135" y="360.715607" style="stroke: #000000; stroke-width: 0.8"/>
      </g>
     </g>
     <g id="text_10">
      <!-- 7.5 -->
      <g transform="translate(112.096875 364.514825) scale(0.1 -0.1)">
       <defs>
        <path id="DejaVuSans-37" d="M 525 4666 
L 3525 4666 
L 3525 4397 
L 1831 0 
L 1172 0 
L 2766 4134 
L 525 4134 
L 525 4666 
z
" transform="scale(0.015625)"/>
       </defs>
       <use xlink:href="#DejaVuSans-37"/>
       <use xlink:href="#DejaVuSans-2e" x="63.623047"/>
       <use xlink:href="#DejaVuSans-35" x="95.410156"/>
      </g>
     </g>
    </g>
    <g id="ytick_4">
     <g id="line2d_10">
      <g>
       <use xlink:href="#m9acea10375" x="135" y="307.367411" style="stroke: #000000; stroke-width: 0.8"/>
      </g>
     </g>
     <g id="text_11">
      <!-- 10.0 -->
      <g transform="translate(105.734375 311.166629) scale(0.1 -0.1)">
       <use xlink:href="#DejaVuSans-31"/>
       <use xlink:href="#DejaVuSans-30" x="63.623047"/>
       <use xlink:href="#DejaVuSans-2e" x="127.246094"/>
       <use xlink:href="#DejaVuSans-30" x="159.033203"/>
      </g>
     </g>
    </g>
    <g id="ytick_5">
     <g id="line2d_11">
      <g>
       <use xlink:href="#m9acea10375" x="135" y="254.019215" style="stroke: #000000; stroke-width: 0.8"/>
      </g>
     </g>
     <g id="text_12">
      <!-- 12.5 -->
      <g transform="translate(105.734375 257.818433) scale(0.1 -0.1)">
       <use xlink:href="#DejaVuSans-31"/>
       <use xlink:href="#DejaVuSans-32" x="63.623047"/>
       <use xlink:href="#DejaVuSans-2e" x="127.246094"/>
       <use xlink:href="#DejaVuSans-35" x="159.033203"/>
      </g>
     </g>
    </g>
    <g id="ytick_6">
     <g id="line2d_12">
      <g>
       <use xlink:href="#m9acea10375" x="135" y="200.671019" style="stroke: #000000; stroke-width: 0.8"/>
      </g>
     </g>
     <g id="text_13">
      <!-- 15.0 -->
      <g transform="translate(105.734375 204.470237) scale(0.1 -0.1)">
       <use xlink:href="#DejaVuSans-31"/>
       <use xlink:href="#DejaVuSans-35" x="63.623047"/>
       <use xlink:href="#DejaVuSans-2e" x="127.246094"/>
       <use xlink:href="#DejaVuSans-30" x="159.033203"/>
      </g>
     </g>
    </g>
    <g id="ytick_7">
     <g id="line2d_13">
      <g>
       <use xlink:href="#m9acea10375" x="135" y="147.322823" style="stroke: #000000; stroke-width: 0.8"/>
      </g>
     </g>
     <g id="text_14">
      <!-- 17.5 -->
      <g transform="translate(105.734375 151.122041) scale(0.1 -0.1)">
       <use xlink:href="#DejaVuSans-31"/>
       <use xlink:href="#DejaVuSans-37" x="63.623047"/>
       <use xlink:href="#DejaVuSans-2e" x="127.246094"/>
       <use xlink:href="#DejaVuSans-35" x="159.033203"/>
      </g>
     </g>
    </g>
    <g id="ytick_8">
     <g id="line2d_14">
      <g>
       <use xlink:href="#m9acea10375" x="135" y="93.974627" style="stroke: #000000; stroke-width: 0.8"/>
      </g>
     </g>
     <g id="text_15">
      <!-- 20.0 -->
      <g transform="translate(105.734375 97.773845) scale(0.1 -0.1)">
       <use xlink:href="#DejaVuSans-32"/>
       <use xlink:href="#DejaVuSans-30" x="63.623047"/>
       <use xlink:href="#DejaVuSans-2e" x="127.246094"/>
       <use xlink:href="#DejaVuSans-30" x="159.033203"/>
      </g>
     </g>
    </g>
    <g id="text_16">
     <!-- Adj Close -->
     <g transform="translate(99.654687 313.98625) rotate(-90) scale(0.1 -0.1)">
      <defs>
       <path id="DejaVuSans-41" d="M 2188 4044 
L 1331 1722 
L 3047 1722 
L 2188 4044 
z
M 1831 4666 
L 2547 4666 
L 4325 0 
L 3669 0 
L 3244 1197 
L 1141 1197 
L 716 0 
L 50 0 
L 1831 4666 
z
" transform="scale(0.015625)"/>
       <path id="DejaVuSans-64" d="M 2906 2969 
L 2906 4863 
L 3481 4863 
L 3481 0 
L 2906 0 
L 2906 525 
Q 2725 213 2448 61 
Q 2172 -91 1784 -91 
Q 1150 -91 751 415 
Q 353 922 353 1747 
Q 353 2572 751 3078 
Q 1150 3584 1784 3584 
Q 2172 3584 2448 3432 
Q 2725 3281 2906 2969 
z
M 947 1747 
Q 947 1113 1208 752 
Q 1469 391 1925 391 
Q 2381 391 2643 752 
Q 2906 1113 2906 1747 
Q 2906 2381 2643 2742 
Q 2381 3103 1925 3103 
Q 1469 3103 1208 2742 
Q 947 2381 947 1747 
z
" transform="scale(0.015625)"/>
       <path id="DejaVuSans-6a" d="M 603 3500 
L 1178 3500 
L 1178 -63 
Q 1178 -731 923 -1031 
Q 669 -1331 103 -1331 
L -116 -1331 
L -116 -844 
L 38 -844 
Q 366 -844 484 -692 
Q 603 -541 603 -63 
L 603 3500 
z
M 603 4863 
L 1178 4863 
L 1178 4134 
L 603 4134 
L 603 4863 
z
" transform="scale(0.015625)"/>
       <path id="DejaVuSans-20" transform="scale(0.015625)"/>
       <path id="DejaVuSans-43" d="M 4122 4306 
L 4122 3641 
Q 3803 3938 3442 4084 
Q 3081 4231 2675 4231 
Q 1875 4231 1450 3742 
Q 1025 3253 1025 2328 
Q 1025 1406 1450 917 
Q 1875 428 2675 428 
Q 3081 428 3442 575 
Q 3803 722 4122 1019 
L 4122 359 
Q 3791 134 3420 21 
Q 3050 -91 2638 -91 
Q 1578 -91 968 557 
Q 359 1206 359 2328 
Q 359 3453 968 4101 
Q 1578 4750 2638 4750 
Q 3056 4750 3426 4639 
Q 3797 4528 4122 4306 
z
" transform="scale(0.015625)"/>
       <path id="DejaVuSans-6c" d="M 603 4863 
L 1178 4863 
L 1178 0 
L 603 0 
L 603 4863 
z
" transform="scale(0.015625)"/>
       <path id="DejaVuSans-6f" d="M 1959 3097 
Q 1497 3097 1228 2736 
Q 959 2375 959 1747 
Q 959 1119 1226 758 
Q 1494 397 1959 397 
Q 2419 397 2687 759 
Q 2956 1122 2956 1747 
Q 2956 2369 2687 2733 
Q 2419 3097 1959 3097 
z
M 1959 3584 
Q 2709 3584 3137 3096 
Q 3566 2609 3566 1747 
Q 3566 888 3137 398 
Q 2709 -91 1959 -91 
Q 1206 -91 779 398 
Q 353 888 353 1747 
Q 353 2609 779 3096 
Q 1206 3584 1959 3584 
z
" transform="scale(0.015625)"/>
       <path id="DejaVuSans-73" d="M 2834 3397 
L 2834 2853 
Q 2591 2978 2328 3040 
Q 2066 3103 1784 3103 
Q 1356 3103 1142 2972 
Q 928 2841 928 2578 
Q 928 2378 1081 2264 
Q 1234 2150 1697 2047 
L 1894 2003 
Q 2506 1872 2764 1633 
Q 3022 1394 3022 966 
Q 3022 478 2636 193 
Q 2250 -91 1575 -91 
Q 1294 -91 989 -36 
Q 684 19 347 128 
L 347 722 
Q 666 556 975 473 
Q 1284 391 1588 391 
Q 1994 391 2212 530 
Q 2431 669 2431 922 
Q 2431 1156 2273 1281 
Q 2116 1406 1581 1522 
L 1381 1569 
Q 847 1681 609 1914 
Q 372 2147 372 2553 
Q 372 3047 722 3315 
Q 1072 3584 1716 3584 
Q 2034 3584 2315 3537 
Q 2597 3491 2834 3397 
z
" transform="scale(0.015625)"/>
      </defs>
      <use xlink:href="#DejaVuSans-41"/>
      <use xlink:href="#DejaVuSans-64" x="66.658203"/>
      <use xlink:href="#DejaVuSans-6a" x="130.134766"/>
      <use xlink:href="#DejaVuSans-20" x="157.917969"/>
      <use xlink:href="#DejaVuSans-43" x="189.705078"/>
      <use xlink:href="#DejaVuSans-6c" x="259.529297"/>
      <use xlink:href="#DejaVuSans-6f" x="287.3125"/>
      <use xlink:href="#DejaVuSans-73" x="348.494141"/>
      <use xlink:href="#DejaVuSans-65" x="400.59375"/>
     </g>
    </g>
   </g>
   <g id="line2d_15">
    <path d="M 173.045455 176.262533 
L 182.213034 176.244063 
L 191.380613 176.239888 
L 218.883352 176.238945 
L 228.050931 176.238732 
L 237.21851 176.238684 
L 246.38609 176.238673 
L 255.553669 176.23867 
L 283.056407 176.23867 
L 292.223987 176.238669 
L 301.391566 176.238669 
L 310.559146 176.238669 
L 319.726725 176.238669 
L 356.397043 176.238669 
L 365.564622 176.238669 
L 374.732202 176.238669 
L 383.899781 176.238669 
L 411.402519 176.238669 
L 420.570099 176.238669 
L 429.737678 176.238669 
L 438.905257 176.238669 
L 448.072837 176.238669 
L 475.575575 176.238669 
L 484.743154 176.238669 
L 493.910734 176.238669 
L 503.078313 176.238669 
L 512.245893 176.238669 
L 539.748631 176.238669 
L 548.91621 176.238669 
L 558.08379 176.238669 
L 567.251369 176.238669 
L 576.418949 176.238669 
L 603.921687 176.238669 
L 613.089266 176.238669 
L 622.256846 176.238669 
L 631.424425 176.238669 
L 640.592004 176.238669 
L 668.094743 176.238669 
L 677.262322 176.238669 
L 686.429901 176.238669 
L 695.597481 176.238669 
L 704.76506 176.238669 
L 732.267798 176.238669 
L 741.435378 176.238669 
L 750.602957 176.238669 
L 759.770537 176.238669 
L 796.440854 176.238669 
L 805.608434 176.238669 
L 814.776013 176.238669 
L 823.943593 176.238669 
L 833.111172 176.238669 
L 860.61391 176.238669 
L 869.78149 176.238669 
L 878.949069 176.238669 
L 888.116648 176.238669 
L 897.284228 176.238669 
L 924.786966 176.238669 
L 933.954545 176.238669 
" clip-path="url(#p6994cd945a)" style="fill: none; stroke: #1f77b4; stroke-width: 1.5; stroke-linecap: square"/>
   </g>
   <g id="line2d_16">
    <path d="M 173.045455 176.647333 
L 182.213034 174.176425 
L 191.380613 171.941428 
L 218.883352 170.526308 
L 228.050931 169.279925 
L 237.21851 170.144524 
L 246.38609 169.268266 
L 255.553669 172.222112 
L 283.056407 172.772462 
L 292.223987 169.550383 
L 301.391566 170.852194 
L 310.559146 176.325691 
L 319.726725 176.62877 
L 356.397043 174.157862 
L 365.564622 171.922865 
L 374.732202 170.507745 
L 383.899781 169.261362 
L 411.402519 170.125961 
L 420.570099 169.249703 
L 429.737678 172.203549 
L 438.905257 172.753899 
L 448.072837 169.53182 
L 475.575575 170.833632 
L 484.743154 176.307128 
L 493.910734 176.610207 
L 503.078313 174.139299 
L 512.245893 171.904302 
L 539.748631 170.489182 
L 548.91621 169.242799 
L 558.08379 170.107398 
L 567.251369 169.23114 
L 576.418949 172.184986 
L 603.921687 172.735336 
L 613.089266 169.513257 
L 622.256846 170.815069 
L 631.424425 176.288566 
L 640.592004 176.591644 
L 668.094743 174.120737 
L 677.262322 171.885739 
L 686.429901 170.470619 
L 695.597481 169.224236 
L 704.76506 170.088835 
L 732.267798 169.212577 
L 741.435378 172.166423 
L 750.602957 172.716773 
L 759.770537 169.494694 
L 796.440854 170.796506 
L 805.608434 176.270003 
L 814.776013 176.573081 
L 823.943593 174.102174 
L 833.111172 171.867176 
L 860.61391 170.452056 
L 869.78149 169.205673 
L 878.949069 170.070272 
L 888.116648 169.194014 
L 897.284228 172.14786 
L 924.786966 172.69821 
L 933.954545 169.476131 
" clip-path="url(#p6994cd945a)" style="fill: none; stroke: #ff7f0e; stroke-width: 1.5; stroke-linecap: square"/>
   </g>
   <g id="line2d_17">
    <path d="M 173.045455 198.76328 
L 182.213034 231.91386 
L 191.380613 193.193735 
L 218.883352 188.157672 
L 228.050931 210.224613 
L 237.21851 226.009278 
L 246.38609 227.833787 
L 255.553669 216.573051 
L 283.056407 220.249809 
L 292.223987 189.250235 
L 301.391566 191.247591 
L 310.559146 210.233151 
L 319.726725 217.718969 
L 356.397043 224.739592 
L 365.564622 207.324611 
L 374.732202 204.565441 
L 383.899781 208.263538 
L 411.402519 175.420254 
L 420.570099 173.533848 
L 429.737678 149.192155 
L 438.905257 215.508222 
L 448.072837 206.466766 
L 475.575575 230.535338 
L 484.743154 185.129625 
L 493.910734 207.279793 
L 503.078313 225.563286 
L 512.245893 223.215968 
L 539.748631 200.335992 
L 548.91621 225.529145 
L 558.08379 200.156739 
L 567.251369 213.139558 
L 576.418949 202.508329 
L 603.921687 205.862864 
L 613.089266 201.787064 
L 622.256846 203.240269 
L 631.424425 196.330605 
L 640.592004 213.555675 
L 668.094743 128.443962 
L 677.262322 219.564811 
L 686.429901 204.689209 
L 695.597481 200.124731 
L 704.76506 222.573654 
L 732.267798 186.175252 
L 741.435378 151.306867 
L 750.602957 172.001715 
L 759.770537 186.175252 
L 796.440854 127.434615 
L 805.608434 181.693999 
L 814.776013 194.567992 
L 823.943593 143.526572 
L 833.111172 135.645978 
L 860.61391 156.257583 
L 869.78149 214.44339 
L 878.949069 158.698796 
L 888.116648 181.979949 
L 897.284228 180.537414 
L 924.786966 165.93068 
L 933.954545 171.267636 
" clip-path="url(#p6994cd945a)" style="fill: none; stroke: #2ca02c; stroke-width: 1.5; stroke-linecap: square"/>
   </g>
   <g id="line2d_18">
    <path d="M 173.045455 207.553025 
L 182.213034 213.826936 
L 191.380613 213.095167 
L 218.883352 208.656026 
L 228.050931 213.826936 
L 237.21851 212.723935 
L 246.38609 212.723935 
L 255.553669 213.095167 
L 283.056407 216.294364 
L 292.223987 207.553025 
L 301.391566 215.191364 
L 310.559146 208.656026 
L 319.726725 216.294364 
L 356.397043 215.191364 
L 365.564622 208.656026 
L 374.732202 213.095167 
L 383.899781 216.294364 
L 411.402519 212.723935 
L 420.570099 207.553025 
L 429.737678 213.095167 
L 438.905257 185.810148 
L 448.072837 187.906345 
L 475.575575 215.191364 
L 484.743154 215.191364 
L 493.910734 214.198168 
L 503.078313 207.553025 
L 512.245893 214.198168 
L 539.748631 212.723935 
L 548.91621 212.723935 
L 558.08379 208.656026 
L 567.251369 213.826936 
L 576.418949 198.171278 
L 603.921687 198.171278 
L 613.089266 215.191364 
L 622.256846 208.656026 
L 631.424425 203.342189 
L 640.592004 208.656026 
L 668.094743 155.553691 
L 677.262322 207.553025 
L 686.429901 213.095167 
L 695.597481 187.906345 
L 704.76506 215.191364 
L 732.267798 161.095833 
L 741.435378 139.745131 
L 750.602957 208.656026 
L 759.770537 161.095833 
L 796.440854 155.553691 
L 805.608434 175.417055 
L 814.776013 212.723935 
L 823.943593 160.724602 
L 833.111172 160.724602 
L 860.61391 185.438917 
L 869.78149 187.906345 
L 878.949069 185.438917 
L 888.116648 163.19203 
L 897.284228 160.724602 
L 924.786966 155.553691 
L 933.954545 140.317096 
" clip-path="url(#p6994cd945a)" style="fill: none; stroke: #d62728; stroke-width: 1.5; stroke-linecap: square"/>
   </g>
   <g id="line2d_19">
    <path d="M 173.045455 195.418451 
L 182.213034 223.454676 
L 191.380613 207.070414 
L 218.883352 196.1168 
L 228.050931 212.969695 
L 237.21851 214.135155 
L 246.38609 214.223293 
L 255.553669 206.334038 
L 283.056407 212.415102 
L 292.223987 198.399822 
L 301.391566 209.08794 
L 310.559146 196.467199 
L 319.726725 211.683404 
L 356.397043 213.076868 
L 365.564622 199.293394 
L 374.732202 207.457327 
L 383.899781 207.515779 
L 411.402519 213.718181 
L 420.570099 197.633184 
L 429.737678 204.597092 
L 438.905257 205.009703 
L 448.072837 209.342323 
L 475.575575 209.596356 
L 484.743154 209.129648 
L 493.910734 202.725579 
L 503.078313 197.108967 
L 512.245893 203.365371 
L 539.748631 213.607065 
L 548.91621 225.377227 
L 558.08379 192.037111 
L 567.251369 219.541548 
L 576.418949 197.80945 
L 603.921687 197.644875 
L 613.089266 208.055254 
L 622.256846 200.696931 
L 631.424425 214.788474 
L 640.592004 199.98606 
L 668.094743 196.149249 
L 677.262322 201.597454 
L 686.429901 207.390752 
L 695.597481 211.620274 
L 704.76506 208.147431 
L 732.267798 207.723619 
L 741.435378 191.034977 
L 750.602957 193.964646 
L 759.770537 207.450446 
L 796.440854 197.43449 
L 805.608434 181.83201 
L 814.776013 218.587286 
L 823.943593 222.27255 
L 833.111172 227.003835 
L 860.61391 219.885057 
L 869.78149 213.02235 
L 878.949069 222.039144 
L 888.116648 214.342742 
L 897.284228 216.543197 
L 924.786966 202.801886 
L 933.954545 112.199631 
" clip-path="url(#p6994cd945a)" style="fill: none; stroke: #9467bd; stroke-width: 1.5; stroke-linecap: square"/>
   </g>
   <g id="line2d_20">
    <path d="M 173.045455 210.404312 
L 182.213034 228.801371 
L 191.380613 219.538595 
L 218.883352 208.364286 
L 228.050931 222.432077 
L 237.21851 225.193462 
L 246.38609 225.40229 
L 255.553669 219.641192 
L 283.056407 222.965383 
L 292.223987 213.773566 
L 301.391566 220.62416 
L 310.559146 209.194504 
L 319.726725 221.231734 
L 356.397043 224.533337 
L 365.564622 210.348761 
L 374.732202 220.455327 
L 383.899781 218.746491 
L 411.402519 224.205504 
L 420.570099 211.957131 
L 429.737678 217.373088 
L 438.905257 220.198038 
L 448.072837 223.074213 
L 475.575575 221.828777 
L 484.743154 220.72298 
L 493.910734 214.786148 
L 503.078313 212.562408 
L 512.245893 214.454709 
L 539.748631 223.942231 
L 548.91621 233.356567 
L 558.08379 204.240065 
L 567.251369 226.91912 
L 576.418949 214.222097 
L 603.921687 213.83216 
L 613.089266 220.024695 
L 622.256846 213.67423 
L 631.424425 226.741403 
L 640.592004 211.989929 
L 668.094743 213.983158 
L 677.262322 215.807886 
L 686.429901 220.297587 
L 695.597481 224.776817 
L 704.76506 220.243095 
L 732.267798 222.933597 
L 741.435378 211.102307 
L 750.602957 208.80707 
L 759.770537 222.286353 
L 796.440854 215.181016 
L 805.608434 200.381235 
L 814.776013 228.352798 
L 823.943593 233.389821 
L 833.111172 237.210572 
L 860.61391 231.427674 
L 869.78149 226.251496 
L 878.949069 232.836798 
L 888.116648 227.532637 
L 897.284228 230.898955 
L 924.786966 220.508937 
L 933.954545 149.932194 
" clip-path="url(#p6994cd945a)" style="fill: none; stroke: #8c564b; stroke-width: 1.5; stroke-linecap: square"/>
   </g>
   <g id="line2d_21">
    <path d="M 173.045455 247.404029 
L 182.213034 257.860291 
L 191.380613 170.155844 
L 218.883352 172.929973 
L 228.050931 193.629058 
L 237.21851 249.537965 
L 246.38609 249.537965 
L 255.553669 222.437092 
L 283.056407 249.751363 
L 292.223987 175.704061 
L 301.391566 233.533507 
L 310.559146 167.381756 
L 319.726725 260.847777 
L 356.397043 249.537965 
L 365.564622 243.776371 
L 374.732202 135.586236 
L 383.899781 167.595153 
L 411.402519 249.751363 
L 420.570099 116.380853 
L 429.737678 112.539817 
L 438.905257 210.487088 
L 448.072837 239.081724 
L 475.575575 232.679936 
L 484.743154 233.533507 
L 493.910734 219.876361 
L 503.078313 220.943329 
L 512.245893 222.223695 
L 539.748631 249.751363 
L 548.91621 242.709403 
L 558.08379 222.65047 
L 567.251369 200.244223 
L 576.418949 115.313905 
L 603.921687 115.313905 
L 613.089266 233.533507 
L 622.256846 250.178138 
L 631.424425 206.859409 
L 640.592004 232.039764 
L 668.094743 228.198687 
L 677.262322 221.583502 
L 686.429901 135.586236 
L 695.597481 208.566549 
L 704.76506 242.282607 
L 732.267798 210.487088 
L 741.435378 230.546 
L 750.602957 148.176413 
L 759.770537 210.487088 
L 796.440854 228.198687 
L 805.608434 248.897793 
L 814.776013 199.177276 
L 823.943593 89.28 
L 833.111172 89.28 
L 860.61391 89.28 
L 869.78149 202.164762 
L 878.949069 89.28 
L 888.116648 202.164762 
L 897.284228 202.164762 
L 924.786966 218.16922 
L 933.954545 166.741563 
" clip-path="url(#p6994cd945a)" style="fill: none; stroke: #e377c2; stroke-width: 1.5; stroke-linecap: square"/>
   </g>
   <g id="line2d_22">
    <path d="M 173.045455 211.724761 
L 182.213034 212.749054 
L 191.380613 200.628343 
L 218.883352 201.353879 
L 228.050931 197.256737 
L 237.21851 211.554051 
L 246.38609 204.682805 
L 255.553669 198.281026 
L 283.056407 206.176556 
L 292.223987 195.080126 
L 301.391566 240.83154 
L 310.559146 215.480479 
L 319.726725 212.364942 
L 356.397043 214.413515 
L 365.564622 180.09996 
L 374.732202 199.689414 
L 383.899781 230.460649 
L 411.402519 206.304595 
L 420.570099 209.42012 
L 429.737678 189.105134 
L 438.905257 213.687979 
L 448.072837 223.333334 
L 475.575575 232.978685 
L 484.743154 242.197252 
L 493.910734 207.371551 
L 503.078313 233.576182 
L 512.245893 226.918329 
L 539.748631 206.304595 
L 548.91621 224.613688 
L 558.08379 204.170655 
L 567.251369 226.320828 
L 576.418949 181.465664 
L 603.921687 184.453166 
L 613.089266 228.497436 
L 622.256846 216.632802 
L 631.424425 199.433341 
L 640.592004 217.913155 
L 668.094743 173.612809 
L 677.262322 218.89476 
L 686.429901 199.689414 
L 695.597481 223.461369 
L 704.76506 228.497436 
L 732.267798 219.108158 
L 741.435378 212.194232 
L 750.602957 208.865306 
L 759.770537 221.882267 
L 796.440854 171.862993 
L 805.608434 170.070497 
L 814.776013 204.81084 
L 823.943593 177.880673 
L 833.111172 188.678346 
L 860.61391 181.209599 
L 869.78149 216.077976 
L 878.949069 208.566553 
L 888.116648 199.774769 
L 897.284228 189.361199 
L 924.786966 162.815139 
L 933.954545 154.108722 
" clip-path="url(#p6994cd945a)" style="fill: none; stroke: #7f7f7f; stroke-width: 1.5; stroke-linecap: square"/>
   </g>
   <g id="line2d_23">
    <path d="M 173.045455 198.638531 
L 182.213034 208.251622 
L 191.380613 208.183304 
L 218.883352 198.02803 
L 228.050931 217.085789 
L 237.21851 212.44269 
L 246.38609 212.44269 
L 255.553669 215.434897 
L 283.056407 221.275758 
L 292.223987 207.605731 
L 301.391566 213.097983 
L 310.559146 206.200595 
L 319.726725 218.10249 
L 356.397043 222.530624 
L 365.564622 203.766038 
L 374.732202 215.434897 
L 383.899781 221.673716 
L 411.402519 203.010049 
L 420.570099 198.17309 
L 429.737678 206.002257 
L 438.905257 195.999205 
L 448.072837 202.443546 
L 475.575575 222.530624 
L 484.743154 213.097983 
L 493.910734 220.077996 
L 503.078313 207.605731 
L 512.245893 214.029762 
L 539.748631 203.010049 
L 548.91621 210.57775 
L 558.08379 213.251306 
L 567.251369 213.401209 
L 576.418949 192.867718 
L 603.921687 192.867718 
L 613.089266 214.627645 
L 622.256846 209.321419 
L 631.424425 197.704677 
L 640.592004 208.121805 
L 668.094743 188.63548 
L 677.262322 209.52694 
L 686.429901 215.434897 
L 695.597481 203.094932 
L 704.76506 214.627645 
L 732.267798 195.999205 
L 741.435378 172.642458 
L 750.602957 207.899819 
L 759.770537 195.999205 
L 796.440854 188.63548 
L 805.608434 167.156351 
L 814.776013 205.191097 
L 823.943593 198.393651 
L 833.111172 198.393651 
L 860.61391 193.006978 
L 869.78149 203.094932 
L 878.949069 198.393651 
L 888.116648 203.094932 
L 897.284228 193.006978 
L 924.786966 190.281955 
L 933.954545 155.469094 
" clip-path="url(#p6994cd945a)" style="fill: none; stroke: #bcbd22; stroke-width: 1.5; stroke-linecap: square"/>
   </g>
   <g id="line2d_24">
    <path d="M 173.045455 195.415974 
L 182.213034 223.455375 
L 191.380613 207.061476 
L 218.883352 196.127464 
L 228.050931 212.966536 
L 237.21851 214.121689 
L 246.38609 214.209047 
L 255.553669 206.321953 
L 283.056407 212.407189 
L 292.223987 198.390297 
L 301.391566 209.080476 
L 310.559146 196.474764 
L 319.726725 211.681962 
L 356.397043 213.063102 
L 365.564622 199.304941 
L 374.732202 207.444967 
L 383.899781 207.51256 
L 411.402519 213.708403 
L 420.570099 197.630438 
L 429.737678 204.59071 
L 438.905257 204.990014 
L 448.072837 209.322951 
L 475.575575 209.584396 
L 484.743154 209.121815 
L 493.910734 202.726089 
L 503.078313 197.101199 
L 512.245893 203.369881 
L 539.748631 213.598269 
L 548.91621 225.360924 
L 558.08379 192.054879 
L 567.251369 219.53822 
L 576.418949 197.795487 
L 603.921687 197.632367 
L 613.089266 208.047264 
L 622.256846 200.696065 
L 631.424425 214.769231 
L 640.592004 199.991481 
L 668.094743 196.130651 
L 677.262322 201.588625 
L 686.429901 207.37898 
L 695.597481 211.600074 
L 704.76506 208.138626 
L 732.267798 207.699246 
L 741.435378 191.013316 
L 750.602957 193.965368 
L 759.770537 207.428488 
L 796.440854 197.414185 
L 805.608434 181.833787 
L 814.776013 218.57308 
L 823.943593 222.245071 
L 833.111172 226.973147 
L 860.61391 219.859375 
L 869.78149 212.999409 
L 878.949069 222.013728 
L 888.116648 214.317782 
L 897.284228 216.508435 
L 924.786966 202.772747 
L 933.954545 112.21839 
" clip-path="url(#p6994cd945a)" style="fill: none; stroke: #17becf; stroke-width: 1.5; stroke-linecap: square"/>
   </g>
   <g id="line2d_25">
    <path d="M 173.045455 195.520949 
L 182.213034 222.476818 
L 191.380613 205.888591 
L 218.883352 197.594478 
L 228.050931 212.109176 
L 237.21851 212.109176 
L 246.38609 212.109176 
L 255.553669 204.851827 
L 283.056407 211.072412 
L 292.223987 197.594478 
L 301.391566 207.962119 
L 310.559146 197.594478 
L 319.726725 211.072412 
L 356.397043 211.072412 
L 365.564622 200.70477 
L 374.732202 205.888591 
L 383.899781 206.925355 
L 411.402519 212.109176 
L 420.570099 197.594478 
L 429.737678 203.815063 
L 438.905257 202.778299 
L 448.072837 206.925355 
L 475.575575 207.962119 
L 484.743154 207.962119 
L 493.910734 202.778299 
L 503.078313 196.557713 
L 512.245893 203.815063 
L 539.748631 212.109176 
L 548.91621 222.476818 
L 558.08379 194.484185 
L 567.251369 218.329761 
L 576.418949 196.557713 
L 603.921687 196.557713 
L 613.089266 206.925355 
L 622.256846 200.70477 
L 631.424425 212.109176 
L 640.592004 200.70477 
L 668.094743 194.484185 
L 677.262322 200.70477 
L 686.429901 205.888591 
L 695.597481 208.998884 
L 704.76506 206.925355 
L 732.267798 204.851827 
L 741.435378 189.300364 
L 750.602957 194.484185 
L 759.770537 204.851827 
L 796.440854 195.520949 
L 805.608434 183.079779 
L 814.776013 216.256233 
L 823.943593 218.329761 
L 833.111172 222.476818 
L 860.61391 216.256233 
L 869.78149 210.035648 
L 878.949069 218.329761 
L 888.116648 211.072412 
L 897.284228 212.109176 
L 924.786966 199.668006 
L 933.954545 118.8004 
" clip-path="url(#p6994cd945a)" style="fill: none; stroke: #1f77b4; stroke-width: 1.5; stroke-linecap: square"/>
   </g>
   <g id="line2d_26">
    <path d="M 173.045455 202.370324 
L 182.213034 202.263096 
L 191.380613 202.57725 
L 218.883352 202.264297 
L 228.050931 202.001549 
L 237.21851 202.823087 
L 246.38609 202.937702 
L 255.553669 203.080056 
L 283.056407 202.259555 
L 292.223987 203.169171 
L 301.391566 202.333612 
L 310.559146 202.068849 
L 319.726725 201.987364 
L 356.397043 202.931027 
L 365.564622 202.484614 
L 374.732202 203.053457 
L 383.899781 202.07823 
L 411.402519 202.384936 
L 420.570099 202.313464 
L 429.737678 202.398286 
L 438.905257 205.030754 
L 448.072837 204.441885 
L 475.575575 202.857867 
L 484.743154 202.367394 
L 493.910734 202.016507 
L 503.078313 202.957565 
L 512.245893 202.039218 
L 539.748631 202.295881 
L 548.91621 202.622836 
L 558.08379 203.088847 
L 567.251369 201.985166 
L 576.418949 204.180155 
L 603.921687 203.83928 
L 613.089266 202.425617 
L 622.256846 202.097706 
L 631.424425 203.876339 
L 640.592004 202.032624 
L 668.094743 205.83418 
L 677.262322 202.851151 
L 686.429901 202.960617 
L 695.597481 204.430692 
L 704.76506 202.511721 
L 732.267798 206.356115 
L 741.435378 208.085377 
L 750.602957 202.164294 
L 759.770537 205.477839 
L 796.440854 206.306968 
L 805.608434 202.508506 
L 814.776013 202.687022 
L 823.943593 205.43848 
L 833.111172 205.957139 
L 860.61391 205.137005 
L 869.78149 205.09323 
L 878.949069 204.795316 
L 888.116648 205.611787 
L 897.284228 210.028708 
L 924.786966 209.779412 
L 933.954545 492.48 
" clip-path="url(#p6994cd945a)" style="fill: none; stroke: #ff7f0e; stroke-width: 1.5; stroke-linecap: square"/>
   </g>
   <g id="line2d_27">
    <path d="M 237.21851 215.25109 
L 246.38609 195.544713 
L 255.553669 199.780003 
L 283.056407 208.840938 
L 292.223987 194.29469 
L 301.391566 187.036076 
L 310.559146 187.925708 
L 319.726725 190.939588 
L 356.397043 196.997164 
L 365.564622 201.659331 
L 374.732202 205.867413 
L 383.899781 218.45873 
L 411.402519 201.101457 
L 420.570099 196.081442 
L 429.737678 208.093843 
L 438.905257 202.16991 
L 448.072837 191.498786 
L 475.575575 173.718848 
L 484.743154 181.906005 
L 493.910734 182.565999 
L 503.078313 189.248159 
L 512.245893 193.172836 
L 539.748631 197.304358 
L 548.91621 194.105265 
L 558.08379 186.765676 
L 567.251369 198.169081 
L 576.418949 212.338474 
L 603.921687 197.473004 
L 613.089266 180.466761 
L 622.256846 189.670151 
L 631.424425 167.709687 
L 640.592004 180.534977 
L 668.094743 193.786288 
L 677.262322 192.779843 
L 686.429901 181.966731 
L 695.597481 165.692402 
L 704.76506 171.737502 
L 732.267798 179.366174 
L 741.435378 186.349605 
L 750.602957 148.721975 
L 759.770537 129.840983 
L 796.440854 129.4625 
L 805.608434 107.158272 
L 814.776013 120.199096 
L 823.943593 134.995292 
L 833.111172 121.165226 
L 860.61391 152.610673 
L 869.78149 180.883055 
L 878.949069 171.880405 
L 888.116648 159.805101 
L 897.284228 157.027308 
L 924.786966 156.83186 
L 933.954545 145.695213 
" clip-path="url(#p6994cd945a)" style="fill: none; stroke: #2ca02c; stroke-width: 1.5; stroke-linecap: square"/>
   </g>
   <g id="line2d_28">
    <path d="M 173.045455 164.607627 
L 182.213034 156.712117 
L 191.380613 157.565666 
L 218.883352 159.699602 
L 228.050931 158.846052 
L 237.21851 158.632655 
L 246.38609 165.24782 
L 255.553669 173.356728 
L 283.056407 168.448703 
L 292.223987 162.473691 
L 301.391566 162.260334 
L 310.559146 171.009435 
L 319.726725 171.649587 
L 356.397043 185.946925 
L 365.564622 188.721014 
L 374.732202 182.105849 
L 383.899781 188.721014 
L 411.402519 187.227271 
L 420.570099 179.758536 
L 429.737678 178.691547 
L 438.905257 176.771009 
L 448.072837 171.649587 
L 475.575575 176.771009 
L 484.743154 171.649587 
L 493.910734 166.741563 
L 503.078313 181.892451 
L 512.245893 190.85495 
L 539.748631 203.871902 
L 548.91621 207.926377 
L 558.08379 224.997803 
L 567.251369 219.449586 
L 576.418949 222.437092 
L 603.921687 222.863867 
L 613.089266 214.114766 
L 622.256846 225.851374 
L 631.424425 229.905828 
L 640.592004 227.985289 
L 668.094743 223.290663 
L 677.262322 222.437092 
L 686.429901 214.541541 
L 695.597481 211.980831 
L 704.76506 206.005838 
L 732.267798 213.047798 
L 741.435378 218.596016 
L 750.602957 224.35761 
L 759.770537 221.796899 
L 796.440854 218.809413 
L 805.608434 215.181734 
L 814.776013 243.349575 
L 823.943593 244.416543 
L 833.111172 247.830825 
L 860.61391 241.215639 
L 869.78149 237.161186 
L 878.949069 229.905828 
L 888.116648 236.521013 
L 897.284228 234.813872 
L 924.786966 236.521013 
L 933.954545 246.763857 
" clip-path="url(#p6994cd945a)" style="fill: none; stroke: #000000; stroke-width: 2; stroke-linecap: square"/>
   </g>
   <g id="patch_3">
    <path d="M 135 512.64 
L 135 69.12 
" style="fill: none; stroke: #000000; stroke-width: 0.8; stroke-linejoin: miter; stroke-linecap: square"/>
   </g>
   <g id="patch_4">
    <path d="M 972 512.64 
L 972 69.12 
" style="fill: none; stroke: #000000; stroke-width: 0.8; stroke-linejoin: miter; stroke-linecap: square"/>
   </g>
   <g id="patch_5">
    <path d="M 135 512.64 
L 972 512.64 
" style="fill: none; stroke: #000000; stroke-width: 0.8; stroke-linejoin: miter; stroke-linecap: square"/>
   </g>
   <g id="patch_6">
    <path d="M 135 69.12 
L 972 69.12 
" style="fill: none; stroke: #000000; stroke-width: 0.8; stroke-linejoin: miter; stroke-linecap: square"/>
   </g>
   <g id="text_17">
    <!-- Tahminler ve Gerçek Değerler -->
    <g transform="translate(464.000625 63.12) scale(0.12 -0.12)">
     <defs>
      <path id="DejaVuSans-54" d="M -19 4666 
L 3928 4666 
L 3928 4134 
L 2272 4134 
L 2272 0 
L 1638 0 
L 1638 4134 
L -19 4134 
L -19 4666 
z
" transform="scale(0.015625)"/>
      <path id="DejaVuSans-68" d="M 3513 2113 
L 3513 0 
L 2938 0 
L 2938 2094 
Q 2938 2591 2744 2837 
Q 2550 3084 2163 3084 
Q 1697 3084 1428 2787 
Q 1159 2491 1159 1978 
L 1159 0 
L 581 0 
L 581 4863 
L 1159 4863 
L 1159 2956 
Q 1366 3272 1645 3428 
Q 1925 3584 2291 3584 
Q 2894 3584 3203 3211 
Q 3513 2838 3513 2113 
z
" transform="scale(0.015625)"/>
      <path id="DejaVuSans-6d" d="M 3328 2828 
Q 3544 3216 3844 3400 
Q 4144 3584 4550 3584 
Q 5097 3584 5394 3201 
Q 5691 2819 5691 2113 
L 5691 0 
L 5113 0 
L 5113 2094 
Q 5113 2597 4934 2840 
Q 4756 3084 4391 3084 
Q 3944 3084 3684 2787 
Q 3425 2491 3425 1978 
L 3425 0 
L 2847 0 
L 2847 2094 
Q 2847 2600 2669 2842 
Q 2491 3084 2119 3084 
Q 1678 3084 1418 2786 
Q 1159 2488 1159 1978 
L 1159 0 
L 581 0 
L 581 3500 
L 1159 3500 
L 1159 2956 
Q 1356 3278 1631 3431 
Q 1906 3584 2284 3584 
Q 2666 3584 2933 3390 
Q 3200 3197 3328 2828 
z
" transform="scale(0.015625)"/>
      <path id="DejaVuSans-69" d="M 603 3500 
L 1178 3500 
L 1178 0 
L 603 0 
L 603 3500 
z
M 603 4863 
L 1178 4863 
L 1178 4134 
L 603 4134 
L 603 4863 
z
" transform="scale(0.015625)"/>
      <path id="DejaVuSans-6e" d="M 3513 2113 
L 3513 0 
L 2938 0 
L 2938 2094 
Q 2938 2591 2744 2837 
Q 2550 3084 2163 3084 
Q 1697 3084 1428 2787 
Q 1159 2491 1159 1978 
L 1159 0 
L 581 0 
L 581 3500 
L 1159 3500 
L 1159 2956 
Q 1366 3272 1645 3428 
Q 1925 3584 2291 3584 
Q 2894 3584 3203 3211 
Q 3513 2838 3513 2113 
z
" transform="scale(0.015625)"/>
      <path id="DejaVuSans-72" d="M 2631 2963 
Q 2534 3019 2420 3045 
Q 2306 3072 2169 3072 
Q 1681 3072 1420 2755 
Q 1159 2438 1159 1844 
L 1159 0 
L 581 0 
L 581 3500 
L 1159 3500 
L 1159 2956 
Q 1341 3275 1631 3429 
Q 1922 3584 2338 3584 
Q 2397 3584 2469 3576 
Q 2541 3569 2628 3553 
L 2631 2963 
z
" transform="scale(0.015625)"/>
      <path id="DejaVuSans-76" d="M 191 3500 
L 800 3500 
L 1894 563 
L 2988 3500 
L 3597 3500 
L 2284 0 
L 1503 0 
L 191 3500 
z
" transform="scale(0.015625)"/>
      <path id="DejaVuSans-47" d="M 3809 666 
L 3809 1919 
L 2778 1919 
L 2778 2438 
L 4434 2438 
L 4434 434 
Q 4069 175 3628 42 
Q 3188 -91 2688 -91 
Q 1594 -91 976 548 
Q 359 1188 359 2328 
Q 359 3472 976 4111 
Q 1594 4750 2688 4750 
Q 3144 4750 3555 4637 
Q 3966 4525 4313 4306 
L 4313 3634 
Q 3963 3931 3569 4081 
Q 3175 4231 2741 4231 
Q 1884 4231 1454 3753 
Q 1025 3275 1025 2328 
Q 1025 1384 1454 906 
Q 1884 428 2741 428 
Q 3075 428 3337 486 
Q 3600 544 3809 666 
z
" transform="scale(0.015625)"/>
      <path id="DejaVuSans-e7" d="M 3122 3366 
L 3122 2828 
Q 2878 2963 2633 3030 
Q 2388 3097 2138 3097 
Q 1578 3097 1268 2742 
Q 959 2388 959 1747 
Q 959 1106 1268 751 
Q 1578 397 2138 397 
Q 2388 397 2633 464 
Q 2878 531 3122 666 
L 3122 134 
Q 2881 22 2623 -34 
Q 2366 -91 2075 -91 
Q 1284 -91 818 406 
Q 353 903 353 1747 
Q 353 2603 823 3093 
Q 1294 3584 2113 3584 
Q 2378 3584 2631 3529 
Q 2884 3475 3122 3366 
z
M 2311 0 
Q 2482 -194 2566 -358 
Q 2651 -522 2651 -672 
Q 2651 -950 2463 -1092 
Q 2276 -1234 1907 -1234 
Q 1764 -1234 1628 -1215 
Q 1492 -1197 1357 -1159 
L 1357 -750 
Q 1464 -803 1579 -826 
Q 1695 -850 1842 -850 
Q 2026 -850 2120 -775 
Q 2214 -700 2214 -556 
Q 2214 -463 2146 -327 
Q 2079 -191 1939 0 
L 2311 0 
z
" transform="scale(0.015625)"/>
      <path id="DejaVuSans-6b" d="M 581 4863 
L 1159 4863 
L 1159 1991 
L 2875 3500 
L 3609 3500 
L 1753 1863 
L 3688 0 
L 2938 0 
L 1159 1709 
L 1159 0 
L 581 0 
L 581 4863 
z
" transform="scale(0.015625)"/>
      <path id="DejaVuSans-11f" d="M 2906 1791 
Q 2906 2416 2648 2759 
Q 2391 3103 1925 3103 
Q 1463 3103 1205 2759 
Q 947 2416 947 1791 
Q 947 1169 1205 825 
Q 1463 481 1925 481 
Q 2391 481 2648 825 
Q 2906 1169 2906 1791 
z
M 3481 434 
Q 3481 -459 3084 -895 
Q 2688 -1331 1869 -1331 
Q 1566 -1331 1297 -1286 
Q 1028 -1241 775 -1147 
L 775 -588 
Q 1028 -725 1275 -790 
Q 1522 -856 1778 -856 
Q 2344 -856 2625 -561 
Q 2906 -266 2906 331 
L 2906 616 
Q 2728 306 2450 153 
Q 2172 0 1784 0 
Q 1141 0 747 490 
Q 353 981 353 1791 
Q 353 2603 747 3093 
Q 1141 3584 1784 3584 
Q 2172 3584 2450 3431 
Q 2728 3278 2906 2969 
L 2906 3500 
L 3481 3500 
L 3481 434 
z
M 1054 5025 
L 1423 5025 
Q 1457 4791 1608 4673 
Q 1760 4556 2032 4556 
Q 2301 4556 2451 4672 
Q 2601 4788 2641 5025 
L 3010 5025 
Q 2979 4578 2732 4353 
Q 2485 4128 2032 4128 
Q 1579 4128 1332 4353 
Q 1085 4578 1054 5025 
z
" transform="scale(0.015625)"/>
     </defs>
     <use xlink:href="#DejaVuSans-54"/>
     <use xlink:href="#DejaVuSans-61" x="44.583984"/>
     <use xlink:href="#DejaVuSans-68" x="105.863281"/>
     <use xlink:href="#DejaVuSans-6d" x="169.242188"/>
     <use xlink:href="#DejaVuSans-69" x="266.654297"/>
     <use xlink:href="#DejaVuSans-6e" x="294.4375"/>
     <use xlink:href="#DejaVuSans-6c" x="357.816406"/>
     <use xlink:href="#DejaVuSans-65" x="385.599609"/>
     <use xlink:href="#DejaVuSans-72" x="447.123047"/>
     <use xlink:href="#DejaVuSans-20" x="488.236328"/>
     <use xlink:href="#DejaVuSans-76" x="520.023438"/>
     <use xlink:href="#DejaVuSans-65" x="579.203125"/>
     <use xlink:href="#DejaVuSans-20" x="640.726562"/>
     <use xlink:href="#DejaVuSans-47" x="672.513672"/>
     <use xlink:href="#DejaVuSans-65" x="750.003906"/>
     <use xlink:href="#DejaVuSans-72" x="811.527344"/>
     <use xlink:href="#DejaVuSans-e7" x="850.390625"/>
     <use xlink:href="#DejaVuSans-65" x="905.371094"/>
     <use xlink:href="#DejaVuSans-6b" x="966.894531"/>
     <use xlink:href="#DejaVuSans-20" x="1024.804688"/>
     <use xlink:href="#DejaVuSans-44" x="1056.591797"/>
     <use xlink:href="#DejaVuSans-65" x="1133.59375"/>
     <use xlink:href="#DejaVuSans-11f" x="1195.117188"/>
     <use xlink:href="#DejaVuSans-65" x="1258.59375"/>
     <use xlink:href="#DejaVuSans-72" x="1320.117188"/>
     <use xlink:href="#DejaVuSans-6c" x="1361.230469"/>
     <use xlink:href="#DejaVuSans-65" x="1389.013672"/>
     <use xlink:href="#DejaVuSans-72" x="1450.537109"/>
    </g>
   </g>
   <g id="legend_1">
    <g id="patch_7">
     <path d="M 142 507.64 
L 306.448438 507.64 
Q 308.448438 507.64 308.448438 505.64 
L 308.448438 300.893125 
Q 308.448438 298.893125 306.448438 298.893125 
L 142 298.893125 
Q 140 298.893125 140 300.893125 
L 140 505.64 
Q 140 507.64 142 507.64 
z
" style="fill: #ffffff; opacity: 0.8; stroke: #cccccc; stroke-linejoin: miter"/>
    </g>
    <g id="line2d_29">
     <path d="M 144 306.991563 
L 154 306.991563 
L 164 306.991563 
" style="fill: none; stroke: #1f77b4; stroke-width: 1.5; stroke-linecap: square"/>
    </g>
    <g id="text_18">
     <!-- ARIMA -->
     <g transform="translate(172 310.491563) scale(0.1 -0.1)">
      <defs>
       <path id="DejaVuSans-52" d="M 2841 2188 
Q 3044 2119 3236 1894 
Q 3428 1669 3622 1275 
L 4263 0 
L 3584 0 
L 2988 1197 
Q 2756 1666 2539 1819 
Q 2322 1972 1947 1972 
L 1259 1972 
L 1259 0 
L 628 0 
L 628 4666 
L 2053 4666 
Q 2853 4666 3247 4331 
Q 3641 3997 3641 3322 
Q 3641 2881 3436 2590 
Q 3231 2300 2841 2188 
z
M 1259 4147 
L 1259 2491 
L 2053 2491 
Q 2509 2491 2742 2702 
Q 2975 2913 2975 3322 
Q 2975 3731 2742 3939 
Q 2509 4147 2053 4147 
L 1259 4147 
z
" transform="scale(0.015625)"/>
       <path id="DejaVuSans-49" d="M 628 4666 
L 1259 4666 
L 1259 0 
L 628 0 
L 628 4666 
z
" transform="scale(0.015625)"/>
       <path id="DejaVuSans-4d" d="M 628 4666 
L 1569 4666 
L 2759 1491 
L 3956 4666 
L 4897 4666 
L 4897 0 
L 4281 0 
L 4281 4097 
L 3078 897 
L 2444 897 
L 1241 4097 
L 1241 0 
L 628 0 
L 628 4666 
z
" transform="scale(0.015625)"/>
      </defs>
      <use xlink:href="#DejaVuSans-41"/>
      <use xlink:href="#DejaVuSans-52" x="68.408203"/>
      <use xlink:href="#DejaVuSans-49" x="137.890625"/>
      <use xlink:href="#DejaVuSans-4d" x="167.382812"/>
      <use xlink:href="#DejaVuSans-41" x="253.662109"/>
     </g>
    </g>
    <g id="line2d_30">
     <path d="M 144 321.669688 
L 154 321.669688 
L 164 321.669688 
" style="fill: none; stroke: #ff7f0e; stroke-width: 1.5; stroke-linecap: square"/>
    </g>
    <g id="text_19">
     <!-- ETS -->
     <g transform="translate(172 325.169688) scale(0.1 -0.1)">
      <defs>
       <path id="DejaVuSans-45" d="M 628 4666 
L 3578 4666 
L 3578 4134 
L 1259 4134 
L 1259 2753 
L 3481 2753 
L 3481 2222 
L 1259 2222 
L 1259 531 
L 3634 531 
L 3634 0 
L 628 0 
L 628 4666 
z
" transform="scale(0.015625)"/>
       <path id="DejaVuSans-53" d="M 3425 4513 
L 3425 3897 
Q 3066 4069 2747 4153 
Q 2428 4238 2131 4238 
Q 1616 4238 1336 4038 
Q 1056 3838 1056 3469 
Q 1056 3159 1242 3001 
Q 1428 2844 1947 2747 
L 2328 2669 
Q 3034 2534 3370 2195 
Q 3706 1856 3706 1288 
Q 3706 609 3251 259 
Q 2797 -91 1919 -91 
Q 1588 -91 1214 -16 
Q 841 59 441 206 
L 441 856 
Q 825 641 1194 531 
Q 1563 422 1919 422 
Q 2459 422 2753 634 
Q 3047 847 3047 1241 
Q 3047 1584 2836 1778 
Q 2625 1972 2144 2069 
L 1759 2144 
Q 1053 2284 737 2584 
Q 422 2884 422 3419 
Q 422 4038 858 4394 
Q 1294 4750 2059 4750 
Q 2388 4750 2728 4690 
Q 3069 4631 3425 4513 
z
" transform="scale(0.015625)"/>
      </defs>
      <use xlink:href="#DejaVuSans-45"/>
      <use xlink:href="#DejaVuSans-54" x="63.183594"/>
      <use xlink:href="#DejaVuSans-53" x="124.267578"/>
     </g>
    </g>
    <g id="line2d_31">
     <path d="M 144 336.347813 
L 154 336.347813 
L 164 336.347813 
" style="fill: none; stroke: #2ca02c; stroke-width: 1.5; stroke-linecap: square"/>
    </g>
    <g id="text_20">
     <!-- Random Forest -->
     <g transform="translate(172 339.847813) scale(0.1 -0.1)">
      <defs>
       <path id="DejaVuSans-46" d="M 628 4666 
L 3309 4666 
L 3309 4134 
L 1259 4134 
L 1259 2759 
L 3109 2759 
L 3109 2228 
L 1259 2228 
L 1259 0 
L 628 0 
L 628 4666 
z
" transform="scale(0.015625)"/>
      </defs>
      <use xlink:href="#DejaVuSans-52"/>
      <use xlink:href="#DejaVuSans-61" x="67.232422"/>
      <use xlink:href="#DejaVuSans-6e" x="128.511719"/>
      <use xlink:href="#DejaVuSans-64" x="191.890625"/>
      <use xlink:href="#DejaVuSans-6f" x="255.367188"/>
      <use xlink:href="#DejaVuSans-6d" x="316.548828"/>
      <use xlink:href="#DejaVuSans-20" x="413.960938"/>
      <use xlink:href="#DejaVuSans-46" x="445.748047"/>
      <use xlink:href="#DejaVuSans-6f" x="499.642578"/>
      <use xlink:href="#DejaVuSans-72" x="560.824219"/>
      <use xlink:href="#DejaVuSans-65" x="599.6875"/>
      <use xlink:href="#DejaVuSans-73" x="661.210938"/>
      <use xlink:href="#DejaVuSans-74" x="713.310547"/>
     </g>
    </g>
    <g id="line2d_32">
     <path d="M 144 351.025938 
L 154 351.025938 
L 164 351.025938 
" style="fill: none; stroke: #d62728; stroke-width: 1.5; stroke-linecap: square"/>
    </g>
    <g id="text_21">
     <!-- Gradient Boosting -->
     <g transform="translate(172 354.525938) scale(0.1 -0.1)">
      <defs>
       <path id="DejaVuSans-42" d="M 1259 2228 
L 1259 519 
L 2272 519 
Q 2781 519 3026 730 
Q 3272 941 3272 1375 
Q 3272 1813 3026 2020 
Q 2781 2228 2272 2228 
L 1259 2228 
z
M 1259 4147 
L 1259 2741 
L 2194 2741 
Q 2656 2741 2882 2914 
Q 3109 3088 3109 3444 
Q 3109 3797 2882 3972 
Q 2656 4147 2194 4147 
L 1259 4147 
z
M 628 4666 
L 2241 4666 
Q 2963 4666 3353 4366 
Q 3744 4066 3744 3513 
Q 3744 3084 3544 2831 
Q 3344 2578 2956 2516 
Q 3422 2416 3680 2098 
Q 3938 1781 3938 1306 
Q 3938 681 3513 340 
Q 3088 0 2303 0 
L 628 0 
L 628 4666 
z
" transform="scale(0.015625)"/>
       <path id="DejaVuSans-67" d="M 2906 1791 
Q 2906 2416 2648 2759 
Q 2391 3103 1925 3103 
Q 1463 3103 1205 2759 
Q 947 2416 947 1791 
Q 947 1169 1205 825 
Q 1463 481 1925 481 
Q 2391 481 2648 825 
Q 2906 1169 2906 1791 
z
M 3481 434 
Q 3481 -459 3084 -895 
Q 2688 -1331 1869 -1331 
Q 1566 -1331 1297 -1286 
Q 1028 -1241 775 -1147 
L 775 -588 
Q 1028 -725 1275 -790 
Q 1522 -856 1778 -856 
Q 2344 -856 2625 -561 
Q 2906 -266 2906 331 
L 2906 616 
Q 2728 306 2450 153 
Q 2172 0 1784 0 
Q 1141 0 747 490 
Q 353 981 353 1791 
Q 353 2603 747 3093 
Q 1141 3584 1784 3584 
Q 2172 3584 2450 3431 
Q 2728 3278 2906 2969 
L 2906 3500 
L 3481 3500 
L 3481 434 
z
" transform="scale(0.015625)"/>
      </defs>
      <use xlink:href="#DejaVuSans-47"/>
      <use xlink:href="#DejaVuSans-72" x="77.490234"/>
      <use xlink:href="#DejaVuSans-61" x="118.603516"/>
      <use xlink:href="#DejaVuSans-64" x="179.882812"/>
      <use xlink:href="#DejaVuSans-69" x="243.359375"/>
      <use xlink:href="#DejaVuSans-65" x="271.142578"/>
      <use xlink:href="#DejaVuSans-6e" x="332.666016"/>
      <use xlink:href="#DejaVuSans-74" x="396.044922"/>
      <use xlink:href="#DejaVuSans-20" x="435.253906"/>
      <use xlink:href="#DejaVuSans-42" x="467.041016"/>
      <use xlink:href="#DejaVuSans-6f" x="535.644531"/>
      <use xlink:href="#DejaVuSans-6f" x="596.826172"/>
      <use xlink:href="#DejaVuSans-73" x="658.007812"/>
      <use xlink:href="#DejaVuSans-74" x="710.107422"/>
      <use xlink:href="#DejaVuSans-69" x="749.316406"/>
      <use xlink:href="#DejaVuSans-6e" x="777.099609"/>
      <use xlink:href="#DejaVuSans-67" x="840.478516"/>
     </g>
    </g>
    <g id="line2d_33">
     <path d="M 144 365.704063 
L 154 365.704063 
L 164 365.704063 
" style="fill: none; stroke: #9467bd; stroke-width: 1.5; stroke-linecap: square"/>
    </g>
    <g id="text_22">
     <!-- Linear Regression -->
     <g transform="translate(172 369.204063) scale(0.1 -0.1)">
      <defs>
       <path id="DejaVuSans-4c" d="M 628 4666 
L 1259 4666 
L 1259 531 
L 3531 531 
L 3531 0 
L 628 0 
L 628 4666 
z
" transform="scale(0.015625)"/>
      </defs>
      <use xlink:href="#DejaVuSans-4c"/>
      <use xlink:href="#DejaVuSans-69" x="55.712891"/>
      <use xlink:href="#DejaVuSans-6e" x="83.496094"/>
      <use xlink:href="#DejaVuSans-65" x="146.875"/>
      <use xlink:href="#DejaVuSans-61" x="208.398438"/>
      <use xlink:href="#DejaVuSans-72" x="269.677734"/>
      <use xlink:href="#DejaVuSans-20" x="310.791016"/>
      <use xlink:href="#DejaVuSans-52" x="342.578125"/>
      <use xlink:href="#DejaVuSans-65" x="407.560547"/>
      <use xlink:href="#DejaVuSans-67" x="469.083984"/>
      <use xlink:href="#DejaVuSans-72" x="532.560547"/>
      <use xlink:href="#DejaVuSans-65" x="571.423828"/>
      <use xlink:href="#DejaVuSans-73" x="632.947266"/>
      <use xlink:href="#DejaVuSans-73" x="685.046875"/>
      <use xlink:href="#DejaVuSans-69" x="737.146484"/>
      <use xlink:href="#DejaVuSans-6f" x="764.929688"/>
      <use xlink:href="#DejaVuSans-6e" x="826.111328"/>
     </g>
    </g>
    <g id="line2d_34">
     <path d="M 144 380.382188 
L 154 380.382188 
L 164 380.382188 
" style="fill: none; stroke: #8c564b; stroke-width: 1.5; stroke-linecap: square"/>
    </g>
    <g id="text_23">
     <!-- Support Vector Regression -->
     <g transform="translate(172 383.882188) scale(0.1 -0.1)">
      <defs>
       <path id="DejaVuSans-75" d="M 544 1381 
L 544 3500 
L 1119 3500 
L 1119 1403 
Q 1119 906 1312 657 
Q 1506 409 1894 409 
Q 2359 409 2629 706 
Q 2900 1003 2900 1516 
L 2900 3500 
L 3475 3500 
L 3475 0 
L 2900 0 
L 2900 538 
Q 2691 219 2414 64 
Q 2138 -91 1772 -91 
Q 1169 -91 856 284 
Q 544 659 544 1381 
z
M 1991 3584 
L 1991 3584 
z
" transform="scale(0.015625)"/>
       <path id="DejaVuSans-70" d="M 1159 525 
L 1159 -1331 
L 581 -1331 
L 581 3500 
L 1159 3500 
L 1159 2969 
Q 1341 3281 1617 3432 
Q 1894 3584 2278 3584 
Q 2916 3584 3314 3078 
Q 3713 2572 3713 1747 
Q 3713 922 3314 415 
Q 2916 -91 2278 -91 
Q 1894 -91 1617 61 
Q 1341 213 1159 525 
z
M 3116 1747 
Q 3116 2381 2855 2742 
Q 2594 3103 2138 3103 
Q 1681 3103 1420 2742 
Q 1159 2381 1159 1747 
Q 1159 1113 1420 752 
Q 1681 391 2138 391 
Q 2594 391 2855 752 
Q 3116 1113 3116 1747 
z
" transform="scale(0.015625)"/>
       <path id="DejaVuSans-56" d="M 1831 0 
L 50 4666 
L 709 4666 
L 2188 738 
L 3669 4666 
L 4325 4666 
L 2547 0 
L 1831 0 
z
" transform="scale(0.015625)"/>
       <path id="DejaVuSans-63" d="M 3122 3366 
L 3122 2828 
Q 2878 2963 2633 3030 
Q 2388 3097 2138 3097 
Q 1578 3097 1268 2742 
Q 959 2388 959 1747 
Q 959 1106 1268 751 
Q 1578 397 2138 397 
Q 2388 397 2633 464 
Q 2878 531 3122 666 
L 3122 134 
Q 2881 22 2623 -34 
Q 2366 -91 2075 -91 
Q 1284 -91 818 406 
Q 353 903 353 1747 
Q 353 2603 823 3093 
Q 1294 3584 2113 3584 
Q 2378 3584 2631 3529 
Q 2884 3475 3122 3366 
z
" transform="scale(0.015625)"/>
      </defs>
      <use xlink:href="#DejaVuSans-53"/>
      <use xlink:href="#DejaVuSans-75" x="63.476562"/>
      <use xlink:href="#DejaVuSans-70" x="126.855469"/>
      <use xlink:href="#DejaVuSans-70" x="190.332031"/>
      <use xlink:href="#DejaVuSans-6f" x="253.808594"/>
      <use xlink:href="#DejaVuSans-72" x="314.990234"/>
      <use xlink:href="#DejaVuSans-74" x="356.103516"/>
      <use xlink:href="#DejaVuSans-20" x="395.3125"/>
      <use xlink:href="#DejaVuSans-56" x="427.099609"/>
      <use xlink:href="#DejaVuSans-65" x="487.757812"/>
      <use xlink:href="#DejaVuSans-63" x="549.28125"/>
      <use xlink:href="#DejaVuSans-74" x="604.261719"/>
      <use xlink:href="#DejaVuSans-6f" x="643.470703"/>
      <use xlink:href="#DejaVuSans-72" x="704.652344"/>
      <use xlink:href="#DejaVuSans-20" x="745.765625"/>
      <use xlink:href="#DejaVuSans-52" x="777.552734"/>
      <use xlink:href="#DejaVuSans-65" x="842.535156"/>
      <use xlink:href="#DejaVuSans-67" x="904.058594"/>
      <use xlink:href="#DejaVuSans-72" x="967.535156"/>
      <use xlink:href="#DejaVuSans-65" x="1006.398438"/>
      <use xlink:href="#DejaVuSans-73" x="1067.921875"/>
      <use xlink:href="#DejaVuSans-73" x="1120.021484"/>
      <use xlink:href="#DejaVuSans-69" x="1172.121094"/>
      <use xlink:href="#DejaVuSans-6f" x="1199.904297"/>
      <use xlink:href="#DejaVuSans-6e" x="1261.085938"/>
     </g>
    </g>
    <g id="line2d_35">
     <path d="M 144 395.060313 
L 154 395.060313 
L 164 395.060313 
" style="fill: none; stroke: #e377c2; stroke-width: 1.5; stroke-linecap: square"/>
    </g>
    <g id="text_24">
     <!-- Decision Tree -->
     <g transform="translate(172 398.560313) scale(0.1 -0.1)">
      <use xlink:href="#DejaVuSans-44"/>
      <use xlink:href="#DejaVuSans-65" x="77.001953"/>
      <use xlink:href="#DejaVuSans-63" x="138.525391"/>
      <use xlink:href="#DejaVuSans-69" x="193.505859"/>
      <use xlink:href="#DejaVuSans-73" x="221.289062"/>
      <use xlink:href="#DejaVuSans-69" x="273.388672"/>
      <use xlink:href="#DejaVuSans-6f" x="301.171875"/>
      <use xlink:href="#DejaVuSans-6e" x="362.353516"/>
      <use xlink:href="#DejaVuSans-20" x="425.732422"/>
      <use xlink:href="#DejaVuSans-54" x="457.519531"/>
      <use xlink:href="#DejaVuSans-72" x="503.853516"/>
      <use xlink:href="#DejaVuSans-65" x="542.716797"/>
      <use xlink:href="#DejaVuSans-65" x="604.240234"/>
     </g>
    </g>
    <g id="line2d_36">
     <path d="M 144 409.738438 
L 154 409.738438 
L 164 409.738438 
" style="fill: none; stroke: #7f7f7f; stroke-width: 1.5; stroke-linecap: square"/>
    </g>
    <g id="text_25">
     <!-- K-Nearest Neighbors -->
     <g transform="translate(172 413.238438) scale(0.1 -0.1)">
      <defs>
       <path id="DejaVuSans-4b" d="M 628 4666 
L 1259 4666 
L 1259 2694 
L 3353 4666 
L 4166 4666 
L 1850 2491 
L 4331 0 
L 3500 0 
L 1259 2247 
L 1259 0 
L 628 0 
L 628 4666 
z
" transform="scale(0.015625)"/>
       <path id="DejaVuSans-4e" d="M 628 4666 
L 1478 4666 
L 3547 763 
L 3547 4666 
L 4159 4666 
L 4159 0 
L 3309 0 
L 1241 3903 
L 1241 0 
L 628 0 
L 628 4666 
z
" transform="scale(0.015625)"/>
       <path id="DejaVuSans-62" d="M 3116 1747 
Q 3116 2381 2855 2742 
Q 2594 3103 2138 3103 
Q 1681 3103 1420 2742 
Q 1159 2381 1159 1747 
Q 1159 1113 1420 752 
Q 1681 391 2138 391 
Q 2594 391 2855 752 
Q 3116 1113 3116 1747 
z
M 1159 2969 
Q 1341 3281 1617 3432 
Q 1894 3584 2278 3584 
Q 2916 3584 3314 3078 
Q 3713 2572 3713 1747 
Q 3713 922 3314 415 
Q 2916 -91 2278 -91 
Q 1894 -91 1617 61 
Q 1341 213 1159 525 
L 1159 0 
L 581 0 
L 581 4863 
L 1159 4863 
L 1159 2969 
z
" transform="scale(0.015625)"/>
      </defs>
      <use xlink:href="#DejaVuSans-4b"/>
      <use xlink:href="#DejaVuSans-2d" x="55.076172"/>
      <use xlink:href="#DejaVuSans-4e" x="91.160156"/>
      <use xlink:href="#DejaVuSans-65" x="165.964844"/>
      <use xlink:href="#DejaVuSans-61" x="227.488281"/>
      <use xlink:href="#DejaVuSans-72" x="288.767578"/>
      <use xlink:href="#DejaVuSans-65" x="327.630859"/>
      <use xlink:href="#DejaVuSans-73" x="389.154297"/>
      <use xlink:href="#DejaVuSans-74" x="441.253906"/>
      <use xlink:href="#DejaVuSans-20" x="480.462891"/>
      <use xlink:href="#DejaVuSans-4e" x="512.25"/>
      <use xlink:href="#DejaVuSans-65" x="587.054688"/>
      <use xlink:href="#DejaVuSans-69" x="648.578125"/>
      <use xlink:href="#DejaVuSans-67" x="676.361328"/>
      <use xlink:href="#DejaVuSans-68" x="739.837891"/>
      <use xlink:href="#DejaVuSans-62" x="803.216797"/>
      <use xlink:href="#DejaVuSans-6f" x="866.693359"/>
      <use xlink:href="#DejaVuSans-72" x="927.875"/>
      <use xlink:href="#DejaVuSans-73" x="968.988281"/>
     </g>
    </g>
    <g id="line2d_37">
     <path d="M 144 424.416563 
L 154 424.416563 
L 164 424.416563 
" style="fill: none; stroke: #bcbd22; stroke-width: 1.5; stroke-linecap: square"/>
    </g>
    <g id="text_26">
     <!-- XGBoost -->
     <g transform="translate(172 427.916563) scale(0.1 -0.1)">
      <defs>
       <path id="DejaVuSans-58" d="M 403 4666 
L 1081 4666 
L 2241 2931 
L 3406 4666 
L 4084 4666 
L 2584 2425 
L 4184 0 
L 3506 0 
L 2194 1984 
L 872 0 
L 191 0 
L 1856 2491 
L 403 4666 
z
" transform="scale(0.015625)"/>
      </defs>
      <use xlink:href="#DejaVuSans-58"/>
      <use xlink:href="#DejaVuSans-47" x="68.505859"/>
      <use xlink:href="#DejaVuSans-42" x="145.996094"/>
      <use xlink:href="#DejaVuSans-6f" x="214.599609"/>
      <use xlink:href="#DejaVuSans-6f" x="275.78125"/>
      <use xlink:href="#DejaVuSans-73" x="336.962891"/>
      <use xlink:href="#DejaVuSans-74" x="389.0625"/>
     </g>
    </g>
    <g id="line2d_38">
     <path d="M 144 439.094688 
L 154 439.094688 
L 164 439.094688 
" style="fill: none; stroke: #17becf; stroke-width: 1.5; stroke-linecap: square"/>
    </g>
    <g id="text_27">
     <!-- Ridge Regression -->
     <g transform="translate(172 442.594688) scale(0.1 -0.1)">
      <use xlink:href="#DejaVuSans-52"/>
      <use xlink:href="#DejaVuSans-69" x="69.482422"/>
      <use xlink:href="#DejaVuSans-64" x="97.265625"/>
      <use xlink:href="#DejaVuSans-67" x="160.742188"/>
      <use xlink:href="#DejaVuSans-65" x="224.21875"/>
      <use xlink:href="#DejaVuSans-20" x="285.742188"/>
      <use xlink:href="#DejaVuSans-52" x="317.529297"/>
      <use xlink:href="#DejaVuSans-65" x="382.511719"/>
      <use xlink:href="#DejaVuSans-67" x="444.035156"/>
      <use xlink:href="#DejaVuSans-72" x="507.511719"/>
      <use xlink:href="#DejaVuSans-65" x="546.375"/>
      <use xlink:href="#DejaVuSans-73" x="607.898438"/>
      <use xlink:href="#DejaVuSans-73" x="659.998047"/>
      <use xlink:href="#DejaVuSans-69" x="712.097656"/>
      <use xlink:href="#DejaVuSans-6f" x="739.880859"/>
      <use xlink:href="#DejaVuSans-6e" x="801.0625"/>
     </g>
    </g>
    <g id="line2d_39">
     <path d="M 144 453.772812 
L 154 453.772812 
L 164 453.772812 
" style="fill: none; stroke: #1f77b4; stroke-width: 1.5; stroke-linecap: square"/>
    </g>
    <g id="text_28">
     <!-- ElasticNet -->
     <g transform="translate(172 457.272812) scale(0.1 -0.1)">
      <use xlink:href="#DejaVuSans-45"/>
      <use xlink:href="#DejaVuSans-6c" x="63.183594"/>
      <use xlink:href="#DejaVuSans-61" x="90.966797"/>
      <use xlink:href="#DejaVuSans-73" x="152.246094"/>
      <use xlink:href="#DejaVuSans-74" x="204.345703"/>
      <use xlink:href="#DejaVuSans-69" x="243.554688"/>
      <use xlink:href="#DejaVuSans-63" x="271.337891"/>
      <use xlink:href="#DejaVuSans-4e" x="326.318359"/>
      <use xlink:href="#DejaVuSans-65" x="401.123047"/>
      <use xlink:href="#DejaVuSans-74" x="462.646484"/>
     </g>
    </g>
    <g id="line2d_40">
     <path d="M 144 468.450938 
L 154 468.450938 
L 164 468.450938 
" style="fill: none; stroke: #ff7f0e; stroke-width: 1.5; stroke-linecap: square"/>
    </g>
    <g id="text_29">
     <!-- RNN -->
     <g transform="translate(172 471.950938) scale(0.1 -0.1)">
      <use xlink:href="#DejaVuSans-52"/>
      <use xlink:href="#DejaVuSans-4e" x="69.482422"/>
      <use xlink:href="#DejaVuSans-4e" x="144.287109"/>
     </g>
    </g>
    <g id="line2d_41">
     <path d="M 144 483.129063 
L 154 483.129063 
L 164 483.129063 
" style="fill: none; stroke: #2ca02c; stroke-width: 1.5; stroke-linecap: square"/>
    </g>
    <g id="text_30">
     <!-- LSTM -->
     <g transform="translate(172 486.629063) scale(0.1 -0.1)">
      <use xlink:href="#DejaVuSans-4c"/>
      <use xlink:href="#DejaVuSans-53" x="55.712891"/>
      <use xlink:href="#DejaVuSans-54" x="119.189453"/>
      <use xlink:href="#DejaVuSans-4d" x="180.273438"/>
     </g>
    </g>
    <g id="line2d_42">
     <path d="M 144 498.060313 
L 154 498.060313 
L 164 498.060313 
" style="fill: none; stroke: #000000; stroke-width: 2; stroke-linecap: square"/>
    </g>
    <g id="text_31">
     <!-- Gerçek Değerler -->
     <g transform="translate(172 501.560313) scale(0.1 -0.1)">
      <use xlink:href="#DejaVuSans-47"/>
      <use xlink:href="#DejaVuSans-65" x="77.490234"/>
      <use xlink:href="#DejaVuSans-72" x="139.013672"/>
      <use xlink:href="#DejaVuSans-e7" x="177.876953"/>
      <use xlink:href="#DejaVuSans-65" x="232.857422"/>
      <use xlink:href="#DejaVuSans-6b" x="294.380859"/>
      <use xlink:href="#DejaVuSans-20" x="352.291016"/>
      <use xlink:href="#DejaVuSans-44" x="384.078125"/>
      <use xlink:href="#DejaVuSans-65" x="461.080078"/>
      <use xlink:href="#DejaVuSans-11f" x="522.603516"/>
      <use xlink:href="#DejaVuSans-65" x="586.080078"/>
      <use xlink:href="#DejaVuSans-72" x="647.603516"/>
      <use xlink:href="#DejaVuSans-6c" x="688.716797"/>
      <use xlink:href="#DejaVuSans-65" x="716.5"/>
      <use xlink:href="#DejaVuSans-72" x="778.023438"/>
     </g>
    </g>
   </g>
  </g>
 </g>
 <defs>
  <clipPath id="p6994cd945a">
   <rect x="135" y="69.12" width="837" height="443.52"/>
  </clipPath>
 </defs>
</svg>
